<?xml version="1.0" standalone="no"?>
<!DOCTYPE svg PUBLIC "-//W3C//DTD SVG 1.1//EN" "http://www.w3.org/Graphics/SVG/1.1/DTD/svg11.dtd" >
<svg>
<metadata>
Created by FontForge 20090622 at Wed May 20 10:35:46 2015
 By deploy user
Design and data by The Monotype Corporation. &#194;&#169; 1993. Microsoft Corporation. All rights reserved.
</metadata>
<defs>
<font id="NewsGothicMT-Italic" horiz-adv-x="1110" >
  <font-face 
    font-family="News Gothic MT"
    font-weight="400"
    font-style="italic"
    font-stretch="normal"
    units-per-em="2048"
    panose-1="2 11 5 4 2 2 3 9 2 4"
    ascent="1638"
    descent="-410"
    x-height="1075"
    cap-height="1516"
    bbox="-318 -458 2778 1954"
    underline-thickness="102"
    underline-position="-119"
    slope="-11"
    unicode-range="U+0020-U+F002"
  />
<missing-glyph horiz-adv-x="1536" 
d="M0 0v1280h1024v-1280h-1024zM32 32h960v1216h-960v-1216z" />
    <glyph glyph-name=".notdef" horiz-adv-x="1536" 
d="M0 0v1280h1024v-1280h-1024zM32 32h960v1216h-960v-1216z" />
    <glyph glyph-name="glyph1" horiz-adv-x="0" 
 />
    <glyph glyph-name="glyph2" horiz-adv-x="512" 
 />
    <glyph glyph-name="space" unicode=" " horiz-adv-x="512" 
 />
    <glyph glyph-name="space" unicode="&#xa0;" horiz-adv-x="512" 
 />
    <glyph glyph-name="exclam" unicode="!" horiz-adv-x="748" 
d="M483 1516h209l-253 -1053h-111zM236 227h202l-44 -227h-202z" />
    <glyph glyph-name="quotedbl" unicode="&#x22;" horiz-adv-x="575" 
d="M217 1545h148l-50 -237l-88 -272h-89l28 272zM481 1545h152l-51 -237l-89 -272h-89l27 272z" />
    <glyph glyph-name="numbersign" unicode="#" horiz-adv-x="1366" 
d="M88 972h326l86 405h122l-87 -405h422l85 405h122l-86 -405h198v-122h-222l-77 -371h299v-123h-323l-84 -402h-124l86 402h-424l-82 -402h-124l85 402h-198v123h224l77 371h-301v122zM511 850l-78 -369h423l77 369h-422z" />
    <glyph glyph-name="dollar" unicode="$" horiz-adv-x="1280" 
d="M752 1563h114l-8 -57q116 -31 196.5 -100t147.5 -203l-117 -43q-49 102 -106 151.5t-149 75.5l-109 -567q219 -149 283.5 -242.5t64.5 -213.5q0 -153 -107.5 -272.5t-364.5 -119.5h-41l-48 -249h-112l51 267q-133 42 -224 131.5t-150 243.5l127 43q40 -121 102 -189
t169 -110l121 631q-185 111 -252.5 202.5t-67.5 200.5q0 92 43 172t119 128t165 65q41 8 145 8zM620 881l101 523h-33q-133 0 -210 -71.5t-77 -174.5q0 -71 44 -132.5t175 -144.5zM694 682l-115 -596q36 -3 62 -3q129 0 211 79.5t82 197.5q0 91 -51.5 164t-188.5 158z" />
    <glyph glyph-name="percent" unicode="%" horiz-adv-x="1921" 
d="M1465 1516h117l-1115 -1947h-120l1010 1752q-98 -41 -200.5 -71t-317.5 -76q25 -55 25 -117q0 -198 -126.5 -361.5t-292.5 -163.5q-145 0 -241 100t-96 266q0 127 60 260t151 190t194 57q79 0 150 -36.5t134 -109.5q262 50 399.5 105t268.5 152zM441 650q120 0 213 133
t93 261q0 103 -70 173t-170 70q-130 0 -205.5 -125.5t-75.5 -262.5q0 -112 64 -180.5t151 -68.5zM1406 -329q-145 0 -241 101t-96 268t92 315q116 186 306 186q150 0 252.5 -101t102.5 -242q0 -185 -123 -356t-293 -171zM1400 -214q52 0 97.5 24t91.5 78.5t77 124.5
q41 95 41 169q0 100 -69.5 171.5t-166.5 71.5q-127 0 -205.5 -126t-78.5 -258q0 -118 62.5 -186.5t150.5 -68.5z" />
    <glyph glyph-name="ampersand" unicode="&#x26;" horiz-adv-x="1386" 
d="M488 927q-62 123 -62 242q0 170 98 273t239 103q130 0 215 -85.5t85 -220.5q0 -98 -45 -172t-140 -133q-66 -40 -199 -82q152 -277 346 -525q117 136 167 289l118 -41q-82 -209 -208 -347q84 -102 208 -228h-165l-132 141q-114 -90 -220 -130.5t-240 -40.5
q-222 0 -353 125.5t-131 322.5q0 132 59.5 238t168.5 181q65 46 191 90zM618 965q183 51 249 121t66 158q0 79 -51 130t-128 51q-82 0 -139 -64t-57 -176q0 -93 60 -220zM934 236q-174 208 -392 578q-143 -47 -220 -119q-112 -106 -112 -264q0 -151 96.5 -244t265.5 -93
q97 0 181.5 33t180.5 109z" />
    <glyph glyph-name="quotesingle" unicode="'" horiz-adv-x="449" 
d="M287 1545h148l-51 -239l-83 -267h-91l26 267z" />
    <glyph glyph-name="parenleft" unicode="(" horiz-adv-x="748" 
d="M822 1460q-191 -160 -301 -296q-150 -188 -238.5 -404t-88.5 -430q0 -197 67 -353.5t213 -316.5l-78 -91q-119 132 -178 228q-81 130 -120 266t-39 258q0 233 92.5 465t270.5 449q118 143 325 314z" />
    <glyph glyph-name="parenright" unicode=")" horiz-adv-x="748" 
d="M351 1547q338 -355 338 -755q0 -244 -98.5 -478t-280.5 -451q-119 -141 -309 -294l-76 91q329 268 479.5 565.5t150.5 570.5q0 190 -65 343.5t-216 322.5z" />
    <glyph glyph-name="asterisk" unicode="*" horiz-adv-x="961" 
d="M437 1524l148 -362l153 362l127 -73l-237 -314l388 51v-144l-388 46l237 -312l-127 -73l-153 358l-148 -358l-129 73l236 312l-386 -46v144l386 -51l-236 314z" />
    <glyph glyph-name="plus" unicode="+" horiz-adv-x="1366" 
d="M138 727h477v480h131v-480h481v-131h-481v-475h-131v475h-477v131z" />
    <glyph glyph-name="comma" unicode="," horiz-adv-x="641" 
d="M162 230h201l-47 -230l-186 -300l-68 41l143 273l-88 -14z" />
    <glyph glyph-name="hyphen" unicode="-" horiz-adv-x="641" 
d="M166 611h339l-29 -147h-339z" />
    <glyph glyph-name="hyphen" unicode="&#xad;" horiz-adv-x="641" 
d="M166 611h339l-29 -147h-339z" />
    <glyph glyph-name="period" unicode="." horiz-adv-x="641" 
d="M160 228h202l-44 -228h-201z" />
    <glyph glyph-name="slash" unicode="/" horiz-adv-x="1087" 
d="M834 1516h148l-741 -1516h-136z" />
    <glyph glyph-name="zero" unicode="0" horiz-adv-x="1280" 
d="M545 -30q-127 0 -224.5 56t-151.5 177.5t-54 290.5q0 213 81 495t220.5 419t329.5 137q196 0 309 -124.5t113 -394.5q0 -205 -51 -411.5t-134 -352.5q-61 -107 -128 -167.5t-149.5 -92.5t-160.5 -32zM524 87q127 0 217 78q124 108 206 363.5t82 517.5q0 211 -76 300.5
t-204 89.5q-133 0 -227 -102q-125 -135 -201 -409q-65 -236 -65 -454q0 -204 76 -294t192 -90z" />
    <glyph glyph-name="one" unicode="1" horiz-adv-x="1280" 
d="M822 1516h89l-276 -1405h239l-22 -111h-611l21 111h233l241 1220q-162 -90 -322 -94l23 115q135 23 218.5 59.5t166.5 104.5z" />
    <glyph glyph-name="two" unicode="2" horiz-adv-x="1280" 
d="M248 1129q45 131 91 198q72 105 177 161.5t238 56.5q178 0 287.5 -110.5t109.5 -288.5q0 -83 -27 -160.5t-82.5 -146.5t-124.5 -123q-94 -74 -262 -177q-248 -153 -335 -238t-136 -185h818l-22 -116h-951q3 92 46 176q58 114 180 226q87 79 289 208.5t289.5 207.5
t132 161t44.5 169q0 125 -77.5 203t-198.5 78t-217.5 -80.5t-145.5 -251.5z" />
    <glyph glyph-name="three" unicode="3" horiz-adv-x="1280" 
d="M270 1235q46 130 128 202q122 108 301 108q189 0 294 -107t105 -257q0 -100 -45.5 -190t-130.5 -147q-64 -43 -171 -65q133 -32 203 -96q104 -94 104 -247q0 -176 -103 -302q-135 -164 -381 -164q-169 0 -295.5 98t-195.5 295l112 44q72 -179 163 -249.5t205 -70.5
q152 0 252 99t100 246q0 145 -118 227q-84 58 -261 58q-30 0 -94 -2l24 122q36 -1 60 -1q243 0 338.5 101.5t95.5 235.5q0 117 -71.5 186t-199.5 69q-131 0 -217 -81q-56 -52 -93 -154z" />
    <glyph glyph-name="four" unicode="4" horiz-adv-x="1280" 
d="M878 1516h197l-197 -1021h249l-25 -118h-249l-76 -377h-134l76 377h-689l21 118zM742 495l128 647l55 266q-41 -67 -144 -194l-579 -719h540z" />
    <glyph glyph-name="five" unicode="5" horiz-adv-x="1280" 
d="M397 1516h740l-22 -111h-626l-132 -533q116 107 271 107q174 0 293.5 -122.5t119.5 -310.5q0 -152 -70 -291.5t-188 -212t-255 -72.5q-148 0 -252.5 79t-186.5 251l109 46q59 -136 147 -197.5t185 -61.5q91 0 178 53.5t140 166t53 232.5q0 146 -85.5 235.5t-212.5 89.5
q-161 0 -290 -157l-106 45z" />
    <glyph glyph-name="six" unicode="6" horiz-adv-x="1280" 
d="M333 820q88 71 178 106.5t181 35.5q145 0 254 -84q144 -111 144 -345q0 -207 -105 -363q-134 -200 -367 -200q-142 0 -250 72t-160.5 204.5t-52.5 267.5q0 239 86 515q54 175 124.5 278.5t183.5 170.5t272 67q133 0 224 -49t167 -154l-96 -76q-102 171 -303 171
q-166 0 -279 -121q-148 -159 -201 -496zM302 688q-16 -102 -16 -171q0 -214 96 -324t234 -110q129 0 231 121.5t102 332.5q0 153 -74.5 230t-209.5 77q-90 0 -180.5 -39t-182.5 -117z" />
    <glyph glyph-name="seven" unicode="7" horiz-adv-x="1280" 
d="M338 1516h899l-21 -116l-846 -1400h-155l866 1400h-768z" />
    <glyph glyph-name="eight" unicode="8" horiz-adv-x="1280" 
d="M486 806q-126 77 -181.5 158.5t-55.5 187.5q0 161 127.5 277t342.5 116q202 0 318 -105t116 -252q0 -120 -81.5 -219t-297.5 -178q181 -103 250 -195.5t69 -207.5q0 -168 -136.5 -293t-366.5 -125q-235 0 -368.5 121t-133.5 294q0 166 129 282q95 86 269 139zM650 850
q218 75 291.5 157.5t73.5 180.5q0 105 -80.5 175.5t-228.5 70.5q-149 0 -236.5 -79t-87.5 -191q0 -196 268 -314zM606 742q-143 -37 -220.5 -81.5t-117 -112t-39.5 -152.5q0 -147 105 -227t253 -80q170 0 270.5 88t100.5 209q0 98 -69 176.5t-283 179.5z" />
    <glyph glyph-name="nine" unicode="9" horiz-adv-x="1280" 
d="M963 705q-91 -71 -181.5 -107t-181.5 -36q-174 0 -284 113.5t-110 308.5q0 251 149 420q125 141 311 141q154 0 256.5 -64t160.5 -197t58 -286q0 -240 -85 -514q-54 -175 -129.5 -284.5t-188 -169.5t-260.5 -60q-137 0 -229 52t-164 157l97 78q106 -171 300 -171
q202 0 328 177q103 145 153 442zM995 835q15 105 15 175q0 214 -94.5 321.5t-234.5 107.5q-129 0 -231 -120.5t-102 -333.5q0 -152 72 -228.5t204 -76.5q99 0 192 39t179 116z" />
    <glyph glyph-name="colon" unicode=":" horiz-adv-x="641" 
d="M325 1075h201l-43 -225h-202zM161 228h203l-39 -228h-208z" />
    <glyph glyph-name="semicolon" unicode=";" horiz-adv-x="641" 
d="M326 1075h200l-41 -221h-202zM160 232h201l-45 -232l-186 -299l-68 40l141 271l-87 -12z" />
    <glyph glyph-name="less" unicode="&#x3c;" horiz-adv-x="1366" 
d="M1225 147l-1085 457v119l1085 456v-142l-909 -373l909 -375v-142z" />
    <glyph glyph-name="equal" unicode="=" horiz-adv-x="1366" 
d="M140 966h1086v-132h-1086v132zM140 497h1086v-131h-1086v131z" />
    <glyph glyph-name="greater" unicode="&#x3e;" horiz-adv-x="1366" 
d="M140 1179l1085 -458v-118l-1085 -456v142l909 373l-909 375v142z" />
    <glyph glyph-name="question" unicode="?" horiz-adv-x="961" 
d="M261 1289q40 109 99 166q95 90 240 90q148 0 235 -86t87 -224q0 -101 -57 -195t-203 -211q-106 -86 -145.5 -138t-59.5 -111q-14 -39 -21 -119h-133q6 100 33 170.5t89 144.5q41 50 190 186q77 71 97 95q28 36 45.5 80.5t17.5 91.5q0 89 -54.5 143t-142.5 54
q-69 0 -119.5 -38.5t-85.5 -134.5zM181 227h203l-45 -227h-202z" />
    <glyph glyph-name="at" unicode="@" horiz-adv-x="2068" 
d="M1161 216q-65 -76 -145.5 -121.5t-161.5 -45.5q-89 0 -173 52.5t-136.5 160t-52.5 236.5q0 160 81.5 319t202.5 239t235 80q87 0 166 -45.5t136 -138.5l34 156h179l-144 -672q-30 -139 -30 -155q0 -27 20.5 -46.5t49.5 -19.5q53 0 139 61q114 80 180.5 214.5t66.5 278.5
q0 166 -85.5 311t-255 232.5t-374.5 87.5q-234 0 -427.5 -110t-300 -314t-106.5 -439q0 -244 106.5 -421t308 -261.5t446.5 -84.5q262 0 439 87.5t265 214.5h181q-51 -105 -175 -214.5t-295 -172.5t-412 -63q-222 0 -409.5 57t-319.5 171.5t-199 263.5q-84 188 -84 407
q0 244 100 465q122 271 346.5 415t544.5 144q395 0 624.5 -232t229.5 -547q0 -291 -193 -504t-409 -213q-69 0 -111.5 20.5t-62.5 59.5q-13 26 -19 87zM677 487q0 -137 65 -213t149 -76q56 0 118 33t118.5 99t92.5 168t36 203q0 137 -67.5 212t-164.5 75q-90 0 -172.5 -71.5
t-128.5 -200t-46 -229.5z" />
    <glyph glyph-name="A" unicode="A" horiz-adv-x="1323" 
d="M760 1516h209l242 -1516h-143l-72 458h-622l-225 -458h-147zM846 1426l-411 -842h542z" />
    <glyph glyph-name="B" unicode="B" horiz-adv-x="1323" 
d="M439 1516h539q162 0 255 -94.5t93 -267.5q0 -125 -45 -206t-130 -127q-60 -32 -173 -52q82 -28 124 -60q60 -45 91 -113.5t31 -153.5q0 -107 -41 -194.5t-105 -142t-152 -84.5q-63 -21 -158 -21h-618zM569 1396l-105 -552h302q98 0 200.5 34.5t153 107t50.5 171.5
q0 112 -59.5 175.5t-162.5 63.5h-379zM439 723l-115 -602h367q113 0 197 43.5t128 119.5t44 154q0 115 -96.5 200t-251.5 85h-273z" />
    <glyph glyph-name="C" unicode="C" horiz-adv-x="1430" 
d="M1272 307q-101 -162 -236 -249.5t-305 -87.5q-230 0 -378.5 165t-148.5 479q0 247 103.5 483t268 342t339.5 106q189 0 324 -113.5t171 -309.5l-138 -34q-29 165 -126.5 251t-237.5 86q-264 0 -417 -272q-120 -213 -120 -533q0 -272 107 -399t266 -127q238 0 410 266z
" />
    <glyph glyph-name="D" unicode="D" horiz-adv-x="1450" 
d="M470 1516h464q223 0 354 -149.5t131 -470.5q0 -393 -199 -644.5t-580 -251.5h-464zM596 1396l-247 -1273h184q268 0 412 76t227.5 262t83.5 448q0 260 -103 373.5t-310 113.5h-247z" />
    <glyph glyph-name="E" unicode="E" horiz-adv-x="1194" 
d="M458 1516h857l-23 -120h-709l-104 -539h574l-23 -121h-572l-122 -615h764l-23 -121h-914z" />
    <glyph glyph-name="F" unicode="F" horiz-adv-x="1087" 
d="M456 1516h785l-23 -119h-638l-110 -574h548l-21 -120h-550l-135 -703h-150z" />
    <glyph glyph-name="G" unicode="G" horiz-adv-x="1386" 
d="M1135 176q-85 -102 -185.5 -154t-240.5 -52q-231 0 -386.5 173.5t-155.5 483.5q0 225 81 456.5t239 346.5t361 115q158 0 272.5 -56.5t181.5 -168.5q45 -76 70 -210l-143 -35q-14 105 -48 167q-49 87 -133 134.5t-190 47.5q-156 0 -277.5 -95.5t-185.5 -295t-64 -412.5
q0 -264 115 -396.5t284 -132.5q127 0 227 59.5t163 156.5l27 40l4 9l49 264h-425l23 121h574l-143 -742h-126z" />
    <glyph glyph-name="H" unicode="H" horiz-adv-x="1516" 
d="M454 1516h151l-132 -675h793l131 675h148l-289 -1516h-151l139 717h-790l-142 -717h-152z" />
    <glyph glyph-name="I" unicode="I" horiz-adv-x="618" 
d="M472 1516h148l-290 -1516h-149z" />
    <glyph glyph-name="J" unicode="J" horiz-adv-x="854" 
d="M736 1516h147l-217 -1133q-29 -153 -68 -231t-120.5 -130t-197.5 -52q-142 0 -228.5 91.5t-84.5 262.5l127 29q3 -137 54 -199t127 -62q81 0 136 53q75 73 99 197z" />
    <glyph glyph-name="K" unicode="K" horiz-adv-x="1280" 
d="M439 1516h149l-149 -762q62 68 125.5 128.5t241.5 215.5l469 418h187l-696 -620l416 -896h-153l-372 800l-250 -226l-111 -574h-150z" />
    <glyph glyph-name="L" unicode="L" 
d="M455 1516h148l-267 -1395h724l-23 -121h-873z" />
    <glyph glyph-name="M" unicode="M" horiz-adv-x="1729" 
d="M449 1516h224l136 -909l31 -200q9 -67 17 -140l198 381l465 868h236l-288 -1516h-133l270 1412l-758 -1412h-71l-213 1412l-275 -1412h-133z" />
    <glyph glyph-name="N" unicode="N" horiz-adv-x="1536" 
d="M449 1516h208l541 -1225l235 1225h140l-291 -1516h-98l-619 1397l-272 -1397h-142z" />
    <glyph glyph-name="O" unicode="O" horiz-adv-x="1516" 
d="M766 -30q-253 0 -401 159.5t-148 463.5q0 222 93 448q108 262 275 383t362 121q243 0 391.5 -158.5t148.5 -451.5q0 -240 -107.5 -490t-271.5 -362.5t-342 -112.5zM747 94q107 0 202 54t173.5 156.5t134.5 265.5q74 215 74 424q0 202 -106.5 315t-269.5 113
q-105 0 -200.5 -54t-176 -159t-137.5 -278q-71 -213 -71 -409q0 -135 50.5 -234t139 -146.5t187.5 -47.5z" />
    <glyph glyph-name="P" unicode="P" horiz-adv-x="1323" 
d="M441 1516h535q179 0 286 -104.5t107 -266.5q0 -132 -67 -243.5t-190.5 -164.5t-234.5 -53h-449l-132 -684h-147zM566 1394l-115 -589h371q220 0 310.5 103.5t90.5 234.5q0 114 -75 182.5t-222 68.5h-360z" />
    <glyph glyph-name="Q" unicode="Q" horiz-adv-x="1516" 
d="M664 -24q-140 26 -235.5 94t-153.5 206t-58 317q0 218 91 442q107 265 273.5 387.5t365.5 122.5q167 0 289.5 -75t186.5 -216t64 -304q0 -174 -50 -342t-120.5 -285t-153.5 -193.5t-194 -118.5q-75 -29 -176 -35l-28 -105q-7 -31 -7 -52q0 -43 30.5 -66t125.5 -23
q58 0 227 11l-23 -119l-67 -4q-94 -5 -136 -5q-171 0 -227.5 43t-56.5 120q0 63 33 200zM747 93q105 0 200.5 54.5t175 159t136.5 274.5q72 213 72 415q0 200 -107.5 314t-268.5 114q-106 0 -201 -54t-175.5 -159.5t-137.5 -278.5q-71 -213 -71 -410q0 -136 51 -234.5
t140 -146.5t186 -48z" />
    <glyph glyph-name="R" unicode="R" horiz-adv-x="1343" 
d="M454 1516h484q190 0 294 -68q153 -102 153 -299q0 -173 -100 -297.5t-347 -154.5l249 -697h-148l-245 697h-353l-135 -697h-150zM579 1394l-114 -577h403q103 0 191.5 38t135.5 119t47 169q0 111 -75 181t-213 70h-375z" />
    <glyph glyph-name="S" unicode="S" horiz-adv-x="1174" 
d="M414 869q-110 115 -110 264q0 179 125.5 295.5t351.5 116.5q142 0 240 -51t160 -150q42 -67 71 -187l-127 -34q-21 92 -51 142q-46 79 -122 119.5t-185 40.5q-154 0 -239 -77t-85 -194q0 -92 54 -158q54 -67 256 -174q151 -80 215.5 -132.5t101.5 -127.5t37 -176
q0 -180 -131.5 -298t-367.5 -118q-224 0 -356 124.5t-149 363.5l127 25q15 -133 47 -201q44 -96 125.5 -142t204.5 -46q176 0 265.5 80t89.5 203q0 94 -49 158q-49 63 -234.5 160.5t-264.5 173.5z" />
    <glyph glyph-name="T" unicode="T" horiz-adv-x="1153" 
d="M271 1516h1098l-24 -122h-473l-270 -1394h-148l269 1394h-475z" />
    <glyph glyph-name="U" unicode="U" horiz-adv-x="1493" 
d="M442 1516h148l-168 -872q-26 -135 -26 -240q0 -134 88 -217.5t249 -83.5q226 0 348 141q78 90 116 296l184 976h149l-200 -1049q-47 -247 -197 -372t-398 -125q-130 0 -226 33q-67 23 -129 79.5t-98.5 131.5t-36.5 190q0 91 22 206z" />
    <glyph glyph-name="V" unicode="V" horiz-adv-x="1343" 
d="M348 1516h142l134 -1298l709 1298h149l-826 -1516h-138z" />
    <glyph glyph-name="W" unicode="W" horiz-adv-x="1729" 
d="M294 1516h138v-1067q0 -13 -2 -40l-10 -154q58 142 98 223l509 1038h147l-21 -895l-3 -145l-8 -221q59 145 134 291l504 970h155l-782 -1516h-137l11 820q4 242 9 298l13 165q-16 -27 -126 -279l-30 -60l-461 -944h-138v1516z" />
    <glyph glyph-name="X" unicode="X" horiz-adv-x="1217" 
d="M363 1516h145l140 -362l65 -165q15 -40 31 -90l210 272l282 345h170l-605 -745l300 -771h-147l-172 437q-41 104 -82 222q-57 -85 -125 -165l-400 -494h-171l644 788z" />
    <glyph glyph-name="Y" unicode="Y" horiz-adv-x="1194" 
d="M301 1516h149l219 -744l496 744h167l-613 -903l-118 -613h-151l124 636z" />
    <glyph glyph-name="Z" unicode="Z" horiz-adv-x="1194" 
d="M383 1516h957l-20 -102l-1112 -1293h877l-25 -121h-1045l25 129l1089 1265h-771z" />
    <glyph glyph-name="bracketleft" unicode="[" horiz-adv-x="748" 
d="M526 1516h320l-19 -88h-180l-334 -1743h182l-19 -92h-318z" />
    <glyph glyph-name="backslash" unicode="\" horiz-adv-x="1087" 
d="M246 1516l732 -1516h-136l-732 1516h136z" />
    <glyph glyph-name="bracketright" unicode="]" horiz-adv-x="748" 
d="M386 1516h322l-368 -1925h-320l18 92h183l333 1744h-185z" />
    <glyph glyph-name="asciicircum" unicode="^" horiz-adv-x="1343" 
d="M671 1545l448 -538l-65 -53l-383 461l-384 -461l-63 53z" />
    <glyph glyph-name="underscore" unicode="_" horiz-adv-x="1131" 
d="M-40 -407v130h1193v-130h-1193z" />
    <glyph glyph-name="grave" unicode="`" horiz-adv-x="682" 
d="M188 1497h262l267 -311h-123z" />
    <glyph glyph-name="a" unicode="a" 
d="M257 947q77 80 154.5 115t184.5 35q178 0 277.5 -93t99.5 -228q0 -82 -50 -290q-40 -170 -56 -270t-24 -216h-126v127q-104 -85 -177 -117t-147 -32q-126 0 -213.5 88t-87.5 217q0 146 116 235q158 121 460 121h149q22 75 22 120q0 100 -69.5 166.5t-180.5 66.5
q-64 0 -121 -27t-124 -93zM739 236q18 142 52 293h-103q-266 0 -362 -69t-96 -167q0 -86 55 -142.5t133 -56.5q70 0 150 35.5t171 106.5z" />
    <glyph glyph-name="b" unicode="b" horiz-adv-x="1174" 
d="M400 1516h137l-109 -574q67 79 152 117t167 38q85 0 163.5 -38.5t132.5 -135t54 -266.5q0 -323 -162 -520q-131 -159 -320 -159q-191 0 -348 172l-47 -150h-126q17 40 31 92q8 32 32 159zM400 802l-102 -540q80 -96 146.5 -134t146.5 -38q111 0 196.5 76.5t131.5 218
t46 287.5q0 162 -70.5 241t-183.5 79q-177 0 -311 -190z" />
    <glyph glyph-name="c" unicode="c" horiz-adv-x="1087" 
d="M950 264q-64 -134 -165.5 -210t-250.5 -76q-177 0 -296 129t-119 350q0 169 74.5 326.5t189.5 235.5t238 78q158 0 266 -104q76 -73 115 -204l-117 -26q-25 109 -96.5 168.5t-160.5 59.5q-84 0 -173.5 -60.5t-145.5 -197.5t-56 -287q0 -171 82.5 -261t214.5 -90
q198 0 294 218z" />
    <glyph glyph-name="d" unicode="d" horiz-adv-x="1153" 
d="M1065 1516h138l-290 -1516h-107l27 159q-84 -96 -164.5 -138.5t-179.5 -42.5q-147 0 -251.5 119.5t-104.5 346.5q0 309 159 495q136 158 333 158q84 0 157.5 -31t174.5 -115zM933 822q-130 165 -297 165q-96 0 -182 -63t-137.5 -203.5t-51.5 -277.5q0 -172 76.5 -262.5
t183.5 -90.5q170 0 301 177z" />
    <glyph glyph-name="e" unicode="e" 
d="M1004 290q-87 -147 -186 -218q-131 -94 -285 -94q-175 0 -288 122.5t-113 347.5q0 188 83 357q66 136 183.5 214t264.5 78q117 0 203.5 -48t134 -145t47.5 -236q0 -53 -12 -132h-762q-6 -62 -6 -93q0 -171 80.5 -259.5t206.5 -88.5q106 0 188.5 64t151.5 190zM908 647
q8 35 8 67q0 131 -69.5 204t-182.5 73q-144 0 -249 -113q-75 -83 -115 -231h608z" />
    <glyph glyph-name="f" unicode="f" horiz-adv-x="555" 
d="M334 1075q10 49 20 106q32 181 74 237q73 98 211 98q43 0 103 -17l-23 -123q-52 6 -83 6q-52 0 -85 -27q-21 -24 -33.5 -63.5t-45.5 -216.5h189l-21 -117h-193l-185 -958h-136l185 958h-185l22 117h186z" />
    <glyph glyph-name="g" unicode="g" horiz-adv-x="1194" 
d="M336 443q-127 107 -127 254q0 165 122.5 282.5t310.5 117.5q98 0 166.5 -25.5t129.5 -76.5q91 64 139.5 82t118.5 20l-25 -129q-92 -2 -164 -50q54 -94 54 -190q0 -153 -123 -268t-314 -115q-123 0 -208 48q-107 -31 -142 -64q-25 -23 -25 -52q0 -30 29 -49
q53 -34 256.5 -55.5t293 -53.5t145.5 -81q69 -71 69 -169q0 -127 -108 -213.5t-359 -86.5q-290 0 -426 101q-107 79 -107 199q0 73 56.5 136.5t176.5 93.5q-81 24 -115 62.5t-34 85.5q0 53 47 105t163 91zM613 447q147 0 232.5 80t85.5 198q0 119 -78.5 194.5t-209.5 75.5
q-135 0 -221 -83.5t-86 -205.5q0 -110 77 -184.5t200 -74.5zM390 81q-130 -43 -176 -95t-46 -116q0 -79 66 -125q96 -66 327 -66q219 0 304 59q63 44 63 120q0 85 -85.5 133t-348.5 76q-63 7 -104 14z" />
    <glyph glyph-name="h" unicode="h" horiz-adv-x="1153" 
d="M392 1516h136l-118 -617q179 198 351 198q122 0 200 -79.5t78 -221.5q0 -34 -9 -76l-140 -720h-134l134 688q12 61 12 109q0 82 -48 129t-124 47q-75 0 -158.5 -52t-190.5 -178l-144 -743h-138z" />
    <glyph glyph-name="i" unicode="i" horiz-adv-x="555" 
d="M419 1516h138l-34 -177h-140zM336 1075h136l-207 -1075h-139z" />
    <glyph glyph-name="j" unicode="j" horiz-adv-x="575" 
d="M450 1516h138l-33 -172h-138zM366 1075h136l-217 -1134q-31 -161 -52 -210q-33 -79 -94 -123.5t-159 -44.5q-28 0 -72 6l23 126q37 -7 58 -7q50 0 85.5 34t51.5 116z" />
    <glyph glyph-name="k" unicode="k" horiz-adv-x="961" 
d="M389 1516h140l-173 -891l510 450h184l-456 -393l252 -682h-138l-214 593l-173 -148l-87 -445h-138z" />
    <glyph glyph-name="l" unicode="l" horiz-adv-x="555" 
d="M418 1516h137l-290 -1516h-137z" />
    <glyph glyph-name="m" unicode="m" horiz-adv-x="1792" 
d="M394 870q177 227 371 227q108 0 181.5 -63t88.5 -172q111 131 199.5 183t179.5 52q120 0 197.5 -79t77.5 -214q0 -49 -12 -110l-135 -694h-137l137 713q9 43 9 85q0 80 -47 127.5t-117 47.5q-73 0 -151.5 -46.5t-200.5 -184.5l-140 -742h-141l141 742q4 21 4 43
q0 90 -46 138t-120 48q-78 0 -160 -50t-188 -179l-144 -742h-138l210 1075h122z" />
    <glyph glyph-name="n" unicode="n" horiz-adv-x="1153" 
d="M396 881q178 216 367 216q121 0 199 -80.5t78 -219.5q0 -31 -7 -68l-139 -729h-138l130 672q13 68 13 128q0 79 -46.5 125.5t-125.5 46.5q-164 0 -343 -225l-146 -747h-138l210 1075h123z" />
    <glyph glyph-name="o" unicode="o" 
d="M513 -22q-166 0 -272 120t-106 346q0 184 73.5 340.5t193.5 234.5t247 78q160 0 266.5 -121.5t106.5 -347.5q0 -177 -76.5 -339t-196 -236.5t-236.5 -74.5zM518 90q64 0 123.5 33t113.5 100.5t94 181.5t40 242q0 166 -76 254.5t-178 88.5q-61 0 -120.5 -33.5t-112 -99.5
t-87.5 -165q-47 -135 -47 -273q0 -156 74.5 -242.5t175.5 -86.5z" />
    <glyph glyph-name="p" unicode="p" horiz-adv-x="1174" 
d="M408 936q81 89 155 125t168 36q167 0 263.5 -109.5t96.5 -334.5q0 -167 -51 -301t-119 -210t-153 -120t-189 -44q-85 0 -158.5 32.5t-156.5 107.5l-108 -549h-136l293 1506h105zM293 265q58 -90 133.5 -132t144.5 -42q73 0 147 44q54 32 102 94t83 152q52 135 52 279
q0 167 -71 247.5t-184 80.5q-81 0 -167.5 -53t-137.5 -141z" />
    <glyph glyph-name="q" unicode="q" horiz-adv-x="1174" 
d="M806 121q-71 -71 -146.5 -107t-169.5 -36q-110 0 -190.5 52t-121 161.5t-40.5 249.5q0 158 51.5 289t122 208t154.5 118t184 41q98 0 179.5 -42.5t146.5 -127.5q37 118 51 148h115q-38 -109 -71 -280l-234 -1226h-137zM941 832q-67 80 -139.5 120t-149.5 40
q-89 0 -176.5 -61t-145 -209t-57.5 -298q0 -166 72 -250t179 -84q163 0 305 154z" />
    <glyph glyph-name="r" unicode="r" horiz-adv-x="682" 
d="M408 884q83 116 153.5 164.5t144.5 48.5q12 0 35 -1l-24 -131q-64 -7 -120.5 -38t-117.5 -93q-46 -46 -93 -128q-19 -33 -29 -83l-119 -623h-138l208 1075h136z" />
    <glyph glyph-name="s" unicode="s" horiz-adv-x="961" 
d="M307 621q-40 41 -57.5 81t-17.5 95q0 127 93.5 213.5t252.5 86.5q229 0 341 -213l-105 -50q-73 156 -235 156q-99 0 -158.5 -54t-59.5 -125q0 -50 37 -92q36 -42 164 -105q178 -89 225 -153t47 -161q0 -134 -100.5 -228t-264.5 -94q-143 0 -239 72t-165 217l107 53
q62 -130 127 -179t164 -49q111 0 174.5 58t63.5 140q0 59 -39 105t-165.5 108.5t-189.5 117.5z" />
    <glyph glyph-name="t" unicode="t" horiz-adv-x="662" 
d="M388 1439h138l-68 -364h234l-22 -117h-237l-137 -716q-3 -17 -3 -34q0 -49 27.5 -75.5t80.5 -26.5q48 0 170 37l-22 -114q-116 -51 -204 -51q-83 0 -138 52.5t-55 122.5q0 73 29 221l115 584h-197l23 117h196z" />
    <glyph glyph-name="u" unicode="u" horiz-adv-x="1130" 
d="M262 1075h137l-127 -650q-19 -97 -19 -161q0 -62 50 -109.5t119 -47.5q162 0 350 229l144 739h138l-207 -1075h-126l37 199q-184 -221 -368 -221q-121 0 -198 79t-77 222q0 60 15 134z" />
    <glyph glyph-name="v" unicode="v" horiz-adv-x="961" 
d="M848 1075h137l-523 -1075h-145l-169 1075h127l138 -920z" />
    <glyph glyph-name="w" unicode="w" horiz-adv-x="1493" 
d="M193 1075h124l58 -917l405 917h135l44 -908l426 908h126l-503 -1075h-147l-49 897l-392 -897h-155z" />
    <glyph glyph-name="x" unicode="x" horiz-adv-x="961" 
d="M197 1075h142l174 -419l305 419h147l-385 -517l259 -558h-143l-206 469l-331 -469h-152l415 572z" />
    <glyph glyph-name="y" unicode="y" horiz-adv-x="961" 
d="M166 1075h127l137 -923l436 923h138l-607 -1240q-130 -266 -330 -266q-59 0 -134 28l23 106q71 -23 110 -23q74 0 133.5 57t139.5 239z" />
    <glyph glyph-name="z" unicode="z" horiz-adv-x="961" 
d="M234 1075h773l-19 -115l-802 -844h655l-23 -116h-814l24 130l790 830h-606z" />
    <glyph glyph-name="braceleft" unicode="{" horiz-adv-x="682" 
d="M203 636q77 2 125.5 42t64.5 108.5t17 236.5t6 221q10 87 36 138.5t63 80.5t95 44q34 9 116 9h56v-157h-31q-104 0 -138 -37.5t-34 -168.5v-148q0 -214 -47 -304.5t-162 -145.5q110 -47 159.5 -141.5t49.5 -309.5v-148q0 -104 18.5 -142.5t53 -50.5t131.5 -12v-157h-56
q-99 0 -143 16q-64 23 -105.5 75t-54 131t-13.5 258.5t-17 248t-64.5 108.5t-125.5 42v163z" />
    <glyph glyph-name="bar" unicode="|" horiz-adv-x="1087" 
d="M478 1516h132v-1947h-132v1947z" />
    <glyph glyph-name="braceright" unicode="}" horiz-adv-x="682" 
d="M693 636v-163q-77 -2 -125.5 -42t-64.5 -108.5t-17 -236t-6 -221.5q-10 -87 -36 -138.5t-63 -80.5t-95 -44q-34 -8 -116 -8h-56v157h31q104 0 138 37.5t34 167.5v148q0 215 49.5 309.5t159.5 141.5q-115 55 -162 145.5t-47 304.5v148q0 131 -34 168.5t-138 37.5h-31v157
h56q99 0 143 -17q64 -22 105.5 -74t54 -131t13.5 -258.5t17 -248.5t64.5 -109t125.5 -42z" />
    <glyph glyph-name="asciitilde" unicode="~" horiz-adv-x="1343" 
d="M1213 701q-153 -128 -284 -128q-57 0 -112.5 16t-192 81t-200.5 65q-128 0 -293 -137v143q80 65 158 95t135 30q51 0 108.5 -16.5t190 -80.5t201.5 -64q63 0 131 31t158 110v-145z" />
    <glyph glyph-name="Adieresis" unicode="&#xc4;" horiz-adv-x="1323" 
d="M760 1516h209l242 -1516h-143l-72 458h-622l-225 -458h-147zM846 1426l-411 -842h542zM655 1833h147l-29 -149h-147zM1011 1833h145l-27 -149h-147z" />
    <glyph glyph-name="Aring" unicode="&#xc5;" horiz-adv-x="1323" 
d="M760 1516h209l242 -1516h-143l-72 458h-622l-225 -458h-147zM846 1426l-411 -842h542zM861 1578q-81 0 -136 55t-55 133t55 133t133 55t133 -55t55 -133q0 -77 -55 -132.5t-130 -55.5zM855 1642q54 0 91 36.5t37 87.5q0 52 -37 88.5t-88 36.5q-52 0 -88.5 -36.5
t-36.5 -88.5q0 -51 36.5 -87.5t85.5 -36.5z" />
    <glyph glyph-name="Ccedilla" unicode="&#xc7;" horiz-adv-x="1430" 
d="M1272 307q-101 -162 -236 -249.5t-305 -87.5q-230 0 -378.5 165t-148.5 479q0 247 103.5 483t268 342t339.5 106q189 0 324 -113.5t171 -309.5l-138 -34q-29 165 -126.5 251t-237.5 86q-264 0 -417 -272q-120 -213 -120 -533q0 -272 107 -399t266 -127q238 0 410 266z
M677 18h96l-42 -105q71 0 113.5 -39t42.5 -98q0 -74 -73 -131t-229 -57q-58 0 -169 16l51 89q62 -12 106 -12q116 0 164 33q34 22 34 59q0 30 -28 50q-36 27 -131 32z" />
    <glyph glyph-name="Eacute" unicode="&#xc9;" horiz-adv-x="1194" 
d="M458 1516h857l-23 -120h-709l-104 -539h574l-23 -121h-572l-122 -615h764l-23 -121h-914zM905 1916h260l-403 -310h-125z" />
    <glyph glyph-name="Ntilde" unicode="&#xd1;" horiz-adv-x="1536" 
d="M449 1516h208l541 -1225l235 1225h140l-291 -1516h-98l-619 1397l-272 -1397h-142zM1266 1882h90q-2 -117 -60.5 -185t-126.5 -68q-54 0 -131.5 52t-110.5 52q-31 0 -54.5 -23.5t-35.5 -80.5h-100q11 127 68.5 189t132.5 62q59 0 143 -55q62 -41 93 -41q23 0 44 18
q27 24 48 80z" />
    <glyph glyph-name="Odieresis" unicode="&#xd6;" horiz-adv-x="1516" 
d="M766 -30q-253 0 -401 159.5t-148 463.5q0 222 93 448q108 262 275 383t362 121q243 0 391.5 -158.5t148.5 -451.5q0 -240 -107.5 -490t-271.5 -362.5t-342 -112.5zM747 94q107 0 202 54t173.5 156.5t134.5 265.5q74 215 74 424q0 202 -106.5 315t-269.5 113
q-105 0 -200.5 -54t-176 -159t-137.5 -278q-71 -213 -71 -409q0 -135 50.5 -234t139 -146.5t187.5 -47.5zM801 1833h147l-29 -149h-147zM1157 1833h145l-27 -149h-147z" />
    <glyph glyph-name="Udieresis" unicode="&#xdc;" horiz-adv-x="1493" 
d="M442 1516h148l-168 -872q-26 -135 -26 -240q0 -134 88 -217.5t249 -83.5q226 0 348 141q78 90 116 296l184 976h149l-200 -1049q-47 -247 -197 -372t-398 -125q-130 0 -226 33q-67 23 -129 79.5t-98.5 131.5t-36.5 190q0 91 22 206zM770 1833h147l-29 -149h-147z
M1126 1833h145l-27 -149h-147z" />
    <glyph glyph-name="aacute" unicode="&#xe1;" 
d="M257 947q77 80 154.5 115t184.5 35q178 0 277.5 -93t99.5 -228q0 -82 -50 -290q-40 -170 -56 -270t-24 -216h-126v127q-104 -85 -177 -117t-147 -32q-126 0 -213.5 88t-87.5 217q0 146 116 235q158 121 460 121h149q22 75 22 120q0 100 -69.5 166.5t-180.5 66.5
q-64 0 -121 -27t-124 -93zM739 236q18 142 52 293h-103q-266 0 -362 -69t-96 -167q0 -86 55 -142.5t133 -56.5q70 0 150 35.5t171 106.5zM789 1496h260l-403 -310h-125z" />
    <glyph glyph-name="agrave" unicode="&#xe0;" 
d="M257 947q77 80 154.5 115t184.5 35q178 0 277.5 -93t99.5 -228q0 -82 -50 -290q-40 -170 -56 -270t-24 -216h-126v127q-104 -85 -177 -117t-147 -32q-126 0 -213.5 88t-87.5 217q0 146 116 235q158 121 460 121h149q22 75 22 120q0 100 -69.5 166.5t-180.5 66.5
q-64 0 -121 -27t-124 -93zM739 236q18 142 52 293h-103q-266 0 -362 -69t-96 -167q0 -86 55 -142.5t133 -56.5q70 0 150 35.5t171 106.5zM402 1497h262l267 -311h-123z" />
    <glyph glyph-name="acircumflex" unicode="&#xe2;" 
d="M257 947q77 80 154.5 115t184.5 35q178 0 277.5 -93t99.5 -228q0 -82 -50 -290q-40 -170 -56 -270t-24 -216h-126v127q-104 -85 -177 -117t-147 -32q-126 0 -213.5 88t-87.5 217q0 146 116 235q158 121 460 121h149q22 75 22 120q0 100 -69.5 166.5t-180.5 66.5
q-64 0 -121 -27t-124 -93zM739 236q18 142 52 293h-103q-266 0 -362 -69t-96 -167q0 -86 55 -142.5t133 -56.5q70 0 150 35.5t171 106.5zM712 1500h125l146 -316h-95l-131 190l-280 -190h-98z" />
    <glyph glyph-name="adieresis" unicode="&#xe4;" 
d="M257 947q77 80 154.5 115t184.5 35q178 0 277.5 -93t99.5 -228q0 -82 -50 -290q-40 -170 -56 -270t-24 -216h-126v127q-104 -85 -177 -117t-147 -32q-126 0 -213.5 88t-87.5 217q0 146 116 235q158 121 460 121h149q22 75 22 120q0 100 -69.5 166.5t-180.5 66.5
q-64 0 -121 -27t-124 -93zM739 236q18 142 52 293h-103q-266 0 -362 -69t-96 -167q0 -86 55 -142.5t133 -56.5q70 0 150 35.5t171 106.5zM474 1413h147l-29 -149h-147zM830 1413h145l-27 -149h-147z" />
    <glyph glyph-name="atilde" unicode="&#xe3;" 
d="M257 947q77 80 154.5 115t184.5 35q178 0 277.5 -93t99.5 -228q0 -82 -50 -290q-40 -170 -56 -270t-24 -216h-126v127q-104 -85 -177 -117t-147 -32q-126 0 -213.5 88t-87.5 217q0 146 116 235q158 121 460 121h149q22 75 22 120q0 100 -69.5 166.5t-180.5 66.5
q-64 0 -121 -27t-124 -93zM739 236q18 142 52 293h-103q-266 0 -362 -69t-96 -167q0 -86 55 -142.5t133 -56.5q70 0 150 35.5t171 106.5zM905 1462h90q-2 -117 -60.5 -185t-126.5 -68q-54 0 -131.5 52t-110.5 52q-31 0 -54.5 -23.5t-35.5 -80.5h-100q11 127 68.5 189
t132.5 62q59 0 143 -55q62 -41 93 -41q23 0 44 18q27 24 48 80z" />
    <glyph glyph-name="aring" unicode="&#xe5;" 
d="M257 947q77 80 154.5 115t184.5 35q178 0 277.5 -93t99.5 -228q0 -82 -50 -290q-40 -170 -56 -270t-24 -216h-126v127q-104 -85 -177 -117t-147 -32q-126 0 -213.5 88t-87.5 217q0 146 116 235q158 121 460 121h149q22 75 22 120q0 100 -69.5 166.5t-180.5 66.5
q-64 0 -121 -27t-124 -93zM739 236q18 142 52 293h-103q-266 0 -362 -69t-96 -167q0 -86 55 -142.5t133 -56.5q70 0 150 35.5t171 106.5zM710 1158q-81 0 -136 55t-55 133t55 133t133 55t133 -55t55 -133q0 -77 -55 -132.5t-130 -55.5zM704 1222q54 0 91 36.5t37 87.5
q0 52 -37 88.5t-88 36.5q-52 0 -88.5 -36.5t-36.5 -88.5q0 -51 36.5 -87.5t85.5 -36.5z" />
    <glyph glyph-name="ccedilla" unicode="&#xe7;" horiz-adv-x="1087" 
d="M950 264q-64 -134 -165.5 -210t-250.5 -76q-177 0 -296 129t-119 350q0 169 74.5 326.5t189.5 235.5t238 78q158 0 266 -104q76 -73 115 -204l-117 -26q-25 109 -96.5 168.5t-160.5 59.5q-84 0 -173.5 -60.5t-145.5 -197.5t-56 -287q0 -171 82.5 -261t214.5 -90
q198 0 294 218zM486 18h96l-42 -105q71 0 113.5 -39t42.5 -98q0 -74 -73 -131t-229 -57q-58 0 -169 16l51 89q62 -12 106 -12q116 0 164 33q34 22 34 59q0 30 -28 50q-36 27 -131 32z" />
    <glyph glyph-name="eacute" unicode="&#xe9;" 
d="M1004 290q-87 -147 -186 -218q-131 -94 -285 -94q-175 0 -288 122.5t-113 347.5q0 188 83 357q66 136 183.5 214t264.5 78q117 0 203.5 -48t134 -145t47.5 -236q0 -53 -12 -132h-762q-6 -62 -6 -93q0 -171 80.5 -259.5t206.5 -88.5q106 0 188.5 64t151.5 190zM908 647
q8 35 8 67q0 131 -69.5 204t-182.5 73q-144 0 -249 -113q-75 -83 -115 -231h608zM819 1496h260l-403 -310h-125z" />
    <glyph glyph-name="egrave" unicode="&#xe8;" 
d="M1004 290q-87 -147 -186 -218q-131 -94 -285 -94q-175 0 -288 122.5t-113 347.5q0 188 83 357q66 136 183.5 214t264.5 78q117 0 203.5 -48t134 -145t47.5 -236q0 -53 -12 -132h-762q-6 -62 -6 -93q0 -171 80.5 -259.5t206.5 -88.5q106 0 188.5 64t151.5 190zM908 647
q8 35 8 67q0 131 -69.5 204t-182.5 73q-144 0 -249 -113q-75 -83 -115 -231h608zM402 1497h262l267 -311h-123z" />
    <glyph glyph-name="ecircumflex" unicode="&#xea;" 
d="M1004 290q-87 -147 -186 -218q-131 -94 -285 -94q-175 0 -288 122.5t-113 347.5q0 188 83 357q66 136 183.5 214t264.5 78q117 0 203.5 -48t134 -145t47.5 -236q0 -53 -12 -132h-762q-6 -62 -6 -93q0 -171 80.5 -259.5t206.5 -88.5q106 0 188.5 64t151.5 190zM908 647
q8 35 8 67q0 131 -69.5 204t-182.5 73q-144 0 -249 -113q-75 -83 -115 -231h608zM712 1500h125l146 -316h-95l-131 190l-280 -190h-98z" />
    <glyph glyph-name="edieresis" unicode="&#xeb;" 
d="M1004 290q-87 -147 -186 -218q-131 -94 -285 -94q-175 0 -288 122.5t-113 347.5q0 188 83 357q66 136 183.5 214t264.5 78q117 0 203.5 -48t134 -145t47.5 -236q0 -53 -12 -132h-762q-6 -62 -6 -93q0 -171 80.5 -259.5t206.5 -88.5q106 0 188.5 64t151.5 190zM908 647
q8 35 8 67q0 131 -69.5 204t-182.5 73q-144 0 -249 -113q-75 -83 -115 -231h608zM504 1413h147l-29 -149h-147zM860 1413h145l-27 -149h-147z" />
    <glyph glyph-name="iacute" unicode="&#xed;" horiz-adv-x="555" 
d="M334 1075h138l-207 -1075h-139zM541 1496h260l-403 -310h-125z" />
    <glyph glyph-name="igrave" unicode="&#xec;" horiz-adv-x="555" 
d="M334 1075h138l-207 -1075h-139zM124 1497h262l267 -311h-123z" />
    <glyph glyph-name="icircumflex" unicode="&#xee;" horiz-adv-x="555" 
d="M334 1075h138l-207 -1075h-139zM434 1500h125l146 -316h-95l-131 190l-280 -190h-98z" />
    <glyph glyph-name="idieresis" unicode="&#xef;" horiz-adv-x="555" 
d="M334 1075h138l-207 -1075h-139zM206 1413h147l-29 -149h-147zM562 1413h145l-27 -149h-147z" />
    <glyph glyph-name="ntilde" unicode="&#xf1;" horiz-adv-x="1153" 
d="M396 881q178 216 367 216q121 0 199 -80.5t78 -219.5q0 -31 -7 -68l-139 -729h-138l130 672q13 68 13 128q0 79 -46.5 125.5t-125.5 46.5q-164 0 -343 -225l-146 -747h-138l210 1075h123zM967 1462h90q-2 -117 -60.5 -185t-126.5 -68q-54 0 -131.5 52t-110.5 52
q-31 0 -54.5 -23.5t-35.5 -80.5h-100q11 127 68.5 189t132.5 62q59 0 143 -55q62 -41 93 -41q23 0 44 18q27 24 48 80z" />
    <glyph glyph-name="oacute" unicode="&#xf3;" 
d="M513 -22q-166 0 -272 120t-106 346q0 184 73.5 340.5t193.5 234.5t247 78q160 0 266.5 -121.5t106.5 -347.5q0 -177 -76.5 -339t-196 -236.5t-236.5 -74.5zM518 90q64 0 123.5 33t113.5 100.5t94 181.5t40 242q0 166 -76 254.5t-178 88.5q-61 0 -120.5 -33.5t-112 -99.5
t-87.5 -165q-47 -135 -47 -273q0 -156 74.5 -242.5t175.5 -86.5zM819 1496h260l-403 -310h-125z" />
    <glyph glyph-name="ograve" unicode="&#xf2;" 
d="M513 -22q-166 0 -272 120t-106 346q0 184 73.5 340.5t193.5 234.5t247 78q160 0 266.5 -121.5t106.5 -347.5q0 -177 -76.5 -339t-196 -236.5t-236.5 -74.5zM518 90q64 0 123.5 33t113.5 100.5t94 181.5t40 242q0 166 -76 254.5t-178 88.5q-61 0 -120.5 -33.5t-112 -99.5
t-87.5 -165q-47 -135 -47 -273q0 -156 74.5 -242.5t175.5 -86.5zM402 1497h262l267 -311h-123z" />
    <glyph glyph-name="ocircumflex" unicode="&#xf4;" 
d="M513 -22q-166 0 -272 120t-106 346q0 184 73.5 340.5t193.5 234.5t247 78q160 0 266.5 -121.5t106.5 -347.5q0 -177 -76.5 -339t-196 -236.5t-236.5 -74.5zM518 90q64 0 123.5 33t113.5 100.5t94 181.5t40 242q0 166 -76 254.5t-178 88.5q-61 0 -120.5 -33.5t-112 -99.5
t-87.5 -165q-47 -135 -47 -273q0 -156 74.5 -242.5t175.5 -86.5zM712 1500h125l146 -316h-95l-131 190l-280 -190h-98z" />
    <glyph glyph-name="odieresis" unicode="&#xf6;" 
d="M513 -22q-166 0 -272 120t-106 346q0 184 73.5 340.5t193.5 234.5t247 78q160 0 266.5 -121.5t106.5 -347.5q0 -177 -76.5 -339t-196 -236.5t-236.5 -74.5zM518 90q64 0 123.5 33t113.5 100.5t94 181.5t40 242q0 166 -76 254.5t-178 88.5q-61 0 -120.5 -33.5t-112 -99.5
t-87.5 -165q-47 -135 -47 -273q0 -156 74.5 -242.5t175.5 -86.5zM504 1413h147l-29 -149h-147zM860 1413h145l-27 -149h-147z" />
    <glyph glyph-name="otilde" unicode="&#xf5;" 
d="M513 -22q-166 0 -272 120t-106 346q0 184 73.5 340.5t193.5 234.5t247 78q160 0 266.5 -121.5t106.5 -347.5q0 -177 -76.5 -339t-196 -236.5t-236.5 -74.5zM518 90q64 0 123.5 33t113.5 100.5t94 181.5t40 242q0 166 -76 254.5t-178 88.5q-61 0 -120.5 -33.5t-112 -99.5
t-87.5 -165q-47 -135 -47 -273q0 -156 74.5 -242.5t175.5 -86.5zM905 1462h90q-2 -117 -60.5 -185t-126.5 -68q-54 0 -131.5 52t-110.5 52q-31 0 -54.5 -23.5t-35.5 -80.5h-100q11 127 68.5 189t132.5 62q59 0 143 -55q62 -41 93 -41q23 0 44 18q27 24 48 80z" />
    <glyph glyph-name="uacute" unicode="&#xfa;" horiz-adv-x="1130" 
d="M262 1075h137l-127 -650q-19 -97 -19 -161q0 -62 50 -109.5t119 -47.5q162 0 350 229l144 739h138l-207 -1075h-126l37 199q-184 -221 -368 -221q-121 0 -198 79t-77 222q0 60 15 134zM799 1496h260l-403 -310h-125z" />
    <glyph glyph-name="ugrave" unicode="&#xf9;" horiz-adv-x="1130" 
d="M262 1075h137l-127 -650q-19 -97 -19 -161q0 -62 50 -109.5t119 -47.5q162 0 350 229l144 739h138l-207 -1075h-126l37 199q-184 -221 -368 -221q-121 0 -198 79t-77 222q0 60 15 134zM412 1497h262l267 -311h-123z" />
    <glyph glyph-name="ucircumflex" unicode="&#xfb;" horiz-adv-x="1130" 
d="M262 1075h137l-127 -650q-19 -97 -19 -161q0 -62 50 -109.5t119 -47.5q162 0 350 229l144 739h138l-207 -1075h-126l37 199q-184 -221 -368 -221q-121 0 -198 79t-77 222q0 60 15 134zM702 1500h125l146 -316h-95l-131 190l-280 -190h-98z" />
    <glyph glyph-name="udieresis" unicode="&#xfc;" horiz-adv-x="1130" 
d="M262 1075h137l-127 -650q-19 -97 -19 -161q0 -62 50 -109.5t119 -47.5q162 0 350 229l144 739h138l-207 -1075h-126l37 199q-184 -221 -368 -221q-121 0 -198 79t-77 222q0 60 15 134zM444 1413h147l-29 -149h-147zM800 1413h145l-27 -149h-147z" />
    <glyph glyph-name="dagger" unicode="&#x2020;" horiz-adv-x="1067" 
d="M584 1523h154l-141 -551l384 29l-29 -147l-368 29l-207 -1289h-176l288 1289l-381 -29l28 147l372 -29z" />
    <glyph glyph-name="degree" unicode="&#xb0;" horiz-adv-x="811" 
d="M128 1268q0 115 81.5 196t195.5 81q116 0 197 -81t81 -196t-81.5 -196.5t-196.5 -81.5q-114 0 -195.5 81.5t-81.5 196.5zM237 1268q0 -70 49.5 -119.5t119.5 -49.5q69 0 118.5 49.5t49.5 119.5t-49.5 119.5t-118.5 49.5q-70 0 -119.5 -49.5t-49.5 -119.5z" />
    <glyph glyph-name="cent" unicode="&#xa2;" horiz-adv-x="1130" 
d="M825 1436h89l-123 -379q94 -40 151 -109t84 -176l-112 -23q-35 144 -155 202l-276 -857q64 -17 102 -17q96 0 165 54.5t122 162.5l100 -47q-50 -100 -95 -148q-60 -63 -139 -97t-157 -34q-48 0 -131 12l-135 -420h-87l142 454q-109 65 -163.5 176t-54.5 253
q0 216 116 398q149 237 388 237q18 0 55 -3zM406 129l272 847q-80 -1 -141 -28.5t-116 -90t-90 -153.5q-50 -132 -50 -272q0 -112 31.5 -181.5t93.5 -121.5z" />
    <glyph glyph-name="sterling" unicode="&#xa3;" horiz-adv-x="1280" 
d="M654 1434q123 111 283 111q110 0 182 -46.5t103 -132.5q19 -52 19 -154h-133q1 28 1 48q0 79 -48 126.5t-131 47.5q-88 0 -156.5 -54t-97.5 -159.5t-45 -354.5h359l-20 -103h-339q-27 -388 -92 -524q96 -75 154.5 -100.5t117.5 -25.5q79 0 130.5 55.5t61.5 179.5h134
q-19 -168 -102 -273t-219 -105q-65 0 -132 31q-51 23 -196 137q-120 -168 -255 -168q-84 0 -140 57.5t-56 145.5q0 91 58.5 150.5t142.5 59.5q100 0 200 -73q51 119 51 398l-1 55h-303l20 103h283q15 199 33.5 293.5t56.5 169.5q24 47 76 105zM397 212q-103 79 -160 79
q-42 0 -75 -34t-33 -83q0 -48 29.5 -78.5t69.5 -30.5q41 0 87.5 36t81.5 111z" />
    <glyph glyph-name="section" unicode="&#xa7;" horiz-adv-x="1174" 
d="M524 942q-80 57 -120 123t-40 142q0 134 114.5 236t307.5 102q170 0 260 -96q66 -71 82 -199l-162 -38q-5 93 -64 147.5t-156 54.5q-101 0 -162 -54.5t-61 -128.5q0 -56 41 -107q40 -52 203.5 -161t218.5 -188t55 -175q0 -122 -78.5 -220.5t-278.5 -204.5
q92 -70 128 -129t36 -130q0 -140 -112 -243.5t-297 -103.5q-175 0 -272 96q-75 74 -87 200l159 37q10 -96 69.5 -149t155.5 -53q98 0 160.5 55.5t62.5 125.5q0 57 -40 110q-41 53 -173 139.5t-187.5 138.5t-85 112.5t-29.5 132.5q0 119 73 215.5t279 212.5zM612 878
q-295 -156 -295 -326q0 -66 44.5 -125t231.5 -191q160 78 229.5 163.5t69.5 158.5q0 68 -46 128.5t-234 191.5z" />
    <glyph glyph-name="bullet" unicode="&#x2022;" horiz-adv-x="725" 
d="M109 718q0 105 74.5 179t178.5 74q105 0 179.5 -74t74.5 -179t-74.5 -179.5t-179.5 -74.5q-104 0 -178.5 74.5t-74.5 179.5z" />
    <glyph glyph-name="paragraph" unicode="&#xb6;" horiz-adv-x="1323" 
d="M1267 1516v-139h-196v-1736h-127v1736h-267v-1736h-131v1033q-134 0 -231 45.5t-157.5 147.5t-60.5 230q0 108 45 195.5t127 143.5q53 36 140.5 58t166.5 22h691z" />
    <glyph glyph-name="germandbls" unicode="&#xdf;" horiz-adv-x="1174" 
d="M126 0l225 1181q33 171 149 267.5t286 96.5q154 0 248.5 -89t94.5 -214q0 -106 -72 -200.5t-235 -163.5q117 -47 185.5 -151.5t68.5 -247.5q0 -218 -131.5 -363.5t-291.5 -145.5q-101 0 -162.5 64t-61.5 169q0 32 5 81h104q0 -121 31.5 -161.5t89.5 -40.5q105 0 181 94
q102 128 102 315q0 162 -92.5 254t-260.5 96l18 100q181 0 286 92.5t105 204.5q0 86 -58.5 140.5t-163.5 54.5q-118 0 -181 -58q-85 -77 -111 -211l-220 -1164h-138z" />
    <glyph glyph-name="registered" unicode="&#xae;" horiz-adv-x="1516" 
d="M758 1545q190 0 371 -97.5t282 -279t101 -378.5q0 -195 -99.5 -374.5t-279 -279.5t-375.5 -100t-375.5 100t-279.5 279.5t-100 374.5q0 197 101.5 378.5t282.5 279t371 97.5zM758 1420q-159 0 -309.5 -81.5t-235.5 -233t-85 -315.5q0 -163 83.5 -312.5t233.5 -233
t313 -83.5t313 83.5t233 233t83 312.5q0 164 -84.5 315.5t-235.5 233t-309 81.5zM427 373v812h279q143 0 207 -22.5t102 -78t38 -119.5q0 -89 -63.5 -155t-168.5 -74q43 -18 69 -43q49 -48 120 -161l99 -159h-160l-72 128q-82 145 -126 181t-116 36h-77v-345h-131zM558 830
h159q114 0 155.5 34t41.5 90q0 66 -56 98q-39 23 -151 23h-149v-245z" />
    <glyph glyph-name="copyright" unicode="&#xa9;" horiz-adv-x="1516" 
d="M758 1545q190 0 371 -97.5t282 -279t101 -378.5q0 -195 -99.5 -374.5t-279 -279.5t-375.5 -100t-375.5 100t-279.5 279.5t-100 374.5q0 197 101.5 378.5t282.5 279t371 97.5zM758 1420q-159 0 -309.5 -81.5t-235.5 -233t-85 -315.5q0 -163 83.5 -312.5t233.5 -233
t313 -83.5t313 83.5t233 233t83 312.5q0 164 -84.5 315.5t-235.5 233t-309 81.5zM1000 668l123 -36q-30 -125 -127.5 -199.5t-236.5 -74.5q-176 0 -286 114.5t-110 315.5q0 202 109 314t295 112q133 0 221 -63.5t120 -172.5l-119 -29q-30 74 -88.5 114t-137.5 40
q-115 0 -189.5 -82.5t-74.5 -235.5t70.5 -231.5t182.5 -78.5q90 0 158 52t90 141z" />
    <glyph glyph-name="trademark" unicode="&#x2122;" horiz-adv-x="2048" 
d="M489 701v694h-264v121h666v-121h-266v-694h-136zM982 701v815h200l206 -651l199 651h196v-815h-124v684l-210 -684h-123l-219 694v-694h-125z" />
    <glyph glyph-name="acute" unicode="&#xb4;" horiz-adv-x="682" 
d="M605 1496h260l-403 -310h-125z" />
    <glyph glyph-name="dieresis" unicode="&#xa8;" horiz-adv-x="682" 
d="M290 1413h147l-29 -149h-147zM646 1413h145l-27 -149h-147z" />
    <glyph glyph-name="notequal" unicode="&#x2260;" horiz-adv-x="1365" 
d="M139 834v131h601l209 530h110l-203 -530h369v-131h-422l-131 -337h553v-131h-604l-209 -529h-113l209 529h-369v131h420l131 337h-551z" />
    <glyph glyph-name="AE" unicode="&#xc6;" horiz-adv-x="1878" 
d="M820 1516h1173l-24 -118h-707l-104 -541h572l-23 -121h-574l-119 -616h764l-23 -120h-914l88 458h-533l-239 -458h-150zM888 1398l-429 -816h495l159 816h-225z" />
    <glyph glyph-name="Oslash" unicode="&#xd8;" horiz-adv-x="1516" 
d="M1392 1318q52 -95 74.5 -181.5t22.5 -196.5q0 -236 -104 -486.5t-270.5 -367t-354.5 -116.5q-127 0 -219 40t-172 117l-135 -155l-78 65l153 175q-95 154 -95 392q0 214 96 442q110 262 277 380.5t358 118.5q219 0 386 -147l126 147l72 -68zM1242 1295q-118 128 -290 128
q-104 0 -199 -53.5t-173.5 -156t-135.5 -261.5q-75 -210 -75 -413q0 -96 34 -217zM456 230q114 -137 295 -137q101 0 194.5 51t176.5 157t141 276q73 217 73 423q0 111 -40 204z" />
    <glyph glyph-name="infinity" unicode="&#x221e;" horiz-adv-x="1196" 
d="M556 812q105 132 164 174q80 58 169 58q105 0 196.5 -76t91.5 -245q0 -118 -34 -185.5t-106 -108.5t-148 -41q-89 0 -169 57q-59 43 -164 175q-136 -171 -289 -171q-101 0 -173.5 76.5t-72.5 190.5q0 113 72.5 190t173.5 77q153 0 289 -171zM625 717q87 -135 159 -185
q46 -33 103 -33q76 0 127.5 56t51.5 158q0 106 -52.5 162t-130.5 56q-50 0 -92 -28q-58 -39 -166 -186zM487 716q-80 100 -128 128.5t-92 28.5q-58 0 -96.5 -41t-38.5 -113q0 -71 40 -113.5t97 -42.5q101 0 218 153z" />
    <glyph glyph-name="plusminus" unicode="&#xb1;" horiz-adv-x="1366" 
d="M138 894h477v480h131v-480h481v-131h-481v-477h-131v477h-477v131zM138 87h1089v-131h-1089v131z" />
    <glyph glyph-name="lessequal" unicode="&#x2264;" horiz-adv-x="1365" 
d="M139 -56v131h1088v-131h-1088zM1225 494v-142l-1085 458v117l1085 457v-142l-909 -373z" />
    <glyph glyph-name="greaterequal" unicode="&#x2265;" horiz-adv-x="1365" 
d="M139 -56v131h1088v-131h-1088zM140 1242v142l1085 -458v-118l-1085 -456v142l909 373z" />
    <glyph glyph-name="yen" unicode="&#xa5;" horiz-adv-x="1194" 
d="M752 660l-32 -47l-34 -176h432l-21 -112h-433l-63 -325h-151l63 325h-442l21 112h443l39 199l-7 24h-430l21 112h374l-231 744h149l219 -744l497 744h167l-505 -744h356l-21 -112h-411z" />
    <glyph glyph-name="mu" unicode="&#xb5;" horiz-adv-x="1130" 
d="M994 1062v-1062h-161v126q-52 -80 -103 -110q-70 -41 -163 -41q-83 0 -147 33q-48 25 -106 99v-514h-178v1469h178v-450q0 -212 18 -291.5t80.5 -131t146.5 -51.5q85 0 151.5 49.5t86.5 125t20 296.5v453h177z" />
    <glyph glyph-name="partialdiff" unicode="&#x2202;" horiz-adv-x="1012" 
d="M930 717q12 113 12 185q0 180 -94.5 279t-251.5 99q-106 0 -176 -40t-125 -119h-46q77 158 166 229.5t215 71.5q90 0 175.5 -49t138 -158t52.5 -296q0 -248 -83 -477q-47 -130 -122.5 -241.5t-171.5 -171.5t-215 -60q-156 0 -247.5 90t-91.5 245q0 103 39 210.5
t102.5 184t132 121t139 66.5t138.5 22q83 0 149 -31t110 -77q27 -28 55 -83zM913 628q-39 111 -116.5 168t-170.5 57q-90 0 -177.5 -62.5t-151 -218t-63.5 -307.5q0 -116 55 -177.5t140 -61.5q123 0 251 130q163 166 233 472z" />
    <glyph glyph-name="summation" unicode="&#x2211;" horiz-adv-x="1460" 
d="M139 1491h1237v-164h-988l607 -775l-649 -822h1040v-161h-1264v187l620 788l-603 772v175z" />
    <glyph glyph-name="product" unicode="&#x220f;" horiz-adv-x="1685" 
d="M1240 1438h-795v-1449q0 -83 37 -119t125 -36h36v-38h-597v38h35q94 0 128.5 38.5t34.5 116.5v1334q0 83 -37 119t-126 36h-35v38h1594v-38h-35q-94 0 -128 -38.5t-34 -116.5v-1334q0 -83 37 -119t125 -36h35v-38h-597v38h35q94 0 128 38.5t34 116.5v1449z" />
    <glyph glyph-name="pi" unicode="&#x3c0;" horiz-adv-x="1124" 
d="M0 1063h1124v-158h-162v-905h-189v905h-426v-905h-188v905h-159v158z" />
    <glyph glyph-name="integral" unicode="&#x222b;" horiz-adv-x="555" 
d="M197 895l18 581q8 154 50 255q27 67 74 99.5t93 32.5q50 0 87.5 -33.5t37.5 -73.5q0 -47 -26.5 -75.5t-65.5 -28.5q-35 0 -76 36q-23 20 -40 20t-28.5 -14.5t-11.5 -49.5q0 -41 9 -145q37 -411 37 -663q0 -70 -16 -590q-8 -295 -90 -399q-54 -67 -134 -67q-52 0 -85 34
t-33 87q0 45 25.5 72t64.5 27q40 0 69 -32t49 -32q17 0 28 14t11 47q0 42 -9 120q-17 143 -26 338q-12 249 -12 440z" />
    <glyph glyph-name="ordfeminine" unicode="&#xaa;" horiz-adv-x="682" 
d="M248 1448q50 52 100 74.5t119 22.5q112 0 176.5 -59t64.5 -144q0 -53 -31 -183q-42 -174 -55 -318h-79v83q-64 -54 -111.5 -75.5t-96.5 -21.5q-80 0 -136.5 57.5t-56.5 139.5q0 91 75 149q102 77 294 77h95q14 48 14 78q0 65 -42.5 106t-114.5 41q-45 0 -81 -17t-77 -59z
M557 993q23 143 34 187h-69q-167 0 -237 -51q-54 -38 -54 -101q0 -56 35 -91.5t88 -35.5q44 0 94.5 23t108.5 69z" />
    <glyph glyph-name="ordmasculine" unicode="&#xba;" horiz-adv-x="682" 
d="M385 829q-107 0 -175 76.5t-68 222.5q0 189 99.5 303t225.5 114q105 0 174.5 -78.5t69.5 -223.5q0 -183 -100.5 -298.5t-225.5 -115.5zM387 899q85 0 148 81q90 113 90 273q0 110 -47.5 166t-116.5 56q-104 0 -169.5 -115.5t-65.5 -251.5q0 -99 47.5 -154t113.5 -55z" />
    <glyph glyph-name="Omega" unicode="&#x2126;" horiz-adv-x="1573" 
d="M496 160q-108 67 -165 130q-87 96 -134 225.5t-47 286.5q0 196 79.5 360.5t231 252.5t347.5 88q336 0 516 -254q131 -186 131 -448q0 -168 -54 -297.5t-141 -222.5q-53 -58 -149 -121l364 6v-166h-575v177q80 40 124 78q72 61 122 145t75.5 179t25.5 198
q0 138 -49.5 277.5t-150 212.5t-243.5 73q-191 0 -296 -120q-146 -169 -146 -440q0 -217 91 -372.5t251 -227.5v-180h-577v168z" />
    <glyph glyph-name="ae" unicode="&#xe6;" horiz-adv-x="1665" 
d="M906 924q74 84 155 125t182 41q161 0 257.5 -105.5t96.5 -316.5q0 -53 -10 -135h-701q-13 -78 -13 -129q0 -150 71 -230.5t176 -80.5q93 0 181.5 63t143.5 194l107 -59q-50 -95 -101 -150q-71 -78 -158 -120.5t-179 -42.5q-101 0 -187.5 51.5t-144.5 157.5
q-227 -209 -403 -209q-113 0 -197 88.5t-84 216.5q0 146 125 242q155 118 482 118q25 0 77 -1q22 67 22 124q0 103 -60.5 161.5t-162.5 58.5q-64 0 -116.5 -27t-113.5 -96l-89 78q143 156 337 156q102 0 183 -44.5t124 -128.5zM1462 642q7 51 7 85q0 125 -60.5 192
t-160.5 67q-135 0 -232 -113q-71 -84 -110 -231h556zM759 533h-57q-245 0 -356.5 -62t-111.5 -186q0 -83 52 -136t129 -53q69 0 148 34t196 123q-11 64 -11 124q0 67 11 156z" />
    <glyph glyph-name="oslash" unicode="&#xf8;" 
d="M961 907q62 -100 62 -283q0 -181 -76 -337.5t-197 -232.5t-240 -76q-152 0 -264 114l-100 -115l-64 57l115 132q-63 134 -63 282q0 153 49.5 282t119.5 205.5t155 119t188 42.5q81 0 143.5 -26.5t122.5 -85.5l98 110l66 -58zM827 889q-81 101 -195 101q-80 0 -166.5 -63
t-144 -208t-57.5 -295q0 -70 23 -153zM326 185q88 -96 190 -96q71 0 133 37.5t112.5 103t84.5 158.5q47 128 47 246q0 86 -23 169z" />
    <glyph glyph-name="questiondown" unicode="&#xbf;" horiz-adv-x="961" 
d="M624 1088h200l-44 -225h-201zM527 627h133q-7 -105 -34 -174.5t-87 -141.5q-42 -50 -193 -187q-99 -89 -129 -145t-30 -121q0 -89 54.5 -144.5t138.5 -55.5q71 0 127 44.5t83 132.5l113 -36q-41 -110 -102 -167q-97 -90 -244 -90q-143 0 -230 87t-87 227
q0 100 53.5 188.5t212.5 217.5q105 86 141.5 134.5t57.5 106.5q14 40 22 124z" />
    <glyph glyph-name="exclamdown" unicode="&#xa1;" horiz-adv-x="748" 
d="M357 1087h200l-44 -227h-202zM311 624h110l-154 -1055h-214z" />
    <glyph glyph-name="logicalnot" unicode="&#xac;" horiz-adv-x="1366" 
d="M139 975h1088v-619h-130l-1 488h-957v131z" />
    <glyph glyph-name="radical" unicode="&#x221a;" horiz-adv-x="1131" 
d="M1053 1869h74l-312 -1947l-496 1021l-198 -91l-34 64l301 151l405 -823z" />
    <glyph glyph-name="florin" unicode="&#x192;" horiz-adv-x="1130" 
d="M731 1116h224l-22 -92h-221l-248 -1141q-32 -149 -96 -204.5t-179 -55.5q-74 0 -179 31l22 100q88 -22 146 -22q62 0 96 24t50 65q3 10 53 233l209 970h-169l20 92h168l25 106q36 152 63 204t86 85.5t139 33.5q55 0 182 -32l-21 -98q-83 19 -153 19q-65 0 -101 -35
t-69 -173z" />
    <glyph glyph-name="approxequal" unicode="&#x2248;" horiz-adv-x="1344" 
d="M1213 604v-144q-154 -128 -284 -128q-51 0 -102 13q-57 15 -217 91q-120 58 -186 58q-128 0 -293 -138v144q155 125 293 125q96 0 295 -95q137 -66 205 -66q126 0 289 140zM1213 1087v-145q-154 -128 -284 -128q-60 0 -116 18q-58 17 -203 87q-121 57 -186 57
q-129 0 -293 -137v143q155 126 293 126q97 0 295 -96q137 -66 205 -66q127 0 289 141z" />
    <glyph glyph-name="guillemotleft" unicode="&#xab;" horiz-adv-x="961" 
d="M398 1075h153l-355 -562l184 -513h-144l-184 532zM764 1075h155l-352 -557l179 -518h-141l-184 535z" />
    <glyph glyph-name="guillemotright" unicode="&#xbb;" horiz-adv-x="961" 
d="M222 1075h141l186 -536l-344 -539h-159l357 557zM590 1075h141l184 -532l-345 -543h-153l355 561z" />
    <glyph glyph-name="ellipsis" unicode="&#x2026;" horiz-adv-x="1921" 
d="M216 227h202l-44 -227h-201zM852 227h202l-44 -227h-201zM1488 227h202l-45 -227h-200z" />
    <glyph glyph-name="Agrave" unicode="&#xc0;" horiz-adv-x="1323" 
d="M760 1516h209l242 -1516h-143l-72 458h-622l-225 -458h-147zM846 1426l-411 -842h542zM553 1917h262l267 -311h-123z" />
    <glyph glyph-name="Atilde" unicode="&#xc3;" horiz-adv-x="1323" 
d="M760 1516h209l242 -1516h-143l-72 458h-622l-225 -458h-147zM846 1426l-411 -842h542zM1111 1882h90q-2 -117 -60.5 -185t-126.5 -68q-54 0 -131.5 52t-110.5 52q-31 0 -54.5 -23.5t-35.5 -80.5h-100q11 127 68.5 189t132.5 62q59 0 143 -55q62 -41 93 -41q23 0 44 18
q27 24 48 80z" />
    <glyph glyph-name="Otilde" unicode="&#xd5;" horiz-adv-x="1516" 
d="M766 -30q-253 0 -401 159.5t-148 463.5q0 222 93 448q108 262 275 383t362 121q243 0 391.5 -158.5t148.5 -451.5q0 -240 -107.5 -490t-271.5 -362.5t-342 -112.5zM747 94q107 0 202 54t173.5 156.5t134.5 265.5q74 215 74 424q0 202 -106.5 315t-269.5 113
q-105 0 -200.5 -54t-176 -159t-137.5 -278q-71 -213 -71 -409q0 -135 50.5 -234t139 -146.5t187.5 -47.5zM1202 1882h90q-2 -117 -60.5 -185t-126.5 -68q-54 0 -131.5 52t-110.5 52q-31 0 -54.5 -23.5t-35.5 -80.5h-100q11 127 68.5 189t132.5 62q59 0 143 -55
q62 -41 93 -41q23 0 44 18q27 24 48 80z" />
    <glyph glyph-name="OE" unicode="&#x152;" horiz-adv-x="1835" 
d="M1013 143q-87 -88 -169.5 -126.5t-181.5 -38.5q-193 0 -320 147t-127 441q0 241 90 476q54 141 131 250t185 175t241 66q242 0 380 -221l38 204h683l-24 -120h-532l-106 -541h424l-21 -119h-424l-121 -616h591l-25 -120h-739zM1205 1122q-66 144 -146.5 214.5
t-187.5 70.5q-60 0 -122.5 -27.5t-116 -80t-103.5 -145.5q-67 -125 -114 -315.5t-47 -348.5q0 -147 70.5 -265t216.5 -118q103 0 198.5 61t205.5 208z" />
    <glyph glyph-name="oe" unicode="&#x153;" horiz-adv-x="1686" 
d="M909 899q144 198 357 198q110 0 186.5 -41.5t120.5 -134t44 -231.5q0 -62 -14 -155h-680q-12 -87 -12 -149q0 -141 69.5 -216t176.5 -75q199 0 308 257l108 -59q-77 -158 -190.5 -236.5t-244.5 -78.5q-123 0 -212 65q-63 45 -112 141q-78 -107 -160 -156.5t-183 -49.5
q-150 0 -242 105.5t-92 336.5q0 326 145.5 501.5t329.5 175.5q95 0 174 -48.5t123 -149.5zM474 92q49 0 94 21t85 63.5t72 103.5q42 81 66.5 195t24.5 220q0 147 -63 221.5t-152 74.5q-80 0 -158 -67t-128.5 -225.5t-50.5 -320.5q0 -140 62 -213t148 -73zM1479 645
q8 62 8 99q0 124 -55.5 185.5t-153.5 61.5q-106 0 -194 -80t-138 -266h533z" />
    <glyph glyph-name="endash" unicode="&#x2013;" horiz-adv-x="1024" 
d="M-11 584h1057v-129h-1057v129z" />
    <glyph glyph-name="emdash" unicode="&#x2014;" horiz-adv-x="2048" 
d="M-18 584h2085v-128h-2085v128z" />
    <glyph glyph-name="quotedblleft" unicode="&#x201c;" horiz-adv-x="961" 
d="M535 1516l70 -34l-140 -271l85 7l-44 -226h-201l43 219zM854 1516l70 -34l-141 -271l86 7l-44 -226h-201l43 219z" />
    <glyph glyph-name="quotedblright" unicode="&#x201d;" horiz-adv-x="961" 
d="M410 1516h199l-41 -225l-189 -303l-69 40l139 263h-82zM728 1516h199l-41 -225l-188 -303l-69 40l139 263h-83z" />
    <glyph glyph-name="quoteleft" unicode="&#x2018;" horiz-adv-x="641" 
d="M534 1516l70 -34l-141 -272l86 8l-44 -226h-201l41 218z" />
    <glyph glyph-name="quoteright" unicode="&#x2019;" horiz-adv-x="641" 
d="M408 1516h200l-42 -225l-188 -303l-69 40l139 263h-83z" />
    <glyph glyph-name="divide" unicode="&#xf7;" horiz-adv-x="1366" 
d="M764 1079q0 -34 -24.5 -59t-59.5 -25t-59.5 25t-24.5 59q0 35 24.5 60t59.5 25t59.5 -25t24.5 -60zM139 725h1088v-126h-1088v126zM766 253q0 -35 -25 -60t-60 -25t-60 25t-25 60t25 60t60 25t60 -25t25 -60z" />
    <glyph glyph-name="lozenge" unicode="&#x25ca;" horiz-adv-x="1003" 
d="M543 1422l418 -713l-418 -709h-111l-391 709l391 713h111zM489 1325l-340 -616l340 -615l359 615z" />
    <glyph glyph-name="ydieresis" unicode="&#xff;" horiz-adv-x="961" 
d="M166 1075h127l137 -923l436 923h138l-607 -1240q-130 -266 -330 -266q-59 0 -134 28l23 106q71 -23 110 -23q74 0 133.5 57t139.5 239zM370 1413h147l-29 -149h-147zM726 1413h145l-27 -149h-147z" />
    <glyph glyph-name="Ydieresis" unicode="&#x178;" horiz-adv-x="1194" 
d="M301 1516h149l219 -744l496 744h167l-613 -903l-118 -613h-151l124 636zM590 1733h147l-29 -149h-147zM946 1733h145l-27 -149h-147z" />
    <glyph glyph-name="fraction" unicode="&#x2215;" horiz-adv-x="319" 
d="M539 1508h96l-854 -1508h-99z" />
    <glyph glyph-name="Euro" unicode="&#x20ac;" horiz-adv-x="1280" 
d="M1242 1124l-136 -32q-16 344 -279 344q-292 0 -429 -512h566l-41 -112h-551q-13 -63 -20 -114h533l-41 -112h-505q-5 -60 -5 -115q0 -384 298 -384q187 0 323 262l125 -52q-169 -327 -457 -327q-222 0 -334 159q-96 137 -96 365q0 44 3 92h-133l44 112h100q7 59 18 114
h-142l44 112h123q69 268 198 428q156 193 376 193q378 0 418 -421z" />
    <glyph glyph-name="guilsinglleft" unicode="&#x2039;" horiz-adv-x="598" 
d="M399 1075h155l-352 -557l179 -518h-141l-184 535z" />
    <glyph glyph-name="guilsinglright" unicode="&#x203a;" horiz-adv-x="598" 
d="M223 1075h141l184 -532l-345 -543h-153l356 561z" />
    <glyph glyph-name="fi" unicode="&#xf001;" horiz-adv-x="1130" 
d="M329 1075l38 194q17 77 33 112t42 64q79 72 187 72q44 0 109 -17l-23 -121q-41 5 -72 5q-90 0 -118 -52q-20 -37 -63 -257h195l-23 -117h-192l-191 -958h-129l185 958h-185l23 117h184zM999 1516h137l-33 -174h-138zM916 1075h133l-211 -1075h-135z" />
    <glyph glyph-name="fl" unicode="&#xf002;" horiz-adv-x="1130" 
d="M335 1075q41 231 57 278q25 74 88 119t156 45q48 0 108 -20l-25 -120q-51 5 -79 5q-55 0 -84.5 -22.5t-44.5 -73.5q-10 -35 -43 -211h190l-21 -117h-195l-187 -958h-130l187 958h-187l24 117h186zM1003 1516h132l-291 -1516h-140z" />
    <glyph glyph-name="daggerdbl" unicode="&#x2021;" horiz-adv-x="1067" 
d="M649 1523h151l-127 -501l368 30l-29 -146l-356 28l-53 -370l-92 -385l368 29l-30 -147l-355 32l-65 -499h-153l128 499l-371 -32l27 147l360 -29l56 385l92 370l-373 -28l28 146l360 -30z" />
    <glyph glyph-name="periodcentered" unicode="&#x2219;" horiz-adv-x="532" 
d="M184 874h203l-45 -229h-201z" />
    <glyph glyph-name="quotesinglbase" unicode="&#x201a;" horiz-adv-x="641" 
d="M163 230h200l-42 -225l-188 -302l-69 40l139 257h-83z" />
    <glyph glyph-name="quotedblbase" unicode="&#x201e;" horiz-adv-x="961" 
d="M162 230h201l-46 -230l-185 -299l-69 39l142 274l-87 -14zM481 230h201l-46 -230l-185 -299l-70 39l143 274l-87 -14z" />
    <glyph glyph-name="perthousand" unicode="&#x2030;" horiz-adv-x="2879" 
d="M1468 1516h117l-1115 -1947h-120l1010 1752q-98 -41 -200.5 -71t-317.5 -76q25 -55 25 -117q0 -198 -126.5 -361.5t-292.5 -163.5q-145 0 -241 100t-96 266q0 127 60 260t151 190t194 57q79 0 150 -36.5t134 -109.5q262 50 399.5 105t268.5 152zM444 650q120 0 213 133
t93 261q0 103 -70 173t-170 70q-130 0 -205.5 -125.5t-75.5 -262.5q0 -112 64 -180.5t151 -68.5zM1409 -329q-145 0 -241 101t-96 268t92 315q116 186 306 186q150 0 252.5 -101t102.5 -242q0 -185 -123 -356t-293 -171zM1403 -214q52 0 97.5 24t91.5 78.5t77 124.5
q41 95 41 169q0 100 -69.5 171.5t-166.5 71.5q-127 0 -205.5 -126t-78.5 -258q0 -118 62.5 -186.5t150.5 -68.5zM2362 -329q-145 0 -241 101t-96 268t92 315q116 186 306 186q150 0 252.5 -101t102.5 -242q0 -185 -123 -356t-293 -171zM2356 -214q52 0 97.5 24t91.5 78.5
t77 124.5q42 95 42 169q0 100 -70 171.5t-167 71.5q-127 0 -205.5 -126t-78.5 -258q0 -118 62.5 -186.5t150.5 -68.5z" />
    <glyph glyph-name="Acircumflex" unicode="&#xc2;" horiz-adv-x="1323" 
d="M760 1516h209l242 -1516h-143l-72 458h-622l-225 -458h-147zM846 1426l-411 -842h542zM883 1920h125l146 -316h-95l-131 190l-280 -190h-98z" />
    <glyph glyph-name="Ecircumflex" unicode="&#xca;" horiz-adv-x="1194" 
d="M458 1516h857l-23 -120h-709l-104 -539h574l-23 -121h-572l-122 -615h764l-23 -121h-914zM908 1920h125l146 -316h-95l-131 190l-280 -190h-98z" />
    <glyph glyph-name="Aacute" unicode="&#xc1;" horiz-adv-x="1323" 
d="M760 1516h209l242 -1516h-143l-72 458h-622l-225 -458h-147zM846 1426l-411 -842h542zM970 1916h260l-403 -310h-125z" />
    <glyph glyph-name="Edieresis" unicode="&#xcb;" horiz-adv-x="1194" 
d="M458 1516h857l-23 -120h-709l-104 -539h574l-23 -121h-572l-122 -615h764l-23 -121h-914zM680 1833h147l-29 -149h-147zM1036 1833h145l-27 -149h-147z" />
    <glyph glyph-name="Egrave" unicode="&#xc8;" horiz-adv-x="1194" 
d="M458 1516h857l-23 -120h-709l-104 -539h574l-23 -121h-572l-122 -615h764l-23 -121h-914zM488 1917h262l267 -311h-123z" />
    <glyph glyph-name="Iacute" unicode="&#xcd;" horiz-adv-x="618" 
d="M472 1516h148l-290 -1516h-149zM617 1916h260l-403 -310h-125z" />
    <glyph glyph-name="Icircumflex" unicode="&#xce;" horiz-adv-x="618" 
d="M472 1516h148l-290 -1516h-149zM568 1920h125l146 -316h-95l-131 190l-280 -190h-98z" />
    <glyph glyph-name="Idieresis" unicode="&#xcf;" horiz-adv-x="618" 
d="M472 1516h148l-290 -1516h-149zM345 1833h147l-29 -149h-147zM701 1833h145l-27 -149h-147z" />
    <glyph glyph-name="Igrave" unicode="&#xcc;" horiz-adv-x="618" 
d="M472 1516h148l-290 -1516h-149zM238 1917h262l267 -311h-123z" />
    <glyph glyph-name="Oacute" unicode="&#xd3;" horiz-adv-x="1516" 
d="M766 -30q-253 0 -401 159.5t-148 463.5q0 222 93 448q108 262 275 383t362 121q243 0 391.5 -158.5t148.5 -451.5q0 -240 -107.5 -490t-271.5 -362.5t-342 -112.5zM747 94q107 0 202 54t173.5 156.5t134.5 265.5q74 215 74 424q0 202 -106.5 315t-269.5 113
q-105 0 -200.5 -54t-176 -159t-137.5 -278q-71 -213 -71 -409q0 -135 50.5 -234t139 -146.5t187.5 -47.5zM1066 1916h260l-403 -310h-125z" />
    <glyph glyph-name="Ocircumflex" unicode="&#xd4;" horiz-adv-x="1516" 
d="M766 -30q-253 0 -401 159.5t-148 463.5q0 222 93 448q108 262 275 383t362 121q243 0 391.5 -158.5t148.5 -451.5q0 -240 -107.5 -490t-271.5 -362.5t-342 -112.5zM747 94q107 0 202 54t173.5 156.5t134.5 265.5q74 215 74 424q0 202 -106.5 315t-269.5 113
q-105 0 -200.5 -54t-176 -159t-137.5 -278q-71 -213 -71 -409q0 -135 50.5 -234t139 -146.5t187.5 -47.5zM1009 1920h125l146 -316h-95l-131 190l-280 -190h-98z" />
    <glyph glyph-name="Ograve" unicode="&#xd2;" horiz-adv-x="1516" 
d="M766 -30q-253 0 -401 159.5t-148 463.5q0 222 93 448q108 262 275 383t362 121q243 0 391.5 -158.5t148.5 -451.5q0 -240 -107.5 -490t-271.5 -362.5t-342 -112.5zM747 94q107 0 202 54t173.5 156.5t134.5 265.5q74 215 74 424q0 202 -106.5 315t-269.5 113
q-105 0 -200.5 -54t-176 -159t-137.5 -278q-71 -213 -71 -409q0 -135 50.5 -234t139 -146.5t187.5 -47.5zM669 1917h262l267 -311h-123z" />
    <glyph glyph-name="Uacute" unicode="&#xda;" horiz-adv-x="1493" 
d="M442 1516h148l-168 -872q-26 -135 -26 -240q0 -134 88 -217.5t249 -83.5q226 0 348 141q78 90 116 296l184 976h149l-200 -1049q-47 -247 -197 -372t-398 -125q-130 0 -226 33q-67 23 -129 79.5t-98.5 131.5t-36.5 190q0 91 22 206zM1055 1916h260l-403 -310h-125z" />
    <glyph glyph-name="Ucircumflex" unicode="&#xdb;" horiz-adv-x="1493" 
d="M442 1516h148l-168 -872q-26 -135 -26 -240q0 -134 88 -217.5t249 -83.5q226 0 348 141q78 90 116 296l184 976h149l-200 -1049q-47 -247 -197 -372t-398 -125q-130 0 -226 33q-67 23 -129 79.5t-98.5 131.5t-36.5 190q0 91 22 206zM1009 1920h125l146 -316h-95l-131 190
l-280 -190h-98z" />
    <glyph glyph-name="Ugrave" unicode="&#xd9;" horiz-adv-x="1493" 
d="M442 1516h148l-168 -872q-26 -135 -26 -240q0 -134 88 -217.5t249 -83.5q226 0 348 141q78 90 116 296l184 976h149l-200 -1049q-47 -247 -197 -372t-398 -125q-130 0 -226 33q-67 23 -129 79.5t-98.5 131.5t-36.5 190q0 91 22 206zM638 1917h262l267 -311h-123z" />
    <glyph glyph-name="dotlessi" unicode="&#x131;" horiz-adv-x="555" 
d="M334 1075h138l-207 -1075h-139z" />
    <glyph glyph-name="circumflex" unicode="&#x2c6;" horiz-adv-x="682" 
d="M498 1500h125l146 -316h-95l-131 190l-280 -190h-98z" />
    <glyph glyph-name="tilde" unicode="&#x2dc;" horiz-adv-x="682" 
d="M691 1462h90q-2 -117 -60.5 -185t-126.5 -68q-54 0 -131.5 52t-110.5 52q-31 0 -54.5 -23.5t-35.5 -80.5h-100q11 127 68.5 189t132.5 62q59 0 143 -55q62 -41 93 -41q23 0 44 18q27 24 48 80z" />
    <glyph glyph-name="uni02C9" unicode="&#x2c9;" horiz-adv-x="682" 
d="M767 1407l-27 -144h-564l27 144h564z" />
    <glyph glyph-name="breve" unicode="&#x2d8;" horiz-adv-x="682" 
d="M214 1497h106q29 -77 78 -114.5t105 -37.5q55 0 107 38t102 114h122q-85 -170 -182 -241.5t-181 -71.5q-93 0 -171 86t-86 227z" />
    <glyph glyph-name="dotaccent" unicode="&#x2d9;" horiz-adv-x="682" 
d="M462 1422h168l-33 -167h-169z" />
    <glyph glyph-name="ring" unicode="&#x2da;" horiz-adv-x="682" 
d="M496 1158q-81 0 -136 55t-55 133t55 133t133 55t133 -55t55 -133q0 -77 -55 -132.5t-130 -55.5zM490 1222q54 0 91 36.5t37 87.5q0 52 -37 88.5t-88 36.5q-52 0 -88.5 -36.5t-36.5 -88.5q0 -51 36.5 -87.5t85.5 -36.5z" />
    <glyph glyph-name="cedilla" unicode="&#xb8;" horiz-adv-x="682" 
d="M303 18h96l-42 -105q71 0 113.5 -39t42.5 -98q0 -74 -73 -131t-229 -57q-58 0 -169 16l51 89q62 -12 106 -12q116 0 164 33q34 22 34 59q0 30 -28 50q-36 27 -131 32z" />
    <glyph glyph-name="ogonek" unicode="&#x2db;" horiz-adv-x="682" 
d="M289 27h112q-58 -130 -58 -202q0 -54 31.5 -85.5t83.5 -31.5q67 0 175 43l-25 -120q-112 -62 -209 -62q-90 0 -136.5 47.5t-46.5 138.5q0 116 73 272z" />
    <glyph glyph-name="caron" unicode="&#x2c7;" horiz-adv-x="682" 
d="M254 1497h92l145 -185l296 185h86l-337 -316h-132z" />
    <glyph glyph-name="Scaron" unicode="&#x160;" horiz-adv-x="1174" 
d="M414 869q-110 115 -110 264q0 179 125.5 295.5t351.5 116.5q142 0 240 -51t160 -150q42 -67 71 -187l-127 -34q-21 92 -51 142q-46 79 -122 119.5t-185 40.5q-154 0 -239 -77t-85 -194q0 -92 54 -158q54 -67 256 -174q151 -80 215.5 -132.5t101.5 -127.5t37 -176
q0 -180 -131.5 -298t-367.5 -118q-224 0 -356 124.5t-149 363.5l127 25q15 -133 47 -201q44 -96 125.5 -142t204.5 -46q176 0 265.5 80t89.5 203q0 94 -49 158q-49 63 -234.5 160.5t-264.5 173.5zM584 1917h92l145 -185l296 185h86l-337 -316h-132z" />
    <glyph glyph-name="scaron" unicode="&#x161;" horiz-adv-x="961" 
d="M307 621q-40 41 -57.5 81t-17.5 95q0 127 93.5 213.5t252.5 86.5q229 0 341 -213l-105 -50q-73 156 -235 156q-99 0 -158.5 -54t-59.5 -125q0 -50 37 -92q36 -42 164 -105q178 -89 225 -153t47 -161q0 -134 -100.5 -228t-264.5 -94q-143 0 -239 72t-165 217l107 53
q62 -130 127 -179t164 -49q111 0 174.5 58t63.5 140q0 59 -39 105t-165.5 108.5t-189.5 117.5zM394 1497h92l145 -185l296 185h86l-337 -316h-132z" />
    <glyph glyph-name="brokenbar" unicode="&#xa6;" horiz-adv-x="1087" 
d="M478 1516h132v-725h-132v725zM478 293h132v-724h-132v724z" />
    <glyph glyph-name="Eth" unicode="&#xd0;" horiz-adv-x="1450" 
d="M312 698h-179l21 116h180l137 702h464q222 0 353 -149.5t131 -470.5q0 -393 -199 -644.5t-579 -251.5h-465zM461 698l-112 -575h185q267 0 411 76t227.5 262t83.5 448q0 260 -103 373.5t-310 113.5h-247l-113 -582h326l-22 -116h-326z" />
    <glyph glyph-name="eth" unicode="&#xf0;" horiz-adv-x="1067" 
d="M649 1516h102l66 -108l159 74l35 -74l-156 -73q67 -153 93 -265q47 -201 47 -392q0 -186 -58 -349q-37 -103 -104 -182t-152 -124t-189 -45q-162 0 -267 119t-105 351q0 187 72 339.5t189.5 231t246.5 78.5q64 0 113.5 -18t113.5 -67q-27 158 -84 282l-256 -119l-35 72
l257 122q-35 68 -88 147zM615 988q-156 0 -261 -171.5t-105 -381.5q0 -173 73 -260.5t176 -87.5q156 0 260.5 174t104.5 377q0 171 -74.5 260.5t-173.5 89.5z" />
    <glyph glyph-name="Yacute" unicode="&#xdd;" horiz-adv-x="1194" 
d="M301 1516h149l219 -744l496 744h167l-613 -903l-118 -613h-151l124 636zM925 1916h260l-403 -310h-125z" />
    <glyph glyph-name="yacute" unicode="&#xfd;" horiz-adv-x="961" 
d="M166 1075h127l137 -923l436 923h138l-607 -1240q-130 -266 -330 -266q-59 0 -134 28l23 106q71 -23 110 -23q74 0 133.5 57t139.5 239zM745 1496h260l-403 -310h-125z" />
    <glyph glyph-name="Thorn" unicode="&#xde;" horiz-adv-x="1323" 
d="M442 1516h149l-68 -342h389q176 0 284.5 -104.5t108.5 -264.5q0 -104 -44 -200q-31 -67 -72 -107q-66 -66 -159 -110t-228 -44h-438l-66 -344h-149zM500 1055l-113 -590h371q136 0 227.5 46.5t132.5 121.5t41 169q0 115 -75.5 184t-226.5 69h-357z" />
    <glyph glyph-name="thorn" unicode="&#xfe;" horiz-adv-x="1174" 
d="M428 956q71 74 143.5 107.5t156.5 33.5q168 0 265.5 -108t97.5 -328q0 -158 -46 -291t-115.5 -216t-157 -129.5t-194.5 -46.5q-79 0 -147.5 28.5t-166.5 109.5l-107 -547h-136l376 1947h137zM294 264q117 -173 276 -173q174 0 290 194q95 160 95 371q0 169 -70.5 250
t-181.5 81q-123 0 -233 -101q-67 -61 -76 -104z" />
    <glyph glyph-name="multiply" unicode="&#xd7;" horiz-adv-x="1366" 
d="M184 1070l92 93l408 -409l408 409l93 -93l-408 -409l404 -404l-93 -93l-403 405l-407 -405l-92 93l406 404z" />
    <glyph glyph-name="onesuperior" unicode="&#xb9;" horiz-adv-x="641" 
d="M309 1447q73 16 90 22q27 10 61 31h56l-131 -660h95l-20 -100h-289l20 100h90l104 530q-49 -14 -95 -17z" />
    <glyph glyph-name="twosuperior" unicode="&#xb2;" horiz-adv-x="641" 
d="M181 1324q107 192 284 192q91 0 145 -51t54 -126q0 -55 -30.5 -111t-86.5 -105q-31 -27 -110 -68q-116 -59 -165 -106t-82 -114h379l-19 -101h-490q14 121 83 210t238 184q95 54 124 90q42 52 42 103q0 39 -27.5 66t-69.5 27q-106 0 -177 -121z" />
    <glyph glyph-name="threesuperior" unicode="&#xb3;" horiz-adv-x="641" 
d="M210 1408q70 58 130 83t127 25q84 0 131.5 -44.5t47.5 -114.5q0 -77 -54.5 -139t-171.5 -92q92 -18 127.5 -57t35.5 -101q0 -101 -87.5 -180t-222.5 -79q-141 0 -219 121l100 65q77 -83 155 -83q69 0 115.5 43.5t46.5 99.5q0 63 -54 97q-39 23 -130 23h-28l18 96
q129 0 201 54q54 42 54 100q0 40 -24.5 64t-70.5 24q-40 0 -76 -16t-84 -58z" />
    <glyph glyph-name="onehalf" unicode="&#xbd;" horiz-adv-x="1921" 
d="M1698 1549l79 -46l-1293 -1754l-76 49zM675 1542h112l-166 -861h175l-24 -114h-447l21 114h160l139 715q-78 -26 -167 -26l17 84q99 14 180 88zM1278 492q75 147 181 220.5t216 73.5q116 0 188 -69.5t72 -173.5q0 -68 -36.5 -135.5t-100.5 -124.5q-38 -35 -144 -99
q-143 -87 -215.5 -153t-143.5 -166h522l-21 -116h-661q22 116 80 190q121 153 372 324q127 88 172 149q44 60 44 121q0 60 -41 100t-105 40q-163 0 -273 -215z" />
    <glyph glyph-name="onequarter" unicode="&#xbc;" horiz-adv-x="1921" 
d="M1745 1552l80 -44l-1299 -1761l-75 49zM671 1543h108l-167 -861h167l-20 -115h-444l21 115h160l141 723q-74 -35 -146 -35h-22l19 86q101 10 183 87zM1617 783h159l-139 -686h203l-19 -97h-197l-49 -253h-115l49 253h-475l20 97zM1637 644l-451 -547h341z" />
    <glyph glyph-name="threequarters" unicode="&#xbe;" horiz-adv-x="1921" 
d="M1511 1548l82 -48l-1299 -1753l-83 45zM211 1397q90 80 166 114t156 34q104 0 167 -60t63 -150q0 -110 -89 -185q-53 -43 -159 -59q95 -15 142.5 -68.5t47.5 -133.5q0 -136 -123.5 -231.5t-260.5 -95.5q-171 0 -267 189l104 67q73 -139 202 -139q90 0 160 64.5t70 137.5
q0 45 -26.5 80.5t-72.5 51.5q-32 12 -106 12l-103 -1l56 115q110 0 171.5 23t97 71.5t35.5 85.5q0 44 -36 77t-94 33q-115 0 -230 -111zM1391 783h165l-133 -688h189l-19 -95h-194l-48 -253h-116l48 253h-473l20 95zM1412 642l-450 -547h344z" />
    <glyph glyph-name="macron" unicode="&#xaf;" horiz-adv-x="1131" 
d="M-40 1555v130h1193v-130h-1193z" />
    <glyph glyph-name="currency" unicode="&#xa4;" horiz-adv-x="1409" 
d="M960 1024l127 127l88 -90l-126 -127q90 -131 90 -272q0 -76 -21.5 -139t-68.5 -132l126 -126l-88 -89l-127 126q-69 -48 -132.5 -69.5t-140.5 -21.5t-140 21.5t-132 68.5l-126 -125l-90 89l127 125q-48 69 -69.5 132.5t-21.5 139.5q0 77 21.5 140.5t69.5 132.5l-127 126
l89 90l127 -126q67 45 135 67.5t137 22.5q75 0 139 -21.5t134 -69.5zM1012 663q0 134 -95 229.5t-230 95.5t-230 -95.5t-95 -229.5q0 -135 95 -230.5t230 -95.5t230 95.5t95 230.5z" />
  </font>
</defs>
</svg>
