<?xml version="1.0" encoding="UTF-8"?>
<svg width="1154px" height="905px" viewBox="0 0 1154 905" version="1.1" xmlns="http://www.w3.org/2000/svg" xmlns:xlink="http://www.w3.org/1999/xlink">
    <!-- Generator: Sketch 42 (36781) - http://www.bohemiancoding.com/sketch -->
    <title>Combined Shape</title>
    <desc>Created with Sketch.</desc>
    <defs></defs>
    <g id="Page-1" stroke="none" stroke-width="1" fill="none" fill-rule="evenodd">
        <g id="upload-placeholder" fill-rule="nonzero" fill="#000000">
            <path d="M1002.77253,148.788111 L1001.99876,44.6655977 C1001.81407,19.8134702 981.517725,-0.18344277 956.665598,0.00124251597 C931.81347,0.185927802 911.816557,20.4822748 912.001243,45.3344023 L912.775015,149.456916 L808.665598,150.230591 C783.81347,150.415276 763.816557,170.711623 764.001243,195.563751 C764.185928,220.415878 784.482275,240.412791 809.334402,240.228106 L913.44382,239.454431 L914.230591,345.326119 C914.415276,370.178246 934.711623,390.175159 959.563751,389.990474 C984.415878,389.805789 1004.41279,369.509442 1004.22811,344.657314 L1003.44133,238.785626 L1109.32612,237.998757 C1134.17825,237.814072 1154.17516,217.517725 1153.99047,192.665598 C1153.80579,167.81347 1133.50944,147.816557 1108.65731,148.001243 L1002.77253,148.788111 Z M871.1,169.5 L108.9,169.5 C49,169.5 0,218.5 0,278.4 L0,795.7 C0,855.6 49,904.6 108.9,904.6 L871.1,904.6 C931,904.6 980,855.6 980,795.7 L980,278.4 C980,218.5 931,169.5 871.1,169.5 Z M939.2,784.3 C939.2,839.2 914.7,863.7 859.8,863.7 L120.3,863.7 C65.4,863.7 40.9,839.2 40.9,784.3 L40.9,289.7 C40.9,234.8 65.4,210.3 120.3,210.3 L859.8,210.3 C914.7,210.3 939.2,234.8 939.2,289.7 L939.2,784.3 L939.2,784.3 Z M306.3,455.3 L408.3,537 L673.7,312.4 L877.9,496.2 L877.9,802.5 L102.1,802.5 L102.1,618.7 L306.3,455.3 Z M183.8,271.6 C138.7,271.6 102.1,308.2 102.1,353.3 C102.1,398.4 138.7,435 183.8,435 C228.9,435 265.5,398.4 265.5,353.3 C265.5,308.2 228.9,271.6 183.8,271.6 Z" id="Combined-Shape"></path>
        </g>
    </g>
</svg>