<?xml version="1.0" encoding="UTF-8"?>
<svg width="21px" height="25px" viewBox="0 0 21 25" version="1.1" xmlns="http://www.w3.org/2000/svg" xmlns:xlink="http://www.w3.org/1999/xlink">
    <!-- Generator: Sketch 41.1 (35376) - http://www.bohemiancoding.com/sketch -->
    <title>Invoice History Icon</title>
    <desc>Created with Sketch.</desc>
    <defs></defs>
    <g id="Page-1" stroke="none" stroke-width="1" fill="none" fill-rule="evenodd">
        <g id="Artboard-1" transform="translate(-18.000000, -564.000000)">
            <g id="Invoice-History-Icon" transform="translate(18.000000, 564.000000)">
                <rect id="Rectangle-18" fill="#A9A9A9" x="0" y="1" width="21" height="24" rx="1"></rect>
                <rect id="Rectangle-18-Copy" fill="#FFFFFF" x="3" y="3" width="15" height="19" rx="1"></rect>
                <path d="M8.05000906,2 L4.99850233,2 C4.44748943,2 4,2.44724809 4,2.99895656 L4,4.00104344 C4,4.55733967 4.44704472,5 4.99850233,5 L16.0014977,5 C16.5525106,5 17,4.55275191 17,4.00104344 L17,2.99895656 C17,2.44266033 16.5529553,2 16.0014977,2 L12.9499909,2 C12.7183558,0.858879839 11.709479,0 10.5,0 C9.29052104,0 8.28164422,0.858879839 8.05000906,2 Z" id="Combined-Shape" fill="#CDCDCD"></path>
                <path d="M9.79385616,11.0734337 L9.79385616,14.3101707 L12.7633396,16.0918608 L13.2681518,15.2901003 L10.7440909,13.7756637 L10.7440909,11.0734337 L9.79385616,11.0734337 Z M10.7440909,7.92578125 C9.6156815,7.92578125 8.59616904,8.19798118 7.68552289,8.74238921 C6.77487673,9.28679723 6.05230965,10.0143134 5.51779995,10.9249596 L4.09244788,9.49960749 L4.09244788,13.6271895 L8.19033508,13.6271895 L6.46803466,11.8751943 C6.86396777,11.0635314 7.43311308,10.4152007 8.17548766,9.9301826 C8.91786224,9.44516454 9.77405475,9.19276097 10.7440909,9.17296431 C12.0902634,9.21255762 13.2087577,9.67777205 14.0996072,10.5686215 C14.9904567,11.459471 15.4556711,12.5779653 15.4952644,13.9241379 C15.4556711,15.2703105 14.9904567,16.3937538 14.0996072,17.2945016 C13.2087577,18.1952495 12.0902634,18.6555148 10.7440909,18.6753114 C9.69486813,18.6555148 8.76938836,18.3585694 7.96762382,17.7844664 C7.16585927,17.2103634 6.59671396,16.4581018 6.26017082,15.527659 L4.92390325,15.527659 C5.30003971,16.8144416 6.00775952,17.8685977 7.04708394,18.6901589 C8.08640835,19.5117201 9.31873167,19.9323927 10.7440909,19.9521893 C12.4466032,19.912596 13.8620429,19.3236544 14.9904522,18.1853467 C16.1188616,17.047039 16.7028542,15.6266503 16.7424475,13.9241379 C16.7028542,12.2216255 16.1188616,10.8061859 14.9904522,9.6777765 C13.8620429,8.54936714 12.4466032,7.96537456 10.7440909,7.92578125 Z" id="" fill="#A9A9A9"></path>
            </g>
        </g>
    </g>
</svg>