<?xml version="1.0" encoding="UTF-8"?>
<svg width="49px" height="38px" viewBox="0 0 49 38" version="1.1" xmlns="http://www.w3.org/2000/svg" xmlns:xlink="http://www.w3.org/1999/xlink">
    <!-- Generator: Sketch 46.2 (44496) - http://www.bohemiancoding.com/sketch -->
    <title>cogs</title>
    <desc>Created with Sketch.</desc>
    <defs></defs>
    <g id="Page-1" stroke="none" stroke-width="1" fill="none" fill-rule="evenodd">
        <g id="cogs" transform="translate(-5.000000, 0.000000)" fill="#9b9b9b">
            <path d="M21.5869108,27.8332569 C23.1578132,27.7840817 24.4586972,27.2431626 25.4896018,26.2104832 C26.5205065,25.1778038 27.0359511,23.8746804 27.0359511,22.3010737 C27.0359511,20.7274671 26.5205065,19.4243436 25.4896018,18.3916643 C24.4586972,17.3589849 23.1578132,16.842653 21.5869108,16.842653 C20.0160085,16.842653 18.7151245,17.3589849 17.6842198,18.3916643 C16.6533152,19.4243436 16.1378706,20.7274671 16.1378706,22.3010737 C16.1378706,23.8746804 16.6533152,25.1778038 17.6842198,26.2104832 C18.7151245,27.2431626 20.0160085,27.7840817 21.5869108,27.8332569 Z M33.2949838,23.850085 L36.6085894,26.4317705 C36.9031336,26.7268218 36.9522235,27.0710431 36.7558607,27.4644447 L33.5895265,32.9228655 C33.3931637,33.2670919 33.074079,33.3654409 32.6322627,33.2179152 L28.7295717,31.6689039 C27.9441205,32.3081816 27.0605012,32.8245136 26.0786873,33.2179152 L25.4896018,37.348612 C25.3914204,37.7911889 25.1459706,38.012474 24.753245,38.012474 L18.4205766,38.012474 C18.0278511,38.012474 17.7824012,37.7911889 17.6842198,37.348612 L17.0951344,33.2179152 C16.1133204,32.8245136 15.2297011,32.3081816 14.44425,31.6689039 L10.541559,33.2179152 C10.0997427,33.3654409 9.78065794,33.2670919 9.58429515,32.9228655 L6.41796094,27.4644447 C6.22159815,27.0710431 6.27068811,26.7268218 6.5652323,26.4317705 L9.87883786,23.850085 C9.82974716,23.358333 9.80520218,22.842001 9.80520218,22.3010737 C9.80520218,21.7601465 9.82974716,21.2438145 9.87883786,20.7520624 L6.5652323,18.170377 C6.27068811,17.8753257 6.22159815,17.5311044 6.41796094,17.1377028 L9.58429515,11.679282 C9.78065794,11.3350556 10.0997427,11.2367066 10.541559,11.3842322 L14.44425,12.9332435 C15.2297011,12.2939658 16.1133204,11.7776339 17.0951344,11.3842322 L17.6842198,7.25353546 C17.7824012,6.81095859 18.0278511,6.58967347 18.4205766,6.58967347 L24.753245,6.58967347 C25.1459706,6.58967347 25.3914204,6.81095859 25.4896018,7.25353546 L26.0786873,11.3842322 C27.0605012,11.7776339 27.9441205,12.2939658 28.7295717,12.9332435 L32.6322627,11.3842322 C33.074079,11.2367066 33.3931637,11.3350556 33.5895265,11.679282 L36.7558607,17.1377028 C36.9522235,17.5311044 36.9031336,17.8753257 36.6085894,18.170377 L33.2949838,20.7520624 C33.3440745,21.2438145 33.3686195,21.7601465 33.3686195,22.3010737 C33.3686195,22.842001 33.3440745,23.358333 33.2949838,23.850085 Z" id="" transform="translate(21.586911, 22.301074) rotate(32.000000) translate(-21.586911, -22.301074) "></path>
            <path d="M43.4756408,29.2918632 C44.0015854,29.2751767 44.4371268,29.0916273 44.782278,28.7412098 C45.1274291,28.3907922 45.3000021,27.9486052 45.3000021,27.4146355 C45.3000021,26.8806659 45.1274291,26.4384789 44.782278,26.0880613 C44.4371268,25.7376437 44.0015854,25.5624375 43.4756408,25.5624375 C42.9496961,25.5624375 42.5141547,25.7376437 42.1690036,26.0880613 C41.8238524,26.4384789 41.6512794,26.8806659 41.6512794,27.4146355 C41.6512794,27.9486052 41.8238524,28.3907922 42.1690036,28.7412098 C42.5141547,29.0916273 42.9496961,29.2751767 43.4756408,29.2918632 Z M47.3955524,27.9402593 L48.5049613,28.8162989 C48.6035759,28.9164182 48.6200115,29.0332223 48.5542684,29.1667147 L47.4941665,31.0189127 C47.4284234,31.1357185 47.3215925,31.1690911 47.1736706,31.1190315 L45.8670334,30.5934077 C45.604061,30.8103329 45.3082216,30.9855391 44.9795062,31.1190315 L44.782278,32.5206948 C44.7494064,32.6708738 44.6672288,32.7459621 44.5357426,32.7459621 L42.4155389,32.7459621 C42.2840527,32.7459621 42.2018751,32.6708738 42.1690036,32.5206948 L41.9717753,31.1190315 C41.6430599,30.9855391 41.3472205,30.8103329 41.0842481,30.5934077 L39.7776109,31.1190315 C39.629689,31.1690911 39.5228581,31.1357185 39.457115,31.0189127 L38.3970131,29.1667147 C38.3312701,29.0332223 38.3477056,28.9164182 38.4463202,28.8162989 L39.5557291,27.9402593 C39.5392934,27.7733938 39.5310756,27.5981876 39.5310756,27.4146355 C39.5310756,27.2310835 39.5392934,27.0558773 39.5557291,26.8890118 L38.4463202,26.0129722 C38.3477056,25.9128529 38.3312701,25.7960488 38.3970131,25.6625563 L39.457115,23.8103584 C39.5228581,23.6935525 39.629689,23.6601799 39.7776109,23.7102396 L41.0842481,24.2358633 C41.3472205,24.0189381 41.6430599,23.843732 41.9717753,23.7102396 L42.1690036,22.3085762 C42.2018751,22.1583973 42.2840527,22.0833089 42.4155389,22.0833089 L44.5357426,22.0833089 C44.6672288,22.0833089 44.7494064,22.1583973 44.782278,22.3085762 L44.9795062,23.7102396 C45.3082216,23.843732 45.604061,24.0189381 45.8670334,24.2358633 L47.1736706,23.7102396 C47.3215925,23.6601799 47.4284234,23.6935525 47.4941665,23.8103584 L48.5542684,25.6625563 C48.6200115,25.7960488 48.6035759,25.9128529 48.5049613,26.0129722 L47.3955524,26.8890118 C47.4119881,27.0558773 47.4202059,27.2310835 47.4202059,27.4146355 C47.4202059,27.5981876 47.4119881,27.7733938 47.3955524,27.9402593 Z" id="-copy" transform="translate(43.475641, 27.414636) rotate(-31.000000) translate(-43.475641, -27.414636) "></path>
            <path d="M43.23,14.2394366 C44.2689261,14.2064748 45.1292739,13.8439002 45.8110692,13.1517019 C46.4928645,12.4595036 46.833757,11.5860284 46.833757,10.53125 C46.833757,9.47647164 46.4928645,8.60299642 45.8110692,7.91079812 C45.1292739,7.21859983 44.2689261,6.87250587 43.23,6.87250587 C42.1910739,6.87250587 41.3307261,7.21859983 40.6489308,7.91079812 C39.9671355,8.60299642 39.626243,9.47647164 39.626243,10.53125 C39.626243,11.5860284 39.9671355,12.4595036 40.6489308,13.1517019 C41.3307261,13.8439002 42.1910739,14.2064748 43.23,14.2394366 Z M50.9732077,11.5695423 L53.1646815,13.3000293 C53.3594802,13.4978003 53.3919461,13.7285296 53.2620804,13.9922242 L51.1680053,17.6509683 C51.0381396,17.8817011 50.8271109,17.9476237 50.5349129,17.8487383 L47.9538437,16.810446 C47.4343806,17.2389497 46.8499934,17.5850437 46.2006646,17.8487383 L45.8110692,20.6175176 C45.7461363,20.914174 45.5838066,21.0625 45.324075,21.0625 L41.135925,21.0625 C40.8761934,21.0625 40.7138637,20.914174 40.6489308,20.6175176 L40.2593354,17.8487383 C39.6100066,17.5850437 39.0256194,17.2389497 38.5061563,16.810446 L35.9250871,17.8487383 C35.6328891,17.9476237 35.4218604,17.8817011 35.2919947,17.6509683 L33.1979196,13.9922242 C33.0680539,13.7285296 33.1005198,13.4978003 33.2953185,13.3000293 L35.4867923,11.5695423 C35.4543259,11.239924 35.4380929,10.8938301 35.4380929,10.53125 C35.4380929,10.1686699 35.4543259,9.82257598 35.4867923,9.49295775 L33.2953185,7.76247066 C33.1005198,7.56469972 33.0680539,7.33397041 33.1979196,7.07027582 L35.2919947,3.41153169 C35.4218604,3.18079892 35.6328891,3.11487627 35.9250871,3.21376174 L38.5061563,4.25205399 C39.0256194,3.82355028 39.6100066,3.47745633 40.2593354,3.21376174 L40.6489308,0.444982394 C40.7138637,0.148325982 40.8761934,0 41.135925,0 L45.324075,0 C45.5838066,0 45.7461363,0.148325982 45.8110692,0.444982394 L46.2006646,3.21376174 C46.8499934,3.47745633 47.4343806,3.82355028 47.9538437,4.25205399 L50.5349129,3.21376174 C50.8271109,3.11487627 51.0381396,3.18079892 51.1680053,3.41153169 L53.2620804,7.07027582 C53.3919461,7.33397041 53.3594802,7.56469972 53.1646815,7.76247066 L50.9732077,9.49295775 C51.0056741,9.82257598 51.0219071,10.1686699 51.0219071,10.53125 C51.0219071,10.8938301 51.0056741,11.239924 50.9732077,11.5695423 Z" id="-copy-2"></path>
        </g>
    </g>
</svg>