<?xml version="1.0" encoding="UTF-8"?>
<svg width="34px" height="34px" viewBox="0 0 34 34" version="1.1" xmlns="http://www.w3.org/2000/svg" xmlns:xlink="http://www.w3.org/1999/xlink">
    <!-- Generator: Sketch 44.1 (41455) - http://www.bohemiancoding.com/sketch -->
    <title>prints-container-placeholder</title>
    <desc>Created with Sketch.</desc>
    <defs></defs>
    <g id="Workflow" stroke="none" stroke-width="1" fill="none" fill-rule="evenodd">
        <g id="prints-container-placeholder" fill="#979797">
            <polygon id="Path" points="0 13 0 21 1 21 1 13"></polygon>
            <polygon id="Path" points="33 13 33 21 34 21 34 13"></polygon>
            <polygon id="Path" points="21 33 13 33 13 34 21 34"></polygon>
            <polygon id="Path" points="21 0 13 0 13 1 21 1"></polygon>
            <path d="M5,33.048142 L2.66423593,33.048142 C1.78376826,33.048142 1.06697275,32.4062532 1.06697275,31.6181796 L1.06697275,29 L0,29 L0,31.6181796 C0,32.9311441 1.1935885,34 2.66423593,34 L5,34 L5,33.048142 Z" id="Path"></path>
            <path d="M34,33.048142 L31.6642359,33.048142 C30.7837683,33.048142 30.0669728,32.4062532 30.0669728,31.6181796 L30.0669728,29 L29,29 L29,31.6181796 C29,32.9311441 30.1935885,34 31.6642359,34 L34,34 L34,33.048142 Z" id="Path" transform="translate(31.500000, 31.500000) scale(-1, 1) translate(-31.500000, -31.500000) "></path>
            <path d="M34,4.04814198 L31.6642359,4.04814198 C30.7837683,4.04814198 30.0669728,3.40625316 30.0669728,2.61817965 L30.0669728,0 L29,0 L29,2.61817965 C29,3.93114409 30.1935885,5 31.6642359,5 L34,5 L34,4.04814198 Z" id="Path" transform="translate(31.500000, 2.500000) scale(-1, 1) rotate(-270.000000) translate(-31.500000, -2.500000) "></path>
            <path d="M5,4.04814198 L2.66423593,4.04814198 C1.78376826,4.04814198 1.06697275,3.40625316 1.06697275,2.61817965 L1.06697275,0 L0,0 L0,2.61817965 C0,3.93114409 1.1935885,5 2.66423593,5 L5,5 L5,4.04814198 Z" id="Path" transform="translate(2.500000, 2.500000) rotate(90.000000) translate(-2.500000, -2.500000) "></path>
        </g>
    </g>
</svg>