<?xml version="1.0" standalone="no"?>
<!DOCTYPE svg PUBLIC "-//W3C//DTD SVG 1.1//EN" "http://www.w3.org/Graphics/SVG/1.1/DTD/svg11.dtd" >
<svg>
<metadata>
Created by FontForge 20120731 at Tue Jun 14 13:45:28 2016
 By ,,,
Copyright (c) , 2007. Alejandro Paul. All rights reserved.
</metadata>
<defs>
<font id="BurguesScript" horiz-adv-x="466" >
  <font-face 
    font-family="Burgues Script"
    font-weight="400"
    font-stretch="normal"
    units-per-em="1000"
    panose-1="2 0 5 7 0 0 0 2 0 4"
    ascent="670"
    descent="-330"
    x-height="289"
    cap-height="737"
    bbox="-5108 -1161 4397 1643"
    underline-thickness="50"
    underline-position="-50"
    unicode-range="U+0020-FB02"
  />
<missing-glyph horiz-adv-x="174" 
 />
    <glyph glyph-name="th" unicode="th" horiz-adv-x="682" 
d="M891 678q39 0 39 -34q0 -29 -29 -70.5t-76 -81.5t-118 -68t-144 -28q-27 0 -40 2q-152 -157 -237 -274q-1 -2 -3.5 -5t-4.5 -5.5t-4 -4.5q265 176 323 176q25 0 25 -23q0 -33 -35.5 -76t-78 -77t-78 -66t-35.5 -44q0 -16 15 -16q8 0 19.5 4t28.5 13.5t33 18.5t42.5 26
t45 29.5t53 35.5l55.5 37l4 -8q-21 -14 -55 -36.5t-53 -35.5t-46.5 -30.5t-44.5 -27.5t-36.5 -19.5t-33.5 -14t-25 -4.5q-16 0 -26.5 12.5t-10.5 35.5q0 29 59 86t118 106t59 60q0 3 -5 3q-62 0 -343 -194q-43 -41 -92.5 -69.5t-90.5 -28.5q-11 0 -11 3q0 2 4 5
q52 40 119 104q-72 -51 -113 -75q-60 -36 -98 -36q-34 0 -34 33q0 27 26 70.5t52 69.5q51 50 104 98t130.5 114.5t93.5 80.5q-62 21 -98.5 32t-94.5 22t-110 11q-112 0 -225 -46l-9 10q111 46 230 46q55 0 115.5 -10.5t100.5 -22t102 -32.5q50 43 89 83l100 5l3 -6
q-53 -39 -129 -102q12 -4 56 -16q20 -6 41 -9q132 124 228 194t154 70zM37 113q-79 -70 -79 -102q0 -16 18 -16q33 0 85 33q24 15 80 52.5t78 52.5q39 37 132.5 129t144.5 140q-20 4 -30 7q-22 5 -66 19q-145 -122 -363 -315zM537 412h16q58 0 113 20t94.5 50t70 63.5t46 62
t15.5 44.5q0 12 -10 12q-97 0 -345 -252z" />
    <glyph glyph-name="tk" unicode="tk" horiz-adv-x="665" 
d="M891 678q39 0 39 -34q0 -29 -29 -70.5t-76 -81.5t-118 -68t-144 -28q-27 0 -40 2q-115 -120 -204 -231q51 32 105.5 63t137.5 64.5t134 33.5q26 0 39.5 -11.5t13.5 -27.5q0 -12 -8.5 -21.5t-21.5 -9.5q-24 0 -24 21q0 10 8 18.5t22 10.5q0 13 -27 13q-62 0 -160 -43
q22 -8 22 -27q0 -22 -29.5 -62t-64.5 -75.5t-64.5 -70.5t-29.5 -48q0 -11 15 -11q21 0 53 16q41 21 207 132l23 15l4 -8l-64.5 -43t-64 -42.5t-52 -33t-48.5 -28.5q-36 -19 -72 -19q-45 0 -45 41q0 22 32 62.5t70.5 77.5t70.5 71t32 44q0 3 -3 5q-98 -44 -229 -130l-15 -20
q-36 -50 -102.5 -96t-118.5 -46q-11 0 -11 3q0 2 4 5q52 40 119 104q-72 -51 -113 -75q-60 -36 -98 -36q-34 0 -34 33q0 27 26 70.5t52 69.5q51 50 104 98t130.5 114.5t93.5 80.5q-62 21 -98.5 32t-94.5 22t-110 11q-112 0 -225 -46l-9 10q111 46 230 46q55 0 115.5 -10.5
t100.5 -22t102 -32.5q50 43 89 83l100 5l3 -6q-53 -39 -129 -102q12 -4 56 -16q20 -6 41 -9q132 124 228 194t154 70zM37 113q-79 -70 -79 -102q0 -16 18 -16q33 0 85 33q24 15 80 52.5t78 52.5q39 37 132.5 129t144.5 140q-20 4 -30 7q-22 5 -66 19q-145 -122 -363 -315z
M537 412h16q58 0 113 20t94.5 50t70 63.5t46 62t15.5 44.5q0 12 -10 12q-97 0 -345 -252z" />
    <glyph glyph-name="tl" unicode="tl" horiz-adv-x="477" 
d="M438 542l100 5l3 -6q-53 -39 -129 -102q12 -4 56 -16q23 -7 49 -10q92 96 197.5 180.5t152.5 84.5q42 0 42 -38q0 -30 -26.5 -71t-70.5 -80t-111 -66t-138 -27q-19 0 -28 1q-62 -83 -122 -151t-99.5 -104.5t-71 -63.5t-46 -42.5t-14.5 -26.5q0 -13 26 -13q40 0 99 35
q13 7 39.5 25t35.5 24l105 70l4 -8l-103 -69q-42 -29 -78 -51q-60 -36 -100 -36q-22 0 -34.5 10.5t-12.5 27.5q0 36 42 88q-111 -75 -141 -93q-60 -36 -98 -36q-34 0 -34 33q0 27 26 70.5t52 69.5q51 50 104 98t130.5 114.5t93.5 80.5q-62 21 -98.5 32t-94.5 22t-110 11
q-112 0 -225 -46l-9 10q111 46 230 46q55 0 115.5 -10.5t100.5 -22t102 -32.5q50 43 89 83zM37 113q-79 -70 -79 -102q0 -16 18 -16q33 0 85 33q19 12 45 29.5t61.5 41t59.5 39.5q39 42 139.5 131.5t138.5 130.5q-19 3 -39 9q-22 5 -66 19q-145 -122 -363 -315zM860 664
q-33 0 -119 -64.5t-168 -150.5l-27 -37h6q69 0 132 30t101.5 71t61 79.5t22.5 59.5q0 12 -9 12z" />
    <glyph glyph-name="tt" unicode="tt" 
d="M670 542l100 5l3 -6q-46 -34 -136 -108q102 -22 160 -22q125 0 232 99l22 -27q-113 -89 -238 -89q-74 0 -189 28q-129 -108 -355 -309q-79 -70 -79 -102q0 -16 18 -16q33 0 85 33q26 17 90 59.5t90 59.5l4 -8q-24 -16 -87.5 -59t-93.5 -61q-60 -36 -98 -36q-34 0 -34 33
q0 37 44 98q-130 -87 -144 -95q-60 -36 -98 -36q-34 0 -34 33q0 27 26 70.5t52 69.5q76 75 215 195.5t150 130.5q-145 31 -256 31q-138 0 -247 -45l-9 10q111 46 255 46q114 0 267 -32q29 25 53 50l100 5l3 -6q-1 0 -84 -65q17 -4 55.5 -13.5t57.5 -13.5q52 45 100 93z
M37 113q-79 -70 -79 -102q0 -16 18 -16q33 0 85 33q17 11 163 108q6 8 18 20q38 37 84 79t76.5 69t83.5 72.5t71 61.5q-8 2 -48.5 12.5t-62.5 15.5q-148 -120 -409 -353z" />
    <glyph glyph-name="tth" unicode="tth" horiz-adv-x="909" 
d="M1118 678q39 0 39 -34q0 -29 -29 -70.5t-76 -81.5t-118 -68t-144 -28q-14 0 -40 2q-152 -157 -237 -274q-1 -2 -3.5 -5t-4.5 -5.5t-4 -4.5q265 176 323 176q25 0 25 -23q0 -33 -35.5 -76t-78 -77t-78 -66t-35.5 -44q0 -16 15 -16q8 0 19.5 4t28.5 13.5t33 18.5t42.5 26
t45 29.5t53 35.5l55.5 37l4 -8q-21 -14 -54.5 -36.5t-53 -35.5t-47 -30.5t-44.5 -27.5t-36.5 -19.5t-33.5 -14t-25 -4.5q-16 0 -26.5 12.5t-10.5 35.5q0 29 59 86t118 106t59 60q0 3 -5 3q-62 0 -343 -194q-43 -41 -92.5 -69.5t-90.5 -28.5q-11 0 -11 3q0 2 4 5
q52 40 119 104q-72 -51 -113 -75q-60 -36 -98 -36q-34 0 -34 33q0 37 44 98q-130 -87 -144 -95q-60 -36 -98 -36q-34 0 -34 33q0 27 26 70.5t52 69.5q76 75 217 198t148 129q-134 31 -241 31q-129 0 -242 -46l-9 10q117 48 252 48q111 0 252 -33l51 49l100 5l3 -6
q-37 -26 -83 -65q20 -5 57 -15t53 -14q53 46 102 95l100 5l3 -6q-49 -37 -138 -110q60 -13 106 -17q133 125 228.5 194.5t153.5 69.5zM237 156q37 37 82.5 78.5t77 69t82 70.5t71.5 62l-110 30q-81 -66 -408 -353q-79 -70 -79 -102q0 -16 18 -16q33 0 85 33q17 11 163 108
q6 8 18 20zM264 113q-79 -70 -79 -102q0 -16 18 -16q33 0 85 33q24 15 80 52.5t78 52.5q17 16 119 115.5t157 151.5q-61 9 -105 20q-128 -108 -353 -307zM764 412h16q58 0 113 20t94.5 50t70 63.5t46 62t15.5 44.5q0 12 -10 12q-97 0 -345 -252z" />
    <glyph glyph-name="ttl" unicode="ttl" horiz-adv-x="709" 
d="M670 542l100 5l3 -6q-64 -47 -138 -110q60 -13 114 -18q92 96 197.5 180.5t152.5 84.5q42 0 42 -38q0 -23 -16.5 -54.5t-48.5 -64.5t-73 -61t-96.5 -46t-112.5 -18q-18 0 -27 1q-62 -83 -122 -151t-99.5 -104.5t-71 -63.5t-46 -42.5t-14.5 -26.5q0 -13 26 -13q40 0 99 35
q13 7 39.5 25t35.5 24l105 70l4 -8l-103 -69q-42 -29 -78 -51q-60 -36 -100 -36q-22 0 -34.5 10.5t-12.5 27.5q0 36 42 88q-111 -75 -141 -93q-60 -36 -98 -36q-34 0 -34 33q0 37 44 98q-130 -87 -144 -95q-60 -36 -98 -36q-34 0 -34 33q0 27 26 70.5t52 69.5
q75 75 214.5 196t147.5 128q-150 31 -253 31q-132 0 -247 -43l-9 10q116 45 254 45q110 0 266 -33q30 27 55 52l100 5l3 -6q-51 -39 -86 -67q22 -5 62.5 -15.5t48.5 -12.5q62 54 104 96zM37 113q-79 -70 -79 -102q0 -16 18 -16q33 0 85 33q17 11 163 108q6 8 18 20
q37 37 82.5 78.5t76 68t82 71t71.5 61.5l-112 29q-105 -85 -405 -351zM269 113q-79 -70 -79 -102q0 -16 18 -16q33 0 85 33q19 12 45 29.5t61.5 41t59.5 39.5q39 42 139.5 131.5t137.5 129.5q-50 5 -115 20q-148 -123 -352 -306zM1092 664q-33 0 -119 -64.5t-168 -150.5
l-27 -37h6q69 0 132 30t101.5 71t61 79.5t22.5 59.5q0 12 -9 12z" />
    <glyph glyph-name=".notdef" horiz-adv-x="174" 
 />
    <glyph glyph-name=".null" horiz-adv-x="0" 
 />
    <glyph glyph-name="nonmarkingreturn" horiz-adv-x="333" 
 />
    <glyph glyph-name="space" unicode=" " horiz-adv-x="174" 
 />
    <glyph glyph-name="exclam" unicode="!" horiz-adv-x="355" 
d="M36 -15q-41 0 -41 36q0 27 23.5 52.5t54.5 25.5q41 0 41 -36q0 -27 -23.5 -52.5t-54.5 -25.5zM129 157l354 387l135 3l3 -6l-482 -386z" />
    <glyph glyph-name="quotedbl" unicode="&#x22;" horiz-adv-x="422" 
d="M483 547l3 -6l-190 -127l-12 1l95 141zM621 547l3 -6l-190 -127l-12 1l95 141z" />
    <glyph glyph-name="numbersign" unicode="#" horiz-adv-x="531" 
d="M56 111v7l10.5 10.5t8 7.5l5 4t4.5 2.5t5 0.5l109 -5l37 48q-90 -1 -135 -6v7l10.5 10.5t8 7.5l5 4t4.5 2.5t5 0.5l120 -5q15 18 42.5 47.5t42.5 48.5l5 -2l7 -25l-69 -70h92q10 12 40 44t46 53l5 -2l7 -25l-69 -70q61 2 105 6l1 -5l-29 -25q-11 0 -31 1t-36 1.5t-30 0.5
l-41 -48q71 2 122 6l1 -5l-29 -25q-57 3 -111 3q-14 -18 -87 -119l-6 4l-9 15q0 7 5 12q37 41 75 89h-99q-7 -8 -87 -120l-6 4l-9 15q0 7 5 12q31 35 75 88q-94 -2 -125 -5zM261 186l-41 -49h98q8 9 20.5 26t17.5 23h-95z" />
    <glyph glyph-name="dollar" unicode="$" horiz-adv-x="691" 
d="M-89 -303l-7 7q66 47 267 216q-85 22 -129.5 64.5t-44.5 91.5q0 72 68 116.5t152 44.5q65 0 108.5 -30.5t43.5 -88.5q0 -17 -5 -35l177 151q-7 37 -7 62q0 90 78 143t171 53q28 0 52 -3q33 29 91.5 79t74.5 64h4q-1 -3 -1 -8l3 -13q-40 -24 -160 -125q59 -10 88 -38.5
t29 -62.5q0 -28 -17 -47.5t-43 -19.5q-24 0 -24 21q0 19 20 39.5t49 24.5q-16 60 -111 75q-116 -99 -282 -252q2 -11 7.5 -32.5t8.5 -34t5.5 -30.5t2.5 -33q0 -58 -21 -97.5t-59.5 -59.5t-80 -28t-94.5 -8q-56 0 -107 8q-182 -176 -196 -193q-13 -15 -26 -15q-37 0 -85 -6z
M251 43l-5 8q27 3 64.5 34.5t37.5 58.5q0 40 -39.5 62.5t-96.5 22.5q-79 0 -141 -40.5t-62 -112.5q0 -49 45 -91t127 -57l136 115h-66zM263 -79q91 0 188.5 78t97.5 165q0 24 -5 52q-246 -229 -314 -294q6 0 17 -0.5t16 -0.5zM778 483q-86 0 -158.5 -52t-72.5 -131
q0 -26 5 -56l273 236q-24 3 -47 3z" />
    <glyph glyph-name="percent" unicode="%" horiz-adv-x="542" 
d="M-10 -93l-4 4q77 55 275.5 219t385.5 326l6 -2v-5l1 -9q-81 -71 -224.5 -189t-235.5 -198.5t-135 -131.5q-7 -10 -17 -10q-32 0 -52 -4zM111 122q-43 0 -43 35q0 36 40.5 88.5t106 93.5t125.5 41q36 0 36 -32q0 -27 -21 -64.5t-55 -74t-85 -62t-104 -25.5zM108 132
q47 0 107 49t99 104t39 78q0 7 -11 7q-42 0 -103.5 -44.5t-105 -97.5t-43.5 -80q0 -16 18 -16zM320 -32q-43 0 -43 35q0 36 40.5 88t106 93.5t125.5 41.5q36 0 36 -32q0 -27 -21 -64.5t-55 -74t-85 -62t-104 -25.5zM317 -22q47 0 107 49t99 104t39 78q0 7 -11 7
q-42 0 -103.5 -44.5t-105 -97.5t-43.5 -80q0 -16 18 -16z" />
    <glyph glyph-name="ampersand" unicode="&#x26;" horiz-adv-x="631" 
d="M371 44l-13 -15q-21 4 -57 14q-25 -26 -68 -74t-66.5 -72.5t-55 -53.5t-57 -41.5t-49.5 -12.5q-23 0 -23 22q0 57 59.5 121.5t167.5 144.5q-128 60 -128 158q0 83 86 172.5t208 146.5t225 57q126 0 126 -63q0 -88 -252 -293q-62 -50 -203 -191q17 -6 29 -8
q54 58 102.5 100.5t111 84t133.5 64t145 22.5l-10 -19q-71 0 -138.5 -20.5t-127.5 -60t-106.5 -79.5t-98.5 -95q27 -6 60 -9zM481 275q228 182 228 269q0 51 -99 51q-70 0 -180 -65t-196.5 -162t-86.5 -175q0 -70 73 -108q21 15 118 84.5t143 105.5zM290 46l-28 9l-22 -22
q-45 -46 -110 -99t-100 -83t-35 -44q0 -12 14 -12q21 0 44.5 12.5t53.5 40.5t53 52.5t64 71.5t66 74z" />
    <glyph glyph-name="quotesingle" unicode="'" horiz-adv-x="292" 
d="M483 547l3 -6l-190 -127l-12 1l95 141z" />
    <glyph glyph-name="parenleft" unicode="(" horiz-adv-x="274" 
d="M753 696l8 -13q-125 -11 -252.5 -65t-230 -135t-167 -191t-64.5 -224q0 -93 44 -182l-9 -12q-65 84 -65 212q0 78 25.5 157t83 157t141 140t209 104.5t277.5 51.5z" />
    <glyph glyph-name="parenright" unicode=")" horiz-adv-x="370" 
d="M-322 -126l-8 13q143 18 272.5 74t224 137.5t150.5 189t56 222.5q0 86 -33 174l9 12q66 -83 66 -208q0 -75 -25.5 -151t-83 -152t-141 -138t-209.5 -108.5t-278 -64.5z" />
    <glyph glyph-name="asterisk" unicode="*" horiz-adv-x="334" 
d="M182 480l66 -10q-23 -16 -58 -85q72 33 87 55l14 -62q-8 4 -27 4q-27 0 -72 -9q60 -35 86 -36q-16 -13 -29 -25t-18 -18l-5 -6q-3 28 -44 76q-8 -37 -8 -65q0 -21 5 -29q-28 10 -58 10h-8q24 16 57 85q-72 -33 -87 -55q0 14 -3.5 30t-6.5 24l-3 9q9 -5 29 -5q30 0 68 9
q-56 34 -84 34q24 19 52 51q0 -24 42 -76q9 40 9 69q0 17 -4 25z" />
    <glyph glyph-name="plus" unicode="+" horiz-adv-x="486" 
d="M128 -3l-6 4l-9 35q0 7 5 12q21 23 56 60t41 43q-60 -1 -174 -11v7l22 29q2 5 11 5q35 -2 87.5 -5.5t72.5 -4.5q18 20 26 30q21 25 50 67t40 57l5 -2l7 -47q-15 -16 -50.5 -51t-51.5 -54h15q42 0 162 10l1 -5l-32 -35q-23 1 -77.5 5.5t-80.5 4.5h-5q-43 -51 -115 -154z
" />
    <glyph glyph-name="comma" unicode="," horiz-adv-x="263" 
d="M155 89l3 -6q-198 -144 -199 -144l-22 1l98 144z" />
    <glyph glyph-name="hyphen" unicode="-" horiz-adv-x="486" 
d="M41 140v7l22 29q2 5 11 5q109 -5 211 -5q92 0 152 5l1 -5l-32 -35q-81 4 -161 4q-153 0 -204 -5z" />
    <glyph glyph-name="period" unicode="." horiz-adv-x="243" 
d="M36 -15q-41 0 -41 36q0 27 23.5 52.5t54.5 25.5q41 0 41 -36q0 -27 -23.5 -52.5t-54.5 -25.5z" />
    <glyph glyph-name="slash" unicode="/" horiz-adv-x="296" 
d="M-390 -303l-7 7q33 24 87 67t138 113.5t151 127t185.5 158.5t177.5 153t191.5 165t166.5 144h4q-1 -3 -1 -8l3 -13q-106 -93 -363 -310t-417.5 -360.5t-225.5 -222.5q-13 -15 -26 -15q-16 0 -64 -6z" />
    <glyph glyph-name="zero" unicode="0" horiz-adv-x="396" 
d="M15 -22q-67 0 -67 52q0 40 39.5 98.5t98.5 112.5t135 92.5t141 38.5q58 0 58 -55q0 -32 -21 -76.5t-60 -90t-88 -84.5t-111.5 -63.5t-124.5 -24.5zM12 -13q68 0 138 44t118.5 103.5t79.5 117.5t31 89q0 21 -16 21q-61 0 -152.5 -72t-156.5 -157t-65 -125q0 -21 23 -21z
" />
    <glyph glyph-name="one" unicode="1" horiz-adv-x="274" 
d="M-116 -28l-15 8q70 33 129.5 76.5t104.5 88t89 89t104.5 93.5t128.5 88l3 -8q-82 -54 -149.5 -121.5t-106 -119t-79 -98t-91 -71.5t-118.5 -25z" />
    <glyph glyph-name="two" unicode="2" horiz-adv-x="429" 
d="M131 242q-38 0 -38 23q0 43 81 86.5t154 43.5q47 0 70.5 -19t23.5 -52q0 -80 -110.5 -182t-264.5 -138q76 -24 118 -24q68 0 147 33t124 89l6 -6q-47 -57 -129.5 -91.5t-150.5 -34.5q-16 0 -35 3.5t-30.5 6.5t-35 10.5t-31.5 9.5q-57 -11 -111 -11q-59 0 -59 17
q0 5 8.5 10t27.5 8t46 3q28 0 67 -12q122 41 244 154t122 177q0 38 -54 38q-63 0 -140 -39t-77 -75q0 -15 23 -15q48 0 107 32.5t89 68.5l6 -5q-33 -60 -81.5 -84.5t-116.5 -24.5zM-75 0q29 0 67 10q-32 7 -56 7q-15 0 -28.5 -1.5t-21.5 -4.5t-8 -5q0 -6 47 -6z" />
    <glyph glyph-name="three" unicode="3" horiz-adv-x="427" 
d="M405 397q61 0 61 -45q0 -35 -36.5 -74t-92.5 -57q20 -23 20 -59q0 -33 -18.5 -65.5t-56.5 -62.5t-106.5 -48.5t-157.5 -18.5q-51 0 -74.5 16.5t-23.5 42.5q0 28 24.5 53t55.5 25q36 0 36 -25q0 -21 -24.5 -40t-60.5 -19q-15 0 -15 -7q0 -21 23 -29.5t47 -8.5q72 0 148 43
t122 97.5t46 90.5q0 3 -2 11q-24 -6 -50 -6q-31 0 -31 15q0 8 12 14.5t31 6.5q26 0 45 -16q55 15 89.5 53t34.5 71q0 26 -24 32q-16 -28 -52.5 -45.5t-70.5 -17.5q-33 0 -33 16q0 18 40 37.5t94 19.5zM286 343q0 -9 22 -9q27 0 59.5 14t48.5 41q-33 0 -64 -8.5t-48.5 -19
t-17.5 -18.5zM279 239q-26 0 -26 -11q0 -5 15 -5q27 0 46 4q-10 12 -35 12z" />
    <glyph glyph-name="four" unicode="4" horiz-adv-x="560" 
d="M154 -20q115 54 216 148q-29 2 -60.5 4.5t-65 6t-48.5 4.5q-125 -65 -211 -65q-26 0 -26 14q0 12 19.5 26t65.5 25t106 11h7q75 49 147.5 120.5t111.5 123.5q84 5 91 9l6 -9q-56 -70 -136.5 -135.5t-164.5 -111.5q22 -1 79 -6t90 -7q22 21 68.5 67t76 74t80 66.5
t104.5 69.5l3 -8q-50 -33 -92.5 -67.5t-79.5 -75.5t-55 -62.5t-53 -66.5h33q168 0 258 59l14 -19q-85 -51 -257 -51q-38 0 -57 1q-31 -39 -52.5 -62.5t-52.5 -46.5t-67.5 -33.5t-82.5 -10.5zM-13 91q68 0 155 54q-54 0 -93 -10t-54 -20.5t-15 -18.5q0 -5 7 -5z" />
    <glyph glyph-name="five" unicode="5" horiz-adv-x="432" 
d="M295 283q16 0 30 -8q32 26 51 49q-15 4 -24 16.5t-9 26.5q0 19 18 23q45 -17 100 -17q113 0 257 71l4 -4q-147 -119 -296 -119q-27 0 -41 2q-25 -31 -51 -53q33 -24 33 -78q0 -37 -19 -74.5t-58 -72.5t-109 -56.5t-160 -21.5q-51 0 -74.5 16.5t-23.5 42.5q0 28 24.5 53
t55.5 25q36 0 36 -25q0 -21 -24.5 -40t-60.5 -19q-15 0 -15 -7q0 -21 23 -29.5t47 -8.5q55 0 115.5 30t105.5 72t74.5 87t29.5 75q0 16 -9 25q-48 -37 -91 -37q-25 0 -25 13q0 14 25 28.5t61 14.5zM292 275q-28 0 -50 -11t-22 -20q0 -7 13 -7q40 0 84 32q-9 6 -25 6z" />
    <glyph glyph-name="six" unicode="6" horiz-adv-x="387" 
d="M589 534l2 -7q-79 -34 -181.5 -109t-185.5 -155t-140.5 -153t-57.5 -104q0 -45 48 -45q64 0 151 61.5t87 111.5q0 15 -15 15q-28 0 -85.5 -45t-105.5 -108l-5 -1q24 74 85.5 122t107.5 48q32 0 32 -25q0 -55 -88 -122t-161 -67q-83 0 -83 101q0 55 49.5 120t122.5 121
t158 107.5t153.5 85t111.5 48.5z" />
    <glyph glyph-name="seven" unicode="7" horiz-adv-x="356" 
d="M525 455l15 -28q-49 -18 -100 -61q-127 -106 -261.5 -258t-214.5 -268q-52 -10 -80 -19l-1 12q64 119 533 527q-57 -24 -148.5 -30.5t-150.5 -37.5q-54 -43 -79 -50l-1 8q7 4 41 52.5t42 66.5q5 14 37 14q20 0 20 -12q0 -21 -27 -50q48 19 131.5 22t155.5 36z" />
    <glyph glyph-name="eight" unicode="8" horiz-adv-x="369" 
d="M979 224l-3 -9q-5 5 -14 13t-41.5 29t-71 37t-102.5 29t-134 13q-7 0 -22 -0.5t-23 -0.5q-21 -53 -88 -53q-38 0 -38 38q-99 -20 -189 -60q-5 -158 -71 -229t-222 -71q-28 0 -28 25q0 47 83.5 131t213.5 145q0 3 2 11q10 88 77.5 138t145.5 50q52 0 86.5 -24t34.5 -68
q0 -12 -3 -23q6 0 18 0.5t19 0.5q73 0 137.5 -12.5t105 -30.5t71 -36t43.5 -31zM556 380q0 34 -29 52t-73 18q-74 0 -137 -43.5t-63 -118.5v-15q92 39 189 57q6 19 34 31.5t53 15.5zM-55 -16q0 -13 12 -13q30 0 87 44.5t111 111t70 120.5q-123 -61 -201.5 -143t-78.5 -120z
" />
    <glyph glyph-name="nine" unicode="9" horiz-adv-x="505" 
d="M523 374q74 0 101 9l10 -11q-27 -28 -87.5 -92.5t-93 -98.5t-92.5 -91.5t-103 -91t-107 -77t-121 -68.5t-128 -47t-145 -31l4 10q56 6 114.5 26t106.5 45t104 66t94.5 73t90 83.5t79 80.5t73.5 79q-73 -58 -126.5 -96t-132 -77.5t-131.5 -39.5q-47 0 -47 42q0 29 23 67.5
t70 80.5t109 77.5t150.5 58.5t184.5 23zM468 287l65 71q-2 4 -13 4q-65 0 -156.5 -40t-167.5 -93t-130 -105t-54 -75q0 -14 20 -14q41 0 95.5 23t120.5 67.5t104 72.5t96 74q4 3 10.5 8t9.5 7z" />
    <glyph glyph-name="colon" unicode=":" horiz-adv-x="270" 
d="M36 -15q-41 0 -41 36q0 27 23.5 52.5t54.5 25.5q41 0 41 -36q0 -27 -23.5 -52.5t-54.5 -25.5zM150 177q-41 0 -41 36q0 27 23.5 52.5t54.5 25.5q41 0 41 -36q0 -27 -23.5 -52.5t-54.5 -25.5z" />
    <glyph glyph-name="semicolon" unicode=";" horiz-adv-x="287" 
d="M155 89l3 -6q-198 -144 -199 -144l-22 1l98 144zM170 177q-41 0 -41 36q0 27 23.5 52.5t54.5 25.5q41 0 41 -36q0 -27 -23.5 -52.5t-54.5 -25.5z" />
    <glyph glyph-name="less" unicode="&#x3c;" horiz-adv-x="405" 
d="M357 228q-3 0 -63 -20.5t-134.5 -46.5t-95.5 -33q25 -14 79 -34t95.5 -33t47.5 -14l-3 -4q-37 -7 -48 -26l-192 108l6 8l262 120q2 -8 13 -13t20 -6l10 -1z" />
    <glyph glyph-name="equal" unicode="=" horiz-adv-x="484" 
d="M41 111v7l10.5 10.5t8 7.5l5 4t4.5 2.5t5 0.5q130 -6 201 -6q90 0 162 6l1 -5l-32 -26q-102 5 -158 5q-145 0 -207 -6zM85 180v7l10.5 10.5t8 7.5l5 4t4.5 2.5t5 0.5q131 -6 201 -6q90 0 162 6l1 -5l-32 -26q-102 5 -158 5q-146 0 -207 -6z" />
    <glyph glyph-name="greater" unicode="&#x3e;" horiz-adv-x="405" 
d="M43 42q3 0 63 20.5t134.5 46.5t95.5 33q-25 14 -79 34t-95.5 33t-47.5 14l3 4q37 7 48 26l192 -108l-6 -8l-262 -120q-2 8 -13 13t-20 6l-10 1z" />
    <glyph glyph-name="question" unicode="?" horiz-adv-x="397" 
d="M36 -15q-41 0 -41 36q0 27 23.5 52.5t54.5 25.5q41 0 41 -36q0 -27 -23.5 -52.5t-54.5 -25.5zM148 154l-12 4q11 54 56 102t101.5 82t111.5 65.5t92.5 66t37.5 70.5q0 43 -68 43q-55 0 -129.5 -26t-130.5 -68.5t-56 -81.5q0 -23 30 -23q51 0 151.5 55t152.5 110l6 -4
q-36 -71 -132 -123.5t-167 -52.5q-54 0 -54 36q0 40 56 84.5t133 72.5t137 28q86 0 86 -61q0 -60 -28 -109.5t-70.5 -80.5t-93 -59t-95 -46t-77 -40t-38.5 -44z" />
    <glyph glyph-name="at" unicode="@" horiz-adv-x="777" 
d="M340 16q0 32 46 82l28 30q-201 -147 -273 -147q-32 0 -32 37q0 33 26.5 76.5t75 87.5t131 74t178.5 30q6 0 22.5 -0.5t26.5 -0.5q41 0 77 5l2 -3q-19 -17 -50 -47.5t-82 -81.5l-81 -81q-50 -50 -50 -71q0 -8 11 -8q22 0 76.5 29t111.5 70t101 92t44 90q0 41 -44.5 62.5
t-117.5 21.5q-67 0 -144.5 -17t-155.5 -53.5t-141.5 -85.5t-103 -119.5t-39.5 -149.5q0 -129 121 -210q122 86 274.5 128t292.5 42q133 0 199 -28t66 -72q0 -64 -118.5 -120.5t-290.5 -56.5q-272 0 -429 89q-129 -100 -173 -243l-37 9q64 139 200 240q-80 47 -120 111.5
t-40 136.5q0 81 40 151.5t105 118.5t146 83t162.5 51t156.5 16q93 0 150.5 -25.5t57.5 -74.5q0 -51 -72 -124t-160.5 -124.5t-137.5 -51.5q-36 0 -36 32zM531 -368q80 0 153.5 15.5t123.5 39.5t80 53.5t30 56.5q0 40 -62.5 65t-189.5 25q-140 0 -290 -41t-263 -124
q144 -90 418 -90zM555 270q1 1 1 3q0 4 -6 4h-39q-50 0 -117.5 -36t-121.5 -83.5t-92.5 -92.5t-38.5 -64q0 -9 11 -9q66 0 298 173z" />
    <glyph glyph-name="A" unicode="A" horiz-adv-x="1423" 
d="M185 248q0 -29 -17.5 -51t-56.5 -27q-79 -11 -79 -44q0 -54 68 -88t186 -34q140 0 322 53.5t386 166.5q59 32 175 102q-49 98 -151 160q-114 -93 -258.5 -143.5t-272.5 -50.5q-117 0 -189.5 42.5t-72.5 122.5q0 79 106.5 128t260.5 49q114 0 226.5 -30t201.5 -90
q107 102 152 233h40q-52 -137 -175 -245q96 -70 142 -171q34 21 122 74t126 76t116 67.5t122 65.5t112 51.5t117.5 44t107.5 24.5t110 11q19 0 19 -5q0 -2 -2.5 -4t-4.5 -3l-3 -1q-396 -145 -819 -583q-36 -37 -61 -76.5t-32 -60.5l-7 -21q-19 0 -52 -3.5t-39 -3.5
q-7 0 -7 2t105 98q2 36 2 53q0 65 -18 129q-92 -73 -164.5 -120t-172 -93t-217.5 -68t-260 -22q-80 0 -147 11.5t-120 35.5t-82.5 64.5t-29.5 94.5q0 62 38 97t83 35q28 0 46 -14t18 -39zM640 581q-99 0 -185.5 -20t-138.5 -56t-52 -79q0 -57 62.5 -88.5t163.5 -31.5
q125 0 264 48.5t246 141.5q-150 85 -360 85zM1219 140q0 -16 -2 -48l45 43q78 75 107 102.5t100.5 92.5t110 95.5t107.5 82.5t123.5 84t127 70t147.5 68q-118 0 -281.5 -67.5t-261.5 -131.5q-46 -30 -97 -67.5t-80 -60t-88.5 -70.5t-75.5 -61q18 -65 18 -132z" />
    <glyph glyph-name="B" unicode="B" horiz-adv-x="1624" 
d="M1040 519l-39 -9q-125 114 -284.5 168t-330.5 54q-172 0 -327.5 -49t-248.5 -129.5t-93 -167.5q0 -69 63.5 -127t158.5 -89t193 -31q115 0 220.5 20.5t185 49t173 83t155 97.5t158.5 117l6 -13q-77 -73 -143.5 -154.5t-101 -132t-81.5 -100.5t-98.5 -76.5t-139 -43
t-215.5 -16.5q-23 0 -52 -0.5t-37 -0.5l-47 1v11q86 0 154 19q188 53 371.5 171t308.5 261q-219 -165 -405.5 -235.5t-400.5 -70.5q-196 0 -325.5 84t-129.5 204q0 108 79.5 190t212 123.5t296.5 41.5q195 0 395.5 -62.5t368.5 -187.5zM1057 424l-32 23q75 89 196 158.5
t244 104.5t227 35q90 0 142.5 -28.5t52.5 -85.5q0 -69 -85.5 -144t-221.5 -110q13 -32 13 -73q0 -82 -47 -150t-121 -109t-159.5 -63t-169.5 -22q-106 0 -175 34t-69 97q0 56 59.5 109.5t144 84t159.5 30.5q66 0 106 -27.5t40 -84.5q0 -44 -22.5 -68t-49.5 -24
q-15 0 -25 8.5t-10 23.5q0 13 13 24t28.5 17.5t28.5 14t13 14.5q0 47 -35 70.5t-92 23.5q-70 0 -148 -29t-134 -80.5t-56 -107.5q0 -51 44.5 -76.5t118.5 -25.5q62 0 133 17t141 50t127 76.5t92 102.5t35 122q0 12 -1 17q-82 -18 -163 -18q-53 0 -80.5 13.5t-27.5 33.5
q0 25 42 45t95 20q101 0 143 -72q114 37 195.5 108.5t81.5 131.5q0 49 -46.5 73.5t-125.5 24.5q-105 0 -229.5 -37.5t-235 -110.5t-154.5 -161zM1428 459q-45 0 -80.5 -14.5t-35.5 -34.5q0 -17 27 -28.5t79 -11.5q72 0 139 21q-13 34 -48.5 51t-80.5 17z" />
    <glyph glyph-name="C" unicode="C" horiz-adv-x="820" 
d="M-278 218q-233 0 -361 64.5t-128 150.5q0 82 58.5 139.5t155 84.5t220.5 27q153 0 317.5 -42t306.5 -120q141 105 303 170t311 65q30 0 30 -21q0 -31 -58 -90t-155.5 -127.5t-250.5 -137.5t-318 -110q-83 -105 -83 -179q0 -78 97 -104q32 109 137.5 199t230.5 136.5
t234 46.5q73 0 73 -58q0 -82 -93 -166t-224.5 -135.5t-244.5 -51.5q-39 0 -72 3q-27 -52 -27 -99q0 -91 54 -157.5t140 -98.5t191 -32q130 0 253.5 51t206.5 148l26 -23q-99 -90 -232 -139.5t-265 -49.5q-112 0 -200.5 35t-144.5 113t-56 190q0 34 8 69q-167 30 -167 151
q0 57 37 125q-156 -27 -310 -27zM-257 640q-200 0 -336 -59t-136 -160q0 -80 113.5 -135.5t325.5 -55.5q166 0 330 29q78 132 242 256q-114 62 -256 93.5t-283 31.5zM286 -25q106 0 233 49.5t218.5 130.5t91.5 160q0 40 -38 40q-66 0 -180 -53.5t-228 -143.5t-166 -179
q27 -4 69 -4zM917 729q0 10 -12 10q-95 0 -238 -69t-278.5 -173.5t-222.5 -209.5q132 34 256 86t211 105t153 105.5t98.5 90.5t32.5 55z" />
    <glyph glyph-name="D" unicode="D" horiz-adv-x="1188" 
d="M670 -31q-74 0 -175 28q-101 -16 -209 -16q-74 0 -134.5 7.5t-96 19.5t-54.5 26t-19 28q0 20 34 33t94 13q22 0 43.5 -2t46.5 -7l40 -8t44 -12.5t39 -13t43.5 -15.5t39.5 -14q160 38 309.5 122t333.5 223q120 90 201 131q-4 116 -77 186q-72 -109 -178 -198.5
t-220.5 -144t-228 -84t-211.5 -29.5q-119 0 -190 41t-71 119q0 88 69 169.5t177 138t241 90.5t259 34q122 0 217 -31t158 -104t67 -181q171 84 383 89l-13 -20q-31 3 -61 3q-166 0 -309 -104q-4 -61 -31.5 -130t-79.5 -138t-120.5 -124.5t-163 -90t-197.5 -34.5zM897 784
q-165 0 -352 -64t-314.5 -162t-127.5 -187q0 -53 64.5 -83.5t170.5 -30.5q93 0 198.5 25.5t217.5 76.5t221 140.5t191 204.5q-93 80 -269 80zM520 1q81 -18 142 -18q106 0 202 34.5t162.5 89t117 121.5t76.5 130.5t30 117.5q-47 -36 -111.5 -98t-119.5 -113.5t-127 -106
t-166.5 -95.5t-205.5 -62zM137 96q-133 0 -133 -33q0 -19 47.5 -37t107.5 -18q117 0 226 23q-6 2 -38.5 13.5t-40.5 14t-35 11t-38.5 11.5t-31.5 7.5t-35 6t-29 1.5z" />
    <glyph glyph-name="E" unicode="E" horiz-adv-x="665" 
d="M1028 746q130 0 193.5 -47t63.5 -110q0 -43 -28.5 -74.5t-71.5 -31.5t-43 30q0 24 33 53t93 47q0 15 -13 34t-38.5 39t-73 33.5t-106.5 13.5q-83 0 -157 -24.5t-123 -63t-78.5 -83.5t-34.5 -88q87 -8 142 -34t55 -61q0 -21 -18 -32t-46 -11q-46 0 -91.5 26t-58.5 71
q-74 -4 -151.5 -21t-157.5 -52.5t-141.5 -84t-101 -122.5t-39.5 -162q0 -119 85 -210.5t214.5 -136.5t276.5 -45q127 0 267 51t213 125l22 -36q-221 -155 -509 -155q-166 0 -306.5 54.5t-229.5 164t-89 254.5q0 90 37 163t97 120t138.5 79t157.5 45.5t158 13.5q20 0 54 -2
q3 46 32.5 92.5t79 86.5t127 65.5t167.5 25.5zM776 345q50 0 50 36q0 24 -44 38.5t-115 14.5h-21q11 -41 50.5 -65t79.5 -24z" />
    <glyph glyph-name="F" unicode="F" horiz-adv-x="662" 
d="M603 244q-6 1 -6 5t29 37l-53 3q-27 -33 -55 -70q-69 -91 -129.5 -142t-142.5 -78t-195 -27q-96 0 -217 16l10 12q43 -5 93 -5q53 0 104.5 9.5t90.5 21.5t87 39.5t76.5 45t76.5 57.5t69 59t72 65q-86 2 -133 2q-167 0 -241 -13l-9 10q68 11 251 11q51 0 141 -2
q64 56 111 91.5t113 75t138 61t152 26.5l-2 -20q-80 -3 -148.5 -22.5t-123.5 -53.5t-97.5 -71.5t-84.5 -88.5l52 -4q10 12 13 17q4 7 16 7h18q21 0 21 -9q0 -26 -92 -63q-4 -2 -5 -2zM452 492l-36 16q204 193 399 193q72 0 153 -26.5t141.5 -57.5t134.5 -57.5t135 -26.5
q66 0 118 38l20 -30q-45 -32 -134 -32q-52 0 -110.5 18.5t-112 45t-107.5 53t-116 45t-119 18.5q-60 0 -120 -16t-128.5 -62.5t-117.5 -118.5zM137 440l1 11q109 31 208 102t150 152l11 -1q-21 -50 -35 -79t-36 -61t-45.5 -49t-59.5 -34t-83 -26t-111 -15z" />
    <glyph glyph-name="G" unicode="G" horiz-adv-x="662" 
d="M864 743q119 0 178.5 -33.5t67.5 -84.5q31 14 36 16l8 -12q-23 -10 -43 -21q-1 -49 -39.5 -90.5t-82.5 -41.5q-28 0 -28 20t33.5 53t93.5 65q0 33 -20.5 57t-53 35t-63 16t-60.5 5q-109 0 -230.5 -39t-223.5 -101t-187 -133.5t-133 -142t-48 -121.5q0 -87 140 -87
q99 0 270 78t263 161l14 -11q-12 -7 -36 -22t-105 -80.5t-169 -152.5l-46 -46q52 6 105 6h67l-8 -30q-42 15 -119 15q-36 0 -56 -2q-50 -57 -81.5 -91.5t-86 -90t-96.5 -90t-101 -75.5t-111.5 -64.5t-116.5 -39.5t-128 -16q-59 0 -59 37q0 38 60 100.5t155 127.5t233 123
t276 81q180 147 266 210q-19 -11 -51 -27.5t-94.5 -45.5t-131 -48.5t-121.5 -19.5q-94 0 -141.5 37.5t-47.5 100.5q0 58 38 127t113.5 137.5t175.5 124.5t238 91t287 35zM-382 -407q0 -25 36 -25q29 0 71 16.5t100.5 54t107.5 70.5t128.5 95t124 98t131.5 106
q-134 -25 -268.5 -83t-225.5 -121t-148 -121t-57 -90z" />
    <glyph glyph-name="H" unicode="H" horiz-adv-x="847" 
d="M1425 727q35 0 35 -21q0 -25 -49.5 -72t-127 -97t-188 -95.5t-217.5 -64.5q-292 -250 -292 -415q0 -44 14 -84q197 56 407 56q165 0 275 -35t110 -87q0 -44 -50.5 -79t-132 -54t-175.5 -19q-129 0 -241 38.5t-173 116.5q-209 -59 -379.5 -165.5t-269.5 -265.5l-13 9
q47 94 116.5 173t152.5 137.5t171.5 100t186.5 70.5q-23 52 -23 115q0 184 182 371q-34 -2 -83 -11q-38 -68 -100.5 -134t-142 -121t-177 -88.5t-192.5 -33.5q-125 0 -125 39q0 50 101.5 116t250.5 123t298 91q88 104 88 174q0 93 -125 107q-42 -71 -128.5 -130.5
t-173.5 -89t-151 -29.5q-72 0 -72 39q0 46 80 98.5t197 88.5t217 36q16 0 24 -1l12 23h13q-3 -8 -11 -24q161 -14 161 -141q0 -60 -39 -133q40 7 87 10q148 149 354 253.5t318 104.5zM1035 -327q139 0 241 40.5t102 103.5q0 31 -74.5 49.5t-194.5 18.5q-236 0 -476 -66
q57 -73 166.5 -109.5t235.5 -36.5zM-62 9q0 -24 51 -24q117 0 289.5 106.5t285.5 237.5q-146 -35 -289.5 -91.5t-240 -119.5t-96.5 -109zM497 624q-91 0 -200.5 -33t-186.5 -83t-77 -94q0 -29 57 -29q94 0 231.5 67.5t201.5 170.5q-4 0 -12.5 0.5t-13.5 0.5zM1439 700
q0 13 -18 13q-49 0 -213 -98t-315 -225q107 20 212.5 64.5t175.5 92t114 90t44 63.5z" />
    <glyph glyph-name="I" unicode="I" horiz-adv-x="1226" 
d="M643 607q101 0 207 -25t167 -84q109 112 246 175.5t264 63.5q69 0 69 -32q0 -10 -5.5 -22t-18 -27t-21.5 -25.5t-26 -28t-22 -23.5q-29 -32 -91 -103t-100.5 -114t-104 -106t-120.5 -104t-129.5 -82.5t-151.5 -65.5v-18q0 -137 61 -263l-36 -12q-41 127 -41 250
q0 7 0.5 20t0.5 19q-119 -35 -247 -35q-267 0 -405 79t-138 195q0 52 28 105t84 100t131.5 83.5t179 58t219.5 21.5zM651 592q-144 0 -267.5 -32t-202 -83t-122.5 -112.5t-44 -123.5q0 -97 106.5 -161t312.5 -64q163 0 371 91q43 210 201 380q-52 58 -154.5 81.5
t-200.5 23.5zM1075 366q0 -38 -19 -59.5t-42 -21.5q-14 0 -23 9t-9 24q0 21 17 46t45 41q-4 40 -29 71q-154 -165 -196 -363q154 70 316.5 183t265.5 205t152 154q21 27 21 44q0 25 -46 25q-130 0 -262.5 -63.5t-238.5 -172.5q48 -51 48 -122z" />
    <glyph glyph-name="J" unicode="J" horiz-adv-x="873" 
d="M-566 23l-33 14q60 122 164.5 215t232 148t261 83t272.5 32q117 127 274 205.5t328 78.5q53 0 86.5 -20.5t33.5 -59.5q0 -40 -35.5 -92t-75 -91t-119.5 -112l-4 -4q98 -54 147.5 -131t49.5 -161q0 -85 -41.5 -156t-109 -116.5t-151.5 -70.5t-171 -25q-177 0 -289 91
q-206 -171 -419 -238q-32 -11 -104 -27.5t-120 -16.5q-52 0 -52 24q0 28 45.5 79.5t121.5 110t189.5 121t235.5 107.5q-11 44 -11 93q0 94 47.5 198t131.5 200q-144 -5 -281.5 -38t-259 -90.5t-212.5 -148t-132 -202.5zM512 99q72 9 144 9q63 0 135 -8l-10 -36
q-83 18 -183 18q-54 0 -107 -6q-112 -119 -223 -214q105 -87 273 -87q84 0 164.5 24.5t146 68t105.5 111.5t40 148q0 82 -47.5 156.5t-141.5 126.5q-44 -41 -89.5 -88.5t-113.5 -121.5t-93 -101zM382 78q6 5 18.5 14.5t17.5 13.5q98 74 319 263q22 21 56 50q-165 84 -420 84
q-5 0 -16 -0.5t-17 -0.5q-84 -93 -132 -197t-48 -198q0 -44 10 -89q111 39 212 60zM352 516h18q266 0 434 -88q52 44 79 68t69.5 67.5t62.5 80.5t20 70q0 35 -29.5 53.5t-74.5 18.5q-161 0 -313 -74.5t-266 -195.5zM155 -4q-152 -56 -290 -139t-212 -152t-74 -104
q0 -21 32 -21q125 0 576 347q-21 33 -32 69zM174 3q10 -33 28 -64l147 114q-85 -18 -175 -50z" />
    <glyph glyph-name="K" unicode="K" horiz-adv-x="1365" 
d="M1118 -18q0 -70 27 -127q134 26 270 26q188 0 314 -47t126 -120q0 -55 -69 -87.5t-173 -32.5q-127 0 -250.5 49.5t-194.5 145.5q-237 -53 -438.5 -168t-314.5 -291l-13 9q51 109 131.5 198t178.5 150t201.5 101.5t217.5 63.5q-34 73 -34 161q0 59 23.5 125t48.5 117
t27 70q-52 3 -73 13q-126 -150 -189 -207q-133 -121 -303 -156q-91 -19 -205 -19q-97 0 -197 11l2 11q30 -2 48 -2q214 0 475 136t465 355l-3 2q-412 -319 -750 -319q-211 0 -335.5 90t-124.5 211q0 57 31 108t90.5 93t158.5 67t224 25q115 0 227.5 -22t190.5 -51t150 -67.5
t105 -61t56 -41.5q44 34 66 53q1 1 3 1q4 0 7.5 -4t3.5 -8q0 -3 -2 -5t-22 -19t-42.5 -36.5t-30.5 -29.5q-25 -28 -69 -80q45 0 61 -30q65 6 136.5 36.5t132.5 70.5t135 85.5t143.5 83.5t159.5 63t182 25q163 0 253 -40l-10 -12q-9 4 -29.5 11t-64 14.5t-87.5 7.5
q-83 0 -158 -20t-133 -52t-113.5 -71t-111.5 -78t-114.5 -71t-135 -52t-161.5 -20h-19q1 -4 1 -11q0 -42 -25.5 -94t-51 -113t-25.5 -124zM541 713q-225 0 -346 -81.5t-121 -193.5q0 -109 111 -190t301 -81q89 0 190 25.5t249.5 102t305.5 199.5q-22 18 -51 39t-95 55.5
t-139 60t-181.5 45t-223.5 19.5zM1620 -393q94 0 153.5 29t59.5 81t-88.5 82t-230.5 30q-156 0 -331 -37q69 -89 192 -137t245 -48zM1159 363q-11 0 -19 -5l-4 -6q0 -11 40 -11h18q-6 22 -35 22z" />
    <glyph glyph-name="L" unicode="L" horiz-adv-x="892" 
d="M1207 674q-74 -34 -135 -82t-102.5 -98t-79 -104.5t-75.5 -107.5t-80.5 -100.5t-104.5 -89.5t-139 -70q65 -34 133 -89t120.5 -101.5t118 -90.5t155.5 -69.5t202 -25.5q311 0 469 187l20 -41q-98 -81 -207 -120.5t-267 -39.5q-125 0 -223 26.5t-166 71.5t-121.5 92
t-121.5 102.5t-135 89.5q-156 -50 -380 -50q-113 0 -174 19.5t-61 47.5q0 30 67.5 53t181.5 23q166 0 290 -43q81 38 159.5 97t140.5 120.5t127.5 128t133.5 124t144 104t174.5 73.5t210.5 27q119 0 178.5 -33.5t67.5 -84.5q31 14 36 16l8 -12q-23 -10 -43 -21
q-1 -49 -39.5 -90.5t-82.5 -41.5q-28 0 -28 20t33.5 53t93.5 65q0 62 -60 89.5t-154 27.5q-78 0 -160 -16t-125 -36zM88 93q-96 0 -157.5 -19.5t-61.5 -43.5q0 -11 16.5 -20.5t53 -15.5t89.5 -6q186 0 341 66q-122 39 -281 39z" />
    <glyph glyph-name="M" unicode="M" horiz-adv-x="1268" 
d="M15 213q0 -22 -18.5 -39.5t-40.5 -26.5t-40.5 -22.5t-18.5 -28.5q0 -40 37.5 -68.5t83.5 -40t91 -11.5q73 0 148.5 18t150 55t140 77t143 100t134.5 106.5t138 114.5t131 108q-142 48 -310 48q-201 0 -427 -112l-31 41q201 89 431 89q192 0 349 -56q160 125 271 180l4 -9
q-80 -100 -181 -211q43 -22 69 -41q218 197 409 302l10 -13q-189 -178 -339 -351q102 -91 153.5 -208.5t51.5 -235.5q0 -154 -81.5 -258.5t-222.5 -104.5q-123 0 -198.5 72t-75.5 196q0 118 76.5 264.5t236.5 307.5l-17 12q-85 -77 -226 -219.5t-214 -203t-117 -60.5
q-15 0 -15 17q0 140 440 537l-30 12q-40 -33 -121 -102.5t-136 -115t-137 -109t-151 -105t-148.5 -81.5t-159 -59.5t-156.5 -19.5q-121 0 -183 53t-62 124q0 57 34.5 91t74.5 34q22 0 36 -12t14 -35zM1023 -176q0 -96 63 -145t167 -49q133 0 210.5 99t77.5 247
q0 116 -50.5 232t-149.5 205q-318 -372 -318 -589zM719 4q0 -5 6 -5q37 0 107 61.5t202.5 196.5t225.5 219q-33 21 -69 39q-88 -97 -214.5 -228.5t-192 -201.5t-65.5 -81zM1653 755l-3 2q-173 -104 -368 -281l16 -12q151 149 355 291zM1150 548l161 142l-1 2
q-75 -39 -189 -133q13 -4 29 -11z" />
    <glyph glyph-name="N" unicode="N" horiz-adv-x="908" 
d="M593 713q110 0 162.5 -42.5t52.5 -115.5q0 -9 -2 -25q200 94 301 94q37 0 37 -34q0 -32 -51.5 -95t-125 -136.5t-147.5 -150.5t-125.5 -154.5t-51.5 -131.5q0 -73 36 -129q99 68 223.5 103t240.5 35q106 0 173 -29t67 -79q0 -81 -106.5 -133.5t-248.5 -52.5
q-107 0 -201 34t-149 102q-137 -105 -169 -260l-31 10q42 157 191 263q-50 69 -50 166q0 62 28 128.5t73.5 123.5t100 111.5t109 98.5t100 79.5t73.5 60.5t28 35q0 23 -28 23q-103 0 -298 -94q-13 -82 -77 -177t-155 -176t-211 -135t-233 -54q-39 0 -39 23q0 38 98 126.5
t250.5 191t302.5 180.5q25 53 25 93q0 112 -185 112q-134 0 -269.5 -41.5t-229.5 -100.5t-153.5 -123t-59.5 -111q0 -66 113 -66q139 0 339.5 115t273.5 228l10 -7q-50 -96 -157.5 -178.5t-231 -128t-229.5 -45.5q-136 0 -136 80q0 51 59 117.5t155.5 127t238.5 102.5
t289 42zM1022 -349q139 0 243.5 50t104.5 128q0 41 -63.5 65.5t-162.5 24.5q-115 0 -238 -35t-218 -104q49 -64 139 -96.5t195 -32.5zM108 7q0 -14 22 -14q71 0 194.5 78t240.5 194t169 217q-144 -76 -292 -177.5t-241 -184.5t-93 -113z" />
    <glyph glyph-name="O" unicode="O" horiz-adv-x="873" 
d="M775 776l-1 -7q-139 -7 -260 -44t-206 -91.5t-146 -122t-90.5 -137t-29.5 -135.5q0 -65 28 -115q22 107 87 208.5t162 183t232.5 131t284.5 49.5q96 0 142.5 -40.5t46.5 -109.5q0 -62 -35.5 -137.5t-101 -149t-149.5 -134.5t-191.5 -98.5t-216.5 -37.5q-103 0 -174 34
q-8 -43 -8 -82q0 -135 93 -219q119 77 263.5 115t277.5 38t199 -28t66 -72q0 -64 -118.5 -120.5t-290.5 -56.5q-258 0 -410 103q-146 -105 -192 -257l-37 9q71 152 220 254q-160 115 -160 317q0 43 5 74q-43 59 -43 142q0 69 30.5 141.5t94 141.5t151.5 124.5t212 90.5
t265 38zM326 4q114 0 223 37.5t190 97.5t143.5 132.5t95 145t32.5 131.5q0 60 -35.5 95t-107.5 35q-108 0 -226 -58.5t-214.5 -149.5t-169 -206t-97.5 -225q68 -35 166 -35zM643 -391q80 0 153.5 15.5t123.5 39.5t80 53.5t30 56.5q0 40 -62.5 65t-189.5 25
q-132 0 -274.5 -37.5t-254.5 -111.5q127 -106 394 -106z" />
    <glyph glyph-name="P" unicode="P" horiz-adv-x="1072" 
d="M1057 765l11 -10q-73 -69 -153 -145q23 -12 67 -38l-39 -9q-15 11 -45 31q-78 -73 -136 -125q-72 -64 -183.5 -179.5t-192.5 -204.5q-21 -23 -48 -48q19 -2 57 -2q96 108 119 133q72 79 115 123.5t107 102t113.5 87.5t111.5 51.5t123 21.5q52 0 79.5 -25t27.5 -68
q0 -47 -30.5 -104.5t-93.5 -117t-147.5 -108.5t-205 -80t-253.5 -31q-36 0 -54 1q-196 -229 -266 -297q-117 -115 -187 -115q-23 0 -23 34q0 42 27 95t64 101.5t100.5 112t110.5 105.5t122.5 103.5t107.5 86t93 70.5q30 23 125 103q-184 -125 -351 -180t-357 -55
q-197 0 -309.5 69t-112.5 188q0 111 83 194.5t223.5 126t315.5 42.5q177 0 365.5 -47t362.5 -140zM785 513l99 89q-261 163 -596 163q-185 0 -349.5 -49.5t-261.5 -130.5t-97 -171q0 -69 56 -119.5t141 -73.5t185 -23q130 0 243.5 22.5t216 70t182 97t181.5 125.5zM1155 486
q0 55 -85 55q-118 0 -251.5 -103t-311.5 -303q-75 -85 -88 -100q102 3 213 38.5t201.5 88.5t164.5 112.5t115.5 116.5t41.5 95zM-49 -353q0 -23 14 -23q26 0 66 28.5t106 97t110 117.5t137 156q-18 1 -56 5q-34 -32 -93 -82t-103 -88.5t-88.5 -80t-68.5 -75t-24 -55.5z" />
    <glyph glyph-name="Q" unicode="Q" horiz-adv-x="783" 
d="M1345 644l-3 -11q-114 35 -240 35q-148 0 -310 -47t-292.5 -117.5t-238.5 -149.5t-167.5 -147.5t-59.5 -105.5q0 -62 88 -62q170 0 689 366q42 29 132 95.5t139 99.5l11 -9q-234 -175 -324 -252q-132 -113 -366 -347q-70 -71 -171.5 -153.5t-156 -130t-54.5 -69.5
q0 -18 21 -18q48 0 106.5 40.5t121 105.5t135 143t160.5 156.5t185 143.5t222 105.5t258 40.5q146 0 236.5 -59.5t90.5 -169.5q0 -97 -84 -179.5t-221 -129t-291 -46.5q-214 0 -388 92l18 38q160 -114 390 -114q142 0 270 43.5t208.5 122t80.5 171.5q0 101 -87.5 160.5
t-228.5 59.5q-128 0 -249.5 -40.5t-216.5 -105t-182.5 -143t-160.5 -157t-137.5 -143t-126.5 -105t-114 -40.5q-36 0 -36 35q0 63 52 134.5t143.5 145.5t187 142t212.5 152.5t191 149.5l-3 5q-483 -347 -669 -347q-107 0 -107 82q0 116 89 225.5t230.5 187t322 124.5
t358.5 47q187 0 337 -50z" />
    <glyph glyph-name="R" unicode="R" horiz-adv-x="1009" 
d="M1361 582q0 -46 -24 -95t-72 -94.5t-114.5 -81.5t-158.5 -57.5t-196 -21.5q-32 0 -45 2q-1 -28 -17 -128.5t-16 -160.5q0 -37 4 -66q144 32 291 32q131 0 241.5 -24.5t174.5 -67.5t64 -95q0 -63 -83.5 -100t-207.5 -37q-401 0 -506 210q-125 -35 -234 -87.5
t-209.5 -135.5t-165.5 -185l-13 9q86 183 242.5 298.5t354.5 169.5q-12 48 -12 110q0 48 6.5 97.5t18 106t13.5 65.5q-41 15 -41 42q0 13 11 23t26 10q58 0 58 -76q10 -2 36 -2q117 0 242.5 63.5t205.5 153t80 163.5q0 65 -59 97.5t-158 32.5q-104 0 -224 -32.5
t-227.5 -94.5t-161.5 -138l-32 23q121 109 309.5 182t345.5 73q116 0 184.5 -45t68.5 -138zM1202 -400q116 0 192.5 34t76.5 93q0 57 -102.5 92t-261.5 35q-183 0 -367 -46q78 -208 462 -208zM-130 -12l10 12q43 -5 93 -5q96 0 184.5 31t159.5 81t140 110.5t139 122.5
t142 114t163.5 88t190.5 42l-2 -20q-77 -3 -148 -26t-122.5 -54t-104.5 -81t-86 -89t-75 -95q-69 -91 -129.5 -142t-142.5 -78t-195 -27q-96 0 -217 16zM173 430l1 11q109 31 208 102t150 152l11 -1q-21 -50 -35 -79t-36 -61t-45.5 -49t-59.5 -34t-83 -26t-111 -15zM701 277
q0 23 -13 23q-17 0 -17 -16q0 -18 28 -29q2 16 2 22z" />
    <glyph glyph-name="S" unicode="S" horiz-adv-x="565" 
d="M1163 826q-260 0 -468.5 -137.5t-302.5 -377.5q-6 -16 -20.5 -68.5t-24.5 -83.5q112 16 210 16q40 0 60 -1l-12 -34q-63 11 -136 11q-57 0 -127 -8q-18 -53 -38.5 -99t-56.5 -103.5t-79.5 -103.5t-109 -92t-143 -77t-183.5 -50t-228 -19q-89 0 -89 51q0 46 68 112
q140 136 350 238.5t440 146.5q73 110 123 217q106 227 312 350.5t450 123.5q112 0 167 -33t62 -85l37 13l8 -12q-24 -9 -44 -18q-2 -60 -53.5 -112t-111.5 -52q-17 0 -27 8.5t-10 22.5q0 28 43.5 66.5t136.5 75.5q-2 31 -24.5 55t-55 36t-64 17.5t-59.5 5.5zM-511 -248
q-24 -23 -41 -52t-17 -50q0 -36 50 -36q112 0 225.5 42t213 116t185 164t158.5 196q-206 -36 -411 -131.5t-363 -248.5z" />
    <glyph glyph-name="T" unicode="T" horiz-adv-x="902" 
d="M373 461q162 0 233.5 -52.5t71.5 -124.5q0 -52 -23 -79t-50 -27q-30 0 -30 25q0 26 25.5 52t65.5 31q-14 164 -288 164h-10q-13 -29 -17 -54l-34 16q6 19 15 35q-63 -6 -129.5 -26.5t-128 -53t-100.5 -82.5t-39 -107q0 -52 32 -91t82 -59t99.5 -29.5t95.5 -9.5
q57 0 116 12.5t106.5 29.5t106 50.5t96 57.5t95.5 70.5t86 70.5t86 75.5t77 68.5q56 48 141.5 87t185.5 46v-25q-11 2 -29 2q-68 0 -139 -29q-67 -28 -109 -59.5t-99 -90.5q-44 -46 -91.5 -105.5t-75.5 -96t-70 -76.5t-86.5 -61.5t-115 -36t-163.5 -14.5q-443 0 -443 210
q0 65 42.5 119.5t108.5 87.5t135 52.5t133 24.5q70 129 228.5 224t296.5 95q119 0 138 -81q120 46 239 46q74 0 139.5 -20t113.5 -49t92.5 -58t96.5 -49t106 -20q62 0 127 19t108 51l19 -36q-12 -7 -33 -17.5t-83 -27.5t-120 -17q-52 0 -100.5 15.5t-84.5 39t-79 51
t-83.5 51t-99 39t-123.5 15.5q-116 0 -233 -45q1 -5 1 -15q0 -90 -91.5 -180t-205.5 -90q-34 0 -34 26q0 45 88 125.5t213 134.5q1 3 1 10q0 70 -112 70q-150 0 -292 -93t-198 -212zM690 432q0 -15 18 -15q57 0 152 90t112 166q-117 -50 -199.5 -127t-82.5 -114z" />
    <glyph glyph-name="U" unicode="U" horiz-adv-x="620" 
d="M940 585l7 -10q-58 -42 -113 -85t-145.5 -120t-155 -143.5t-113 -141t-48.5 -127.5q0 -114 71 -169.5t189 -55.5q99 0 212 38t208 100t157.5 149.5t62.5 178.5q0 95 -85 144.5t-210 49.5q-85 0 -166 -23.5t-134 -64.5l-10 9q55 42 138.5 65.5t171.5 23.5q84 0 152.5 -21
t114 -70t45.5 -119q0 -93 -64 -182t-161 -151t-213 -100t-219 -38q-125 0 -201.5 58t-76.5 177q0 114 73 228q-144 -107 -258.5 -169t-165.5 -62q-33 0 -33 27q0 49 40.5 107t101.5 110t132.5 111t132.5 110t101.5 107.5t40.5 103.5q0 74 -56.5 110t-152.5 36
q-124 0 -270.5 -50.5t-251.5 -133t-105 -163.5q0 -85 111 -85q86 0 205 48.5t233 135.5t170 182l10 -1q-42 -116 -148.5 -207t-223.5 -134.5t-218 -43.5q-74 0 -118 26.5t-44 77.5q0 64 64 131t159 116.5t208.5 81.5t209.5 32q107 0 171 -41.5t64 -129.5q0 -81 -40.5 -161
t-101 -139.5t-131.5 -116t-131.5 -95.5t-101 -72.5t-40.5 -52.5q0 -14 18 -14q46 0 184 81.5t266 180.5q147 190 482 356z" />
    <glyph glyph-name="V" unicode="V" horiz-adv-x="493" 
d="M15 10q0 47 32.5 101t81 101t105 100t105 99.5t81 98.5t32.5 97q0 69 -51 101.5t-139 32.5q-128 0 -290.5 -58.5t-281 -150.5t-118.5 -176q0 -85 111 -85q86 0 205 48.5t233 135.5t170 182l10 -1q-42 -116 -148.5 -207t-223.5 -134.5t-218 -43.5q-74 0 -118 26.5
t-44 77.5q0 67 72 140t177.5 129t230 93t224.5 37t158 -38.5t58 -120.5q0 -80 -23.5 -151t-61 -121.5t-83 -94.5t-91.5 -76t-83.5 -57.5t-61 -48.5t-23.5 -41q0 -25 28 -25q39 0 95 33t118 85.5t132 116t146 127.5t151.5 116.5t157.5 85.5t154 33l-7 -26q-3 0 -9 0.5t-9 0.5
q-68 0 -145.5 -32.5t-149 -84.5t-144.5 -114.5t-141.5 -125t-130.5 -114.5t-121.5 -84.5t-104.5 -32.5q-47 0 -47 46z" />
    <glyph glyph-name="W" unicode="W" horiz-adv-x="871" 
d="M625 674l13 -5q-31 -100 -90.5 -191t-124.5 -152.5t-134.5 -116t-124.5 -88.5t-90.5 -62.5t-35.5 -45.5q0 -22 39 -22q149 0 471 236q35 40 59 60l263 224q55 1 86 10l-2 -9q-90 -61 -294.5 -248t-204.5 -240q0 -33 34 -33q47 0 102 35t112 91t120.5 123.5t137 135
t151.5 123.5t174 91t194 35l-7 -27q-98 0 -193 -34t-171.5 -89t-149 -121t-135.5 -132t-119 -121t-111 -89t-102 -34q-53 0 -53 45q0 62 83 171q-314 -219 -449 -219q-55 0 -55 42q0 61 39.5 119.5t104.5 110t134 98.5t144 104.5t119 109.5q-336 215 -652 215
q-106 0 -198.5 -25.5t-153.5 -66.5t-95.5 -91t-34.5 -101q0 -88 103 -147t307 -59q88 0 167 17t141 48t102 57.5t82 61.5l20 -30q-8 -7 -24 -18t-68 -40t-108.5 -51t-143.5 -40t-175 -18q-218 0 -338 76.5t-120 183.5q0 109 122.5 189t339.5 80q188 0 379.5 -57.5
t355.5 -172.5q40 50 58 104z" />
    <glyph glyph-name="X" unicode="X" horiz-adv-x="975" 
d="M731 -11q0 124 75 262.5t189.5 248t260 181.5t277.5 72q51 0 75 -21t24 -55q0 -54 -46.5 -112t-96.5 -58q-30 0 -30 27t37.5 58.5t114.5 54.5q5 17 5 34q0 58 -78 58q-89 0 -197.5 -48t-210 -130t-187 -181t-137 -210.5t-51.5 -207.5q0 -46 12 -85q201 57 409 57
q165 0 275 -35t110 -87q0 -69 -117.5 -119.5t-268.5 -50.5q-127 0 -234.5 42t-162.5 128q-133 -39 -247 -94t-219.5 -141.5t-171.5 -192.5l-13 9q62 123 163.5 221t214 158.5t244.5 99.5q-18 52 -18 117zM212 325q149 0 311 105t262 263l10 -2q-75 -178 -235.5 -280.5
t-344.5 -102.5q-82 0 -123 26t-41 70q0 41 32 90t92.5 97t138 88t179 64.5t205.5 24.5q120 0 179.5 -51t59.5 -136q0 -90 -62 -197t-164.5 -201t-252 -157t-305.5 -63q-102 0 -168 16t-89.5 37.5t-23.5 48.5q0 32 30 59t60 27q36 0 36 -28q0 -21 -21.5 -40t-53.5 -19
q-15 0 -28 4v-5q0 -23 18.5 -40t47 -24.5t52 -10.5t43.5 -3q123 0 277 70t279 169t211 211.5t86 192.5q0 127 -213 127q-100 0 -198 -24t-173.5 -62.5t-134.5 -84.5t-90 -92t-31 -84t35.5 -60.5t107.5 -22.5zM1177 -344q146 0 258 47t112 114q0 31 -74.5 49.5t-194.5 18.5
q-243 0 -484 -68q50 -82 154 -121.5t229 -39.5z" />
    <glyph glyph-name="Y" unicode="Y" horiz-adv-x="722" 
d="M530 794q46 0 79 -5.5t63 -20t45.5 -44.5t15.5 -75q0 -76 -31.5 -146.5t-81.5 -124t-110 -101t-120.5 -85t-110.5 -69.5t-81.5 -60.5t-31.5 -51.5q0 -20 30 -20q52 0 175 75.5t239 160.5q118 84 204 158l191 157l10 -19q-135 -112 -222 -189q-180 -161 -233 -233
q-18 -25 -51 -72.5t-54 -77.5t-59 -76t-70.5 -76.5t-83.5 -70t-103.5 -65t-125.5 -53t-153.5 -43.5t-183.5 -26t-220 -10q-132 0 -202 39.5t-70 101.5q0 49 44 100t124 95t208 72t279 28q6 0 17.5 -0.5t17.5 -0.5q100 -4 192.5 -22t135.5 -34l42 -17l-7 -11q-82 40 -256 64
q-71 9 -136 9q-118 0 -222.5 -18t-178.5 -47.5t-128.5 -66.5t-81 -76t-26.5 -76q0 -54 59 -88t172 -34q102 0 210 25.5t202 65.5t193.5 100t179.5 118.5t166.5 131.5t146.5 128t128 119q16 16 24 23l-4 1q-390 -283 -497 -283q-45 0 -45 46q0 37 31.5 81t82.5 87t112 89
t122 93t112 93t82.5 96t31.5 94q0 33 -12 56.5t-30 36.5t-46 20.5t-51.5 9.5t-54.5 2q-109 0 -225.5 -34t-211 -88t-171.5 -116t-120 -122t-43 -103q0 -68 107 -68q151 0 364 133t312 289l10 -2q-49 -117 -169.5 -219t-260.5 -158t-260 -56q-118 0 -118 78q0 38 30.5 88.5
t83.5 103.5t129 104.5t161.5 91.5t187.5 65t201 25z" />
    <glyph glyph-name="Z" unicode="Z" horiz-adv-x="671" 
d="M805 524q0 -73 -37.5 -156t-103.5 -160.5t-169 -142t-223 -96.5q34 -43 34 -106q0 -78 -50 -166q49 -24 98 -58l-22 -42q-49 43 -95 70q-44 -66 -110 -124t-155 -105.5t-206 -75.5t-247 -28q-86 0 -128 27t-42 73q0 49 46 108.5t121.5 111.5t185.5 87t224 35
q155 0 301 -65q56 90 56 164q0 53 -30 89q-101 -24 -202 -24q-35 0 -54 10t-19 24q0 21 37 39t98 18q76 0 127 -33q105 38 201 109t160.5 151.5t102.5 163.5t38 149q0 81 -53.5 120t-143.5 39q-109 0 -235.5 -48.5t-216 -126.5t-89.5 -153q0 -48 75 -48q68 0 176 52.5
t200.5 127.5t120.5 136l12 -10q-42 -73 -86.5 -127t-103.5 -100.5t-136.5 -70.5t-170.5 -24q-110 0 -110 65q0 80 91 160.5t223.5 130t252.5 49.5q116 0 186.5 -53t70.5 -166zM-91 -240q-103 0 -204 -32t-171 -79.5t-113.5 -102t-43.5 -98.5q0 -41 39 -65t119 -24
q220 0 399 94.5t275 229.5q-140 77 -300 77zM104 16q-37 0 -63 -6.5t-36 -15.5t-10 -18q0 -18 27 -18q99 0 198 33q-45 25 -116 25z" />
    <glyph glyph-name="bracketleft" unicode="[" horiz-adv-x="322" 
d="M34 -1q0 62 86 241.5t196 342t167 172.5q40 7 76 7q6 0 62 -4l-4 -14q-38 -2 -66 -7q-62 -11 -147.5 -116t-155.5 -235t-119.5 -253t-49.5 -172q0 -82 63 -130l-3 -12q-105 67 -105 180z" />
    <glyph glyph-name="backslash" unicode="\" horiz-adv-x="296" 
d="M272 -545l-45 47q-11 7 -11 27q0 102 -31.5 317t-87.5 541t-78 473q6 1 10 7q0 1 2 3t2 4l3 -1q10 -59 49.5 -306t59 -362t50 -298t51 -290t34.5 -161z" />
    <glyph glyph-name="bracketright" unicode="]" horiz-adv-x="322" 
d="M353 582q0 -62 -86 -241.5t-196 -342t-167 -172.5q-40 -7 -76 -7q-6 0 -62 4l4 14q38 2 66 7q62 11 147.5 116t155.5 235t119.5 253t49.5 172q0 82 -63 130l3 12q105 -67 105 -180z" />
    <glyph glyph-name="underscore" unicode="_" horiz-adv-x="486" 
d="M-89 -48v7l22 19q2 5 11 5q84 -4 189 -4q108 0 234 4l1 -5l-32 -25q-75 3 -152 3q-56 0 -155 -2t-118 -2z" />
    <glyph glyph-name="grave" unicode="`" horiz-adv-x="833" 
d="M434 354l-194 110l2 7q61 -5 86 -5q14 0 20 -8q5 -8 28 -33.5t44 -46.5l20 -22z" />
    <glyph glyph-name="a" unicode="a" 
d="M208 98l28 30q-201 -147 -273 -147q-32 0 -32 37q0 33 26.5 76.5t75 87.5t131 74t178.5 30q6 0 22.5 -0.5t26.5 -0.5q41 0 77 5l2 -3q-19 -17 -50 -47.5t-82 -81.5l-81 -81q-50 -50 -50 -71q0 -9 11 -9q24 0 73 31q26 17 90 59.5t90 59.5l4 -8q-29 -19 -91 -61t-90 -59
q-52 -33 -93 -33q-39 0 -39 30q0 32 46 82zM377 270q1 1 1 3q0 4 -6 4h-39q-50 0 -117.5 -36t-121.5 -83.5t-92.5 -92.5t-38.5 -64q0 -9 11 -9q66 0 298 173q15 16 32.5 33.5t39 38.5t33.5 33z" />
    <glyph glyph-name="b" unicode="b" horiz-adv-x="340" 
d="M349 139l-37 -25q-77 -53 -149 -53q-28 0 -40 9q-65 -49 -107 -69q-27 -13 -50 -13q-38 0 -38 36q0 34 37.5 84t84 93t111.5 102.5t97 94.5q96 103 201 191.5t153 88.5q22 0 22 -21q0 -26 -32.5 -73.5t-90 -105.5t-151 -124t-200.5 -119q-57 -65 -114 -118t-78 -73.5
t-21 -34.5q0 -12 20 -12q19 0 47 13q50 23 103 66q-4 4 -4 13q0 18 31.5 42.5t62.5 24.5q67 69 76 108q63 0 83 6l3 -5q-49 -24 -72 -44q-9 -8 -68.5 -61t-96.5 -83q9 -6 34 -6q65 0 140 50l39 26zM616 651q0 13 -11 13q-32 0 -112 -63t-165 -152q-68 -96 -151 -194
q111 61 200.5 127t138.5 118.5t74.5 91.5t25.5 59z" />
    <glyph glyph-name="c" unicode="c" horiz-adv-x="326" 
d="M253 206q-19 0 -19 15q0 14 16.5 28t42.5 14q10 0 15 -1q2 10 2 12q0 18 -19 18q-38 0 -112.5 -55t-133.5 -124t-59 -104q0 -26 35 -26q52 0 102 29q21 12 208 135l4 -8q-27 -17 -73.5 -49t-78 -52.5t-56.5 -33.5q-63 -33 -121 -33q-69 0 -69 51q0 34 32.5 82.5t81 92.5
t112.5 74.5t121 30.5q35 0 35 -28q0 -22 -21 -45t-45 -23z" />
    <glyph glyph-name="d" unicode="d" horiz-adv-x="485" 
d="M688 542l100 5l3 -6q-124 -91 -504 -428q-79 -70 -79 -102q0 -16 18 -16q33 0 85 33q26 17 90 59.5t90 59.5l4 -8q-24 -16 -87.5 -59t-93.5 -61q-60 -36 -98 -36q-34 0 -34 33q0 42 53 111q-197 -146 -272 -146q-32 0 -32 37q0 33 26.5 76.5t75 87.5t131 74t178.5 30
q33 0 54 -3q37 32 102.5 88.5t111 97t78.5 73.5zM383 271q0 6 -50 6t-117.5 -36t-121.5 -83.5t-92.5 -92.5t-38.5 -64q0 -9 11 -9q64 0 286 164q72 70 123 115z" />
    <glyph glyph-name="e" unicode="e" horiz-adv-x="326" 
d="M123 12q21 12 208 135l4 -8q-27 -17 -73.5 -49t-78 -52.5t-56.5 -33.5q-63 -33 -121 -33q-70 0 -70 53q0 31 26.5 74.5t70 84.5t109 70t134.5 29q27 0 27 -16q0 -28 -66.5 -68t-158.5 -54q-97 -95 -97 -133q0 -28 40 -28q52 0 102 29zM293 265q0 9 -17 9
q-30 0 -82.5 -35.5t-107.5 -86.5q74 11 140.5 51t66.5 62z" />
    <glyph glyph-name="f" unicode="f" horiz-adv-x="269" 
d="M197 96l77 51l4 -8l-72 -48q-30 -20 -79 -35t-92 -15h-4q-31 -31 -74 -66q-281 -221 -555 -221q-32 0 -63 3l3 11q10 -1 30 -1q92 0 176 23t158 68t131 91.5t124 112.5q-21 21 -21 51q0 21 12.5 35t35.5 14q22 0 22 -23l-55 -37q3 -18 16 -31l59 60q43 44 104 110
t98.5 106t93.5 91t104.5 83t115.5 62.5t142 48.5l1 -10q-107 -30 -190.5 -78t-143 -109.5t-104 -120t-102 -135t-108.5 -128.5q40 0 85 14t71 31z" />
    <glyph glyph-name="g" unicode="g" horiz-adv-x="461" 
d="M473 290l2 -3q-26 -23 -126.5 -129t-169.5 -172q3 -3 10 -3q8 0 19.5 4t28.5 13.5t33 18.5t42.5 26t45 29.5t53 35.5l55.5 37l4 -8q-20 -13 -54.5 -36.5t-53.5 -36t-47 -30t-45 -27.5t-36.5 -20t-33.5 -14t-25 -4q-8 0 -11 1l-23 -22q150 -3 150 -7q0 -2 -5.5 -17.5
t-7.5 -15.5q-92 30 -147 31q-287 -264 -478 -264q-70 0 -70 36q0 27 39.5 64.5t104 73.5t159.5 64t193 34q26 25 236 240q-254 -182 -337 -182q-32 0 -32 35q0 24 15.5 54.5t50 64t80.5 61.5t115 46t147 18q7 0 25 -0.5t29 -0.5q32 0 65 5zM-404 -284q0 -29 55 -29
q90 0 191 64.5t228 187.5q-93 -6 -184 -33.5t-152.5 -61.5t-99.5 -69t-38 -59zM345 219l49 51q1 1 1 3q0 4 -6 4h-44q-50 0 -117.5 -32.5t-122 -75.5t-93 -84t-38.5 -58q0 -9 11 -9q80 0 360 201z" />
    <glyph glyph-name="h" unicode="h" horiz-adv-x="448" 
d="M52 124q-1 -2 -3.5 -5t-4.5 -5.5t-4 -4.5q265 176 323 176q25 0 25 -23q0 -33 -35.5 -76t-78 -77t-78 -66t-35.5 -44q0 -16 15 -16q8 0 19.5 4t28.5 13.5t33 18.5t42.5 26t45 29.5t53 35.5l55.5 37l4 -8q-21 -14 -55 -36.5t-53 -35.5t-46.5 -30.5t-44.5 -27.5
t-36.5 -19.5t-33.5 -14t-25 -4.5q-16 0 -26.5 12.5t-10.5 35.5q0 29 59 86t118 106t59 60q0 3 -5 3q-62 0 -343 -194q-43 -41 -92.5 -69.5t-90.5 -28.5q-11 0 -11 3q0 2 4 5q69 53 193.5 175.5t229.5 230.5t206 193t143 85q22 0 22 -21q0 -60 -137 -191.5t-348 -233.5
q-50 -61 -81 -104zM606 656q0 8 -5 8q-30 0 -85.5 -40t-121.5 -105.5t-128 -134.5t-122 -142q123 65 219 136t145 126.5t73.5 94.5t24.5 57z" />
    <glyph glyph-name="i" unicode="i" horiz-adv-x="237" 
d="M241 344l-6 2q27 57 38 76q6 8 20 8l76 -4l2 -7q-115 -67 -130 -75zM63 28q26 17 90 59.5t90 59.5l4 -8q-29 -19 -91 -61t-90 -59q-66 -41 -108 -41q-37 0 -37 38q0 55 215 273l91 5l3 -6q-58 -42 -166 -148.5t-108 -130.5q0 -19 19 -19q29 0 88 38z" />
    <glyph glyph-name="j" unicode="j" horiz-adv-x="177" 
d="M126 286q41 0 77 5l2 -3q-30 -22 -48 -42q-152 -166 -259 -262q2 -1 7 -1q8 0 19.5 4t28.5 13.5t33 18.5t42.5 26t45 29.5t53 35.5l55.5 37l4 -8q-19 -13 -54.5 -36.5t-53.5 -35.5t-46 -30.5t-44.5 -27.5t-36.5 -19.5t-34 -14.5t-25 -4q-5 0 -8 1q-79 -70 -139 -114
q84 -22 159 -50l-29 -26q-67 32 -152 60q-249 -178 -466 -178q-97 0 -146.5 22t-49.5 56q0 55 110.5 104.5t280.5 49.5q124 0 258 -30q71 57 149.5 136.5t127 135.5t120.5 141q5 7 19 7zM-561 -114q-151 0 -255 -45t-104 -95q0 -31 48.5 -50.5t143.5 -19.5q195 0 420 175
q-127 35 -253 35zM210 344l-6 2q27 57 38 76q6 8 20 8l76 -4l2 -7q-115 -67 -130 -75z" />
    <glyph glyph-name="k" unicode="k" horiz-adv-x="428" 
d="M459 328q26 0 39.5 -11.5t13.5 -27.5q0 -12 -8.5 -21.5t-21.5 -9.5q-24 0 -24 21q0 10 8 18.5t22 10.5q0 13 -27 13q-62 0 -160 -43q22 -8 22 -27q0 -22 -29.5 -62t-64.5 -75.5t-64.5 -70.5t-29.5 -48q0 -11 15 -11q21 0 53 16q41 21 207 132l23 15l4 -8l-64.5 -43
t-64 -42.5t-52 -33t-48.5 -28.5q-36 -19 -72 -19q-45 0 -45 41q0 28 51.5 85t102.5 107.5t51 62.5q0 3 -3 5q-114 -52 -223 -126q-5 -5 -18 -24q-36 -50 -102.5 -96t-118.5 -46q-11 0 -11 3q0 2 4 5q69 53 193.5 175.5t229.5 230.5t206 193t143 85q22 0 22 -21
q0 -60 -137 -191.5t-348 -233.5l-46 -58q50 32 105 63t135.5 63t131.5 32zM606 656q0 8 -5 8q-30 0 -85.5 -40t-121.5 -105.5t-128 -134.5t-122 -142q123 65 219 136t145 126.5t73.5 94.5t24.5 57z" />
    <glyph glyph-name="l" unicode="l" horiz-adv-x="242" 
d="M-53 9q0 -13 26 -13q40 0 99 35q13 7 39.5 25t35.5 24l105 70l4 -8l-103 -69q-42 -29 -78 -51q-60 -36 -100 -36q-22 0 -34.5 10.5t-12.5 27.5q0 34 37.5 84t84 93t111.5 102.5t97 94.5q96 103 201 191.5t153 88.5q22 0 22 -21q0 -26 -32.5 -73.5t-90 -105.5t-151 -124
t-200.5 -119q-57 -65 -114 -118t-78 -73.5t-21 -34.5zM616 651q0 13 -11 13q-32 0 -112 -63t-165 -152q-68 -96 -151 -194q111 61 200.5 127t138.5 118.5t74.5 91.5t25.5 59z" />
    <glyph glyph-name="m" unicode="m" horiz-adv-x="745" 
d="M435 265q0 6 -9 6q-6 0 -14 -3q-84 -32 -293 -186l-95 -97l-91 -5l-3 6q70 51 184 155.5t114 132.5q0 5 -6 5q-4 0 -16.5 -7.5t-32.5 -20.5t-38.5 -26t-42.5 -29.5t-36 -24.5l-56 -38l-7 6l61 41q9 6 34.5 24t36 25t31 20.5t31.5 20t25.5 14t24 10.5t16.5 3q19 0 19 -20
q0 -32 -123 -163q240 171 296 171q25 0 25 -27q0 -25 -133 -163q264 190 323 190q25 0 25 -23q0 -33 -35.5 -76t-78 -77t-78 -66t-35.5 -44q0 -16 15 -16q8 0 19.5 4t28.5 13.5t33 18.5t42.5 26t45 29.5t53 35.5l55.5 37l4 -8q-21 -14 -55 -36.5t-53 -35.5t-46.5 -30.5
t-44.5 -27.5t-36.5 -19.5t-33.5 -14t-25 -4.5q-16 0 -26.5 12.5t-10.5 35.5q0 29 59 86t118 106t59 60q0 3 -5 3q-61 0 -351 -215l-73 -74l-91 -5l-3 6q68 50 183.5 153t115.5 126z" />
    <glyph glyph-name="n" unicode="n" horiz-adv-x="529" 
d="M272 277q0 -32 -121 -161q237 169 293 169q25 0 25 -23q0 -33 -35.5 -76t-78 -77t-78 -66t-35.5 -44q0 -16 15 -16q8 0 19.5 4t28.5 13.5t33 18.5t42.5 26t45 29.5t53 35.5l55.5 37l4 -8q-21 -14 -55 -36.5t-53 -35.5t-46.5 -30.5t-44.5 -27.5t-36.5 -19.5t-33.5 -14
t-25 -4.5q-16 0 -26.5 12.5t-10.5 35.5q0 29 59 86t118 106t59 60q0 3 -5 3q-56 0 -318 -190q-40 -44 -96 -99l-91 -5l-3 6q70 51 184 155.5t114 132.5q0 5 -6 5q-4 0 -16.5 -7.5t-32.5 -20.5t-38.5 -26t-42.5 -29.5t-36 -24.5l-56 -38l-7 6l61 41q9 6 34.5 24t36 25
t31 20.5t31.5 20t25.5 14t24 10.5t16.5 3q19 0 19 -20z" />
    <glyph glyph-name="o" unicode="o" horiz-adv-x="343" 
d="M282 293q36 0 36 -28q0 -30 -38.5 -82.5t-94.5 -103.5h10q51 0 114 42l39 26l4 -8l-37 -25q-22 -14 -58.5 -29.5t-62.5 -15.5q-10 0 -18 3q-108 -95 -170 -95q-63 0 -63 50q0 33 29 79t75 87.5t109.5 70.5t125.5 29zM3 -14q58 0 163 92q-7 13 -7 26q0 26 28 42t60 16
q59 71 59 104q0 18 -21 18q-32 0 -107.5 -56t-138 -124t-62.5 -99q0 -19 26 -19z" />
    <glyph glyph-name="p" unicode="p" horiz-adv-x="388" 
d="M432 514l4 -9q-31 -23 -86.5 -73.5t-171.5 -159.5t-164 -154q250 167 309 167q25 0 25 -23q0 -33 -35.5 -76t-78 -77t-78 -66t-35.5 -44q0 -7 9 -7q31 0 137 71l126 84l4 -8l-126 -84q-111 -75 -154 -75q-31 0 -31 39q0 29 59 86t118 106t59 60q0 3 -5 3q-60 0 -346 -196
q-199 -183 -327 -284q-12 -12 -20 -12l-91 -5l-3 6q135 89 455.5 360.5t446.5 370.5z" />
    <glyph glyph-name="q" unicode="q" horiz-adv-x="461" 
d="M189 -17q8 0 19.5 4t28.5 13.5t33 18.5t42.5 26t45 29.5t53 35.5l55.5 37l4 -8q-21 -14 -55 -36.5t-53 -35.5t-46.5 -30.5t-44.5 -27.5t-36.5 -19.5t-33.5 -14t-25 -4.5q-8 0 -14 3q-15 -54 -117 -149.5t-140 -95.5q-25 0 -25 25q0 28 49 86t126.5 127.5t117 103
t74.5 62.5q21 17 53 45q-244 -171 -322 -171q-32 0 -32 35q0 24 15.5 54.5t50 64t80.5 61.5t115 46t147 18q7 0 25.5 -0.5t30.5 -0.5q35 0 67 5l2 -3q-20 -18 -122 -112q-4 -4 -31.5 -28.5t-71 -64t-83.5 -75.5q1 -8 6 -16t12 -8zM338 215l56 55q1 1 1 3q0 4 -6 4h-44
q-50 0 -117.5 -32.5t-122 -75.5t-93 -84t-38.5 -58q0 -9 11 -9q81 0 353 197zM-103 -253q0 -7 9 -7q44 0 145 101t101 137l-4 9q-251 -228 -251 -240z" />
    <glyph glyph-name="r" unicode="r" horiz-adv-x="336" 
d="M341 147l4 -8q-21 -14 -55 -36.5t-53 -35.5t-46.5 -30.5t-44.5 -27.5t-36.5 -19.5t-33.5 -14t-25 -4.5q-33 0 -33 44q0 33 39 78t85 81.5t85 71.5t39 50q0 4 -2.5 19t-3.5 24q-68 -80 -260 -206l-7 6q206 135 266 210v19q0 28 15.5 44t33.5 16q21 0 21 -18q0 -15 -16 -29
t-32 -21q-8 -4 -8 -12q0 -15 4.5 -45t4.5 -45q0 -32 -36.5 -72t-80 -71t-80 -63.5t-36.5 -52.5q0 -16 15 -16q8 0 19.5 4t28.5 13.5t33 18.5t42.5 26t45 29.5t53 35.5z" />
    <glyph glyph-name="s" unicode="s" horiz-adv-x="366" 
d="M244 336q6 6 14.5 18.5t13.5 21.5l6 10l36 -15q-22 -5 -33 -27.5t-12.5 -54t-9 -72t-20 -78.5t-49 -75.5t-92.5 -62.5q81 18 181 85l92 61l4 -8l-91 -61q-153 -102 -282 -102q-55 0 -81.5 23t-26.5 58q0 38 26.5 70.5t60.5 32.5q24 0 36 -12q64 39 120.5 86t81.5 74z
M-96 57q0 -29 21 -44.5t41 -15.5q51 0 97.5 30.5t76.5 69.5t56.5 93.5t37 84t19.5 59.5q-109 -115 -230 -194q3 -4 3 -10q0 -25 -29.5 -41.5t-62.5 -16.5q-16 0 -27 4q-3 -10 -3 -19z" />
    <glyph glyph-name="t" unicode="t" horiz-adv-x="234" 
d="M438 542l100 5l3 -6q-57 -41 -130 -104q90 -26 154 -26q125 0 232 99l22 -27q-113 -89 -238 -89q-76 0 -182 33q-126 -104 -362 -314q-79 -70 -79 -102q0 -16 18 -16q33 0 85 33q26 17 90 59.5t90 59.5l4 -8q-24 -16 -87.5 -59t-93.5 -61q-60 -36 -98 -36q-34 0 -34 33
q0 27 26 70.5t52 69.5q50 50 105.5 100t125.5 110t95 82q-62 21 -99 32t-95.5 22t-110.5 11q-112 0 -221 -45l-9 10q111 46 228 46q55 0 117.5 -11.5t97.5 -22t103 -33.5q49 44 91 85z" />
    <glyph glyph-name="u" unicode="u" horiz-adv-x="438" 
d="M58 28l106 70q55 73 172 191l91 5l3 -6q-58 -42 -166 -148.5t-108 -130.5q0 -19 19 -19q29 0 88 38q26 17 90 59.5t90 59.5l4 -8q-29 -19 -91 -61t-90 -59q-66 -41 -108 -41q-37 0 -37 38q0 21 27 60q-85 -56 -87 -57q-66 -41 -108 -41q-37 0 -37 38q0 55 215 273l91 5
l3 -6q-58 -42 -166 -148.5t-108 -130.5q0 -19 19 -19q29 0 88 38z" />
    <glyph glyph-name="v" unicode="v" horiz-adv-x="342" 
d="M351 139l-37 -25q-77 -53 -149 -53q-18 0 -33 5q-117 -88 -175 -88q-37 0 -37 38q0 55 215 273l91 5l3 -6q-58 -42 -166 -148.5t-108 -130.5q0 -19 19 -19q40 0 144 87q-3 5 -3 12q0 18 31.5 42.5t60.5 24.5q91 90 100 130q83 0 103 6l3 -5q-49 -24 -72 -44
q-10 -9 -47.5 -42.5t-76.5 -66.5t-75 -60q10 -3 26 -3q65 0 140 50l39 26z" />
    <glyph glyph-name="w" unicode="w" horiz-adv-x="536" 
d="M545 139l-37 -25q-77 -53 -149 -53q-18 0 -33 5q-117 -88 -175 -88q-37 0 -37 38q0 18 18 47l-67 -44q-66 -41 -108 -41q-37 0 -37 38q0 55 215 273l91 5l3 -6q-58 -42 -166 -148.5t-108 -130.5q0 -19 19 -19q29 0 88 38q4 2 84 55q49 69 183 206l91 5l3 -6
q-58 -42 -166 -148.5t-108 -130.5q0 -19 19 -19q40 0 144 87q-3 5 -3 12q0 18 31.5 42.5t60.5 24.5q91 90 100 130q83 0 103 6l3 -5q-49 -24 -72 -44q-10 -9 -47.5 -42.5t-76.5 -66.5t-75 -60q10 -3 26 -3q65 0 140 50l39 26z" />
    <glyph glyph-name="x" unicode="x" horiz-adv-x="412" 
d="M56 171l-56 -38l-7 6l61 41q9 6 34.5 24t36 25t31 20.5t31.5 20t25.5 14t24 10.5t16.5 3q19 0 19 -20q0 -32 -19 -73q95 69 148 69q19 0 30 -11t11 -26q0 -28 -31 -28q-9 0 -15 6t-6 15q0 20 22 30q-3 7 -15 7q-53 0 -150 -76q-20 -37 -56 -78.5t-60.5 -67t-24.5 -31.5
q0 -20 35 -20q43 0 96 35l180 119l4 -8q-26 -17 -89 -60t-92 -60q-61 -36 -104 -36q-50 0 -50 53q0 22 12 51q-137 -100 -182 -100q-35 0 -35 29q0 16 11.5 29t30.5 13q15 0 15 -14q0 -12 -12.5 -23.5t-30.5 -11.5h-5q6 -14 24 -14q48 0 191 105q18 35 55 76t64 68t27 34
q0 8 -8 8q-12 0 -40.5 -16t-53.5 -33t-56.5 -40t-36.5 -26z" />
    <glyph glyph-name="y" unicode="y" horiz-adv-x="388" 
d="M58 28l98 65q58 63 162 186q5 7 19 7q41 0 77 5l2 -3q-30 -22 -48 -42q-146 -159 -259 -262q2 -1 7 -1q8 0 19.5 4t28.5 13.5t33 18.5t42.5 26t45 29.5t53 35.5l55.5 37l4 -8q-19 -13 -54.5 -36.5t-53.5 -35.5t-46 -30.5t-44.5 -27.5t-36.5 -19.5t-34 -14.5t-25 -4
q-6 0 -8 1q-73 -65 -139 -114q84 -22 159 -50l-29 -26q-67 32 -152 60q-249 -178 -466 -178q-97 0 -146.5 22t-49.5 56q0 55 110.5 104.5t280.5 49.5q124 0 258 -30q95 77 208 197l-68 -44q-66 -41 -108 -41q-37 0 -37 38q0 55 215 273l91 5l3 -6q-58 -42 -166 -148.5
t-108 -130.5q0 -19 19 -19q29 0 88 38zM-350 -114q-151 0 -255 -45t-104 -95q0 -31 48.5 -50.5t143.5 -19.5q195 0 420 175q-127 35 -253 35z" />
    <glyph glyph-name="z" unicode="z" horiz-adv-x="411" 
d="M-274 -358q-78 0 -78 42q0 36 55 86.5t155.5 98.5t211.5 68q24 40 24 64q0 5 -2 13q-69 -27 -133 -27q-23 0 -23 13q0 18 32 31.5t74 13.5q9 0 25 -2q66 45 123.5 111t57.5 95q0 14 -16 14q-40 0 -162 -83l-69 -47l-7 6l72 48q154 102 209 102q40 0 40 -38
q0 -48 -59.5 -118.5t-145.5 -110.5q22 -19 49 -19q36 0 94 36q26 16 82 54t81 54l4 -8l-164 -109q-52 -35 -95 -35q-23 0 -46 12q5 -13 5 -28q0 -13 -5 -35q45 6 94 6q20 0 60 -1.5t71 -3t31 -2.5q0 -2 -5.5 -17.5t-7.5 -15.5q-53 31 -154 31q-47 0 -92 -6
q-20 -62 -76.5 -128.5t-141.5 -115.5t-168 -49zM-342 -313q0 -27 46 -27q71 0 186.5 89t173.5 178q-107 -21 -204 -68t-149.5 -94t-52.5 -78zM42 38q-38 0 -68.5 -10.5t-30.5 -24.5q0 -6 13 -6q40 0 102 40q-2 0 -7.5 0.5t-8.5 0.5z" />
    <glyph glyph-name="braceleft" unicode="{" horiz-adv-x="322" 
d="M107 451q0 25 42 25q26 0 51 -13t34 -36q33 14 65 52.5t60 81t62.5 83.5t88.5 68t123 27q63 0 136 -21l-6 -13q-38 5 -66 5q-55 0 -102.5 -14.5t-81.5 -39t-63.5 -54t-54.5 -60.5t-48.5 -58t-51.5 -47.5t-57 -27.5v-4q0 -32 -25 -90t-54.5 -112.5t-54.5 -122.5t-25 -119
q0 -82 63 -130l-3 -12q-105 67 -105 180q0 66 35.5 148.5t76.5 155.5t48 103q-40 2 -63.5 16t-23.5 29zM125 447q0 -11 16.5 -20.5t43.5 -9.5h10q0 1 0.5 2.5t0.5 2.5q0 20 -13 31t-28 11q-30 0 -30 -17z" />
    <glyph glyph-name="bar" unicode="|" horiz-adv-x="333" 
d="M-37 -475l-52 -38l-8 2q23 51 62.5 155t99 272t102.5 289.5t119.5 341.5t102.5 295l3 1q0 -2 1.5 -4.5t1.5 -3.5l9 -8q-48 -142 -159.5 -452.5t-180 -517.5t-85.5 -307q-3 -20 -16 -25z" />
    <glyph glyph-name="braceright" unicode="}" horiz-adv-x="309" 
d="M191 254q0 35 31.5 97.5t62.5 133.5t31 127q0 78 -58 133l8 7q96 -61 96 -154q0 -57 -36.5 -130.5t-73 -137.5t-36.5 -99v-4q4 1 13 1q32 0 50 -20.5t18 -45.5q0 -15 -9 -24t-22 -9q-18 0 -36 15t-29 44q-20 -15 -46 -51t-49.5 -77.5t-56 -87.5t-65 -83t-75.5 -61
t-89 -24q-69 0 -134 50l11 8q37 -26 83 -26q51 0 100.5 34t89.5 85t76.5 104t75 99t71.5 61q-2 22 -2 35zM263 138q18 0 18 18q0 16 -13.5 30.5t-32.5 14.5q-7 0 -16 -3q6 -28 19 -44t25 -16z" />
    <glyph glyph-name="exclamdown" unicode="&#xa1;" horiz-adv-x="355" 
d="M244 290q41 0 41 -36q0 -27 -23.5 -52.5t-54.5 -25.5q-41 0 -41 36q0 27 23.5 52.5t54.5 25.5zM151 118l-354 -387l-135 -3l-3 6l482 386z" />
    <glyph glyph-name="cent" unicode="&#xa2;" horiz-adv-x="376" 
d="M-175 -176l-4 4q55 40 186 152q-25 12 -25 42q0 34 32.5 82.5t81 92.5t112.5 74.5t121 30.5q28 0 33 -18l255 221l7 -15q-50 -28 -260 -219q-2 -22 -22 -43.5t-44 -21.5h-6q-39 -35 -79 -72t-66 -61.5t-28 -26.5q-29 -27 -65 -62q1 0 5 -0.5t7 -0.5q52 0 102 29
q21 12 208 135l4 -8q-27 -17 -73.5 -49t-78 -52.5t-56.5 -33.5q-63 -33 -121 -33h-10q-124 -120 -135 -132q-9 -11 -19 -11q-38 0 -62 -4zM279 221q0 14 16.5 28t42.5 14q2 2 5 4.5t6.5 5t5.5 4.5q-3 15 -19 15q-38 0 -112.5 -55t-133.5 -124t-59 -104q0 -6 1 -9
q180 154 248 213q-1 2 -1 8z" />
    <glyph glyph-name="sterling" unicode="&#xa3;" horiz-adv-x="642" 
d="M179 156l-12 19q61 9 203 11l28 37q-109 -3 -202 -19l-12 19q66 11 222 11q11 15 45.5 62.5t49.5 66.5t46 58t52.5 59t52.5 47t62 44.5t64 29.5q62 23 134 23q123 0 138 -82l21 9l6 -9l-26 -11q0 -1 0.5 -4t0.5 -5q0 -41 -30 -72.5t-78 -31.5q-23 0 -23 16q0 17 30 45.5
t83 54.5q-5 80 -129 80q-61 0 -110 -17q-39 -14 -73.5 -38.5t-57.5 -46.5t-52 -65t-41 -64.5t-42 -77t-39 -72.5q97 -2 173 -8l-12 -19q-82 13 -168 16l-21 -37q103 -2 184 -8l-12 -19q-89 14 -179 16q-73 -117 -158 -175q104 -32 181 -93l-22 -25q-82 70 -182 104
q-119 -71 -289 -71q-136 0 -136 35q0 27 77.5 52.5t179.5 25.5q51 0 99 -7q80 58 155 154q-102 -4 -181 -18zM83 17q-57 0 -107 -10.5t-76.5 -25t-26.5 -27.5q0 -20 64 -20q135 0 250 74q-55 9 -104 9z" />
    <glyph glyph-name="yen" unicode="&#xa5;" horiz-adv-x="585" 
d="M153 73l-12 19q58 9 194 11q22 24 31 36q-112 -3 -196 -18l-12 19q64 9 218 11q92 116 92 197q0 53 -37 81t-94 28q-82 0 -133 -47t-51 -97q0 -23 13.5 -37t38.5 -14q76 0 209 119l8 -2q-134 -131 -218 -131q-32 0 -49 18.5t-17 47.5q0 55 54.5 103.5t149.5 48.5
q60 0 99.5 -29t39.5 -85q0 -81 -90 -201h6q21 19 81 72.5t88 77t85 65t99.5 61.5t102.5 38t122 22l-2 -18q-86 -3 -161.5 -29.5t-136.5 -73.5t-103.5 -92t-88.5 -105l-15 -19q94 -1 169 -8l-12 -19q-83 13 -166 16q-15 -20 -31 -37q110 -2 192 -8l-12 -19q-92 15 -190 17
q-77 -81 -167.5 -115.5t-225.5 -34.5q-62 0 -150 8l9 11q39 -4 84 -4q179 0 355 134q-94 -4 -170 -18z" />
    <glyph glyph-name="section" unicode="&#xa7;" horiz-adv-x="652" 
d="M225 -66q-127 0 -196.5 42t-69.5 98q0 58 55 94t123 36q53 0 88.5 -24.5t35.5 -71.5q0 -9 -1.5 -18.5t-4 -17t-5 -13t-4.5 -8.5l-1 -3h-80l-4 6q22 3 52.5 28.5t30.5 47.5q0 32 -31.5 50t-77.5 18q-64 0 -115 -32.5t-51 -91.5q0 -50 54.5 -87.5t150.5 -37.5q75 0 154 63
t79 134q0 20 -6.5 55t-6.5 51q0 55 37 93.5t94 55.5q24 45 77.5 70.5t109.5 25.5q75 0 111 -25.5t36 -60.5q0 -22 -14 -38.5t-35 -16.5q-20 0 -20 17q0 15 16.5 31.5t40.5 20.5q-18 65 -139 65q-70 0 -128.5 -42t-58.5 -107q0 -33 7 -94t7 -87q0 -54 -24.5 -87.5
t-89.5 -46.5q-36 -92 -196 -92zM405 256q0 -31 13.5 -85.5t13.5 -80.5q0 -17 -4 -41q50 27 68 72t18 106q0 19 -2 56.5t-2 54.5q0 29 11 54q-50 -18 -83 -54t-33 -82z" />
    <glyph glyph-name="dieresis" unicode="&#xa8;" horiz-adv-x="559" 
d="M296 352q-18 0 -18 16q0 20 24 43.5t51 23.5q21 0 21 -16q0 -19 -26 -43t-52 -24zM176 352q-18 0 -18 16q0 20 24 43.5t51 23.5q21 0 21 -16q0 -19 -26 -43t-52 -24z" />
    <glyph glyph-name="copyright" unicode="&#xa9;" horiz-adv-x="586" 
d="M535 304q0 -108 -89.5 -196.5t-203.5 -88.5q-85 0 -138 53.5t-53 134.5q0 109 88.5 197.5t203.5 88.5q85 0 138.5 -54t53.5 -135zM247 51q103 0 188 71.5t85 175.5q0 74 -52.5 120t-135.5 46q-104 0 -186 -74t-82 -179q0 -73 50.5 -116.5t132.5 -43.5zM381 311
q-15 0 -15 11t12.5 21t32.5 10h11q1 3 1 9q0 13 -14 13q-45 0 -137 -85.5t-92 -126.5q0 -20 27 -20q38 0 76 22q14 8 156 101l3 -6q-17 -11 -74.5 -49.5t-81.5 -51.5q-48 -25 -91 -25q-51 0 -51 39q0 56 88 133t172 77q26 0 26 -21q0 -17 -15.5 -34t-33.5 -17z" />
    <glyph glyph-name="ordfeminine" unicode="&#xaa;" 
d="M282 251l18 20q-129 -96 -177 -96q-21 0 -21 24q0 21 17.5 49.5t48.5 57t84.5 48t116.5 19.5h32q31 0 50 3q-9 -9 -56.5 -57.5t-80.5 -81.5q-32 -32 -32 -46q0 -6 7 -6q15 0 47 21q19 11 117 77l3 -5q-23 -15 -62.5 -41.5t-55.5 -36.5q-34 -22 -60 -22t-26 20t30 53z
M324 295l69 70q-3 2 -30 2q-42 0 -101 -38.5t-99 -81t-40 -59.5q0 -6 7 -6q43 0 194 113z" />
    <glyph glyph-name="guillemotleft" unicode="&#xab;" horiz-adv-x="611" 
d="M432 264q-4 0 -75 -28.5t-157.5 -62.5t-119.5 -45q51 -30 157 -81t115 -52l-3 -6q-27 -2 -40 -9l-256 144l8 11l326 143q9 -4 19.5 -6t16.5 -2h6zM581 264q-4 0 -76 -28.5t-160 -62t-120 -44.5q55 -32 151.5 -82.5t104.5 -51.5l-3 -6q-27 -2 -40 -9l-240 145l8 11
l330 142q9 -4 19.5 -6t16.5 -2h6z" />
    <glyph glyph-name="registered" unicode="&#xae;" horiz-adv-x="348" 
d="M318 283q0 -61 -50.5 -111t-114.5 -50q-47 0 -77.5 30t-30.5 76q0 61 50.5 111t114.5 50q48 0 78 -30.5t30 -75.5zM156 140q58 0 105.5 40.5t47.5 98.5q0 42 -29.5 68t-75.5 26q-58 0 -104.5 -42t-46.5 -101q0 -40 28.5 -65t74.5 -25zM249 239l1 -3q-6 -4 -16.5 -11.5
t-16.5 -11.5l-15 -10t-14.5 -9t-13 -7.5t-12.5 -7t-10.5 -5t-9.5 -3.5t-7 -1q-13 0 -13 17q0 21 48.5 62t48.5 48t-3 17q-23 -29 -102 -81l-3 3q88 57 105 82v8q0 11 6.5 17.5t13.5 6.5q8 0 8 -8q0 -10 -19 -19q-3 -1 -3 -5q0 -6 1.5 -17.5t1.5 -17.5q0 -16 -23 -37
t-46 -38.5t-23 -27.5q0 -6 7 -6q12 0 109 65z" />
    <glyph glyph-name="macron" unicode="&#xaf;" 
d="M197 342v6l17 26q2 5 9 5q88 -5 169 -5q74 0 121 5l1 -5l-25 -31q-65 4 -129 4q-123 0 -163 -5z" />
    <glyph glyph-name="degree" unicode="&#xb0;" horiz-adv-x="281" 
d="M199 321q22 0 49 20.5t27 34.5q0 8 -12 8q-24 0 -48.5 -21t-24.5 -35q0 -7 9 -7zM192 313q-22 0 -22 14q0 18 32.5 41t68.5 23q27 0 27 -14q0 -18 -35.5 -41t-70.5 -23z" />
    <glyph glyph-name="acute" unicode="&#xb4;" horiz-adv-x="833" 
d="M222 344l-6 2q95 99 106 118q6 8 20 8l86 5l2 -7q-193 -118 -208 -126z" />
    <glyph glyph-name="paragraph" unicode="&#xb6;" horiz-adv-x="655" 
d="M197 249q-66 0 -66 44q0 31 33.5 73t86 81t128 66.5t148.5 27.5q106 0 197 -58q-85 -64 -333.5 -283t-349.5 -292q-25 -17 -25 -31q0 -10 17 -10q35 1 252 187t464 413l18 -10q-228 -214 -461.5 -408t-281.5 -194q-21 0 -21 21q0 33 33 76q22 28 64 65.5t69 58.5
t95.5 72.5t80.5 60.5q17 13 102 76.5t134 101.5q-266 -138 -384 -138z" />
    <glyph glyph-name="periodcentered" unicode="&#xb7;" horiz-adv-x="252" 
d="M86 96q-41 0 -41 36q0 27 23.5 52.5t54.5 25.5q41 0 41 -36q0 -27 -23.5 -52.5t-54.5 -25.5z" />
    <glyph glyph-name="cedilla" unicode="&#xb8;" horiz-adv-x="231" 
d="M-51 -141l3 4q17 -1 36 -1q31 0 57 15.5t41 34.5t37 37t46 21l-1 -8q-25 -7 -40 -26.5t-21.5 -39t-24.5 -35t-48 -15.5q-39 0 -85 13z" />
    <glyph glyph-name="ordmasculine" unicode="&#xba;" horiz-adv-x="343" 
d="M137 172q-41 0 -41 33q0 49 70.5 111t149.5 62q23 0 23 -19q0 -40 -79 -113.5t-123 -73.5zM135 178q45 0 121 74t76 108q0 12 -14 12q-33 0 -116.5 -75t-83.5 -107q0 -12 17 -12z" />
    <glyph glyph-name="guillemotright" unicode="&#xbb;" horiz-adv-x="547" 
d="M108 -6q4 0 75 28.5t157.5 62.5t119.5 45q-51 30 -157 81t-115 52l3 6q27 2 40 9l256 -144l-8 -11l-326 -143q-9 4 -19.5 6t-16.5 2h-6zM-41 -6q4 0 76 28.5t160 62t120 44.5q-55 32 -151.5 82.5t-104.5 51.5l3 6q27 2 40 9l240 -145l-8 -11l-330 -142q-9 4 -19.5 6
t-16.5 2h-6z" />
    <glyph glyph-name="questiondown" unicode="&#xbf;" horiz-adv-x="296" 
d="M237 290q41 0 41 -36q0 -27 -23.5 -52.5t-54.5 -25.5q-41 0 -41 36q0 27 23.5 52.5t54.5 25.5zM125 121l12 -4q-11 -54 -56 -102t-101.5 -82t-111.5 -65.5t-92.5 -66t-37.5 -70.5q0 -43 68 -43q55 0 129.5 26t130.5 68.5t56 81.5q0 23 -30 23q-51 0 -151.5 -55
t-152.5 -110l-6 4q36 71 132 123.5t167 52.5q54 0 54 -36q0 -40 -56 -84.5t-133 -72.5t-137 -28q-86 0 -86 61q0 60 28 109.5t70.5 80.5t93 59t95 46t77 40t38.5 44z" />
    <glyph glyph-name="Agrave" unicode="&#xc0;" horiz-adv-x="1423" 
d="M185 248q0 -29 -17.5 -51t-56.5 -27q-79 -11 -79 -44q0 -54 68 -88t186 -34q140 0 322 53.5t386 166.5q59 32 175 102q-49 98 -151 160q-114 -93 -258.5 -143.5t-272.5 -50.5q-117 0 -189.5 42.5t-72.5 122.5q0 79 106.5 128t260.5 49q114 0 226.5 -30t201.5 -90
q107 102 152 233h40q-52 -137 -175 -245q96 -70 142 -171q34 21 122 74t126 76t116 67.5t122 65.5t112 51.5t117.5 44t107.5 24.5t110 11q19 0 19 -5q0 -2 -2.5 -4t-4.5 -3l-3 -1q-396 -145 -819 -583q-36 -37 -61 -76.5t-32 -60.5l-7 -21q-19 0 -52 -3.5t-39 -3.5
q-7 0 -7 2t105 98q2 36 2 53q0 65 -18 129q-92 -73 -164.5 -120t-172 -93t-217.5 -68t-260 -22q-80 0 -147 11.5t-120 35.5t-82.5 64.5t-29.5 94.5q0 62 38 97t83 35q28 0 46 -14t18 -39zM640 581q-99 0 -185.5 -20t-138.5 -56t-52 -79q0 -57 62.5 -88.5t163.5 -31.5
q125 0 264 48.5t246 141.5q-150 85 -360 85zM1219 140q0 -16 -2 -48l45 43q78 75 107 102.5t100.5 92.5t110 95.5t107.5 82.5t123.5 84t127 70t147.5 68q-118 0 -281.5 -67.5t-261.5 -131.5q-46 -30 -97 -67.5t-80 -60t-88.5 -70.5t-75.5 -61q18 -65 18 -132zM2169 793
l-194 110l2 7q61 -5 86 -5q14 0 20 -8q5 -8 28 -33.5t43 -47.5l21 -21z" />
    <glyph glyph-name="Aacute" unicode="&#xc1;" horiz-adv-x="1423" 
d="M185 248q0 -29 -17.5 -51t-56.5 -27q-79 -11 -79 -44q0 -54 68 -88t186 -34q140 0 322 53.5t386 166.5q59 32 175 102q-49 98 -151 160q-114 -93 -258.5 -143.5t-272.5 -50.5q-117 0 -189.5 42.5t-72.5 122.5q0 79 106.5 128t260.5 49q114 0 226.5 -30t201.5 -90
q107 102 152 233h40q-52 -137 -175 -245q96 -70 142 -171q34 21 122 74t126 76t116 67.5t122 65.5t112 51.5t117.5 44t107.5 24.5t110 11q19 0 19 -5q0 -2 -2.5 -4t-4.5 -3l-3 -1q-396 -145 -819 -583q-36 -37 -61 -76.5t-32 -60.5l-7 -21q-19 0 -52 -3.5t-39 -3.5
q-7 0 -7 2t105 98q2 36 2 53q0 65 -18 129q-92 -73 -164.5 -120t-172 -93t-217.5 -68t-260 -22q-80 0 -147 11.5t-120 35.5t-82.5 64.5t-29.5 94.5q0 62 38 97t83 35q28 0 46 -14t18 -39zM640 581q-99 0 -185.5 -20t-138.5 -56t-52 -79q0 -57 62.5 -88.5t163.5 -31.5
q125 0 264 48.5t246 141.5q-150 85 -360 85zM1219 140q0 -16 -2 -48l45 43q78 75 107 102.5t100.5 92.5t110 95.5t107.5 82.5t123.5 84t127 70t147.5 68q-118 0 -281.5 -67.5t-261.5 -131.5q-46 -30 -97 -67.5t-80 -60t-88.5 -70.5t-75.5 -61q18 -65 18 -132zM2097 806l-6 2
q95 99 106 118q6 8 20 8l86 5l2 -7q-193 -118 -208 -126z" />
    <glyph glyph-name="Acircumflex" unicode="&#xc2;" horiz-adv-x="1423" 
d="M185 248q0 -29 -17.5 -51t-56.5 -27q-79 -11 -79 -44q0 -54 68 -88t186 -34q140 0 322 53.5t386 166.5q59 32 175 102q-49 98 -151 160q-114 -93 -258.5 -143.5t-272.5 -50.5q-117 0 -189.5 42.5t-72.5 122.5q0 79 106.5 128t260.5 49q114 0 226.5 -30t201.5 -90
q107 102 152 233h40q-52 -137 -175 -245q96 -70 142 -171q34 21 122 74t126 76t116 67.5t122 65.5t112 51.5t117.5 44t107.5 24.5t110 11q19 0 19 -5q0 -2 -2.5 -4t-4.5 -3l-3 -1q-396 -145 -819 -583q-36 -37 -61 -76.5t-32 -60.5l-7 -21q-19 0 -52 -3.5t-39 -3.5
q-7 0 -7 2t105 98q2 36 2 53q0 65 -18 129q-92 -73 -164.5 -120t-172 -93t-217.5 -68t-260 -22q-80 0 -147 11.5t-120 35.5t-82.5 64.5t-29.5 94.5q0 62 38 97t83 35q28 0 46 -14t18 -39zM640 581q-99 0 -185.5 -20t-138.5 -56t-52 -79q0 -57 62.5 -88.5t163.5 -31.5
q125 0 264 48.5t246 141.5q-150 85 -360 85zM1219 140q0 -16 -2 -48l45 43q78 75 107 102.5t100.5 92.5t110 95.5t107.5 82.5t123.5 84t127 70t147.5 68q-118 0 -281.5 -67.5t-261.5 -131.5q-46 -30 -97 -67.5t-80 -60t-88.5 -70.5t-75.5 -61q18 -65 18 -132zM2130 875
l-172 -76l-6 2l166 117q30 1 55 1q9 0 12 -8l11 -127l-6 -2z" />
    <glyph glyph-name="Atilde" unicode="&#xc3;" horiz-adv-x="1423" 
d="M185 248q0 -29 -17.5 -51t-56.5 -27q-79 -11 -79 -44q0 -54 68 -88t186 -34q140 0 322 53.5t386 166.5q59 32 175 102q-49 98 -151 160q-114 -93 -258.5 -143.5t-272.5 -50.5q-117 0 -189.5 42.5t-72.5 122.5q0 79 106.5 128t260.5 49q114 0 226.5 -30t201.5 -90
q107 102 152 233h40q-52 -137 -175 -245q96 -70 142 -171q34 21 122 74t126 76t116 67.5t122 65.5t112 51.5t117.5 44t107.5 24.5t110 11q19 0 19 -5q0 -2 -2.5 -4t-4.5 -3l-3 -1q-396 -145 -819 -583q-36 -37 -61 -76.5t-32 -60.5l-7 -21q-19 0 -52 -3.5t-39 -3.5
q-7 0 -7 2t105 98q2 36 2 53q0 65 -18 129q-92 -73 -164.5 -120t-172 -93t-217.5 -68t-260 -22q-80 0 -147 11.5t-120 35.5t-82.5 64.5t-29.5 94.5q0 62 38 97t83 35q28 0 46 -14t18 -39zM640 581q-99 0 -185.5 -20t-138.5 -56t-52 -79q0 -57 62.5 -88.5t163.5 -31.5
q125 0 264 48.5t246 141.5q-150 85 -360 85zM1219 140q0 -16 -2 -48l45 43q78 75 107 102.5t100.5 92.5t110 95.5t107.5 82.5t123.5 84t127 70t147.5 68q-118 0 -281.5 -67.5t-261.5 -131.5q-46 -30 -97 -67.5t-80 -60t-88.5 -70.5t-75.5 -61q18 -65 18 -132zM2262 860l8 -5
q-31 -59 -68 -59q-17 0 -53 17t-56 17q-29 0 -53 -24l-4 7q39 43 77 43q17 0 47.5 -11t46.5 -11q28 0 55 26z" />
    <glyph glyph-name="Adieresis" unicode="&#xc4;" horiz-adv-x="1423" 
d="M185 248q0 -29 -17.5 -51t-56.5 -27q-79 -11 -79 -44q0 -54 68 -88t186 -34q140 0 322 53.5t386 166.5q59 32 175 102q-49 98 -151 160q-114 -93 -258.5 -143.5t-272.5 -50.5q-117 0 -189.5 42.5t-72.5 122.5q0 79 106.5 128t260.5 49q114 0 226.5 -30t201.5 -90
q107 102 152 233h40q-52 -137 -175 -245q96 -70 142 -171q34 21 122 74t126 76t116 67.5t122 65.5t112 51.5t117.5 44t107.5 24.5t110 11q19 0 19 -5q0 -2 -2.5 -4t-4.5 -3l-3 -1q-396 -145 -819 -583q-36 -37 -61 -76.5t-32 -60.5l-7 -21q-19 0 -52 -3.5t-39 -3.5
q-7 0 -7 2t105 98q2 36 2 53q0 65 -18 129q-92 -73 -164.5 -120t-172 -93t-217.5 -68t-260 -22q-80 0 -147 11.5t-120 35.5t-82.5 64.5t-29.5 94.5q0 62 38 97t83 35q28 0 46 -14t18 -39zM640 581q-99 0 -185.5 -20t-138.5 -56t-52 -79q0 -57 62.5 -88.5t163.5 -31.5
q125 0 264 48.5t246 141.5q-150 85 -360 85zM1219 140q0 -16 -2 -48l45 43q78 75 107 102.5t100.5 92.5t110 95.5t107.5 82.5t123.5 84t127 70t147.5 68q-118 0 -281.5 -67.5t-261.5 -131.5q-46 -30 -97 -67.5t-80 -60t-88.5 -70.5t-75.5 -61q18 -65 18 -132zM2185 801
q-18 0 -18 16q0 20 24 43.5t51 23.5q21 0 21 -16q0 -19 -26 -43t-52 -24zM2065 801q-18 0 -18 16q0 20 24 43.5t51 23.5q21 0 21 -16q0 -19 -26 -43t-52 -24z" />
    <glyph glyph-name="Aring" unicode="&#xc5;" horiz-adv-x="1423" 
d="M185 248q0 -29 -17.5 -51t-56.5 -27q-79 -11 -79 -44q0 -54 68 -88t186 -34q140 0 322 53.5t386 166.5q59 32 175 102q-49 98 -151 160q-114 -93 -258.5 -143.5t-272.5 -50.5q-117 0 -189.5 42.5t-72.5 122.5q0 79 106.5 128t260.5 49q114 0 226.5 -30t201.5 -90
q107 102 152 233h40q-52 -137 -175 -245q96 -70 142 -171q34 21 122 74t126 76t116 67.5t122 65.5t112 51.5t117.5 44t107.5 24.5t110 11q19 0 19 -5q0 -2 -2.5 -4t-4.5 -3l-3 -1q-396 -145 -819 -583q-36 -37 -61 -76.5t-32 -60.5l-7 -21q-19 0 -52 -3.5t-39 -3.5
q-7 0 -7 2t105 98q2 36 2 53q0 65 -18 129q-92 -73 -164.5 -120t-172 -93t-217.5 -68t-260 -22q-80 0 -147 11.5t-120 35.5t-82.5 64.5t-29.5 94.5q0 62 38 97t83 35q28 0 46 -14t18 -39zM640 581q-99 0 -185.5 -20t-138.5 -56t-52 -79q0 -57 62.5 -88.5t163.5 -31.5
q125 0 264 48.5t246 141.5q-150 85 -360 85zM1219 140q0 -16 -2 -48l45 43q78 75 107 102.5t100.5 92.5t110 95.5t107.5 82.5t123.5 84t127 70t147.5 68q-118 0 -281.5 -67.5t-261.5 -131.5q-46 -30 -97 -67.5t-80 -60t-88.5 -70.5t-75.5 -61q18 -65 18 -132zM2112 801
q22 0 49 20.5t27 34.5q0 8 -12 8q-24 0 -48.5 -21t-24.5 -35q0 -7 9 -7zM2105 793q-22 0 -22 14q0 18 32.5 41t68.5 23q27 0 27 -14q0 -18 -35.5 -41t-70.5 -23z" />
    <glyph glyph-name="AE" unicode="&#xc6;" horiz-adv-x="1852" 
d="M2215 746q130 0 193.5 -47t63.5 -110q0 -43 -28.5 -74.5t-71.5 -31.5t-43 30q0 24 33 53t93 47q0 15 -13 34t-38.5 39t-73 33.5t-106.5 13.5q-83 0 -157 -24.5t-123 -63t-78.5 -83.5t-34.5 -88q87 -8 142 -34t55 -61q0 -21 -18 -32t-46 -11q-46 0 -91.5 26t-58.5 71
q-74 -4 -151.5 -21t-157.5 -52.5t-141.5 -84t-101 -122.5t-39.5 -162q0 -119 85 -210.5t214.5 -136.5t276.5 -45q127 0 267 51t213 125l22 -36q-221 -155 -509 -155q-166 0 -306.5 54.5t-229.5 164t-89 254.5q0 90 37 162q-2 13 -11 45q-194 -154 -389.5 -227.5
t-424.5 -73.5q-80 0 -147 11.5t-120 35.5t-82.5 64.5t-29.5 94.5q0 62 38 97t83 35q28 0 46 -14t18 -39q0 -29 -17.5 -51t-56.5 -27q-79 -11 -79 -44q0 -54 68 -88t186 -34q92 0 191 19.5t183 48.5t181 75t168 85.5t160 93.5q-49 98 -151 160q-114 -93 -258.5 -143.5
t-272.5 -50.5q-117 0 -189.5 42.5t-72.5 122.5q0 79 106.5 128t260.5 49q114 0 226.5 -30t201.5 -90q107 102 152 233h40q-52 -137 -175 -245q96 -70 142 -171q34 21 122 74t126 76t116 67.5t122 65.5t112 51.5t117.5 44t107.5 24.5t110 11q35 0 53 -1q32 2 50 2zM640 581
q-99 0 -185.5 -20t-138.5 -56t-52 -79q0 -57 62.5 -88.5t163.5 -31.5q125 0 264 48.5t246 141.5q-150 85 -360 85zM1210 232q47 84 141.5 142t196.5 81t207 23q20 0 54 -2q5 76 77.5 150t191.5 104q-117 -2 -275.5 -68.5t-260.5 -130.5q-49 -31 -100.5 -68.5t-81 -61
t-85.5 -70t-74 -61.5q6 -18 9 -38zM1963 345q50 0 50 36q0 24 -44 38.5t-115 14.5h-21q11 -41 50.5 -65t79.5 -24z" />
    <glyph glyph-name="Ccedilla" unicode="&#xc7;" horiz-adv-x="820" 
d="M-278 218q-233 0 -361 64.5t-128 150.5q0 82 58.5 139.5t155 84.5t220.5 27q153 0 317.5 -42t306.5 -120q141 105 303 170t311 65q30 0 30 -21q0 -31 -58 -90t-155.5 -127.5t-250.5 -137.5t-318 -110q-83 -105 -83 -179q0 -78 97 -104q32 109 137.5 199t230.5 136.5
t234 46.5q73 0 73 -58q0 -82 -93 -166t-224.5 -135.5t-244.5 -51.5q-39 0 -72 3q-27 -52 -27 -99q0 -91 54 -157.5t140 -98.5t191 -32q130 0 253.5 51t206.5 148l26 -23q-99 -90 -232 -139.5t-265 -49.5q-112 0 -200.5 35t-144.5 113t-56 190q0 32 6 60q-21 -8 -35 -28
t-20.5 -38.5t-24 -33t-46.5 -14.5q-39 0 -85 13l3 4q17 -1 36 -1q31 0 56 14.5t40 33t36 36.5t42 23q-167 30 -167 151q0 57 37 125q-156 -27 -310 -27zM-257 640q-200 0 -336 -59t-136 -160q0 -80 113.5 -135.5t325.5 -55.5q166 0 330 29q78 132 242 256q-114 62 -256 93.5
t-283 31.5zM286 -25q106 0 233 49.5t218.5 130.5t91.5 160q0 40 -38 40q-66 0 -180 -53.5t-228 -143.5t-166 -179q27 -4 69 -4zM917 729q0 10 -12 10q-95 0 -238 -69t-278.5 -173.5t-222.5 -209.5q132 34 256 86t211 105t153 105.5t98.5 90.5t32.5 55z" />
    <glyph glyph-name="Egrave" unicode="&#xc8;" horiz-adv-x="665" 
d="M1028 746q130 0 193.5 -47t63.5 -110q0 -43 -28.5 -74.5t-71.5 -31.5t-43 30q0 24 33 53t93 47q0 15 -13 34t-38.5 39t-73 33.5t-106.5 13.5q-83 0 -157 -24.5t-123 -63t-78.5 -83.5t-34.5 -88q87 -8 142 -34t55 -61q0 -21 -18 -32t-46 -11q-46 0 -91.5 26t-58.5 71
q-74 -4 -151.5 -21t-157.5 -52.5t-141.5 -84t-101 -122.5t-39.5 -162q0 -119 85 -210.5t214.5 -136.5t276.5 -45q127 0 267 51t213 125l22 -36q-221 -155 -509 -155q-166 0 -306.5 54.5t-229.5 164t-89 254.5q0 90 37 163t97 120t138.5 79t157.5 45.5t158 13.5q20 0 54 -2
q3 46 32.5 92.5t79 86.5t127 65.5t167.5 25.5zM776 345q50 0 50 36q0 24 -44 38.5t-115 14.5h-21q11 -41 50.5 -65t79.5 -24zM1254 791l-194 110l2 7q61 -5 86 -5q14 0 20 -8q5 -8 28 -33.5t44 -47.5l20 -21z" />
    <glyph glyph-name="Eacute" unicode="&#xc9;" horiz-adv-x="665" 
d="M1028 746q130 0 193.5 -47t63.5 -110q0 -43 -28.5 -74.5t-71.5 -31.5t-43 30q0 24 33 53t93 47q0 15 -13 34t-38.5 39t-73 33.5t-106.5 13.5q-83 0 -157 -24.5t-123 -63t-78.5 -83.5t-34.5 -88q87 -8 142 -34t55 -61q0 -21 -18 -32t-46 -11q-46 0 -91.5 26t-58.5 71
q-74 -4 -151.5 -21t-157.5 -52.5t-141.5 -84t-101 -122.5t-39.5 -162q0 -119 85 -210.5t214.5 -136.5t276.5 -45q127 0 267 51t213 125l22 -36q-221 -155 -509 -155q-166 0 -306.5 54.5t-229.5 164t-89 254.5q0 90 37 163t97 120t138.5 79t157.5 45.5t158 13.5q20 0 54 -2
q3 46 32.5 92.5t79 86.5t127 65.5t167.5 25.5zM776 345q50 0 50 36q0 24 -44 38.5t-115 14.5h-21q11 -41 50.5 -65t79.5 -24zM1140 775l-6 2q95 99 106 118q6 8 20 8l86 5l2 -7q-193 -118 -208 -126z" />
    <glyph glyph-name="Ecircumflex" unicode="&#xca;" horiz-adv-x="665" 
d="M1028 746q130 0 193.5 -47t63.5 -110q0 -43 -28.5 -74.5t-71.5 -31.5t-43 30q0 24 33 53t93 47q0 15 -13 34t-38.5 39t-73 33.5t-106.5 13.5q-83 0 -157 -24.5t-123 -63t-78.5 -83.5t-34.5 -88q87 -8 142 -34t55 -61q0 -21 -18 -32t-46 -11q-46 0 -91.5 26t-58.5 71
q-74 -4 -151.5 -21t-157.5 -52.5t-141.5 -84t-101 -122.5t-39.5 -162q0 -119 85 -210.5t214.5 -136.5t276.5 -45q127 0 267 51t213 125l22 -36q-221 -155 -509 -155q-166 0 -306.5 54.5t-229.5 164t-89 254.5q0 90 37 163t97 120t138.5 79t157.5 45.5t158 13.5q20 0 54 -2
q3 46 32.5 92.5t79 86.5t127 65.5t167.5 25.5zM776 345q50 0 50 36q0 24 -44 38.5t-115 14.5h-21q11 -41 50.5 -65t79.5 -24zM1195 874l-172 -76l-6 2l166 117q30 1 55 1q9 0 12 -8l11 -127l-6 -2z" />
    <glyph glyph-name="Edieresis" unicode="&#xcb;" horiz-adv-x="665" 
d="M1028 746q130 0 193.5 -47t63.5 -110q0 -43 -28.5 -74.5t-71.5 -31.5t-43 30q0 24 33 53t93 47q0 15 -13 34t-38.5 39t-73 33.5t-106.5 13.5q-83 0 -157 -24.5t-123 -63t-78.5 -83.5t-34.5 -88q87 -8 142 -34t55 -61q0 -21 -18 -32t-46 -11q-46 0 -91.5 26t-58.5 71
q-74 -4 -151.5 -21t-157.5 -52.5t-141.5 -84t-101 -122.5t-39.5 -162q0 -119 85 -210.5t214.5 -136.5t276.5 -45q127 0 267 51t213 125l22 -36q-221 -155 -509 -155q-166 0 -306.5 54.5t-229.5 164t-89 254.5q0 90 37 163t97 120t138.5 79t157.5 45.5t158 13.5q20 0 54 -2
q3 46 32.5 92.5t79 86.5t127 65.5t167.5 25.5zM776 345q50 0 50 36q0 24 -44 38.5t-115 14.5h-21q11 -41 50.5 -65t79.5 -24zM1238 804q-18 0 -18 16q0 20 24 43.5t51 23.5q21 0 21 -16q0 -19 -26 -43t-52 -24zM1118 804q-18 0 -18 16q0 20 24 43.5t51 23.5q21 0 21 -16
q0 -19 -26 -43t-52 -24z" />
    <glyph glyph-name="Igrave" unicode="&#xcc;" horiz-adv-x="1226" 
d="M643 607q101 0 207 -25t167 -84q109 112 246 175.5t264 63.5q69 0 69 -32q0 -10 -5.5 -22t-18 -27t-21.5 -25.5t-26 -28t-22 -23.5q-29 -32 -91 -103t-100.5 -114t-104 -106t-120.5 -104t-129.5 -82.5t-151.5 -65.5v-18q0 -137 61 -263l-36 -12q-41 127 -41 250
q0 7 0.5 20t0.5 19q-119 -35 -247 -35q-267 0 -405 79t-138 195q0 52 28 105t84 100t131.5 83.5t179 58t219.5 21.5zM651 592q-144 0 -267.5 -32t-202 -83t-122.5 -112.5t-44 -123.5q0 -97 106.5 -161t312.5 -64q163 0 371 91q43 210 201 380q-52 58 -154.5 81.5
t-200.5 23.5zM1075 366q0 -38 -19 -59.5t-42 -21.5q-14 0 -23 9t-9 24q0 21 17 46t45 41q-4 40 -29 71q-154 -165 -196 -363q154 70 316.5 183t265.5 205t152 154q21 27 21 44q0 25 -46 25q-130 0 -262.5 -63.5t-238.5 -172.5q48 -51 48 -122zM1672 809l-194 110l2 7
q61 -5 86 -5q14 0 20 -8q5 -8 28 -33.5t44 -47.5l20 -21z" />
    <glyph glyph-name="Iacute" unicode="&#xcd;" horiz-adv-x="1226" 
d="M643 607q101 0 207 -25t167 -84q109 112 246 175.5t264 63.5q69 0 69 -32q0 -10 -5.5 -22t-18 -27t-21.5 -25.5t-26 -28t-22 -23.5q-29 -32 -91 -103t-100.5 -114t-104 -106t-120.5 -104t-129.5 -82.5t-151.5 -65.5v-18q0 -137 61 -263l-36 -12q-41 127 -41 250
q0 7 0.5 20t0.5 19q-119 -35 -247 -35q-267 0 -405 79t-138 195q0 52 28 105t84 100t131.5 83.5t179 58t219.5 21.5zM651 592q-144 0 -267.5 -32t-202 -83t-122.5 -112.5t-44 -123.5q0 -97 106.5 -161t312.5 -64q163 0 371 91q43 210 201 380q-52 58 -154.5 81.5
t-200.5 23.5zM1075 366q0 -38 -19 -59.5t-42 -21.5q-14 0 -23 9t-9 24q0 21 17 46t45 41q-4 40 -29 71q-154 -165 -196 -363q154 70 316.5 183t265.5 205t152 154q21 27 21 44q0 25 -46 25q-130 0 -262.5 -63.5t-238.5 -172.5q48 -51 48 -122zM1524 786l-6 2q95 99 106 118
q6 8 20 8l86 5l2 -7q-193 -118 -208 -126z" />
    <glyph glyph-name="Icircumflex" unicode="&#xce;" horiz-adv-x="1226" 
d="M643 607q101 0 207 -25t167 -84q109 112 246 175.5t264 63.5q69 0 69 -32q0 -10 -5.5 -22t-18 -27t-21.5 -25.5t-26 -28t-22 -23.5q-29 -32 -91 -103t-100.5 -114t-104 -106t-120.5 -104t-129.5 -82.5t-151.5 -65.5v-18q0 -137 61 -263l-36 -12q-41 127 -41 250
q0 7 0.5 20t0.5 19q-119 -35 -247 -35q-267 0 -405 79t-138 195q0 52 28 105t84 100t131.5 83.5t179 58t219.5 21.5zM651 592q-144 0 -267.5 -32t-202 -83t-122.5 -112.5t-44 -123.5q0 -97 106.5 -161t312.5 -64q163 0 371 91q43 210 201 380q-52 58 -154.5 81.5
t-200.5 23.5zM1075 366q0 -38 -19 -59.5t-42 -21.5q-14 0 -23 9t-9 24q0 21 17 46t45 41q-4 40 -29 71q-154 -165 -196 -363q154 70 316.5 183t265.5 205t152 154q21 27 21 44q0 25 -46 25q-130 0 -262.5 -63.5t-238.5 -172.5q48 -51 48 -122zM1612 874l-172 -76l-6 2
l166 117q30 1 55 1q9 0 12 -8l11 -127l-6 -2z" />
    <glyph glyph-name="Idieresis" unicode="&#xcf;" horiz-adv-x="1226" 
d="M643 607q101 0 207 -25t167 -84q109 112 246 175.5t264 63.5q69 0 69 -32q0 -10 -5.5 -22t-18 -27t-21.5 -25.5t-26 -28t-22 -23.5q-29 -32 -91 -103t-100.5 -114t-104 -106t-120.5 -104t-129.5 -82.5t-151.5 -65.5v-18q0 -137 61 -263l-36 -12q-41 127 -41 250
q0 7 0.5 20t0.5 19q-119 -35 -247 -35q-267 0 -405 79t-138 195q0 52 28 105t84 100t131.5 83.5t179 58t219.5 21.5zM651 592q-144 0 -267.5 -32t-202 -83t-122.5 -112.5t-44 -123.5q0 -97 106.5 -161t312.5 -64q163 0 371 91q43 210 201 380q-52 58 -154.5 81.5
t-200.5 23.5zM1075 366q0 -38 -19 -59.5t-42 -21.5q-14 0 -23 9t-9 24q0 21 17 46t45 41q-4 40 -29 71q-154 -165 -196 -363q154 70 316.5 183t265.5 205t152 154q21 27 21 44q0 25 -46 25q-130 0 -262.5 -63.5t-238.5 -172.5q48 -51 48 -122zM1636 789q-18 0 -18 16
q0 20 24 43.5t51 23.5q21 0 21 -16q0 -19 -26 -43t-52 -24zM1516 789q-18 0 -18 16q0 20 24 43.5t51 23.5q21 0 21 -16q0 -19 -26 -43t-52 -24z" />
    <glyph glyph-name="Eth" unicode="&#xd0;" horiz-adv-x="1188" 
d="M711 209v7l22 29q2 5 11 5q50 -2 107 -10q85 56 198 141q120 90 201 131q-4 116 -77 186q-72 -109 -178 -198.5t-220.5 -144t-228 -84t-211.5 -29.5q-119 0 -190 41t-71 119q0 88 69 169.5t177 138t241 90.5t259 34q122 0 217 -31t158 -104t67 -181q171 84 383 89
l-13 -20q-31 3 -61 3q-166 0 -309 -104q-4 -61 -31.5 -130t-79.5 -138t-120.5 -124.5t-163 -90t-197.5 -34.5q-74 0 -175 28q-101 -16 -209 -16q-74 0 -134.5 7.5t-96 19.5t-54.5 26t-19 28q0 20 34 33t94 13q22 0 43.5 -2t46.5 -7l40 -8t44 -12.5t39 -13t43.5 -15.5
t39.5 -14q199 47 415 185q-27 -2 -63.5 -6.5t-46.5 -5.5zM897 784q-165 0 -352 -64t-314.5 -162t-127.5 -187q0 -53 64.5 -83.5t170.5 -30.5q93 0 198.5 25.5t217.5 76.5t221 140.5t191 204.5q-93 80 -269 80zM990 238q24 2 66 6.5t51 5.5l1 -5l-32 -35q-28 1 -105 11
q-203 -174 -451 -220q81 -18 142 -18q106 0 202 34.5t162.5 89t117 121.5t76.5 130.5t30 117.5q-50 -38 -139.5 -124t-120.5 -114zM137 96q-133 0 -133 -33q0 -19 47.5 -37t107.5 -18q117 0 226 23q-6 2 -38.5 13.5t-40.5 14t-35 11t-38.5 11.5t-31.5 7.5t-35 6t-29 1.5z
" />
    <glyph glyph-name="Ntilde" unicode="&#xd1;" horiz-adv-x="908" 
d="M593 713q110 0 162.5 -42.5t52.5 -115.5q0 -9 -2 -25q200 94 301 94q37 0 37 -34q0 -32 -51.5 -95t-125 -136.5t-147.5 -150.5t-125.5 -154.5t-51.5 -131.5q0 -73 36 -129q99 68 223.5 103t240.5 35q106 0 173 -29t67 -79q0 -81 -106.5 -133.5t-248.5 -52.5
q-107 0 -201 34t-149 102q-137 -105 -169 -260l-31 10q42 157 191 263q-50 69 -50 166q0 62 28 128.5t73.5 123.5t100 111.5t109 98.5t100 79.5t73.5 60.5t28 35q0 23 -28 23q-103 0 -298 -94q-13 -82 -77 -177t-155 -176t-211 -135t-233 -54q-39 0 -39 23q0 38 98 126.5
t250.5 191t302.5 180.5q25 53 25 93q0 112 -185 112q-134 0 -269.5 -41.5t-229.5 -100.5t-153.5 -123t-59.5 -111q0 -66 113 -66q139 0 339.5 115t273.5 228l10 -7q-50 -96 -157.5 -178.5t-231 -128t-229.5 -45.5q-136 0 -136 80q0 51 59 117.5t155.5 127t238.5 102.5
t289 42zM1022 -349q139 0 243.5 50t104.5 128q0 41 -63.5 65.5t-162.5 24.5q-115 0 -238 -35t-218 -104q49 -64 139 -96.5t195 -32.5zM108 7q0 -14 22 -14q71 0 194.5 78t240.5 194t169 217q-144 -76 -292 -177.5t-241 -184.5t-93 -113zM1180 764l8 -5q-31 -59 -68 -59
q-17 0 -53 17t-56 17q-29 0 -53 -24l-4 7q39 43 77 43q17 0 47.5 -11t46.5 -11q28 0 55 26z" />
    <glyph glyph-name="Ograve" unicode="&#xd2;" horiz-adv-x="873" 
d="M775 776l-1 -7q-139 -7 -260 -44t-206 -91.5t-146 -122t-90.5 -137t-29.5 -135.5q0 -65 28 -115q22 107 87 208.5t162 183t232.5 131t284.5 49.5q96 0 142.5 -40.5t46.5 -109.5q0 -62 -35.5 -137.5t-101 -149t-149.5 -134.5t-191.5 -98.5t-216.5 -37.5q-103 0 -174 34
q-8 -43 -8 -82q0 -135 93 -219q119 77 263.5 115t277.5 38t199 -28t66 -72q0 -64 -118.5 -120.5t-290.5 -56.5q-258 0 -410 103q-146 -105 -192 -257l-37 9q71 152 220 254q-160 115 -160 317q0 43 5 74q-43 59 -43 142q0 69 30.5 141.5t94 141.5t151.5 124.5t212 90.5
t265 38zM326 4q114 0 223 37.5t190 97.5t143.5 132.5t95 145t32.5 131.5q0 60 -35.5 95t-107.5 35q-108 0 -226 -58.5t-214.5 -149.5t-169 -206t-97.5 -225q68 -35 166 -35zM643 -391q80 0 153.5 15.5t123.5 39.5t80 53.5t30 56.5q0 40 -62.5 65t-189.5 25
q-132 0 -274.5 -37.5t-254.5 -111.5q127 -106 394 -106zM1066 761l-194 110l2 7q61 -5 86 -5q14 0 20 -8q5 -8 28 -33.5t44 -47.5l20 -21z" />
    <glyph glyph-name="Oacute" unicode="&#xd3;" horiz-adv-x="873" 
d="M775 776l-1 -7q-139 -7 -260 -44t-206 -91.5t-146 -122t-90.5 -137t-29.5 -135.5q0 -65 28 -115q22 107 87 208.5t162 183t232.5 131t284.5 49.5q96 0 142.5 -40.5t46.5 -109.5q0 -62 -35.5 -137.5t-101 -149t-149.5 -134.5t-191.5 -98.5t-216.5 -37.5q-103 0 -174 34
q-8 -43 -8 -82q0 -135 93 -219q119 77 263.5 115t277.5 38t199 -28t66 -72q0 -64 -118.5 -120.5t-290.5 -56.5q-258 0 -410 103q-146 -105 -192 -257l-37 9q71 152 220 254q-160 115 -160 317q0 43 5 74q-43 59 -43 142q0 69 30.5 141.5t94 141.5t151.5 124.5t212 90.5
t265 38zM326 4q114 0 223 37.5t190 97.5t143.5 132.5t95 145t32.5 131.5q0 60 -35.5 95t-107.5 35q-108 0 -226 -58.5t-214.5 -149.5t-169 -206t-97.5 -225q68 -35 166 -35zM643 -391q80 0 153.5 15.5t123.5 39.5t80 53.5t30 56.5q0 40 -62.5 65t-189.5 25
q-132 0 -274.5 -37.5t-254.5 -111.5q127 -106 394 -106zM949 757l-6 2q95 99 106 118q6 8 20 8l86 5l2 -7q-193 -118 -208 -126z" />
    <glyph glyph-name="Ocircumflex" unicode="&#xd4;" horiz-adv-x="873" 
d="M775 776l-1 -7q-139 -7 -260 -44t-206 -91.5t-146 -122t-90.5 -137t-29.5 -135.5q0 -65 28 -115q22 107 87 208.5t162 183t232.5 131t284.5 49.5q96 0 142.5 -40.5t46.5 -109.5q0 -62 -35.5 -137.5t-101 -149t-149.5 -134.5t-191.5 -98.5t-216.5 -37.5q-103 0 -174 34
q-8 -43 -8 -82q0 -135 93 -219q119 77 263.5 115t277.5 38t199 -28t66 -72q0 -64 -118.5 -120.5t-290.5 -56.5q-258 0 -410 103q-146 -105 -192 -257l-37 9q71 152 220 254q-160 115 -160 317q0 43 5 74q-43 59 -43 142q0 69 30.5 141.5t94 141.5t151.5 124.5t212 90.5
t265 38zM326 4q114 0 223 37.5t190 97.5t143.5 132.5t95 145t32.5 131.5q0 60 -35.5 95t-107.5 35q-108 0 -226 -58.5t-214.5 -149.5t-169 -206t-97.5 -225q68 -35 166 -35zM643 -391q80 0 153.5 15.5t123.5 39.5t80 53.5t30 56.5q0 40 -62.5 65t-189.5 25
q-132 0 -274.5 -37.5t-254.5 -111.5q127 -106 394 -106zM1021 845l-172 -76l-6 2l166 117q30 1 55 1q9 0 12 -8l11 -127l-6 -2z" />
    <glyph glyph-name="Otilde" unicode="&#xd5;" horiz-adv-x="873" 
d="M775 776l-1 -7q-139 -7 -260 -44t-206 -91.5t-146 -122t-90.5 -137t-29.5 -135.5q0 -65 28 -115q22 107 87 208.5t162 183t232.5 131t284.5 49.5q96 0 142.5 -40.5t46.5 -109.5q0 -62 -35.5 -137.5t-101 -149t-149.5 -134.5t-191.5 -98.5t-216.5 -37.5q-103 0 -174 34
q-8 -43 -8 -82q0 -135 93 -219q119 77 263.5 115t277.5 38t199 -28t66 -72q0 -64 -118.5 -120.5t-290.5 -56.5q-258 0 -410 103q-146 -105 -192 -257l-37 9q71 152 220 254q-160 115 -160 317q0 43 5 74q-43 59 -43 142q0 69 30.5 141.5t94 141.5t151.5 124.5t212 90.5
t265 38zM326 4q114 0 223 37.5t190 97.5t143.5 132.5t95 145t32.5 131.5q0 60 -35.5 95t-107.5 35q-108 0 -226 -58.5t-214.5 -149.5t-169 -206t-97.5 -225q68 -35 166 -35zM643 -391q80 0 153.5 15.5t123.5 39.5t80 53.5t30 56.5q0 40 -62.5 65t-189.5 25
q-132 0 -274.5 -37.5t-254.5 -111.5q127 -106 394 -106zM1085 811l8 -5q-31 -59 -68 -59q-17 0 -53 17t-56 17q-29 0 -53 -24l-4 7q39 43 77 43q17 0 47.5 -11t46.5 -11q28 0 55 26z" />
    <glyph glyph-name="Odieresis" unicode="&#xd6;" horiz-adv-x="873" 
d="M775 776l-1 -7q-139 -7 -260 -44t-206 -91.5t-146 -122t-90.5 -137t-29.5 -135.5q0 -65 28 -115q22 107 87 208.5t162 183t232.5 131t284.5 49.5q96 0 142.5 -40.5t46.5 -109.5q0 -62 -35.5 -137.5t-101 -149t-149.5 -134.5t-191.5 -98.5t-216.5 -37.5q-103 0 -174 34
q-8 -43 -8 -82q0 -135 93 -219q119 77 263.5 115t277.5 38t199 -28t66 -72q0 -64 -118.5 -120.5t-290.5 -56.5q-258 0 -410 103q-146 -105 -192 -257l-37 9q71 152 220 254q-160 115 -160 317q0 43 5 74q-43 59 -43 142q0 69 30.5 141.5t94 141.5t151.5 124.5t212 90.5
t265 38zM326 4q114 0 223 37.5t190 97.5t143.5 132.5t95 145t32.5 131.5q0 60 -35.5 95t-107.5 35q-108 0 -226 -58.5t-214.5 -149.5t-169 -206t-97.5 -225q68 -35 166 -35zM643 -391q80 0 153.5 15.5t123.5 39.5t80 53.5t30 56.5q0 40 -62.5 65t-189.5 25
q-132 0 -274.5 -37.5t-254.5 -111.5q127 -106 394 -106zM994 750q-18 0 -18 16q0 20 24 43.5t51 23.5q21 0 21 -16q0 -19 -26 -43t-52 -24zM874 750q-18 0 -18 16q0 20 24 43.5t51 23.5q21 0 21 -16q0 -19 -26 -43t-52 -24z" />
    <glyph glyph-name="Oslash" unicode="&#xd8;" horiz-adv-x="873" 
d="M-61 -137l-7 7q41 29 131 103q-3 25 -3 51q0 43 5 74q-43 59 -43 142q0 69 30.5 141.5t94 141.5t151.5 124.5t212 90.5t265 38l-1 -7q-139 -7 -260 -44t-206 -91.5t-146 -122t-90.5 -137t-29.5 -135.5q0 -65 28 -115q22 107 87 208.5t162 183t232.5 131t284.5 49.5
q32 0 67 -7l126 109h4q-1 -3 -1 -8l3 -13l-108 -94q98 -33 98 -137q0 -62 -35.5 -137.5t-101 -149t-149.5 -134.5t-191.5 -98.5t-216.5 -37.5q-100 0 -170 32l-6 -6q-6 -36 -6 -74q0 -135 93 -219q119 77 263.5 115t277.5 38t199 -28t66 -72q0 -64 -118.5 -120.5
t-290.5 -56.5q-258 0 -410 103q-146 -105 -192 -257l-37 9q71 152 220 254q-120 86 -150 224q-25 -26 -41 -47q-13 -15 -26 -15q-16 0 -64 -6zM326 4q114 0 223 37.5t190 97.5t143.5 132.5t95 145t32.5 131.5q0 103 -95 125q-80 -69 -248.5 -211.5t-288.5 -246.5t-204 -183
q64 -28 152 -28zM643 -391q80 0 153.5 15.5t123.5 39.5t80 53.5t30 56.5q0 40 -62.5 65t-189.5 25q-132 0 -274.5 -37.5t-254.5 -111.5q127 -106 394 -106zM867 678q-106 0 -222 -56t-211 -144.5t-168.5 -200.5t-101.5 -221q223 186 725 621q-3 0 -11 0.5t-11 0.5z" />
    <glyph glyph-name="Ugrave" unicode="&#xd9;" horiz-adv-x="602" 
d="M940 585l7 -10q-58 -42 -113 -85t-145.5 -120t-155 -143.5t-113 -141t-48.5 -127.5q0 -114 71 -169.5t189 -55.5q99 0 212 38t208 100t157.5 149.5t62.5 178.5q0 95 -85 144.5t-210 49.5q-85 0 -166 -23.5t-134 -64.5l-10 9q55 42 138.5 65.5t171.5 23.5q84 0 152.5 -21
t114 -70t45.5 -119q0 -93 -64 -182t-161 -151t-213 -100t-219 -38q-125 0 -201.5 58t-76.5 177q0 114 73 228q-144 -107 -258.5 -169t-165.5 -62q-33 0 -33 27q0 49 40.5 107t101.5 110t132.5 111t132.5 110t101.5 107.5t40.5 103.5q0 74 -56.5 110t-152.5 36
q-124 0 -270.5 -50.5t-251.5 -133t-105 -163.5q0 -85 111 -85q86 0 205 48.5t233 135.5t170 182l10 -1q-42 -116 -148.5 -207t-223.5 -134.5t-218 -43.5q-74 0 -118 26.5t-44 77.5q0 64 64 131t159 116.5t208.5 81.5t209.5 32q107 0 171 -41.5t64 -129.5q0 -81 -40.5 -161
t-101 -139.5t-131.5 -116t-131.5 -95.5t-101 -72.5t-40.5 -52.5q0 -14 18 -14q46 0 184 81.5t266 180.5q147 190 482 356zM837 700l-194 110l2 7q61 -5 86 -5q14 0 20 -8q5 -8 28 -33.5t43 -46.5l21 -22z" />
    <glyph glyph-name="Uacute" unicode="&#xda;" horiz-adv-x="602" 
d="M940 585l7 -10q-58 -42 -113 -85t-145.5 -120t-155 -143.5t-113 -141t-48.5 -127.5q0 -114 71 -169.5t189 -55.5q99 0 212 38t208 100t157.5 149.5t62.5 178.5q0 95 -85 144.5t-210 49.5q-85 0 -166 -23.5t-134 -64.5l-10 9q55 42 138.5 65.5t171.5 23.5q84 0 152.5 -21
t114 -70t45.5 -119q0 -93 -64 -182t-161 -151t-213 -100t-219 -38q-125 0 -201.5 58t-76.5 177q0 114 73 228q-144 -107 -258.5 -169t-165.5 -62q-33 0 -33 27q0 49 40.5 107t101.5 110t132.5 111t132.5 110t101.5 107.5t40.5 103.5q0 74 -56.5 110t-152.5 36
q-124 0 -270.5 -50.5t-251.5 -133t-105 -163.5q0 -85 111 -85q86 0 205 48.5t233 135.5t170 182l10 -1q-42 -116 -148.5 -207t-223.5 -134.5t-218 -43.5q-74 0 -118 26.5t-44 77.5q0 64 64 131t159 116.5t208.5 81.5t209.5 32q107 0 171 -41.5t64 -129.5q0 -81 -40.5 -161
t-101 -139.5t-131.5 -116t-131.5 -95.5t-101 -72.5t-40.5 -52.5q0 -14 18 -14q46 0 184 81.5t266 180.5q147 190 482 356zM731 684l-6 2q95 99 106 118q6 8 20 8l86 5l2 -7q-193 -118 -208 -126z" />
    <glyph glyph-name="Ucircumflex" unicode="&#xdb;" horiz-adv-x="602" 
d="M940 585l7 -10q-58 -42 -113 -85t-145.5 -120t-155 -143.5t-113 -141t-48.5 -127.5q0 -114 71 -169.5t189 -55.5q99 0 212 38t208 100t157.5 149.5t62.5 178.5q0 95 -85 144.5t-210 49.5q-85 0 -166 -23.5t-134 -64.5l-10 9q55 42 138.5 65.5t171.5 23.5q84 0 152.5 -21
t114 -70t45.5 -119q0 -93 -64 -182t-161 -151t-213 -100t-219 -38q-125 0 -201.5 58t-76.5 177q0 114 73 228q-144 -107 -258.5 -169t-165.5 -62q-33 0 -33 27q0 49 40.5 107t101.5 110t132.5 111t132.5 110t101.5 107.5t40.5 103.5q0 74 -56.5 110t-152.5 36
q-124 0 -270.5 -50.5t-251.5 -133t-105 -163.5q0 -85 111 -85q86 0 205 48.5t233 135.5t170 182l10 -1q-42 -116 -148.5 -207t-223.5 -134.5t-218 -43.5q-74 0 -118 26.5t-44 77.5q0 64 64 131t159 116.5t208.5 81.5t209.5 32q107 0 171 -41.5t64 -129.5q0 -81 -40.5 -161
t-101 -139.5t-131.5 -116t-131.5 -95.5t-101 -72.5t-40.5 -52.5q0 -14 18 -14q46 0 184 81.5t266 180.5q147 190 482 356zM799 746l-172 -76l-6 2l166 117q30 1 55 1q9 0 12 -8l11 -127l-6 -2z" />
    <glyph glyph-name="Udieresis" unicode="&#xdc;" horiz-adv-x="602" 
d="M940 585l7 -10q-58 -42 -113 -85t-145.5 -120t-155 -143.5t-113 -141t-48.5 -127.5q0 -114 71 -169.5t189 -55.5q99 0 212 38t208 100t157.5 149.5t62.5 178.5q0 95 -85 144.5t-210 49.5q-85 0 -166 -23.5t-134 -64.5l-10 9q55 42 138.5 65.5t171.5 23.5q84 0 152.5 -21
t114 -70t45.5 -119q0 -93 -64 -182t-161 -151t-213 -100t-219 -38q-125 0 -201.5 58t-76.5 177q0 114 73 228q-144 -107 -258.5 -169t-165.5 -62q-33 0 -33 27q0 49 40.5 107t101.5 110t132.5 111t132.5 110t101.5 107.5t40.5 103.5q0 74 -56.5 110t-152.5 36
q-124 0 -270.5 -50.5t-251.5 -133t-105 -163.5q0 -85 111 -85q86 0 205 48.5t233 135.5t170 182l10 -1q-42 -116 -148.5 -207t-223.5 -134.5t-218 -43.5q-74 0 -118 26.5t-44 77.5q0 64 64 131t159 116.5t208.5 81.5t209.5 32q107 0 171 -41.5t64 -129.5q0 -81 -40.5 -161
t-101 -139.5t-131.5 -116t-131.5 -95.5t-101 -72.5t-40.5 -52.5q0 -14 18 -14q46 0 184 81.5t266 180.5q147 190 482 356zM802 666q-18 0 -18 16q0 20 24 43.5t51 23.5q21 0 21 -16q0 -19 -26 -43t-52 -24zM682 666q-18 0 -18 16q0 20 24 43.5t51 23.5q21 0 21 -16
q0 -19 -26 -43t-52 -24z" />
    <glyph glyph-name="Yacute" unicode="&#xdd;" horiz-adv-x="950" 
d="M758 794q46 0 79 -5.5t63 -20t45.5 -44.5t15.5 -75q0 -76 -31.5 -146.5t-81.5 -124t-110 -101t-120.5 -85t-110.5 -69.5t-81.5 -60.5t-31.5 -51.5q0 -20 30 -20q52 0 175 75.5t239 160.5q118 84 204 158l191 157l10 -19q-135 -112 -222 -189q-180 -161 -233 -233
q-18 -25 -51 -72.5t-54 -77.5t-59 -76t-70.5 -76.5t-83.5 -70t-103.5 -65t-125.5 -53t-153.5 -43.5t-183.5 -26t-220 -10q-132 0 -202 39.5t-70 101.5q0 49 44 100t124 95t208 72t279 28q6 0 17.5 -0.5t17.5 -0.5q100 -4 192.5 -22t135.5 -34l42 -17l-7 -11q-82 40 -256 64
q-71 9 -136 9q-118 0 -222.5 -18t-178.5 -47.5t-128.5 -66.5t-81 -76t-26.5 -76q0 -54 59 -88t172 -34q102 0 210 25.5t202 65.5t193.5 100t179.5 118.5t166.5 131.5t146.5 128t128 119q16 16 24 23l-4 1q-390 -283 -497 -283q-45 0 -45 46q0 37 31.5 81t82.5 87t112 89
t122 93t112 93t82.5 96t31.5 94q0 33 -12 56.5t-30 36.5t-46 20.5t-51.5 9.5t-54.5 2q-109 0 -225.5 -34t-211 -88t-171.5 -116t-120 -122t-43 -103q0 -68 107 -68q151 0 364 133t312 289l10 -2q-49 -117 -169.5 -219t-260.5 -158t-260 -56q-118 0 -118 78q0 38 30.5 88.5
t83.5 103.5t129 104.5t161.5 91.5t187.5 65t201 25zM1133 661l-6 2q95 99 106 118q6 8 20 8l86 5l2 -7q-193 -118 -208 -126z" />
    <glyph glyph-name="Thorn" unicode="&#xde;" horiz-adv-x="854" 
d="M529 636q156 0 264 -48q209 178 398 189l-2 -20q-178 -7 -370 -183q62 -35 93 -84t31 -104q0 -105 -96.5 -187t-247.5 -82q-71 0 -145 20l2 5q-81 -91 -172 -130.5t-232 -39.5q-96 0 -218 16l10 12q43 -5 93 -5q98 0 191 36t179.5 104t155.5 134t161.5 159.5t154.5 147.5
q-100 47 -262 47q-133 0 -252 -26.5t-202 -68.5t-144 -94t-90 -102.5t-29 -93.5q0 -44 31.5 -70t92.5 -26q87 0 221 60.5t248.5 148.5t149.5 160l10 -4q-74 -178 -238 -281.5t-365 -103.5q-82 0 -124.5 31.5t-42.5 83.5q0 46 31.5 99.5t96 106.5t151.5 96t209 70t258 27z
M460 146q60 -15 117 -15q142 0 238 81.5t96 182.5q0 104 -106 166q-69 -66 -128 -136.5t-121.5 -154.5t-95.5 -124z" />
    <glyph glyph-name="germandbls" unicode="&#xdf;" horiz-adv-x="464" 
d="M397 390q-18 -30 -24 -74t-8.5 -83.5t-13.5 -81.5t-49 -81t-106 -69q81 18 181 85l92 61l4 -8l-91 -61q-153 -102 -282 -102q-68 0 -110 27q-293 -249 -588 -249q-32 0 -63 3l3 11q5 0 15 -0.5t15 -0.5q90 0 172.5 22t155 65.5t129 88.5t122.5 109q-3 10 -3 21
q0 34 30 60.5t81 27.5q35 36 88.5 94t85.5 92.5t81 80.5t89 75.5t93 58.5t109 47q54 18 89 18q28 0 28 -14q0 -24 -74 -67q-24 -14 -90 -47t-106 -58.5t-55 -50.5zM64 -3q54 0 99 24t74 60.5t53 83.5t37.5 87.5t27 80t21.5 53.5q17 31 62 60t114.5 62t91.5 46q55 32 55 49
q0 10 -23 10q-29 0 -67 -14q-95 -33 -169 -85t-127 -114t-96 -123.5t-99.5 -135t-113.5 -126.5q27 -18 60 -18zM-28 73l17.5 17.5l21 21l17.5 17.5q-54 -2 -56 -56z" />
    <glyph glyph-name="agrave" unicode="&#xe0;" 
d="M208 98l28 30q-201 -147 -273 -147q-32 0 -32 37q0 33 26.5 76.5t75 87.5t131 74t178.5 30q6 0 22.5 -0.5t26.5 -0.5q41 0 77 5l2 -3q-19 -17 -50 -47.5t-82 -81.5l-81 -81q-50 -50 -50 -71q0 -9 11 -9q24 0 73 31q26 17 90 59.5t90 59.5l4 -8q-29 -19 -91 -61t-90 -59
q-52 -33 -93 -33q-39 0 -39 30q0 32 46 82zM377 270q1 1 1 3q0 4 -6 4h-39q-50 0 -117.5 -36t-121.5 -83.5t-92.5 -92.5t-38.5 -64q0 -9 11 -9q66 0 298 173q15 16 32.5 33.5t39 38.5t33.5 33zM523 354l-194 110l2 7q61 -5 86 -5q14 0 20 -8q5 -8 28 -33.5t43 -46.5l21 -22z
" />
    <glyph glyph-name="aacute" unicode="&#xe1;" 
d="M208 98l28 30q-201 -147 -273 -147q-32 0 -32 37q0 33 26.5 76.5t75 87.5t131 74t178.5 30q6 0 22.5 -0.5t26.5 -0.5q41 0 77 5l2 -3q-19 -17 -50 -47.5t-82 -81.5l-81 -81q-50 -50 -50 -71q0 -9 11 -9q24 0 73 31q26 17 90 59.5t90 59.5l4 -8q-29 -19 -91 -61t-90 -59
q-52 -33 -93 -33q-39 0 -39 30q0 32 46 82zM377 270q1 1 1 3q0 4 -6 4h-39q-50 0 -117.5 -36t-121.5 -83.5t-92.5 -92.5t-38.5 -64q0 -9 11 -9q66 0 298 173q15 16 32.5 33.5t39 38.5t33.5 33zM404 344l-6 2q95 99 106 118q6 8 20 8l86 5l2 -7q-193 -118 -208 -126z" />
    <glyph glyph-name="acircumflex" unicode="&#xe2;" 
d="M208 98l28 30q-201 -147 -273 -147q-32 0 -32 37q0 33 26.5 76.5t75 87.5t131 74t178.5 30q6 0 22.5 -0.5t26.5 -0.5q41 0 77 5l2 -3q-19 -17 -50 -47.5t-82 -81.5l-81 -81q-50 -50 -50 -71q0 -9 11 -9q24 0 73 31q26 17 90 59.5t90 59.5l4 -8q-29 -19 -91 -61t-90 -59
q-52 -33 -93 -33q-39 0 -39 30q0 32 46 82zM377 270q1 1 1 3q0 4 -6 4h-39q-50 0 -117.5 -36t-121.5 -83.5t-92.5 -92.5t-38.5 -64q0 -9 11 -9q66 0 298 173q15 16 32.5 33.5t39 38.5t33.5 33zM444 433l-172 -76l-6 2l166 117q30 1 55 1q9 0 12 -8l11 -127l-6 -2z" />
    <glyph glyph-name="atilde" unicode="&#xe3;" 
d="M208 98l28 30q-201 -147 -273 -147q-32 0 -32 37q0 33 26.5 76.5t75 87.5t131 74t178.5 30q6 0 22.5 -0.5t26.5 -0.5q41 0 77 5l2 -3q-19 -17 -50 -47.5t-82 -81.5l-81 -81q-50 -50 -50 -71q0 -9 11 -9q24 0 73 31q26 17 90 59.5t90 59.5l4 -8q-29 -19 -91 -61t-90 -59
q-52 -33 -93 -33q-39 0 -39 30q0 32 46 82zM377 270q1 1 1 3q0 4 -6 4h-39q-50 0 -117.5 -36t-121.5 -83.5t-92.5 -92.5t-38.5 -64q0 -9 11 -9q66 0 298 173q15 16 32.5 33.5t39 38.5t33.5 33zM540 426l8 -5q-31 -59 -68 -59q-17 0 -53 17t-56 17q-29 0 -53 -24l-4 7
q39 43 77 43q17 0 47.5 -11t46.5 -11q28 0 55 26z" />
    <glyph glyph-name="adieresis" unicode="&#xe4;" 
d="M208 98l28 30q-201 -147 -273 -147q-32 0 -32 37q0 33 26.5 76.5t75 87.5t131 74t178.5 30q6 0 22.5 -0.5t26.5 -0.5q41 0 77 5l2 -3q-19 -17 -50 -47.5t-82 -81.5l-81 -81q-50 -50 -50 -71q0 -9 11 -9q24 0 73 31q26 17 90 59.5t90 59.5l4 -8q-29 -19 -91 -61t-90 -59
q-52 -33 -93 -33q-39 0 -39 30q0 32 46 82zM377 270q1 1 1 3q0 4 -6 4h-39q-50 0 -117.5 -36t-121.5 -83.5t-92.5 -92.5t-38.5 -64q0 -9 11 -9q66 0 298 173q15 16 32.5 33.5t39 38.5t33.5 33zM465 352q-18 0 -18 16q0 20 24 43.5t51 23.5q21 0 21 -16q0 -19 -26 -43
t-52 -24zM345 352q-18 0 -18 16q0 20 24 43.5t51 23.5q21 0 21 -16q0 -19 -26 -43t-52 -24z" />
    <glyph glyph-name="aring" unicode="&#xe5;" 
d="M390 357q22 0 49 20.5t27 34.5q0 8 -12 8q-24 0 -48.5 -21t-24.5 -35q0 -7 9 -7zM383 349q-22 0 -22 14q0 18 32.5 41t68.5 23q27 0 27 -14q0 -18 -35.5 -41t-70.5 -23zM208 98l28 30q-201 -147 -273 -147q-32 0 -32 37q0 33 26.5 76.5t75 87.5t131 74t178.5 30
q6 0 22.5 -0.5t26.5 -0.5q41 0 77 5l2 -3q-19 -17 -50 -47.5t-82 -81.5l-81 -81q-50 -50 -50 -71q0 -9 11 -9q24 0 73 31q26 17 90 59.5t90 59.5l4 -8q-29 -19 -91 -61t-90 -59q-52 -33 -93 -33q-39 0 -39 30q0 32 46 82zM377 270q1 1 1 3q0 4 -6 4h-39q-50 0 -117.5 -36
t-121.5 -83.5t-92.5 -92.5t-38.5 -64q0 -9 11 -9q66 0 298 173q15 16 32.5 33.5t39 38.5t33.5 33z" />
    <glyph glyph-name="ae" unicode="&#xe6;" horiz-adv-x="586" 
d="M383 12q21 12 208 135l4 -8q-27 -17 -73.5 -49t-78 -52.5t-56.5 -33.5q-63 -33 -121 -33q-70 0 -70 53q0 49 58 116l-3 1q-215 -160 -288 -160q-32 0 -32 37q0 33 26.5 76.5t75 87.5t131 74t178.5 30q6 0 22.5 -0.5t26.5 -0.5q41 0 77 5l2 -3l-25 -20q48 15 91 15
q27 0 27 -16q0 -28 -66.5 -68t-158.5 -54q-97 -95 -97 -133q0 -28 40 -28q52 0 102 29zM271 165l106 105q1 1 1 3q0 4 -6 4h-39q-50 0 -117.5 -36t-121.5 -83.5t-92.5 -92.5t-38.5 -64q0 -9 11 -9q67 0 297 173zM553 265q0 9 -17 9q-30 0 -82.5 -35.5t-107.5 -86.5
q74 11 140.5 51t66.5 62z" />
    <glyph glyph-name="ccedilla" unicode="&#xe7;" horiz-adv-x="326" 
d="M253 206q-19 0 -19 15q0 14 16.5 28t42.5 14q10 0 15 -1q2 10 2 12q0 18 -19 18q-38 0 -112.5 -55t-133.5 -124t-59 -104q0 -26 35 -26q52 0 102 29q21 12 208 135l4 -8q-27 -17 -73.5 -49t-78 -52.5t-56.5 -33.5q-60 -30 -114 -33q-19 -8 -32.5 -28t-19.5 -38t-23.5 -32
t-46.5 -14q-39 0 -85 13l3 4q17 -1 36 -1q27 0 50 11.5t36 26t31 32.5t32 27q-57 4 -57 50q0 34 32.5 82.5t81 92.5t112.5 74.5t121 30.5q35 0 35 -28q0 -22 -21 -45t-45 -23z" />
    <glyph glyph-name="egrave" unicode="&#xe8;" horiz-adv-x="326" 
d="M123 12q21 12 208 135l4 -8q-27 -17 -73.5 -49t-78 -52.5t-56.5 -33.5q-63 -33 -121 -33q-70 0 -70 53q0 31 26.5 74.5t70 84.5t109 70t134.5 29q27 0 27 -16q0 -28 -66.5 -68t-158.5 -54q-97 -95 -97 -133q0 -28 40 -28q52 0 102 29zM293 265q0 9 -17 9
q-30 0 -82.5 -35.5t-107.5 -86.5q74 11 140.5 51t66.5 62zM397 354l-194 110l2 7q61 -5 86 -5q14 0 20 -8q5 -8 28 -33.5t43 -46.5l21 -22z" />
    <glyph glyph-name="eacute" unicode="&#xe9;" horiz-adv-x="326" 
d="M123 12q21 12 208 135l4 -8q-27 -17 -73.5 -49t-78 -52.5t-56.5 -33.5q-63 -33 -121 -33q-70 0 -70 53q0 31 26.5 74.5t70 84.5t109 70t134.5 29q27 0 27 -16q0 -28 -66.5 -68t-158.5 -54q-97 -95 -97 -133q0 -28 40 -28q52 0 102 29zM293 265q0 9 -17 9
q-30 0 -82.5 -35.5t-107.5 -86.5q74 11 140.5 51t66.5 62zM313 344l-6 2q95 99 106 118q6 8 20 8l86 5l2 -7q-193 -118 -208 -126z" />
    <glyph glyph-name="ecircumflex" unicode="&#xea;" horiz-adv-x="326" 
d="M123 12q21 12 208 135l4 -8q-27 -17 -73.5 -49t-78 -52.5t-56.5 -33.5q-63 -33 -121 -33q-70 0 -70 53q0 31 26.5 74.5t70 84.5t109 70t134.5 29q27 0 27 -16q0 -28 -66.5 -68t-158.5 -54q-97 -95 -97 -133q0 -28 40 -28q52 0 102 29zM293 265q0 9 -17 9
q-30 0 -82.5 -35.5t-107.5 -86.5q74 11 140.5 51t66.5 62zM323 412l-172 -76l-6 2l166 117q30 1 55 1q9 0 12 -8l11 -127l-6 -2z" />
    <glyph glyph-name="edieresis" unicode="&#xeb;" horiz-adv-x="326" 
d="M123 12q21 12 208 135l4 -8q-27 -17 -73.5 -49t-78 -52.5t-56.5 -33.5q-63 -33 -121 -33q-70 0 -70 53q0 31 26.5 74.5t70 84.5t109 70t134.5 29q27 0 27 -16q0 -28 -66.5 -68t-158.5 -54q-97 -95 -97 -133q0 -28 40 -28q52 0 102 29zM293 265q0 9 -17 9
q-30 0 -82.5 -35.5t-107.5 -86.5q74 11 140.5 51t66.5 62zM367 352q-18 0 -18 16q0 20 24 43.5t51 23.5q21 0 21 -16q0 -19 -26 -43t-52 -24zM247 352q-18 0 -18 16q0 20 24 43.5t51 23.5q21 0 21 -16q0 -19 -26 -43t-52 -24z" />
    <glyph glyph-name="igrave" unicode="&#xec;" horiz-adv-x="237" 
d="M63 28q26 17 90 59.5t90 59.5l4 -8q-29 -19 -91 -61t-90 -59q-66 -41 -108 -41q-37 0 -37 38q0 55 215 273l91 5l3 -6q-58 -42 -166 -148.5t-108 -130.5q0 -19 19 -19q29 0 88 38zM327 354l-194 110l2 7q61 -5 86 -5q14 0 20 -8q5 -8 28 -33.5t43 -46.5l21 -22z" />
    <glyph glyph-name="iacute" unicode="&#xed;" horiz-adv-x="237" 
d="M63 28q26 17 90 59.5t90 59.5l4 -8q-29 -19 -91 -61t-90 -59q-66 -41 -108 -41q-37 0 -37 38q0 55 215 273l91 5l3 -6q-58 -42 -166 -148.5t-108 -130.5q0 -19 19 -19q29 0 88 38zM227 344l-6 2q95 99 106 118q6 8 20 8l86 5l2 -7q-193 -118 -208 -126z" />
    <glyph glyph-name="icircumflex" unicode="&#xee;" horiz-adv-x="237" 
d="M63 28q26 17 90 59.5t90 59.5l4 -8q-29 -19 -91 -61t-90 -59q-66 -41 -108 -41q-37 0 -37 38q0 55 215 273l91 5l3 -6q-58 -42 -166 -148.5t-108 -130.5q0 -19 19 -19q29 0 88 38zM273 433l-172 -76l-6 2l166 117q30 1 55 1q9 0 12 -8l11 -127l-6 -2z" />
    <glyph glyph-name="idieresis" unicode="&#xef;" horiz-adv-x="237" 
d="M63 28q26 17 90 59.5t90 59.5l4 -8q-29 -19 -91 -61t-90 -59q-66 -41 -108 -41q-37 0 -37 38q0 55 215 273l91 5l3 -6q-58 -42 -166 -148.5t-108 -130.5q0 -19 19 -19q29 0 88 38zM296 352q-18 0 -18 16q0 20 24 43.5t51 23.5q21 0 21 -16q0 -19 -26 -43t-52 -24z
M176 352q-18 0 -18 16q0 20 24 43.5t51 23.5q21 0 21 -16q0 -19 -26 -43t-52 -24z" />
    <glyph glyph-name="eth" unicode="&#xf0;" horiz-adv-x="469" 
d="M598 529l8 -5q-37 -68 -86 -68q-15 -62 -70 -137.5t-111.5 -131.5t-102 -106.5t-45.5 -69.5q0 -16 18 -16q33 0 85 33q26 17 90 59.5t90 59.5l4 -8q-24 -16 -87.5 -59t-93.5 -61q-60 -36 -98 -36q-34 0 -34 33q0 26 24 67q-117 -106 -183 -106q-63 0 -63 50q0 33 29 79
t75 87.5t109.5 70.5t125.5 29q36 0 36 -28q0 -29 -38 -82q80 79 131 146t71 133q-35 7 -45 7q-36 0 -65 -28l-4 7q47 53 100 53q4 0 11 -0.5t11 -0.5q3 16 3 34q0 52 -23 102l9 5q47 -86 47 -140v-4q39 0 72 32zM3 -14q45 0 119 56.5t129 124t55 99.5q0 18 -21 18
q-32 0 -107.5 -56t-138 -124t-62.5 -99q0 -19 26 -19z" />
    <glyph glyph-name="ntilde" unicode="&#xf1;" horiz-adv-x="529" 
d="M526 426l8 -5q-31 -59 -68 -59q-17 0 -53 17t-56 17q-29 0 -53 -24l-4 7q39 43 77 43q17 0 47.5 -11t46.5 -11q28 0 55 26zM272 277q0 -32 -121 -161q237 169 293 169q25 0 25 -23q0 -33 -35.5 -76t-78 -77t-78 -66t-35.5 -44q0 -16 15 -16q8 0 19.5 4t28.5 13.5t33 18.5
t42.5 26t45 29.5t53 35.5l55.5 37l4 -8q-21 -14 -55 -36.5t-53 -35.5t-46.5 -30.5t-44.5 -27.5t-36.5 -19.5t-33.5 -14t-25 -4.5q-16 0 -26.5 12.5t-10.5 35.5q0 29 59 86t118 106t59 60q0 3 -5 3q-56 0 -318 -190q-40 -44 -96 -99l-91 -5l-3 6q70 51 184 155.5t114 132.5
q0 5 -6 5q-4 0 -16.5 -7.5t-32.5 -20.5t-38.5 -26t-42.5 -29.5t-36 -24.5l-56 -38l-7 6l61 41q9 6 34.5 24t36 25t31 20.5t31.5 20t25.5 14t24 10.5t16.5 3q19 0 19 -20z" />
    <glyph glyph-name="ograve" unicode="&#xf2;" horiz-adv-x="343" 
d="M282 293q36 0 36 -28q0 -30 -38.5 -82.5t-94.5 -103.5h10q51 0 114 42l39 26l4 -8l-37 -25q-22 -14 -58.5 -29.5t-62.5 -15.5q-10 0 -18 3q-108 -95 -170 -95q-63 0 -63 50q0 33 29 79t75 87.5t109.5 70.5t125.5 29zM3 -14q58 0 163 92q-7 13 -7 26q0 26 28 42t60 16
q59 71 59 104q0 18 -21 18q-32 0 -107.5 -56t-138 -124t-62.5 -99q0 -19 26 -19zM399 354l-194 110l2 7q61 -5 86 -5q14 0 20 -8q5 -8 28 -33.5t43 -46.5l21 -22z" />
    <glyph glyph-name="oacute" unicode="&#xf3;" horiz-adv-x="343" 
d="M282 293q36 0 36 -28q0 -30 -38.5 -82.5t-94.5 -103.5h10q51 0 114 42l39 26l4 -8l-37 -25q-22 -14 -58.5 -29.5t-62.5 -15.5q-10 0 -18 3q-108 -95 -170 -95q-63 0 -63 50q0 33 29 79t75 87.5t109.5 70.5t125.5 29zM3 -14q58 0 163 92q-7 13 -7 26q0 26 28 42t60 16
q59 71 59 104q0 18 -21 18q-32 0 -107.5 -56t-138 -124t-62.5 -99q0 -19 26 -19zM322 344l-6 2q95 99 106 118q6 8 20 8l86 5l2 -7q-193 -118 -208 -126z" />
    <glyph glyph-name="ocircumflex" unicode="&#xf4;" horiz-adv-x="343" 
d="M282 293q36 0 36 -28q0 -30 -38.5 -82.5t-94.5 -103.5h10q51 0 114 42l39 26l4 -8l-37 -25q-22 -14 -58.5 -29.5t-62.5 -15.5q-10 0 -18 3q-108 -95 -170 -95q-63 0 -63 50q0 33 29 79t75 87.5t109.5 70.5t125.5 29zM3 -14q58 0 163 92q-7 13 -7 26q0 26 28 42t60 16
q59 71 59 104q0 18 -21 18q-32 0 -107.5 -56t-138 -124t-62.5 -99q0 -19 26 -19zM355 433l-172 -76l-6 2l166 117q30 1 55 1q9 0 12 -8l11 -127l-6 -2z" />
    <glyph glyph-name="otilde" unicode="&#xf5;" horiz-adv-x="343" 
d="M282 293q36 0 36 -28q0 -30 -38.5 -82.5t-94.5 -103.5h10q51 0 114 42l39 26l4 -8l-37 -25q-22 -14 -58.5 -29.5t-62.5 -15.5q-10 0 -18 3q-108 -95 -170 -95q-63 0 -63 50q0 33 29 79t75 87.5t109.5 70.5t125.5 29zM3 -14q58 0 163 92q-7 13 -7 26q0 26 28 42t60 16
q59 71 59 104q0 18 -21 18q-32 0 -107.5 -56t-138 -124t-62.5 -99q0 -19 26 -19zM443 426l8 -5q-31 -59 -68 -59q-17 0 -53 17t-56 17q-29 0 -53 -24l-4 7q39 43 77 43q17 0 47.5 -11t46.5 -11q28 0 55 26z" />
    <glyph glyph-name="odieresis" unicode="&#xf6;" horiz-adv-x="343" 
d="M282 293q36 0 36 -28q0 -30 -38.5 -82.5t-94.5 -103.5h10q51 0 114 42l39 26l4 -8l-37 -25q-22 -14 -58.5 -29.5t-62.5 -15.5q-10 0 -18 3q-108 -95 -170 -95q-63 0 -63 50q0 33 29 79t75 87.5t109.5 70.5t125.5 29zM3 -14q58 0 163 92q-7 13 -7 26q0 26 28 42t60 16
q59 71 59 104q0 18 -21 18q-32 0 -107.5 -56t-138 -124t-62.5 -99q0 -19 26 -19zM384 352q-18 0 -18 16q0 20 24 43.5t51 23.5q21 0 21 -16q0 -19 -26 -43t-52 -24zM264 352q-18 0 -18 16q0 20 24 43.5t51 23.5q21 0 21 -16q0 -19 -26 -43t-52 -24z" />
    <glyph glyph-name="oslash" unicode="&#xf8;" horiz-adv-x="343" 
d="M282 293q22 0 31 -11q20 17 63 54.5t65 56.5h4q-1 -3 -1 -8l3 -13q-67 -52 -129 -105v-2q0 -30 -38.5 -82.5t-94.5 -103.5h10q51 0 114 42l39 26l4 -8l-37 -25q-22 -14 -58.5 -29.5t-62.5 -15.5q-10 0 -18 3q-108 -95 -170 -95q-7 0 -19 2q-25 -22 -119 -109
q-13 -15 -26 -15q-16 0 -40 -3l-4 6q72 50 167 128q-22 13 -22 41q0 33 29 79t75 87.5t109.5 70.5t125.5 29zM304 274q-3 10 -19 10q-32 0 -107.5 -56t-138 -124t-62.5 -99q0 -2 2 -8q80 65 325 277zM3 -14q58 0 163 92q-7 13 -7 26q0 26 28 42t60 16q49 58 58 94
q-138 -114 -310 -269q3 -1 8 -1z" />
    <glyph glyph-name="ugrave" unicode="&#xf9;" horiz-adv-x="438" 
d="M58 28l106 70q55 73 172 191l91 5l3 -6q-58 -42 -166 -148.5t-108 -130.5q0 -19 19 -19q29 0 88 38q26 17 90 59.5t90 59.5l4 -8q-29 -19 -91 -61t-90 -59q-66 -41 -108 -41q-37 0 -37 38q0 21 27 60q-85 -56 -87 -57q-66 -41 -108 -41q-37 0 -37 38q0 55 215 273l91 5
l3 -6q-58 -42 -166 -148.5t-108 -130.5q0 -19 19 -19q29 0 88 38zM407 354l-194 110l2 7q61 -5 86 -5q14 0 20 -8q5 -8 28 -33.5t43 -46.5l21 -22z" />
    <glyph glyph-name="uacute" unicode="&#xfa;" horiz-adv-x="438" 
d="M58 28l106 70q55 73 172 191l91 5l3 -6q-58 -42 -166 -148.5t-108 -130.5q0 -19 19 -19q29 0 88 38q26 17 90 59.5t90 59.5l4 -8q-29 -19 -91 -61t-90 -59q-66 -41 -108 -41q-37 0 -37 38q0 21 27 60q-85 -56 -87 -57q-66 -41 -108 -41q-37 0 -37 38q0 55 215 273l91 5
l3 -6q-58 -42 -166 -148.5t-108 -130.5q0 -19 19 -19q29 0 88 38zM302 344l-6 2q95 99 106 118q6 8 20 8l86 5l2 -7q-193 -118 -208 -126z" />
    <glyph glyph-name="ucircumflex" unicode="&#xfb;" horiz-adv-x="438" 
d="M58 28l106 70q55 73 172 191l91 5l3 -6q-58 -42 -166 -148.5t-108 -130.5q0 -19 19 -19q29 0 88 38q26 17 90 59.5t90 59.5l4 -8q-29 -19 -91 -61t-90 -59q-66 -41 -108 -41q-37 0 -37 38q0 21 27 60q-85 -56 -87 -57q-66 -41 -108 -41q-37 0 -37 38q0 55 215 273l91 5
l3 -6q-58 -42 -166 -148.5t-108 -130.5q0 -19 19 -19q29 0 88 38zM365 433l-172 -76l-6 2l166 117q30 1 55 1q9 0 12 -8l11 -127l-6 -2z" />
    <glyph glyph-name="udieresis" unicode="&#xfc;" horiz-adv-x="438" 
d="M58 28l106 70q55 73 172 191l91 5l3 -6q-58 -42 -166 -148.5t-108 -130.5q0 -19 19 -19q29 0 88 38q26 17 90 59.5t90 59.5l4 -8q-29 -19 -91 -61t-90 -59q-66 -41 -108 -41q-37 0 -37 38q0 21 27 60q-85 -56 -87 -57q-66 -41 -108 -41q-37 0 -37 38q0 55 215 273l91 5
l3 -6q-58 -42 -166 -148.5t-108 -130.5q0 -19 19 -19q29 0 88 38zM375 352q-18 0 -18 16q0 20 24 43.5t51 23.5q21 0 21 -16q0 -19 -26 -43t-52 -24zM255 352q-18 0 -18 16q0 20 24 43.5t51 23.5q21 0 21 -16q0 -19 -26 -43t-52 -24z" />
    <glyph glyph-name="yacute" unicode="&#xfd;" horiz-adv-x="388" 
d="M58 28l98 65q58 63 162 186q5 7 19 7q41 0 77 5l2 -3q-30 -22 -48 -42q-146 -159 -259 -262q2 -1 7 -1q8 0 19.5 4t28.5 13.5t33 18.5t42.5 26t45 29.5t53 35.5l55.5 37l4 -8q-19 -13 -54.5 -36.5t-53.5 -35.5t-46 -30.5t-44.5 -27.5t-36.5 -19.5t-34 -14.5t-25 -4
q-6 0 -8 1q-73 -65 -139 -114q84 -22 159 -50l-29 -26q-67 32 -152 60q-249 -178 -466 -178q-97 0 -146.5 22t-49.5 56q0 55 110.5 104.5t280.5 49.5q124 0 258 -30q95 77 208 197l-68 -44q-66 -41 -108 -41q-37 0 -37 38q0 55 215 273l91 5l3 -6q-58 -42 -166 -148.5
t-108 -130.5q0 -19 19 -19q29 0 88 38zM-350 -114q-151 0 -255 -45t-104 -95q0 -31 48.5 -50.5t143.5 -19.5q195 0 420 175q-127 35 -253 35zM299 344l-6 2q95 99 106 118q6 8 20 8l86 5l2 -7q-193 -118 -208 -126z" />
    <glyph glyph-name="thorn" unicode="&#xfe;" horiz-adv-x="388" 
d="M475 545q-270 -256 -447 -417q239 157 295 157q25 0 25 -23q0 -33 -35.5 -76t-78 -77t-78 -66t-35.5 -44q0 -7 9 -7q31 0 137 71l126 84l4 -8l-126 -84q-111 -75 -154 -75q-31 0 -31 39q0 29 59 86t118 106t59 60q0 3 -5 3q-60 0 -334 -188q-228 -205 -339 -292
q-12 -12 -20 -12l-91 -5l-3 6q70 46 188.5 142t212.5 177t266.5 231.5t244.5 212.5q237 206 486 258l4 -19q-140 -23 -248 -83.5t-209 -156.5z" />
    <glyph glyph-name="ydieresis" unicode="&#xff;" horiz-adv-x="388" 
d="M58 28l98 65q58 63 162 186q5 7 19 7q41 0 77 5l2 -3q-30 -22 -48 -42q-146 -159 -259 -262q2 -1 7 -1q8 0 19.5 4t28.5 13.5t33 18.5t42.5 26t45 29.5t53 35.5l55.5 37l4 -8q-19 -13 -54.5 -36.5t-53.5 -35.5t-46 -30.5t-44.5 -27.5t-36.5 -19.5t-34 -14.5t-25 -4
q-6 0 -8 1q-73 -65 -139 -114q84 -22 159 -50l-29 -26q-67 32 -152 60q-249 -178 -466 -178q-97 0 -146.5 22t-49.5 56q0 55 110.5 104.5t280.5 49.5q124 0 258 -30q95 77 208 197l-68 -44q-66 -41 -108 -41q-37 0 -37 38q0 55 215 273l91 5l3 -6q-58 -42 -166 -148.5
t-108 -130.5q0 -19 19 -19q29 0 88 38zM-350 -114q-151 0 -255 -45t-104 -95q0 -31 48.5 -50.5t143.5 -19.5q195 0 420 175q-127 35 -253 35zM376 352q-18 0 -18 16q0 20 24 43.5t51 23.5q21 0 21 -16q0 -19 -26 -43t-52 -24zM256 352q-18 0 -18 16q0 20 24 43.5t51 23.5
q21 0 21 -16q0 -19 -26 -43t-52 -24z" />
    <glyph glyph-name="dotlessi" unicode="&#x131;" horiz-adv-x="237" 
d="M63 28q26 17 90 59.5t90 59.5l4 -8q-29 -19 -91 -61t-90 -59q-66 -41 -108 -41q-37 0 -37 38q0 55 215 273l91 5l3 -6q-58 -42 -166 -148.5t-108 -130.5q0 -19 19 -19q29 0 88 38z" />
    <glyph glyph-name="Lslash" unicode="&#x141;" horiz-adv-x="892" 
d="M729 390v7l14 25q1 5 7 5q31 -3 83 -5q58 58 102.5 97.5t109 84.5t125.5 71.5t142 44.5t170 18q119 0 178.5 -33.5t67.5 -84.5q31 14 36 16l8 -12q-23 -10 -43 -21q-1 -49 -39.5 -90.5t-82.5 -41.5q-28 0 -28 20t33.5 53t93.5 65q0 62 -60 89.5t-154 27.5q-78 0 -160 -16
t-125 -36q-97 -45 -164.5 -106.5t-129.5 -145.5q29 0 66 5l1 -5l-20 -31q-38 3 -67 3q-10 -14 -37 -53.5t-38.5 -55.5t-38 -50.5t-44 -52t-47.5 -45t-57 -45t-63.5 -37t-76.5 -33.5q65 -34 133 -89t120.5 -101.5t118 -90.5t155.5 -69.5t202 -25.5q311 0 469 187l20 -41
q-98 -81 -207 -120.5t-267 -39.5q-125 0 -223 26.5t-166 71.5t-121.5 92t-121.5 102.5t-135 89.5q-156 -50 -380 -50q-113 0 -174 19.5t-61 47.5q0 30 67.5 53t181.5 23q166 0 290 -43q79 36 159.5 97t125 104t129.5 130q-44 -1 -77 -5zM88 93q-96 0 -157.5 -19.5
t-61.5 -43.5q0 -11 16.5 -20.5t53 -15.5t89.5 -6q186 0 341 66q-122 39 -281 39z" />
    <glyph glyph-name="lslash" unicode="&#x142;" horiz-adv-x="242" 
d="M78 323v7l14 25q1 5 7 5q57 -5 90 -5q81 86 145.5 146.5t151 125.5t182.5 109t202 66l4 -19q-85 -14 -163 -46t-134.5 -68t-120 -94.5t-103 -103t-99.5 -116.5q34 0 74 5l1 -5l-20 -31q-58 4 -78 4q-113 -139 -193 -219q-15 -14 -32 -30t-26 -24.5t-17.5 -17.5t-12 -15.5
t-3.5 -12.5q0 -13 26 -13q12 0 24 2.5t26.5 8.5t25 11t27 15t24 15l25.5 17t22 15l105 70l4 -8l-103 -69q-127 -87 -178 -87q-22 0 -34.5 10.5t-12.5 27.5q0 50 78 133q34 35 158 171q-65 -2 -86 -5z" />
    <glyph glyph-name="OE" unicode="&#x152;" horiz-adv-x="924" 
d="M1287 746q130 0 193.5 -47t63.5 -110q0 -43 -28.5 -74.5t-71.5 -31.5t-43 30q0 24 33 53t93 47q0 15 -13 34t-38.5 39t-73 33.5t-106.5 13.5q-83 0 -157 -24.5t-123 -63t-78.5 -83.5t-34.5 -88q87 -8 142 -34t55 -61q0 -21 -18 -32t-46 -11q-46 0 -91.5 26t-58.5 71
q-5 -1 -15 -1q-77 -153 -241.5 -277.5t-334.5 -161.5q0 -120 85 -212t214 -137t277 -45q127 0 267 51t213 125l22 -36q-221 -155 -509 -155q-152 0 -283.5 46t-223 138.5t-112.5 216.5q-37 -5 -63 -5q-108 0 -162 44t-54 118q0 63 37 135.5t110 144t169 129.5t227 94t271 36
q68 0 122 -9l-7 33l12 7q4 -14 10 -42q17 -4 31.5 -8.5t20.5 -7.5l6 -2l-4 -11q-19 7 -52 14q2 -22 2 -34q0 -23 -3 -44q48 73 144 121t225 48zM820 664q-101 0 -215 -41t-211.5 -106t-178 -140t-126.5 -150.5t-46 -130.5q0 -101 151 -101q24 0 49 3q-4 25 -4 59
q0 90 37 163t97 120t138.5 79t157.5 45.5t158 13.5q18 0 50 -2l6 17q3 19 12 40q11 46 11 88q0 12 -2 36q-40 7 -84 7zM856 430q-72 -7 -144.5 -25t-147 -52.5t-132 -80.5t-95.5 -114.5t-42 -149.5q158 37 321.5 155.5t239.5 266.5zM1035 345q50 0 50 36q0 24 -44 38.5
t-115 14.5h-21q11 -41 50.5 -65t79.5 -24z" />
    <glyph glyph-name="oe" unicode="&#x153;" horiz-adv-x="566" 
d="M282 293q36 0 36 -28q0 -24 -29 -68q104 85 227 85q27 0 27 -17q0 -36 -87.5 -94.5t-184.5 -76.5q-50 -58 -50 -83q0 -28 40 -28q52 0 102 29q21 12 208 135l4 -8q-27 -17 -73.5 -49t-78 -52.5t-56.5 -33.5q-63 -33 -121 -33q-70 0 -70 53q0 30 21 67
q-52 -49 -104.5 -81.5t-86.5 -32.5q-63 0 -63 50q0 33 29 79t75 87.5t109.5 70.5t125.5 29zM3 -14q67 0 184 111q-8 8 -8 25q0 43 49 43q14 0 19 -3q59 71 59 104q0 18 -21 18q-32 0 -107.5 -56t-138 -124t-62.5 -99q0 -19 26 -19zM531 263q0 11 -15 11q-37 0 -107.5 -53
t-127.5 -116q93 18 171.5 72.5t78.5 85.5z" />
    <glyph glyph-name="Scaron" unicode="&#x160;" horiz-adv-x="565" 
d="M1163 826q-260 0 -468.5 -137.5t-302.5 -377.5q-6 -16 -20.5 -68.5t-24.5 -83.5q112 16 210 16q40 0 60 -1l-12 -34q-63 11 -136 11q-57 0 -127 -8q-18 -53 -38.5 -99t-56.5 -103.5t-79.5 -103.5t-109 -92t-143 -77t-183.5 -50t-228 -19q-89 0 -89 51q0 46 68 112
q140 136 350 238.5t440 146.5q73 110 123 217q106 227 312 350.5t450 123.5q112 0 167 -33t62 -85l37 13l8 -12q-24 -9 -44 -18q-2 -60 -53.5 -112t-111.5 -52q-17 0 -27 8.5t-10 22.5q0 28 43.5 66.5t136.5 75.5q-2 31 -24.5 55t-55 36t-64 17.5t-59.5 5.5zM-511 -248
q-24 -23 -41 -52t-17 -50q0 -36 50 -36q112 0 225.5 42t213 116t185 164t158.5 196q-206 -36 -411 -131.5t-363 -248.5zM1260 913l171 85l6 -2l-165 -126l-58 13q-9 0 -12 8l-9 122l6 2z" />
    <glyph glyph-name="scaron" unicode="&#x161;" horiz-adv-x="366" 
d="M244 336q6 6 14.5 18.5t13.5 21.5l6 10l36 -15q-22 -5 -33 -27.5t-12.5 -54t-9 -72t-20 -78.5t-49 -75.5t-92.5 -62.5q81 18 181 85l92 61l4 -8l-91 -61q-153 -102 -282 -102q-55 0 -81.5 23t-26.5 58q0 38 26.5 70.5t60.5 32.5q24 0 36 -12q64 39 120.5 86t81.5 74z
M-96 57q0 -29 21 -44.5t41 -15.5q51 0 97.5 30.5t76.5 69.5t56.5 93.5t37 84t19.5 59.5q-109 -115 -230 -194q3 -4 3 -10q0 -25 -29.5 -41.5t-62.5 -16.5q-16 0 -27 4q-3 -10 -3 -19zM335 469l171 85l6 -2l-165 -126l-58 13q-9 0 -12 8l-9 122l6 2z" />
    <glyph glyph-name="Ydieresis" unicode="&#x178;" horiz-adv-x="722" 
d="M530 794q46 0 79 -5.5t63 -20t45.5 -44.5t15.5 -75q0 -76 -31.5 -146.5t-81.5 -124t-110 -101t-120.5 -85t-110.5 -69.5t-81.5 -60.5t-31.5 -51.5q0 -20 30 -20q52 0 175 75.5t239 160.5q118 84 204 158l191 157l10 -19q-135 -112 -222 -189q-180 -161 -233 -233
q-18 -25 -51 -72.5t-54 -77.5t-59 -76t-70.5 -76.5t-83.5 -70t-103.5 -65t-125.5 -53t-153.5 -43.5t-183.5 -26t-220 -10q-132 0 -202 39.5t-70 101.5q0 49 44 100t124 95t208 72t279 28q6 0 17.5 -0.5t17.5 -0.5q100 -4 192.5 -22t135.5 -34l42 -17l-7 -11q-82 40 -256 64
q-71 9 -136 9q-118 0 -222.5 -18t-178.5 -47.5t-128.5 -66.5t-81 -76t-26.5 -76q0 -54 59 -88t172 -34q102 0 210 25.5t202 65.5t193.5 100t179.5 118.5t166.5 131.5t146.5 128t128 119q16 16 24 23l-4 1q-390 -283 -497 -283q-45 0 -45 46q0 37 31.5 81t82.5 87t112 89
t122 93t112 93t82.5 96t31.5 94q0 33 -12 56.5t-30 36.5t-46 20.5t-51.5 9.5t-54.5 2q-109 0 -225.5 -34t-211 -88t-171.5 -116t-120 -122t-43 -103q0 -68 107 -68q151 0 364 133t312 289l10 -2q-49 -117 -169.5 -219t-260.5 -158t-260 -56q-118 0 -118 78q0 38 30.5 88.5
t83.5 103.5t129 104.5t161.5 91.5t187.5 65t201 25zM1012 722q-18 0 -18 16q0 20 24 43.5t51 23.5q21 0 21 -16q0 -19 -26 -43t-52 -24zM892 722q-18 0 -18 16q0 20 24 43.5t51 23.5q21 0 21 -16q0 -19 -26 -43t-52 -24z" />
    <glyph glyph-name="Zcaron" unicode="&#x17d;" horiz-adv-x="671" 
d="M805 524q0 -73 -37.5 -156t-103.5 -160.5t-169 -142t-223 -96.5q34 -43 34 -106q0 -78 -50 -166q49 -24 98 -58l-22 -42q-49 43 -95 70q-44 -66 -110 -124t-155 -105.5t-206 -75.5t-247 -28q-86 0 -128 27t-42 73q0 49 46 108.5t121.5 111.5t185.5 87t224 35
q155 0 301 -65q56 90 56 164q0 53 -30 89q-101 -24 -202 -24q-35 0 -54 10t-19 24q0 21 37 39t98 18q76 0 127 -33q105 38 201 109t160.5 151.5t102.5 163.5t38 149q0 81 -53.5 120t-143.5 39q-109 0 -235.5 -48.5t-216 -126.5t-89.5 -153q0 -48 75 -48q68 0 176 52.5
t200.5 127.5t120.5 136l12 -10q-42 -73 -86.5 -127t-103.5 -100.5t-136.5 -70.5t-170.5 -24q-110 0 -110 65q0 80 91 160.5t223.5 130t252.5 49.5q116 0 186.5 -53t70.5 -166zM-91 -240q-103 0 -204 -32t-171 -79.5t-113.5 -102t-43.5 -98.5q0 -41 39 -65t119 -24
q220 0 399 94.5t275 229.5q-140 77 -300 77zM104 16q-37 0 -63 -6.5t-36 -15.5t-10 -18q0 -18 27 -18q99 0 198 33q-45 25 -116 25zM673 819l171 85l6 -2l-165 -126l-58 13q-9 0 -12 8l-9 122l6 2z" />
    <glyph glyph-name="zcaron" unicode="&#x17e;" horiz-adv-x="411" 
d="M-274 -358q-78 0 -78 42q0 36 55 86.5t155.5 98.5t211.5 68q24 40 24 64q0 5 -2 13q-69 -27 -133 -27q-23 0 -23 13q0 18 32 31.5t74 13.5q9 0 25 -2q66 45 123.5 111t57.5 95q0 14 -16 14q-40 0 -162 -83l-69 -47l-7 6l72 48q154 102 209 102q40 0 40 -38
q0 -48 -59.5 -118.5t-145.5 -110.5q22 -19 49 -19q36 0 94 36q26 16 82 54t81 54l4 -8l-164 -109q-52 -35 -95 -35q-23 0 -46 12q5 -13 5 -28q0 -13 -5 -35q45 6 94 6q20 0 60 -1.5t71 -3t31 -2.5q0 -2 -5.5 -17.5t-7.5 -15.5q-53 31 -154 31q-47 0 -92 -6
q-20 -62 -76.5 -128.5t-141.5 -115.5t-168 -49zM-342 -313q0 -27 46 -27q71 0 186.5 89t173.5 178q-107 -21 -204 -68t-149.5 -94t-52.5 -78zM42 38q-38 0 -68.5 -10.5t-30.5 -24.5q0 -6 13 -6q40 0 102 40q-2 0 -7.5 0.5t-8.5 0.5zM322 373l171 85l6 -2l-165 -126l-58 13
q-9 0 -12 8l-9 122l6 2z" />
    <glyph glyph-name="circumflex" unicode="&#x2c6;" horiz-adv-x="833" 
d="M442 433l-172 -76l-6 2l166 117q30 1 55 1q9 0 12 -8l11 -127l-6 -2z" />
    <glyph glyph-name="caron" unicode="&#x2c7;" horiz-adv-x="833" 
d="M331 375l171 85l6 -2l-165 -126l-58 13q-9 0 -12 8l-9 122l6 2z" />
    <glyph glyph-name="breve" unicode="&#x2d8;" 
d="M453 405l21 5q-16 -35 -39 -54.5t-44 -19.5q-17 0 -28 14t-11 41q0 2 0.5 6t0.5 6l18 5v-8q0 -22 9 -36t23 -14q28 0 50 55z" />
    <glyph glyph-name="dotaccent" unicode="&#x2d9;" horiz-adv-x="237" 
d="M241 344l-6 2q27 57 38 76q6 8 20 8l76 -4l2 -7q-115 -67 -130 -75z" />
    <glyph glyph-name="ring" unicode="&#x2da;" 
d="M381 357q22 0 49 20.5t27 34.5q0 8 -12 8q-24 0 -48.5 -21t-24.5 -35q0 -7 9 -7zM374 349q-22 0 -22 14q0 18 32.5 41t68.5 23q27 0 27 -14q0 -18 -35.5 -41t-70.5 -23z" />
    <glyph glyph-name="ogonek" unicode="&#x2db;" 
d="M22 -19l9 -7q-25 -8 -40 -23.5t-15 -29.5q0 -22 32 -22q16 0 38 7l15 -7q-56 -25 -88 -25q-33 0 -33 24q0 20 23.5 44.5t58.5 38.5z" />
    <glyph glyph-name="tilde" unicode="&#x2dc;" horiz-adv-x="529" 
d="M526 426l8 -5q-31 -59 -68 -59q-17 0 -53 17t-56 17q-29 0 -53 -24l-4 7q39 43 77 43q17 0 47.5 -11t46.5 -11q28 0 55 26z" />
    <glyph glyph-name="pi" unicode="&#x3c0;" horiz-adv-x="1902" 
d="M346 359q75 -11 147 -11q4 0 398.5 31t619.5 31q344 0 344 -69q0 -29 -72.5 -48.5t-159.5 -26t-170 -11.5t-93 -8q149 -9 210 -20t61 -30q0 -49 -255 -68q33 -4 53.5 -13.5t20.5 -20.5q0 -12 -20 -22t-68 -17.5t-118 -9.5l7 -2v0q14 -8 14 -20q0 -81 -229 -81
q-89 0 -207.5 12t-204 24t-94.5 12q-110 0 -225 -22q-100 -129 -288 -129q-33 0 -33 12q0 21 81.5 59.5t198.5 70.5q91 103 91 244q0 52 -15 99q-86 19 -149.5 61t-63.5 71q0 20 37 20q117 0 182 -118zM362 323q18 -54 18 -120q0 -117 -56 -207q161 35 296 35
q137 0 283.5 -20t222.5 -20q39 0 84.5 8t45.5 25q0 8 -12 13.5t-27 5.5q-5 0 -28.5 -1t-39.5 -1q-49 0 -77 3q-39 4 -39 11q0 9 43 9q26 0 74 -2.5t71 -2.5q72 0 120 5t67.5 12.5t19.5 16.5q0 12 -34.5 22t-84.5 10q-46 0 -130 -2t-124 -2q-39 0 -40 26q2 0 22 -0.5t52.5 -1
t65.5 -0.5q461 0 461 52q0 19 -169.5 28.5t-378 12.5t-218.5 4q-16 3 -16 8q0 10 33 10q111 6 268.5 9.5t288.5 10.5t271 25q-18 10 -18 26q0 23 27 48q-149 13 -292 13q-177 0 -366 -19t-344 -38.5t-251 -19.5q-49 0 -89 8zM326 363q-26 47 -68.5 76.5t-93.5 29.5
q-18 0 -18 -12t17.5 -28.5t60.5 -35.5t102 -30zM17 -140q0 -4 10 -4q125 20 210 98q-62 -16 -114.5 -36t-79 -35.5t-26.5 -22.5z" />
    <glyph glyph-name="endash" unicode="&#x2013;" horiz-adv-x="386" 
d="M61 118v7l14 25q1 5 7 5q68 -5 133 -5q59 0 96 5l1 -5l-20 -31q-52 4 -102 4q-96 0 -129 -5z" />
    <glyph glyph-name="emdash" unicode="&#x2014;" horiz-adv-x="638" 
d="M61 118v7l29 25q1 5 13 5q136 -5 267 -5q117 0 192 5l2 -5l-40 -31q-104 4 -205 4q-192 0 -258 -5z" />
    <glyph glyph-name="quoteleft" unicode="&#x2018;" horiz-adv-x="292" 
d="M483 547l3 -6q5 4 -47.5 -27t-107.5 -64t-54 -33l-12 1l118 124z" />
    <glyph glyph-name="quoteright" unicode="&#x2019;" horiz-adv-x="292" 
d="M483 547l3 -6q5 4 -47.5 -27t-107.5 -64t-54 -33l-12 1l118 124z" />
    <glyph glyph-name="quotesinglbase" unicode="&#x201a;" horiz-adv-x="263" 
d="M154 89l3 -6q5 4 -47.5 -27t-107.5 -64t-54 -33l-12 1l118 124z" />
    <glyph glyph-name="quotedblleft" unicode="&#x201c;" horiz-adv-x="422" 
d="M613 547l3 -6q5 4 -47.5 -27t-107.5 -64t-54 -33l-12 1l118 124zM483 547l3 -6q5 4 -47.5 -27t-107.5 -64t-54 -33l-12 1l118 124z" />
    <glyph glyph-name="quotedblright" unicode="&#x201d;" horiz-adv-x="422" 
d="M613 547l3 -6q5 4 -47.5 -27t-107.5 -64t-54 -33l-12 1l118 124zM483 547l3 -6q5 4 -47.5 -27t-107.5 -64t-54 -33l-12 1l118 124z" />
    <glyph glyph-name="quotedblbase" unicode="&#x201e;" horiz-adv-x="393" 
d="M284 90l3 -6q5 4 -47.5 -27t-107.5 -64t-54 -33l-12 1l118 124zM154 90l3 -6q5 4 -47.5 -27t-107.5 -64t-54 -33l-12 1l118 124z" />
    <glyph glyph-name="dagger" unicode="&#x2020;" horiz-adv-x="411" 
d="M48 -252q-25 19 -64 19l-22 -2q17 11 200 418q-41 -1 -66 -3t-34 -3.5t-15 -1.5q-13 0 -20 10.5t-7 24.5q0 16 9 27.5t25 11.5q14 0 33 -10l82 -45l5 97q12 -3 25 -3q12 0 26 2t22 4l8 2l-75 -104l115 -4q34 -1 34 -28q0 -16 -12 -29.5t-27 -13.5q-6 0 -16 5l-97 57
q-4 -14 -37 -117.5t-60.5 -195.5t-31.5 -118z" />
    <glyph glyph-name="bullet" unicode="&#x2022;" horiz-adv-x="291" 
d="M107 82q-51 0 -51 45q0 34 29 65.5t69 31.5q51 0 51 -45q0 -34 -29 -65.5t-69 -31.5z" />
    <glyph glyph-name="ellipsis" unicode="&#x2026;" horiz-adv-x="644" 
d="M36 -15q-41 0 -41 36q0 27 23.5 52.5t54.5 25.5q41 0 41 -36q0 -27 -23.5 -52.5t-54.5 -25.5zM236 -15q-41 0 -41 36q0 27 23.5 52.5t54.5 25.5q41 0 41 -36q0 -27 -23.5 -52.5t-54.5 -25.5zM437 -15q-41 0 -41 36q0 27 23.5 52.5t54.5 25.5q41 0 41 -36
q0 -27 -23.5 -52.5t-54.5 -25.5z" />
    <glyph glyph-name="perthousand" unicode="&#x2030;" horiz-adv-x="725" 
d="M-10 -93l-4 4q77 55 275.5 219t385.5 326l6 -2v-5l1 -9q-81 -71 -224.5 -189t-235.5 -198.5t-135 -131.5q-7 -10 -17 -10q-32 0 -52 -4zM111 122q-43 0 -43 35q0 36 40.5 88.5t106 93.5t125.5 41q36 0 36 -32q0 -27 -21 -64.5t-55 -74t-85 -62t-104 -25.5zM108 132
q47 0 107 49t99 104t39 78q0 7 -11 7q-42 0 -103.5 -44.5t-105 -97.5t-43.5 -80q0 -16 18 -16zM320 -32q-43 0 -43 35q0 36 40.5 88t106 93.5t125.5 41.5q36 0 36 -32q0 -27 -21 -64.5t-55 -74t-85 -62t-104 -25.5zM317 -22q47 0 107 49t99 104t39 78q0 7 -11 7
q-42 0 -103.5 -44.5t-105 -97.5t-43.5 -80q0 -16 18 -16zM570 -32q-43 0 -43 35q0 36 40.5 88t106 93.5t125.5 41.5q36 0 36 -32q0 -27 -21 -64.5t-55 -74t-85 -62t-104 -25.5zM567 -22q47 0 107 49t99 104t39 78q0 7 -11 7q-42 0 -103.5 -44.5t-105 -97.5t-43.5 -80
q0 -16 18 -16z" />
    <glyph glyph-name="guilsinglleft" unicode="&#x2039;" horiz-adv-x="462" 
d="M432 264q-4 0 -75 -28.5t-157.5 -62.5t-119.5 -45q51 -30 157 -81t115 -52l-3 -6q-27 -2 -40 -9l-256 144l8 11l326 143q9 -4 19.5 -6t16.5 -2h6z" />
    <glyph glyph-name="guilsinglright" unicode="&#x203a;" horiz-adv-x="398" 
d="M-41 -6q4 0 75 28.5t157.5 62.5t119.5 45q-51 30 -157 81t-115 52l3 6q27 2 40 9l256 -144l-8 -11l-326 -143q-9 4 -19.5 6t-16.5 2h-6z" />
    <glyph glyph-name="fraction" unicode="&#x2044;" horiz-adv-x="218" 
d="M-186 -93l-4 4q77 55 275.5 219t385.5 326l6 -2v-5l1 -9q-81 -71 -224.5 -189t-235.5 -198.5t-135 -131.5q-7 -10 -17 -10q-32 0 -52 -4z" />
    <glyph glyph-name="Euro" unicode="&#x20ac;" horiz-adv-x="658" 
d="M658 490q66 0 98.5 -29.5t32.5 -68.5q0 -30 -17 -52t-43 -22q-24 0 -24 21q0 19 20 39.5t49 24.5q-4 35 -34.5 55.5t-72.5 20.5q-88 0 -195.5 -62.5t-200.5 -157.5h17q152 0 249 -9l-12 -19q-103 17 -224 17q-28 0 -41 -1l-34 -36h45q151 0 249 -9l-12 -19
q-103 17 -224 17q-24 0 -68 -2q-109 -130 -109 -215q0 -78 103 -78q107 0 203.5 55t190.5 140l19 -17q-9 -8 -25 -20.5t-64.5 -45t-96 -57t-112.5 -45t-121 -20.5q-75 0 -112 31.5t-37 85.5q0 79 70 179q-9 -1 -72 -10l-12 19q35 5 96 8q8 11 26 33q-50 -4 -93 -12l-12 19
q38 6 119 9q92 101 219.5 167t261.5 66z" />
    <glyph glyph-name="product" unicode="&#x220f;" horiz-adv-x="1910" 
d="M1568 -27q-75 11 -147 11q-4 0 -398.5 -31t-619.5 -31q-344 0 -344 69q0 29 72.5 48.5t159.5 26t170 11.5t93 8q-149 9 -210 20t-61 30q0 49 255 68q-33 4 -53.5 13.5t-20.5 20.5q0 12 20 22t68 17.5t118 9.5l-7 2v0q-14 8 -14 20q0 81 229 81q89 0 207.5 -12t204 -24
t94.5 -12q108 0 225 22q98 129 288 129q33 0 33 -12q0 -20 -81.5 -59t-199.5 -71q-90 -103 -90 -244q0 -52 15 -99q86 -19 149.5 -61t63.5 -71q0 -20 -37 -20q-117 0 -182 118zM1552 9q-18 54 -18 120q0 117 56 207q-153 -35 -296 -35q-136 0 -283 20t-223 20
q-39 0 -84.5 -8t-45.5 -25q0 -8 12 -13.5t27 -5.5q5 0 28.5 1t39.5 1q49 0 77 -3q39 -4 39 -11q0 -9 -43 -9q-26 0 -74 2.5t-71 2.5q-72 0 -120 -5t-67.5 -12.5t-19.5 -16.5q0 -12 34.5 -22t84.5 -10q46 0 130 2t124 2q39 0 40 -26q-2 0 -22 0.5t-52.5 1t-65.5 0.5
q-461 0 -461 -52q0 -19 169.5 -28.5t378 -12.5t218.5 -4q16 -3 16 -8q0 -10 -33 -10q-111 -6 -268.5 -9.5t-288.5 -10.5t-271 -25q18 -10 18 -26q0 -23 -27 -48q149 -13 292 -13q177 0 366 19t344 38.5t251 19.5q49 0 89 -8zM1588 -31q26 -47 68.5 -76.5t93.5 -29.5
q18 0 18 12t-17.5 28.5t-60.5 35.5t-102 30zM1897 472q0 4 -10 4q-127 -20 -210 -98q62 16 114.5 36t79 35.5t26.5 22.5z" />
    <glyph glyph-name="minus" unicode="&#x2212;" horiz-adv-x="486" 
d="M41 140v7l22 29q2 5 11 5q27 -1 97.5 -5.5t103.5 -4.5q42 0 162 10l1 -5l-32 -35q-23 1 -77.5 5.5t-80.5 4.5q-115 0 -207 -11z" />
    <glyph glyph-name="fi" unicode="&#xfb01;" horiz-adv-x="511" 
d="M327 28q26 17 90 59.5t90 59.5l4 -8q-29 -19 -91 -61t-90 -59q-66 -41 -108 -41q-37 0 -37 38q0 29 55 97l-34 -22q-30 -20 -79 -35t-92 -15h-4q-31 -31 -74 -66q-281 -221 -555 -221q-32 0 -63 3l3 11q10 -1 30 -1q92 0 176 23t158 68t131 91.5t124 112.5q-21 21 -21 51
q0 21 12.5 35t35.5 14q22 0 22 -23l-55 -37q3 -18 16 -31l59 60q43 44 104 110t98.5 106t93.5 91t104.5 83t115.5 62.5t142 48.5l1 -10q-107 -30 -190.5 -78t-143 -109.5t-104 -120t-102 -135t-108.5 -128.5q40 0 85 14t71 31l62 41q51 61 141 152l91 5l3 -6
q-58 -42 -166 -148.5t-108 -130.5q0 -19 19 -19q29 0 88 38zM505 344l-6 2q27 57 38 76q6 8 20 8l76 -4l2 -7q-115 -67 -130 -75z" />
    <glyph glyph-name="fl" unicode="&#xfb02;" horiz-adv-x="511" 
d="M216 9q0 -13 26 -13q40 0 99 35q13 7 39.5 25t35.5 24l105 70l4 -8l-103 -69q-42 -29 -78 -51q-60 -36 -100 -36q-22 0 -34.5 10.5t-12.5 27.5q0 35 39 87l-30 -20q-30 -20 -79 -35t-92 -15h-4q-31 -31 -74 -66q-281 -221 -555 -221q-32 0 -63 3l3 11q10 -1 30 -1
q92 0 176 23t158 68t131 91.5t124 112.5q-21 21 -21 51q0 21 12.5 35t35.5 14q22 0 22 -23l-55 -37q3 -18 16 -31l59 60q43 44 104 110t98.5 106t93.5 91t104.5 83t115.5 62.5t142 48.5l1 -10q-107 -30 -190.5 -78t-143 -109.5t-104 -120t-102 -135t-108.5 -128.5
q40 0 85 14t71 31l59 39q39 45 138 136t133 127q96 103 201 191.5t153 88.5q22 0 22 -21q0 -26 -32.5 -73.5t-90 -105.5t-151 -124t-200.5 -119q-57 -65 -114 -118t-78 -73.5t-21 -34.5zM885 651q0 13 -11 13q-32 0 -112 -63t-165 -152q-68 -96 -151 -194q111 61 200.5 127
t138.5 118.5t74.5 91.5t25.5 59z" />
    <glyph glyph-name="A.alt" horiz-adv-x="1450" 
d="M1144 127q0 41 23 64.5t49 23.5q16 0 26 -8.5t10 -24.5q0 -18 -14 -30t-30 -16.5t-30 -13t-14 -20.5q0 -17 34 -27q40 36 64 60q78 75 107 102.5t100.5 92.5t110 95.5t107.5 82.5t123.5 84t127 70t147.5 68q-117 0 -279 -67t-264 -132q-71 -44 -141.5 -98.5t-125.5 -101
t-113.5 -93.5t-127.5 -91t-145 -79q-105 -48 -243 -76.5t-267 -28.5q-163 0 -289.5 27.5t-202 75t-113.5 106.5t-38 127q0 81 53 161t147 145t238 105.5t310 40.5q117 0 210 -23.5t151.5 -75t58.5 -125.5q0 -66 -43 -138q29 -24 46 -39l-17 -25q-21 22 -43 43
q-76 -109 -225.5 -181.5t-322.5 -72.5q-165 0 -246 40.5t-81 104.5q0 45 38.5 93t102 87.5t155.5 65t190 25.5q198 0 368 -116q58 71 58 133t-55 107t-143 66.5t-198 21.5q-132 0 -251 -26t-206.5 -70.5t-152 -101.5t-97.5 -120.5t-33 -125.5q0 -129 141 -214t418 -85
q282 0 687 225q92 51 233 137.5t240 144t217 118t225 91t203 30.5q19 0 19 -5q0 -2 -2.5 -4t-4.5 -3l-3 -1q-396 -145 -819 -583q-39 -42 -63 -80h10q89 0 166 52l39 26l4 -8l-37 -25q-79 -54 -177 -54h-11q-10 -18 -18 -35t-11 -25l-2 -9q-19 0 -52 -3.5t-39 -3.5
q-7 0 -7 2t86 81q-46 16 -46 60zM469 519q-202 0 -343.5 -86t-141.5 -176q0 -50 54.5 -81.5t162.5 -31.5q157 0 335.5 75t274.5 179q-79 61 -170 91t-172 30z" />
    <glyph glyph-name="A.alt3" horiz-adv-x="756" 
d="M980 605l116 5l3 -6q-115 -88 -248 -195.5t-273 -235.5t-140 -162q0 -21 33 -21q49 0 110 38q27 17 93 61l87 58l4 -8q-24 -16 -87.5 -59t-93.5 -61q-66 -41 -125 -41q-47 0 -47 38q0 24 20.5 61t45.5 66q-285 -174 -413 -174q-106 0 -106 78q0 49 44 120t120 148.5
t187 154t235 137.5t274 99t295 38q159 0 301 -44l-7 -9q-102 33 -219 33q-133 0 -278.5 -42.5t-270 -109.5t-239 -148.5t-195 -160t-128.5 -144.5t-48 -101q0 -31 38 -31q151 0 451 197q77 74 244 222.5t217 198.5z" />
    <glyph glyph-name="A.orn" horiz-adv-x="134" 
d="M112 128l28 19l4 -8l-27 -18q-303 -202 -303 -347q0 -83 105.5 -140.5t313.5 -82.5q29 87 120 154.5t220 107.5t276 60t303 20q139 0 278.5 -12t299.5 -39.5t261.5 -48t290.5 -61.5q26 -5 64 -14q70 13 94 17q962 177 1491 177q466 0 466 -152q0 -39 -53.5 -77.5
t-150 -70t-248 -51.5t-329.5 -20q-167 0 -334 13.5t-337.5 41t-296 51.5t-302.5 63q-240 -43 -406 -70t-398 -57.5t-464.5 -45.5t-471.5 -15q-205 0 -363 17q-8 -34 -8 -66q0 -86 89.5 -152t241.5 -100.5t341 -34.5q281 0 573 80t524 242l4 -6q-244 -176 -557 -269t-602 -93
q-181 0 -321 36t-224 111.5t-84 180.5q0 34 10 72q-432 51 -432 225q0 151 314 363zM1157 -117q-141 0 -281.5 -18t-274 -55.5t-229.5 -105t-125 -155.5q151 -18 359 -18q433 0 838 48.5t881 134.5q-15 4 -45 10q-179 39 -287 60.5t-263.5 48t-295.5 38.5t-277 12z
M2442 -273l-75 -13q241 -52 400.5 -82t396 -56.5t452.5 -26.5q142 0 267 13t215.5 34.5t156 49t98 57.5t32.5 60q0 118 -443 118q-342 0 -818.5 -58t-681.5 -96z" />
    <glyph glyph-name="A.swsh" horiz-adv-x="1423" 
d="M185 248q0 -29 -17.5 -51t-56.5 -27q-79 -11 -79 -44q0 -54 68 -88t186 -34q16 0 60 2q0 134 99 226q-77 37 -77 114q0 75 53.5 133.5t139 88.5t184.5 30q144 0 265.5 -66t175.5 -197l90 55q97 59 149.5 90.5t139 81t146.5 76t133.5 54.5t139.5 40.5t128 12.5q19 0 19 -5
q0 -2 -2.5 -4t-4.5 -3l-3 -1q-396 -145 -819 -583q-36 -37 -61 -76.5t-32 -60.5l-7 -21q-19 0 -52 -3.5t-39 -3.5q-7 0 -7 2t105 98q3 33 3 62q0 67 -15 121q-165 -134 -308 -199q-105 -48 -243 -76.5t-267 -28.5h-15q7 -164 149 -256q97 80 229.5 126t247.5 46
q104 0 157 -27.5t53 -70.5q0 -63 -99.5 -117.5t-254.5 -54.5q-183 0 -314 74q-60 -63 -87 -141l-57 10q35 78 116 148q-141 94 -156 264q-156 4 -252 54.5t-96 150.5q0 62 38 97t83 35q28 0 46 -14t18 -39zM399 323q0 -55 56 -82q65 55 155.5 84.5t185.5 29.5q100 0 100 -33
q0 -15 -25 -37q-39 -33 -120 -56t-164 -23q-37 0 -64 4q-136 -97 -156 -202q290 28 627 216q84 47 181 105q-50 108 -154 160t-231 52q-152 0 -271.5 -64t-119.5 -154zM856 -381q138 0 231.5 52t93.5 110q0 39 -50 64.5t-150 25.5q-101 0 -227.5 -46t-213.5 -133
q132 -73 316 -73zM1217 92l45 43q78 75 107 102.5t100.5 92.5t110 95.5t107.5 82.5t123.5 84t127 70t147.5 68q-117 0 -279 -67t-264 -132q-48 -30 -100.5 -68.5t-77.5 -58.5t-87 -71.5t-72 -59.5q15 -63 15 -124q0 -27 -3 -57zM588 216q81 0 162.5 22t115.5 53q14 12 14 28
q0 15 -16 15q-76 0 -164 -31.5t-165 -83.5q25 -3 53 -3z" />
    <glyph glyph-name="A.swsh2" horiz-adv-x="1450" 
d="M4072 -7q0 -165 -72.5 -305t-191.5 -235t-272.5 -162.5t-313.5 -98t-318 -30.5q-56 0 -121 5q-96 -126 -282 -191.5t-421 -65.5q-287 0 -582.5 95.5t-519.5 273.5q-224 -135 -525 -135q-357 0 -597 136q4 -166 110 -283.5t283 -117.5q56 0 108 11l15 -35
q-60 -11 -110 -11q-98 0 -180 37t-134.5 99t-81.5 141t-29 166v4q-151 91 -235 226.5t-100 293.5q-356 67 -639 383l6 6q286 -317 632 -381q-3 31 -3 63q0 86 20 172q-44 -2 -67 -2q-124 0 -221.5 26.5t-158 71.5t-91.5 103t-31 123q0 66 30 131t92.5 125t149.5 105.5
t209.5 73t263.5 27.5q320 0 511 -119q133 32 279 32q117 0 210 -23.5t151.5 -75t58.5 -125.5q0 -66 -43 -138q29 -24 46 -39l-12 -18q90 -24 168 -69q74 43 216.5 130t208.5 125q-93 34 -147 100t-54 144q0 120 109.5 210t287 135t392.5 45q162 0 324 -28t315 -83
t286 -146.5t220 -209.5q173 -15 316.5 -63t241 -116t165 -154t98 -176t30.5 -183zM1813 -696q175 -43 361 -43q121 0 241 20q-101 74 -101 181q0 104 89 170t203 66q109 0 185 -65t79 -193q229 131 363 332t134 434q0 269 -166 472q-69 6 -143 6q-159 0 -350 -29.5
t-341.5 -65t-339 -66.5t-341.5 -34q-193 -142 -384 -340q-33 -34 -54 -66l3.5 -7t4.5 -7q84 2 159 52l39 26l4 -8l-37 -25q-69 -47 -161 -54q56 -106 56 -230q0 -141 -71 -274q126 -69 193.5 -104t175.5 -80.5t199 -67.5zM2797 -813q41 -3 82 -3q157 0 319 30.5t318 96.5
t277.5 159t196 228.5t74.5 294.5q0 91 -30 180t-96.5 173.5t-162 151.5t-237 114.5t-311.5 63.5q148 -204 148 -470q0 -250 -135 -462t-371 -342q-7 -121 -72 -215zM2061 1112q-209 0 -381.5 -41t-278.5 -121.5t-106 -187.5q0 -77 54.5 -141.5t147.5 -97.5
q186 107 334 164.5t281 57.5q19 0 19 -5q0 -2 -2.5 -4t-4.5 -3l-3 -1q-207 -76 -424 -235q157 3 347.5 34.5t339.5 67t335 64.5t339 29q63 0 136 -5q-90 107 -222.5 190.5t-283.5 133.5t-309.5 75.5t-317.5 25.5zM971 -715l-26 21l4 6q14 -13 29 -23q167 103 255 262
q-121 67 -189.5 102t-172.5 81t-194.5 66.5t-178.5 20.5q-129 0 -237.5 -30.5t-182 -82.5t-125 -120.5t-75 -143.5t-23.5 -154q240 -138 598 -138q296 0 518 133zM-306 830q-139 0 -260 -27t-207 -72t-148 -103.5t-92 -123t-30 -128.5q0 -134 127.5 -225t366.5 -91
q25 0 69 2q48 197 189.5 360.5t354.5 250.5q66 27 127 42q-186 115 -497 115zM2445 -739q-111 -17 -226 -17q-203 0 -408 49q-90 21 -198 66.5t-177.5 82t-195.5 105.5q-87 -159 -255 -264q215 -165 513 -256t588 -91q227 0 407 59t276 174q-203 19 -324 92zM1144 127
q0 32 14 54q-17 17 -33 29q-115 -87 -236 -142q-105 -48 -243 -76.5t-267 -28.5q-82 0 -160 8q-208 -178 -522 -178q-92 0 -187 16q16 -154 98.5 -286.5t229.5 -221.5q2 79 27.5 154t78.5 143.5t128 119.5t184.5 81t239.5 30q90 0 182.5 -20.5t196.5 -66t173 -80.5t190 -102
q70 132 70 270q0 123 -57 230h-18q-10 -18 -18 -35t-11 -25l-2 -9q-19 0 -52 -3.5t-39 -3.5q-7 0 -7 2t86 81q-46 16 -46 60zM2862 -564q-1 65 -22.5 115t-58 80t-81 45t-94.5 15q-111 0 -197.5 -64t-86.5 -165q0 -107 109 -178q232 40 431 152zM203 707q-207 -53 -331 -169
t-124 -240q0 -96 79 -169q79 27 171 65q-26 29 -26 65q0 82 114 162.5t278 102.5q-47 109 -161 183zM-494 -118q0 -32 3 -65q95 -16 188 -16q295 0 499 172q-258 30 -377 144q-152 -51 -292 -62q-21 -86 -21 -173zM381 526q50 4 77 4q198 0 368 -116q58 71 58 133t-55 107
t-143 66.5t-198 21.5q-137 0 -271 -31q114 -76 164 -185zM825 340q-75 -91 -204 -153.5t-277 -71.5q-37 -60 -93 -115q9 0 27.5 -0.5t28.5 -0.5q282 0 687 225l60 34q-110 61 -229 82zM397 368q0 76 -28 145q-165 -21 -275 -100t-110 -156q0 -33 23 -59l39 17
q210 91 350 124q0 4 0.5 14t0.5 15zM1510 510q-89 -59 -220.5 -167t-157.5 -128q16 -13 31 -28q22 28 53 28q16 0 26 -8.5t10 -24.5q0 -28 -41 -46l21 -29l30 28q91 87 136 130t120.5 109t141.5 115q-82 0 -150 21zM-471 63q132 11 283 61q-76 77 -76 175q0 72 42 144.5
t121 133.5q-143 -94 -238 -228.5t-132 -285.5zM417 362q0 -13 -1 -19q103 23 210 23q76 0 142 -9q26 23 43 41q-79 61 -170 91t-172 30q-38 0 -83 -5q31 -72 31 -152zM-165 122q125 -107 393 -121q54 53 92 113h-21q-220 0 -295 73q-85 -35 -169 -65zM50 207l-36 -15
q55 -48 187 -48q71 0 144 15q42 83 50 171q-118 -28 -345 -123zM626 358q-103 0 -210 -24q-6 -87 -45 -169q108 26 211 75t178 110q-67 8 -134 8zM2860 -603q-176 -95 -395 -133q124 -64 319 -76q67 92 76 209zM1659 497h12q189 141 414 233q-117 0 -279 -67t-264 -132
l-23 -15q61 -19 140 -19zM1227 101l-24 32q-13 -5 -19.5 -8t-13 -9t-6.5 -14q0 -17 34 -27zM879 337q-10 11 -32 31q-10 -14 -16 -21q31 -5 48 -10zM1239 69h7l-3 6q-2 -2 -4 -6z" />
    <glyph glyph-name="Aacute.alt" horiz-adv-x="1450" 
d="M1144 127q0 41 23 64.5t49 23.5q16 0 26 -8.5t10 -24.5q0 -18 -14 -30t-30 -16.5t-30 -13t-14 -20.5q0 -17 34 -27q40 36 64 60q78 75 107 102.5t100.5 92.5t110 95.5t107.5 82.5t123.5 84t127 70t147.5 68q-117 0 -279 -67t-264 -132q-71 -44 -141.5 -98.5t-125.5 -101
t-113.5 -93.5t-127.5 -91t-145 -79q-105 -48 -243 -76.5t-267 -28.5q-163 0 -289.5 27.5t-202 75t-113.5 106.5t-38 127q0 81 53 161t147 145t238 105.5t310 40.5q117 0 210 -23.5t151.5 -75t58.5 -125.5q0 -66 -43 -138q29 -24 46 -39l-17 -25q-21 22 -43 43
q-76 -109 -225.5 -181.5t-322.5 -72.5q-165 0 -246 40.5t-81 104.5q0 45 38.5 93t102 87.5t155.5 65t190 25.5q198 0 368 -116q58 71 58 133t-55 107t-143 66.5t-198 21.5q-132 0 -251 -26t-206.5 -70.5t-152 -101.5t-97.5 -120.5t-33 -125.5q0 -129 141 -214t418 -85
q282 0 687 225q92 51 233 137.5t240 144t217 118t225 91t203 30.5q19 0 19 -5q0 -2 -2.5 -4t-4.5 -3l-3 -1q-396 -145 -819 -583q-39 -42 -63 -80h10q89 0 166 52l39 26l4 -8l-37 -25q-79 -54 -177 -54h-11q-10 -18 -18 -35t-11 -25l-2 -9q-19 0 -52 -3.5t-39 -3.5
q-7 0 -7 2t86 81q-46 16 -46 60zM469 519q-202 0 -343.5 -86t-141.5 -176q0 -50 54.5 -81.5t162.5 -31.5q157 0 335.5 75t274.5 179q-79 61 -170 91t-172 30zM2097 806l-6 2q95 99 106 118q6 8 20 8l86 5l2 -7q-193 -118 -208 -126z" />
    <glyph glyph-name="Aacute.swsh" horiz-adv-x="1423" 
d="M185 248q0 -29 -17.5 -51t-56.5 -27q-79 -11 -79 -44q0 -54 68 -88t186 -34q16 0 60 2q0 134 99 226q-77 37 -77 114q0 75 53.5 133.5t139 88.5t184.5 30q144 0 265.5 -66t175.5 -197l90 55q97 59 149.5 90.5t139 81t146.5 76t133.5 54.5t139.5 40.5t128 12.5q19 0 19 -5
q0 -2 -2.5 -4t-4.5 -3l-3 -1q-396 -145 -819 -583q-36 -37 -61 -76.5t-32 -60.5l-7 -21q-19 0 -52 -3.5t-39 -3.5q-7 0 -7 2t105 98q3 33 3 62q0 67 -15 121q-165 -134 -308 -199q-105 -48 -243 -76.5t-267 -28.5h-15q7 -164 149 -256q97 80 229.5 126t247.5 46
q104 0 157 -27.5t53 -70.5q0 -63 -99.5 -117.5t-254.5 -54.5q-183 0 -314 74q-60 -63 -87 -141l-57 10q35 78 116 148q-141 94 -156 264q-156 4 -252 54.5t-96 150.5q0 62 38 97t83 35q28 0 46 -14t18 -39zM399 323q0 -55 56 -82q65 55 155.5 84.5t185.5 29.5q100 0 100 -33
q0 -15 -25 -37q-39 -33 -120 -56t-164 -23q-37 0 -64 4q-136 -97 -156 -202q290 28 627 216q84 47 181 105q-50 108 -154 160t-231 52q-152 0 -271.5 -64t-119.5 -154zM856 -381q138 0 231.5 52t93.5 110q0 39 -50 64.5t-150 25.5q-101 0 -227.5 -46t-213.5 -133
q132 -73 316 -73zM1217 92l45 43q78 75 107 102.5t100.5 92.5t110 95.5t107.5 82.5t123.5 84t127 70t147.5 68q-117 0 -279 -67t-264 -132q-48 -30 -100.5 -68.5t-77.5 -58.5t-87 -71.5t-72 -59.5q15 -63 15 -124q0 -27 -3 -57zM588 216q81 0 162.5 22t115.5 53q14 12 14 28
q0 15 -16 15q-76 0 -164 -31.5t-165 -83.5q25 -3 53 -3zM2097 806l-6 2q95 99 106 118q6 8 20 8l86 5l2 -7q-193 -118 -208 -126z" />
    <glyph glyph-name="Aacute.swsh2" horiz-adv-x="1423" 
d="M4072 -7q0 -165 -72.5 -305t-191.5 -235t-272.5 -162.5t-313.5 -98t-318 -30.5q-56 0 -121 5q-96 -126 -282 -191.5t-421 -65.5q-287 0 -582.5 95.5t-519.5 273.5q-224 -135 -525 -135q-357 0 -597 136q4 -166 110 -283.5t283 -117.5q56 0 108 11l15 -35
q-60 -11 -110 -11q-98 0 -180 37t-134.5 99t-81.5 141t-29 166v4q-151 91 -235 226.5t-100 293.5q-356 67 -639 383l6 6q286 -317 632 -381q-3 31 -3 63q0 86 20 172q-44 -2 -67 -2q-124 0 -221.5 26.5t-158 71.5t-91.5 103t-31 123q0 66 30 131t92.5 125t149.5 105.5
t209.5 73t263.5 27.5q320 0 511 -119q133 32 279 32q117 0 210 -23.5t151.5 -75t58.5 -125.5q0 -66 -43 -138q29 -24 46 -39l-12 -18q90 -24 168 -69q74 43 216.5 130t208.5 125q-93 34 -147 100t-54 144q0 120 109.5 210t287 135t392.5 45q162 0 324 -28t315 -83
t286 -146.5t220 -209.5q173 -15 316.5 -63t241 -116t165 -154t98 -176t30.5 -183zM1813 -696q175 -43 361 -43q121 0 241 20q-101 74 -101 181q0 104 89 170t203 66q109 0 185 -65t79 -193q229 131 363 332t134 434q0 269 -166 472q-69 6 -143 6q-159 0 -350 -29.5
t-341.5 -65t-339 -66.5t-341.5 -34q-193 -142 -384 -340q-33 -34 -54 -66l3.5 -7t4.5 -7q84 2 159 52l39 26l4 -8l-37 -25q-69 -47 -161 -54q56 -106 56 -230q0 -141 -71 -274q126 -69 193.5 -104t175.5 -80.5t199 -67.5zM2797 -813q41 -3 82 -3q157 0 319 30.5t318 96.5
t277.5 159t196 228.5t74.5 294.5q0 91 -30 180t-96.5 173.5t-162 151.5t-237 114.5t-311.5 63.5q148 -204 148 -470q0 -250 -135 -462t-371 -342q-7 -121 -72 -215zM2061 1112q-209 0 -381.5 -41t-278.5 -121.5t-106 -187.5q0 -77 54.5 -141.5t147.5 -97.5
q186 107 334 164.5t281 57.5q19 0 19 -5q0 -2 -2.5 -4t-4.5 -3l-3 -1q-207 -76 -424 -235q157 3 347.5 34.5t339.5 67t335 64.5t339 29q63 0 136 -5q-90 107 -222.5 190.5t-283.5 133.5t-309.5 75.5t-317.5 25.5zM971 -715l-26 21l4 6q14 -13 29 -23q167 103 255 262
q-121 67 -189.5 102t-172.5 81t-194.5 66.5t-178.5 20.5q-129 0 -237.5 -30.5t-182 -82.5t-125 -120.5t-75 -143.5t-23.5 -154q240 -138 598 -138q296 0 518 133zM-306 830q-139 0 -260 -27t-207 -72t-148 -103.5t-92 -123t-30 -128.5q0 -134 127.5 -225t366.5 -91
q25 0 69 2q48 197 189.5 360.5t354.5 250.5q66 27 127 42q-186 115 -497 115zM2445 -739q-111 -17 -226 -17q-203 0 -408 49q-90 21 -198 66.5t-177.5 82t-195.5 105.5q-87 -159 -255 -264q215 -165 513 -256t588 -91q227 0 407 59t276 174q-203 19 -324 92zM1144 127
q0 32 14 54q-17 17 -33 29q-115 -87 -236 -142q-105 -48 -243 -76.5t-267 -28.5q-82 0 -160 8q-208 -178 -522 -178q-92 0 -187 16q16 -154 98.5 -286.5t229.5 -221.5q2 79 27.5 154t78.5 143.5t128 119.5t184.5 81t239.5 30q90 0 182.5 -20.5t196.5 -66t173 -80.5t190 -102
q70 132 70 270q0 123 -57 230h-18q-10 -18 -18 -35t-11 -25l-2 -9q-19 0 -52 -3.5t-39 -3.5q-7 0 -7 2t86 81q-46 16 -46 60zM2862 -564q-1 65 -22.5 115t-58 80t-81 45t-94.5 15q-111 0 -197.5 -64t-86.5 -165q0 -107 109 -178q232 40 431 152zM203 707q-207 -53 -331 -169
t-124 -240q0 -96 79 -169q79 27 171 65q-26 29 -26 65q0 82 114 162.5t278 102.5q-47 109 -161 183zM-494 -118q0 -32 3 -65q95 -16 188 -16q295 0 499 172q-258 30 -377 144q-152 -51 -292 -62q-21 -86 -21 -173zM381 526q50 4 77 4q198 0 368 -116q58 71 58 133t-55 107
t-143 66.5t-198 21.5q-137 0 -271 -31q114 -76 164 -185zM825 340q-75 -91 -204 -153.5t-277 -71.5q-37 -60 -93 -115q9 0 27.5 -0.5t28.5 -0.5q282 0 687 225l60 34q-110 61 -229 82zM397 368q0 76 -28 145q-165 -21 -275 -100t-110 -156q0 -33 23 -59l39 17
q210 91 350 124q0 4 0.5 14t0.5 15zM1510 510q-89 -59 -220.5 -167t-157.5 -128q16 -13 31 -28q22 28 53 28q16 0 26 -8.5t10 -24.5q0 -28 -41 -46l21 -29l30 28q91 87 136 130t120.5 109t141.5 115q-82 0 -150 21zM-471 63q132 11 283 61q-76 77 -76 175q0 72 42 144.5
t121 133.5q-143 -94 -238 -228.5t-132 -285.5zM417 362q0 -13 -1 -19q103 23 210 23q76 0 142 -9q26 23 43 41q-79 61 -170 91t-172 30q-38 0 -83 -5q31 -72 31 -152zM-165 122q125 -107 393 -121q54 53 92 113h-21q-220 0 -295 73q-85 -35 -169 -65zM50 207l-36 -15
q55 -48 187 -48q71 0 144 15q42 83 50 171q-118 -28 -345 -123zM626 358q-103 0 -210 -24q-6 -87 -45 -169q108 26 211 75t178 110q-67 8 -134 8zM2860 -603q-176 -95 -395 -133q124 -64 319 -76q67 92 76 209zM1659 497h12q189 141 414 233q-117 0 -279 -67t-264 -132
l-23 -15q61 -19 140 -19zM1227 101l-24 32q-13 -5 -19.5 -8t-13 -9t-6.5 -14q0 -17 34 -27zM879 337q-10 11 -32 31q-10 -14 -16 -21q31 -5 48 -10zM1239 69h7l-3 6q-2 -2 -4 -6zM2097 806l-6 2q95 99 106 118q6 8 20 8l86 5l2 -7q-193 -118 -208 -126z" />
    <glyph glyph-name="Acircumflex.alt" horiz-adv-x="1450" 
d="M1144 127q0 41 23 64.5t49 23.5q16 0 26 -8.5t10 -24.5q0 -18 -14 -30t-30 -16.5t-30 -13t-14 -20.5q0 -17 34 -27q40 36 64 60q78 75 107 102.5t100.5 92.5t110 95.5t107.5 82.5t123.5 84t127 70t147.5 68q-117 0 -279 -67t-264 -132q-71 -44 -141.5 -98.5t-125.5 -101
t-113.5 -93.5t-127.5 -91t-145 -79q-105 -48 -243 -76.5t-267 -28.5q-163 0 -289.5 27.5t-202 75t-113.5 106.5t-38 127q0 81 53 161t147 145t238 105.5t310 40.5q117 0 210 -23.5t151.5 -75t58.5 -125.5q0 -66 -43 -138q29 -24 46 -39l-17 -25q-21 22 -43 43
q-76 -109 -225.5 -181.5t-322.5 -72.5q-165 0 -246 40.5t-81 104.5q0 45 38.5 93t102 87.5t155.5 65t190 25.5q198 0 368 -116q58 71 58 133t-55 107t-143 66.5t-198 21.5q-132 0 -251 -26t-206.5 -70.5t-152 -101.5t-97.5 -120.5t-33 -125.5q0 -129 141 -214t418 -85
q282 0 687 225q92 51 233 137.5t240 144t217 118t225 91t203 30.5q19 0 19 -5q0 -2 -2.5 -4t-4.5 -3l-3 -1q-396 -145 -819 -583q-39 -42 -63 -80h10q89 0 166 52l39 26l4 -8l-37 -25q-79 -54 -177 -54h-11q-10 -18 -18 -35t-11 -25l-2 -9q-19 0 -52 -3.5t-39 -3.5
q-7 0 -7 2t86 81q-46 16 -46 60zM469 519q-202 0 -343.5 -86t-141.5 -176q0 -50 54.5 -81.5t162.5 -31.5q157 0 335.5 75t274.5 179q-79 61 -170 91t-172 30zM2130 875l-172 -76l-6 2l166 117q30 1 55 1q9 0 12 -8l11 -127l-6 -2z" />
    <glyph glyph-name="Acircumflex.swsh" horiz-adv-x="1423" 
d="M185 248q0 -29 -17.5 -51t-56.5 -27q-79 -11 -79 -44q0 -54 68 -88t186 -34q16 0 60 2q0 134 99 226q-77 37 -77 114q0 75 53.5 133.5t139 88.5t184.5 30q144 0 265.5 -66t175.5 -197l90 55q97 59 149.5 90.5t139 81t146.5 76t133.5 54.5t139.5 40.5t128 12.5q19 0 19 -5
q0 -2 -2.5 -4t-4.5 -3l-3 -1q-396 -145 -819 -583q-36 -37 -61 -76.5t-32 -60.5l-7 -21q-19 0 -52 -3.5t-39 -3.5q-7 0 -7 2t105 98q3 33 3 62q0 67 -15 121q-165 -134 -308 -199q-105 -48 -243 -76.5t-267 -28.5h-15q7 -164 149 -256q97 80 229.5 126t247.5 46
q104 0 157 -27.5t53 -70.5q0 -63 -99.5 -117.5t-254.5 -54.5q-183 0 -314 74q-60 -63 -87 -141l-57 10q35 78 116 148q-141 94 -156 264q-156 4 -252 54.5t-96 150.5q0 62 38 97t83 35q28 0 46 -14t18 -39zM399 323q0 -55 56 -82q65 55 155.5 84.5t185.5 29.5q100 0 100 -33
q0 -15 -25 -37q-39 -33 -120 -56t-164 -23q-37 0 -64 4q-136 -97 -156 -202q290 28 627 216q84 47 181 105q-50 108 -154 160t-231 52q-152 0 -271.5 -64t-119.5 -154zM856 -381q138 0 231.5 52t93.5 110q0 39 -50 64.5t-150 25.5q-101 0 -227.5 -46t-213.5 -133
q132 -73 316 -73zM1217 92l45 43q78 75 107 102.5t100.5 92.5t110 95.5t107.5 82.5t123.5 84t127 70t147.5 68q-117 0 -279 -67t-264 -132q-48 -30 -100.5 -68.5t-77.5 -58.5t-87 -71.5t-72 -59.5q15 -63 15 -124q0 -27 -3 -57zM588 216q81 0 162.5 22t115.5 53q14 12 14 28
q0 15 -16 15q-76 0 -164 -31.5t-165 -83.5q25 -3 53 -3zM2130 875l-172 -76l-6 2l166 117q30 1 55 1q9 0 12 -8l11 -127l-6 -2z" />
    <glyph glyph-name="Acircumflex.swsh2" horiz-adv-x="1423" 
d="M4072 -7q0 -165 -72.5 -305t-191.5 -235t-272.5 -162.5t-313.5 -98t-318 -30.5q-56 0 -121 5q-96 -126 -282 -191.5t-421 -65.5q-287 0 -582.5 95.5t-519.5 273.5q-224 -135 -525 -135q-357 0 -597 136q4 -166 110 -283.5t283 -117.5q56 0 108 11l15 -35
q-60 -11 -110 -11q-98 0 -180 37t-134.5 99t-81.5 141t-29 166v4q-151 91 -235 226.5t-100 293.5q-356 67 -639 383l6 6q286 -317 632 -381q-3 31 -3 63q0 86 20 172q-44 -2 -67 -2q-124 0 -221.5 26.5t-158 71.5t-91.5 103t-31 123q0 66 30 131t92.5 125t149.5 105.5
t209.5 73t263.5 27.5q320 0 511 -119q133 32 279 32q117 0 210 -23.5t151.5 -75t58.5 -125.5q0 -66 -43 -138q29 -24 46 -39l-12 -18q90 -24 168 -69q74 43 216.5 130t208.5 125q-93 34 -147 100t-54 144q0 120 109.5 210t287 135t392.5 45q162 0 324 -28t315 -83
t286 -146.5t220 -209.5q173 -15 316.5 -63t241 -116t165 -154t98 -176t30.5 -183zM1813 -696q175 -43 361 -43q121 0 241 20q-101 74 -101 181q0 104 89 170t203 66q109 0 185 -65t79 -193q229 131 363 332t134 434q0 269 -166 472q-69 6 -143 6q-159 0 -350 -29.5
t-341.5 -65t-339 -66.5t-341.5 -34q-193 -142 -384 -340q-33 -34 -54 -66l3.5 -7t4.5 -7q84 2 159 52l39 26l4 -8l-37 -25q-69 -47 -161 -54q56 -106 56 -230q0 -141 -71 -274q126 -69 193.5 -104t175.5 -80.5t199 -67.5zM2797 -813q41 -3 82 -3q157 0 319 30.5t318 96.5
t277.5 159t196 228.5t74.5 294.5q0 91 -30 180t-96.5 173.5t-162 151.5t-237 114.5t-311.5 63.5q148 -204 148 -470q0 -250 -135 -462t-371 -342q-7 -121 -72 -215zM2061 1112q-209 0 -381.5 -41t-278.5 -121.5t-106 -187.5q0 -77 54.5 -141.5t147.5 -97.5
q186 107 334 164.5t281 57.5q19 0 19 -5q0 -2 -2.5 -4t-4.5 -3l-3 -1q-207 -76 -424 -235q157 3 347.5 34.5t339.5 67t335 64.5t339 29q63 0 136 -5q-90 107 -222.5 190.5t-283.5 133.5t-309.5 75.5t-317.5 25.5zM971 -715l-26 21l4 6q14 -13 29 -23q167 103 255 262
q-121 67 -189.5 102t-172.5 81t-194.5 66.5t-178.5 20.5q-129 0 -237.5 -30.5t-182 -82.5t-125 -120.5t-75 -143.5t-23.5 -154q240 -138 598 -138q296 0 518 133zM-306 830q-139 0 -260 -27t-207 -72t-148 -103.5t-92 -123t-30 -128.5q0 -134 127.5 -225t366.5 -91
q25 0 69 2q48 197 189.5 360.5t354.5 250.5q66 27 127 42q-186 115 -497 115zM2445 -739q-111 -17 -226 -17q-203 0 -408 49q-90 21 -198 66.5t-177.5 82t-195.5 105.5q-87 -159 -255 -264q215 -165 513 -256t588 -91q227 0 407 59t276 174q-203 19 -324 92zM1144 127
q0 32 14 54q-17 17 -33 29q-115 -87 -236 -142q-105 -48 -243 -76.5t-267 -28.5q-82 0 -160 8q-208 -178 -522 -178q-92 0 -187 16q16 -154 98.5 -286.5t229.5 -221.5q2 79 27.5 154t78.5 143.5t128 119.5t184.5 81t239.5 30q90 0 182.5 -20.5t196.5 -66t173 -80.5t190 -102
q70 132 70 270q0 123 -57 230h-18q-10 -18 -18 -35t-11 -25l-2 -9q-19 0 -52 -3.5t-39 -3.5q-7 0 -7 2t86 81q-46 16 -46 60zM2862 -564q-1 65 -22.5 115t-58 80t-81 45t-94.5 15q-111 0 -197.5 -64t-86.5 -165q0 -107 109 -178q232 40 431 152zM203 707q-207 -53 -331 -169
t-124 -240q0 -96 79 -169q79 27 171 65q-26 29 -26 65q0 82 114 162.5t278 102.5q-47 109 -161 183zM-494 -118q0 -32 3 -65q95 -16 188 -16q295 0 499 172q-258 30 -377 144q-152 -51 -292 -62q-21 -86 -21 -173zM381 526q50 4 77 4q198 0 368 -116q58 71 58 133t-55 107
t-143 66.5t-198 21.5q-137 0 -271 -31q114 -76 164 -185zM825 340q-75 -91 -204 -153.5t-277 -71.5q-37 -60 -93 -115q9 0 27.5 -0.5t28.5 -0.5q282 0 687 225l60 34q-110 61 -229 82zM397 368q0 76 -28 145q-165 -21 -275 -100t-110 -156q0 -33 23 -59l39 17
q210 91 350 124q0 4 0.5 14t0.5 15zM1510 510q-89 -59 -220.5 -167t-157.5 -128q16 -13 31 -28q22 28 53 28q16 0 26 -8.5t10 -24.5q0 -28 -41 -46l21 -29l30 28q91 87 136 130t120.5 109t141.5 115q-82 0 -150 21zM-471 63q132 11 283 61q-76 77 -76 175q0 72 42 144.5
t121 133.5q-143 -94 -238 -228.5t-132 -285.5zM417 362q0 -13 -1 -19q103 23 210 23q76 0 142 -9q26 23 43 41q-79 61 -170 91t-172 30q-38 0 -83 -5q31 -72 31 -152zM-165 122q125 -107 393 -121q54 53 92 113h-21q-220 0 -295 73q-85 -35 -169 -65zM50 207l-36 -15
q55 -48 187 -48q71 0 144 15q42 83 50 171q-118 -28 -345 -123zM626 358q-103 0 -210 -24q-6 -87 -45 -169q108 26 211 75t178 110q-67 8 -134 8zM2860 -603q-176 -95 -395 -133q124 -64 319 -76q67 92 76 209zM1659 497h12q189 141 414 233q-117 0 -279 -67t-264 -132
l-23 -15q61 -19 140 -19zM1227 101l-24 32q-13 -5 -19.5 -8t-13 -9t-6.5 -14q0 -17 34 -27zM879 337q-10 11 -32 31q-10 -14 -16 -21q31 -5 48 -10zM1239 69h7l-3 6q-2 -2 -4 -6zM2130 875l-172 -76l-6 2l166 117q30 1 55 1q9 0 12 -8l11 -127l-6 -2z" />
    <glyph glyph-name="Adieresis.alt" horiz-adv-x="1450" 
d="M1144 127q0 41 23 64.5t49 23.5q16 0 26 -8.5t10 -24.5q0 -18 -14 -30t-30 -16.5t-30 -13t-14 -20.5q0 -17 34 -27q40 36 64 60q78 75 107 102.5t100.5 92.5t110 95.5t107.5 82.5t123.5 84t127 70t147.5 68q-117 0 -279 -67t-264 -132q-71 -44 -141.5 -98.5t-125.5 -101
t-113.5 -93.5t-127.5 -91t-145 -79q-105 -48 -243 -76.5t-267 -28.5q-163 0 -289.5 27.5t-202 75t-113.5 106.5t-38 127q0 81 53 161t147 145t238 105.5t310 40.5q117 0 210 -23.5t151.5 -75t58.5 -125.5q0 -66 -43 -138q29 -24 46 -39l-17 -25q-21 22 -43 43
q-76 -109 -225.5 -181.5t-322.5 -72.5q-165 0 -246 40.5t-81 104.5q0 45 38.5 93t102 87.5t155.5 65t190 25.5q198 0 368 -116q58 71 58 133t-55 107t-143 66.5t-198 21.5q-132 0 -251 -26t-206.5 -70.5t-152 -101.5t-97.5 -120.5t-33 -125.5q0 -129 141 -214t418 -85
q282 0 687 225q92 51 233 137.5t240 144t217 118t225 91t203 30.5q19 0 19 -5q0 -2 -2.5 -4t-4.5 -3l-3 -1q-396 -145 -819 -583q-39 -42 -63 -80h10q89 0 166 52l39 26l4 -8l-37 -25q-79 -54 -177 -54h-11q-10 -18 -18 -35t-11 -25l-2 -9q-19 0 -52 -3.5t-39 -3.5
q-7 0 -7 2t86 81q-46 16 -46 60zM469 519q-202 0 -343.5 -86t-141.5 -176q0 -50 54.5 -81.5t162.5 -31.5q157 0 335.5 75t274.5 179q-79 61 -170 91t-172 30zM2185 801q-18 0 -18 16q0 20 24 43.5t51 23.5q21 0 21 -16q0 -19 -26 -43t-52 -24zM2065 801q-18 0 -18 16
q0 20 24 43.5t51 23.5q21 0 21 -16q0 -19 -26 -43t-52 -24z" />
    <glyph glyph-name="Adieresis.swsh" horiz-adv-x="1423" 
d="M185 248q0 -29 -17.5 -51t-56.5 -27q-79 -11 -79 -44q0 -54 68 -88t186 -34q16 0 60 2q0 134 99 226q-77 37 -77 114q0 75 53.5 133.5t139 88.5t184.5 30q144 0 265.5 -66t175.5 -197l90 55q97 59 149.5 90.5t139 81t146.5 76t133.5 54.5t139.5 40.5t128 12.5q19 0 19 -5
q0 -2 -2.5 -4t-4.5 -3l-3 -1q-396 -145 -819 -583q-36 -37 -61 -76.5t-32 -60.5l-7 -21q-19 0 -52 -3.5t-39 -3.5q-7 0 -7 2t105 98q3 33 3 62q0 67 -15 121q-165 -134 -308 -199q-105 -48 -243 -76.5t-267 -28.5h-15q7 -164 149 -256q97 80 229.5 126t247.5 46
q104 0 157 -27.5t53 -70.5q0 -63 -99.5 -117.5t-254.5 -54.5q-183 0 -314 74q-60 -63 -87 -141l-57 10q35 78 116 148q-141 94 -156 264q-156 4 -252 54.5t-96 150.5q0 62 38 97t83 35q28 0 46 -14t18 -39zM399 323q0 -55 56 -82q65 55 155.5 84.5t185.5 29.5q100 0 100 -33
q0 -15 -25 -37q-39 -33 -120 -56t-164 -23q-37 0 -64 4q-136 -97 -156 -202q290 28 627 216q84 47 181 105q-50 108 -154 160t-231 52q-152 0 -271.5 -64t-119.5 -154zM856 -381q138 0 231.5 52t93.5 110q0 39 -50 64.5t-150 25.5q-101 0 -227.5 -46t-213.5 -133
q132 -73 316 -73zM1217 92l45 43q78 75 107 102.5t100.5 92.5t110 95.5t107.5 82.5t123.5 84t127 70t147.5 68q-117 0 -279 -67t-264 -132q-48 -30 -100.5 -68.5t-77.5 -58.5t-87 -71.5t-72 -59.5q15 -63 15 -124q0 -27 -3 -57zM588 216q81 0 162.5 22t115.5 53q14 12 14 28
q0 15 -16 15q-76 0 -164 -31.5t-165 -83.5q25 -3 53 -3zM2185 801q-18 0 -18 16q0 20 24 43.5t51 23.5q21 0 21 -16q0 -19 -26 -43t-52 -24zM2065 801q-18 0 -18 16q0 20 24 43.5t51 23.5q21 0 21 -16q0 -19 -26 -43t-52 -24z" />
    <glyph glyph-name="Adieresis.swsh2" horiz-adv-x="1450" 
d="M4072 -7q0 -165 -72.5 -305t-191.5 -235t-272.5 -162.5t-313.5 -98t-318 -30.5q-56 0 -121 5q-96 -126 -282 -191.5t-421 -65.5q-287 0 -582.5 95.5t-519.5 273.5q-224 -135 -525 -135q-357 0 -597 136q4 -166 110 -283.5t283 -117.5q56 0 108 11l15 -35
q-60 -11 -110 -11q-98 0 -180 37t-134.5 99t-81.5 141t-29 166v4q-151 91 -235 226.5t-100 293.5q-356 67 -639 383l6 6q286 -317 632 -381q-3 31 -3 63q0 86 20 172q-44 -2 -67 -2q-124 0 -221.5 26.5t-158 71.5t-91.5 103t-31 123q0 66 30 131t92.5 125t149.5 105.5
t209.5 73t263.5 27.5q320 0 511 -119q133 32 279 32q117 0 210 -23.5t151.5 -75t58.5 -125.5q0 -66 -43 -138q29 -24 46 -39l-12 -18q90 -24 168 -69q74 43 216.5 130t208.5 125q-93 34 -147 100t-54 144q0 120 109.5 210t287 135t392.5 45q162 0 324 -28t315 -83
t286 -146.5t220 -209.5q173 -15 316.5 -63t241 -116t165 -154t98 -176t30.5 -183zM1813 -696q175 -43 361 -43q121 0 241 20q-101 74 -101 181q0 104 89 170t203 66q109 0 185 -65t79 -193q229 131 363 332t134 434q0 269 -166 472q-69 6 -143 6q-159 0 -350 -29.5
t-341.5 -65t-339 -66.5t-341.5 -34q-193 -142 -384 -340q-33 -34 -54 -66l3.5 -7t4.5 -7q84 2 159 52l39 26l4 -8l-37 -25q-69 -47 -161 -54q56 -106 56 -230q0 -141 -71 -274q126 -69 193.5 -104t175.5 -80.5t199 -67.5zM2797 -813q41 -3 82 -3q157 0 319 30.5t318 96.5
t277.5 159t196 228.5t74.5 294.5q0 91 -30 180t-96.5 173.5t-162 151.5t-237 114.5t-311.5 63.5q148 -204 148 -470q0 -250 -135 -462t-371 -342q-7 -121 -72 -215zM2061 1112q-209 0 -381.5 -41t-278.5 -121.5t-106 -187.5q0 -77 54.5 -141.5t147.5 -97.5
q186 107 334 164.5t281 57.5q19 0 19 -5q0 -2 -2.5 -4t-4.5 -3l-3 -1q-207 -76 -424 -235q157 3 347.5 34.5t339.5 67t335 64.5t339 29q63 0 136 -5q-90 107 -222.5 190.5t-283.5 133.5t-309.5 75.5t-317.5 25.5zM971 -715l-26 21l4 6q14 -13 29 -23q167 103 255 262
q-121 67 -189.5 102t-172.5 81t-194.5 66.5t-178.5 20.5q-129 0 -237.5 -30.5t-182 -82.5t-125 -120.5t-75 -143.5t-23.5 -154q240 -138 598 -138q296 0 518 133zM-306 830q-139 0 -260 -27t-207 -72t-148 -103.5t-92 -123t-30 -128.5q0 -134 127.5 -225t366.5 -91
q25 0 69 2q48 197 189.5 360.5t354.5 250.5q66 27 127 42q-186 115 -497 115zM2445 -739q-111 -17 -226 -17q-203 0 -408 49q-90 21 -198 66.5t-177.5 82t-195.5 105.5q-87 -159 -255 -264q215 -165 513 -256t588 -91q227 0 407 59t276 174q-203 19 -324 92zM1144 127
q0 32 14 54q-17 17 -33 29q-115 -87 -236 -142q-105 -48 -243 -76.5t-267 -28.5q-82 0 -160 8q-208 -178 -522 -178q-92 0 -187 16q16 -154 98.5 -286.5t229.5 -221.5q2 79 27.5 154t78.5 143.5t128 119.5t184.5 81t239.5 30q90 0 182.5 -20.5t196.5 -66t173 -80.5t190 -102
q70 132 70 270q0 123 -57 230h-18q-10 -18 -18 -35t-11 -25l-2 -9q-19 0 -52 -3.5t-39 -3.5q-7 0 -7 2t86 81q-46 16 -46 60zM2862 -564q-1 65 -22.5 115t-58 80t-81 45t-94.5 15q-111 0 -197.5 -64t-86.5 -165q0 -107 109 -178q232 40 431 152zM203 707q-207 -53 -331 -169
t-124 -240q0 -96 79 -169q79 27 171 65q-26 29 -26 65q0 82 114 162.5t278 102.5q-47 109 -161 183zM-494 -118q0 -32 3 -65q95 -16 188 -16q295 0 499 172q-258 30 -377 144q-152 -51 -292 -62q-21 -86 -21 -173zM381 526q50 4 77 4q198 0 368 -116q58 71 58 133t-55 107
t-143 66.5t-198 21.5q-137 0 -271 -31q114 -76 164 -185zM825 340q-75 -91 -204 -153.5t-277 -71.5q-37 -60 -93 -115q9 0 27.5 -0.5t28.5 -0.5q282 0 687 225l60 34q-110 61 -229 82zM397 368q0 76 -28 145q-165 -21 -275 -100t-110 -156q0 -33 23 -59l39 17
q210 91 350 124q0 4 0.5 14t0.5 15zM1510 510q-89 -59 -220.5 -167t-157.5 -128q16 -13 31 -28q22 28 53 28q16 0 26 -8.5t10 -24.5q0 -28 -41 -46l21 -29l30 28q91 87 136 130t120.5 109t141.5 115q-82 0 -150 21zM-471 63q132 11 283 61q-76 77 -76 175q0 72 42 144.5
t121 133.5q-143 -94 -238 -228.5t-132 -285.5zM417 362q0 -13 -1 -19q103 23 210 23q76 0 142 -9q26 23 43 41q-79 61 -170 91t-172 30q-38 0 -83 -5q31 -72 31 -152zM-165 122q125 -107 393 -121q54 53 92 113h-21q-220 0 -295 73q-85 -35 -169 -65zM50 207l-36 -15
q55 -48 187 -48q71 0 144 15q42 83 50 171q-118 -28 -345 -123zM626 358q-103 0 -210 -24q-6 -87 -45 -169q108 26 211 75t178 110q-67 8 -134 8zM2860 -603q-176 -95 -395 -133q124 -64 319 -76q67 92 76 209zM1659 497h12q189 141 414 233q-117 0 -279 -67t-264 -132
l-23 -15q61 -19 140 -19zM1227 101l-24 32q-13 -5 -19.5 -8t-13 -9t-6.5 -14q0 -17 34 -27zM879 337q-10 11 -32 31q-10 -14 -16 -21q31 -5 48 -10zM1239 69h7l-3 6q-2 -2 -4 -6zM2185 801q-18 0 -18 16q0 20 24 43.5t51 23.5q21 0 21 -16q0 -19 -26 -43t-52 -24zM2065 801
q-18 0 -18 16q0 20 24 43.5t51 23.5q21 0 21 -16q0 -19 -26 -43t-52 -24z" />
    <glyph glyph-name="Agrave.alt" horiz-adv-x="1450" 
d="M1144 127q0 41 23 64.5t49 23.5q16 0 26 -8.5t10 -24.5q0 -18 -14 -30t-30 -16.5t-30 -13t-14 -20.5q0 -17 34 -27q40 36 64 60q78 75 107 102.5t100.5 92.5t110 95.5t107.5 82.5t123.5 84t127 70t147.5 68q-117 0 -279 -67t-264 -132q-71 -44 -141.5 -98.5t-125.5 -101
t-113.5 -93.5t-127.5 -91t-145 -79q-105 -48 -243 -76.5t-267 -28.5q-163 0 -289.5 27.5t-202 75t-113.5 106.5t-38 127q0 81 53 161t147 145t238 105.5t310 40.5q117 0 210 -23.5t151.5 -75t58.5 -125.5q0 -66 -43 -138q29 -24 46 -39l-17 -25q-21 22 -43 43
q-76 -109 -225.5 -181.5t-322.5 -72.5q-165 0 -246 40.5t-81 104.5q0 45 38.5 93t102 87.5t155.5 65t190 25.5q198 0 368 -116q58 71 58 133t-55 107t-143 66.5t-198 21.5q-132 0 -251 -26t-206.5 -70.5t-152 -101.5t-97.5 -120.5t-33 -125.5q0 -129 141 -214t418 -85
q282 0 687 225q92 51 233 137.5t240 144t217 118t225 91t203 30.5q19 0 19 -5q0 -2 -2.5 -4t-4.5 -3l-3 -1q-396 -145 -819 -583q-39 -42 -63 -80h10q89 0 166 52l39 26l4 -8l-37 -25q-79 -54 -177 -54h-11q-10 -18 -18 -35t-11 -25l-2 -9q-19 0 -52 -3.5t-39 -3.5
q-7 0 -7 2t86 81q-46 16 -46 60zM469 519q-202 0 -343.5 -86t-141.5 -176q0 -50 54.5 -81.5t162.5 -31.5q157 0 335.5 75t274.5 179q-79 61 -170 91t-172 30zM2169 793l-194 110l2 7q61 -5 86 -5q14 0 20 -8q5 -8 28 -33.5t43 -47.5l21 -21z" />
    <glyph glyph-name="Agrave.swsh" horiz-adv-x="1423" 
d="M185 248q0 -29 -17.5 -51t-56.5 -27q-79 -11 -79 -44q0 -54 68 -88t186 -34q16 0 60 2q0 134 99 226q-77 37 -77 114q0 75 53.5 133.5t139 88.5t184.5 30q144 0 265.5 -66t175.5 -197l90 55q97 59 149.5 90.5t139 81t146.5 76t133.5 54.5t139.5 40.5t128 12.5q19 0 19 -5
q0 -2 -2.5 -4t-4.5 -3l-3 -1q-396 -145 -819 -583q-36 -37 -61 -76.5t-32 -60.5l-7 -21q-19 0 -52 -3.5t-39 -3.5q-7 0 -7 2t105 98q3 33 3 62q0 67 -15 121q-165 -134 -308 -199q-105 -48 -243 -76.5t-267 -28.5h-15q7 -164 149 -256q97 80 229.5 126t247.5 46
q104 0 157 -27.5t53 -70.5q0 -63 -99.5 -117.5t-254.5 -54.5q-183 0 -314 74q-60 -63 -87 -141l-57 10q35 78 116 148q-141 94 -156 264q-156 4 -252 54.5t-96 150.5q0 62 38 97t83 35q28 0 46 -14t18 -39zM399 323q0 -55 56 -82q65 55 155.5 84.5t185.5 29.5q100 0 100 -33
q0 -15 -25 -37q-39 -33 -120 -56t-164 -23q-37 0 -64 4q-136 -97 -156 -202q290 28 627 216q84 47 181 105q-50 108 -154 160t-231 52q-152 0 -271.5 -64t-119.5 -154zM856 -381q138 0 231.5 52t93.5 110q0 39 -50 64.5t-150 25.5q-101 0 -227.5 -46t-213.5 -133
q132 -73 316 -73zM1217 92l45 43q78 75 107 102.5t100.5 92.5t110 95.5t107.5 82.5t123.5 84t127 70t147.5 68q-117 0 -279 -67t-264 -132q-48 -30 -100.5 -68.5t-77.5 -58.5t-87 -71.5t-72 -59.5q15 -63 15 -124q0 -27 -3 -57zM588 216q81 0 162.5 22t115.5 53q14 12 14 28
q0 15 -16 15q-76 0 -164 -31.5t-165 -83.5q25 -3 53 -3zM2169 793l-194 110l2 7q61 -5 86 -5q14 0 20 -8q5 -8 28 -33.5t43 -47.5l21 -21z" />
    <glyph glyph-name="Agrave.swsh2" horiz-adv-x="1423" 
d="M4072 -7q0 -165 -72.5 -305t-191.5 -235t-272.5 -162.5t-313.5 -98t-318 -30.5q-56 0 -121 5q-96 -126 -282 -191.5t-421 -65.5q-287 0 -582.5 95.5t-519.5 273.5q-224 -135 -525 -135q-357 0 -597 136q4 -166 110 -283.5t283 -117.5q56 0 108 11l15 -35
q-60 -11 -110 -11q-98 0 -180 37t-134.5 99t-81.5 141t-29 166v4q-151 91 -235 226.5t-100 293.5q-356 67 -639 383l6 6q286 -317 632 -381q-3 31 -3 63q0 86 20 172q-44 -2 -67 -2q-124 0 -221.5 26.5t-158 71.5t-91.5 103t-31 123q0 66 30 131t92.5 125t149.5 105.5
t209.5 73t263.5 27.5q320 0 511 -119q133 32 279 32q117 0 210 -23.5t151.5 -75t58.5 -125.5q0 -66 -43 -138q29 -24 46 -39l-12 -18q90 -24 168 -69q74 43 216.5 130t208.5 125q-93 34 -147 100t-54 144q0 120 109.5 210t287 135t392.5 45q162 0 324 -28t315 -83
t286 -146.5t220 -209.5q173 -15 316.5 -63t241 -116t165 -154t98 -176t30.5 -183zM1813 -696q175 -43 361 -43q121 0 241 20q-101 74 -101 181q0 104 89 170t203 66q109 0 185 -65t79 -193q229 131 363 332t134 434q0 269 -166 472q-69 6 -143 6q-159 0 -350 -29.5
t-341.5 -65t-339 -66.5t-341.5 -34q-193 -142 -384 -340q-33 -34 -54 -66l3.5 -7t4.5 -7q84 2 159 52l39 26l4 -8l-37 -25q-69 -47 -161 -54q56 -106 56 -230q0 -141 -71 -274q126 -69 193.5 -104t175.5 -80.5t199 -67.5zM2797 -813q41 -3 82 -3q157 0 319 30.5t318 96.5
t277.5 159t196 228.5t74.5 294.5q0 91 -30 180t-96.5 173.5t-162 151.5t-237 114.5t-311.5 63.5q148 -204 148 -470q0 -250 -135 -462t-371 -342q-7 -121 -72 -215zM2061 1112q-209 0 -381.5 -41t-278.5 -121.5t-106 -187.5q0 -77 54.5 -141.5t147.5 -97.5
q186 107 334 164.5t281 57.5q19 0 19 -5q0 -2 -2.5 -4t-4.5 -3l-3 -1q-207 -76 -424 -235q157 3 347.5 34.5t339.5 67t335 64.5t339 29q63 0 136 -5q-90 107 -222.5 190.5t-283.5 133.5t-309.5 75.5t-317.5 25.5zM971 -715l-26 21l4 6q14 -13 29 -23q167 103 255 262
q-121 67 -189.5 102t-172.5 81t-194.5 66.5t-178.5 20.5q-129 0 -237.5 -30.5t-182 -82.5t-125 -120.5t-75 -143.5t-23.5 -154q240 -138 598 -138q296 0 518 133zM-306 830q-139 0 -260 -27t-207 -72t-148 -103.5t-92 -123t-30 -128.5q0 -134 127.5 -225t366.5 -91
q25 0 69 2q48 197 189.5 360.5t354.5 250.5q66 27 127 42q-186 115 -497 115zM2445 -739q-111 -17 -226 -17q-203 0 -408 49q-90 21 -198 66.5t-177.5 82t-195.5 105.5q-87 -159 -255 -264q215 -165 513 -256t588 -91q227 0 407 59t276 174q-203 19 -324 92zM1144 127
q0 32 14 54q-17 17 -33 29q-115 -87 -236 -142q-105 -48 -243 -76.5t-267 -28.5q-82 0 -160 8q-208 -178 -522 -178q-92 0 -187 16q16 -154 98.5 -286.5t229.5 -221.5q2 79 27.5 154t78.5 143.5t128 119.5t184.5 81t239.5 30q90 0 182.5 -20.5t196.5 -66t173 -80.5t190 -102
q70 132 70 270q0 123 -57 230h-18q-10 -18 -18 -35t-11 -25l-2 -9q-19 0 -52 -3.5t-39 -3.5q-7 0 -7 2t86 81q-46 16 -46 60zM2862 -564q-1 65 -22.5 115t-58 80t-81 45t-94.5 15q-111 0 -197.5 -64t-86.5 -165q0 -107 109 -178q232 40 431 152zM203 707q-207 -53 -331 -169
t-124 -240q0 -96 79 -169q79 27 171 65q-26 29 -26 65q0 82 114 162.5t278 102.5q-47 109 -161 183zM-494 -118q0 -32 3 -65q95 -16 188 -16q295 0 499 172q-258 30 -377 144q-152 -51 -292 -62q-21 -86 -21 -173zM381 526q50 4 77 4q198 0 368 -116q58 71 58 133t-55 107
t-143 66.5t-198 21.5q-137 0 -271 -31q114 -76 164 -185zM825 340q-75 -91 -204 -153.5t-277 -71.5q-37 -60 -93 -115q9 0 27.5 -0.5t28.5 -0.5q282 0 687 225l60 34q-110 61 -229 82zM397 368q0 76 -28 145q-165 -21 -275 -100t-110 -156q0 -33 23 -59l39 17
q210 91 350 124q0 4 0.5 14t0.5 15zM1510 510q-89 -59 -220.5 -167t-157.5 -128q16 -13 31 -28q22 28 53 28q16 0 26 -8.5t10 -24.5q0 -28 -41 -46l21 -29l30 28q91 87 136 130t120.5 109t141.5 115q-82 0 -150 21zM-471 63q132 11 283 61q-76 77 -76 175q0 72 42 144.5
t121 133.5q-143 -94 -238 -228.5t-132 -285.5zM417 362q0 -13 -1 -19q103 23 210 23q76 0 142 -9q26 23 43 41q-79 61 -170 91t-172 30q-38 0 -83 -5q31 -72 31 -152zM-165 122q125 -107 393 -121q54 53 92 113h-21q-220 0 -295 73q-85 -35 -169 -65zM50 207l-36 -15
q55 -48 187 -48q71 0 144 15q42 83 50 171q-118 -28 -345 -123zM626 358q-103 0 -210 -24q-6 -87 -45 -169q108 26 211 75t178 110q-67 8 -134 8zM2860 -603q-176 -95 -395 -133q124 -64 319 -76q67 92 76 209zM1659 497h12q189 141 414 233q-117 0 -279 -67t-264 -132
l-23 -15q61 -19 140 -19zM1227 101l-24 32q-13 -5 -19.5 -8t-13 -9t-6.5 -14q0 -17 34 -27zM879 337q-10 11 -32 31q-10 -14 -16 -21q31 -5 48 -10zM1239 69h7l-3 6q-2 -2 -4 -6zM2169 793l-194 110l2 7q61 -5 86 -5q14 0 20 -8q5 -8 28 -33.5t43 -47.5l21 -21z" />
    <glyph glyph-name="Aring.alt" horiz-adv-x="1450" 
d="M1144 127q0 41 23 64.5t49 23.5q16 0 26 -8.5t10 -24.5q0 -18 -14 -30t-30 -16.5t-30 -13t-14 -20.5q0 -17 34 -27q40 36 64 60q78 75 107 102.5t100.5 92.5t110 95.5t107.5 82.5t123.5 84t127 70t147.5 68q-117 0 -279 -67t-264 -132q-71 -44 -141.5 -98.5t-125.5 -101
t-113.5 -93.5t-127.5 -91t-145 -79q-105 -48 -243 -76.5t-267 -28.5q-163 0 -289.5 27.5t-202 75t-113.5 106.5t-38 127q0 81 53 161t147 145t238 105.5t310 40.5q117 0 210 -23.5t151.5 -75t58.5 -125.5q0 -66 -43 -138q29 -24 46 -39l-17 -25q-21 22 -43 43
q-76 -109 -225.5 -181.5t-322.5 -72.5q-165 0 -246 40.5t-81 104.5q0 45 38.5 93t102 87.5t155.5 65t190 25.5q198 0 368 -116q58 71 58 133t-55 107t-143 66.5t-198 21.5q-132 0 -251 -26t-206.5 -70.5t-152 -101.5t-97.5 -120.5t-33 -125.5q0 -129 141 -214t418 -85
q282 0 687 225q92 51 233 137.5t240 144t217 118t225 91t203 30.5q19 0 19 -5q0 -2 -2.5 -4t-4.5 -3l-3 -1q-396 -145 -819 -583q-39 -42 -63 -80h10q89 0 166 52l39 26l4 -8l-37 -25q-79 -54 -177 -54h-11q-10 -18 -18 -35t-11 -25l-2 -9q-19 0 -52 -3.5t-39 -3.5
q-7 0 -7 2t86 81q-46 16 -46 60zM469 519q-202 0 -343.5 -86t-141.5 -176q0 -50 54.5 -81.5t162.5 -31.5q157 0 335.5 75t274.5 179q-79 61 -170 91t-172 30zM2112 801q22 0 49 20.5t27 34.5q0 8 -12 8q-24 0 -48.5 -21t-24.5 -35q0 -7 9 -7zM2105 793q-22 0 -22 14
q0 18 32.5 41t68.5 23q27 0 27 -14q0 -18 -35.5 -41t-70.5 -23z" />
    <glyph glyph-name="Aring.swsh" horiz-adv-x="1423" 
d="M185 248q0 -29 -17.5 -51t-56.5 -27q-79 -11 -79 -44q0 -54 68 -88t186 -34q16 0 60 2q0 134 99 226q-77 37 -77 114q0 75 53.5 133.5t139 88.5t184.5 30q144 0 265.5 -66t175.5 -197l90 55q97 59 149.5 90.5t139 81t146.5 76t133.5 54.5t139.5 40.5t128 12.5q19 0 19 -5
q0 -2 -2.5 -4t-4.5 -3l-3 -1q-396 -145 -819 -583q-36 -37 -61 -76.5t-32 -60.5l-7 -21q-19 0 -52 -3.5t-39 -3.5q-7 0 -7 2t105 98q3 33 3 62q0 67 -15 121q-165 -134 -308 -199q-105 -48 -243 -76.5t-267 -28.5h-15q7 -164 149 -256q97 80 229.5 126t247.5 46
q104 0 157 -27.5t53 -70.5q0 -63 -99.5 -117.5t-254.5 -54.5q-183 0 -314 74q-60 -63 -87 -141l-57 10q35 78 116 148q-141 94 -156 264q-156 4 -252 54.5t-96 150.5q0 62 38 97t83 35q28 0 46 -14t18 -39zM399 323q0 -55 56 -82q65 55 155.5 84.5t185.5 29.5q100 0 100 -33
q0 -15 -25 -37q-39 -33 -120 -56t-164 -23q-37 0 -64 4q-136 -97 -156 -202q290 28 627 216q84 47 181 105q-50 108 -154 160t-231 52q-152 0 -271.5 -64t-119.5 -154zM856 -381q138 0 231.5 52t93.5 110q0 39 -50 64.5t-150 25.5q-101 0 -227.5 -46t-213.5 -133
q132 -73 316 -73zM1217 92l45 43q78 75 107 102.5t100.5 92.5t110 95.5t107.5 82.5t123.5 84t127 70t147.5 68q-117 0 -279 -67t-264 -132q-48 -30 -100.5 -68.5t-77.5 -58.5t-87 -71.5t-72 -59.5q15 -63 15 -124q0 -27 -3 -57zM588 216q81 0 162.5 22t115.5 53q14 12 14 28
q0 15 -16 15q-76 0 -164 -31.5t-165 -83.5q25 -3 53 -3zM2112 801q22 0 49 20.5t27 34.5q0 8 -12 8q-24 0 -48.5 -21t-24.5 -35q0 -7 9 -7zM2105 793q-22 0 -22 14q0 18 32.5 41t68.5 23q27 0 27 -14q0 -18 -35.5 -41t-70.5 -23z" />
    <glyph glyph-name="Aring.swsh2" horiz-adv-x="1423" 
d="M4072 -7q0 -165 -72.5 -305t-191.5 -235t-272.5 -162.5t-313.5 -98t-318 -30.5q-56 0 -121 5q-96 -126 -282 -191.5t-421 -65.5q-287 0 -582.5 95.5t-519.5 273.5q-224 -135 -525 -135q-357 0 -597 136q4 -166 110 -283.5t283 -117.5q56 0 108 11l15 -35
q-60 -11 -110 -11q-98 0 -180 37t-134.5 99t-81.5 141t-29 166v4q-151 91 -235 226.5t-100 293.5q-356 67 -639 383l6 6q286 -317 632 -381q-3 31 -3 63q0 86 20 172q-44 -2 -67 -2q-124 0 -221.5 26.5t-158 71.5t-91.5 103t-31 123q0 66 30 131t92.5 125t149.5 105.5
t209.5 73t263.5 27.5q320 0 511 -119q133 32 279 32q117 0 210 -23.5t151.5 -75t58.5 -125.5q0 -66 -43 -138q29 -24 46 -39l-12 -18q90 -24 168 -69q74 43 216.5 130t208.5 125q-93 34 -147 100t-54 144q0 120 109.5 210t287 135t392.5 45q162 0 324 -28t315 -83
t286 -146.5t220 -209.5q173 -15 316.5 -63t241 -116t165 -154t98 -176t30.5 -183zM1813 -696q175 -43 361 -43q121 0 241 20q-101 74 -101 181q0 104 89 170t203 66q109 0 185 -65t79 -193q229 131 363 332t134 434q0 269 -166 472q-69 6 -143 6q-159 0 -350 -29.5
t-341.5 -65t-339 -66.5t-341.5 -34q-193 -142 -384 -340q-33 -34 -54 -66l3.5 -7t4.5 -7q84 2 159 52l39 26l4 -8l-37 -25q-69 -47 -161 -54q56 -106 56 -230q0 -141 -71 -274q126 -69 193.5 -104t175.5 -80.5t199 -67.5zM2797 -813q41 -3 82 -3q157 0 319 30.5t318 96.5
t277.5 159t196 228.5t74.5 294.5q0 91 -30 180t-96.5 173.5t-162 151.5t-237 114.5t-311.5 63.5q148 -204 148 -470q0 -250 -135 -462t-371 -342q-7 -121 -72 -215zM2061 1112q-209 0 -381.5 -41t-278.5 -121.5t-106 -187.5q0 -77 54.5 -141.5t147.5 -97.5
q186 107 334 164.5t281 57.5q19 0 19 -5q0 -2 -2.5 -4t-4.5 -3l-3 -1q-207 -76 -424 -235q157 3 347.5 34.5t339.5 67t335 64.5t339 29q63 0 136 -5q-90 107 -222.5 190.5t-283.5 133.5t-309.5 75.5t-317.5 25.5zM971 -715l-26 21l4 6q14 -13 29 -23q167 103 255 262
q-121 67 -189.5 102t-172.5 81t-194.5 66.5t-178.5 20.5q-129 0 -237.5 -30.5t-182 -82.5t-125 -120.5t-75 -143.5t-23.5 -154q240 -138 598 -138q296 0 518 133zM-306 830q-139 0 -260 -27t-207 -72t-148 -103.5t-92 -123t-30 -128.5q0 -134 127.5 -225t366.5 -91
q25 0 69 2q48 197 189.5 360.5t354.5 250.5q66 27 127 42q-186 115 -497 115zM2445 -739q-111 -17 -226 -17q-203 0 -408 49q-90 21 -198 66.5t-177.5 82t-195.5 105.5q-87 -159 -255 -264q215 -165 513 -256t588 -91q227 0 407 59t276 174q-203 19 -324 92zM1144 127
q0 32 14 54q-17 17 -33 29q-115 -87 -236 -142q-105 -48 -243 -76.5t-267 -28.5q-82 0 -160 8q-208 -178 -522 -178q-92 0 -187 16q16 -154 98.5 -286.5t229.5 -221.5q2 79 27.5 154t78.5 143.5t128 119.5t184.5 81t239.5 30q90 0 182.5 -20.5t196.5 -66t173 -80.5t190 -102
q70 132 70 270q0 123 -57 230h-18q-10 -18 -18 -35t-11 -25l-2 -9q-19 0 -52 -3.5t-39 -3.5q-7 0 -7 2t86 81q-46 16 -46 60zM2862 -564q-1 65 -22.5 115t-58 80t-81 45t-94.5 15q-111 0 -197.5 -64t-86.5 -165q0 -107 109 -178q232 40 431 152zM203 707q-207 -53 -331 -169
t-124 -240q0 -96 79 -169q79 27 171 65q-26 29 -26 65q0 82 114 162.5t278 102.5q-47 109 -161 183zM-494 -118q0 -32 3 -65q95 -16 188 -16q295 0 499 172q-258 30 -377 144q-152 -51 -292 -62q-21 -86 -21 -173zM381 526q50 4 77 4q198 0 368 -116q58 71 58 133t-55 107
t-143 66.5t-198 21.5q-137 0 -271 -31q114 -76 164 -185zM825 340q-75 -91 -204 -153.5t-277 -71.5q-37 -60 -93 -115q9 0 27.5 -0.5t28.5 -0.5q282 0 687 225l60 34q-110 61 -229 82zM397 368q0 76 -28 145q-165 -21 -275 -100t-110 -156q0 -33 23 -59l39 17
q210 91 350 124q0 4 0.5 14t0.5 15zM1510 510q-89 -59 -220.5 -167t-157.5 -128q16 -13 31 -28q22 28 53 28q16 0 26 -8.5t10 -24.5q0 -28 -41 -46l21 -29l30 28q91 87 136 130t120.5 109t141.5 115q-82 0 -150 21zM-471 63q132 11 283 61q-76 77 -76 175q0 72 42 144.5
t121 133.5q-143 -94 -238 -228.5t-132 -285.5zM417 362q0 -13 -1 -19q103 23 210 23q76 0 142 -9q26 23 43 41q-79 61 -170 91t-172 30q-38 0 -83 -5q31 -72 31 -152zM-165 122q125 -107 393 -121q54 53 92 113h-21q-220 0 -295 73q-85 -35 -169 -65zM50 207l-36 -15
q55 -48 187 -48q71 0 144 15q42 83 50 171q-118 -28 -345 -123zM626 358q-103 0 -210 -24q-6 -87 -45 -169q108 26 211 75t178 110q-67 8 -134 8zM2860 -603q-176 -95 -395 -133q124 -64 319 -76q67 92 76 209zM1659 497h12q189 141 414 233q-117 0 -279 -67t-264 -132
l-23 -15q61 -19 140 -19zM1227 101l-24 32q-13 -5 -19.5 -8t-13 -9t-6.5 -14q0 -17 34 -27zM879 337q-10 11 -32 31q-10 -14 -16 -21q31 -5 48 -10zM1239 69h7l-3 6q-2 -2 -4 -6zM2112 801q22 0 49 20.5t27 34.5q0 8 -12 8q-24 0 -48.5 -21t-24.5 -35q0 -7 9 -7zM2105 793
q-22 0 -22 14q0 18 32.5 41t68.5 23q27 0 27 -14q0 -18 -35.5 -41t-70.5 -23z" />
    <glyph glyph-name="Atilde.alt" horiz-adv-x="1450" 
d="M1144 127q0 41 23 64.5t49 23.5q16 0 26 -8.5t10 -24.5q0 -18 -14 -30t-30 -16.5t-30 -13t-14 -20.5q0 -17 34 -27q40 36 64 60q78 75 107 102.5t100.5 92.5t110 95.5t107.5 82.5t123.5 84t127 70t147.5 68q-117 0 -279 -67t-264 -132q-71 -44 -141.5 -98.5t-125.5 -101
t-113.5 -93.5t-127.5 -91t-145 -79q-105 -48 -243 -76.5t-267 -28.5q-163 0 -289.5 27.5t-202 75t-113.5 106.5t-38 127q0 81 53 161t147 145t238 105.5t310 40.5q117 0 210 -23.5t151.5 -75t58.5 -125.5q0 -66 -43 -138q29 -24 46 -39l-17 -25q-21 22 -43 43
q-76 -109 -225.5 -181.5t-322.5 -72.5q-165 0 -246 40.5t-81 104.5q0 45 38.5 93t102 87.5t155.5 65t190 25.5q198 0 368 -116q58 71 58 133t-55 107t-143 66.5t-198 21.5q-132 0 -251 -26t-206.5 -70.5t-152 -101.5t-97.5 -120.5t-33 -125.5q0 -129 141 -214t418 -85
q282 0 687 225q92 51 233 137.5t240 144t217 118t225 91t203 30.5q19 0 19 -5q0 -2 -2.5 -4t-4.5 -3l-3 -1q-396 -145 -819 -583q-39 -42 -63 -80h10q89 0 166 52l39 26l4 -8l-37 -25q-79 -54 -177 -54h-11q-10 -18 -18 -35t-11 -25l-2 -9q-19 0 -52 -3.5t-39 -3.5
q-7 0 -7 2t86 81q-46 16 -46 60zM469 519q-202 0 -343.5 -86t-141.5 -176q0 -50 54.5 -81.5t162.5 -31.5q157 0 335.5 75t274.5 179q-79 61 -170 91t-172 30zM2262 860l8 -5q-31 -59 -68 -59q-17 0 -53 17t-56 17q-29 0 -53 -24l-4 7q39 43 77 43q17 0 47.5 -11t46.5 -11
q28 0 55 26z" />
    <glyph glyph-name="Atilde.swsh" horiz-adv-x="1423" 
d="M185 248q0 -29 -17.5 -51t-56.5 -27q-79 -11 -79 -44q0 -54 68 -88t186 -34q16 0 60 2q0 134 99 226q-77 37 -77 114q0 75 53.5 133.5t139 88.5t184.5 30q144 0 265.5 -66t175.5 -197l90 55q97 59 149.5 90.5t139 81t146.5 76t133.5 54.5t139.5 40.5t128 12.5q19 0 19 -5
q0 -2 -2.5 -4t-4.5 -3l-3 -1q-396 -145 -819 -583q-36 -37 -61 -76.5t-32 -60.5l-7 -21q-19 0 -52 -3.5t-39 -3.5q-7 0 -7 2t105 98q3 33 3 62q0 67 -15 121q-165 -134 -308 -199q-105 -48 -243 -76.5t-267 -28.5h-15q7 -164 149 -256q97 80 229.5 126t247.5 46
q104 0 157 -27.5t53 -70.5q0 -63 -99.5 -117.5t-254.5 -54.5q-183 0 -314 74q-60 -63 -87 -141l-57 10q35 78 116 148q-141 94 -156 264q-156 4 -252 54.5t-96 150.5q0 62 38 97t83 35q28 0 46 -14t18 -39zM399 323q0 -55 56 -82q65 55 155.5 84.5t185.5 29.5q100 0 100 -33
q0 -15 -25 -37q-39 -33 -120 -56t-164 -23q-37 0 -64 4q-136 -97 -156 -202q290 28 627 216q84 47 181 105q-50 108 -154 160t-231 52q-152 0 -271.5 -64t-119.5 -154zM856 -381q138 0 231.5 52t93.5 110q0 39 -50 64.5t-150 25.5q-101 0 -227.5 -46t-213.5 -133
q132 -73 316 -73zM1217 92l45 43q78 75 107 102.5t100.5 92.5t110 95.5t107.5 82.5t123.5 84t127 70t147.5 68q-117 0 -279 -67t-264 -132q-48 -30 -100.5 -68.5t-77.5 -58.5t-87 -71.5t-72 -59.5q15 -63 15 -124q0 -27 -3 -57zM588 216q81 0 162.5 22t115.5 53q14 12 14 28
q0 15 -16 15q-76 0 -164 -31.5t-165 -83.5q25 -3 53 -3zM2262 860l8 -5q-31 -59 -68 -59q-17 0 -53 17t-56 17q-29 0 -53 -24l-4 7q39 43 77 43q17 0 47.5 -11t46.5 -11q28 0 55 26z" />
    <glyph glyph-name="Atilde.swsh2" horiz-adv-x="1423" 
d="M4072 -7q0 -165 -72.5 -305t-191.5 -235t-272.5 -162.5t-313.5 -98t-318 -30.5q-56 0 -121 5q-96 -126 -282 -191.5t-421 -65.5q-287 0 -582.5 95.5t-519.5 273.5q-224 -135 -525 -135q-357 0 -597 136q4 -166 110 -283.5t283 -117.5q56 0 108 11l15 -35
q-60 -11 -110 -11q-98 0 -180 37t-134.5 99t-81.5 141t-29 166v4q-151 91 -235 226.5t-100 293.5q-356 67 -639 383l6 6q286 -317 632 -381q-3 31 -3 63q0 86 20 172q-44 -2 -67 -2q-124 0 -221.5 26.5t-158 71.5t-91.5 103t-31 123q0 66 30 131t92.5 125t149.5 105.5
t209.5 73t263.5 27.5q320 0 511 -119q133 32 279 32q117 0 210 -23.5t151.5 -75t58.5 -125.5q0 -66 -43 -138q29 -24 46 -39l-12 -18q90 -24 168 -69q74 43 216.5 130t208.5 125q-93 34 -147 100t-54 144q0 120 109.5 210t287 135t392.5 45q162 0 324 -28t315 -83
t286 -146.5t220 -209.5q173 -15 316.5 -63t241 -116t165 -154t98 -176t30.5 -183zM1813 -696q175 -43 361 -43q121 0 241 20q-101 74 -101 181q0 104 89 170t203 66q109 0 185 -65t79 -193q229 131 363 332t134 434q0 269 -166 472q-69 6 -143 6q-159 0 -350 -29.5
t-341.5 -65t-339 -66.5t-341.5 -34q-193 -142 -384 -340q-33 -34 -54 -66l3.5 -7t4.5 -7q84 2 159 52l39 26l4 -8l-37 -25q-69 -47 -161 -54q56 -106 56 -230q0 -141 -71 -274q126 -69 193.5 -104t175.5 -80.5t199 -67.5zM2797 -813q41 -3 82 -3q157 0 319 30.5t318 96.5
t277.5 159t196 228.5t74.5 294.5q0 91 -30 180t-96.5 173.5t-162 151.5t-237 114.5t-311.5 63.5q148 -204 148 -470q0 -250 -135 -462t-371 -342q-7 -121 -72 -215zM2061 1112q-209 0 -381.5 -41t-278.5 -121.5t-106 -187.5q0 -77 54.5 -141.5t147.5 -97.5
q186 107 334 164.5t281 57.5q19 0 19 -5q0 -2 -2.5 -4t-4.5 -3l-3 -1q-207 -76 -424 -235q157 3 347.5 34.5t339.5 67t335 64.5t339 29q63 0 136 -5q-90 107 -222.5 190.5t-283.5 133.5t-309.5 75.5t-317.5 25.5zM971 -715l-26 21l4 6q14 -13 29 -23q167 103 255 262
q-121 67 -189.5 102t-172.5 81t-194.5 66.5t-178.5 20.5q-129 0 -237.5 -30.5t-182 -82.5t-125 -120.5t-75 -143.5t-23.5 -154q240 -138 598 -138q296 0 518 133zM-306 830q-139 0 -260 -27t-207 -72t-148 -103.5t-92 -123t-30 -128.5q0 -134 127.5 -225t366.5 -91
q25 0 69 2q48 197 189.5 360.5t354.5 250.5q66 27 127 42q-186 115 -497 115zM2445 -739q-111 -17 -226 -17q-203 0 -408 49q-90 21 -198 66.5t-177.5 82t-195.5 105.5q-87 -159 -255 -264q215 -165 513 -256t588 -91q227 0 407 59t276 174q-203 19 -324 92zM1144 127
q0 32 14 54q-17 17 -33 29q-115 -87 -236 -142q-105 -48 -243 -76.5t-267 -28.5q-82 0 -160 8q-208 -178 -522 -178q-92 0 -187 16q16 -154 98.5 -286.5t229.5 -221.5q2 79 27.5 154t78.5 143.5t128 119.5t184.5 81t239.5 30q90 0 182.5 -20.5t196.5 -66t173 -80.5t190 -102
q70 132 70 270q0 123 -57 230h-18q-10 -18 -18 -35t-11 -25l-2 -9q-19 0 -52 -3.5t-39 -3.5q-7 0 -7 2t86 81q-46 16 -46 60zM2862 -564q-1 65 -22.5 115t-58 80t-81 45t-94.5 15q-111 0 -197.5 -64t-86.5 -165q0 -107 109 -178q232 40 431 152zM203 707q-207 -53 -331 -169
t-124 -240q0 -96 79 -169q79 27 171 65q-26 29 -26 65q0 82 114 162.5t278 102.5q-47 109 -161 183zM-494 -118q0 -32 3 -65q95 -16 188 -16q295 0 499 172q-258 30 -377 144q-152 -51 -292 -62q-21 -86 -21 -173zM381 526q50 4 77 4q198 0 368 -116q58 71 58 133t-55 107
t-143 66.5t-198 21.5q-137 0 -271 -31q114 -76 164 -185zM825 340q-75 -91 -204 -153.5t-277 -71.5q-37 -60 -93 -115q9 0 27.5 -0.5t28.5 -0.5q282 0 687 225l60 34q-110 61 -229 82zM397 368q0 76 -28 145q-165 -21 -275 -100t-110 -156q0 -33 23 -59l39 17
q210 91 350 124q0 4 0.5 14t0.5 15zM1510 510q-89 -59 -220.5 -167t-157.5 -128q16 -13 31 -28q22 28 53 28q16 0 26 -8.5t10 -24.5q0 -28 -41 -46l21 -29l30 28q91 87 136 130t120.5 109t141.5 115q-82 0 -150 21zM-471 63q132 11 283 61q-76 77 -76 175q0 72 42 144.5
t121 133.5q-143 -94 -238 -228.5t-132 -285.5zM417 362q0 -13 -1 -19q103 23 210 23q76 0 142 -9q26 23 43 41q-79 61 -170 91t-172 30q-38 0 -83 -5q31 -72 31 -152zM-165 122q125 -107 393 -121q54 53 92 113h-21q-220 0 -295 73q-85 -35 -169 -65zM50 207l-36 -15
q55 -48 187 -48q71 0 144 15q42 83 50 171q-118 -28 -345 -123zM626 358q-103 0 -210 -24q-6 -87 -45 -169q108 26 211 75t178 110q-67 8 -134 8zM2860 -603q-176 -95 -395 -133q124 -64 319 -76q67 92 76 209zM1659 497h12q189 141 414 233q-117 0 -279 -67t-264 -132
l-23 -15q61 -19 140 -19zM1227 101l-24 32q-13 -5 -19.5 -8t-13 -9t-6.5 -14q0 -17 34 -27zM879 337q-10 11 -32 31q-10 -14 -16 -21q31 -5 48 -10zM1239 69h7l-3 6q-2 -2 -4 -6zM2262 860l8 -5q-31 -59 -68 -59q-17 0 -53 17t-56 17q-29 0 -53 -24l-4 7q39 43 77 43
q17 0 47.5 -11t46.5 -11q28 0 55 26z" />
    <glyph glyph-name="B.alt" horiz-adv-x="1322" 
d="M1487 625q-118 -35 -230 -110q-64 -43 -125 -100t-105.5 -106.5t-94 -101.5t-102.5 -93t-117.5 -74.5t-152.5 -51.5t-196 -18q-143 0 -207 27.5t-64 68.5q0 35 37.5 66.5t73.5 31.5q24 0 24 -23t-27 -47t-77 -32q-9 -3 -9 -12q0 -33 62.5 -48t107.5 -15q108 0 222.5 43.5
t221 115t203 146.5t207.5 156.5t196 126.5q-72 -32 -153 -83.5t-146.5 -95.5t-144.5 -85.5t-180 -65.5t-219 -24q-215 0 -327.5 83.5t-112.5 210.5q0 84 50 168t139 154t230 114t306 44q97 0 160 -34t88 -92q77 7 137 7q162 0 250.5 -64t101.5 -162q75 18 146 18
q60 0 115 -13l-7 -25q-57 19 -122 19t-131 -17q0 -2 0.5 -6.5t0.5 -6.5q0 -104 -76.5 -197.5t-203.5 -127.5q9 -24 10 -49q55 11 109 11q98 0 182 -35l-13 -8q-79 34 -171 34q-52 0 -107 -11q0 -63 -33 -117.5t-81 -88.5t-99.5 -53t-92.5 -19q-64 0 -64 41q0 50 102.5 128
t236.5 111q5 22 5 38q0 2 -0.5 7t-0.5 7q-51 -12 -107 -12q-25 0 -38.5 8.5t-13.5 20.5q0 19 24.5 33t56.5 14q61 0 89 -49q111 36 183 128t74 192zM1153 868q-55 0 -125 -7q14 -34 14 -72q0 -61 -32.5 -123t-91.5 -114t-152.5 -84.5t-204.5 -32.5q-62 0 -94 23t-32 62
q0 34 23.5 74t71.5 82t113 79.5t157 67t195 42.5q-21 119 -226 119q-128 0 -242.5 -28t-197.5 -75.5t-144 -108t-91.5 -126.5t-30.5 -131q0 -123 111.5 -204t327.5 -81q122 0 227 28.5t187.5 76t156 97.5t167.5 105t187 87q37 13 61 19q-5 98 -88 161.5t-247 63.5zM447 517
q0 -32 24.5 -50t72.5 -18q75 0 158.5 39.5t147 97.5t105.5 128t42 128q0 2 -0.5 8t-0.5 8q-124 -16 -231.5 -57.5t-174.5 -91.5t-105 -101t-38 -91zM885 2q0 -24 30 -24q38 0 100 33.5t121 93.5t77 123q-128 -34 -228 -108t-100 -118zM1116 287q55 0 100 13q-15 46 -76 46
q-27 0 -47.5 -11t-20.5 -26q0 -22 44 -22z" />
    <glyph glyph-name="B.orn" horiz-adv-x="718" 
d="M720 142q0 -28 -16 -28q-7 0 -7 7q0 10 17 20q-6 100 -157 120q-34 -95 -107 -180.5t-157.5 -140.5t-169.5 -87.5t-150 -32.5q-61 0 -91.5 23.5t-30.5 63.5t29 88.5t86 97.5t133 89t180.5 65.5t216.5 25.5q30 0 55 -3q14 42 19 73l10 3q-8 -44 -20 -77q160 -19 160 -127z
M494 265q-131 0 -252.5 -37.5t-200.5 -92t-126 -113.5t-47 -106q0 -34 26.5 -53.5t79.5 -19.5q63 0 145.5 29t166 80.5t156 133.5t106.5 176q-26 3 -54 3z" />
    <glyph glyph-name="B.swsh2" horiz-adv-x="1322" 
d="M1162 876q162 0 250.5 -64t101.5 -162q75 18 146 18q60 0 115 -13l-7 -25q-57 19 -122 19t-131 -17q0 -2 0.5 -6.5t0.5 -6.5q0 -104 -76.5 -197.5t-203.5 -127.5q9 -24 10 -49q55 11 109 11q98 0 182 -35l-13 -8q-79 34 -171 34q-52 0 -107 -11q0 -63 -33 -117.5
t-81 -88.5t-99.5 -53t-92.5 -19q-64 0 -64 41q0 50 102.5 128t236.5 111q5 22 5 38q0 2 -0.5 7t-0.5 7q-51 -12 -107 -12q-25 0 -38.5 8.5t-13.5 20.5q0 19 24.5 33t56.5 14q61 0 89 -49q111 36 183 128t74 192q-118 -35 -230 -110q-70 -47 -136.5 -110.5t-116 -119
t-103 -109.5t-121 -98t-145.5 -70q116 -56 188.5 -89.5t172 -71.5t181.5 -58q175 -43 361 -43q124 0 245 17q-105 76 -105 184q0 104 89 170t203 66q111 0 187.5 -67.5t76.5 -199.5v-11q236 127 366.5 333t130.5 453q0 269 -166 472q-69 6 -143 6q-161 0 -356.5 -30.5
t-348.5 -67t-345 -67t-349 -30.5q-162 0 -267 81t-105 192q0 120 109.5 210t287 135t392.5 45q162 0 324 -28t315 -83t286 -146.5t220 -209.5q173 -15 316.5 -63t241 -116t165 -154t98 -176t30.5 -183q0 -165 -72.5 -305t-191.5 -235t-272.5 -162.5t-313.5 -98t-318 -30.5
q-56 0 -121 5q-96 -126 -282 -191.5t-421 -65.5q-298 0 -604 103t-531 293l4 6q214 -178 524 -277t613 -99q227 0 407 59t276 174q-203 19 -324 92q-111 -17 -226 -17q-203 0 -408 49q-118 28 -245.5 82.5t-308.5 143.5q-115 -34 -257 -34q-143 0 -207 27.5t-64 68.5
q0 35 37.5 66.5t73.5 31.5q24 0 24 -23t-27 -47t-77 -32q-9 -3 -9 -12q0 -33 62.5 -48t107.5 -15q123 0 256 57q-126 62 -206 99t-189.5 80t-204 63t-180.5 20q-185 0 -336.5 -39t-243 -101t-140 -134.5t-48.5 -144.5q0 -97 85.5 -161t240.5 -64q49 0 109 12l15 -35
q-61 -12 -112 -12q-174 0 -271 73t-97 182q0 60 30 120t95 116.5t156.5 100t225.5 69.5t291 26q89 0 185.5 -20.5t207.5 -64t190.5 -80t208.5 -100.5q94 42 204.5 116t196.5 143.5t192.5 146.5t188.5 120q-72 -32 -153 -83.5t-146.5 -95.5t-144.5 -85.5t-180 -65.5t-219 -24
q-215 0 -327.5 83.5t-112.5 210.5q0 84 50 168t139 154t230 114t306 44q97 0 160 -34t88 -92q77 7 137 7zM2161 -328q41 -3 82 -3q157 0 319 30.5t318 96.5t277.5 159t196 228.5t74.5 294.5q0 91 -30 180t-96.5 173.5t-162 151.5t-237 114.5t-311.5 63.5q148 -204 148 -470
q0 -250 -134.5 -462t-371.5 -342q-7 -121 -72 -215zM1425 1597q-209 0 -381.5 -41t-278.5 -121.5t-106 -187.5q0 -108 102.5 -186.5t261.5 -78.5q163 0 358.5 30.5t348.5 67t344.5 67t347.5 30.5q63 0 136 -5q-90 107 -222.5 190.5t-283.5 133.5t-309.5 75.5t-317.5 25.5z
M1153 868q-55 0 -125 -7q14 -34 14 -72q0 -61 -32.5 -123t-91.5 -114t-152.5 -84.5t-204.5 -32.5q-62 0 -94 23t-32 62q0 34 23.5 74t71.5 82t113 79.5t157 67t195 42.5q-21 119 -226 119q-128 0 -242.5 -28t-197.5 -75.5t-144 -108t-91.5 -126.5t-30.5 -131
q0 -123 111.5 -204t327.5 -81q122 0 227 28.5t187.5 76t156 97.5t167.5 105t187 87q37 13 61 19q-5 98 -88 161.5t-247 63.5zM2225 -99q0 2 0.5 7t0.5 8q0 129 -74.5 194.5t-181.5 65.5q-111 0 -197.5 -64t-86.5 -165q0 -110 114 -181q233 35 425 135zM447 517
q0 -32 24.5 -50t72.5 -18q75 0 158.5 39.5t147 97.5t105.5 128t42 128q0 2 -0.5 8t-0.5 8q-124 -16 -231.5 -57.5t-174.5 -91.5t-105 -101t-38 -91zM2224 -118q-176 -95 -395 -133q124 -64 319 -76q67 92 76 209zM885 2q0 -24 30 -24q38 0 100 33.5t121 93.5t77 123
q-128 -34 -228 -108t-100 -118zM1140 346q-27 0 -47.5 -11t-20.5 -26q0 -22 44 -22q55 0 100 13q-15 46 -76 46z" />
    <glyph glyph-name="C.alt" horiz-adv-x="353" 
d="M921 734q22 0 27 -13l44 29l3 -7q-41 -21 -56 -45q-7 -11 -18 -34t-19 -40l-7 -18q-2 -3 -6 -3l-76 -5q-111 -86 -271 -181q77 -70 118 -154.5t41 -167.5q0 -99 -59 -177t-145 -116.5t-178 -38.5q-113 0 -189 63.5t-76 185.5q0 127 96.5 253.5t251.5 236.5
q-171 89 -396 89q-183 0 -335 -51t-285 -171l-26 16q276 216 636 216q238 0 414 -93q141 98 289 162t222 64zM68 -1q0 -112 70.5 -169.5t176.5 -57.5q66 0 131.5 22.5t119.5 62.5t88 102.5t34 135.5q0 82 -40 165t-115 152q-157 -93 -298 -152q-167 -160 -167 -261zM920 726
q-67 0 -436 -263q11 -7 50 -39q219 132 401 286l5 4q-3 12 -20 12zM255 279q127 55 270 140q-27 23 -49 38q-127 -92 -221 -178z" />
    <glyph glyph-name="C.orn" horiz-adv-x="206" 
d="M182 154l22 -15q11 -8 11 -15q0 -8 -14 -8t-14 8q0 2 8 10l-17 12q-144 102 -308 102q-147 0 -227 -76t-80 -188q0 -55 20 -109.5t62 -105t101.5 -88.5t144 -61t182.5 -23q132 0 279 40q159 43 291.5 121.5t166.5 140.5q-12 18 -12 37q0 23 18 23t18 -23q0 -17 -13 -38
q71 -91 185 -128.5t272 -37.5q127 0 439 34.5t480 34.5q108 0 203 -11t194.5 -36t187 -71t170 -111.5t155.5 -162.5t131 -219l-8 -4q-59 116 -136 207t-166 152t-184 103t-205 64.5t-212.5 32t-220.5 9.5q-147 0 -417.5 -19t-381.5 -19q-185 0 -307.5 38t-184.5 135
q-23 -42 -99.5 -95.5t-178.5 -101.5t-230 -80.5t-240 -32.5q-129 0 -232.5 34.5t-166 91t-95.5 124t-33 138.5q0 121 88.5 205.5t244.5 84.5q158 0 309 -103z" />
    <glyph glyph-name="C.swsh" horiz-adv-x="355" 
d="M1051 346l-6 -6q-110 117 -251 201q-292 -179 -608 -276q-191 -231 -191 -405q0 -121 105.5 -191t331.5 -70q127 0 267 51t213 125l22 -36q-221 -155 -509 -155q-254 0 -375 85.5t-121 228.5q0 148 120 329q-169 -40 -302 -40q-149 0 -233.5 53.5t-84.5 163.5
q0 57 47 115t130 106t211 78.5t275 30.5q235 0 451 -68q224 116 426 116q78 0 78 -32t-81 -93q-82 -61 -161 -109q141 -85 246 -202zM92 726q-142 0 -266.5 -30t-205.5 -77t-127.5 -104t-46.5 -112q0 -100 80 -148.5t220 -48.5q142 0 318 44q84 120 206 227.5t261 181.5
q-208 67 -439 67zM608 632q-223 -135 -401 -342q303 95 574 259q-84 49 -173 83zM952 663q76 57 76 84q0 19 -40 19q-155 0 -368 -127q88 -35 172 -84q93 57 160 108z" />
    <glyph glyph-name="C.swsh2" horiz-adv-x="820" 
d="M566 -425q182 0 364 67q-53 50 -53 102q0 90 147 155l5 -4q-146 -63 -146 -148q0 -55 61 -99q206 81 372 234.5t258 344t92 378.5q0 177 -87 324q-58 2 -90 2q-161 0 -356.5 -30.5t-348.5 -67t-345 -67t-349 -30.5q-162 0 -267 81t-105 192q0 120 109.5 210t287 135
t392.5 45q440 0 713 -125.5t384 -337.5q184 -8 332.5 -41.5t250 -85.5t170 -121.5t99.5 -147t31 -164.5q0 -116 -58 -238.5t-164.5 -232t-244.5 -197t-311.5 -138.5t-350.5 -51q-136 0 -245.5 31.5t-172.5 83.5q-186 -72 -385 -72q-112 0 -200.5 35t-144.5 113t-56 190
q0 34 8 69q-167 30 -167 151q0 57 37 125q-156 -27 -310 -27q-233 0 -361 64.5t-128 150.5q0 82 58.5 139.5t155 84.5t220.5 27q153 0 317.5 -42t306.5 -120q141 105 303 170t311 65q30 0 30 -21q0 -31 -58 -90t-155.5 -127.5t-250.5 -137.5t-318 -110q-83 -105 -83 -179
q0 -78 97 -104q32 109 137.5 199t230.5 136.5t234 46.5q73 0 73 -58q0 -82 -93 -166t-224.5 -135.5t-244.5 -51.5q-39 0 -72 3q-27 -52 -27 -99q0 -91 54 -157.5t140 -98.5t191 -32zM1680 620q0 -193 -90.5 -387t-257 -352t-375.5 -241q121 -81 353 -81q196 0 377.5 46.5
t321.5 127.5t245 185.5t160.5 225t55.5 240.5q0 106 -50 197.5t-151 166.5t-270 122.5t-391 57.5q72 -141 72 -308zM1489 939q29 0 85 -2q-119 195 -388.5 308.5t-693.5 113.5q-209 0 -381.5 -41t-278.5 -121.5t-106 -187.5q0 -108 102.5 -186.5t261.5 -78.5
q163 0 358.5 30.5t348.5 67t344.5 67t347.5 30.5zM-257 640q-200 0 -336 -59t-136 -160q0 -80 113.5 -135.5t325.5 -55.5q166 0 330 29q78 132 242 256q-114 62 -256 93.5t-283 31.5zM286 -25q106 0 233 49.5t218.5 130.5t91.5 160q0 40 -38 40q-66 0 -180 -53.5
t-228 -143.5t-166 -179q27 -4 69 -4zM917 729q0 10 -12 10q-95 0 -238 -69t-278.5 -173.5t-222.5 -209.5q132 34 256 86t211 105t153 105.5t98.5 90.5t32.5 55z" />
    <glyph glyph-name="D.alt" horiz-adv-x="1152" 
d="M74 402q0 88 69 169.5t177 138t241 90.5t259 34q122 0 217 -31t158 -104t67 -181q171 84 383 89l-13 -20q-31 3 -61 3q-166 0 -309 -104q-5 -82 -50.5 -174t-135 -178t-202.5 -129q-58 -108 -170.5 -175.5t-249.5 -67.5q-112 0 -193.5 58t-100.5 168q-86 9 -132 30
t-46 44q0 20 34 33t94 13q25 0 49 -3q11 71 42 135q-127 35 -127 162zM1049 381q120 90 201 131q-6 141 -102 206.5t-251 65.5q-165 0 -352 -64t-314.5 -162t-127.5 -187q0 -93 104 -119q61 121 182 222.5t261.5 158t266.5 56.5q101 0 101 -58q0 -105 -170 -219
q46 -62 64 -131q60 43 137 100zM271 243h22q112 0 254.5 45t259.5 114q-27 31 -50 50l39 19q27 -27 44 -48q169 110 169 211q0 20 -16 29.5t-38 9.5q-119 0 -336.5 -136t-347.5 -294zM889 265q-22 66 -72 127q-116 -72 -257.5 -118t-257.5 -46q-28 0 -42 2q-54 -69 -75 -128
q19 -3 39.5 -7.5t35 -8.5t38.5 -12l34.5 -11.5t38.5 -13.5t35 -13q222 53 483 229zM670 -31q-74 0 -175 28q-101 -16 -209 -16q-57 0 -112 5q15 -102 94.5 -157t190.5 -55q124 0 232.5 63t165.5 163q-93 -31 -187 -31zM922 182q-1 -79 -38 -157q82 33 152 90t114 120
t70 125.5t30 115.5q-53 -40 -158 -142t-170 -152zM520 1q81 -18 142 -18q107 0 204 35q37 71 38 149q-170 -126 -384 -166zM137 96q-133 0 -133 -33q0 -19 47 -37t106 -18q-2 12 -2 39q0 24 3 48q-4 0 -11 0.5t-10 0.5zM181 92q-10 -31 -10 -62q0 -15 1 -22q110 1 213 23
q-136 50 -204 61z" />
    <glyph glyph-name="D.orn" horiz-adv-x="202" 
d="M161 170l42 -28q11 -8 11 -15q0 -8 -14 -8t-14 8q0 4 7 11l-30 20q-79 53 -149 53q-77 0 -124 -55.5t-47 -136.5q0 -60 27.5 -117t82 -107t150 -80.5t217.5 -30.5q81 0 166 17t161.5 41t158 48t186 41t215.5 17q174 0 318.5 -81.5t300.5 -240.5l-7 -3
q-170 150 -353 225.5t-359 75.5q-100 0 -208.5 -23t-189 -51t-188.5 -51t-206 -23q-99 0 -181.5 21t-137 55t-92.5 79t-54.5 92t-16.5 95q0 85 50 144t132 59q71 0 146 -51z" />
    <glyph glyph-name="D.swsh" horiz-adv-x="1170" 
d="M1123 432q-81 40 -141 88q-53 -83 -170.5 -156.5t-257 -115.5t-261.5 -42q-127 0 -204 51.5t-77 159.5q0 97 68.5 183.5t177 144.5t242.5 92t265 34q276 0 408 -135q161 112 317.5 174.5t337.5 62.5q129 0 232.5 -27.5t167 -73.5t97 -103.5t33.5 -120.5q0 -67 -37 -129.5
t-106.5 -113.5t-180.5 -81.5t-247 -30.5q-299 0 -547 89q-25 -74 -75 -145t-121 -132t-168.5 -98.5t-205.5 -37.5q-73 0 -169 27q-96 -15 -215 -15q-74 0 -134.5 7.5t-96 19.5t-54.5 26t-19 28q0 20 34 33t94 13q49 0 105 -12t90 -23.5t99 -35.5q50 12 102 30.5t93.5 36.5
t95 47.5t86.5 48.5t89.5 56.5t82.5 56t87 61.5t83 58zM1710 722q-259 -73 -447 -226q-1 -49 -20 -106q245 -89 544 -89q133 0 240 29.5t173 78.5t101 109t35 125q0 62 -31.5 118.5t-90.5 102t-154 72.5t-212 27q-190 0 -350 -61.5t-320 -170.5q77 -83 84 -203
q247 162 448 208v-14zM802 750q15 -32 30 -55q40 5 68 5q118 0 118 -69q0 -2 -0.5 -4t-0.5 -3q12 9 63.5 47t80.5 58q-108 104 -324 104q-129 0 -271.5 -38.5t-258 -99.5t-191 -144t-75.5 -165q0 -85 65.5 -125.5t176.5 -40.5q182 0 395.5 92.5t294.5 214.5q-18 14 -34 28
q-80 -60 -137 -98t-131 -77t-147.5 -58t-149.5 -19q-97 0 -97 47q0 71 91.5 147t216.5 127.5t238 68.5q-15 22 -29 53zM933 560q-53 50 -92 106q-106 -24 -230.5 -80t-215.5 -125t-91 -119q0 -30 68 -30q74 0 147 18.5t145.5 56.5t131.5 76.5t137 96.5zM1230 386
q-42 16 -62 25q-29 -28 -86 -86t-88 -87.5t-88 -75t-106 -71.5t-120.5 -51.5t-152.5 -39.5q73 -17 135 -17q91 0 173.5 25.5t144.5 66t113.5 94t84.5 108t52 109.5zM1250 520q-7 127 -83 203q-52 -35 -150 -109q-4 -43 -31 -87q70 -53 145 -89q68 49 119 82zM159 8
q110 0 224 24q-63 22 -93.5 32.5t-76 21t-76.5 10.5q-133 0 -133 -33q0 -19 47.5 -37t107.5 -18zM940 565l67 51q2 12 2 18q0 45 -74 45q-35 0 -85 -11q35 -52 90 -103zM1232 394q16 49 18 91q-34 -27 -76 -68zM977 534q23 36 29 72q-20 -16 -60 -46z" />
    <glyph glyph-name="E.alt" horiz-adv-x="665" 
d="M1037 733q-167 0 -285 -92q207 -43 339.5 -170.5t132.5 -308.5q0 -106 -44.5 -209.5t-123 -185.5t-196.5 -132.5t-255 -50.5q-166 0 -306.5 54.5t-229.5 164t-89 254.5q0 90 37 163t97 120t138.5 79t157.5 45.5t158 13.5q20 0 54 -2q7 87 91 162q-72 11 -141 11
q-194 0 -370 -83t-291 -249l-32 35q140 154 323 230.5t372 76.5q71 0 149 -13q119 100 305 100q114 0 175.5 -34.5t76.5 -87.5q40 13 75 20l-2 -22q-32 -4 -70 -13q2 -12 2 -18q0 -49 -30 -78t-63 -29q-40 0 -40 36q0 24 28 51.5t86 48.5q-17 48 -74 80.5t-155 32.5z
M644 474q87 -8 142 -34t55 -61q0 -21 -18 -32t-46 -11q-46 0 -91.5 26t-58.5 71q-74 -4 -151.5 -21t-157.5 -52.5t-141.5 -84t-101 -122.5t-39.5 -162q0 -119 85 -210.5t214.5 -136.5t276.5 -45q130 0 244 50t189.5 130.5t119 182t43.5 204.5q0 119 -63.5 217.5
t-167.5 160.5t-235 88q-88 -73 -98 -158zM776 345q50 0 50 36q0 24 -44 38.5t-115 14.5h-21q11 -41 50.5 -65t79.5 -24zM1164 520q0 -27 29 -27q28 0 54 25t26 64q0 12 -3 24q-55 -16 -80.5 -40t-25.5 -46z" />
    <glyph glyph-name="E.orn" horiz-adv-x="202" 
d="M23 208q-77 0 -124 -55.5t-47 -136.5q0 -60 27.5 -117t82 -107t150 -80.5t217.5 -30.5q79 0 231.5 27.5t304.5 60.5t358 60.5t378 27.5q597 0 922 -334l-7 -3q-361 297 -954 297q-165 0 -361 -22.5t-341.5 -49.5t-297 -49.5t-238.5 -22.5q-99 0 -181.5 21t-137 55
t-92.5 79t-54.5 92t-16.5 95q0 85 50 144t132 59q71 0 146 -51l42 -28q12 -8 12 -14q0 -8 -15 -8q-14 0 -14 7q0 3 7 10l-30 21q-79 53 -149 53z" />
    <glyph glyph-name="E.swsh" horiz-adv-x="665" 
d="M-20 57q0 142 90 240q-182 -51 -331 -185l-26 16q168 130 370 183q84 84 216.5 125.5t268.5 41.5q20 0 54 -2q3 46 32.5 92.5t79 86.5t127 65.5t167.5 25.5q133 0 289 -55q48 98 140 180t203.5 135t234.5 82.5t239 29.5q109 0 197.5 -27.5t143 -73.5t84 -103.5
t29.5 -120.5q0 -66 -32 -127t-93 -111t-159.5 -80t-220.5 -30q-108 0 -217.5 25t-180.5 54.5t-177 76.5t-163 69q-18 -43 -27 -92l-37 12q10 44 32 92q-148 51 -276 51q-83 0 -157 -24.5t-123 -63t-78.5 -83.5t-34.5 -88q87 -8 142 -34t55 -61q0 -21 -18 -32t-46 -11
q-46 0 -91.5 26t-58.5 71q-189 -11 -347 -91q24 2 69 2q122 0 225 -26t174.5 -70t121.5 -102t73 -121.5t23 -129.5q0 -144 -107.5 -246.5t-295.5 -102.5q-84 0 -167 21t-158 64t-132.5 102.5t-91.5 143.5t-34 180zM2071 461q123 0 221 28.5t157.5 76t90.5 105.5t31 121
q0 127 -116 220.5t-317 93.5q-115 0 -233.5 -27.5t-227.5 -78.5t-196.5 -134t-131.5 -186q55 -21 162 -68t176.5 -75t175.5 -52t208 -24zM36 -9q0 -101 46.5 -185.5t122.5 -138t169 -83t190 -29.5q181 0 285 100t104 242q0 81 -36.5 157t-107 139.5t-187.5 102t-263 38.5
q-35 0 -101 -4q-222 -126 -222 -339zM776 345q50 0 50 36q0 24 -44 38.5t-115 14.5h-21q11 -41 50.5 -65t79.5 -24z" />
    <glyph glyph-name="E.swsh2" horiz-adv-x="665" 
d="M605 -416q-166 0 -306.5 54.5t-229.5 164t-89 254.5q0 90 37 163t97 120t138.5 79t157.5 45.5t158 13.5q20 0 54 -2q3 46 32.5 92.5t79 86.5t127 65.5t167.5 25.5q130 0 193.5 -47t63.5 -110q0 -43 -28.5 -74.5t-71.5 -31.5t-43 30q0 24 33 53t93 47q0 15 -13 34
t-38.5 39t-73 33.5t-106.5 13.5q-83 0 -157 -24.5t-123 -63t-78.5 -83.5t-34.5 -88q87 -8 142 -34t55 -61q0 -21 -18 -32t-46 -11q-46 0 -91.5 26t-58.5 71q-74 -4 -151.5 -21t-157.5 -52.5t-141.5 -84t-101 -122.5t-39.5 -162q0 -119 85 -210.5t214.5 -136.5t276.5 -45
q94 0 207 15q-34 51 -34 112q0 104 82.5 169t189.5 65q86 0 153 -47t89 -140q233 131 369.5 333.5t136.5 437.5q0 269 -166 472q-69 6 -143 6q-161 0 -356.5 -30.5t-348.5 -67t-345 -67t-349 -30.5q-162 0 -267 81t-105 192q0 120 109.5 210t287 135t392.5 45q162 0 324 -28
t315 -83t286 -146.5t220 -209.5q173 -15 316.5 -63t241 -116t165 -154t98 -176t30.5 -183q0 -144 -54 -271.5t-146 -222t-212 -170t-255.5 -122.5t-272.5 -71.5t-266 -24.5q-25 0 -69 2q-85 -119 -253 -179.5t-386 -60.5q-310 0 -641 114.5t-572 318.5l4 6
q230 -191 567 -303t651 -112q210 0 371.5 54.5t245.5 162.5q-288 18 -393 148q-115 -16 -224 -16zM1308 -309q0 -124 -59 -220h30q110 0 227 17.5t236.5 53.5t230 87t207 123.5t168.5 157.5t113 193.5t41 227.5q0 91 -30 180t-96.5 173.5t-162 151.5t-237 114.5t-311.5 63.5
q148 -204 148 -470q0 -240 -137 -446.5t-374 -339.5q6 -30 6 -67zM499 1450q-209 0 -381.5 -41t-278.5 -121.5t-106 -187.5q0 -108 102.5 -186.5t261.5 -78.5q163 0 358.5 30.5t348.5 67t344.5 67t347.5 30.5q63 0 136 -5q-90 107 -222.5 190.5t-283.5 133.5t-309.5 75.5
t-317.5 25.5zM1292 -231q-21 91 -86 137.5t-149 46.5q-103 0 -183.5 -63.5t-80.5 -163.5q0 -62 37 -110q251 37 462 153zM1300 -309q0 33 -6 63q-203 -113 -453 -152q105 -120 395 -130q64 94 64 219zM776 345q50 0 50 36q0 24 -44 38.5t-115 14.5h-21q11 -41 50.5 -65
t79.5 -24z" />
    </font>
</defs>
</svg>
