<?xml version="1.0" encoding="UTF-8"?>
<svg width="18px" height="19px" viewBox="0 0 18 19" version="1.1" xmlns="http://www.w3.org/2000/svg" xmlns:xlink="http://www.w3.org/1999/xlink">
    <g id="Page-1" stroke="none" stroke-width="1" fill="none" fill-rule="evenodd">
        <g id="Artboard-1" fill="#818181">
            <g id="Group-12" >
                <path d="M9,17.6796875 C7.95832812,17.6429589 7.00130645,18.2848607 6.12890625,17.6053819 C5.25650605,16.9259032 4.54687773,17.0168846 4,15.8782986 C4.10416719,14.7029841 4.72916094,11.8031474 5.875,11.1787616 C7.02083906,10.5543757 8.06249531,10.2421875 9,10.2421875 C9.93750469,10.2421875 10.9791609,10.5543757 12.125,11.1787616 C13.2708391,11.8031474 13.8958328,14.7029841 14,15.8782986 C13.4531223,17.0168846 12.7434939,16.9259032 11.8710938,17.6053819 C10.9986936,18.2848607 10.0416719,17.6429589 9,17.6796875 Z M9,4.6796875 C9.70312852,4.6796875 10.2890602,4.91406016 10.7578125,5.3828125 C11.2265648,5.85156484 11.4609375,6.44400684 11.4609375,7.16015625 C11.4609375,7.87630566 11.2265648,8.46874766 10.7578125,8.9375 C10.2890602,9.40625234 9.70312852,9.640625 9,9.640625 C8.29687148,9.640625 7.71093984,9.40625234 7.2421875,8.9375 C6.77343516,8.46874766 6.5390625,7.87630566 6.5390625,7.16015625 C6.5390625,6.44400684 6.77343516,5.85156484 7.2421875,5.3828125 C7.71093984,4.91406016 8.29687148,4.6796875 9,4.6796875 Z" id=""></path>
                <path d="M2.74800911,3.24800911 C1.09257842,4.9034398 0.234668618,6.99286528 0.179808215,9.48901364 C0.234668618,12.0071347 1.09257842,14.0965602 2.74800911,15.7519909 C4.4034398,17.4074216 6.49286528,18.2653314 8.98901364,18.3201918 C11.5071347,18.2653314 13.5965602,17.4074216 15.2519909,15.7519909 C16.9074216,14.0965602 17.7653314,12.0071347 17.8201918,9.51098636 C17.7653129,6.99202468 16.9002341,4.90199422 15.2309896,3.24654514 C13.5631139,1.59245355 11.4809789,0.734696922 9.01110837,0.679810911 C6.49286528,0.734668618 4.4034398,1.59257842 2.74800911,3.24800911 Z M14.5268229,3.95657986 C16.0086358,5.4261464 16.7711449,7.26836829 16.8204332,9.51098636 C16.7711264,11.7324723 16.014469,13.5752992 14.5448841,15.0448841 C13.0752992,16.514469 11.2324723,17.2711264 8.98901364,17.3204332 C6.76752769,17.2711264 4.92470082,16.514469 3.45511589,15.0448841 C1.98553096,13.5752992 1.22887357,11.7324723 1.17956679,9.48901364 C1.22887357,7.26752769 1.98553096,5.42470082 3.45511589,3.95511589 C4.92228727,2.48794451 6.76147562,1.73136086 8.99993607,1.67981544 C11.2126448,1.73136068 13.0461041,2.48809837 14.5268229,3.95657986 Z" id="Path"></path>
            </g>
        </g>
    </g>
</svg>