<?xml version="1.0" encoding="UTF-8"?>
<svg width="13px" height="13px" viewBox="0 0 13 13" version="1.1" xmlns="http://www.w3.org/2000/svg" xmlns:xlink="http://www.w3.org/1999/xlink">
    <g stroke="none" stroke-width="1" fill="none" fill-rule="evenodd">
        <g fill="#818181">
            <g>
                <path d="M1,2.00276013 L1,10.9972399 C1,11.5528524 1.44762988,12 2.00276013,12 L10.9972399,12 C11.5528524,12 12,11.5523701 12,10.9972399 L12,2.00276013 C12,1.44714764 11.5523701,1 10.9972399,1 L2.00276013,1 C1.44714764,1 1,1.44762988 1,2.00276013 Z M0,2.00276013 C0,0.896666251 0.893542647,0 2.00276013,0 L10.9972399,0 C12.1033337,0 13,0.893542647 13,2.00276013 L13,10.9972399 C13,12.1033337 12.1064574,13 10.9972399,13 L2.00276013,13 C0.896666251,13 0,12.1064574 0,10.9972399 L0,2.00276013 Z"></path>
                <path d="M4,4 L4,5 L5,5 L5,4 L4,4 Z M3,3.99895656 C3,3.44724809 3.44266033,3 3.99895656,3 L5.00104344,3 C5.55275191,3 6,3.44266033 6,3.99895656 L6,5.00104344 C6,5.55275191 5.55733967,6 5.00104344,6 L3.99895656,6 C3.44724809,6 3,5.55733967 3,5.00104344 L3,3.99895656 Z"></path>
                <path d="M4,9 L5,9 L5,8 L4,8 L4,9 Z M3,7.99895656 C3,7.44724809 3.44266033,7 3.99895656,7 L5.00104344,7 C5.55275191,7 6,7.44266033 6,7.99895656 L6,9.00104344 C6,9.55275191 5.55733967,10 5.00104344,10 L3.99895656,10 C3.44724809,10 3,9.55733967 3,9.00104344 L3,7.99895656 Z"></path>
                <path d="M8,4 L8,5 L9,5 L9,4 L8,4 Z M7,3.99895656 C7,3.44724809 7.44266033,3 7.99895656,3 L9.00104344,3 C9.55275191,3 10,3.44266033 10,3.99895656 L10,5.00104344 C10,5.55275191 9.55733967,6 9.00104344,6 L7.99895656,6 C7.44724809,6 7,5.55733967 7,5.00104344 L7,3.99895656 Z"></path>
                <path d="M8,9 L9,9 L9,8 L8,8 L8,9 Z M7,7.99895656 C7,7.44724809 7.44266033,7 7.99895656,7 L9.00104344,7 C9.55275191,7 10,7.44266033 10,7.99895656 L10,9.00104344 C10,9.55275191 9.55733967,10 9.00104344,10 L7.99895656,10 C7.44724809,10 7,9.55733967 7,9.00104344 L7,7.99895656 Z"></path>
            </g>
        </g>
    </g>
</svg>