<?xml version="1.0" encoding="UTF-8"?>
<svg width="17px" height="17px" viewBox="0 0 17 17" version="1.1" xmlns="http://www.w3.org/2000/svg" xmlns:xlink="http://www.w3.org/1999/xlink">
    <g id="Page-1" stroke="none" stroke-width="1" fill="none" fill-rule="evenodd">
        <g id="Artboard-1" transform="translate(-870.000000, -18.000000)" fill="#E8E8E8">
            <g id="Group-8" transform="translate(870.000000, 18.000000)">
                <path d="M8.5,16.5 C12.918278,16.5 16.5,12.918278 16.5,8.5 C16.5,4.081722 12.918278,0.5 8.5,0.5 C4.081722,0.5 0.5,4.081722 0.5,8.5 C0.5,12.918278 4.081722,16.5 8.5,16.5 Z M8.5,15.5 C4.63400675,15.5 1.5,12.3659932 1.5,8.5 C1.5,4.63400675 4.63400675,1.5 8.5,1.5 C12.3659932,1.5 15.5,4.63400675 15.5,8.5 C15.5,12.3659932 12.3659932,15.5 8.5,15.5 Z" id="Oval-2"></path>
                <path d="M7.895,9.95 L9.125,9.95 L9.125,9.56 C9.125,8.48 10.865,8.29 10.865,6.64 C10.865,5.46 9.815,4.76 8.685,4.76 C7.495,4.76 6.805,5.48 6.805,5.48 L7.505,6.35 C7.505,6.35 8.005,5.93 8.575,5.93 C9.125,5.93 9.545,6.29 9.545,6.76 C9.545,7.79 7.895,8.02 7.895,9.47 L7.895,9.95 Z M7.895,12 L9.125,12 L9.125,10.82 L7.895,10.82 L7.895,12 Z" id="?"></path>
            </g>
        </g>
    </g>
</svg>