<?xml version="1.0" encoding="UTF-8"?>
<svg width="17px" height="14px" viewBox="0 0 17 14" version="1.1" xmlns="http://www.w3.org/2000/svg" xmlns:xlink="http://www.w3.org/1999/xlink">
    <!-- Generator: Sketch 42 (36781) - http://www.bohemiancoding.com/sketch -->
    <title></title>
    <desc>Created with Sketch.</desc>
    <defs></defs>
    <g id="Components" stroke="none" stroke-width="1" fill="none" fill-rule="evenodd">
        <g id="Single-Prints-UI-Components" transform="translate(-1646.000000, -653.000000)" fill="#FFFFFF">
            <path d="M1663,662.3125 C1663,662.687502 1662.83175,663.005207 1662.49523,663.265625 C1662.15872,663.526043 1661.73809,663.65625 1661.23332,663.65625 L1650.46499,663.65625 C1649.96022,663.65625 1649.53258,663.526043 1649.18205,663.265625 C1648.83151,663.005207 1648.65625,662.687502 1648.65625,662.3125 L1648.65625,654.3125 C1648.65625,653.937498 1648.83151,653.625001 1649.18205,653.375 C1649.53258,653.124999 1649.96022,653 1650.46499,653 L1661.23332,653 C1661.73809,653 1662.15872,653.124999 1662.49523,653.375 C1662.83175,653.625001 1663,653.937498 1663,654.3125 L1663,662.3125 Z M1653,659.65625 L1650,662.3125 L1662,662.3125 L1657.96875,659 L1655.01562,661.46875 L1653,659.65625 Z M1646,655.65625 L1647.3125,655.65625 L1647.3125,665 L1660.65625,665 L1660.65625,666.3125 L1647.3125,666.3125 C1646.9375,666.3125 1646.625,666.187501 1646.375,665.9375 C1646.125,665.687499 1646,665.375002 1646,665 L1646,655.65625 Z" id=""></path>
        </g>
    </g>
</svg>