<?xml version="1.0" encoding="UTF-8"?>
<svg width="17px" height="17px" viewBox="0 0 17 17" version="1.1" xmlns="http://www.w3.org/2000/svg" xmlns:xlink="http://www.w3.org/1999/xlink">
    <g id="Page-1" stroke="none" stroke-width="1" fill="none" fill-rule="evenodd">
        <g id="Artboard-1" transform="translate(-1191.000000, -18.000000)" fill="#818181">
            <g id="Group-10" transform="translate(1191.000000, 18.000000)">
                <g id="Group-8-Copy">
                    <path d="M8.5,16.5 C12.918278,16.5 16.5,12.918278 16.5,8.5 C16.5,4.081722 12.918278,0.5 8.5,0.5 C4.081722,0.5 0.5,4.081722 0.5,8.5 C0.5,12.918278 4.081722,16.5 8.5,16.5 Z M8.5,15.5 C4.63400675,15.5 1.5,12.3659932 1.5,8.5 C1.5,4.63400675 4.63400675,1.5 8.5,1.5 C12.3659932,1.5 15.5,4.63400675 15.5,8.5 C15.5,12.3659932 12.3659932,15.5 8.5,15.5 Z" id="Oval-2"></path>
                </g>
                <g id="Group-9" transform="translate(4.000000, 4.000000)">
                    <path d="M0.5,5 L7.5,5 C7.77614237,5 8,4.77614237 8,4.5 C8,4.22385763 7.77614237,4 7.5,4 L0.5,4 C0.223857625,4 1.11022302e-16,4.22385763 1.11022302e-16,4.5 C1.11022302e-16,4.77614237 0.223857625,5 0.5,5 Z" id="Line"></path>
                    <path d="M3.6707477,7.62371165 C3.46292938,7.80555268 3.44187063,8.12143399 3.62371165,8.3292523 C3.80555268,8.53707062 4.12143399,8.55812937 4.3292523,8.37628835 L8.3292523,4.87628835 C8.5569159,4.6770827 8.5569159,4.3229173 8.3292523,4.12371165 L4.3292523,0.623711653 C4.12143399,0.441870626 3.80555268,0.46292938 3.62371165,0.670747696 C3.44187063,0.878566012 3.46292938,1.19444732 3.6707477,1.37628835 L7.24070387,4.5 L3.6707477,7.62371165 Z" id="Path-3"></path>
                </g>
            </g>
        </g>
    </g>
</svg>