<?xml version="1.0" encoding="UTF-8" standalone="no"?>
<svg
   xmlns:dc="http://purl.org/dc/elements/1.1/"
   xmlns:cc="http://creativecommons.org/ns#"
   xmlns:rdf="http://www.w3.org/1999/02/22-rdf-syntax-ns#"
   xmlns:svg="http://www.w3.org/2000/svg"
   xmlns="http://www.w3.org/2000/svg"
   viewBox="0 0 849.29333 215.18668"
   height="215.18668"
   width="849.29333"
   xml:space="preserve"
   id="svg2"
   version="1.1"><metadata
     id="metadata8"><rdf:RDF><cc:Work
         rdf:about=""><dc:format>image/svg+xml</dc:format><dc:type
           rdf:resource="http://purl.org/dc/dcmitype/StillImage" /></cc:Work></rdf:RDF></metadata><defs
     id="defs6" /><g
     transform="matrix(1.3333333,0,0,-1.3333333,0,215.18667)"
     id="g10"><g
       transform="scale(0.1)"
       id="g12"><path
         id="path14"
         style="fill:#969696;fill-opacity:1;fill-rule:nonzero;stroke:none"
         d="m 3253.13,401.27 c 0,227.968 130.91,358.441 328.05,358.441 222.38,0 313.86,-187.82 313.86,-358.441 0,-189.258 -104.1,-355.5786 -313.86,-355.5786 -208.18,0 -328.05,164.8786 -328.05,355.5786 z m 0,656.67 h -31.54 V 34.2188 h 31.54 V 240.68 h 3.16 c 41,-129.039 159.29,-223.6683 324.89,-223.6683 214.49,0 345.4,162.0193 345.4,384.2583 0,206.46 -121.44,387.121 -345.4,387.121 -171.91,0 -287.04,-90.332 -324.89,-223.672 h -3.16 z m 772.79,-655.241 c 0,-202.16 127.75,-385.6873 364.32,-385.6873 238.15,0 365.9,183.5273 365.9,385.6873 0,200.731 -127.75,385.692 -364.32,385.692 -238.15,0 -365.9,-184.961 -365.9,-385.692 z m 31.54,0 c 0,183.52 115.14,357.012 334.36,357.012 216.07,0 332.78,-173.492 332.78,-357.012 0,-186.39 -116.71,-357.0076 -332.78,-357.0076 -219.22,0 -334.36,170.6176 -334.36,357.0076 z m 787,0 c 0,-202.16 127.75,-385.6873 364.32,-385.6873 238.15,0 365.9,183.5273 365.9,385.6873 0,200.731 -127.75,385.692 -364.32,385.692 -238.15,0 -365.9,-184.961 -365.9,-385.692 z m 31.54,0 c 0,183.52 115.14,357.012 334.36,357.012 216.07,0 332.78,-173.492 332.78,-357.012 0,-186.39 -116.71,-357.0076 -332.78,-357.0076 C 4991.14,45.6914 4876,216.309 4876,402.699 Z M 5946.89,470.09 6326.98,34.2188 h 42.59 L 5970.55,490.16 6342.76,771.18 h -45.74 L 5737.13,348.219 v 709.721 h -31.55 V 34.2188 h 31.55 V 312.371 l 209.76,157.719" /><path
         id="path16"
         style="fill:#000000;fill-opacity:1;fill-rule:nonzero;stroke:none"
         d="M 0.0898438,34.2188 H 88.4102 V 1467.43 H 0.0898438 Z M 429.648,762.871 V 1391.15 H 939.5 c 192.7,0 365.33,-82.3 365.33,-299.09 0,-230.841 -156.57,-329.189 -365.33,-329.189 z M 341.32,34.2188 h 88.328 V 686.59 H 939.5 c 250.91,0 319.16,-112.41 337.22,-250.91 16.06,-138.508 -16.06,-303.098 38.14,-401.4612 h 98.36 C 1355.01,110.5 1379.1,271.082 1365.04,419.621 1350.99,568.16 1298.8,702.648 1086.03,726.73 v 4.02 c 190.69,32.121 307.12,174.629 307.12,367.33 0,277.01 -202.74,369.35 -453.65,369.35 H 341.32 Z m 1264.58,0 h 88.32 V 1467.43 H 1605.9 Z M 2970.85,1057.94 c -14.05,315.14 -248.9,443.61 -547.99,443.61 -226.82,0 -481.75,-106.39 -481.75,-381.39 0,-272.988 244.89,-331.199 487.77,-381.379 244.89,-50.179 489.78,-92.34 489.78,-335.222 0,-248.899 -242.88,-327.1879 -415.51,-327.1879 -283.02,0 -533.94,118.4299 -515.87,431.5699 h -88.32 C 1894.94,138.602 2167.94,0.0898438 2503.15,0.0898438 c 218.8,0 503.84,106.3901562 503.84,403.4691562 0,285.043 -244.89,347.261 -489.78,397.441 -242.89,50.191 -487.78,88.32 -487.78,319.16 0,236.86 230.84,305.11 393.43,305.11 264.97,0 449.64,-122.44 459.67,-367.33 z m 84,555.86 c -42,0 -74.4,-32.6 -74.4,-74.4 0,-41.8 32.4,-74.4 74.4,-74.4 42,0 74.4,32.6 74.4,74.4 0,41.8 -32.4,74.4 -74.4,74.4 z m 0,-10.6 c 36,0 62.8,-28.2 62.8,-63.8 0,-35.6 -26.8,-63.8 -62.8,-63.8 -36,0 -62.8,28.2 -62.8,63.8 0,35.6 26.8,63.8 62.8,63.8 z m -16.4,-68.6 h 17.8 l 24.2,-38.2 h 12.4 l -25.6,38.2 c 11.6,2 21.6,8.8 21.6,24 0,15.4 -8.6,23.8 -28,23.8 h -33 v -86 h 10.6 z m 0,9 v 29.8 h 19.4 c 10.4,0 20.4,-2.8 20.4,-14.8 0,-14.6 -12.8,-15 -25.8,-15 h -14" /></g></g></svg>