<?xml version="1.0" encoding="UTF-8" standalone="no"?>
<svg
   xmlns:dc="http://purl.org/dc/elements/1.1/"
   xmlns:cc="http://creativecommons.org/ns#"
   xmlns:rdf="http://www.w3.org/1999/02/22-rdf-syntax-ns#"
   xmlns:svg="http://www.w3.org/2000/svg"
   xmlns="http://www.w3.org/2000/svg"
   xmlns:sodipodi="http://sodipodi.sourceforge.net/DTD/sodipodi-0.dtd"
   xmlns:inkscape="http://www.inkscape.org/namespaces/inkscape"
   height="32"
   id="no"
   viewBox="0 0 32 32"
   width="32"
   version="1.1"
   inkscape:version="0.91 r13725"
   sodipodi:docname="no-access.svg">
  <metadata
     id="metadata9">
    <rdf:RDF>
      <cc:Work
         rdf:about="">
        <dc:format>image/svg+xml</dc:format>
        <dc:type
           rdf:resource="http://purl.org/dc/dcmitype/StillImage" />
      </cc:Work>
    </rdf:RDF>
  </metadata>
  <defs
     id="defs7" />
  <sodipodi:namedview
     pagecolor="#ffffff"
     bordercolor="#666666"
     borderopacity="1"
     objecttolerance="10"
     gridtolerance="10"
     guidetolerance="10"
     inkscape:pageopacity="0"
     inkscape:pageshadow="2"
     inkscape:window-width="1436"
     inkscape:window-height="856"
     id="namedview5"
     showgrid="false"
     inkscape:zoom="7.375"
     inkscape:cx="16"
     inkscape:cy="16"
     inkscape:window-x="4"
     inkscape:window-y="0"
     inkscape:window-maximized="1"
     inkscape:current-layer="no" />
  <path
     d=" M16 0 A16 16 0 0 0 0 16 A16 16 0 0 0 16 32 A16 16 0 0 0 32 16 A16 16 0 0 0 16 0 M16 6 A10 10 0 0 1 20.675 7 L7 20.675 A10 10 0 0 1 6 16 A10 10 0 0 1 16 6 M26 16 A10 10 0 0 1 16 26 A10 10 0 0 1 11.325 25 L25 11.325 A10 10 0 0 1 26 16 "
     id="path3" />
  <path
     style="fill:#ff0000"
     d="M 14.115254,31.834187 C 10.754851,31.401224 7.632085,29.931345 5.1917214,27.633898 3.6519645,26.184316 2.5527534,24.712666 1.7043608,22.964936 -2.0118092,15.309444 0.81284477,6.3368799 8.2783738,2.0824647 11.951397,-0.01069779 16.725519,-0.47679134 20.918094,0.84845948 24.827558,2.0842207 28.300106,5.0689643 30.200268,8.8267254 33.236506,14.831191 32.203744,21.971878 27.59091,26.868244 c -2.350096,2.494548 -5.327092,4.149154 -8.579371,4.768392 -1.389695,0.264601 -3.663764,0.356352 -4.896285,0.197551 z m 4.986854,-6.266742 c 3.31071,-1.091916 5.880064,-3.876954 6.696186,-7.258295 0.46422,-1.923348 0.237405,-4.757226 -0.522843,-6.532509 l -0.258237,-0.60302 -6.84081,6.839805 c -3.762446,3.761892 -6.840811,6.887962 -6.840811,6.946821 0,0.05886 0.289831,0.231522 0.644068,0.383696 1.256791,0.53989 2.037817,0.656603 4.101695,0.612937 1.674487,-0.03543 2.122529,-0.09319 3.020752,-0.389435 z M 13.912367,13.868056 C 19.380353,8.3971695 20.718359,6.9906917 20.555932,6.8845185 20.444068,6.8113966 19.864407,6.5885628 19.267797,6.3893323 18.300193,6.0662132 17.970732,6.0259982 16.216949,6.0169374 c -1.702032,-0.00879 -2.102047,0.032531 -2.978272,0.3076747 -2.855009,0.8965033 -5.0251862,2.71854 -6.2429931,5.2414899 -1.2580222,2.606264 -1.4061154,5.292523 -0.4466457,8.101695 0.1974037,0.577966 0.3943443,1.050847 0.4376456,1.050847 0.043301,0 3.1598592,-3.082765 6.9256832,-6.850588 z"
     id="path3337"
     inkscape:connector-curvature="0" />
</svg>
