<svg width="42" height="13" viewBox="0 0 42 13" xmlns="http://www.w3.org/2000/svg"><title>PACE</title><path d="M.95 12V.828h5.234c2.125 0 3.187.945 3.187 2.836 0 2.224-1.534 3.576-4.601 4.055l-.297-1.844c1.823-.339 2.734-1.055 2.734-2.148 0-.72-.385-1.079-1.156-1.079H3.02V12H.95zm8.734 0L14.426.828h2.226L21.496 12H19.27l-1.407-3.047h-3.578l.711-1.797h2.32l-1.828-4.195L11.808 12H9.685zM31.77 9.656a7.788 7.788 0 0 1-3.125.625c-2.683 0-4.024-1.34-4.024-4.023 0-2.474 1.341-3.711 4.024-3.711 1.12 0 2.161.208 3.125.625V1.297C30.806.932 29.712.75 28.488.75c-4.01 0-6.015 1.836-6.015 5.508 0 3.88 2.005 5.82 6.015 5.82 1.224 0 2.318-.182 3.282-.547V9.656zM33.723.828V12h7.445v-1.797h-5.414v-2.93h5.039V5.422h-5.016V2.609h5.282V.83h-7.336z" fill="#FFF" fill-rule="evenodd"/></svg>