<?xml version="1.0" standalone="no"?>
<!DOCTYPE svg PUBLIC "-//W3C//DTD SVG 1.1//EN" "http://www.w3.org/Graphics/SVG/1.1/DTD/svg11.dtd" >
<svg>
<metadata>
Created by FontForge 20090622 at Wed May 20 10:19:06 2015
 By deploy user
Copyright 1990-2003 Bitstream Inc. All rights reserved.
</metadata>
<defs>
<font id="LydianBT-BoldItalic" horiz-adv-x="1024" >
  <font-face 
    font-family="Lydian BT"
    font-weight="700"
    font-style="italic"
    font-stretch="normal"
    units-per-em="2048"
    panose-1="3 2 8 2 4 5 2 6 2 3"
    ascent="1556"
    descent="-492"
    x-height="952"
    cap-height="1450"
    bbox="-342 -502 2437 1972"
    underline-thickness="141"
    underline-position="-172"
    slope="-5"
    unicode-range="U+0020-U+F002"
  />
<missing-glyph horiz-adv-x="1229" 
d="M102 -362v1806h1024v-1806h-1024zM217 -248h795v1577h-795v-1577z" />
    <glyph glyph-name=".notdef" horiz-adv-x="1229" 
d="M102 -362v1806h1024v-1806h-1024zM217 -248h795v1577h-795v-1577z" />
    <glyph glyph-name=".null" horiz-adv-x="0" 
 />
    <glyph glyph-name="nonmarkingreturn" horiz-adv-x="559" 
 />
    <glyph glyph-name="space" unicode=" " horiz-adv-x="559" 
 />
    <glyph glyph-name="exclam" unicode="!" horiz-adv-x="631" 
d="M283 285q37 -47 74.5 -89t76.5 -81l-86 -73l-88 -81q-39 52 -76 95t-73 79q44 32 87 69.5t85 80.5zM238 360q12 288 17 457t5 305q0 75 -2 149.5t-6 151.5l233 27q-36 -251 -68.5 -511l-64.5 -542z" />
    <glyph glyph-name="quotedbl" unicode="&#x22;" horiz-adv-x="643" 
d="M395 1436h164v-557h-164v557zM86 1436h164v-557h-164v557z" />
    <glyph glyph-name="numbersign" unicode="#" horiz-adv-x="1575" 
d="M709 852l-91 -254h256l91 254h-256zM735 1460h191l-154 -436h250l156 436h190l-154 -436h291l-59 -172h-293l-90 -252h309l-61 -172h-307l-156 -434h-191l156 434h-252l-158 -434h-190l156 434h-299l61 172h297l90 252h-315l61 172h316z" />
    <glyph glyph-name="dollar" unicode="$" horiz-adv-x="1118" 
d="M541 903l26 305q-5 1 -11 1.5t-17 0.5q-35 0 -65.5 -9.5t-57.5 -28.5q-5 -17 -6.5 -27.5t-1.5 -20.5q0 -66 32 -119t101 -102zM586 230q6 -2 12 -2.5t18 -0.5q43 0 77 13.5t60 39.5q3 15 4 22.5t1 12.5q0 59 -36 112t-110 103zM451 -127l12 152q-89 10 -166 53t-143 119
l172 168q30 -41 69 -69.5t86 -45.5l33 344q-160 113 -221.5 195.5t-61.5 173.5q0 64 37 134t131 179q42 48 88 77t97 40l8 98l110 20l-13 -106q83 -5 153.5 -38.5t124.5 -94.5l-172 -166q-30 31 -61 51t-66 31l-29 -352q154 -112 216.5 -192.5t62.5 -164.5q0 -70 -43 -156
t-121 -171q-53 -58 -99 -88t-85 -33l-1 -131z" />
    <glyph glyph-name="percent" unicode="%" horiz-adv-x="1716" 
d="M1421 121q32 76 49 154.5t17 152.5q0 157 -65.5 243.5t-188.5 92.5q-41 -81 -62.5 -168.5t-21.5 -175.5q0 -146 69 -222.5t199 -76.5h4zM498 698q32 77 48.5 155.5t16.5 152.5q0 156 -65 241.5t-189 91.5q-40 -79 -61 -165.5t-21 -176.5q0 -146 68 -222.5t199 -76.5h4z
M1300 -33q-8 -3 -14 -4.5t-10 -1.5q-112 0 -196.5 111t-84.5 274q0 104 30 204t95 212q12 21 52.5 48.5t164.5 92.5q144 -11 226 -112t82 -269q0 -216 -87.5 -356.5t-257.5 -198.5zM1323 1479l-831 -1518h-97l830 1518h98zM377 545q-6 -3 -12 -4.5t-13 -1.5
q-111 0 -194.5 110t-83.5 273q0 103 29.5 204t93.5 211q12 22 50 48t167 94q144 -11 226.5 -111.5t82.5 -267.5q0 -215 -88 -356t-258 -199z" />
    <glyph glyph-name="ampersand" unicode="&#x26;" horiz-adv-x="1100" 
d="M426 426l104 137h496l-80 -131h-86q11 -28 16 -56t5 -57q0 -148 -113 -253t-276 -105q-162 0 -278 115.5t-116 275.5q0 124 75 229.5t220 184.5q-107 38 -160 99t-53 147q0 57 24.5 114.5t71.5 110.5q78 89 189.5 147t198.5 58q58 0 115 -26.5t114 -80.5l-188 -192
q-66 56 -133 86.5t-128 30.5q-10 -1 -18 -2t-19 -5q-16 -22 -23 -43t-7 -45q0 -106 121 -177t336 -87l-123 -215l-108 18q-80 -4 -142.5 -20t-110.5 -45q-19 -32 -29 -70t-10 -80q0 -141 92.5 -223t251.5 -82q29 0 53.5 3.5t45.5 11.5q-5 84 -63 143.5t-161 85.5h-32
q-31 0 -45.5 -0.5t-26.5 -1.5z" />
    <glyph glyph-name="quotesingle" unicode="'" horiz-adv-x="334" 
d="M86 1436h164v-557h-164v557z" />
    <glyph glyph-name="parenleft" unicode="(" horiz-adv-x="545" 
d="M289 -502q-96 214 -143.5 419.5t-47.5 408.5q0 316 103 609t303 544l96 -66q-161 -273 -239 -561.5t-78 -609.5q0 -182 31.5 -355t95.5 -342z" />
    <glyph glyph-name="parenright" unicode=")" horiz-adv-x="545" 
d="M215 1479q96 -214 143.5 -418.5t47.5 -407.5q0 -319 -103 -612.5t-301 -542.5l-98 68q161 273 239 560.5t78 608.5q0 185 -31 358t-94 341z" />
    <glyph glyph-name="asterisk" unicode="*" 
d="M504 1237l-21 242h115l-20 -242l196 135l57 -96l-217 -102l220 -107l-56 -96l-200 137l20 -242l-115 2l21 240l-197 -135l-57 96l215 105l-219 102l57 98z" />
    <glyph glyph-name="plus" unicode="+" horiz-adv-x="1706" 
d="M768 1221h170v-527h514v-166h-514v-528h-170v528h-514v166h514v527z" />
    <glyph glyph-name="comma" unicode="," horiz-adv-x="559" 
d="M84 160l172 139q55 -57 76.5 -96t21.5 -78q0 -66 -59.5 -141t-185.5 -168l-31 39q51 42 72.5 74.5t21.5 66.5t-21 73.5t-67 90.5z" />
    <glyph glyph-name="hyphen" unicode="-" horiz-adv-x="526" 
d="M14 379l86 194h369l-86 -194h-369z" />
    <glyph glyph-name="period" unicode="." horiz-adv-x="559" 
d="M244 287l75 -91t76 -83l-79 -66t-95 -86q-41 54 -77.5 96.5t-71.5 77.5q41 29 82.5 65.5t89.5 86.5z" />
    <glyph glyph-name="slash" unicode="/" horiz-adv-x="758" 
d="M907 1479l-946 -1669h-111l949 1669h108z" />
    <glyph glyph-name="zero" unicode="0" horiz-adv-x="1118" 
d="M709 183q63 100 95 238t32 316q0 245 -111.5 397.5t-286.5 153.5q-80 -85 -126 -224.5t-46 -299.5q0 -266 112 -425t294 -159q13 0 21 0.5t16 2.5zM838 172q-128 -103 -215.5 -156t-130.5 -53q-47 0 -108 22.5t-114 59.5q-112 79 -169.5 212t-57.5 312q0 144 36.5 283.5
t123.5 316.5q16 32 33.5 59t33.5 46q21 23 110.5 80t211.5 123q219 0 352 -164.5t133 -438.5q0 -199 -61 -378t-178 -324z" />
    <glyph glyph-name="one" unicode="1" horiz-adv-x="1118" 
d="M365 -10q22 189 52.5 541.5t71.5 902.5l269 45q-38 -299 -71.5 -674t-61.5 -805z" />
    <glyph glyph-name="two" unicode="2" horiz-adv-x="1118" 
d="M25 0l63 209l179 66q8 3 23 8q121 45 150 69q122 104 190 240.5t68 277.5q0 176 -104 288t-266 112q-41 0 -83 -10.5t-87 -32.5l-29 35l187 190q45 13 89.5 20t83.5 7q196 0 319.5 -133.5t123.5 -344.5q0 -236 -135 -434.5t-391 -339.5h241q80 0 139.5 2.5t108.5 7.5
l-68 -237h-802z" />
    <glyph glyph-name="three" unicode="3" horiz-adv-x="1118" 
d="M102 164l201 164q63 -90 137 -136.5t156 -46.5h16q26 42 39 86.5t13 90.5q0 151 -95.5 239t-257.5 88q-14 0 -32.5 -1.5l-41.5 -3.5l-12 18l176 174h6q44 4 64 4q31 0 60.5 -4t56.5 -10q37 44 57.5 99t20.5 111q0 125 -64 186.5t-194 61.5q-28 0 -66 -7t-88 -22l-18 31
l192 176q29 9 62 13t71 4q164 0 259 -85.5t95 -232.5q0 -138 -59.5 -225.5t-187.5 -136.5q125 -52 189.5 -151t64.5 -238q0 -103 -42.5 -176t-140.5 -138t-175.5 -100t-125.5 -35q-92 0 -178 52t-158 151z" />
    <glyph glyph-name="four" unicode="4" horiz-adv-x="1118" 
d="M668 1268l-435 -650h373zM543 -10l27.5 269l21.5 208h-547l-18 27l117 172q361 528 513 768l265 45q-20 -153 -32.5 -269.5t-21.5 -212.5l-32 -379h204l-61 -155l-158 4q-6 -70 -13 -168.5t-20 -298.5z" />
    <glyph glyph-name="five" unicode="5" horiz-adv-x="1118" 
d="M115 70l172 200q55 -41 124 -62.5t146 -21.5q41 0 72.5 7.5t56.5 21.5q17 30 25 65.5t8 77.5q0 162 -95 248t-274 86q-25 0 -60 -3t-79 -9q24 219 41 410.5t27 351.5h639l-97 -228h-422l-26 -306q25 2 46.5 3.5t37.5 1.5q230 0 359.5 -103t129.5 -284q0 -115 -65 -230.5
t-189 -219.5q-67 -57 -134.5 -86t-131.5 -29q-81 0 -160.5 28t-150.5 81z" />
    <glyph glyph-name="six" unicode="6" horiz-adv-x="1118" 
d="M362 729l187 178q15 4 34 6t44 2q179 0 280 -107.5t101 -299.5q0 -88 -23.5 -166.5t-69.5 -144.5l-123 -92q-191 -144 -251 -144q-206 0 -315 156.5t-109 449.5q0 104 17 207.5t50 204.5q31 92 65 161.5t68 108.5q27 31 105 86.5t182 116.5q24 14 46.5 21.5t39.5 7.5
q87 0 181.5 -57t179.5 -160l-209 -160q-74 83 -155.5 125.5t-166.5 42.5h-6q-51 -76 -89 -210.5t-63 -332.5zM354 637v-29q0 -199 79.5 -312.5t217.5 -113.5q34 0 65 9.5t60 27.5q16 46 24.5 91t8.5 87q0 135 -70 216t-184 81q-55 0 -104 -14t-97 -43z" />
    <glyph glyph-name="seven" unicode="7" horiz-adv-x="1118" 
d="M299 -39l471 1253h-559l59 228h748l-541 -1442z" />
    <glyph glyph-name="eight" unicode="8" horiz-adv-x="1118" 
d="M446 647q-53 -47 -77.5 -95.5t-24.5 -107.5q0 -123 76 -202.5t192 -79.5q26 0 46 3.5t36 10.5q7 30 10 58t3 57q0 89 -57 168.5t-204 187.5zM625 825q64 55 95.5 115.5t31.5 128.5q0 91 -67.5 151t-172.5 60q-21 0 -44 -4t-50 -12q-7 -20 -11 -42.5t-4 -45.5
q0 -100 55 -186.5t167 -164.5zM387 686q-97 80 -142.5 160.5t-45.5 171.5q0 80 31 154.5t77 111.5l52 41q196 154 294 154q137 0 224.5 -82.5t87.5 -212.5q0 -147 -64.5 -239t-214.5 -159q133 -100 187.5 -178.5t54.5 -165.5q0 -72 -21.5 -134.5t-64.5 -114.5
q-51 -37 -133 -102q-166 -130 -226 -130q-152 0 -252 99t-100 251q0 122 58.5 208t197.5 167z" />
    <glyph glyph-name="nine" unicode="9" horiz-adv-x="1118" 
d="M786 805v22q0 207 -79 320t-224 113q-29 0 -59.5 -9.5t-61.5 -27.5q-16 -44 -24 -89.5t-8 -89.5q0 -137 71.5 -216.5t194.5 -79.5q48 0 96 14t94 43zM778 713l-189 -179q-15 -4 -33 -6t-42 -2q-180 0 -280.5 108t-100.5 300q0 93 22.5 170.5t67.5 140.5l124 92
q190 144 251 144q203 0 313.5 -155.5t110.5 -438.5q0 -110 -17 -215t-51 -209q-31 -95 -64 -163.5t-67 -106.5q-24 -29 -102.5 -84.5t-185.5 -118.5q-23 -14 -45 -21.5t-41 -7.5q-87 0 -180 56t-179 161l209 162q74 -84 156 -127t166 -43h6q50 74 87 206.5t64 336.5z" />
    <glyph glyph-name="colon" unicode=":" horiz-adv-x="559" 
d="M244 287l75 -91t76 -83l-79 -66t-95 -86q-41 54 -77.5 96.5t-71.5 77.5q41 29 82.5 65.5t89.5 86.5zM301 944q37 -47 75.5 -90.5l76.5 -83.5q-44 -34 -87 -71l-87 -78l-75 91t-75 81q41 28 82.5 64.5t89.5 86.5z" />
    <glyph glyph-name="semicolon" unicode=";" horiz-adv-x="559" 
d="M301 944q37 -47 75.5 -90.5l76.5 -83.5q-44 -34 -87 -71l-87 -78l-75 91t-75 81q41 28 82.5 64.5t89.5 86.5zM84 160l172 139q55 -57 76.5 -96t21.5 -78q0 -66 -59.5 -141t-185.5 -168l-31 39q51 42 72.5 74.5t21.5 66.5t-21 73.5t-67 90.5z" />
    <glyph glyph-name="less" unicode="&#x3c;" horiz-adv-x="1706" 
d="M1442 1176v-185l-934 -381l934 -381v-182l-1178 483v160z" />
    <glyph glyph-name="equal" unicode="=" horiz-adv-x="1706" 
d="M254 487h1198v-165h-1198v165zM254 901h1198v-168h-1198v168z" />
    <glyph glyph-name="greater" unicode="&#x3e;" horiz-adv-x="1706" 
d="M264 1176l1178 -486v-160l-1178 -483v182l934 381l-934 381v185z" />
    <glyph glyph-name="question" unicode="?" horiz-adv-x="868" 
d="M266 381q-3 19 -4.5 33.5t-1.5 25.5q0 99 149 284l3 3q106 132 145 207.5t39 140.5q0 90 -69.5 152.5t-170.5 62.5q-55 0 -109.5 -22t-113.5 -68l-33 29l168 205q42 22 92.5 33.5t108.5 11.5q167 0 275 -99.5t108 -253.5q0 -139 -216 -369l-73 -79q-58 -64 -76 -105
t-18 -92q0 -13 0.5 -21t1.5 -15zM408 285l10 -13q86 -103 141 -159l-79 -66t-95 -86q-41 54 -77.5 96.5t-71.5 77.5q44 32 87 69.5t85 80.5z" />
    <glyph glyph-name="at" unicode="@" horiz-adv-x="2048" 
d="M1174 283q-55 -87 -128 -127.5t-176 -40.5q-152 0 -232.5 86.5t-80.5 249.5q0 233 138 395t333 162q89 0 149 -34.5t99 -107.5l55 107h154l-148 -586q-1 -5 -2 -12q-6 -28 -6 -37q0 -38 26.5 -61t69.5 -23q51 0 107.5 30.5t105.5 84.5q72 76 110 177.5t38 215.5
q0 253 -187 411t-489 158q-138 0 -256 -31t-215 -94q-181 -113 -279 -291t-98 -395q0 -312 209.5 -499t558.5 -187q166 0 323.5 49t291.5 142l67 -99q-149 -113 -318.5 -170t-355.5 -57q-192 0 -351 48t-281 142q-155 118 -231.5 275.5t-76.5 357.5q0 165 52 313.5
t153 272.5q147 179 353.5 272t459.5 93q166 0 315 -45.5t255 -127.5q132 -102 198 -235.5t66 -300.5q0 -162 -65 -302t-185 -237q-69 -55 -150 -83.5t-168 -28.5q-106 0 -157 40.5t-51 125.5v4zM1233 707q-14 84 -61.5 130t-122.5 46q-127 0 -217.5 -128.5t-90.5 -310.5
q0 -98 45.5 -151t128.5 -53q90 0 163.5 66.5t99.5 172.5z" />
    <glyph glyph-name="A" unicode="A" horiz-adv-x="1233" 
d="M365 657h370l-162 560zM-74 -10l566 1388l-17 64l281 28l214.5 -744l225.5 -712l-260 -53q-12 48 -27.5 104.5l-48.5 170.5l-76 260h-477l-90 -252l-51 -145t-31 -99z" />
    <glyph glyph-name="B" unicode="B" horiz-adv-x="1104" 
d="M324 154q90 -30 160.5 -46t111.5 -16q40 0 86.5 80.5t46.5 169.5q0 126 -99.5 203.5t-266.5 79.5q-10 -105 -19.5 -217t-19.5 -254zM371 698l118 111h21q27 0 57 -3.5t62 -10.5q66 57 101.5 121t35.5 126q0 121 -80.5 192t-218.5 71q-16 0 -24.5 -0.5t-16.5 -2.5
q-19 -172 -33 -326t-22 -278zM53 0q25 208 57 578t68 864h78q43 0 154.5 4t179.5 4q201 0 319.5 -92t118.5 -246q0 -114 -82 -207t-231 -145q142 -57 214 -144t72 -202q0 -182 -150.5 -303t-383.5 -121q-55 0 -172 5t-178 5h-64z" />
    <glyph glyph-name="C" unicode="C" horiz-adv-x="1241" 
d="M1147 360l39 -41q-177 -179 -324 -268.5t-266 -89.5q-242 0 -387.5 176.5t-145.5 472.5q0 189 58.5 348.5t173.5 286.5q131 116 263.5 175t260.5 59q139 0 242 -48t174 -145l-201 -188q-84 82 -178 123t-201 41q-71 0 -132.5 -15.5t-84.5 -36.5q-10 -8 -26.5 -39.5
t-34.5 -76.5q-37 -96 -55.5 -192t-18.5 -189q0 -243 119 -375.5t336 -132.5q108 0 202 37.5t187 117.5z" />
    <glyph glyph-name="D" unicode="D" horiz-adv-x="1366" 
d="M436 1282q-34 -361 -59 -659.5t-35 -442.5q35 -4 79 -6t101 -2q125 0 220 13.5t122 33.5q15 10 41 53t51 101q41 91 60.5 186t19.5 197q0 250 -133 390t-371 140q-23 0 -87 -3zM305 1442q19 0 140.5 4t224.5 4q299 0 472 -172t173 -469q0 -170 -75.5 -322.5
t-217.5 -271.5q-167 -120 -306.5 -172.5t-287.5 -52.5q-33 0 -130 5t-161 5h-82q25 208 57 578t68 864h125z" />
    <glyph glyph-name="E" unicode="E" horiz-adv-x="952" 
d="M53 0q25 208 57 578t68 864q60 0 196 1q367 3 591 7l-83 -170q-143 2 -244 3t-198 1q-14 -105 -26 -222t-21 -245l496 6l-90 -166h-422q-12 -136 -21.5 -260t-15.5 -231h299q93 0 141 1t90 3l-71 -180q-247 6 -346 8t-154 2h-246z" />
    <glyph glyph-name="F" unicode="F" horiz-adv-x="944" 
d="M63 -10q27 235 59 606.5t66 845.5q60 0 193 1q364 3 582 7l-95 -170q-72 2 -158 3t-261 1q-15 -105 -27 -222t-21 -245l496 6l-90 -166h-420q-17 -198 -29 -362t-20 -295z" />
    <glyph glyph-name="G" unicode="G" horiz-adv-x="1337" 
d="M705 643l184 170h366q-18 -166 -31 -320.5t-22 -299.5q-200 -133 -316.5 -182.5t-213.5 -49.5q-293 0 -454 167t-161 472q0 228 80 408.5t228 287.5q124 92 261 137.5t287 45.5q137 0 248.5 -50.5t184.5 -144.5l-195 -182q-86 99 -196.5 148.5t-245.5 49.5
q-98 0 -181.5 -23.5t-111.5 -55.5q-10 -12 -25.5 -46t-34.5 -85q-35 -97 -53 -189t-18 -176q0 -238 137.5 -387.5t355.5 -149.5q46 0 88 8t80 23q12 120 21.5 226t15.5 198h-278z" />
    <glyph glyph-name="H" unicode="H" horiz-adv-x="1323" 
d="M55 -10q27 235 59 606.5t66 845.5l275 8q-17 -157 -32 -312.5l-30 -314.5h551q18 186 43 535l6 84l275 8q-38 -350 -69 -709t-56 -741l-275 -10q17 150 32.5 314t29.5 339h-551q-15 -152 -27 -307.5t-22 -335.5z" />
    <glyph glyph-name="I" unicode="I" horiz-adv-x="559" 
d="M72 -10q29 256 61.5 630.5t65.5 821.5l288 8q-38 -350 -69 -709t-56 -741z" />
    <glyph glyph-name="J" unicode="J" horiz-adv-x="797" 
d="M-70 131l228 172q33 -66 73 -103t78 -40q29 23 115 1143l10 139l289 8q-35 -318 -67.5 -706.5t-45.5 -442.5q-12 -52 -47 -102.5t-92 -96.5q-81 -64 -165.5 -102.5t-139.5 -38.5q-53 0 -114.5 44t-121.5 126z" />
    <glyph glyph-name="K" unicode="K" horiz-adv-x="1128" 
d="M53 -10q27 235 59 606.5t66 845.5l277 8q-21 -183 -37.5 -357.5t-30.5 -353.5l313 400l139.5 180l90.5 123l235 26l-577 -702l264 -369l128.5 -177l127.5 -171l-268 -88l-465 670q-18 -203 -29 -356t-18 -274z" />
    <glyph glyph-name="L" unicode="L" horiz-adv-x="915" 
d="M74 0q25 208 57 578t68 864l288 8q-24 -214 -53 -540t-61 -744l516 4l-68 -170h-747z" />
    <glyph glyph-name="M" unicode="M" horiz-adv-x="1706" 
d="M55 -10l23 120q130 701 141 768l76 474l-21 90l256 28l51.5 -206l59.5 -226l197 -721l383 1049l-9 76l265 28q23 -556 43 -912t41 -558l-269 -10q0 128 -14 424q-1 32 -2 49l-25 567l-346 -948l-16 -68l-215 -53l-74 284l-104 384l-111 401l-104 -694q-10 -64 -20.5 -141
t-24.5 -195z" />
    <glyph glyph-name="N" unicode="N" horiz-adv-x="1341" 
d="M76 -10q0 2 24.5 218l46.5 413l78 690l-84 131l283 20l598 -1069l57 660.5t29 388.5l170 8q-43 -409 -74.5 -770t-52.5 -680l-184 -18l-513 928l-104 186l-63 -660q-13 -133 -20.5 -236.5t-12.5 -199.5z" />
    <glyph glyph-name="O" unicode="O" horiz-adv-x="1475" 
d="M403 1212q-66 -101 -100.5 -223t-34.5 -254q0 -258 144 -408.5t389 -150.5q75 0 147.5 17.5t134.5 50.5q64 108 96.5 228.5t32.5 244.5q0 247 -153 396t-408 149q-77 0 -141 -13t-107 -37zM588 1434q58 23 124 35t140 12q265 0 419 -165t154 -450q0 -217 -60 -387.5
t-169 -261.5q-163 -136 -294.5 -196t-264.5 -60q-284 0 -437 161t-153 460q0 150 41 293.5t119 267.5q39 64 127 131.5t254 159.5z" />
    <glyph glyph-name="P" unicode="P" horiz-adv-x="1096" 
d="M395 737q45 -10 91.5 -15t97.5 -5q48 0 85.5 8.5t49.5 19.5q36 40 58 107t22 141q0 148 -81.5 227.5t-232.5 79.5q-6 0 -18 -1t-18 -1q-6 -53 -21 -206t-33 -355zM63 -10q27 235 59 606.5t66 845.5h78q59 0 168.5 4t159.5 4q211 0 330.5 -102.5t119.5 -282.5
q0 -103 -41.5 -184t-124.5 -140q-22 -15 -62 -45q-165 -123 -294 -123q-15 0 -48.5 1.5t-92.5 4.5q-11 -117 -21.5 -262t-21.5 -317z" />
    <glyph glyph-name="Q" unicode="Q" horiz-adv-x="1475" 
d="M901 184q-166 96 -228.5 122t-103.5 26q-28 0 -58 -10.5t-62 -32.5q73 -60 158.5 -89.5t183.5 -29.5q30 0 57.5 3.5t52.5 10.5zM403 1212q-66 -101 -100.5 -224t-34.5 -255q0 -118 34 -218.5t99 -178.5q119 78 200.5 114.5t133.5 36.5q56 0 130.5 -30.5t256.5 -139.5
q46 107 68 205t22 191q0 250 -152.5 399.5t-408.5 149.5q-77 0 -141 -13t-107 -37zM588 1434q58 23 124 35t140 12q265 0 419 -165t154 -450q0 -196 -50.5 -357t-141.5 -257l209 -119l-199 -172l-207 137q-102 -70 -198.5 -103.5t-200.5 -33.5q-284 0 -437 161t-153 460
q0 150 41 293.5t119 267.5q39 64 127 131.5t254 159.5z" />
    <glyph glyph-name="R" unicode="R" horiz-adv-x="1096" 
d="M383 690l180 105q19 -16 36 -25t34 -12q67 60 101 133t34 153q0 122 -74.5 191.5t-206.5 69.5q-5 0 -21 -1t-28 -1l-31 -322.5t-24 -290.5zM53 -10q29 256 62 630.5t65 821.5h76q69 0 175 4t142 4q198 0 317.5 -98t119.5 -256q0 -142 -91.5 -248t-277.5 -182l389 -611
l-260 -94l-341 570l-54 90q-11 -123 -22 -272t-23 -349z" />
    <glyph glyph-name="S" unicode="S" horiz-adv-x="985" 
d="M63 195l246 143q56 -96 122 -144t147 -52q32 33 48.5 78.5t16.5 101.5q0 91 -42 154t-187 151h-1q-261 160 -261 350q0 94 28 170t76 115q152 120 241 168.5t156 48.5t149.5 -53t145.5 -140l-217 -143q-67 70 -133.5 105.5t-130.5 35.5q-8 0 -17 -1l-26 -3
q-26 -31 -39.5 -74.5t-13.5 -95.5q0 -78 44.5 -138t190.5 -149q160 -96 218.5 -173t58.5 -177q0 -84 -40 -168.5t-114 -154.5q-88 -85 -186.5 -137t-161.5 -52q-82 0 -161.5 58.5t-156.5 175.5z" />
    <glyph glyph-name="T" unicode="T" horiz-adv-x="1071" 
d="M336 -10q28 257 56.5 587t56.5 713l-375 -10l108 170q80 -4 171.5 -6t203.5 -2q126 0 274.5 2t313.5 6l-117 -166l-309 6q-42 -433 -70 -767t-39 -523z" />
    <glyph glyph-name="U" unicode="U" horiz-adv-x="1337" 
d="M868 -10l11 151q-207 -112 -296 -146t-155 -34q-155 0 -240.5 85t-85.5 239q0 25 33.5 407.5t59.5 749.5l274 8q-43 -405 -69.5 -723t-26.5 -399q0 -80 47.5 -118t146.5 -38q72 0 146.5 20.5t158.5 63.5q27 96 53 345.5t68 840.5l275 8q-38 -350 -69 -709t-56 -741z" />
    <glyph glyph-name="V" unicode="V" horiz-adv-x="1186" 
d="M463 -39q-43 182 -139.5 518.5l-286.5 962.5l278 26l92.5 -354l71.5 -262l123 -422l174 383l130 295l138 334l218 20l-374 -776t-216 -493q-11 -39 -16 -69.5t-7 -59.5z" />
    <glyph glyph-name="W" unicode="W" horiz-adv-x="1825" 
d="M444 -39q-51 253 -149.5 629t-239.5 852l273 28l44 -178q63 -255 83 -323l155 -576l248 484l-84 291l-1 3q-36 126 -83 271l266 28l78 -305l142 277l184 18l-266 -469l147 -598l311 667l69 147.5l110 234.5l198 22q-207 -387 -363 -710.5t-245 -550.5q-8 -18 -12 -39.5
t-4 -48.5q0 -16 0.5 -24t1.5 -15l-209 -115l-34 154t-21 95l-123 468q-86 -146 -150 -270t-104 -219q-7 -25 -12 -52.5t-9 -60.5z" />
    <glyph glyph-name="X" unicode="X" horiz-adv-x="1157" 
d="M-53 -18l139 185l176 245l197 280l-158 352q-22 31 -63 118t-123 280l295 18l69 -184q63 -166 76 -197l68 -157l182 282q52 78 85 132t60 106l238 10l-45 -60l-256 -345l-197 -273l205 -450l19 -43l128 -281l-286 -39l-39.5 103.5l-67.5 168.5l-123 304l-200 -304
q-58 -84 -93 -141t-59 -102z" />
    <glyph glyph-name="Y" unicode="Y" horiz-adv-x="1071" 
d="M328 -10l32.5 339t26.5 298l-111 317q-19 57 -72 193l-122 305l283 22l92 -278l30 -92l97 -287l172 317l48 89l124 229l219 18l-126.5 -196l-133.5 -222l-225 -385q-16 -92 -31 -242t-33 -415z" />
    <glyph glyph-name="Z" unicode="Z" horiz-adv-x="1081" 
d="M-12 0q85 119 240 366l79 126l459 722l-641 -6l68 242q105 -4 213 -6t221 -2q117 0 236.5 2t242.5 6l-774 -1223h661l-59 -237q-142 5 -311.5 7.5t-393.5 2.5h-241z" />
    <glyph glyph-name="bracketleft" unicode="[" horiz-adv-x="559" 
d="M74 -483q51 613 84.5 1105.5t48.5 837.5h383l-68 -104h-139l-127 -1735h203l-70 -104h-315z" />
    <glyph glyph-name="backslash" unicode="\" horiz-adv-x="758" 
d="M643 -190l-629 1669h101l628 -1669h-100z" />
    <glyph glyph-name="bracketright" unicode="]" horiz-adv-x="559" 
d="M455 1460q-50 -579 -83.5 -1075.5t-49.5 -867.5h-383l67 104h139l127 1735h-202l69 104h316z" />
    <glyph glyph-name="asciicircum" unicode="^" horiz-adv-x="2048" 
d="M915 1460h218l495 -561h-207l-397 397l-399 -397h-207z" />
    <glyph glyph-name="underscore" unicode="_" 
d="M0 -311h1024v-172h-1024v172z" />
    <glyph glyph-name="grave" unicode="`" 
d="M285 1442h213l207 -350h-119z" />
    <glyph glyph-name="a" unicode="a" horiz-adv-x="952" 
d="M602 766q-43 27 -85.5 41t-84.5 14q-33 0 -57.5 -7.5t-34.5 -20.5q-39 -53 -61.5 -152.5t-22.5 -220.5q0 -114 32 -182t83 -68q32 0 93.5 96.5t104.5 231.5q19 55 31 234q1 22 2 34zM529 -10q1 12 5 38q19 142 29 228q-115 -138 -211 -216.5t-147 -78.5q-71 0 -130 109
t-59 262q0 130 47 259t115 195q12 12 65.5 46t125.5 73q66 37 122 56.5t95 19.5q103 0 186 -41.5t141 -122.5l-63 -33q-22 -234 -38.5 -436.5l-27.5 -347.5z" />
    <glyph glyph-name="b" unicode="b" horiz-adv-x="1020" 
d="M324 178q66 -28 127.5 -42.5t117.5 -14.5q38 0 59 5t27 15q32 50 56 154t24 207q0 117 -42 204t-85 87q-19 0 -69 -41.5t-90 -100.5q-60 -87 -90 -201t-35 -272zM2 55l51 82q53 585 74 846t35 459l274 8q-32 -304 -49 -489.5t-22 -288.5q117 143 218.5 226t155.5 83
q86 0 155 -103.5t69 -248.5q0 -149 -45 -283t-109 -194q-98 -93 -202.5 -142t-200.5 -49q-80 0 -180.5 23.5t-223.5 70.5z" />
    <glyph glyph-name="c" unicode="c" horiz-adv-x="883" 
d="M766 264l31 -26l-185 -215q-62 -31 -124 -46.5t-121 -15.5q-161 0 -257 106t-96 285q0 98 23 193t67 180q114 135 220 195.5t225 60.5q118 0 197.5 -58.5t101.5 -160.5l-221 -133q-38 91 -104 141.5t-148 50.5q-16 0 -33 -2t-35 -6q-31 -61 -47 -141.5t-16 -175.5
q0 -165 74 -253.5t210 -88.5q66 0 125 27t113 83z" />
    <glyph glyph-name="d" unicode="d" horiz-adv-x="1006" 
d="M678 786q-52 27 -105 40.5t-108 13.5q-27 0 -50.5 -4t-41.5 -11q-52 -69 -80.5 -176t-28.5 -233q0 -122 40 -196.5t104 -74.5q33 0 85 63.5t115 182.5q24 44 39.5 130t30.5 265zM598 -10q1 5 2 16q15 127 24 227q-111 -121 -216.5 -196.5t-155.5 -75.5q-96 0 -168 102.5
t-72 249.5q0 152 56.5 298.5t132.5 207.5q14 12 51.5 31.5t140.5 67.5q69 32 122 47.5t93 15.5q20 0 40 -3t40 -9q3 40 16 198.5t21 274.5l260 8q-38 -350 -69 -709t-56 -741z" />
    <glyph glyph-name="e" unicode="e" horiz-adv-x="895" 
d="M240 516q58 -5 86.5 -6.5t52.5 -1.5q58 0 117 5.5t122 16.5q3 11 4 24t1 40q0 98 -62.5 160.5t-161.5 62.5q-27 0 -55 -5.5t-59 -16.5q-23 -59 -34 -128.5t-11 -150.5zM799 276l26 -30l-161 -199q-68 -42 -147 -64t-163 -22q-157 0 -249.5 103t-92.5 278
q0 131 35.5 252.5t79.5 163.5q8 7 23 22q210 201 391 201q128 0 219.5 -79.5t91.5 -188.5q0 -31 -9.5 -61.5t-27.5 -59.5q-69 -59 -132 -106.5t-118 -82.5q-46 -8 -100.5 -12t-124.5 -4q-39 0 -58.5 0.5t-35.5 1.5q9 -104 81.5 -163.5t190.5 -59.5q76 0 146 27.5t135 82.5z
" />
    <glyph glyph-name="f" unicode="f" horiz-adv-x="616" 
d="M-31 -436q108 49 167 846q19 259 32 409h-158l84 125h86q2 95 20.5 150t65.5 110q113 130 199 202.5t127 72.5q33 0 73.5 -20t90.5 -60l-148 -205q-39 52 -71 80.5t-52 28.5q-14 0 -27 -94t-22 -265h203l-98 -125h-113q-8 -97 -21 -273q-44 -594 -102 -724
q-33 -76 -103 -149t-190 -156z" />
    <glyph glyph-name="g" unicode="g" horiz-adv-x="981" 
d="M631 766q-43 28 -89.5 41.5t-97.5 13.5q-34 0 -59.5 -7.5t-36.5 -21.5q-38 -52 -61 -151.5t-23 -220.5q0 -114 31.5 -182t81.5 -68q26 0 94 84.5t115 194.5q15 36 24.5 98t20.5 219zM20 -375l195 187q63 -65 119 -95t112 -30h21q48 67 78.5 207t46.5 372
q-156 -165 -243.5 -235t-133.5 -70q-72 0 -131 109.5t-59 261.5q0 132 47 261t114 193q11 12 66.5 46t130.5 75q67 37 123.5 56.5t97.5 19.5q109 0 195 -42t143 -124l-63 -33q-12 -124 -30 -338q-41 -505 -93 -608q-21 -40 -71.5 -86.5t-147.5 -111.5q-91 -62 -168 -92.5
t-140 -30.5q-58 0 -110 27t-99 81z" />
    <glyph glyph-name="h" unicode="h" horiz-adv-x="985" 
d="M23 -10q28 256 61 630.5t66 821.5l256 8q-32 -284 -52 -492.5t-22 -261.5q135 143 238.5 214t177.5 71q72 0 108.5 -46.5t36.5 -137.5q0 -52 -24 -318t-38 -479l-256 -10q25 226 39.5 397.5t14.5 237.5q0 77 -23.5 117t-68.5 40q-80 0 -164 -230.5t-94 -551.5z" />
    <glyph glyph-name="i" unicode="i" horiz-adv-x="473" 
d="M109 1094l122 282l254 66l-163 -281zM39 -10q17 152 37 383.5t45 570.5l272 8q-18 -146 -38 -373t-46 -579z" />
    <glyph glyph-name="j" unicode="j" horiz-adv-x="479" 
d="M113 1094l123 282l253 66l-163 -281zM-70 -465q110 208 186 1285l9 124l272 8q-22 -202 -51 -529q-41 -452 -72 -552q-25 -83 -90.5 -163.5t-201.5 -190.5z" />
    <glyph glyph-name="k" unicode="k" horiz-adv-x="952" 
d="M328 420l121 86q34 -15 64 -23t52 -8q5 0 13.5 1l25.5 3q14 30 20.5 59t6.5 58q0 71 -31.5 117.5t-79.5 46.5h-8q-89 -81 -136.5 -168.5t-47.5 -167.5v-4zM23 -10q26 240 58 611t66 841l275 8q-26 -241 -45 -445t-25 -309q120 143 202.5 215t127.5 72q64 0 123 -71.5
t59 -159.5q0 -92 -57 -175.5t-182 -173.5l104 -122q53 -65 156 -176l6 -7l-229 -137l-141 182l-19 25l-176 225q-9 -86 -16 -185t-13 -208z" />
    <glyph glyph-name="l" unicode="l" horiz-adv-x="473" 
d="M37 -10q29 256 61.5 630.5t65.5 821.5l274 8q-40 -381 -71 -744.5t-54 -705.5z" />
    <glyph glyph-name="m" unicode="m" horiz-adv-x="1442" 
d="M23 -10q19 176 40.5 417.5t42.5 536.5l254 8l-32 -262q121 139 209.5 215t128.5 76q65 0 114 -70.5t49 -175.5q0 -13 -3 -39q0 -4 -1 -6q129 142 219 216.5t134 74.5q65 0 116.5 -67t51.5 -164q0 -39 -23 -288.5t-37 -461.5l-239 -10q25 227 40 404t15 245q0 58 -17 87.5
t-51 29.5q-23 0 -70 -64.5t-100 -169.5q-36 -72 -55.5 -177.5t-32.5 -344.5l-241 -10q28 262 39.5 405t11.5 234q0 66 -18 97.5t-56 31.5q-24 0 -66.5 -62t-95.5 -176q-35 -74 -54 -179.5t-32 -340.5z" />
    <glyph glyph-name="n" unicode="n" horiz-adv-x="985" 
d="M23 -10q19 176 40.5 417.5t42.5 536.5l254 8l-34 -264q118 138 230.5 215.5t191.5 77.5q72 0 108.5 -46.5t36.5 -137.5q0 -52 -24 -318t-38 -479l-256 -10q25 226 39.5 397.5t14.5 237.5q0 77 -23.5 117t-68.5 40q-80 0 -164 -230.5t-94 -551.5z" />
    <glyph glyph-name="o" unicode="o" horiz-adv-x="995" 
d="M672 172q25 55 38 116.5t13 125.5q0 185 -83.5 288t-233.5 103q-23 0 -45 -4.5t-46 -14.5q-41 -65 -62.5 -138.5t-21.5 -153.5q0 -166 78 -259.5t215 -93.5q42 0 79 8t69 23zM817 188q-46 -44 -119 -93t-172 -101q-29 -17 -64.5 -25t-88.5 -8q-175 0 -268 97.5t-93 281.5
q0 230 102.5 371t353.5 255q23 8 52.5 11.5t65.5 3.5q167 0 259.5 -106t92.5 -297q0 -115 -30.5 -213.5t-90.5 -176.5z" />
    <glyph glyph-name="p" unicode="p" horiz-adv-x="1020" 
d="M305 154q33 -18 73.5 -26.5t88.5 -8.5q47 0 84 7t70 21q46 86 71 179.5t25 183.5q0 118 -39.5 199.5t-85.5 81.5q-33 0 -103.5 -70.5t-115.5 -163.5q-49 -102 -67 -384q0 -12 -1 -19zM125 944l260 8l-37 -264q150 150 249 221.5t157 71.5q80 0 140 -105t60 -260
q0 -147 -54.5 -276t-143.5 -197q-108 -81 -212.5 -131.5t-156.5 -50.5q-18 0 -41 2.5t-53 7.5q-10 -99 -18 -208t-15 -236l-258 -10l15 156q25 249 36 378q-20 13 -40 31t-38 39l93 92q13 148 26.5 322.5z" />
    <glyph glyph-name="q" unicode="q" horiz-adv-x="1006" 
d="M662 786q-66 24 -118.5 34.5t-99.5 10.5q-40 0 -72.5 -9t-41.5 -21q-34 -48 -58 -148t-24 -207q0 -127 45 -213t104 -86q30 0 90 63.5t107 154.5q57 107 67 416zM541 -483q13 144 34 331.5t48 407.5q-110 -133 -212 -214t-151 -81q-99 0 -174.5 105.5t-75.5 259.5
q0 132 42 263.5t98 190.5q17 18 62.5 46.5t111.5 62.5q85 44 158 68t120 24q92 0 190 -40.5t201 -121.5l-94 -96q-43 -474 -67.5 -771t-30.5 -425z" />
    <glyph glyph-name="r" unicode="r" horiz-adv-x="721" 
d="M39 -10q17 152 37 383.5t45 570.5l254 8q-10 -73 -18 -148t-19 -196l37 79q138 294 198 294q27 0 72 -22.5t98 -63.5l-141 -268q-34 25 -69 40t-60 15q-55 0 -114.5 -200t-65.5 -482z" />
    <glyph glyph-name="s" unicode="s" horiz-adv-x="786" 
d="M6 76l187 184q63 -62 122.5 -91.5t120.5 -29.5q26 0 46 5t36 16v14q0 90 -187 174l-17 8l-9 4q-250 111 -250 224q0 60 33 129t96 141q58 65 121 96t137 31t145.5 -27.5t135.5 -81.5l-186 -180q-66 50 -129 75.5t-123 25.5q-19 0 -35.5 -3.5t-30.5 -9.5q0 -3 -1 -8t-1 -8
q0 -44 35 -78t147 -86l53 -25q232 -110 232 -227q0 -60 -35 -131.5t-98 -138.5q-53 -56 -119 -86.5t-135 -30.5q-76 0 -147 28t-144 87z" />
    <glyph glyph-name="t" unicode="t" horiz-adv-x="649" 
d="M571 217l29 -39q-119 -96 -229.5 -156.5t-153.5 -60.5q-68 0 -98.5 37t-30.5 121q0 72 16 267t43 433h-102l135 133l29 164l266 154q-19 -89 -33.5 -169.5t-23.5 -155.5l254 7l-144 -137l-125 4q-26 -171 -40.5 -308t-14.5 -206q0 -79 18 -111t62 -32q25 0 62.5 14
t80.5 41z" />
    <glyph glyph-name="u" unicode="u" horiz-adv-x="985" 
d="M582 -10l32 266q-119 -139 -230.5 -217t-188.5 -78q-74 0 -110 47.5t-36 145.5q0 45 23.5 310t38.5 480l256 8q-25 -222 -39.5 -394t-14.5 -241q0 -77 23 -116t67 -39q80 0 165 230.5t96 551.5l256 8q-20 -169 -41.5 -410.5t-42.5 -541.5z" />
    <glyph glyph-name="v" unicode="v" horiz-adv-x="952" 
d="M109 944l262 8q-34 -202 -54 -364t-20 -230q0 -114 51.5 -175.5t147.5 -61.5q12 0 27.5 2t45.5 8q31 81 46.5 169t15.5 181q0 130 -30 213t-91 121l233 166q63 -59 93 -135.5t30 -173.5q0 -126 -28.5 -256.5t-75.5 -227.5q-9 -19 -80.5 -71.5t-210.5 -143.5
q-25 -6 -53 -9t-60 -3q-152 0 -232.5 89t-80.5 257q0 56 15 205t49 432z" />
    <glyph glyph-name="w" unicode="w" horiz-adv-x="1380" 
d="M109 944l262 8q-36 -204 -55 -365t-19 -251q0 -104 45.5 -156.5t136.5 -52.5q11 0 25.5 3.5t44.5 14.5q-13 34 -19 74.5t-6 87.5q0 79 60 602l4 35l260 8q-35 -206 -54.5 -368t-19.5 -250q0 -105 45 -156t135 -51q9 0 20 1l33 3q31 81 46.5 169t15.5 181q0 130 -30 213
t-91 121l234 166q62 -59 92.5 -135.5t30.5 -173.5q0 -126 -28.5 -256.5t-76.5 -227.5q-9 -19 -80 -71.5t-211 -143.5q-23 -6 -46 -9t-46 -3q-75 0 -135.5 31t-106.5 94l-142 -114q-33 -6 -56 -8.5t-39 -2.5q-136 0 -214.5 92.5t-78.5 253.5q0 56 15 205t49 432z" />
    <glyph glyph-name="x" unicode="x" horiz-adv-x="948" 
d="M-39 45l141 231q32 -24 64.5 -37.5t60.5 -13.5q29 0 54 19.5t43 56.5l34 70l-321 538l244 66l198 -346l35 76q78 165 131 220.5t121 55.5q34 0 71.5 -20t75.5 -58l-157 -247q-20 25 -44 38t-53 13t-54.5 -23.5t-51.5 -73.5l-27 -49l172 -282q38 -62 72.5 -91.5
t69.5 -29.5q5 0 19 3q3 0 5 1l15 -35l-254 -166q-22 14 -52.5 54.5t-66.5 103.5l-100 176l-72 -139q-52 -103 -99.5 -149t-99.5 -46q-37 0 -81 21.5t-93 62.5z" />
    <glyph glyph-name="y" unicode="y" horiz-adv-x="958" 
d="M31 -375l186 187q60 -64 115.5 -95.5t109.5 -31.5q3 0 10.5 1t10.5 1q51 63 80 197t39 356q-119 -141 -215 -210t-172 -69q-73 0 -108.5 47.5t-35.5 145.5q0 45 23.5 310t38.5 480l256 8q-25 -228 -40.5 -406t-15.5 -235q0 -67 22 -100t66 -33q33 0 80 70t105 205
q14 83 25.5 202t21.5 289l256 8q-23 -206 -49 -537q-39 -482 -88 -577q-20 -39 -68 -83t-149 -113q-97 -65 -170 -95t-132 -30q-56 0 -106.5 27t-95.5 81z" />
    <glyph glyph-name="z" unicode="z" horiz-adv-x="807" 
d="M-12 0l142 213.5l77 116.5l278 420l-413 -2l102 204l259 -5.5t159 -2.5h186l-116.5 -163l-139.5 -206l-241 -364l487 -2l-145 -219q-161 6 -248 8t-144 2h-243z" />
    <glyph glyph-name="braceleft" unicode="{" 
d="M874 1477v-179q-8 0 -24 1t-23 1q-109 0 -147.5 -41.5t-38.5 -173.5v-241q0 -155 -44 -220.5t-159 -93.5q114 -27 158.5 -92.5t44.5 -220.5v-240q0 -132 39.5 -174.5t148.5 -42.5q7 0 22 1t23 1v-176h-63q-102 0 -165.5 12t-106.5 37q-57 34 -80 96t-23 203v248
q0 144 -52.5 203t-178.5 59q-7 0 -21.5 -1t-21.5 -1v179q7 0 21.5 -1.5t21.5 -1.5q126 0 178.5 59t52.5 202v247q0 145 23 206.5t80 94.5q44 27 109 38.5t181 11.5h45z" />
    <glyph glyph-name="bar" unicode="|" 
d="M424 1565h178v-2048h-178v2048z" />
    <glyph glyph-name="braceright" unicode="}" 
d="M152 1477h45q115 0 179.5 -11.5t108.5 -38.5q57 -33 80 -95t23 -206v-247q0 -144 52 -202.5t179 -58.5q6 0 21 1.5t22 1.5v-179q-7 0 -21.5 1t-21.5 1q-126 0 -178.5 -59t-52.5 -203v-248q0 -143 -23 -204t-80 -95q-43 -26 -108 -37.5t-180 -11.5h-45v176q8 0 23 -1
t22 -1q109 0 147.5 42t38.5 175v240q0 153 45 219t160 94q-115 28 -160 93.5t-45 220.5v241q0 132 -38 173.5t-146 41.5q-7 0 -23 -1t-24 -1v179z" />
    <glyph glyph-name="asciitilde" unicode="~" horiz-adv-x="1706" 
d="M1530 784v-184q-103 -71 -197.5 -106t-183.5 -35q-44 0 -92.5 8.5t-98.5 26.5q-25 8 -76 26q-212 74 -319 74q-82 0 -174 -38t-211 -122v187q106 72 202 107.5t185 35.5q62 0 125.5 -12t168.5 -48q13 -4 42 -15q164 -58 250 -58q85 0 177 37t202 116z" />
    <glyph glyph-name="Adieresis" unicode="&#xc4;" horiz-adv-x="1233" 
d="M365 657h370l-162 560zM-74 -10l566 1388l-17 64l281 28l214.5 -744l225.5 -712l-260 -53q-12 48 -27.5 104.5l-48.5 170.5l-76 260h-477l-90 -252l-51 -145t-31 -99zM893 1905q27 -38 60.5 -77.5t78.5 -86.5q-49 -37 -89.5 -71t-76.5 -68q-33 47 -67.5 87.5t-69.5 76.5
q49 35 89 69t75 70zM487 1905q25 -34 57 -72t85 -92q-50 -37 -90.5 -71t-75.5 -68q-31 43 -66 84t-74 80q49 35 89.5 69t74.5 70z" />
    <glyph glyph-name="Aring" unicode="&#xc5;" horiz-adv-x="1233" 
d="M629 1858q-55 0 -93 -37t-38 -88q0 -53 37.5 -89t93.5 -36q55 0 93 36t38 89q0 52 -38 88.5t-93 36.5zM629 1972q105 0 178.5 -70t73.5 -169q0 -100 -73 -170t-179 -70q-107 0 -179.5 69.5t-72.5 170.5q0 100 72.5 169.5t179.5 69.5zM365 649h370l-162 553zM-74 -10
l566 1374l-13 37l279 43l206.5 -706l231.5 -726l-260 -51q-30 114 -46 170l-30 102l-76 256h-477l-90 -247l-49.5 -142.5l-32.5 -99.5z" />
    <glyph glyph-name="Ccedilla" unicode="&#xc7;" horiz-adv-x="1241" 
d="M1147 360l39 -41q-177 -179 -324 -268.5t-266 -89.5q-242 0 -387.5 176.5t-145.5 472.5q0 189 58.5 348.5t173.5 286.5q131 116 263.5 175t260.5 59q139 0 242 -48t174 -145l-201 -188q-84 82 -178 123t-201 41q-71 0 -132.5 -15.5t-84.5 -36.5q-10 -8 -26.5 -39.5
t-34.5 -76.5q-37 -96 -55.5 -192t-18.5 -189q0 -243 119 -375.5t336 -132.5q108 0 202 37.5t187 117.5zM532 0h90l-33 -94h9q111 0 169 -43.5t58 -126.5q0 -102 -66 -158.5t-184 -56.5q-53 0 -122.5 12.5t-172.5 40.5l43 111q67 -23 124 -35t99 -12q55 0 87 24t32 66
q0 41 -35.5 58t-126.5 17h-39z" />
    <glyph glyph-name="Eacute" unicode="&#xc9;" horiz-adv-x="952" 
d="M53 0q25 208 57 578t68 864q60 0 196 1q367 3 591 7l-83 -170q-143 2 -244 3t-198 1q-14 -105 -26 -222t-21 -245l496 6l-90 -166h-422q-12 -136 -21.5 -260t-15.5 -231h299q93 0 141 1t90 3l-71 -180q-247 6 -346 8t-154 2h-246zM647 1940h213l-303 -350h-131z" />
    <glyph glyph-name="Ntilde" unicode="&#xd1;" horiz-adv-x="1341" 
d="M76 -10q0 2 24.5 218l46.5 413l78 690l-84 131l283 20l598 -1069l57 660.5t29 388.5l170 8q-43 -409 -74.5 -770t-52.5 -680l-184 -18l-513 928l-104 186l-63 -660q-13 -133 -20.5 -236.5t-12.5 -199.5zM985 1884h107q-30 -110 -81.5 -162.5t-129.5 -52.5q-20 0 -40 3.5
t-40 9.5l-57 18q-21 6 -34 8t-24 2q-32 0 -56 -19.5t-36 -57.5h-106q28 108 80.5 161.5t132.5 53.5q18 0 39.5 -3.5t44.5 -9.5l57 -16l17 -5q25 -7 34 -7q33 0 56.5 20t35.5 57z" />
    <glyph glyph-name="Odieresis" unicode="&#xd6;" horiz-adv-x="1475" 
d="M403 1212q-66 -101 -100.5 -223t-34.5 -254q0 -258 144 -408.5t389 -150.5q75 0 147.5 17.5t134.5 50.5q64 108 96.5 228.5t32.5 244.5q0 247 -153 396t-408 149q-77 0 -141 -13t-107 -37zM588 1434q58 23 124 35t140 12q265 0 419 -165t154 -450q0 -217 -60 -387.5
t-169 -261.5q-163 -136 -294.5 -196t-264.5 -60q-284 0 -437 161t-153 460q0 150 41 293.5t119 267.5q39 64 127 131.5t254 159.5zM1082 1905q27 -38 60.5 -77.5t78.5 -86.5q-49 -37 -89.5 -71t-76.5 -68q-33 47 -67.5 87.5t-69.5 76.5q49 35 89 69t75 70zM676 1905
q25 -34 57 -72t85 -92q-50 -37 -90.5 -71t-75.5 -68q-31 43 -66 84t-74 80q49 35 89.5 69t74.5 70z" />
    <glyph glyph-name="Udieresis" unicode="&#xdc;" horiz-adv-x="1337" 
d="M868 -10l11 151q-207 -112 -296 -146t-155 -34q-155 0 -240.5 85t-85.5 239q0 25 33.5 407.5t59.5 749.5l274 8q-43 -405 -69.5 -723t-26.5 -399q0 -80 47.5 -118t146.5 -38q72 0 146.5 20.5t158.5 63.5q27 96 53 345.5t68 840.5l275 8q-38 -350 -69 -709t-56 -741z
M989 1905q27 -38 60.5 -77.5t78.5 -86.5q-49 -37 -89.5 -71t-76.5 -68q-33 47 -67.5 87.5t-69.5 76.5q49 35 89 69t75 70zM583 1905q25 -34 57 -72t85 -92q-50 -37 -90.5 -71t-75.5 -68q-31 43 -66 84t-74 80q49 35 89.5 69t74.5 70z" />
    <glyph glyph-name="aacute" unicode="&#xe1;" horiz-adv-x="952" 
d="M602 766q-43 27 -85.5 41t-84.5 14q-33 0 -57.5 -7.5t-34.5 -20.5q-39 -53 -61.5 -152.5t-22.5 -220.5q0 -114 32 -182t83 -68q32 0 93.5 96.5t104.5 231.5q19 55 31 234q1 22 2 34zM529 -10q1 12 5 38q19 142 29 228q-115 -138 -211 -216.5t-147 -78.5q-71 0 -130 109
t-59 262q0 130 47 259t115 195q12 12 65.5 46t125.5 73q66 37 122 56.5t95 19.5q103 0 186 -41.5t141 -122.5l-63 -33q-22 -234 -38.5 -436.5l-27.5 -347.5zM656 1442h213l-303 -350h-131z" />
    <glyph glyph-name="agrave" unicode="&#xe0;" horiz-adv-x="952" 
d="M602 766q-43 27 -85.5 41t-84.5 14q-33 0 -57.5 -7.5t-34.5 -20.5q-39 -53 -61.5 -152.5t-22.5 -220.5q0 -114 32 -182t83 -68q32 0 93.5 96.5t104.5 231.5q19 55 31 234q1 22 2 34zM529 -10q1 12 5 38q19 142 29 228q-115 -138 -211 -216.5t-147 -78.5q-71 0 -130 109
t-59 262q0 130 47 259t115 195q12 12 65.5 46t125.5 73q66 37 122 56.5t95 19.5q103 0 186 -41.5t141 -122.5l-63 -33q-22 -234 -38.5 -436.5l-27.5 -347.5zM308 1442h213l207 -350h-119z" />
    <glyph glyph-name="acircumflex" unicode="&#xe2;" horiz-adv-x="952" 
d="M602 766q-43 27 -85.5 41t-84.5 14q-33 0 -57.5 -7.5t-34.5 -20.5q-39 -53 -61.5 -152.5t-22.5 -220.5q0 -114 32 -182t83 -68q32 0 93.5 96.5t104.5 231.5q19 55 31 234q1 22 2 34zM529 -10q1 12 5 38q19 142 29 228q-115 -138 -211 -216.5t-147 -78.5q-71 0 -130 109
t-59 262q0 130 47 259t115 195q12 12 65.5 46t125.5 73q66 37 122 56.5t95 19.5q103 0 186 -41.5t141 -122.5l-63 -33q-22 -234 -38.5 -436.5l-27.5 -347.5zM680 1438l189 -312l-162 -34l-111 204l-167 -204l-162 34l264 312h149z" />
    <glyph glyph-name="adieresis" unicode="&#xe4;" horiz-adv-x="952" 
d="M602 766q-43 27 -85.5 41t-84.5 14q-33 0 -57.5 -7.5t-34.5 -20.5q-39 -53 -61.5 -152.5t-22.5 -220.5q0 -114 32 -182t83 -68q32 0 93.5 96.5t104.5 231.5q19 55 31 234q1 22 2 34zM529 -10q1 12 5 38q19 142 29 228q-115 -138 -211 -216.5t-147 -78.5q-71 0 -130 109
t-59 262q0 130 47 259t115 195q12 12 65.5 46t125.5 73q66 37 122 56.5t95 19.5q103 0 186 -41.5t141 -122.5l-63 -33q-22 -234 -38.5 -436.5l-27.5 -347.5zM824 1407q27 -38 60.5 -77.5t78.5 -86.5q-49 -37 -89.5 -71t-76.5 -68q-33 47 -67.5 87.5t-69.5 76.5q49 35 89 69
t75 70zM418 1407q25 -34 57 -72t85 -92q-50 -37 -90.5 -71t-75.5 -68q-31 43 -66 84t-74 80q49 35 89.5 69t74.5 70z" />
    <glyph glyph-name="atilde" unicode="&#xe3;" horiz-adv-x="952" 
d="M602 766q-43 27 -85.5 41t-84.5 14q-33 0 -57.5 -7.5t-34.5 -20.5q-39 -53 -61.5 -152.5t-22.5 -220.5q0 -114 32 -182t83 -68q32 0 93.5 96.5t104.5 231.5q19 55 31 234q1 22 2 34zM529 -10q1 12 5 38q19 142 29 228q-115 -138 -211 -216.5t-147 -78.5q-71 0 -130 109
t-59 262q0 130 47 259t115 195q12 12 65.5 46t125.5 73q66 37 122 56.5t95 19.5q103 0 186 -41.5t141 -122.5l-63 -33q-22 -234 -38.5 -436.5l-27.5 -347.5zM805 1386h107q-30 -110 -81.5 -162.5t-129.5 -52.5q-20 0 -40 3.5t-40 9.5l-57 18q-21 6 -34 8t-24 2
q-32 0 -56 -19.5t-36 -57.5h-106q28 108 80.5 161.5t132.5 53.5q18 0 39.5 -3.5t44.5 -9.5l57 -16l17 -5q25 -7 34 -7q33 0 56.5 20t35.5 57z" />
    <glyph glyph-name="aring" unicode="&#xe5;" horiz-adv-x="952" 
d="M600 1440q-58 0 -96.5 -38.5t-38.5 -96.5q0 -57 39 -96.5t96 -39.5t96 39.5t39 96.5q0 56 -39 95.5t-96 39.5zM600 1563q108 0 183 -74.5t75 -181.5q0 -109 -74.5 -183.5t-183.5 -74.5t-183.5 74.5t-74.5 183.5q0 107 75 181.5t183 74.5zM602 766q-43 27 -85.5 41
t-84.5 14q-33 0 -57.5 -7.5t-34.5 -20.5q-39 -53 -61.5 -152.5t-22.5 -220.5q0 -114 32 -182t83 -68q32 0 93.5 96.5t104.5 231.5q19 55 31 234q1 22 2 34zM529 -10q1 12 5 38q19 142 29 228q-115 -138 -211 -216.5t-147 -78.5q-71 0 -130 109t-59 262q0 130 47 259t115 195
q12 12 65.5 46t125.5 73q66 37 122 56.5t95 19.5q103 0 186 -41.5t141 -122.5l-63 -33q-22 -234 -38.5 -436.5l-27.5 -347.5z" />
    <glyph glyph-name="ccedilla" unicode="&#xe7;" horiz-adv-x="883" 
d="M766 264l31 -26l-185 -215q-62 -31 -124 -46.5t-121 -15.5q-161 0 -257 106t-96 285q0 98 23 193t67 180q114 135 220 195.5t225 60.5q118 0 197.5 -58.5t101.5 -160.5l-221 -133q-38 91 -104 141.5t-148 50.5q-16 0 -33 -2t-35 -6q-31 -61 -47 -141.5t-16 -175.5
q0 -165 74 -253.5t210 -88.5q66 0 125 27t113 83zM350 0h90l-33 -94h9q111 0 169 -43.5t58 -126.5q0 -102 -66 -158.5t-184 -56.5q-53 0 -122.5 12.5t-172.5 40.5l43 111q67 -23 124 -35t99 -12q55 0 87 24t32 66q0 41 -35.5 58t-126.5 17h-39z" />
    <glyph glyph-name="eacute" unicode="&#xe9;" horiz-adv-x="895" 
d="M240 516q58 -5 86.5 -6.5t52.5 -1.5q58 0 117 5.5t122 16.5q3 11 4 24t1 40q0 98 -62.5 160.5t-161.5 62.5q-27 0 -55 -5.5t-59 -16.5q-23 -59 -34 -128.5t-11 -150.5zM799 276l26 -30l-161 -199q-68 -42 -147 -64t-163 -22q-157 0 -249.5 103t-92.5 278
q0 131 35.5 252.5t79.5 163.5q8 7 23 22q210 201 391 201q128 0 219.5 -79.5t91.5 -188.5q0 -31 -9.5 -61.5t-27.5 -59.5q-69 -59 -132 -106.5t-118 -82.5q-46 -8 -100.5 -12t-124.5 -4q-39 0 -58.5 0.5t-35.5 1.5q9 -104 81.5 -163.5t190.5 -59.5q76 0 146 27.5t135 82.5z
M608 1442h213l-303 -350h-131z" />
    <glyph glyph-name="egrave" unicode="&#xe8;" horiz-adv-x="895" 
d="M240 516q58 -5 86.5 -6.5t52.5 -1.5q58 0 117 5.5t122 16.5q3 11 4 24t1 40q0 98 -62.5 160.5t-161.5 62.5q-27 0 -55 -5.5t-59 -16.5q-23 -59 -34 -128.5t-11 -150.5zM799 276l26 -30l-161 -199q-68 -42 -147 -64t-163 -22q-157 0 -249.5 103t-92.5 278
q0 131 35.5 252.5t79.5 163.5q8 7 23 22q210 201 391 201q128 0 219.5 -79.5t91.5 -188.5q0 -31 -9.5 -61.5t-27.5 -59.5q-69 -59 -132 -106.5t-118 -82.5q-46 -8 -100.5 -12t-124.5 -4q-39 0 -58.5 0.5t-35.5 1.5q9 -104 81.5 -163.5t190.5 -59.5q76 0 146 27.5t135 82.5z
M260 1442h213l207 -350h-119z" />
    <glyph glyph-name="ecircumflex" unicode="&#xea;" horiz-adv-x="895" 
d="M240 516q58 -5 86.5 -6.5t52.5 -1.5q58 0 117 5.5t122 16.5q3 11 4 24t1 40q0 98 -62.5 160.5t-161.5 62.5q-27 0 -55 -5.5t-59 -16.5q-23 -59 -34 -128.5t-11 -150.5zM799 276l26 -30l-161 -199q-68 -42 -147 -64t-163 -22q-157 0 -249.5 103t-92.5 278
q0 131 35.5 252.5t79.5 163.5q8 7 23 22q210 201 391 201q128 0 219.5 -79.5t91.5 -188.5q0 -31 -9.5 -61.5t-27.5 -59.5q-69 -59 -132 -106.5t-118 -82.5q-46 -8 -100.5 -12t-124.5 -4q-39 0 -58.5 0.5t-35.5 1.5q9 -104 81.5 -163.5t190.5 -59.5q76 0 146 27.5t135 82.5z
M632 1438l189 -312l-162 -34l-111 204l-167 -204l-162 34l264 312h149z" />
    <glyph glyph-name="edieresis" unicode="&#xeb;" horiz-adv-x="895" 
d="M240 516q58 -5 86.5 -6.5t52.5 -1.5q58 0 117 5.5t122 16.5q3 11 4 24t1 40q0 98 -62.5 160.5t-161.5 62.5q-27 0 -55 -5.5t-59 -16.5q-23 -59 -34 -128.5t-11 -150.5zM799 276l26 -30l-161 -199q-68 -42 -147 -64t-163 -22q-157 0 -249.5 103t-92.5 278
q0 131 35.5 252.5t79.5 163.5q8 7 23 22q210 201 391 201q128 0 219.5 -79.5t91.5 -188.5q0 -31 -9.5 -61.5t-27.5 -59.5q-69 -59 -132 -106.5t-118 -82.5q-46 -8 -100.5 -12t-124.5 -4q-39 0 -58.5 0.5t-35.5 1.5q9 -104 81.5 -163.5t190.5 -59.5q76 0 146 27.5t135 82.5z
M776 1407q27 -38 60.5 -77.5t78.5 -86.5q-49 -37 -89.5 -71t-76.5 -68q-33 47 -67.5 87.5t-69.5 76.5q49 35 89 69t75 70zM370 1407q25 -34 57 -72t85 -92q-50 -37 -90.5 -71t-75.5 -68q-31 43 -66 84t-74 80q49 35 89.5 69t74.5 70z" />
    <glyph glyph-name="iacute" unicode="&#xed;" horiz-adv-x="473" 
d="M39 -10q17 152 37 383.5t45 570.5l272 8q-18 -146 -38 -373t-46 -579zM359 1442h213l-303 -350h-131z" />
    <glyph glyph-name="igrave" unicode="&#xec;" horiz-adv-x="473" 
d="M39 -10q17 152 37 383.5t45 570.5l272 8q-18 -146 -38 -373t-46 -579zM11 1442h213l207 -350h-119z" />
    <glyph glyph-name="icircumflex" unicode="&#xee;" horiz-adv-x="473" 
d="M39 -10q17 152 37 383.5t45 570.5l272 8q-18 -146 -38 -373t-46 -579zM383 1438l189 -312l-162 -34l-111 204l-167 -204l-162 34l264 312h149z" />
    <glyph glyph-name="idieresis" unicode="&#xef;" horiz-adv-x="473" 
d="M39 -10q17 152 37 383.5t45 570.5l272 8q-18 -146 -38 -373t-46 -579zM527 1407q27 -38 60.5 -77.5t78.5 -86.5q-49 -37 -89.5 -71t-76.5 -68q-33 47 -67.5 87.5t-69.5 76.5q49 35 89 69t75 70zM121 1407q25 -34 57 -72t85 -92q-50 -37 -90.5 -71t-75.5 -68
q-31 43 -66 84t-74 80q49 35 89.5 69t74.5 70z" />
    <glyph glyph-name="ntilde" unicode="&#xf1;" horiz-adv-x="985" 
d="M23 -10q19 176 40.5 417.5t42.5 536.5l254 8l-34 -264q118 138 230.5 215.5t191.5 77.5q72 0 108.5 -46.5t36.5 -137.5q0 -52 -24 -318t-38 -479l-256 -10q25 226 39.5 397.5t14.5 237.5q0 77 -23.5 117t-68.5 40q-80 0 -164 -230.5t-94 -551.5zM764 1386h107
q-30 -110 -81.5 -162.5t-129.5 -52.5q-20 0 -40 3.5t-40 9.5l-57 18q-21 6 -34 8t-24 2q-32 0 -56 -19.5t-36 -57.5h-106q28 108 80.5 161.5t132.5 53.5q18 0 39.5 -3.5t44.5 -9.5l57 -16l17 -5q25 -7 34 -7q33 0 56.5 20t35.5 57z" />
    <glyph glyph-name="oacute" unicode="&#xf3;" horiz-adv-x="995" 
d="M672 172q25 55 38 116.5t13 125.5q0 185 -83.5 288t-233.5 103q-23 0 -45 -4.5t-46 -14.5q-41 -65 -62.5 -138.5t-21.5 -153.5q0 -166 78 -259.5t215 -93.5q42 0 79 8t69 23zM817 188q-46 -44 -119 -93t-172 -101q-29 -17 -64.5 -25t-88.5 -8q-175 0 -268 97.5t-93 281.5
q0 230 102.5 371t353.5 255q23 8 52.5 11.5t65.5 3.5q167 0 259.5 -106t92.5 -297q0 -115 -30.5 -213.5t-90.5 -176.5zM625 1442h213l-303 -350h-131z" />
    <glyph glyph-name="ograve" unicode="&#xf2;" horiz-adv-x="995" 
d="M672 172q25 55 38 116.5t13 125.5q0 185 -83.5 288t-233.5 103q-23 0 -45 -4.5t-46 -14.5q-41 -65 -62.5 -138.5t-21.5 -153.5q0 -166 78 -259.5t215 -93.5q42 0 79 8t69 23zM817 188q-46 -44 -119 -93t-172 -101q-29 -17 -64.5 -25t-88.5 -8q-175 0 -268 97.5t-93 281.5
q0 230 102.5 371t353.5 255q23 8 52.5 11.5t65.5 3.5q167 0 259.5 -106t92.5 -297q0 -115 -30.5 -213.5t-90.5 -176.5zM277 1442h213l207 -350h-119z" />
    <glyph glyph-name="ocircumflex" unicode="&#xf4;" horiz-adv-x="995" 
d="M672 172q25 55 38 116.5t13 125.5q0 185 -83.5 288t-233.5 103q-23 0 -45 -4.5t-46 -14.5q-41 -65 -62.5 -138.5t-21.5 -153.5q0 -166 78 -259.5t215 -93.5q42 0 79 8t69 23zM817 188q-46 -44 -119 -93t-172 -101q-29 -17 -64.5 -25t-88.5 -8q-175 0 -268 97.5t-93 281.5
q0 230 102.5 371t353.5 255q23 8 52.5 11.5t65.5 3.5q167 0 259.5 -106t92.5 -297q0 -115 -30.5 -213.5t-90.5 -176.5zM649 1438l189 -312l-162 -34l-111 204l-167 -204l-162 34l264 312h149z" />
    <glyph glyph-name="odieresis" unicode="&#xf6;" horiz-adv-x="995" 
d="M672 172q25 55 38 116.5t13 125.5q0 185 -83.5 288t-233.5 103q-23 0 -45 -4.5t-46 -14.5q-41 -65 -62.5 -138.5t-21.5 -153.5q0 -166 78 -259.5t215 -93.5q42 0 79 8t69 23zM817 188q-46 -44 -119 -93t-172 -101q-29 -17 -64.5 -25t-88.5 -8q-175 0 -268 97.5t-93 281.5
q0 230 102.5 371t353.5 255q23 8 52.5 11.5t65.5 3.5q167 0 259.5 -106t92.5 -297q0 -115 -30.5 -213.5t-90.5 -176.5zM793 1407q27 -38 60.5 -77.5t78.5 -86.5q-49 -37 -89.5 -71t-76.5 -68q-33 47 -67.5 87.5t-69.5 76.5q49 35 89 69t75 70zM387 1407q25 -34 57 -72
t85 -92q-50 -37 -90.5 -71t-75.5 -68q-31 43 -66 84t-74 80q49 35 89.5 69t74.5 70z" />
    <glyph glyph-name="otilde" unicode="&#xf5;" horiz-adv-x="995" 
d="M672 172q25 55 38 116.5t13 125.5q0 185 -83.5 288t-233.5 103q-23 0 -45 -4.5t-46 -14.5q-41 -65 -62.5 -138.5t-21.5 -153.5q0 -166 78 -259.5t215 -93.5q42 0 79 8t69 23zM817 188q-46 -44 -119 -93t-172 -101q-29 -17 -64.5 -25t-88.5 -8q-175 0 -268 97.5t-93 281.5
q0 230 102.5 371t353.5 255q23 8 52.5 11.5t65.5 3.5q167 0 259.5 -106t92.5 -297q0 -115 -30.5 -213.5t-90.5 -176.5zM774 1386h107q-30 -110 -81.5 -162.5t-129.5 -52.5q-20 0 -40 3.5t-40 9.5l-57 18q-21 6 -34 8t-24 2q-32 0 -56 -19.5t-36 -57.5h-106
q28 108 80.5 161.5t132.5 53.5q18 0 39.5 -3.5t44.5 -9.5l57 -16l17 -5q25 -7 34 -7q33 0 56.5 20t35.5 57z" />
    <glyph glyph-name="uacute" unicode="&#xfa;" horiz-adv-x="985" 
d="M582 -10l32 266q-119 -139 -230.5 -217t-188.5 -78q-74 0 -110 47.5t-36 145.5q0 45 23.5 310t38.5 480l256 8q-25 -222 -39.5 -394t-14.5 -241q0 -77 23 -116t67 -39q80 0 165 230.5t96 551.5l256 8q-20 -169 -41.5 -410.5t-42.5 -541.5zM629 1442h213l-303 -350h-131z
" />
    <glyph glyph-name="ugrave" unicode="&#xf9;" horiz-adv-x="985" 
d="M582 -10l32 266q-119 -139 -230.5 -217t-188.5 -78q-74 0 -110 47.5t-36 145.5q0 45 23.5 310t38.5 480l256 8q-25 -222 -39.5 -394t-14.5 -241q0 -77 23 -116t67 -39q80 0 165 230.5t96 551.5l256 8q-20 -169 -41.5 -410.5t-42.5 -541.5zM281 1442h213l207 -350h-119z
" />
    <glyph glyph-name="ucircumflex" unicode="&#xfb;" horiz-adv-x="985" 
d="M582 -10l32 266q-119 -139 -230.5 -217t-188.5 -78q-74 0 -110 47.5t-36 145.5q0 45 23.5 310t38.5 480l256 8q-25 -222 -39.5 -394t-14.5 -241q0 -77 23 -116t67 -39q80 0 165 230.5t96 551.5l256 8q-20 -169 -41.5 -410.5t-42.5 -541.5zM653 1438l189 -312l-162 -34
l-111 204l-167 -204l-162 34l264 312h149z" />
    <glyph glyph-name="udieresis" unicode="&#xfc;" horiz-adv-x="985" 
d="M582 -10l32 266q-119 -139 -230.5 -217t-188.5 -78q-74 0 -110 47.5t-36 145.5q0 45 23.5 310t38.5 480l256 8q-25 -222 -39.5 -394t-14.5 -241q0 -77 23 -116t67 -39q80 0 165 230.5t96 551.5l256 8q-20 -169 -41.5 -410.5t-42.5 -541.5zM797 1407q27 -38 60.5 -77.5
t78.5 -86.5q-49 -37 -89.5 -71t-76.5 -68q-33 47 -67.5 87.5t-69.5 76.5q49 35 89 69t75 70zM391 1407q25 -34 57 -72t85 -92q-50 -37 -90.5 -71t-75.5 -68q-31 43 -66 84t-74 80q49 35 89.5 69t74.5 70z" />
    <glyph glyph-name="dagger" unicode="&#x2020;" 
d="M391 -285q16 122 23.5 290.5t7.5 383.5q0 99 -2.5 171.5t-7.5 136.5q32 66 53.5 127.5t31.5 119.5q-97 -11 -178 -25t-149 -32l18 209q101 -27 178.5 -41t137.5 -16q0 12 1 36.5t1 36.5q0 85 -7 177t-20 190h228q-44 -141 -68.5 -250.5t-30.5 -189.5q59 2 139 16t185 41
l-19 -209q-64 17 -142.5 31.5t-174.5 25.5q0 -60 11 -122.5t32 -125.5q-60 -250 -98 -496.5t-54 -484.5h-96z" />
    <glyph glyph-name="degree" unicode="&#xb0;" horiz-adv-x="674" 
d="M338 1350q-77 0 -131.5 -54t-54.5 -131q0 -76 54.5 -131t131.5 -55t130.5 54.5t53.5 131.5t-53.5 131t-130.5 54zM338 1460q121 0 208 -87t87 -210q0 -121 -87 -208t-210 -87t-208 85.5t-85 209.5q0 125 86 211t209 86z" />
    <glyph glyph-name="cent" unicode="&#xa2;" horiz-adv-x="1118" 
d="M563 471l53 623q-5 1 -14 3q-62 15 -84 15t-31 -4t-14 -14q-39 -79 -59.5 -164t-20.5 -172q0 -111 43 -183.5t127 -103.5zM512 -39q13 99 22 189q0 4 1 6l8 86q-184 24 -283.5 134.5t-99.5 289.5q0 117 41 239.5t106 204.5q15 18 181 86l92 37q8 2 18.5 3t32.5 1
q6 54 9 104t3 93l106 16q-3 -22 -6 -46.5t-8 -72.5l-8 -98q77 -8 146 -41t133 -94l-156 -144q-32 34 -66 59t-73 44l-56 -619q26 -6 51 -9t48 -3q36 0 76.5 8.5t87.5 26.5l22 -41l-229 -178q-8 -5 -18 -7t-25 -2q-4 0 -14 1.5t-15 1.5l-10 -113q-1 -5 -1 -14q-5 -66 -5 -113
z" />
    <glyph glyph-name="sterling" unicode="&#xa3;" horiz-adv-x="1118" 
d="M319 633h-196l8 102h199q15 155 43.5 267t68.5 182l97 87q232 210 305 210q83 0 174.5 -50t171.5 -141l-195 -176q-77 92 -144 136t-128 44h-16q-57 -41 -88.5 -171.5t-45.5 -387.5h222l-9 -102h-221q-15 -120 -27 -175t-28 -79q-19 -31 -72.5 -70t-134.5 -82h428
q76 0 131.5 2.5t101.5 7.5l-63 -237h-864l63 209q116 27 160.5 100.5t58.5 323.5z" />
    <glyph glyph-name="section" unicode="&#xa7;" 
d="M309 891q-42 -20 -65 -52.5t-23 -74.5q0 -76 236 -217q150 -89 241 -152q42 20 65 53t23 74q0 76 -256 231zM74 63l166 82q35 -106 101.5 -156t172.5 -50q22 0 45 4.5t49 13.5q23 23 34 52t11 65q0 72 -57 137t-211 158q-39 24 -109 63q-225 128 -225 250q0 74 50 136
t157 122q-33 41 -49 83t-16 89q0 66 31.5 125t99.5 117q80 70 141 97.5t131 27.5q115 0 188.5 -66.5t92.5 -187.5l-166 -80q-19 101 -78.5 151t-161.5 50q-15 0 -32 -3.5t-38 -9.5q-24 -26 -36.5 -55.5t-12.5 -63.5q0 -71 52 -132.5t190 -145.5l156.5 -89.5t94.5 -53.5
q60 -43 83.5 -84t23.5 -99q0 -76 -45 -136.5t-166 -131.5q33 -34 50.5 -77.5t17.5 -88.5q0 -72 -28 -127.5t-97 -114.5q-82 -71 -144 -99t-134 -28q-138 0 -218.5 62.5t-113.5 193.5z" />
    <glyph glyph-name="bullet" unicode="&#x2022;" horiz-adv-x="1208" 
d="M307 762q0 123 87 209t210 86q122 0 208.5 -86.5t86.5 -208.5t-87.5 -209.5t-209.5 -87.5q-123 0 -209 87t-86 210z" />
    <glyph glyph-name="paragraph" unicode="&#xb6;" 
d="M969 1479v-99h-117v-1380h-129v1380h-168v-1380h-131v784q-168 6 -268.5 101t-100.5 245q0 158 107 253.5t284 95.5h523z" />
    <glyph glyph-name="germandbls" unicode="&#xdf;" horiz-adv-x="1063" 
d="M92 -10q22 198 40.5 404.5t35.5 424.5h-158l84 125h86l3 37q14 170 53 219q32 42 78.5 83.5t107.5 82.5q76 54 138 83.5t97 29.5q102 0 183.5 -89.5t81.5 -215.5q0 -83 -40.5 -156t-125.5 -146q114 -52 173.5 -141.5t59.5 -208.5q0 -111 -37 -215t-92 -155
q-92 -85 -199 -138t-182 -53q-7 0 -18 1l-32 3l71 172q37 -8 69.5 -12t57.5 -4q32 0 52.5 5.5t27.5 15.5q26 40 43.5 111.5t17.5 143.5q0 131 -69 215.5t-199 112.5l-11 96q79 22 139 52.5t101 70.5q10 22 15.5 49t5.5 60q0 114 -71.5 190t-170.5 76q-61 0 -121 -848
q-21 -296 -35 -471z" />
    <glyph glyph-name="registered" unicode="&#xae;" horiz-adv-x="1706" 
d="M729 1047v-261h117q100 0 146 30.5t46 96.5q0 69 -48 101.5t-152 32.5h-109zM551 1159h319q173 0 262 -57t89 -168q0 -91 -48 -150.5t-137 -78.5l185 -375h-199l-164 346h-129v-346h-178v829zM854 1362q-129 0 -240 -45.5t-200 -134.5q-92 -94 -141.5 -210t-49.5 -241
t47 -238.5t136 -203.5q90 -91 204 -140t234 -49q130 0 246.5 47t209.5 138q89 86 137 198.5t48 237.5q0 133 -45.5 247.5t-134.5 205.5q-93 92 -207.5 140t-243.5 48zM852 1470q153 0 288.5 -56t241.5 -165q103 -104 157 -236.5t54 -281.5q0 -153 -55.5 -287t-161.5 -237
q-108 -105 -243 -161t-281 -56q-147 0 -282.5 57.5t-241.5 165.5q-105 106 -160 239t-55 279q0 147 57.5 284t165.5 245q104 104 234.5 157t281.5 53z" />
    <glyph glyph-name="copyright" unicode="&#xa9;" horiz-adv-x="1706" 
d="M1206 903h-166q-10 74 -60 114t-130 40q-99 0 -155 -86.5t-56 -239.5q0 -152 57.5 -234.5t163.5 -82.5q80 0 129 43.5t60 124.5h165q-7 -135 -106.5 -217t-253.5 -82q-183 0 -290 119t-107 323q0 208 109.5 331.5t291.5 123.5q147 0 243 -77t105 -200zM854 1362
q-130 0 -243 -46.5t-201 -135.5q-90 -92 -138.5 -208t-48.5 -241q0 -126 48 -240t139 -204q90 -91 204.5 -139t239.5 -48t240 48.5t209 140.5q89 88 135.5 200.5t46.5 241.5t-47 243.5t-135 203.5q-91 90 -205 137t-244 47zM852 1470q152 0 286 -55t240 -162
q105 -105 160 -238.5t55 -283.5q0 -153 -54.5 -286t-158.5 -234q-108 -107 -244.5 -164t-283.5 -57q-146 0 -280 56.5t-240 162.5q-107 106 -163 240.5t-56 281.5q0 145 57 280.5t164 243.5q105 107 235.5 161t282.5 54z" />
    <glyph glyph-name="trademark" unicode="&#x2122;" horiz-adv-x="1706" 
d="M809 1460h170l141 -360l133 360h170v-542h-114v428l-160 -428h-59l-166 428v-428h-115v542zM225 1460h467v-94h-168v-448h-129v448h-170v94z" />
    <glyph glyph-name="acute" unicode="&#xb4;" 
d="M633 1442h213l-303 -350h-131z" />
    <glyph glyph-name="dieresis" unicode="&#xa8;" 
d="M801 1407q27 -38 60.5 -77.5t78.5 -86.5q-49 -37 -89.5 -71t-76.5 -68q-33 47 -67.5 87.5t-69.5 76.5q49 35 89 69t75 70zM395 1407q25 -34 57 -72t85 -92q-50 -37 -90.5 -71t-75.5 -68q-31 43 -66 84t-74 80q49 35 89.5 69t74.5 70z" />
    <glyph glyph-name="notequal" unicode="&#x2260;" horiz-adv-x="1706" 
d="M1204 1212l123 -100l-170 -215h295v-162h-403l-197 -250h600v-161h-707l-249 -314l-123 99l170 215h-289v161h393l199 250h-592v162h700z" />
    <glyph glyph-name="AE" unicode="&#xc6;" horiz-adv-x="1612" 
d="M459 657h321l56 627zM717 0q18 154 31.5 284.5t21.5 245.5h-379l-311 -530l-230 -12l23 34l408 633l405 650l-90 137q245 0 495 2t539 6l-82 -170q-115 2 -224.5 3t-219.5 1q-15 -105 -27 -222t-20 -245l495 6l-90 -164h-420l-2 -31q-29 -331 -36 -462h299q94 0 142.5 1
t90.5 3l-72 -180q-241 6 -343.5 8t-157.5 2h-246z" />
    <glyph glyph-name="Oslash" unicode="&#xd8;" horiz-adv-x="1475" 
d="M459 283q79 -54 164 -80.5t178 -26.5q76 0 147.5 17t134.5 51q64 107 96.5 227.5t32.5 247.5q0 109 -28.5 196t-87.5 160zM391 350l635 789q-82 62 -175 92.5t-200 30.5q-77 0 -141 -13t-107 -37q-65 -101 -100 -223.5t-35 -253.5q0 -118 31.5 -216.5t91.5 -168.5z
M-8 -152l215 269q-77 67 -118.5 188.5t-41.5 280.5q0 144 41 287.5t119 269.5q40 64 130 133t251 158q55 22 120.5 33.5t141.5 11.5q114 0 204 -27t156 -82l119 148h121l-170 -215q72 -82 108.5 -192t36.5 -245q0 -217 -60 -387.5t-169 -261.5q-163 -136 -294.5 -196
t-264.5 -60q-105 0 -192.5 23t-165.5 71l-166 -207h-121z" />
    <glyph glyph-name="infinity" unicode="&#x221e;" horiz-adv-x="1706" 
d="M928 559q45 -81 109.5 -122.5t146.5 -41.5q97 0 159 61.5t62 157.5q0 95 -57 158.5t-142 63.5q-78 0 -142 -63.5t-136 -213.5zM780 662q-46 81 -111 123t-145 42q-98 0 -159.5 -62t-61.5 -159q0 -94 56.5 -156.5t140.5 -62.5q80 0 144.5 62.5t135.5 212.5zM862 471
q-71 -135 -148.5 -197.5t-172.5 -62.5q-137 0 -232.5 114.5t-95.5 284.5q0 179 85 289.5t220 110.5q93 0 168.5 -60t157.5 -200q71 139 149.5 200.5t184.5 61.5q127 0 222 -116t95 -284q0 -178 -84.5 -288.5t-220.5 -110.5q-92 0 -166.5 57.5t-161.5 200.5z" />
    <glyph glyph-name="plusminus" unicode="&#xb1;" horiz-adv-x="1706" 
d="M254 182h1198v-168h-1198v168zM768 1206h170v-334h514v-165h-514v-334h-170v334h-514v165h514v334z" />
    <glyph glyph-name="lessequal" unicode="&#x2264;" horiz-adv-x="1706" 
d="M260 178h1186v-166h-1186v166zM1446 1223v-176l-889 -287l889 -287v-176l-1186 389v145z" />
    <glyph glyph-name="greaterequal" unicode="&#x2265;" horiz-adv-x="1706" 
d="M260 178h1188v-166h-1188v166zM260 1223l1186 -392v-145l-1186 -389v176l891 287l-891 287v176z" />
    <glyph glyph-name="yen" unicode="&#xa5;" horiz-adv-x="1118" 
d="M596 676l86 192h-141zM365 -10l28 284.5l27 300.5h-363l9 97h344l-70 192h-256l8 97h215l-83 220l-105 269l272 29q16 -73 63 -253l33 -132l37 -133h195l78 163l81 179l64 147l207 20l-31 -49l-229 -379l-49 -81h237l-8 -97h-281l-112 -192h377l-9 -97h-393
q-14 -120 -26.5 -262t-24.5 -313z" />
    <glyph glyph-name="mu" unicode="&#xb5;" horiz-adv-x="1208" 
d="M205 1081h229l-125 -635q-6 -29 -9 -55t-3 -49q0 -96 46.5 -146.5t135.5 -50.5q122 0 193.5 88.5t111.5 292.5l109 555h225l-145 -739q-10 -49 -14.5 -81.5t-4.5 -51.5q0 -36 15.5 -51t52.5 -15q13 0 20.5 0.5t13.5 1.5l-32 -159q-32 -9 -68.5 -13t-81.5 -4
q-74 0 -111.5 31.5t-37.5 93.5v15q-41 -67 -108 -104.5t-146 -37.5q-81 0 -137.5 26t-97.5 83l-99 -506h-229z" />
    <glyph glyph-name="partialdiff" unicode="&#x2202;" horiz-adv-x="1075" 
d="M758 639q17 103 26 186.5t9 147.5q0 120 -29 174.5t-92 54.5q-62 0 -147 -58.5t-122 -58.5t-64.5 26t-27.5 60q0 66 79 115t200 49q176 0 287.5 -159t111.5 -422q0 -338 -150 -558.5t-376 -220.5q-161 0 -266 112t-105 286q0 193 113 322.5t278 129.5q101 0 167.5 -45
t107.5 -141zM705 504q0 116 -41 178.5t-117 62.5q-105 0 -174.5 -131.5t-69.5 -337.5q0 -116 40.5 -177.5t117.5 -61.5q105 0 174.5 132.5t69.5 334.5z" />
    <glyph glyph-name="summation" unicode="&#x2211;" horiz-adv-x="1421" 
d="M61 1473h1280v-226h-921l647 -684l-661 -729h974v-227h-1347v160l712 786l-684 719v201z" />
    <glyph glyph-name="product" unicode="&#x220f;" horiz-adv-x="1579" 
d="M154 1473h1267v-1866h-286v1622h-695v-1622h-286v1866z" />
    <glyph glyph-name="pi" unicode="&#x3c0;" horiz-adv-x="1368" 
d="M360 889h-45q-54 0 -83.5 -31.5t-39.5 -99.5h-174q28 187 100 255t242 68h953l-39 -192h-193l-84 -437q-2 -13 -8 -41q-22 -113 -22 -147q0 -58 23 -82t77 -24q18 0 42.5 2.5t59.5 7.5l-34 -168q-29 -8 -61 -12t-75 -4q-139 0 -202.5 48t-63.5 154q0 77 52 344l1 6
l70 353h-268l-174 -889h-226z" />
    <glyph glyph-name="integral" unicode="&#x222b;" horiz-adv-x="1120" 
d="M324 -258q106 0 122 692l3 123q13 538 113 766.5t312 228.5q87 0 143 -45.5t56 -111.5q0 -61 -34 -95t-95 -34q-45 0 -74.5 22.5t-40.5 65.5q-4 17 -6 45q-3 40 -26 41q-101 0 -119 -615q-5 -161 -8 -249q-10 -280 -30.5 -427t-59.5 -245q-55 -136 -139.5 -205.5
t-194.5 -69.5q-87 0 -142 44t-55 112q0 63 35.5 97t99.5 34q39 0 66 -18t41 -54q6 -16 9 -59t24 -43z" />
    <glyph glyph-name="ordfeminine" unicode="&#xaa;" horiz-adv-x="715" 
d="M453 1300q-35 20 -67 29.5t-62 9.5q-26 0 -44 -5.5t-24 -14.5q-29 -36 -46 -105.5t-17 -154.5q0 -80 23.5 -128t62.5 -48q23 0 69.5 67.5t79.5 161.5q14 42 24 180zM398 758q2 21 10.5 83t13.5 103q-86 -97 -157.5 -152t-110.5 -55q-54 0 -98 76t-44 182q0 92 35 182.5
t86 137.5q14 10 54 33.5t89 48.5q48 26 90 39.5t74 13.5q77 0 139 -29t107 -86l-49 -22l-31 -340t-18 -209z" />
    <glyph glyph-name="ordmasculine" unicode="&#xba;" horiz-adv-x="748" 
d="M504 885q19 37 29 80.5t10 87.5q0 130 -62.5 202t-175.5 72q-18 0 -34 -3t-34 -10q-31 -45 -47 -96t-16 -108q0 -117 58 -182.5t161 -65.5q29 0 57.5 6t53.5 17zM612 895q-33 -31 -89 -65.5t-128 -69.5q-22 -12 -48.5 -17.5t-65.5 -5.5q-132 0 -201.5 68t-69.5 196
q0 162 76.5 260.5t266.5 178.5q14 5 35 7.5t52 2.5q126 0 195.5 -74.5t69.5 -208.5q0 -79 -23.5 -148.5t-69.5 -123.5z" />
    <glyph glyph-name="Omega" unicode="&#x3a9;" horiz-adv-x="1569" 
d="M1194 213h305v-213h-602v229q160 94 242 244.5t82 351.5q0 210 -121 341.5t-316 131.5q-197 0 -316.5 -132.5t-119.5 -352.5q0 -191 84 -342t240 -242v-229h-602v213h305q-144 130 -211.5 274t-67.5 322q0 314 190.5 508t497.5 194q303 0 496 -192.5t193 -493.5
q0 -190 -65.5 -333t-213.5 -279z" />
    <glyph glyph-name="ae" unicode="&#xe6;" horiz-adv-x="1485" 
d="M602 766q-43 27 -85.5 41t-84.5 14q-33 0 -57.5 -7.5t-34.5 -20.5q-39 -53 -61.5 -152.5t-22.5 -220.5q0 -114 32 -182t83 -68q32 0 93.5 96.5t104.5 231.5q19 55 31 234q1 22 2 34zM826 516q33 -3 68.5 -4.5t72.5 -1.5q64 0 123.5 5t115.5 15q2 11 3 24t1 40
q0 98 -62.5 160.5t-160.5 62.5q-27 0 -55.5 -5.5t-58.5 -16.5q-24 -68 -36 -137.5t-11 -141.5zM1386 276l27 -30l-162 -199q-68 -43 -147 -64.5t-166 -21.5q-148 0 -237.5 82t-112.5 238q-135 -156 -233 -238t-150 -82q-71 0 -130 109t-59 262q0 130 47 259t115 195
q12 12 65.5 46t125.5 73q66 37 122 56.5t95 19.5q75 0 142.5 -24.5t127.5 -73.5q49 49 117.5 73.5t154.5 24.5q129 0 220.5 -79.5t91.5 -188.5q0 -31 -9.5 -61.5t-27.5 -59.5q-69 -59 -132 -106.5t-118 -82.5q-52 -8 -111 -12t-124 -4q-11 0 -43.5 1t-53.5 1
q8 -104 82.5 -163.5t196.5 -59.5q79 0 150.5 27.5t135.5 82.5z" />
    <glyph glyph-name="oslash" unicode="&#xf8;" horiz-adv-x="995" 
d="M324 219q36 -39 86.5 -58.5t115.5 -19.5q41 0 77.5 8t68.5 23q25 55 38 116.5t13 125.5q0 65 -11.5 120.5t-35.5 104.5zM633 707q-41 49 -94 73.5t-121 24.5q-30 0 -55.5 -4.5t-47.5 -14.5q-42 -65 -63 -139t-21 -158q0 -60 12 -112t36 -94zM-51 -104l147 174
q-43 48 -63.5 114t-20.5 156q0 230 102.5 371t353.5 255q23 8 52 11.5t66 3.5q70 0 121.5 -15.5t97.5 -50.5l100 119h101l-148 -176q41 -57 60.5 -124.5t19.5 -151.5q0 -116 -30.5 -216t-90.5 -178q-46 -44 -119 -93t-172 -101q-29 -17 -64.5 -25t-88.5 -8q-69 0 -122 14
t-97 43l-105 -122h-100z" />
    <glyph glyph-name="questiondown" unicode="&#xbf;" horiz-adv-x="868" 
d="M602 1059q2 -12 3 -24.5t1 -35.5q0 -55 -27 -111.5t-122 -174.5q-108 -134 -146.5 -208t-38.5 -138q0 -90 70 -153.5t170 -63.5q55 0 110 22t113 68l33 -27l-170 -205q-44 -23 -93.5 -35t-105.5 -12q-166 0 -274.5 99t-108.5 249q0 75 32 143t110 152l74 79
q169 176 169 275q0 12 -3 34q0 4 -1 5zM461 1155l-72.5 83l-81.5 89q37 29 79 65.5l95 86.5q27 -37 61.5 -76.5t88.5 -95.5q-44 -31 -86 -68.5t-84 -83.5z" />
    <glyph glyph-name="exclamdown" unicode="&#xa1;" horiz-adv-x="631" 
d="M393 1051q-11 -224 -16.5 -411.5t-5.5 -348.5q0 -71 2 -145.5t6 -155.5l-234 -29q36 247 69 507.5t65 547.5zM346 1126q-51 64 -84.5 102.5t-64.5 69.5l92 77.5l82 74.5q27 -37 61 -76.5t88 -95.5q-55 -41 -97.5 -78t-76.5 -74z" />
    <glyph glyph-name="logicalnot" unicode="&#xac;" horiz-adv-x="1706" 
d="M254 862h1198v-502h-166v336h-1032v166z" />
    <glyph glyph-name="radical" unicode="&#x221a;" horiz-adv-x="1323" 
d="M1128 1675h197v-110h-108l-594 -1606h-82l-316 872l-131 -49l-28 95l305 108l247 -688z" />
    <glyph glyph-name="florin" unicode="&#x192;" horiz-adv-x="1118" 
d="M1004 1450l-136 -236q-39 29 -67 42.5t-47 13.5q-44 0 -77 -300l-17 -155h208l-82 -123h-145l-27 -212q-64 -517 -129 -607q-56 -78 -249 -203l-43 -28q-34 -22 -56.5 -31.5t-40.5 -9.5q-20 0 -41.5 7t-44.5 21l135 238q36 -28 62 -41.5t43 -13.5q54 0 124 600l34 280
h-172l71 123h117q20 175 37 243.5t45 110.5q31 48 71.5 92.5t90.5 86.5q74 61 139 96t104 35q25 0 48 -7.5t45 -21.5z" />
    <glyph glyph-name="approxequal" unicode="&#x2248;" horiz-adv-x="1706" 
d="M1530 592v-186q-107 -73 -200 -106.5t-189 -33.5q-89 0 -279.5 66.5t-298.5 66.5q-84 0 -173.5 -36t-211.5 -121v184q112 75 206.5 110t180.5 35q118 0 309 -67.5t277 -67.5q83 0 172 36.5t207 119.5zM1530 979v-184q-109 -75 -201.5 -108.5t-187.5 -33.5
q-88 0 -278.5 67.5t-299.5 67.5q-82 0 -170 -35t-215 -122v184q109 73 205 109.5t182 36.5q120 0 310 -68t268 -68q92 0 181 35t206 119z" />
    <glyph glyph-name="Delta" unicode="&#x2206;" horiz-adv-x="1395" 
d="M698 1196l-379 -983h756zM569 1473h256l574 -1473h-1403z" />
    <glyph glyph-name="guillemotleft" unicode="&#xab;" horiz-adv-x="948" 
d="M872 791l-268 -291l219 -291l-164 -96l-253 336l393 382zM494 791l-269 -291l219 -291l-163 -96l-254 336l391 382z" />
    <glyph glyph-name="guillemotright" unicode="&#xbb;" horiz-adv-x="948" 
d="M414 154l268 288l-221 293l166 96l254 -335l-394 -383zM35 154l268 288l-221 293l166 96l252 -335l-391 -383z" />
    <glyph glyph-name="ellipsis" unicode="&#x2026;" horiz-adv-x="2048" 
d="M305 287l75 -91t76 -83l-79 -66t-95 -86q-41 54 -77.5 96.5t-71.5 77.5q41 29 82.5 65.5t89.5 86.5zM987 287l75 -91t76 -83l-79 -66t-95 -86q-41 54 -77.5 96.5t-71.5 77.5q41 29 82.5 65.5t89.5 86.5zM1671 287l75 -91t76 -83l-79 -66t-95 -86q-41 54 -77.5 96.5
t-71.5 77.5q41 29 82.5 65.5t89.5 86.5z" />
    <glyph glyph-name="nonbreakingspace" unicode="&#xa0;" horiz-adv-x="1118" 
 />
    <glyph glyph-name="Agrave" unicode="&#xc0;" horiz-adv-x="1233" 
d="M365 657h370l-162 560zM-74 -10l566 1388l-17 64l281 28l214.5 -744l225.5 -712l-260 -53q-12 48 -27.5 104.5l-48.5 170.5l-76 260h-477l-90 -252l-51 -145t-31 -99zM377 1940h213l207 -350h-119z" />
    <glyph glyph-name="Atilde" unicode="&#xc3;" horiz-adv-x="1233" 
d="M365 657h370l-162 560zM-74 -10l566 1388l-17 64l281 28l214.5 -744l225.5 -712l-260 -53q-12 48 -27.5 104.5l-48.5 170.5l-76 260h-477l-90 -252l-51 -145t-31 -99zM874 1884h107q-30 -110 -81.5 -162.5t-129.5 -52.5q-20 0 -40 3.5t-40 9.5l-57 18q-21 6 -34 8t-24 2
q-32 0 -56 -19.5t-36 -57.5h-106q28 108 80.5 161.5t132.5 53.5q18 0 39.5 -3.5t44.5 -9.5l57 -16l17 -5q25 -7 34 -7q33 0 56.5 20t35.5 57z" />
    <glyph glyph-name="Otilde" unicode="&#xd5;" horiz-adv-x="1475" 
d="M403 1212q-66 -101 -100.5 -223t-34.5 -254q0 -258 144 -408.5t389 -150.5q75 0 147.5 17.5t134.5 50.5q64 108 96.5 228.5t32.5 244.5q0 247 -153 396t-408 149q-77 0 -141 -13t-107 -37zM588 1434q58 23 124 35t140 12q265 0 419 -165t154 -450q0 -217 -60 -387.5
t-169 -261.5q-163 -136 -294.5 -196t-264.5 -60q-284 0 -437 161t-153 460q0 150 41 293.5t119 267.5q39 64 127 131.5t254 159.5zM1063 1884h107q-30 -110 -81.5 -162.5t-129.5 -52.5q-20 0 -40 3.5t-40 9.5l-57 18q-21 6 -34 8t-24 2q-32 0 -56 -19.5t-36 -57.5h-106
q28 108 80.5 161.5t132.5 53.5q18 0 39.5 -3.5t44.5 -9.5l57 -16l17 -5q25 -7 34 -7q33 0 56.5 20t35.5 57z" />
    <glyph glyph-name="OE" unicode="&#x152;" horiz-adv-x="2030" 
d="M403 1212q-66 -101 -100.5 -223t-34.5 -254q0 -258 144 -408.5t389 -150.5q75 0 147.5 17.5t134.5 50.5q58 98 88.5 220.5t30.5 256.5q0 250 -151.5 398.5t-407.5 148.5q-71 0 -130.5 -14t-109.5 -42zM1128 0l23 180q-140 -114 -263 -166.5t-251 -52.5q-284 0 -437 161
t-153 460q0 150 41 293.5t119 267.5q39 64 127 131.5t254 159.5q56 22 110 33.5t107 11.5q138 0 252 -59t190 -169l8 191q61 0 197 1q366 3 590 7l-82 -170q-115 2 -224.5 3t-219.5 1q-15 -105 -27 -222t-21 -245l496 6l-90 -166h-420q-19 -216 -26.5 -316t-11.5 -175h298
q95 0 143.5 1t90.5 3l-72 -180q-241 6 -343.5 8t-158.5 2h-246z" />
    <glyph glyph-name="oe" unicode="&#x153;" horiz-adv-x="1622" 
d="M672 172q25 55 38 116.5t13 125.5q0 185 -83.5 288t-233.5 103q-23 0 -45 -4.5t-46 -14.5q-41 -65 -62.5 -138.5t-21.5 -153.5q0 -166 78 -259.5t215 -93.5q42 0 79 8t69 23zM965 516q58 -5 86.5 -6.5t52.5 -1.5q58 0 117 5.5t122 16.5q3 11 4 24t1 40q0 98 -62.5 160.5
t-161.5 62.5q-27 0 -55 -5.5t-59 -16.5q-23 -59 -34 -128.5t-11 -150.5zM1524 276l26 -30l-161 -199q-68 -42 -147 -64t-163 -22q-109 0 -185 48.5t-118 144.5q-48 -40 -110.5 -79.5t-139.5 -80.5q-29 -17 -64.5 -25t-88.5 -8q-175 0 -268 97.5t-93 281.5q0 230 102.5 371
t353.5 255q23 8 52.5 11.5t65.5 3.5q113 0 189 -46t120 -140q102 105 184.5 145.5t186.5 40.5q128 0 219.5 -79.5t91.5 -188.5q0 -31 -9.5 -61.5t-27.5 -59.5q-72 -62 -134 -109t-114 -80q-46 -8 -101 -12t-126 -4q-39 0 -58.5 0.5t-35.5 1.5q9 -104 81.5 -163.5
t190.5 -59.5q76 0 146 27.5t135 82.5z" />
    <glyph glyph-name="endash" unicode="&#x2013;" 
d="M-4 403l8 142h1024l-8 -142h-1024z" />
    <glyph glyph-name="emdash" unicode="&#x2014;" horiz-adv-x="2048" 
d="M4 545h2048l-8 -142h-2048z" />
    <glyph glyph-name="quotedblleft" unicode="&#x201c;" horiz-adv-x="934" 
d="M827 1126l-155 -155q-64 48 -93.5 91t-29.5 89q0 65 57 146.5t172 181.5l31 -33q-50 -47 -72 -83.5t-22 -72.5q0 -35 23.5 -70t88.5 -94zM453 1126l-156 -155q-64 48 -93.5 91t-29.5 89q0 65 57 146.5t172 181.5l31 -33q-50 -47 -72 -83.5t-22 -72.5q0 -35 23.5 -70
t89.5 -94z" />
    <glyph glyph-name="quotedblright" unicode="&#x201d;" horiz-adv-x="934" 
d="M563 1323l156 156q65 -51 95 -94t30 -87q0 -64 -57 -146t-173 -183l-32 35q48 43 71 81t23 74q0 35 -22.5 69.5t-90.5 94.5zM190 1323l156 156q64 -50 93.5 -93t29.5 -88q0 -64 -57 -146t-172 -183l-33 35q49 43 71.5 81t22.5 74q0 37 -22.5 71.5t-88.5 92.5z" />
    <glyph glyph-name="quoteleft" unicode="&#x2018;" horiz-adv-x="559" 
d="M453 1126l-156 -155q-64 48 -93.5 91t-29.5 89q0 65 57 146.5t172 181.5l31 -33q-50 -47 -72 -83.5t-22 -72.5q0 -35 23.5 -70t89.5 -94z" />
    <glyph glyph-name="quoteright" unicode="&#x2019;" horiz-adv-x="559" 
d="M190 1325l156 154q64 -50 93.5 -93t29.5 -88q0 -63 -56.5 -144t-172.5 -183l-33 33q49 43 71.5 81t22.5 74q0 37 -23.5 73.5t-87.5 92.5z" />
    <glyph glyph-name="divide" unicode="&#xf7;" horiz-adv-x="1706" 
d="M854 367q57 0 97 -40.5t40 -97.5q0 -56 -39.5 -95.5t-97.5 -39.5t-97.5 39t-39.5 96t40.5 97.5t96.5 40.5zM254 694h1198v-166h-1198v166zM854 1128q57 0 97 -41t40 -98q0 -56 -39.5 -95.5t-97.5 -39.5t-97.5 39t-39.5 96t40.5 98t96.5 41z" />
    <glyph glyph-name="lozenge" unicode="&#x25ca;" horiz-adv-x="1012" 
d="M506 1409l-385 -817l385 -825l385 825zM506 1653l500 -1061l-500 -1069l-500 1069z" />
    <glyph glyph-name="ydieresis" unicode="&#xff;" horiz-adv-x="958" 
d="M31 -375l186 187q60 -64 115.5 -95.5t109.5 -31.5q3 0 10.5 1t10.5 1q51 63 80 197t39 356q-119 -141 -215 -210t-172 -69q-73 0 -108.5 47.5t-35.5 145.5q0 45 23.5 310t38.5 480l256 8q-25 -228 -40.5 -406t-15.5 -235q0 -67 22 -100t66 -33q33 0 80 70t105 205
q14 83 25.5 202t21.5 289l256 8q-23 -206 -49 -537q-39 -482 -88 -577q-20 -39 -68 -83t-149 -113q-97 -65 -170 -95t-132 -30q-56 0 -106.5 27t-95.5 81zM768 1407q27 -38 60.5 -77.5t78.5 -86.5q-49 -37 -89.5 -71t-76.5 -68q-33 47 -67.5 87.5t-69.5 76.5q49 35 89 69
t75 70zM362 1407q25 -34 57 -72t85 -92q-50 -37 -90.5 -71t-75.5 -68q-31 43 -66 84t-74 80q49 35 89.5 69t74.5 70z" />
    <glyph glyph-name="Ydieresis" unicode="&#x178;" horiz-adv-x="1071" 
d="M328 -10l32.5 339t26.5 298l-111 317q-19 57 -72 193l-122 305l283 22l92 -278l30 -92l97 -287l172 317l48 89l124 229l219 18l-126.5 -196l-133.5 -222l-225 -385q-16 -92 -31 -242t-33 -415zM826 1905q27 -38 60.5 -77.5t78.5 -86.5q-49 -37 -89.5 -71t-76.5 -68
q-33 47 -67.5 87.5t-69.5 76.5q49 35 89 69t75 70zM420 1905q25 -34 57 -72t85 -92q-50 -37 -90.5 -71t-75.5 -68q-31 43 -66 84t-74 80q49 35 89.5 69t74.5 70z" />
    <glyph glyph-name="fraction" unicode="&#x2215;" horiz-adv-x="342" 
d="M-342 -39l930 1518h94l-930 -1518h-94z" />
    <glyph glyph-name="currency" unicode="&#xa4;" horiz-adv-x="1118" 
d="M1110 1325l-201 -188q-55 60 -117 92.5t-120 32.5q-38 0 -92.5 -18t-61.5 -34l-3 -6q-35 -75 -48 -117q-12 -33 -22.5 -78t-18.5 -96h461l-33 -96h-440q-3 -29 -4.5 -55.5t-1.5 -50.5q0 -18 0.5 -36.5t3.5 -49.5h376l-32 -97h-332q29 -153 108 -237t193 -84
q75 0 151.5 35t137.5 98l30 -39q-143 -182 -247.5 -261t-200.5 -79q-180 0 -288 150t-122 417h-161l32 97h127q2 53 7 101t14 91h-156l33 96h145q28 98 68 181t90 145q91 113 203.5 177.5t214.5 64.5q84 0 164 -40.5t143 -115.5z" />
    <glyph glyph-name="guilsinglleft" unicode="&#x2039;" horiz-adv-x="569" 
d="M494 791l-269 -291l219 -291l-163 -96l-254 336l391 382z" />
    <glyph glyph-name="guilsinglright" unicode="&#x203a;" horiz-adv-x="569" 
d="M35 154l268 288l-221 293l166 96l252 -335l-391 -383z" />
    <glyph glyph-name="fi" unicode="&#xf001;" horiz-adv-x="1090" 
d="M725 1094l123 282l254 66l-164 -281zM655 -10q18 155 38 388t44 566l273 8q-18 -145 -38.5 -372t-45.5 -580zM-31 -436q108 49 167 846q19 259 32 409h-158l84 125h86q2 95 20.5 150t65.5 110q113 130 199 202.5t127 72.5q33 0 73.5 -20t90.5 -60l-148 -205
q-39 52 -71 80.5t-52 28.5q-14 0 -27 -94t-22 -265h203l-98 -125h-113q-8 -97 -21 -273q-44 -594 -102 -724q-33 -76 -103 -149t-190 -156z" />
    <glyph glyph-name="fi" unicode="&#xfb01;" horiz-adv-x="1090" 
d="M725 1094l123 282l254 66l-164 -281zM655 -10q18 155 38 388t44 566l273 8q-18 -145 -38.5 -372t-45.5 -580zM-31 -436q108 49 167 846q19 259 32 409h-158l84 125h86q2 95 20.5 150t65.5 110q113 130 199 202.5t127 72.5q33 0 73.5 -20t90.5 -60l-148 -205
q-39 52 -71 80.5t-52 28.5q-14 0 -27 -94t-22 -265h203l-98 -125h-113q-8 -97 -21 -273q-44 -594 -102 -724q-33 -76 -103 -149t-190 -156z" />
    <glyph glyph-name="fl" unicode="&#xf002;" horiz-adv-x="1090" 
d="M653 -10q29 256 62 630.5t65 821.5l275 8q-43 -409 -74.5 -770t-52.5 -680zM-31 -436q108 49 167 846q19 259 32 409h-158l84 125h86q2 95 20.5 150t65.5 110q113 130 199 202.5t127 72.5q25 0 54.5 -12.5t68.5 -39.5l-107 -233q-39 52 -71 80.5t-52 28.5q-14 0 -27 -94
t-22 -265h203l-98 -125h-113q-8 -97 -21 -273q-44 -594 -102 -724q-33 -76 -103 -149t-190 -156z" />
    <glyph glyph-name="fl" unicode="&#xfb02;" horiz-adv-x="1090" 
d="M653 -10q29 256 62 630.5t65 821.5l275 8q-43 -409 -74.5 -770t-52.5 -680zM-31 -436q108 49 167 846q19 259 32 409h-158l84 125h86q2 95 20.5 150t65.5 110q113 130 199 202.5t127 72.5q25 0 54.5 -12.5t68.5 -39.5l-107 -233q-39 52 -71 80.5t-52 28.5q-14 0 -27 -94
t-22 -265h203l-98 -125h-113q-8 -97 -21 -273q-44 -594 -102 -724q-33 -76 -103 -149t-190 -156z" />
    <glyph glyph-name="daggerdbl" unicode="&#x2021;" 
d="M319 -285q35 110 61.5 228t45.5 245q-63 -3 -144 -17t-184 -40l21 211q64 -18 141.5 -32t173.5 -25q4 26 6 54.5t2 61.5q0 65 -10 125t-31 117q43 84 65.5 158t26.5 143q-97 -11 -178 -25t-149 -32l18 209q101 -27 178.5 -41t137.5 -16v40q0 102 -6.5 201.5t-20.5 198.5
h232q-34 -106 -60 -216.5t-45 -223.5q62 2 142 16t184 41l-19 -209q-65 18 -143 32t-172 25q-2 -22 -3 -37t-1 -28q0 -55 10 -114t31 -122q-46 -89 -69.5 -178t-26.5 -180q99 11 180.5 25.5t146.5 31.5l-18 -211q-92 24 -171.5 38.5t-146.5 18.5v-82q0 -105 7 -202.5
t20 -188.5h-232z" />
    <glyph glyph-name="periodcentered" unicode="&#xb7;" horiz-adv-x="559" 
d="M166 735q0 47 33.5 80t81.5 33q47 0 79.5 -32.5t32.5 -80.5q0 -47 -33 -80.5t-79 -33.5t-80.5 34.5t-34.5 79.5z" />
    <glyph glyph-name="quotesinglbase" unicode="&#x201a;" horiz-adv-x="559" 
d="M88 131l156 156q64 -50 93.5 -93t29.5 -88q0 -64 -57 -146t-173 -183l-33 35q53 49 74 83.5t21 69.5q0 37 -23.5 73.5t-87.5 92.5z" />
    <glyph glyph-name="quotedblbase" unicode="&#x201e;" horiz-adv-x="934" 
d="M463 131l155 156q65 -50 94 -93t29 -88q0 -64 -57 -146t-172 -183l-33 35q53 49 73.5 83.5t20.5 69.5q0 37 -23 73.5t-87 92.5zM88 131l156 156q64 -50 93.5 -93t29.5 -88q0 -64 -57 -146t-173 -183l-33 35q53 49 74 83.5t21 69.5q0 37 -23.5 73.5t-87.5 92.5z" />
    <glyph glyph-name="perthousand" unicode="&#x2030;" horiz-adv-x="2509" 
d="M2212 121q32 76 48.5 154.5t16.5 152.5q0 157 -65.5 243.5t-188.5 92.5q-40 -79 -60.5 -166.5t-20.5 -177.5q0 -146 67.5 -222.5t198.5 -76.5h4zM2093 -33q-8 -3 -15 -4.5t-12 -1.5q-111 0 -194.5 111t-83.5 274q0 104 30 204t95 212q12 22 54 50.5t161 90.5
q144 -11 226.5 -112t82.5 -269q0 -216 -87 -356.5t-257 -198.5zM1421 121q32 76 49 154.5t17 152.5q0 157 -65.5 243.5t-188.5 92.5q-41 -81 -62.5 -168.5t-21.5 -175.5q0 -147 68.5 -223t199.5 -76h4zM1300 -33q-8 -3 -14 -4.5t-10 -1.5q-112 0 -196.5 111t-84.5 274
q0 104 30 204t95 212q12 21 52.5 48.5t164.5 92.5q144 -11 226 -112t82 -269q0 -216 -87.5 -356.5t-257.5 -198.5zM498 698q32 77 48.5 155.5t16.5 152.5q0 156 -65 241.5t-189 91.5q-40 -79 -61 -165.5t-21 -176.5q0 -146 68 -222.5t199 -76.5h4zM1323 1479l-831 -1518h-97
l830 1518h98zM377 545q-6 -3 -12 -4.5t-13 -1.5q-111 0 -194.5 110t-83.5 273q0 103 29.5 204t93.5 211q12 22 50 48t167 94q144 -11 226.5 -111.5t82.5 -267.5q0 -215 -88 -356t-258 -199z" />
    <glyph glyph-name="Acircumflex" unicode="&#xc2;" horiz-adv-x="1233" 
d="M365 657h370l-162 560zM-74 -10l566 1388l-17 64l281 28l214.5 -744l225.5 -712l-260 -53q-12 48 -27.5 104.5l-48.5 170.5l-76 260h-477l-90 -252l-51 -145t-31 -99zM749 1936l189 -312l-162 -34l-111 204l-167 -204l-162 34l264 312h149z" />
    <glyph glyph-name="Ecircumflex" unicode="&#xca;" horiz-adv-x="952" 
d="M53 0q25 208 57 578t68 864q60 0 196 1q367 3 591 7l-83 -170q-143 2 -244 3t-198 1q-14 -105 -26 -222t-21 -245l496 6l-90 -166h-422q-12 -136 -21.5 -260t-15.5 -231h299q93 0 141 1t90 3l-71 -180q-247 6 -346 8t-154 2h-246zM671 1936l189 -312l-162 -34l-111 204
l-167 -204l-162 34l264 312h149z" />
    <glyph glyph-name="Aacute" unicode="&#xc1;" horiz-adv-x="1233" 
d="M365 657h370l-162 560zM-74 -10l566 1388l-17 64l281 28l214.5 -744l225.5 -712l-260 -53q-12 48 -27.5 104.5l-48.5 170.5l-76 260h-477l-90 -252l-51 -145t-31 -99zM725 1940h213l-303 -350h-131z" />
    <glyph glyph-name="Edieresis" unicode="&#xcb;" horiz-adv-x="952" 
d="M53 0q25 208 57 578t68 864q60 0 196 1q367 3 591 7l-83 -170q-143 2 -244 3t-198 1q-14 -105 -26 -222t-21 -245l496 6l-90 -166h-422q-12 -136 -21.5 -260t-15.5 -231h299q93 0 141 1t90 3l-71 -180q-247 6 -346 8t-154 2h-246zM815 1905q27 -38 60.5 -77.5t78.5 -86.5
q-49 -37 -89.5 -71t-76.5 -68q-33 47 -67.5 87.5t-69.5 76.5q49 35 89 69t75 70zM409 1905q25 -34 57 -72t85 -92q-50 -37 -90.5 -71t-75.5 -68q-31 43 -66 84t-74 80q49 35 89.5 69t74.5 70z" />
    <glyph glyph-name="Egrave" unicode="&#xc8;" horiz-adv-x="952" 
d="M53 0q25 208 57 578t68 864q60 0 196 1q367 3 591 7l-83 -170q-143 2 -244 3t-198 1q-14 -105 -26 -222t-21 -245l496 6l-90 -166h-422q-12 -136 -21.5 -260t-15.5 -231h299q93 0 141 1t90 3l-71 -180q-247 6 -346 8t-154 2h-246zM299 1940h213l207 -350h-119z" />
    <glyph glyph-name="Iacute" unicode="&#xcd;" horiz-adv-x="559" 
d="M72 -10q29 256 61.5 630.5t65.5 821.5l288 8q-38 -350 -69 -709t-56 -741zM402 1940h213l-303 -350h-131z" />
    <glyph glyph-name="Icircumflex" unicode="&#xce;" horiz-adv-x="559" 
d="M72 -10q29 256 61.5 630.5t65.5 821.5l288 8q-38 -350 -69 -709t-56 -741zM426 1936l189 -312l-162 -34l-111 204l-167 -204l-162 34l264 312h149z" />
    <glyph glyph-name="Idieresis" unicode="&#xcf;" horiz-adv-x="559" 
d="M72 -10q29 256 61.5 630.5t65.5 821.5l288 8q-38 -350 -69 -709t-56 -741zM570 1905q27 -38 60.5 -77.5t78.5 -86.5q-49 -37 -89.5 -71t-76.5 -68q-33 47 -67.5 87.5t-69.5 76.5q49 35 89 69t75 70zM164 1905q25 -34 57 -72t85 -92q-50 -37 -90.5 -71t-75.5 -68
q-31 43 -66 84t-74 80q49 35 89.5 69t74.5 70z" />
    <glyph glyph-name="Igrave" unicode="&#xcc;" horiz-adv-x="559" 
d="M72 -10q29 256 61.5 630.5t65.5 821.5l288 8q-38 -350 -69 -709t-56 -741zM54 1940h213l207 -350h-119z" />
    <glyph glyph-name="Oacute" unicode="&#xd3;" horiz-adv-x="1475" 
d="M403 1212q-66 -101 -100.5 -223t-34.5 -254q0 -258 144 -408.5t389 -150.5q75 0 147.5 17.5t134.5 50.5q64 108 96.5 228.5t32.5 244.5q0 247 -153 396t-408 149q-77 0 -141 -13t-107 -37zM588 1434q58 23 124 35t140 12q265 0 419 -165t154 -450q0 -217 -60 -387.5
t-169 -261.5q-163 -136 -294.5 -196t-264.5 -60q-284 0 -437 161t-153 460q0 150 41 293.5t119 267.5q39 64 127 131.5t254 159.5zM914 1940h213l-303 -350h-131z" />
    <glyph glyph-name="Ocircumflex" unicode="&#xd4;" horiz-adv-x="1475" 
d="M403 1212q-66 -101 -100.5 -223t-34.5 -254q0 -258 144 -408.5t389 -150.5q75 0 147.5 17.5t134.5 50.5q64 108 96.5 228.5t32.5 244.5q0 247 -153 396t-408 149q-77 0 -141 -13t-107 -37zM588 1434q58 23 124 35t140 12q265 0 419 -165t154 -450q0 -217 -60 -387.5
t-169 -261.5q-163 -136 -294.5 -196t-264.5 -60q-284 0 -437 161t-153 460q0 150 41 293.5t119 267.5q39 64 127 131.5t254 159.5zM938 1936l189 -312l-162 -34l-111 204l-167 -204l-162 34l264 312h149z" />
    <glyph glyph-name="apple" unicode="&#xf000;" horiz-adv-x="1618" 
d="M836 1216q-1 6 -1.5 14t-0.5 23q0 124 95 229.5t236 131.5q1 -10 1.5 -23t0.5 -39q0 -131 -103.5 -234.5t-203.5 -103.5h-8q-3 0 -7.5 1t-8.5 1zM1505 403q-114 -247 -205 -342.5t-204 -95.5q-50 0 -131.5 33t-122.5 33q-45 0 -131 -33t-127 -33q-64 0 -128.5 44
t-129.5 132q-102 140 -157.5 295.5t-55.5 300.5q0 219 125 356.5t323 137.5q68 0 155 -34t124 -34q34 0 121.5 35t152.5 35q110 0 198 -40t161 -124q-102 -65 -151.5 -145.5t-49.5 -182.5q0 -113 60 -200t173 -138z" />
    <glyph glyph-name="Ograve" unicode="&#xd2;" horiz-adv-x="1475" 
d="M403 1212q-66 -101 -100.5 -223t-34.5 -254q0 -258 144 -408.5t389 -150.5q75 0 147.5 17.5t134.5 50.5q64 108 96.5 228.5t32.5 244.5q0 247 -153 396t-408 149q-77 0 -141 -13t-107 -37zM588 1434q58 23 124 35t140 12q265 0 419 -165t154 -450q0 -217 -60 -387.5
t-169 -261.5q-163 -136 -294.5 -196t-264.5 -60q-284 0 -437 161t-153 460q0 150 41 293.5t119 267.5q39 64 127 131.5t254 159.5zM566 1940h213l207 -350h-119z" />
    <glyph glyph-name="Uacute" unicode="&#xda;" horiz-adv-x="1337" 
d="M868 -10l11 151q-207 -112 -296 -146t-155 -34q-155 0 -240.5 85t-85.5 239q0 25 33.5 407.5t59.5 749.5l274 8q-43 -405 -69.5 -723t-26.5 -399q0 -80 47.5 -118t146.5 -38q72 0 146.5 20.5t158.5 63.5q27 96 53 345.5t68 840.5l275 8q-38 -350 -69 -709t-56 -741z
M821 1940h213l-303 -350h-131z" />
    <glyph glyph-name="Ucircumflex" unicode="&#xdb;" horiz-adv-x="1337" 
d="M868 -10l11 151q-207 -112 -296 -146t-155 -34q-155 0 -240.5 85t-85.5 239q0 25 33.5 407.5t59.5 749.5l274 8q-43 -405 -69.5 -723t-26.5 -399q0 -80 47.5 -118t146.5 -38q72 0 146.5 20.5t158.5 63.5q27 96 53 345.5t68 840.5l275 8q-38 -350 -69 -709t-56 -741z
M845 1936l189 -312l-162 -34l-111 204l-167 -204l-162 34l264 312h149z" />
    <glyph glyph-name="Ugrave" unicode="&#xd9;" horiz-adv-x="1337" 
d="M868 -10l11 151q-207 -112 -296 -146t-155 -34q-155 0 -240.5 85t-85.5 239q0 25 33.5 407.5t59.5 749.5l274 8q-43 -405 -69.5 -723t-26.5 -399q0 -80 47.5 -118t146.5 -38q72 0 146.5 20.5t158.5 63.5q27 96 53 345.5t68 840.5l275 8q-38 -350 -69 -709t-56 -741z
M473 1940h213l207 -350h-119z" />
    <glyph glyph-name="dotlessi" unicode="&#x131;" horiz-adv-x="473" 
d="M39 -10q17 152 37 383.5t45 570.5l272 8q-18 -146 -38 -373t-46 -579z" />
    <glyph glyph-name="circumflex" unicode="&#x2c6;" 
d="M657 1438l189 -312l-162 -34l-111 204l-167 -204l-162 34l264 312h149z" />
    <glyph glyph-name="tilde" unicode="&#x2dc;" 
d="M782 1386h107q-30 -110 -81.5 -162.5t-129.5 -52.5q-20 0 -40 3.5t-40 9.5l-57 18q-21 6 -34 8t-24 2q-32 0 -56 -19.5t-36 -57.5h-106q28 108 80.5 161.5t132.5 53.5q18 0 39.5 -3.5t44.5 -9.5l57 -16l17 -5q25 -7 34 -7q33 0 56.5 20t35.5 57z" />
    <glyph glyph-name="macron" unicode="&#xaf;" 
d="M326 1329h553l-31 -147h-553z" />
    <glyph glyph-name="breve" unicode="&#x2d8;" 
d="M318 1411h112v-6q0 -73 35 -105t115 -32q83 0 137.5 35t85.5 108h119q-42 -146 -132.5 -218.5t-234.5 -72.5q-119 0 -179.5 62.5t-60.5 185.5q0 18 0.5 26.5t2.5 16.5z" />
    <glyph glyph-name="dotaccent" unicode="&#x2d9;" 
d="M600 1415q34 -47 69.5 -89.5t73.5 -82.5q-49 -37 -92 -73.5t-80 -71.5q-34 46 -69.5 88.5t-73.5 83.5q44 31 87 67.5t85 77.5z" />
    <glyph glyph-name="ring" unicode="&#x2da;" 
d="M606 1466q-58 0 -96.5 -39t-38.5 -98q0 -56 39 -94.5t96 -38.5t95 38t38 95q0 58 -38.5 97.5t-94.5 39.5zM606 1589q108 0 183 -75t75 -183q0 -109 -74.5 -183.5t-183.5 -74.5t-183.5 74.5t-74.5 183.5q0 108 75.5 183t182.5 75z" />
    <glyph glyph-name="cedilla" unicode="&#xb8;" 
d="M428 0h90l-33 -94h9q111 0 169 -43.5t58 -126.5q0 -102 -66 -158.5t-184 -56.5q-53 0 -122.5 12.5t-172.5 40.5l43 111q67 -23 124 -35t99 -12q55 0 87 24t32 66q0 41 -35.5 58t-126.5 17h-39z" />
    <glyph glyph-name="hungarumlaut" unicode="&#x2dd;" 
d="M807 1442h188l-270 -350h-104zM518 1442h187l-232 -350h-104z" />
    <glyph glyph-name="ogonek" unicode="&#x2db;" 
d="M442 0h86q-67 -58 -98 -109t-31 -104q0 -43 20.5 -61.5t67.5 -18.5h109l-33 -156h-80q-114 0 -171.5 44t-57.5 131q0 68 43.5 132t144.5 142z" />
    <glyph glyph-name="caron" unicode="&#x2c7;" 
d="M502 1092l-189 313l162 33l113 -205l166 205l161 -33l-264 -313h-149z" />
    <glyph glyph-name="Lslash" unicode="&#x141;" horiz-adv-x="915" 
d="M74 0q18 156 33 305.5t26 292.5l-147 -84l12 139l145 80l29 354.5l27 354.5l288 8q-15 -131 -29 -272.5t-28 -305.5l236 136l-13 -138l-233 -137q-16 -161 -27.5 -300t-19.5 -267l516 4l-68 -170h-747z" />
    <glyph glyph-name="lslash" unicode="&#x142;" horiz-adv-x="473" 
d="M37 -10q15 133 29 277.5t28 307.5l-110 -67l10 115l110 69l38.5 464.5t21.5 285.5l274 8l-9 -87q-40 -376 -52 -534l115 72l-13 -123l-110 -69q-18 -184 -31.5 -360t-24.5 -349z" />
    <glyph glyph-name="Scaron" unicode="&#x160;" horiz-adv-x="985" 
d="M63 195l246 143q56 -96 122 -144t147 -52q32 33 48.5 78.5t16.5 101.5q0 91 -42 154t-187 151h-1q-261 160 -261 350q0 94 28 170t76 115q152 120 241 168.5t156 48.5t149.5 -53t145.5 -140l-217 -143q-67 70 -133.5 105.5t-130.5 35.5q-8 0 -17 -1l-26 -3
q-26 -31 -39.5 -74.5t-13.5 -95.5q0 -78 44.5 -138t190.5 -149q160 -96 218.5 -173t58.5 -177q0 -84 -40 -168.5t-114 -154.5q-88 -85 -186.5 -137t-161.5 -52q-82 0 -161.5 58.5t-156.5 175.5zM584 1590l-189 313l162 33l113 -205l166 205l161 -33l-264 -313h-149z" />
    <glyph glyph-name="scaron" unicode="&#x161;" horiz-adv-x="786" 
d="M6 76l187 184q63 -62 122.5 -91.5t120.5 -29.5q26 0 46 5t36 16v14q0 90 -187 174l-17 8l-9 4q-250 111 -250 224q0 60 33 129t96 141q58 65 121 96t137 31t145.5 -27.5t135.5 -81.5l-186 -180q-66 50 -129 75.5t-123 25.5q-19 0 -35.5 -3.5t-30.5 -9.5q0 -3 -1 -8t-1 -8
q0 -44 35 -78t147 -86l53 -25q232 -110 232 -227q0 -60 -35 -131.5t-98 -138.5q-53 -56 -119 -86.5t-135 -30.5q-76 0 -147 28t-144 87zM383 1092l-189 313l162 33l113 -205l166 205l161 -33l-264 -313h-149z" />
    <glyph glyph-name="Zcaron" unicode="&#x17d;" horiz-adv-x="1081" 
d="M-12 0q85 119 240 366l79 126l459 722l-641 -6l68 242q105 -4 213 -6t221 -2q117 0 236.5 2t242.5 6l-774 -1223h661l-59 -237q-142 5 -311.5 7.5t-393.5 2.5h-241zM531 1590l-189 313l162 33l113 -205l166 205l161 -33l-264 -313h-149z" />
    <glyph glyph-name="zcaron" unicode="&#x17e;" horiz-adv-x="807" 
d="M-12 0l142 213.5l77 116.5l278 420l-413 -2l102 204l259 -5.5t159 -2.5h186l-116.5 -163l-139.5 -206l-241 -364l487 -2l-145 -219q-161 6 -248 8t-144 2h-243zM393 1092l-189 313l162 33l113 -205l166 205l161 -33l-264 -313h-149z" />
    <glyph glyph-name="brokenbar" unicode="&#xa6;" 
d="M424 408h178v-758h-178v758zM424 1432h178v-758h-178v758z" />
    <glyph glyph-name="Eth" unicode="&#xd0;" horiz-adv-x="1366" 
d="M436 1282l-21 -217.5t-24 -280.5h289l-10 -112h-289q-12 -131 -22 -255t-17 -236q35 -5 79 -7t101 -2q125 0 220 13.5t122 33.5q15 10 41 53t51 101q41 91 60.5 186t19.5 197q0 250 -133 390t-371 140q-23 0 -87 -3zM305 1442q19 0 140.5 4t224.5 4q299 0 472 -172
t173 -469q0 -170 -75.5 -322.5t-217.5 -271.5q-167 -120 -306.5 -172.5t-287.5 -52.5q-33 0 -130 5t-161 5h-82q19 153 34.5 320t29.5 352h-123l10 112h123l26 311t25 347h125z" />
    <glyph glyph-name="eth" unicode="&#xf0;" horiz-adv-x="995" 
d="M526 -6q-29 -17 -64.5 -25t-88.5 -8q-175 0 -268 97.5t-93 281.5q0 229 101.5 369.5t349.5 253.5q38 0 88.5 -14.5t112.5 -43.5q-47 69 -103.5 135t-124.5 129l-184 -118l-51 67l168 109l-78 64.5l-78 60.5l195 127q36 -26 74.5 -58.5t78.5 -70.5l174 112l51 -67
l-165 -109q163 -176 240 -352t77 -373q0 -101 -31 -196.5t-90 -176.5q-46 -44 -119 -93t-172 -101zM672 172q25 55 38 116.5t13 125.5q0 185 -83.5 288t-233.5 103q-23 0 -45 -4.5t-46 -14.5q-41 -65 -62.5 -138.5t-21.5 -153.5q0 -166 78 -259.5t215 -93.5q42 0 79 8t69 23
z" />
    <glyph glyph-name="Yacute" unicode="&#xdd;" horiz-adv-x="1071" 
d="M328 -10l32.5 339t26.5 298l-111 317q-19 57 -72 193l-122 305l283 22l92 -278l30 -92l97 -287l172 317l48 89l124 229l219 18l-126.5 -196l-133.5 -222l-225 -385q-16 -92 -31 -242t-33 -415zM658 1940h213l-303 -350h-131z" />
    <glyph glyph-name="yacute" unicode="&#xfd;" horiz-adv-x="958" 
d="M31 -375l186 187q60 -64 115.5 -95.5t109.5 -31.5q3 0 10.5 1t10.5 1q51 63 80 197t39 356q-119 -141 -215 -210t-172 -69q-73 0 -108.5 47.5t-35.5 145.5q0 45 23.5 310t38.5 480l256 8q-25 -228 -40.5 -406t-15.5 -235q0 -67 22 -100t66 -33q33 0 80 70t105 205
q14 83 25.5 202t21.5 289l256 8q-23 -206 -49 -537q-39 -482 -88 -577q-20 -39 -68 -83t-149 -113q-97 -65 -170 -95t-132 -30q-56 0 -106.5 27t-95.5 81zM600 1442h213l-303 -350h-131z" />
    <glyph glyph-name="Thorn" unicode="&#xde;" horiz-adv-x="1096" 
d="M63 -10q27 235 59 606.5t66 845.5l272 8q-6 -66 -12.5 -130.5t-10.5 -123.5q18 2 41 3t65 1q230 0 353.5 -99.5t123.5 -285.5q0 -104 -42 -186t-124 -140q-21 -14 -59 -42q-169 -123 -297 -123q-39 0 -71 1t-67 3q-6 -53 -11 -127.5t-11 -200.5zM371 487q44 -10 90.5 -15
t97.5 -5q49 0 85.5 7.5t47.5 19.5q37 39 59.5 107.5t22.5 141.5q0 147 -82 227.5t-233 80.5q-6 0 -18.5 -1t-18.5 -1q-4 -39 -29 -312z" />
    <glyph glyph-name="thorn" unicode="&#xfe;" horiz-adv-x="1020" 
d="M2 -483l15 156q25 249 36 378q-20 13 -40 31t-38 39l93 92l45 558.5l51 670.5l258 8q-31 -287 -48 -468t-23 -291q151 150 247.5 220t155.5 70q80 0 140 -105t60 -260q0 -147 -54.5 -276t-143.5 -197q-108 -81 -212.5 -131.5t-156.5 -50.5q-18 0 -41 2.5t-53 7.5
q-10 -99 -18 -208t-15 -236zM305 154q33 -18 73.5 -26.5t88.5 -8.5q47 0 84 7t70 21q46 86 71 179.5t25 183.5q0 118 -39.5 199.5t-85.5 81.5q-33 0 -103.5 -70.5t-115.5 -163.5q-49 -102 -67 -384q0 -12 -1 -19z" />
    <glyph glyph-name="minus" unicode="&#x2212;" horiz-adv-x="1706" 
d="M254 696h1198v-170h-1198v170z" />
    <glyph glyph-name="multiply" unicode="&#xd7;" horiz-adv-x="1706" 
d="M403 1188l459 -459l461 459l117 -117l-459 -461l459 -458l-117 -119l-461 461l-459 -461l-116 119l458 458l-458 461z" />
    <glyph glyph-name="onesuperior" unicode="&#xb9;" horiz-adv-x="739" 
d="M240 571q13 101 31.5 293t52.5 574l176 26q-25 -171 -47 -396t-41 -490z" />
    <glyph glyph-name="twosuperior" unicode="&#xb2;" horiz-adv-x="737" 
d="M16 578l41 124l119 39q7 3 17 6q78 27 98 41q81 63 125.5 145t44.5 167q0 105 -68.5 172t-175.5 67q-28 0 -56 -6.5t-57 -19.5l-18 22l123 113q29 8 58 12t57 4q129 0 209.5 -79.5t80.5 -206.5q0 -142 -89 -261.5t-257 -201.5h160q71 0 103.5 1.5t57.5 4.5l-42 -143h-531
z" />
    <glyph glyph-name="threesuperior" unicode="&#xb3;" horiz-adv-x="737" 
d="M68 676l133 98q41 -54 89.5 -81t102.5 -27h10q18 22 26.5 49t8.5 55q0 91 -62.5 144t-170.5 53q-17 0 -27 -1t-20 -3l-8 12l114 104q9 0 24.5 1t22.5 1q22 0 41 -2t35 -6q26 27 39.5 60t13.5 67q0 74 -43 111t-129 37q-17 0 -42 -4.5t-58 -12.5l-12 19l127 104
q18 5 39 7.5t49 2.5q108 0 170.5 -51t62.5 -139q0 -83 -39.5 -135.5t-124.5 -81.5q83 -31 125.5 -90.5t42.5 -143.5q0 -62 -28.5 -106t-92.5 -82q-63 -39 -114.5 -59.5t-83.5 -20.5q-61 0 -118 31t-103 90z" />
    <glyph glyph-name="onequarter" unicode="&#xbc;" horiz-adv-x="1751" 
d="M1466 711l-272 -365h233zM1389 -6l17.5 152.5l12.5 115.5h-344l-12 14l108 142q203 264 289 385l168 24q-13 -89 -21 -152.5t-14 -115.5l-20 -213h129l-39 -86l-98 2q-6 -44 -10.5 -105t-10.5 -157zM362 -39l930 1518h94l-929 -1518h-95zM229 629q15 118 35 325.5
t43 483.5l170 24q-22 -156 -43 -364.5t-41 -462.5z" />
    <glyph glyph-name="onehalf" unicode="&#xbd;" horiz-adv-x="1751" 
d="M1063 0l39 117l112 37q54 17 75.5 25.5t33.5 17.5q77 57 120.5 134t43.5 156q0 99 -65.5 161.5t-168.5 62.5q-26 0 -52 -6.5t-54 -18.5l-19 21l117 106q26 7 53.5 10.5t57.5 3.5q123 0 200.5 -74t77.5 -192q0 -133 -85 -244t-246 -190h151q42 0 81 1.5t74 4.5l-40 -133
h-506zM362 -39l930 1518h94l-929 -1518h-95zM229 629q15 118 35 325.5t43 483.5l170 24q-22 -156 -43 -364.5t-41 -462.5z" />
    <glyph glyph-name="threequarters" unicode="&#xbe;" horiz-adv-x="1751" 
d="M1466 711l-272 -365h233zM1389 -6l17.5 152.5l12.5 115.5h-344l-12 14l108 142q203 264 289 385l168 24q-13 -89 -21 -152.5t-14 -115.5l-20 -213h129l-39 -86l-98 2q-6 -44 -10.5 -105t-10.5 -157zM362 -39l930 1518h94l-929 -1518h-95zM66 727l124 92q40 -50 87 -76
t98 -26h10q16 22 24.5 47t8.5 51q0 85 -60 134.5t-161 49.5q-10 0 -32 -2q-10 -1 -15 -2l-9 11l111 96q2 0 6 1q27 3 39 3t27.5 -1.5t46.5 -6.5q23 23 36 53.5t13 62.5q0 71 -40.5 105.5t-123.5 34.5q-16 0 -38.5 -4t-57.5 -13l-13 19l123 98q18 4 39 6t45 2
q103 0 163.5 -47.5t60.5 -128.5q0 -78 -38.5 -127.5t-119.5 -77.5q79 -29 120.5 -84t41.5 -133q0 -57 -27 -97.5t-90 -78.5q-64 -37 -112 -56.5t-77 -19.5q-58 0 -112.5 30t-97.5 85z" />
    <glyph glyph-name="franc" unicode="&#x20a3;" horiz-adv-x="1665" 
d="M63 -10q27 235 59 606.5t66 845.5q60 0 193 1q364 3 582 7l-95 -170q-72 2 -158 3t-261 1q-15 -105 -27 -222t-21 -245l496 6l-90 -166h-420q-17 -198 -29 -362t-20 -295zM983 -10q17 152 37 383.5t45 570.5l254 8q-10 -73 -18 -148t-19 -196l37 79q138 294 198 294
q27 0 72 -22.5t98 -63.5l-141 -268q-34 25 -69 40t-60 15q-55 0 -114.5 -200t-65.5 -482z" />
    <glyph glyph-name="Gbreve" unicode="&#x11e;" horiz-adv-x="1337" 
d="M705 643l184 170h366q-18 -166 -31 -320.5t-22 -299.5q-200 -133 -316.5 -182.5t-213.5 -49.5q-293 0 -454 167t-161 472q0 228 80 408.5t228 287.5q124 92 261 137.5t287 45.5q137 0 248.5 -50.5t184.5 -144.5l-195 -182q-86 99 -196.5 148.5t-245.5 49.5
q-98 0 -181.5 -23.5t-111.5 -55.5q-10 -12 -25.5 -46t-34.5 -85q-35 -97 -53 -189t-18 -176q0 -238 137.5 -387.5t355.5 -149.5q46 0 88 8t80 23q12 120 21.5 226t15.5 198h-278zM476 1909h112v-6q0 -73 35 -105t115 -32q83 0 137.5 35t85.5 108h119q-42 -146 -132.5 -218.5
t-234.5 -72.5q-119 0 -179.5 62.5t-60.5 185.5q0 18 0.5 26.5t2.5 16.5z" />
    <glyph glyph-name="gbreve" unicode="&#x11f;" horiz-adv-x="981" 
d="M631 766q-43 28 -89.5 41.5t-97.5 13.5q-34 0 -59.5 -7.5t-36.5 -21.5q-38 -52 -61 -151.5t-23 -220.5q0 -114 31.5 -182t81.5 -68q26 0 94 84.5t115 194.5q15 36 24.5 98t20.5 219zM20 -375l195 187q63 -65 119 -95t112 -30h21q48 67 78.5 207t46.5 372
q-156 -165 -243.5 -235t-133.5 -70q-72 0 -131 109.5t-59 261.5q0 132 47 261t114 193q11 12 66.5 46t130.5 75q67 37 123.5 56.5t97.5 19.5q109 0 195 -42t143 -124l-63 -33q-12 -124 -30 -338q-41 -505 -93 -608q-21 -40 -71.5 -86.5t-147.5 -111.5q-91 -62 -168 -92.5
t-140 -30.5q-58 0 -110 27t-99 81zM298 1411h112v-6q0 -73 35 -105t115 -32q83 0 137.5 35t85.5 108h119q-42 -146 -132.5 -218.5t-234.5 -72.5q-119 0 -179.5 62.5t-60.5 185.5q0 18 0.5 26.5t2.5 16.5z" />
    <glyph glyph-name="Idotaccent" unicode="&#x130;" horiz-adv-x="559" 
d="M72 -10q29 256 61.5 630.5t65.5 821.5l288 8q-38 -350 -69 -709t-56 -741zM369 1913q34 -47 69.5 -89.5t73.5 -82.5q-49 -37 -92 -73.5t-80 -71.5q-34 46 -69.5 88.5t-73.5 83.5q44 31 87 67.5t85 77.5z" />
    <glyph glyph-name="Scedilla" unicode="&#x15e;" horiz-adv-x="985" 
d="M63 195l246 143q56 -96 122 -144t147 -52q32 33 48.5 78.5t16.5 101.5q0 91 -42 154t-187 151h-1q-261 160 -261 350q0 94 28 170t76 115q152 120 241 168.5t156 48.5t149.5 -53t145.5 -140l-217 -143q-67 70 -133.5 105.5t-130.5 35.5q-8 0 -17 -1l-26 -3
q-26 -31 -39.5 -74.5t-13.5 -95.5q0 -78 44.5 -138t190.5 -149q160 -96 218.5 -173t58.5 -177q0 -84 -40 -168.5t-114 -154.5q-88 -85 -186.5 -137t-161.5 -52q-82 0 -161.5 58.5t-156.5 175.5zM410 0h90l-33 -94h9q111 0 169 -43.5t58 -126.5q0 -102 -66 -158.5t-184 -56.5
q-53 0 -122.5 12.5t-172.5 40.5l43 111q67 -23 124 -35t99 -12q55 0 87 24t32 66q0 41 -35.5 58t-126.5 17h-39z" />
    <glyph glyph-name="scedilla" unicode="&#x15f;" horiz-adv-x="786" 
d="M6 76l187 184q63 -62 122.5 -91.5t120.5 -29.5q26 0 46 5t36 16v14q0 90 -187 174l-17 8l-9 4q-250 111 -250 224q0 60 33 129t96 141q58 65 121 96t137 31t145.5 -27.5t135.5 -81.5l-186 -180q-66 50 -129 75.5t-123 25.5q-19 0 -35.5 -3.5t-30.5 -9.5q0 -3 -1 -8t-1 -8
q0 -44 35 -78t147 -86l53 -25q232 -110 232 -227q0 -60 -35 -131.5t-98 -138.5q-53 -56 -119 -86.5t-135 -30.5q-76 0 -147 28t-144 87zM309 0h90l-33 -94h9q111 0 169 -43.5t58 -126.5q0 -102 -66 -158.5t-184 -56.5q-53 0 -122.5 12.5t-172.5 40.5l43 111q67 -23 124 -35
t99 -12q55 0 87 24t32 66q0 41 -35.5 58t-126.5 17h-39z" />
    <glyph glyph-name="Cacute" unicode="&#x106;" horiz-adv-x="1241" 
d="M1147 360l39 -41q-177 -179 -324 -268.5t-266 -89.5q-242 0 -387.5 176.5t-145.5 472.5q0 189 58.5 348.5t173.5 286.5q131 116 263.5 175t260.5 59q139 0 242 -48t174 -145l-201 -188q-84 82 -178 123t-201 41q-71 0 -132.5 -15.5t-84.5 -36.5q-10 -8 -26.5 -39.5
t-34.5 -76.5q-37 -96 -55.5 -192t-18.5 -189q0 -243 119 -375.5t336 -132.5q108 0 202 37.5t187 117.5zM891 1940h213l-303 -350h-131z" />
    <glyph glyph-name="cacute" unicode="&#x107;" horiz-adv-x="883" 
d="M766 264l31 -26l-185 -215q-62 -31 -124 -46.5t-121 -15.5q-161 0 -257 106t-96 285q0 98 23 193t67 180q114 135 220 195.5t225 60.5q118 0 197.5 -58.5t101.5 -160.5l-221 -133q-38 91 -104 141.5t-148 50.5q-16 0 -33 -2t-35 -6q-31 -61 -47 -141.5t-16 -175.5
q0 -165 74 -253.5t210 -88.5q66 0 125 27t113 83zM580 1442h213l-303 -350h-131z" />
    <glyph glyph-name="Ccaron" unicode="&#x10c;" horiz-adv-x="1241" 
d="M1147 360l39 -41q-177 -179 -324 -268.5t-266 -89.5q-242 0 -387.5 176.5t-145.5 472.5q0 189 58.5 348.5t173.5 286.5q131 116 263.5 175t260.5 59q139 0 242 -48t174 -145l-201 -188q-84 82 -178 123t-201 41q-71 0 -132.5 -15.5t-84.5 -36.5q-10 -8 -26.5 -39.5
t-34.5 -76.5q-37 -96 -55.5 -192t-18.5 -189q0 -243 119 -375.5t336 -132.5q108 0 202 37.5t187 117.5zM760 1590l-189 313l162 33l113 -205l166 205l161 -33l-264 -313h-149z" />
    <glyph glyph-name="ccaron" unicode="&#x10d;" horiz-adv-x="883" 
d="M766 264l31 -26l-185 -215q-62 -31 -124 -46.5t-121 -15.5q-161 0 -257 106t-96 285q0 98 23 193t67 180q114 135 220 195.5t225 60.5q118 0 197.5 -58.5t101.5 -160.5l-221 -133q-38 91 -104 141.5t-148 50.5q-16 0 -33 -2t-35 -6q-31 -61 -47 -141.5t-16 -175.5
q0 -165 74 -253.5t210 -88.5q66 0 125 27t113 83zM449 1092l-189 313l162 33l113 -205l166 205l161 -33l-264 -313h-149z" />
    <glyph glyph-name="dcroat" unicode="&#x111;" horiz-adv-x="1006" 
d="M677 787q-51 26 -104.5 39.5t-107.5 13.5q-31 0 -52 -3.5t-40 -11.5q-50 -63 -79.5 -172.5t-29.5 -236.5q0 -123 40.5 -197t103.5 -74q35 0 97.5 76.5t108.5 186.5q35 79 59 324q3 36 4 55zM598 -10q2 20 7 64q14 117 20 179q-108 -118 -217 -195t-156 -77
q-95 0 -167.5 102.5t-72.5 249.5q0 150 58.5 298.5t130.5 207.5q14 12 51.5 31.5t140.5 67.5q68 31 122 47t93 16q20 0 40 -3t40 -9l17 170h-203l10 94h196q2 18 5 55q9 107 12 153l260 9l-24 -217h153l-8 -94h-152q-35 -366 -58 -644t-36 -495z" />
    <glyph glyph-name="sfthyphen" unicode="&#xad;" horiz-adv-x="526" 
d="M14 379l86 194h369l-86 -194h-369z" />
    <glyph glyph-name="periodcentered" unicode="&#x2219;" horiz-adv-x="559" 
d="M166 735q0 47 33.5 80t81.5 33q47 0 79.5 -32.5t32.5 -80.5q0 -47 -33 -80.5t-79 -33.5t-80.5 34.5t-34.5 79.5z" />
    <glyph glyph-name="Euro" horiz-adv-x="1118" 
d="M1110 1325l-201 -188q-55 60 -117 92.5t-120 32.5q-38 0 -92.5 -18t-61.5 -34l-3 -6q-35 -75 -48 -117q-12 -33 -22.5 -78t-18.5 -96h461l-33 -96h-440q-3 -29 -4.5 -55.5t-1.5 -50.5q0 -18 0.5 -36.5t3.5 -49.5h376l-32 -97h-332q29 -153 108 -237t193 -84
q75 0 151.5 35t137.5 98l30 -39q-143 -182 -247.5 -261t-200.5 -79q-180 0 -288 150t-122 417h-161l32 97h127q2 53 7 101t14 91h-156l33 96h145q28 98 68 181t90 145q91 113 203.5 177.5t214.5 64.5q84 0 164 -40.5t143 -115.5z" />
    <glyph glyph-name="Euro" unicode="&#x20ac;" horiz-adv-x="1118" 
d="M1110 1325l-201 -188q-55 60 -117 92.5t-120 32.5q-38 0 -92.5 -18t-61.5 -34l-3 -6q-35 -75 -48 -117q-12 -33 -22.5 -78t-18.5 -96h461l-33 -96h-440q-3 -29 -4.5 -55.5t-1.5 -50.5q0 -18 0.5 -36.5t3.5 -49.5h376l-32 -97h-332q29 -153 108 -237t193 -84
q75 0 151.5 35t137.5 98l30 -39q-143 -182 -247.5 -261t-200.5 -79q-180 0 -288 150t-122 417h-161l32 97h127q2 53 7 101t14 91h-156l33 96h145q28 98 68 181t90 145q91 113 203.5 177.5t214.5 64.5q84 0 164 -40.5t143 -115.5z" />
    </font>
</defs>
</svg>
