<?xml version="1.0" standalone="no"?>
<!DOCTYPE svg PUBLIC "-//W3C//DTD SVG 1.1//EN" "http://www.w3.org/Graphics/SVG/1.1/DTD/svg11.dtd" >
<svg>
<metadata>
Created by FontForge 20090622 at Wed May 20 09:05:50 2015
 By deploy user
&#194;&#169; 1997, 1998, 1999, 2004 Adobe Systems Incorporated. All Rights Reserved.
</metadata>
<defs>
<font id="BickhamScriptPro-Bold" horiz-adv-x="202" >
  <font-face 
    font-family="Bickham Script Pro Regular"
    font-weight="700"
    font-style="italic"
    font-stretch="normal"
    units-per-em="1000"
    panose-1="3 3 8 2 4 7 7 13 13 6"
    ascent="680"
    descent="-320"
    x-height="174"
    cap-height="432"
    bbox="-2215.39 -1073 3508.32 1275"
    underline-thickness="30"
    underline-position="-90"
    slope="-39"
    unicode-range="U+0020-U+FB06"
  />
<missing-glyph horiz-adv-x="500" 
d="M0 0v700h500v-700h-500zM250 395l170 255h-340zM280 350l170 -255v510zM80 50h340l-170 255zM50 605v-510l170 255z" />
    <glyph glyph-name="O_n" unicode="On" horiz-adv-x="885" 
d="M399 143q80 101 86 157q5 41 -35 46q-70 8 -147 -88q-18 -23 -29 -47t-12.5 -44.5t9.5 -36t35 -20.5q31 -7 72 9q7 7 21 24zM803 83q-25 -32 -30 -40q-11 -17 -2 -23q8 -5 25 5q23 12 41 27q18 14 50 43q9 7 12 4t-3 -9q-39 -36 -66 -56q-56 -41 -98 -42
q-32 -1 -42.5 11.5t-7.5 29.5q3 19 34 57l40 49q8 10 -2 13q-9 3 -31 -8q-32 -17 -72 -46q-48 -34 -115 -89q-12 -10 -50 -13q-23 -1 -29 2t-1 14q10 21 46 67l43 55q8 12 4 16q-9 9 -55 -8q-11 -4 -29.5 -12t-24.5 -10q-52 -59 -133 -98t-146 -37q-46 1 -85 20t-51 63
q-13 60 19.5 121.5t74.5 98.5q76 71 174.5 105.5t180.5 24.5q44 -6 66.5 -27t24.5 -52q2 -35 -18 -58q-11 -11 -14 -8q0 1 0.5 2t3 3.5t4.5 6.5q15 19 13 53q-2 26 -23 46.5t-57 20.5q-70 1 -145 -44t-129 -101q-45 -46 -75 -107.5t-18 -108.5q10 -49 67 -50q88 -3 195 114
q-37 -11 -66 -6q-54 10 -58 64t40 108q32 39 79.5 62t87.5 19q29 -3 45 -24.5t12 -58.5q-6 -73 -59 -139q27 13 49 21q58 22 93 22q41 0 41 -27q0 -15 -22 -44q-13 -18 -46 -57l2 -2q20 18 95 73q81 57 134 57q22 0 33 -8.5t10 -23.5q-2 -19 -36 -61z" />
    <glyph glyph-name="O_r" unicode="Or" horiz-adv-x="712" 
d="M367 108q113 142 118 192q5 41 -35 46q-33 4 -77 -27t-82 -79q-26 -33 -43 -70t-16 -70.5t28 -42.5q25 -9 64 3q15 14 43 48zM664 52q20 16 49 42q9 10 13 6q3 -3 -8 -14q-23 -23 -60 -52q-53 -40 -94 -42q-60 -4 -60 33q0 29 44 66q63 51 65 57q1 4 -1 6t-8.5 2.5
t-13 0.5t-16.5 -1q-14 -1 -24 2q-12 -13 -61 -46q-58 -38 -111 -55q-111 -81 -217 -77q-113 2 -135 88q-13 60 19 121.5t74 98.5q76 71 174.5 105.5t180.5 24.5q44 -6 66.5 -27t24.5 -52q2 -35 -18 -58q-11 -11 -14 -8q0 1 0.5 2t3 3.5t4.5 6.5q15 19 13 53q-2 25 -26 46
t-61 21q-65 1 -136 -41.5t-131 -103.5q-44 -45 -73 -106t-20 -110q12 -54 67 -55q67 -2 141 60q-32 -8 -60 0q-52 15 -48 78t61 130q39 45 92 73.5t92 24.5q30 -3 47 -24.5t13 -58.5q-5 -64 -60 -137q-34 -43 -64 -66q45 18 98 52q42 27 56 41q-7 5 -7.5 15t8.5 20
q17 19 45 19q24 0 32 -10q-12 -8 -20 -18q-17 -21 3 -23q3 0 11.5 -0.5t13 -1t11.5 -1.5t11.5 -2.5l9 -3t7 -4.5t2.5 -7q0 -3 -0.5 -5l-1 -4t-2 -5t-3 -5l-5 -6.5t-6 -8t-8 -10.5l-9.5 -12q-23 -29 -34 -47q-10 -14 -3 -21q6 -6 22 2q20 10 45 29z" />
    <glyph glyph-name="d_d" unicode="dd" horiz-adv-x="721" 
d="M209 164h-1q-26 0 -94 -66q-57 -57 -55 -79q1 -10 13 -10q14 0 38.5 14t45.5 33q25 23 47.5 51t23.5 39q1 18 -18 18zM571 164h-1q-26 0 -94 -66q-57 -57 -55 -79q1 -10 13 -10q14 0 38.5 14t45.5 33q25 23 47.5 51t23.5 39q1 18 -18 18zM566 -11q-39 0 -45 26
q-4 17 9 35l-1 1q-67 -62 -128 -62q-60 0 -60 39q0 25 28 58l-1 2q-1 -1 -4 -3.5t-5 -4.5q-30 -27 -55 -47q-57 -44 -100 -44q-39 0 -45 26q-4 17 9 35l-1 1q-67 -62 -128 -62h-1h1q-60 0 -60 39q0 26 32 60l-1 1q-7 -6 -9 -8q-13 -11 -16 -8q-2 4 7 13q15 15 39 31
q31 21 71 38q50 21 97 21q23 0 31.5 -11t4.5 -25l1 -1q43 60 97 121q77 87 131 117q28 16 59 16q30 0 38 -11q-23 -5 -54.5 -32t-91.5 -94q-29 -32 -85 -101q-65 -79 -86 -115q-7 -13 0 -18q7 -6 25 2q15 6 42 28q40 32 43 35q16 14 37 28q30 22 73 40q50 21 97 21
q23 0 31.5 -11t4.5 -25l1 -1q48 67 132 162q79 89 131 118q28 16 59 16q30 0 38 -11q-45 -10 -147 -126q-20 -23 -118 -143q-71 -88 -87 -115q-7 -13 0 -18q7 -6 25 2q15 6 42 28t49 42q10 10 13 6q3 -3 -7 -13q-24 -24 -62 -54q-57 -44 -100 -44z" />
    <glyph glyph-name="f_b" unicode="fb" horiz-adv-x="583" 
d="M-194 -385q9 -3 25 10q20 16 62.5 72t76.5 110q92 145 136 271h-1q-131 -171 -202 -279q-80 -121 -97 -159q-8 -20 0 -25zM137 118q46 34 167 67q32 40 97 112q75 82 190 160q-22 28 -66 28q-64 0 -147 -80q-38 -37 -110.5 -123.5t-130.5 -163.5zM401 196q151 46 181 56
q114 38 189 83q95 56 96 113q1 32 -20 49.5t-60 15.5t-85 -25t-83 -53q7 -19 2 -46q-3 -18 -7 -18v1v1.5t0.5 3t0.5 4.5v6q0 26 -7 40q-38 -33 -76 -75q-65 -72 -131 -156zM338 6q25 3 48 17q27 17 46 42q-5 -3 -16.5 -6.5t-26 -7t-19.5 -5.5q-29 -9 -40.5 -15.5
t-10.5 -15.5q1 -11 19 -9zM55 128l-1 1q-40 -36 -43 -39q-14 -12 -17 -9q-3 4 6 12l80 68q108 144 189 214q137 119 255 119q58 0 79 -30q96 54 183 58q45 2 68.5 -18t22.5 -56q-1 -67 -97 -124q-58 -35 -192 -80l-114.5 -35t-81.5 -25q-33 -42 -77 -105l2 -1q65 53 84 64
q52 34 102 34q29 0 42 -11.5t11 -29.5q-5 -49 -62 -94q-29 -22 -70 -35.5t-76 -13.5h-1q-49 0 -49 23q0 13 14 21t48 17q79 23 80 23q24 30 31 50q11 30 -9 30q-29 0 -87 -45q-64 -49 -112 -101q-11 -11 -44 -13q-39 -2 -40 7q0 3 3 8q7 12 23 36.5l21 32.5q17 27 69 92
q-127 -39 -174 -76q-13 -48 -23 -77.5t-39.5 -92t-72.5 -130.5q-29 -45 -80 -106.5t-79 -81.5q-28 -21 -59 -13q-31 7 -30 39q1 33 40.5 107t102.5 159q74 103 174 227z" />
    <glyph glyph-name="f_f_r" unicode="ffr" horiz-adv-x="708" 
d="M391 165q36 0 84 2q14 1 31.5 2.5t23.5 1.5q25 0 20 -23q-3 -17 -21 -42q-8 -11 -20 -26l-16 -20l2 -2q35 34 67 62q67 57 105 58q24 1 36.5 -9t9.5 -29q-3 -17 -25 -33.5t-43.5 -21.5t-33.5 2q-3 3 -3.5 6.5t2.5 8.5t7 9.5t10.5 12.5t11.5 15q6 9 -1 13t-23 -6
q-25 -14 -63 -48q-40 -34 -100 -93q-7 -7 -46 -9q-25 -1 -30 2t0 14q8 19 43 67l39 52q9 12 5 20q-3 5 -24 5q-42 0 -56 -1l-72 -90l-40 -106t-39.5 -88.5t-59.5 -110.5q-25 -41 -60.5 -83t-66.5 -65q-30 -23 -63 -16q-34 7 -30 45q4 35 45.5 109t97.5 151l106 141l89 112
q-17 0 -53 -0.5t-49 -1.5l-64 -83q-11 -14 -118 -161q-50 -69 -100 -153q-50 -83 -72 -140l-4.5 -14t-4 -10t-4.5 -2q-10 -1 -16 16t-5 36q6 96 109 259q29 45 99 137q6 22 8 49t6 38q8 20 24.5 29t56.5 12q101 131 189 217q55 53 118.5 82.5t111.5 29.5q62 0 84 -22
q55 34 122.5 58.5t116.5 24.5q66 0 92 -31t19 -78q-1 -6 -2.5 -11t-3.5 -7.5t-3 -2.5q-1 2 -0.5 3t2 7t1.5 11q2 34 -31.5 60.5t-87.5 26.5q-63 0 -108.5 -20t-96.5 -70q7 -20 1 -46q-3 -17 -8 -17v2.5t0.5 3t0.5 4.5v6q0 19 -7 35l-23 -23q-50 -54 -177 -216zM21 56l72 96
q-48 -3 -60 -32q-4 -10 -6 -30t-6 -34zM21 -384q8 -4 25 9q38 29 109 144t141 276q-100 -128 -179 -246q-79 -120 -96 -159q-9 -21 0 -24zM197 163q13 1 49 1.5t53 0.5l27 33q114 142 234 239q12 10 31 24q-23 23 -56 23q-34 0 -63 -18t-74 -61q-55 -53 -201 -242z" />
    <glyph glyph-name="f_h" unicode="fh" horiz-adv-x="603" 
d="M-194 -385q9 -3 25 10q20 16 62.5 72t76.5 110q92 145 136 271h-1q-131 -171 -202 -279q-80 -121 -97 -159q-8 -20 0 -25zM137 118q46 34 167 67q32 40 97 112q75 82 190 160q-22 28 -66 28q-64 0 -147 -80q-38 -37 -110.5 -123.5t-130.5 -163.5zM401 196q151 46 181 56
q114 38 189 83q95 56 96 113q1 32 -20 49.5t-60 15.5t-85 -25t-83 -53q7 -19 2 -46q-3 -18 -7 -18v1v1.5t0.5 3t0.5 4.5v6q0 26 -7 40q-38 -33 -76 -75q-65 -72 -131 -156zM83 165q105 140 186 210q137 119 255 119q58 0 79 -30q96 54 183 58q45 2 68.5 -18t22.5 -56
q-1 -67 -97 -124q-62 -38 -189 -80l-115 -35l-84 -25q-45 -57 -99 -136l2 -2q30 27 87 71q78 59 132 59q22 0 33 -8.5t10 -23.5q-2 -19 -36 -61q-25 -32 -30 -40q-11 -17 -2 -23q8 -5 25 5q20 11 41 27q18 14 50 43q9 7 12 4t-3 -9q-39 -36 -66 -56q-56 -41 -98 -42
q-32 -1 -42.5 11.5t-7.5 29.5q3 19 34 57l21 26l19 23q8 10 -2 13q-9 3 -31 -8q-26 -14 -69 -48l-111 -91q-10 -9 -47 -9q-15 -1 -26 3t-7 13q10 23 42 67q35 48 72 94q-127 -39 -174 -76q-42 -153 -135 -300q-29 -45 -80 -106.5t-79 -81.5q-28 -21 -59 -13q-31 7 -30 39
q1 33 40.5 107t102.5 159q74 103 174 227l-1 1l-23.5 -20.5t-19.5 -18.5q-14 -12 -17 -9q-3 4 6 12z" />
    <glyph glyph-name="f_j" unicode="fj" horiz-adv-x="379" 
d="M-629 -494q-129 -4 -192.5 44.5t-63.5 127.5q0 72 61 123l8 6t7.5 4t3.5 0q1 -2 -4 -5q-7 -6 -12 -12q-39 -46 -39 -113q0 -74 58 -122t173 -44q145 5 280 112q-18 28 -6 68q0 -36 17 -60q94 76 246 272l100 130q6 22 8 49t6 38q8 20 24.5 29t56.5 12l68 86
q81 100 183 185q63 50 138 80t137 32q72 1 111 -26.5t39 -69.5q0 -40 -41 -72q-12 -9 -14 -7q-1 1 8 10q23 25 23 63q0 41 -31 68t-95 25q-94 -3 -211 -114q-61 -59 -149 -169l-71 -91q76 2 92 2q71 0 92 3q10 1 12.5 -5t-5.5 -11q-27 -17 -63 -66q-6 -8 -23.5 -33.5
l-47.5 -68.5l-60 -84q-88 -122 -178 -212q-59 -59 -127.5 -87.5t-129.5 -28.5q-55 0 -86 25q-142 -88 -303 -93zM-240 -417h1q79 0 180 111q71 78 226 297q81 115 103 139q17 18 32 25v1q-81 0 -113 -2l-65 -85l-124 -164q-149 -196 -313 -298q12 -11 34 -17.5t39 -6.5z
M21 55l72 97q-48 -3 -60 -32q-4 -10 -6 -30.5t-6 -34.5zM379 234q-13 22 -1 49t56 27q17 0 21.5 -10t-7.5 -26q-13 -16 -35 -28t-34 -12z" />
    <glyph glyph-name="r_s" unicode="rs" horiz-adv-x="623" 
d="M391 2h1q33 0 64 50q12 19 27.5 60.5t19.5 47.5l-1 1q-13 -13 -47 -35q-37 -23 -62 -35q4 -6 4 -11q0 -13 -15 -25q-17 -15 -17 -31q1 -22 26 -22zM498 5q-47 -14 -102 -14q-38 0 -59.5 17.5t-21.5 41.5q0 18 9 28q-36 -5 -58 5q-32 14 -32 47q-17 -8 -45 -31
q-79 -66 -103 -89q-13 -12 -49 -14q-12 -1 -19 -0.5t-10.5 2.5t-3.5 5.5t3 8.5q11 21 45 67l43 55q7 10 2 14q-4 2 -15 -4q-13 -7 -36 -25q-30 -24 -45 -38q-13 -12 -17 -8q-2 3 7 12q26 24 52 44q60 47 99 47q41 0 41 -27v-1q0 -15 -22 -44l-35 -43l2 -2q16 16 70 61
q29 23 52 37q19 12 30 14q22 5 39 2q11 -2 14 -8t-5 -11q-36 -20 -40 -38q-4 -21 12 -28q11 -5 31 -1q15 14 33 15q14 0 22 -5q30 15 61 35q40 27 63 47q7 14 16 24q12 13 29 13q18 0 20.5 -8t-16.5 -22q-3 -2 -11.5 -7t-12.5 -8q-11 -11 2 -30q26 -40 9 -82q-9 -22 -27 -37
q18 6 41 21q27 17 65 52q10 8 13 5t-4 -10q-37 -34 -62 -51q-29 -20 -74 -34z" />
    <glyph glyph-name="r_s_t" unicode="rst" horiz-adv-x="730" 
d="M518 -15h-1q-7 0 -7 4q1 5 8 19q9 16 68 109q2 32 4 37q7 17 37 17q39 55 114 130q-23 -9 -62 -9t-100 13t-80 14q-85 3 -95 -58q-7 -43 25 -65q7 -5 6 -8q-1 -2 -10 2q-57 29 -53 72q4 35 36.5 55t90.5 17q28 -1 91.5 -17t91.5 -16q43 0 69 11l8 8q40 38 68 49
q14 5 33 4.5t24 -5.5q-18 -40 -69 -73q-71 -81 -107 -127q46 2 88 2q8 0 11.5 -1.5t2.5 -4.5q-2 -5 -18 -5q-46 0 -92 -2l-14 -19l-24 -34t-20 -28q-18 -45 -71 -75q-28 -16 -53 -16zM161 105q-11 -15 -35 -44l2 -2q16 16 70 61q22 18 49 35q9 20 32 23q38 5 50 -7
q8 -8 -9 -20q-18 -13 -19 -24q-1 -14 12 -21.5t33 -5.5q33 4 64 25q21 14 47 40q6 12 13 19q13 13 31 14q11 0 17.5 -3.5t5.5 -9t-7 -9.5q-3 -2 -16.5 -9.5t-16.5 -10.5t-3.5 -6.5t0.5 -5.5l3.5 -7l3.5 -7q18 -40 -1 -74q-19 -35 -75 -57q-43 -16 -98 -16q-38 0 -52.5 14.5
t-12.5 33.5q2 21 18 35t37 14q13 0 21 -7.5t8 -17.5q0 -21 -22 -31q-5 -2 -10.5 -5t-8.5 -4t-5.5 -3t-3.5 -3.5t-1 -3.5q0 -11 21 -11q40 0 92 67q9 13 27.5 42.5t26.5 39.5l-2 1q-14 -14 -35 -28q-33 -22 -72 -26q-65 -6 -85 18q-12 13 -10 31q-20 -10 -56 -40
q-79 -66 -103 -89q-13 -12 -49 -14q-12 -1 -19 -0.5t-10.5 2.5t-3.5 5.5t3 8.5q11 21 45 67l43 55q7 10 2 14q-4 3 -15 -4q-13 -7 -36 -25q-30 -24 -45 -38q-13 -12 -17 -8q-2 3 7 12q26 24 52 44q60 47 99 47q41 0 41 -27q0 -15 -22 -44z" />
    <glyph glyph-name="r_scaron" unicode="r&#x161;" horiz-adv-x="623" 
d="M391 2h1q33 0 64 50q12 19 27.5 60.5t19.5 47.5l-1 1q-13 -13 -47 -35q-37 -23 -62 -35q4 -6 4 -11q0 -13 -15 -25q-17 -15 -17 -31q1 -22 26 -22zM498 5q-47 -14 -102 -14q-38 0 -59.5 17.5t-21.5 41.5q0 18 9 28q-36 -5 -58 5q-32 14 -32 47q-17 -8 -45 -31
q-79 -66 -103 -89q-13 -12 -49 -14q-12 -1 -19 -0.5t-10.5 2.5t-3.5 5.5t3 8.5q11 21 45 67l43 55q7 10 2 14q-4 2 -15 -4q-13 -7 -36 -25q-30 -24 -45 -38q-13 -12 -17 -8q-2 3 7 12q26 24 52 44q60 47 99 47q41 0 41 -27v-1q0 -15 -22 -44l-35 -43l2 -2q16 16 70 61
q29 23 52 37q19 12 30 14q22 5 39 2q11 -2 14 -8t-5 -11q-36 -20 -40 -38q-4 -21 12 -28q11 -5 31 -1q15 14 33 15q14 0 22 -5q30 15 61 35q40 27 63 47q7 14 16 24q12 13 29 13q18 0 20.5 -8t-16.5 -22q-3 -2 -11.5 -7t-12.5 -8q-11 -11 2 -30q26 -40 9 -82q-9 -22 -27 -37
q18 6 41 21q27 17 65 52q10 8 13 5t-4 -10q-37 -34 -62 -51q-29 -20 -74 -34zM566 265q-5 2 -7 8q-16 44 -37 77q-4 6 -3 8q2 3 13 -1q34 -15 57 -35q43 21 103 39q15 5 16 0q1 -4 -8 -9q-73 -41 -122 -82q-6 -6 -12 -5z" />
    <glyph glyph-name="s_f_e" unicode="sfe" horiz-adv-x="725" 
d="M75 -385q9 -3 25 10q20 16 62.5 72t76.5 110q92 145 136 271h-1q-131 -171 -202 -279q-80 -121 -97 -159q-8 -20 0 -25zM159 21q19 7 44 23q29 17 66 49q25 23 77 65q1 1 5 7q-15 15 -10 31q5 17 21 12q5 -1 7 -20l119 151q-110 -9 -171 -22q-153 -32 -163 -86
q-3 -17 4 -27l5 -5q3 4 4 5q11 12 29 12t20.5 -8t-16.5 -22q-3 -2 -12 -7t-12 -8q-11 -11 2 -30q26 -40 9 -82q-9 -23 -28 -38zM587 353q102 25 183 76q45 29 70.5 61.5t27.5 58.5q2 13 -5.5 21.5t-22.5 8.5q-43 0 -115 -68q-41 -38 -138 -158zM470 82q-17 6 -30 16
q-17 14 -24 30l-25 -32q-42 -149 -136 -299q-29 -45 -80 -106.5t-79 -81.5q-28 -21 -59 -13q-31 7 -30 39q1 33 40.5 106.5t102.5 159.5q79 109 174 227l-1 1l-48 -42q-20 -20 -55 -44q-38 -26 -77 -38q-47 -14 -99 -14q-39 0 -64 18t-24 41q1 24 16 38t33 14q33 0 33 -22
q0 -13 -15 -25q-16 -13 -16 -30q1 -22 26 -22q34 0 64 49q12 19 27.5 60.5t19.5 47.5l-1 1q-12 -12 -44 -36q-33 -24 -48 -33q-10 -6 -12 -3q-2 4 7 10q16 10 45 32q32 24 60 48q6 13 9 16q-6 3 -10 7q-14 12 -14 35q0 74 137 93q31 4 72.5 7.5t86.5 6.5t63 5q55 72 106 119
q67 63 132 91.5t110 28.5q23 0 36 -13t11 -31q-5 -63 -114 -128q-68 -41 -196 -74l-141 -183q-7 -8 -16 -21q7 -20 24 -33q14 -11 29 -16q23 31 69 55q61 32 121 32q53 0 51 -31q-3 -34 -61 -57q-55 -21 -105 -23q-12 -18 -12 -34q0 -21 24 -21q49 0 105 38q31 21 57 45
q10 8 13 5t-11 -16q-31 -28 -59 -46q-65 -42 -131 -45q-85 -4 -85 44q0 22 18 47zM556 74q43 3 73 25q31 24 37 50q4 17 -11 17q-22 0 -60 -42q-21 -22 -39 -50z" />
    <glyph glyph-name="s_s" unicode="ss" horiz-adv-x="538" 
d="M307 3h1q33 0 63 49q12 19 27.5 60.5t19.5 47.5l-1 1q-17 -17 -49 -39q-24 -17 -57 -36l2 -6q1 -11 -16 -25q-16 -14 -16 -30q1 -22 26 -22zM487 39q-29 -20 -74 -34q-47 -14 -95 -14q-38 0 -62 16t-26 39q-6 -4 -24 -13q-35 -18 -67 -28q-47 -14 -95 -14h-1
q-39 0 -62 16.5t-23 42.5q0 23 15 37t32 15q32 0 34 -22q1 -12 -16 -26q-16 -14 -16 -29q1 -22 26 -22q34 0 64 49q11 17 34 67.5t33 65.5l-1 1q-36 -39 -63 -60q-26 -21 -49 -34q-10 -6 -12 -3q-2 4 7 10q18 11 45 32q18 14 47.5 42.5t32.5 30.5q7 14 16 24q12 13 29 13
q18 0 20.5 -8t-16.5 -22q-3 -2 -12 -7t-12 -8q-8 -8 2 -30q19 -46 -2 -95q-12 -29 -36 -49q26 9 43 19q6 3 15.5 9t12.5 7q3 20 17.5 32t30.5 13q19 0 27 -9l54 35q32 22 65 51q7 14 16 24q12 13 29 13q18 0 20.5 -8t-16.5 -22q-3 -2 -12 -7t-12 -8q-11 -11 2 -30
q26 -39 9 -82q-9 -22 -27 -37q18 6 41 21q27 17 65 52q10 8 13 5t-4 -10q-37 -34 -62 -51z" />
    <glyph glyph-name="w_h" unicode="wh" horiz-adv-x="903" 
d="M672 96l-111 -91q-6 -5 -47 -9q-23 -1 -29 2t-1 14q13 28 41 67q16 23 42 54q-10 -9 -21 -16q-41 -26 -68 -29q-19 -3 -31 3q-23 -27 -51 -47q-70 -54 -130 -54q-61 0 -61 32q0 17 13 36q9 14 31 40q17 20 24 34q7 16 -4 16q-7 0 -51 -29q-55 -38 -82 -63
q-23 -23 -49 -43q-30 -23 -60 -23h-1q-19 0 -20 13q-1 6 9 18q45 54 48 58q34 41 39 60q3 11 -2 14q-5 4 -19 -4q-16 -10 -33 -25q-21 -18 -37 -34q-16 -14 -19 -12q-4 4 8 15q18 18 42 39q50 44 93 44q29 0 41 -10.5t10 -29.5t-19 -43q54 43 92 62q44 21 74 20
q31 -2 28 -29q-3 -23 -28 -56q-26 -35 -34 -51q-10 -19 0 -26q9 -6 28 2q33 13 61 36q33 27 50 47q-20 18 -13 47q9 37 42 37q11 0 17 -7.5t4 -17.5q-3 -24 -33 -56q5 -3 23 -2q25 3 67 29q6 3 17.5 12.5t15.5 11.5q57 76 116 146q118 141 247 230q61 41 106 41
q15 0 23.5 -10t7.5 -26q-3 -43 -55.5 -99t-131.5 -113l-74 -51.5l-87 -60t-42 -30.5q-15 -18 -95 -131l2 -2q30 27 87 71q78 59 132 59h2q22 0 33 -8.5t10 -23.5q-2 -19 -36 -61q-25 -32 -30 -40q-11 -17 -2 -23q8 -5 25 5q20 11 41 27q18 14 50 43q9 7 12 4t-3 -9
q-39 -36 -66 -56q-56 -41 -98 -42q-32 -1 -42.5 11.5t-7.5 29.5q3 19 34 57l40 49q3 4 1.5 8t-5.5 5q-12 2 -31 -8q-26 -14 -69 -48zM697 196l171 136q76 64 127 121t55 86q3 19 -16 19q-26 0 -68 -40q-31 -30 -125 -143q-77 -91 -144 -179z" />
    <glyph glyph-name="y_g" unicode="yg" horiz-adv-x="699" 
d="M437 9h1q13 0 38 14t45 33q25 23 47.5 50.5t23.5 38.5q1 19 -18 19q-27 0 -95 -66q-57 -57 -55 -79q1 -10 13 -10zM116 -72l150 196l-2 1l-33 -30q-25 -22 -58 -47q-77 -58 -126 -58q-45 0 -45 32q0 16 17 41q19 27 45 55.5t41 35.5q-25 -9 -64 -39q-18 -14 -42 -36
q-10 -9 -13 -6q-4 3 6 13q41 37 72 57q46 29 89 29q38 0 38 -7q0 -4 -5 -9l-57 -68q-23 -29 -38 -55q-7 -13 -2 -17q6 -4 24 5q26 13 75 51q24 19 58 50.5t45 40.5q14 11 67 11q12 0 17.5 -0.5t8 -2.5t1.5 -4.5t-5 -8.5l-28 -36l-26 -33l-143 -186q-84 -108 -167 -182
t-145 -113q36 -45 117 -47q136 -3 266 121q59 56 200 256l74 108l-1 1q-66 -58 -123 -58q-60 0 -60 39q0 31 35 69q32 34 88 58q50 21 97 21q22 0 31.5 -11.5t5.5 -22.5l1 -1q21 22 31 26t39 4t29 -8q-1 -3 -4 -7q-33 -38 -53 -67l-134 -193q-52 -74 -112 -137t-107 -97
q-71 -52 -151.5 -81.5t-151.5 -28.5q-97 2 -133 45q-68 -40 -155 -64.5t-168 -26.5q-132 -4 -196.5 42.5t-64.5 128.5q0 70 67 124q8 6 12.5 8.5t5.5 1.5t-0.5 -2.5t-6 -5.5t-9.5 -9q-39 -46 -39 -113q0 -73 58 -121.5t173 -44.5q169 5 307 104q-8 12 -8.5 33t7.5 38
q-1 -35 15 -60q39 32 89 86.5t82.5 95z" />
    <glyph glyph-name="ydieresis_gcommaaccent" unicode="&#xff;&#x123;" horiz-adv-x="699" 
d="M584 220q-13 -2 -13 9q0 5 7 15q35 45 82 74q10 6 11 5q2 -3 -7 -11q-26 -30 -33 -46q-2 -4 0 -13t1 -13q-5 -14 -48 -20zM304 222q-4 4 -4.5 16t3.5 23q7 21 44 21q14 0 17.5 -8.5t-6.5 -20.5q-18 -22 -54 -31zM194 222q-4 4 -4.5 16t3.5 23q7 21 44 21q14 0 17.5 -8.5
t-6.5 -20.5q-18 -22 -54 -31zM437 9h1q13 0 38 14t45 33q25 23 47.5 50.5t23.5 38.5q1 19 -18 19q-27 0 -95 -66q-57 -57 -55 -79q1 -10 13 -10zM116 -72l150 196l-2 1l-33 -30q-25 -22 -58 -47q-77 -58 -126 -58q-45 0 -45 32q0 16 17 41q19 27 45 55.5t41 35.5
q-25 -9 -64 -39q-18 -14 -42 -36q-10 -9 -13 -6q-4 3 6 13q41 37 72 57q46 29 89 29q38 0 38 -7q0 -4 -5 -9l-57 -68q-23 -29 -38 -55q-7 -13 -2 -17q6 -4 24 5q26 13 75 51q24 19 58 50.5t45 40.5q14 11 67 11q12 0 17.5 -0.5t8 -2.5t1.5 -4.5t-5 -8.5l-28 -36l-26 -33
l-143 -186q-84 -108 -167 -182t-145 -113q36 -45 117 -47q136 -3 266 121q59 56 200 256l74 108l-1 1q-66 -58 -123 -58q-60 0 -60 39q0 31 35 69q32 34 88 58q50 21 97 21q22 0 31.5 -11.5t5.5 -22.5l1 -1q21 22 31 26t39 4t29 -8q-1 -3 -4 -7q-33 -38 -53 -67l-134 -193
q-52 -74 -112 -137t-107 -97q-71 -52 -151.5 -81.5t-151.5 -28.5q-97 2 -133 45q-68 -40 -155 -64.5t-168 -26.5q-132 -4 -196.5 42.5t-64.5 128.5q0 70 67 124q8 6 12.5 8.5t5.5 1.5t-0.5 -2.5t-6 -5.5t-9.5 -9q-39 -46 -39 -113q0 -73 58 -121.5t173 -44.5q169 5 307 104
q-8 12 -8.5 33t7.5 38q-1 -35 15 -60q39 32 89 86.5t82.5 95z" />
    <glyph glyph-name=".notdef" horiz-adv-x="500" 
d="M0 0v700h500v-700h-500zM250 395l170 255h-340zM280 350l170 -255v510zM80 50h340l-170 255zM50 605v-510l170 255z" />
    <glyph glyph-name=".null" horiz-adv-x="0" 
 />
    <glyph glyph-name="nonmarkingreturn" horiz-adv-x="333" 
 />
    <glyph glyph-name="space" unicode=" " horiz-adv-x="153" 
 />
    <glyph glyph-name="exclam" unicode="!" horiz-adv-x="277" 
d="M341 339q12 0 12 -5q-1 -7 -19 -30q-11 -14 -23.5 -27.5t-30 -29.5l-28.5 -26t-34.5 -29.5l-32 -27t-37.5 -30.5l-35 -28q-12 -10 -16 -6q-1 1 9 15q70 88 129 176q32 48 106 48zM72 64q17 0 21 -10.5t-7 -24.5q-12 -15 -33 -26t-33 -12q-12 19 -1 48q8 25 53 25z" />
    <glyph glyph-name="quotedbl" unicode="&#x22;" horiz-adv-x="243" 
d="M195 366q35 0 4 -28l-96 -81q-9 -7 -12 -6q-4 2 4 14q3 5 50 79q14 22 50 22zM308 366q35 0 4 -28l-96 -81q-9 -7 -12 -6q-4 2 4 14q3 5 50 79q14 22 50 22z" />
    <glyph glyph-name="numbersign" unicode="#" horiz-adv-x="392" 
d="M278 281q10 0 5 -9q-3 -7 -16 -23l-47 -57q48 -2 80 -4q35 48 57 73q15 18 23 23t25 5q12 0 12 -5q-1 -7 -19 -28l-59 -68q9 -1 31.5 -2t26.5 -1q18 0 18 -4t-16 -4q-8 0 -23 -1t-27 -1.5t-20 -0.5l-51 -62q10 -1 35 -1.5t36 -0.5q16 0 16 -4q0 -5 -14 -5q-10 0 -28 -1
t-32 -1.5t-24 -0.5l-94 -105q-12 -12 -16 -9q-5 3 5 15l72 98q-15 -1 -45.5 -1.5t-46.5 -0.5l-99 -109q-11 -14 -17 -9q-2 2 6 15q27 38 77 103h-52q-20 0 -20 10q0 12 26 12h62l41 54h-60q-23 0 -21 9q2 13 26 13q11 0 36 -0.5t35 -0.5l45 61q13 18 22.5 23t28.5 5z
M206 171l-46 -55q41 -2 85 -3l45 60q-46 -2 -84 -2z" />
    <glyph glyph-name="dollar" unicode="$" horiz-adv-x="259" 
d="M268 269l-75 -98q25 -62 6 -98q-29 -50 -120 -56h-6q-14 -18 -21 -25t-12 -5t2 13l13 18q-24 2 -39.5 19t-11.5 39q3 14 13.5 22t22.5 6q20 -4 16 -23q-2 -8 -10.5 -17.5t-8.5 -14.5q-2 -19 24 -22l74 98q-20 63 -10 92q10 30 44.5 47.5t86.5 15.5l14 18q18 24 26 19
q6 -4 -9 -24l-13 -16q36 -15 28 -44q-2 -10 -11 -16.5t-17 -5.5q-21 4 -11 25q3 6 8 13t5 11q0 6 -8 9zM187 190l63 82q-18 0 -36 -12.5t-24 -29.5q-8 -21 -3 -40zM140 103l-59 -77l8 1q30 7 44 30q11 19 7 46z" />
    <glyph glyph-name="percent" unicode="%" horiz-adv-x="448" 
d="M296 -6q-46 0 -49 39q-3 36 28 67q18 18 48.5 32t52.5 13q9 0 9 -3q0 -1 -1.5 -2t-5.5 -3t-7 -4q-24 -17 -46 -46q-29 -40 -34 -64q-3 -17 10 -20q25 -3 57 43q31 42 38 69q4 15 0 21q-1 2 -2.5 3t-2.5 1.5t-1 1.5q2 5 14 1q19 -6 19 -28q0 -40 -44 -84q-37 -37 -83 -37z
M324 247q-31 -13 -53 -16q-26 -3 -43 6q6 -12 3 -24q-7 -35 -44 -73t-82 -38t-50 39q-4 34 29 68q37 39 99 45q12 1 12 -3q0 -1 -2.5 -2t-6.5 -3t-7 -4q-19 -12 -46 -47q-29 -37 -34 -63q-3 -19 10 -20q24 -3 58 43q28 37 37 69q5 14 0 21q-1 2 -2.5 3t-2.5 1.5t-1 1.5
q2 4 12 1q3 -1 13 -6q18 -9 47 -7q45 5 80 34q4 3 12.5 10.5t15 11.5t15.5 5q18 3 21.5 -1.5t-14.5 -24.5q-184 -166 -307 -308q-11 -14 -15 -11q-4 4 6 18q125 166 240 274z" />
    <glyph glyph-name="ampersand" unicode="&#x26;" horiz-adv-x="488" 
d="M544 299q25 0 38 -14t9 -36q-3 -17 -16.5 -30t-28.5 -10q-21 4 -13 40q3 23 -17 25q-31 3 -104 -64l-123 -112q55 -78 42 -146q-11 -56 -64.5 -92t-134.5 -36q-48 0 -63 30q-7 15 -2 17q1 0 2 -1t2.5 -5t3.5 -7q18 -22 54 -22q45 0 80 37t41 85q5 51 -19 98
q-75 -61 -154 -61q-20 0 -33.5 11.5t-9.5 34.5q4 22 27 45t55 40q35 19 67 34q-9 32 -3 60q7 28 39.5 52t71.5 21q18 -2 28 -14.5t4 -32.5q-3 -11 -14.5 -22.5t-21 -18.5t-26 -17t-19.5 -12q11 -26 41 -69l63.5 60.5t58.5 55.5q84 76 139 76zM289 277q-17 0 -31.5 -16.5
t-19.5 -39.5q-4 -20 0 -35q52 31 66 59q6 12 1 22t-16 10zM141 30q42 0 85 36q-29 51 -39 83q-35 -23 -53 -42q-26 -28 -26 -48q0 -29 33 -29z" />
    <glyph glyph-name="quotesingle" unicode="'" horiz-adv-x="129" 
d="M192 366q35 0 4 -28l-96 -81q-9 -7 -12 -6q-4 2 4 14q3 5 50 79q14 22 50 22z" />
    <glyph glyph-name="parenleft" unicode="(" horiz-adv-x="286" 
d="M119 -92q-2 -1 -3 0.5t-3 6.5q-7 22 -11.5 48.5t-8.5 78t11 109t50 106.5q25 35 56 64.5t57.5 48.5t63.5 35.5t57.5 24.5t56.5 16.5t44.5 9.5t36.5 6q11 2 12 -1q1 -1 -1 -2t-8 -3q-75 -22 -159.5 -76.5t-152.5 -151.5q-99 -140 -96 -311q0 -8 -2 -9z" />
    <glyph glyph-name="parenright" unicode=")" horiz-adv-x="286" 
d="M-107 -86q0 1 9 4q69 24 147 81.5t142 154.5q38 59 56.5 123.5t17 104.5t-1.5 76q0 8 1 8q3 0 6 -7q9 -25 15.5 -51.5t13.5 -76t-4.5 -104t-41.5 -101.5q-38 -59 -93 -103t-110 -66t-87.5 -31.5t-57.5 -13.5q-12 -2 -12 2z" />
    <glyph glyph-name="asterisk" unicode="*" horiz-adv-x="231" 
d="M305 339q0 -8 -21 -8q-25 0 -51 2q19 -41 19 -42q7 -22 -2 -26q-7 -3 -17 13q-14 21 -27 47l-53 -52q-13 -13 -22 -8q-8 6 7 25q31 38 42 49q-30 3 -42 6q-20 5 -20 14q-1 5 5.5 7.5t17.5 2.5q21 0 42 -3q-16 33 -19 40q-8 21 0 25q8 5 22 -15q9 -13 26 -43l48 46
q15 14 24 8q8 -6 -6 -24q-6 -8 -39 -44q22 -1 47 -7q19 -5 19 -13z" />
    <glyph glyph-name="plus" unicode="+" horiz-adv-x="374" 
d="M298 250q16 0 18 -5t-14 -27q-1 -1 -12 -13.5l-27 -32l-29 -35.5q96 -5 106 -6q11 -3 11 -5q-1 -4 -19 -6q-42 -3 -116 -5l-106 -115q-12 -13 -19 -11q-7 1 2 15q18 28 75 110q-15 0 -46.5 0.5t-51.5 0.5q-10 0 -15 1.5t-5.5 4t0.5 5.5q5 16 26 15q11 0 48.5 -1t60.5 -2
q55 75 62 84q19 28 51 28z" />
    <glyph glyph-name="comma" unicode="," horiz-adv-x="155" 
d="M105 60q0 -10 -13 -25q-44 -50 -106 -89q-14 -9 -15 -6q-1 2 10 13q30 30 43 57q3 6 0 18t-2 16q8 19 67 26q16 2 16 -10z" />
    <glyph glyph-name="hyphen" unicode="-" horiz-adv-x="262" 
d="M160 129q28 0 41 -17t11 -44q0 -7 -4 -7q-1 0 -5 4q-12 14 -46 14q-13 0 -39.5 -5t-47.5 -5q-29 0 -40 14q-1 1 -1.5 3t0.5 3t7 -1q7 -2 19 0q23 5 54 24q27 17 51 17z" />
    <glyph glyph-name="period" unicode="." horiz-adv-x="155" 
d="M80 70q18 0 23 -11t-8 -27q-26 -31 -71 -41q-5 6 -5.5 21.5t4.5 29.5q10 28 57 28z" />
    <glyph glyph-name="slash" unicode="/" horiz-adv-x="239" 
d="M410 385q26 0 -14 -40l-429 -426q-9 -9 -15 -4q-3 3 8 16l346 403q43 51 104 51z" />
    <glyph glyph-name="zero" unicode="0" horiz-adv-x="311" 
d="M95 -9h-1q-45 0 -63.5 22.5t-13.5 57.5q4 27 21 57.5t40 53.5q87 84 166 84q7 0 12 -0.5t7 -2t2 -2.5l-3 -2q-4 -2 -10 -5.5l-13 -7.5q-43 -29 -85 -83q-59 -72 -68 -118q-6 -36 17 -40q19 -4 49 18.5t59 60.5q60 77 75 134q6 23 -3 34q-5 7 -14 9q0 4 7 5q27 4 41.5 -19
t6.5 -57q-13 -61 -72 -124q-70 -75 -157 -75z" />
    <glyph glyph-name="one" unicode="1" horiz-adv-x="222" 
d="M201 225q-58 -37 -93 -55q-13 -7 -29 -11t-24.5 -4.5t-11.5 1.5q-1 2 1 3t11 5q26 11 53 24q35 17 90 49q61 34 81 34q14 0 0 -19l-13 -17q-84 -101 -149 -194q-22 -32 -36 -39.5t-72 -16.5q-13 -2 -14 3q0 5 22 34q42 53 99 117.5t85 85.5z" />
    <glyph glyph-name="two" unicode="2" horiz-adv-x="297" 
d="M43 45q26 4 44 4q23 1 55 -7.5t40 -8.5q33 0 69 38q7 7 9 5t-2 -8q-21 -26 -32.5 -38.5t-32 -26.5t-39.5 -14q-26 0 -60 15q-41 18 -59 18q-43 0 -66 -16q-6 -4 -9.5 -8t-5 -6.5t-2.5 -2.5q-2 -1 -4 -0.5t-3.5 2.5t0.5 6q3 7 16 15q24 16 114 59q54 26 96.5 63.5
t52.5 69.5q5 17 -3.5 27.5t-25.5 11.5q-36 2 -70 -23q-29 -21 -34 -48q-3 -15 7 -23.5t24 -5.5q4 0 5 -1q2 -3 -6 -6q-11 -6 -25 -4q-35 3 -31 34q4 30 55 63q53 37 111 37q38 0 60 -16.5t14 -51.5q-13 -58 -110 -99q-35 -15 -92 -34z" />
    <glyph glyph-name="three" unicode="3" horiz-adv-x="270" 
d="M161 149q38 -2 59 -16q32 -23 19 -57q-16 -44 -77 -65q-58 -20 -117 -20q-33 1 -53.5 15.5t-16.5 38.5q2 18 18 31.5t37 13.5q15 0 22 -7.5t6 -17.5q-1 -14 -19 -25q-21 -12 -22 -17q-2 -11 6.5 -17.5t24.5 -5.5q24 1 54.5 23t53.5 65q9 16 8.5 33t-12.5 18q-10 1 -24 -5
q-3 -1 -5.5 -2.5t-4 -2.5l-3 -2t-2 -1t-1.5 1q-6 10 16 18q43 14 71.5 38.5t27.5 45.5q0 17 -24 19q-32 2 -55 -13q-23 -14 -31 -37q-5 -14 0 -23q5 -8 4 -8q-9 -5 -21 3q-16 10 -11 27q6 20 50 44q47 25 94 25q67 0 69 -38q1 -21 -17.5 -38.5t-51.5 -27.5q-30 -8 -72 -13z
" />
    <glyph glyph-name="four" unicode="4" horiz-adv-x="311" 
d="M350 267h1q12 0 4 -11q-53 -63 -158 -204q33 -3 38 -4q8 -2 12 -4.5t3 -6.5q-1 -1 -19 -1h-45q-50 -65 -64 -85t-20 -26t-23 -12t-51 -10q-14 -2 -14 3q0 7 18 32q8 12 72 97q-60 0 -81 -2q-14 -1 -43 -5q-11 -2 -13 4q-1 4 17 18l136 98q77 53 117 77q41 25 63.5 33.5
t49.5 8.5zM281 236l-2 2q-48 -28 -152 -100l-125 -91v-1q39 6 114 6q24 33 80 94t85 90z" />
    <glyph glyph-name="five" unicode="5" horiz-adv-x="276" 
d="M186 278h1q1 0 3 -1.5t4.5 -3t4.5 -2.5q21 -11 43 -16t42 -5q14 0 29 6q2 1 5 2q4 3 5 2q3 -2 -3 -13q-10 -18 -34 -32q-28 -17 -62 -15q-47 2 -66 15q-23 -31 -61 -68l1 -1q22 19 60 19q42 0 70.5 -19.5t22.5 -52.5q-8 -43 -72.5 -72.5t-125.5 -29.5q-35 0 -60 13.5
t-23 38.5q1 20 17 32.5t37 12.5q31 0 31 -26q0 -15 -19 -26q-14 -9 -14 -19q0 -17 32 -17q40 0 75 31.5t42 74.5q3 19 -8.5 30.5t-26.5 12.5t-30 -6q-10 -5 -20 -15q-11 -13 -18 -8q-6 6 10 23q42 42 52 54q27 32 49 74q3 7 7 7z" />
    <glyph glyph-name="six" unicode="6" horiz-adv-x="305" 
d="M24 58v1q0 63 77 138q56 57 129 92.5t140 30.5q46 -4 60 -32q5 -10 0 -13q-1 0 -2 0.5t-2.5 3t-2.5 3.5q-17 26 -52 26q-80 0 -209 -134q-69 -76 -80 -138q-5 -31 20 -34q40 -6 93 75q21 31 24.5 54t-11.5 29q-17 5 -46 -13q-8 -5 -10 -2t8 10q31 22 64 21
q42 -2 54.5 -35.5t-15.5 -74.5q-23 -34 -70.5 -55.5t-88.5 -19.5q-80 4 -80 67z" />
    <glyph glyph-name="seven" unicode="7" horiz-adv-x="230" 
d="M279 231q-82 -36 -135 -36q-32 0 -46 12.5t-9 32.5t26 32q14 8 28 8q5 0 5 -2q0 -1 -2.5 -3.5t-3.5 -5.5q-2 -7 2 -12.5t17.5 -9t35.5 -3.5q64 0 106 12q19 11 22 3q1 -3 -2.5 -6t-13.5 -7l-63.5 -63l-58.5 -58l-46 -46l-49.5 -51l-44.5 -48q-6 -6 -62 -14q-38 -5 -40 3
q-1 6 13 19q123 110 321 243z" />
    <glyph glyph-name="eight" unicode="8" horiz-adv-x="281" 
d="M264 304h-1q-21 0 -38 -14t-21 -34q-6 -33 17 -81q28 -57 17 -92q-12 -37 -58 -63.5t-95 -28.5q-43 0 -64.5 17t-16.5 50q3 26 32 53t79 46q24 8 25 4q0 -1 -3 -3t-8 -5t-7 -4q-49 -32 -60 -85q-12 -53 31 -58q31 -4 55 23.5t24 63.5q0 17 -19 61q-18 40 -16 64
q4 40 48 70.5t91 30.5q35 1 53.5 -16.5t14.5 -44.5q-8 -51 -88 -78q-23 -9 -24 -5q0 2 2 4t7 4.5t6 3.5q41 27 49 71q4 19 -5 32.5t-27 13.5z" />
    <glyph glyph-name="nine" unicode="9" horiz-adv-x="297" 
d="M-85 -92h1q55 0 135 57q33 24 67 60t55 68q62 89 68 134q4 29 -15 30q-21 2 -48.5 -18.5t-53.5 -58.5q-20 -30 -23.5 -54.5t11.5 -28.5q19 -6 48 16q13 10 15 8q4 -4 -12 -16q-30 -24 -63 -21q-42 4 -52.5 39t17.5 72q26 36 70.5 54.5t83.5 18.5q27 0 47.5 -14.5
t24.5 -40.5q4 -27 -11 -69t-47 -83q-57 -72 -153.5 -122.5t-162.5 -42.5q-44 5 -57 31q-6 11 0 13q2 1 3.5 -1t3.5 -6q13 -25 48 -25z" />
    <glyph glyph-name="colon" unicode=":" horiz-adv-x="180" 
d="M81 70h1q17 0 21.5 -11t-7.5 -27q-26 -31 -71 -41q-5 6 -5.5 21.5t4.5 29.5q10 28 57 28zM141 173h1q17 0 21.5 -11t-7.5 -27q-26 -31 -71 -41q-5 6 -5.5 21.5t4.5 29.5q10 28 57 28z" />
    <glyph glyph-name="semicolon" unicode=";" horiz-adv-x="180" 
d="M105 60v-1q0 -9 -13 -24q-46 -52 -106 -89q-14 -8 -15 -6t10 13q30 30 43 57q3 6 0 18t-2 16q8 19 67 26q16 2 16 -10zM141 173h1q17 0 21.5 -11t-7.5 -27q-26 -31 -71 -41q-5 6 -5.5 21.5t4.5 29.5q10 28 57 28z" />
    <glyph glyph-name="less" unicode="&#x3c;" horiz-adv-x="282" 
d="M39 129v1q0 5 23 13l234 86q10 4 13 0q4 -6 -10 -13l-188 -89l113 -81q12 -8 7 -15q-4 -4 -12 0l-167 86q-13 6 -13 12z" />
    <glyph glyph-name="equal" unicode="=" horiz-adv-x="424" 
d="M438 179v-1q0 -5 -21 -6q-109 -5 -304 -7q-13 0 -19.5 2t-8 5t-0.5 8q4 19 28 19q10 0 138.5 -5t171.5 -7q15 0 15 -8zM396 111v-1q0 -8 -21 -8q-178 -6 -303 -7q-14 0 -21 2.5t-8 5t0 6.5q4 22 27 20l313 -12q13 0 13 -6z" />
    <glyph glyph-name="greater" unicode="&#x3e;" horiz-adv-x="282" 
d="M270 130v-1q0 -5 -21 -13l-235 -87q-12 -5 -14 2q-2 5 12 12l186 89l-111 82q-12 9 -8 14q3 5 13 0l166 -86q12 -5 12 -12z" />
    <glyph glyph-name="question" unicode="?" horiz-adv-x="277" 
d="M244 337h1q38 0 57.5 -16.5t15.5 -44.5q-9 -70 -125 -106q-55 -17 -75 -28q-23 -13 -31 -28q-5 -28 -17 -28q-3 0 -5.5 4.5t-2 12.5t4.5 16q11 22 58 51q90 60 102 108q5 17 -3 28t-24 11q-29 -1 -61 -24q-22 -15 -30.5 -40t1.5 -40q1 -2 3 -4t3.5 -3t1.5 -2q0 -3 -11 -1
q-37 6 -29 38q9 32 54 60q56 36 112 36zM72 64h1q16 0 20 -10.5t-7 -24.5q-12 -15 -33 -26t-33 -12q-12 19 -1 48q10 25 53 25z" />
    <glyph glyph-name="at" unicode="@" horiz-adv-x="504" 
d="M312 281h1q60 0 99 -27.5t39 -64.5q0 -30 -24 -59q5 -10 5 -23q0 -38 -24 -67q-27 -34 -82.5 -54t-121.5 -19q-56 1 -96.5 22t-56.5 51.5t-12 68.5t31 72q36 47 101 73.5t141 26.5zM312 271h-1q-107 0 -183 -94q-35 -44 -41 -89.5t25 -77.5t95 -34q58 -1 109 20.5
t80 54.5q22 26 22 55l-1 10q-15 -16 -41 -34q-43 -28 -87 -28q-28 0 -31 19q-2 12 6 25l-1 1q-42 -40 -87 -41q-46 0 -43 31q3 38 66 74q44 26 88 26q28 0 26 -26h2q9 11 18 16t11.5 5h17.5q23 0 23 -3q0 -2 -5 -8q-48 -57 -64 -86q-4 -9 1 -12q6 -4 24.5 1t32.5 15
q23 16 38 43q-3 8 -11 16q-5 6 -4 7q2 2 11 -5q3 -2 9 -8q8 21 8 46q0 33 -30.5 57t-82.5 24zM295 181h-1q-18 0 -68 -48q-39 -38 -39 -55q0 -8 8 -8q24 0 60 32q48 42 51 66q1 13 -11 13z" />
    <glyph glyph-name="A" unicode="A" horiz-adv-x="725" 
d="M15 56v1q0 30 18 48t40 19t34.5 -9.5t10.5 -27.5q-1 -15 -25 -33q-16 -12 -16 -25q0 -17 23 -27t67 -6q91 8 199 83q-65 48 -64 117q1 47 35 80.5t87 33.5q78 1 120 -80q9 9 41 39q91 87 155 122q72 38 134 38q43 0 59 -13q3 -3 5 -6t2 -5t-2 -3q-1 -1 -3 2q-3 3 -6 5
q-9 6 -22 6q-17 0 -32 -11q-37 -27 -83 -94q-89 -124 -185 -280q23 0 59 19q23 13 52 38q16 14 19 11q4 -4 -10 -16q-29 -27 -58 -42q-35 -18 -67 -20q-18 -22 -77 -27q-13 -1 -19.5 1t-5.5 5.5t2 7.5q1 3 4.5 8.5t3.5 6.5q-33 3 -72 17q-31 11 -62 32q-107 -80 -212 -88
q-62 -5 -105.5 14.5t-43.5 58.5zM555 96q88 132 124 175q93 117 206 148v1q-67 1 -140 -38q-59 -32 -134 -102q-54 -51 -62 -60q10 -25 12 -58q1 -36 -6 -66zM440 286h-1q-37 0 -57.5 -27t-22.5 -65q-3 -59 29 -98q30 22 74 60l72 65q-35 65 -94 65zM396 87q14 -18 53 -36
q33 -15 66 -19l23 39q14 28 12 83q-2 35 -11 57l-71 -64q-33 -29 -72 -60z" />
    <glyph glyph-name="B" unicode="B" horiz-adv-x="723" 
d="M448 -9h-1q-41 0 -66 17t-17 50q7 25 28 40t46 15q15 0 25 -8.5t9 -21.5q-1 -25 -32 -40l-6 -3l-6 -3t-5 -3t-5 -3.5t-3.5 -4.5t-1.5 -6q-1 -10 9.5 -15.5t25.5 -5.5q51 0 100.5 47t52.5 106q2 32 -23 48.5t-44 14.5q-10 -4 -23 -4t-17.5 2.5t-3.5 8.5q1 8 22 8
q19 0 29 -5q32 5 64.5 31.5t43.5 59.5q6 20 -2 40t-29 31q-7 -5 -17 -15q-16 -17 -34 -40t-45.5 -61.5l-44.5 -60.5q-71 -97 -174 -163.5t-191 -66.5q-21 0 -36.5 2t-34.5 7.5t-31.5 19.5t-17.5 35q-11 47 29.5 110.5t137.5 127.5q91 61 204 95.5t206 31.5l14 -1
q57 34 115 53q57 20 111 18q52 -2 70 -27q5 -8 0 -9l-5 5q-19 22 -64 22q-54 0 -99 -19q-40 -16 -77 -50q46 -9 70.5 -32t18.5 -56q-8 -41 -56.5 -65t-106.5 -27v-1q55 -2 90.5 -26t33.5 -60q-4 -62 -73 -102.5t-163 -40.5zM55 51v-1q0 -29 16.5 -45t43.5 -16q72 0 150 89
q20 23 82 104q74 97 188 192q13 12 32 23q-8 1 -12 1q-82 2 -183.5 -30.5t-176.5 -92.5q-74 -59 -107 -117.5t-33 -106.5z" />
    <glyph glyph-name="C" unicode="C" horiz-adv-x="417" 
d="M274 472h1q92 0 134 -63q30 5 54 5q48 1 85.5 -18t34.5 -57q-3 -49 -66.5 -75t-132.5 -26q-111 0 -163 37q-48 -43 -80.5 -99t-32.5 -101q0 -96 104 -91q69 5 140 55q9 6 64 53q13 11 16 8q3 -4 -14 -19q-41 -37 -67 -56q-83 -55 -157 -60q-80 -6 -127 21t-49 85
q-5 134 155 244q-25 27 -25 63q0 41 36 67.5t90 26.5zM385 247h1q54 0 99 24.5t51 71.5q2 31 -18.5 46.5t-56.5 15.5q-28 0 -48 -5q10 -22 12 -55v-13t-0.5 -10.5t-1.5 -7.5l-1.5 -4.5t-1.5 -1.5t-1 3.5t-0.5 11.5t-1.5 16q-5 33 -21 56q-38 -12 -88.5 -46.5t-79.5 -66.5
q52 -35 157 -35zM277 458h-1q-49 0 -82.5 -21.5t-33.5 -58.5q0 -36 21 -57q102 62 209 84q-13 21 -45.5 37t-67.5 16z" />
    <glyph glyph-name="D" unicode="D" horiz-adv-x="763" 
d="M370 272v1q0 19 -13 31.5t-31 13.5q-33 1 -64 -26q-4 -3 -7 -6.5t-5 -5.5t-3 -4t-2 -2.5t-2 -0.5q-1 1 0.5 4.5t5.5 9.5t10 12q32 32 72 30q23 -1 40.5 -16t20.5 -41q3 -30 -11.5 -61t-44.5 -55q-27 -22 -72.5 -33.5t-90.5 -9.5q-55 2 -96 27.5t-42 68.5q0 58 53 108.5
t135.5 78.5t169.5 28q136 0 237 -62q30 18 68 31q54 18 104 18q38 0 59 -16q4 -3 6 -6.5t2.5 -5.5t-0.5 -3q-1 0 -1.5 1t-3.5 4t-8 6q-18 10 -50 10q-43 0 -94 -21q-36 -15 -61 -34q60 -46 82 -112t-6 -121q-14 -26 -36.5 -46.5t-43 -33.5t-54.5 -22t-53.5 -13t-58 -6
t-50.5 -2h-48q-64 0 -154 10q-36 -8 -118 -8q-128 0 -146 5q-13 4 -12 11q1 14 35.5 18t105.5 2q49 0 140 -14q24 7 45 18.5t43 33.5t33.5 34.5t37 45.5l33.5 43q81 99 192 165q-91 60 -225 60q-118 0 -205.5 -64t-88.5 -148q-1 -75 75 -80q80 -4 142 54q54 51 54 96z
M255 11q68 -11 113 -11q81 0 154 33.5t116 101.5q32 50 32.5 107t-29.5 94q-24 -24 -65.5 -82t-61.5 -81q-92 -115 -259 -162z" />
    <glyph glyph-name="E" unicode="E" horiz-adv-x="424" 
d="M231 271v1q0 33 22 59q-43 32 -40 71q2 29 28 47t67 17q75 -2 127 -52q44 3 77 2q49 -1 80.5 -19.5t29.5 -44.5q-2 -33 -49.5 -57t-107.5 -24q-79 0 -143 27q-10 -14 -14 -29q-6 -18 -3 -31q22 3 50 2q56 -2 53 -25q-3 -20 -55 -20q-68 0 -102 26q-33 -12 -67 -43
q-19 -17 -36 -43t-22 -46q-13 -51 13 -79t81 -24q67 5 135 51q11 7 24 17.5l26.5 22.5t18.5 16q9 9 13 5q3 -3 -11 -16q-44 -40 -73 -59q-81 -53 -162 -60q-86 -7 -127.5 27.5t-25.5 97.5q10 42 53.5 74.5t79.5 45.5t74 21q-14 16 -14 42zM463 281h1q46 0 86 20t42 51
q2 22 -17 38t-60 17q-36 1 -68 -12q12 -16 16 -41q5 -31 -2 -35q-1 0 -1 2t-2 10t-5 19q-6 21 -22 39q-28 -13 -52 -30q-27 -19 -52 -52q53 -26 136 -26zM413 410q-54 46 -105 47q-38 1 -59.5 -14t-23.5 -41q-3 -37 34 -64q27 30 82 53q35 14 72 19zM307 230q3 -10 17 -17
t30 -8q35 -2 36 13q1 7 -8 10t-27 4q-25 2 -48 -2z" />
    <glyph glyph-name="F" unicode="F" horiz-adv-x="593" 
d="M339 389h-1q-170 0 -194 -96q-7 -34 8 -65.5t58 -50.5l13 -6q-2 -5 -19 1q-44 15 -67 50.5t-18 75.5q8 58 70.5 98.5t153.5 38.5q71 0 169 -27q78 -21 132 -34q69 28 117 28q28 0 47 -9t17 -25q-3 -31 -95 -31q-39 0 -81 6q-23 -22 -62 -69q-17 -20 -42 -52.5l-39 -49.5
q44 -2 72 8q30 41 59 34q8 -2 10 -7.5t-3 -13.5t-16 -16q-42 -32 -56 -46l-18 -18q-8 -1 -2 22q1 3 2 5q7 17 15 28q-24 -7 -70 -7q-2 -2 -6 -7t-8.5 -10t-8.5 -10q-63 -70 -157 -111.5t-170 -41.5q-57 0 -93 21t-36 56q0 26 17 45.5t46 19.5q23 0 35 -13t11 -30
q-1 -19 -16 -35q-13 -15 -13 -25q0 -27 44 -29q56 -4 100.5 20t93.5 77q35 37 61 74q-43 0 -55 -1q-13 0 -26 -3q-6 0 -6 1q3 11 40 13h54q28 38 51 62q60 65 145 117q-30 3 -107 18q-108 20 -156 20zM760 392h-1q-41 0 -81 -27q49 -13 86 -13q20 0 35 5.5t16 13.5
q1 9 -15 15t-40 6z" />
    <glyph glyph-name="G" unicode="G" horiz-adv-x="522" 
d="M651 367q1 -85 -126 -150q-50 -25 -122.5 -36.5t-135.5 -6.5q-27 2 -59 12q-45 -63 -51 -122q-2 -26 10.5 -42.5t37.5 -17.5q63 -1 164 101q31 31 84 31q15 0 17.5 -3t-4.5 -13q-8 -11 -24.5 -32t-25.5 -34l-59 -78v-1q52 28 102 66q25 19 63 52q12 9 14 7q4 -4 -13 -19
q-28 -25 -59 -48q-43 -33 -118 -74q-59 -85 -123 -161q-60 -68 -142 -115t-141 -47q-55 0 -52 42q6 67 155 158q42 26 104.5 54.5t102.5 54.5l88 118q-78 -75 -164 -75q-96 1 -104 74q-10 75 58 159q-23 16 -40.5 41t-17.5 54q0 59 49 92t119 33q80 0 147 -46q110 33 184 32
q81 -2 82 -60zM639 368q-1 48 -67 48q-31 0 -78.5 -12t-88.5 -33q14 -23 20 -50q3 -15 4 -28t-2 -15q-1 0 -1.5 2t-4.5 13t-11 27q-12 27 -26 38q-59 -39 -104 -82q-31 -31 -67 -82q24 -7 47 -8q47 -3 120 14.5t127 46.5q57 31 95 62.5t37 58.5zM228 423h-1
q-61 0 -102.5 -27t-41.5 -80q0 -50 51 -88q39 48 89 82q63 46 137 73q-57 40 -132 40zM239 -74q-24 -16 -75.5 -43t-103.5 -60q-47 -30 -85 -70t-41 -76q-3 -27 22 -29q27 -2 63 20q54 36 128 131z" />
    <glyph glyph-name="H" unicode="H" horiz-adv-x="706" 
d="M571 385q-49 -18 -227 -11q-105 3 -170.5 -28t-75.5 -91q-15 -88 71 -116q12 -5 12 -6q-2 -5 -19 0q-48 14 -77.5 50t-23.5 78q11 76 85 114t196 26q10 -1 40.5 -3.5t44 -3.5l39 -3t39 -2.5t30 -0.5t26.5 1.5t15 4.5q26 15 31 12q6 -3 -4 -11l-3.5 -3.5l-3.5 -3.5
q-29 -26 -74 -79l-68 -89l125 1q29 33 66 68q73 73 145 111q69 36 132 36q25 0 42.5 -10.5t23.5 -26.5q5 -13 -1 -15q-1 0 -1.5 0.5t-1.5 3.5t-2 5q-14 28 -59 28q-42 0 -88 -34q-29 -20 -91 -85q-36 -38 -72 -84q27 1 82 -2q2 0 5.5 -0.5t6 -0.5t5 -0.5t3.5 -1.5t1 -2
q-2 -5 -20 -5q-70 0 -93 -1q-114 -145 -108 -178q2 -16 20 -16q27 0 71 31q16 11 52 43q14 12 17 9t-7 -13q-38 -33 -56 -47q-52 -40 -102 -40q-75 0 -76 47q0 8 1.5 17.5t6 20.5t9 20t12.5 21l13 19.5t14.5 19.5l13.5 17l13.5 16.5t10.5 12.5l-124 -2q-180 -221 -364 -221
q-42 0 -74 19.5t-32 58.5q0 24 16.5 41t41.5 17q19 0 31 -12.5t10 -30.5q-1 -17 -16 -30q-13 -12 -13 -25q1 -29 41 -29q17 0 34.5 4t35.5 14.5t32 19.5t32 26.5l29 27.5t28.5 31.5l24.5 30t24 31t20 25.5h-73q-19 0 -19 6q0 3 29 6q39 4 74 6q111 125 216 166z" />
    <glyph glyph-name="I" unicode="I" horiz-adv-x="505" 
d="M660 416q-101 -19 -130 -26q-76 -17 -144 -55q-63 -36 -63 -78q0 -24 24 -24q15 0 25 7q9 6 10 5q3 -5 -5 -11q-14 -12 -36 -14q-26 -2 -44.5 9t-18.5 34q0 27 24.5 52.5t63.5 42.5q56 25 162 45q18 4 68.5 12t59.5 11q25 7 31 6q9 -1 5 -9q-2 -5 -7 -7q-47 -18 -96 -90
q-17 -24 -45 -69t-44 -65q-161 -210 -391 -210q-60 0 -93.5 20t-33.5 57q0 29 20 49.5t47 20.5q26 0 36.5 -15.5t6.5 -32.5q-5 -19 -24 -34q-20 -17 -20 -31q0 -24 53 -24q150 0 296 201q68 94 105 128q79 75 158 95z" />
    <glyph glyph-name="J" unicode="J" horiz-adv-x="393" 
d="M219 -23q35 17 55 28q30 17 66 44q27 20 54 45q11 8 13 6q3 -3 -11 -17q-24 -23 -57 -47q-35 -27 -70 -45q-34 -18 -60 -29q-47 -58 -72 -85q-104 -112 -205 -161q-76 -41 -151 -38q-60 3 -65 41q-5 35 41 72t139 74l97.5 35.5l102.5 37.5q126 169 203 252q85 91 149 136
q72 50 111 65q23 10 23 11q0 4 -10 4q-48 1 -119.5 -14t-128.5 -45q-70 -37 -115.5 -87t-45.5 -93q0 -40 27 -44q3 -1 6 -1t5 0.5t3.5 0.5t2.5 -0.5t1 -1.5t-2 -2.5t-6.5 -2.5t-9.5 -1q-25 1 -45 17.5t-24 46.5q-6 44 26.5 90.5t100.5 78.5q65 30 158.5 49.5t169.5 17.5
q10 0 17 -3.5t5 -11.5q-2 -7 -15 -17q-40 -30 -63 -54q-67 -67 -121 -135zM87 -77q-103 -37 -188 -71q-75 -30 -111.5 -67t-33.5 -67q3 -26 32 -30q65 -6 159 73q44 37 104 113z" />
    <glyph glyph-name="K" unicode="K" horiz-adv-x="702" 
d="M935 367q-1 -35 -42 -58t-86 -19q-24 2 -36 10q-5 3 -3 6q1 1 6 -1q10 -5 30 -7q43 -4 79.5 17.5t36.5 53.5q0 18 -14.5 29t-34.5 11q-9 0 -18 -2t-16 -4t-15 -7.5l-13.5 -9t-14 -12t-12 -12.5l-12.5 -15l-12 -14.5t-13 -17t-12 -16.5q-59 -79 -177 -105q36 -11 48 -37
q11 -24 -13 -64q-5 -8 -13.5 -20.5l-12.5 -18.5t-7.5 -14.5t-3.5 -15.5q0 -17 20 -17q26 0 76 41q9 7 20.5 17l20 17.5t10.5 9.5q9 7 12 4q2 -3 -9 -14l-50 -43q-60 -50 -115 -50q-62 0 -66 43q-4 33 30 75q36 46 36 60q0 11 -7 20q-16 -6 -31 -6q-12 0 -20 3.5t-7 10.5
q1 13 32 13q15 0 36 -7q17 9 33.5 23.5t26.5 25.5t28.5 33.5l28.5 34.5q43 49 100 75.5t115 24.5q25 -1 43.5 -14.5t17.5 -36.5zM-21 59v1q0 32 19.5 51t45.5 19q19 0 32 -11t13 -30t-20 -42q-13 -15 -13 -28q0 -29 42 -29q29 0 59 14t60 41.5t50.5 49.5t50.5 58l40 48
q31 35 62.5 61t51.5 38l56 32l-1 1q-81 -44 -179 -44q-137 0 -134 66q1 34 34 53q22 13 54 13q8 0 8.5 -2.5t-5.5 -9.5l-5 -7l-8.5 -10.5t-7 -14.5t-4.5 -20q-2 -23 15.5 -40t53.5 -17q60 0 127 21t114 63q23 23 35 21q17 -2 1 -18q-6 -6 -14 -10q-21 -10 -67 -69l-27 -36
l-30 -40.5t-22 -28.5q-77 -98 -175 -160t-198 -62q-44 0 -79 19.5t-35 58.5zM503 188h1q11 0 21 5q-8 6 -19 7q-21 2 -21 -5t18 -7z" />
    <glyph glyph-name="L" unicode="L" horiz-adv-x="599" 
d="M252 350v1q0 41 40.5 73.5t106.5 32.5q91 0 158 -55q41 13 94 13q50 0 84.5 -19t31.5 -51q-5 -45 -72.5 -71.5t-151.5 -34.5q-49 -5 -93 0q-65 -100 -179 -173q16 -2 93 -23q42 -11 73 -11q50 0 87.5 13t76.5 50q7 7 10 3q3 -3 -8 -14q-53 -53 -91 -75.5t-84 -22.5
q-40 0 -96 20q-88 32 -95 33q-68 -50 -135 -51q-62 -2 -60 23q1 23 49.5 40.5t99.5 19.5q31 1 58 -1q26 28 61 95t50 87q-46 10 -77 36t-31 62zM455 248q33 -3 89 3q33 4 71 15.5t73.5 35t38.5 51.5q2 27 -18 40.5t-51 13.5q-47 0 -82 -27q9 -11 15 -31q3 -10 3.5 -19
t-0.5 -13.5t-2 -4.5t-1.5 3t-4 12t-9.5 20q-7 14 -16 22q-46 -35 -106 -121zM262 350v-1q0 -32 31 -56.5t72 -32.5q66 99 171 136q-56 38 -142 38q-61 0 -96.5 -24.5t-35.5 -59.5zM221 44q-40 11 -78 10q-22 -1 -40 -11.5t-17 -25.5q2 -19 32 -17q57 3 103 44z" />
    <glyph glyph-name="M" unicode="M" horiz-adv-x="907" 
d="M91 -30h-1q-116 0 -124 69q-3 29 16.5 50t46.5 21q46 0 46 -37q0 -21 -18 -35q-18 -15 -20 -22q-3 -17 15 -25.5t52 -8.5q63 0 152 41t170 98q60 44 148.5 125.5t135.5 129.5q-72 11 -191 11q-106 0 -172 -37t-73 -103q-6 -78 69 -103q3 -1 6.5 -2t4.5 -1.5t1 -1.5
q-2 -6 -19 -1q-45 12 -73.5 45.5t-25.5 74.5q5 79 82.5 120.5t190.5 36.5q63 -2 209 -30q6 6 10 9q19 16 48 16q31 0 17 -25l-6 -10q44 -4 83 -4q77 0 128 20q27 10 48.5 25t26.5 26q1 3 2 5.5t1.5 4.5t1 3.5t1.5 2t2 0.5q7 0 1 -22q-4 -17 -35 -50q-144 -156 -179 -199
q-99 -123 -99 -158q0 -14 15 -14q25 0 74 37q17 13 40 34q12 10 15 7t-5 -11q-32 -30 -55 -46q-57 -43 -105 -43q-60 0 -60 45q0 33 70 123q80 103 157 167v1q-41 -28 -195 -154q-34 -28 -61 -52.5l-67.5 -62.5l-54.5 -51q-16 -15 -44 -10q-25 4 -8 26q13 19 92 146.5
t108 163.5l-1 1q-155 -153 -250 -222q-203 -144 -344 -144zM611 93q63 58 178 152q43 35 101.5 77.5t74.5 49.5v1q-33 -13 -96 -11q-53 0 -86 5q-25 -34 -87 -138.5t-85 -135.5z" />
    <glyph glyph-name="N" unicode="N" horiz-adv-x="683" 
d="M-96 48v1q0 31 21.5 49t46.5 18q44 0 44 -34q0 -16 -20 -33q-22 -18 -24 -30q-3 -17 14 -26t51 -9q61 0 137 31t144 84q143 109 217 249q12 24 34 43q25 20 54 20q8 0 13 -2.5t5.5 -5.5t-1.5 -6q-16 -23 -22 -55q-7 -32 -15 -122q-9 -115 -25 -154h1q105 150 175 230
q71 84 130 131t116 46q30 -1 47 -19.5t14 -46.5q-2 -12 -5 -12q-1 0 -1 1.5t-0.5 4.5t-1.5 6q-10 30 -52 33q-80 5 -235 -157q-44 -46 -85.5 -97.5t-64 -83.5l-69.5 -100q-14 -21 -34 -16q-30 7 -25 26q21 65 24 161q4 107 17 142h-1q-29 -55 -85.5 -116.5t-118.5 -108.5
q-72 -54 -148.5 -86t-139.5 -33q-55 -1 -93.5 18.5t-38.5 58.5z" />
    <glyph glyph-name="O" unicode="O" horiz-adv-x="481" 
d="M174 52v-1q0 -25 13 -38q5 -5 5 -6q-2 -3 -8 1q-23 14 -29 45q-6 33 12 79.5t56 91.5q49 61 113 96.5t110 33.5q27 -1 42 -19.5t16 -47.5q4 -79 -57 -154q-52 -63 -136.5 -106.5t-154.5 -41.5q-46 1 -85 20t-51 63q-15 60 18 121t76 99q76 71 174.5 105.5t180.5 24.5
q68 -9 74 -55q3 -29 -17 -49q-11 -11 -14 -8l8 12q15 21 12 44q-3 20 -21 31.5t-42 11.5q-70 1 -145 -44t-129 -101q-45 -46 -75 -107.5t-18 -108.5q10 -49 67 -50q101 -3 228 152q78 98 83 163q3 35 -35 37q-80 3 -185 -132q-86 -109 -86 -162z" />
    <glyph glyph-name="P" unicode="P" horiz-adv-x="696" 
d="M406 281v1q0 19 -12 31.5t-30 13.5q-37 1 -66 -25q-4 -3 -7 -6.5t-4.5 -6t-2.5 -4.5t-2 -2.5t-2 -0.5q-1 1 0 4.5t4.5 9.5t9.5 12q31 31 73 29q23 -1 40.5 -16t19.5 -41q7 -64 -56.5 -112t-149.5 -47q-56 1 -91 24t-32 66q7 91 116 150.5t251 59.5q114 0 177 -30
q43 26 79 37q59 18 108 18q55 0 72 -28q5 -7 2 -9q-1 -1 -2 2l-4 4q-19 21 -66 21q-46 0 -95 -21q-28 -12 -62 -40q52 -35 74.5 -79t1.5 -86q-43 -81 -204 -79q-28 0 -54 6q-57 -53 -166 -99v-1q46 -11 110 -16q58 -4 80 7q5 2 9.5 5.5t6.5 5.5t3 1q1 0 1 -1t-1 -2.5
t-2 -3.5t-3 -4t-4 -5q-35 -35 -97 -35q-82 0 -153 19q-64 -20 -175 -20q-33 0 -61 8t-28 25q0 20 33 35.5t79 14.5q79 -3 188 -31q24 19 43 43.5t43.5 61t46.5 63.5q92 113 187 176q-56 28 -167 28q-122 0 -207 -57t-100 -143q-5 -32 10.5 -55.5t52.5 -24.5q71 -3 128 49
t57 100zM502 148q13 -4 36 -4q31 1 69 22t61 65q44 84 -5 133q-27 -27 -66 -89t-60 -88q-20 -24 -35 -39zM253 12q-84 22 -142 25q-88 7 -88 -16t80 -23q101 0 150 14z" />
    <glyph glyph-name="Q" unicode="Q" horiz-adv-x="534" 
d="M393 278v1q0 16 -12 27t-37 10q-31 -1 -50 -19q-7 -6 -13 -14q-4 -5 -6 -4q-1 1 0 4t4.5 8t8.5 10q25 25 60 25q28 0 45.5 -14t18.5 -40q2 -47 -40 -85q-27 -24 -69.5 -39t-80.5 -13q-34 1 -60 19.5t-30 54.5q-9 77 76 143q39 30 103.5 52.5t117.5 22.5q73 0 118 -28.5
t44 -78.5q0 -39 -22.5 -74.5t-46 -55t-65.5 -48.5q-72 -51 -222 -99v-1q76 -18 123 -18q50 0 88.5 14t86.5 54q13 9 15 7q3 -3 -3 -9q-113 -104 -196 -104q-34 0 -52.5 1t-53.5 7t-82 19q-90 -25 -148 -25q-82 0 -82 32q0 21 30.5 36.5t80.5 15.5q44 0 170 -23
q95 40 178 112q96 85 108 170q5 36 -14 61.5t-57 25.5q-84 0 -188 -85q-32 -27 -54.5 -62t-23.5 -64q-1 -63 61 -65q61 -3 127 58q44 39 44 78zM143 20q-80 17 -111 20q-35 3 -62 -1.5t-27 -17.5q0 -23 71 -23q61 0 129 22z" />
    <glyph glyph-name="R" unicode="R" horiz-adv-x="718" 
d="M806 430h-1q-34 0 -85 -19q-26 -10 -49 -24q35 -15 58 -51t1 -75q-30 -53 -154 -59v-1q24 -6 41 -19t18 -27q3 -24 -28 -65q-4 -6 -14.5 -19t-14.5 -18.5t-8 -14.5t-5 -16q-1 -6 3.5 -11.5t14.5 -5.5q29 0 81 41q21 17 45 39q11 11 15 7q3 -3 -5 -11q-36 -33 -58 -51
q-55 -42 -102 -45q-74 -4 -76 44q0 32 39 75q45 49 47 62q4 17 -18 31q-7 -3 -17 -3q-6 0 -14 2q-24 -29 -48 -51q-75 -70 -198 -111q67 -20 102 -19q27 0 50 14q4 3 7.5 6t5 4.5t2.5 1.5q8 0 -4 -14l-3 -3q-34 -33 -94 -33q-54 0 -112 17q-73 -22 -164 -20q-90 2 -90 33
q0 21 29.5 38t74.5 15q76 -4 180 -36q20 13 43 35.5t40.5 43.5l52.5 63.5l59 70.5q73 80 176 137q-65 24 -161 24q-100 0 -188 -53t-102 -134q-6 -43 7 -70.5t48 -29.5q9 -1 16 0t8 1.5t3 -0.5q1 -2 -1.5 -4.5t-9.5 -4.5t-16 -2q-59 -1 -95 31.5t-29 82.5q9 62 67.5 107
t134.5 65t157 20q110 0 177 -24q28 16 68 27q51 15 93 15q57 0 72 -26q2 -4 3 -7.5t1 -5.5t-1 -2t-1 1q-2 5 -7 10q-20 21 -67 21zM658 374q-30 -26 -70 -81l-29 -39.5l-28 -39.5q8 0 13 -1q10 -2 15 -5q65 14 98 63q21 34 20.5 60.5t-19.5 42.5zM210 13q-63 17 -138 23
q-86 7 -86 -16q0 -20 78 -23q86 -2 146 16z" />
    <glyph glyph-name="S" unicode="S" horiz-adv-x="610" 
d="M398 220q146 53 152 55q65 88 135 130q46 28 88 28q16 0 25.5 -6.5t8.5 -20.5q-2 -24 -37 -51.5t-85 -48.5q-6 -3 -28 -10q-25 -46 -53 -104q-53 -106 -154 -158t-216 -60q-120 -7 -178 27q-49 -39 -75 -86q-6 -9 -7 -9q-4 1 0 12q15 39 66 93q-55 39 -51 100
q6 68 79.5 109.5t161.5 46.5q46 3 95.5 -8.5t72.5 -38.5zM662 308q3 1 23 9q104 45 112 89q1 10 -6.5 15t-19.5 3q-19 -3 -44 -28q-29 -28 -65 -88zM259 70h-1q-46 0 -80 23q-20 -12 -53 -37l-35 -28q25 -26 67.5 -37t85.5 -8q77 7 138.5 58t118.5 152q28 47 43 67v1
q-68 -23 -138 -51q10 -17 9 -38q-4 -46 -52.5 -74t-102.5 -28zM258 80h1q43 0 82 26.5t41 66.5q1 15 -3 27q-32 -13 -68 -30q-56 -27 -124 -71q29 -19 71 -19zM375 211q-16 29 -58.5 40t-86.5 7q-59 -4 -111 -41.5t-57 -97.5q-3 -48 16 -77q8 8 32 26q29 21 54 37
q-16 16 -19 35q-2 10 3 10q1 0 4 -8q6 -19 21 -32q60 36 133 71q35 17 69 30z" />
    <glyph glyph-name="T" unicode="T" horiz-adv-x="612" 
d="M731 528h-1q-41 0 -76 -14.5t-54 -37.5q-10 -12 -16 -29q-4 -12 -5 -12q-4 0 -1 13q5 19 16 34q19 26 55.5 42.5t82.5 16.5q57 0 94 -26t33 -68q-4 -53 -56.5 -82.5t-133.5 -27.5q-22 0 -25 -1q-39 -14 -81 -62q-11 -12 -47.5 -62t-69.5 -78q-101 -89 -235 -115v-1
q106 -10 156 -9q68 2 111.5 11.5t85.5 35.5q24 16 42 32q10 7 12 6q5 -3 -4 -12q-23 -21 -47 -37q-92 -60 -217 -60q-116 0 -208 12q-45 -4 -94 -6q-35 -1 -53 -1t-31.5 1.5t-17.5 5t-2 10.5q3 14 31.5 21.5t61.5 7.5q71 0 146 -13q45 9 106 62q26 23 48 45.5t48.5 52.5
l46.5 51q43 42 94.5 69.5t94.5 35.5v1q-67 10 -126 21q-127 25 -222 23q-64 -3 -106.5 -25.5t-46.5 -64.5q-4 -33 22 -55t67 -24q45 -1 75 16t35 47q2 18 -6 29q-1 2 -3 4q-2 3 -1 4q3 3 17 -5q22 -14 22 -34q-1 -32 -45 -52t-95 -18q-46 2 -74.5 27t-25.5 64q5 56 59 91.5
t145 34.5q70 0 200 -20q126 -19 171 -21q66 -4 112 12.5t51 50.5t-27.5 58.5t-87.5 24.5z" />
    <glyph glyph-name="U" unicode="U" horiz-adv-x="602" 
d="M437 134q-30 -30 -63.5 -57.5t-86 -56.5t-90.5 -29q-56 0 -58 40q-1 50 121 187q93 106 104 153q4 21 -6 30.5t-27 9.5q-88 0 -177 -87q-80 -78 -80 -130q0 -40 36 -41q18 -1 36 10q4 3 7.5 6t5 4t2.5 0q2 -1 -2 -6.5t-10 -9.5q-18 -14 -42 -13q-43 3 -53 49
q-8 34 13.5 79.5t61.5 77.5q89 71 208 71q47 0 74.5 -15t27.5 -43q0 -21 -16 -49.5t-32.5 -49l-48.5 -58.5q-116 -134 -122 -173q-1 -10 3.5 -14.5t13.5 -3.5q41 2 102 49q73 53 146 140q71 83 166 163q78 63 125 56q13 -2 11.5 -15.5t-16.5 -29.5q-24 -26 -75 -63
q-59 -43 -91 -70q-8 -9 -23 -28q-94 -126 -107 -173q-5 -18 6 -22q19 -7 61 23q26 18 61 49q9 8 12 5t-7 -13q-22 -22 -63 -52q-17 -13 -48.5 -28.5t-57.5 -16.5q-52 -1 -52 42q0 40 50 103zM630 277l60 43q35 24 65 54q10 11 15.5 19.5t6 13t-2.5 6.5q-14 6 -54 -38z" />
    <glyph glyph-name="V" unicode="V" horiz-adv-x="551" 
d="M74 5q72 -4 169 20q138 38 236 113q121 92 159 160q6 9 7 19q0 6 -16.5 31t-20.5 34q-7 10 -2.5 25t20.5 15q45 0 47 -47q2 -38 -17 -81q-50 -111 -155 -188q-86 -64 -254 -96q-104 -21 -204 -19q-36 -10 -53 -12q-51 -5 -51 11q0 24 47 25q15 1 39.5 -3.5t27.5 -4.5
q85 30 194 137t120 192q5 36 -11 56t-49 20q-73 0 -149 -59q-32 -25 -54.5 -61t-26.5 -66q-8 -61 43 -64q47 -2 106 61q40 44 44 81q2 14 -3 23l-2 7q3 3 7 -4q11 -15 11 -35q0 -43 -34 -83q-20 -24 -57 -42t-74 -17q-33 2 -53.5 22.5t-19.5 53.5q1 31 22.5 67t60.5 63
q37 26 85.5 43t86.5 19q41 3 75.5 -4.5t59 -34t20.5 -70.5q-9 -94 -126 -183q-41 -31 -121 -72t-134 -52z" />
    <glyph glyph-name="W" unicode="W" horiz-adv-x="675" 
d="M308 412q-72 1 -149 -59q-32 -25 -54.5 -60.5t-26.5 -66.5q-7 -62 43 -65q47 -2 106 62q40 44 44 81q2 12 -3 23l-2 7q4 2 8 -5q10 -15 10 -34q0 -44 -34 -83q-21 -25 -58 -43.5t-73 -15.5q-34 2 -55 22t-20 53q4 70 82 128q79 58 175 65q65 4 113.5 -24t35.5 -87
q-21 -98 -173 -255l1 -1l51 37.5l62 45.5l122 91q12 40 32 73q27 41 61 63.5t57 20.5q32 -4 26 -40q-2 -13 -13.5 -27.5t-22 -24t-29 -24l-23.5 -18.5q-38 -157 -68 -197l1 -1l45 41l70.5 62.5l62.5 55.5q115 104 128 187q4 25 -5 34q-4 3 -10 5q-3 1 -3 2q2 3 10 3
q32 0 49 -16t15 -42q-4 -30 -44 -73t-127 -114l-58.5 -47.5l-61.5 -50.5l-49 -41.5t-44 -40.5q-34 -34 -61 -34q-19 0 -20.5 12.5t5.5 18.5q14 24 27 58.5t25.5 77t19.5 60.5v1q-51 -43 -129 -98l-141 -101q-46 -31 -73 -31q-15 0 -18.5 7.5t7.5 19.5q88 101 121 147
q84 118 93 180q9 74 -60 76zM604 267q68 51 74 79q3 13 -2 21t-15 8q-18 0 -33 -36q-10 -21 -24 -72z" />
    <glyph glyph-name="X" unicode="X" horiz-adv-x="525" 
d="M511 314q117 102 202 102q26 0 40.5 -11t13.5 -29q-1 -31 -42 -54.5t-81 -31.5q-14 -3 -15 1q-1 2 6 4q4 1 7 2q30 8 55 28.5t29 46.5q2 13 -3.5 22.5t-19.5 10.5q-49 1 -114 -54.5t-131 -138.5q-86 -111 -98 -164q-8 -41 24 -41q28 0 80 36q19 14 53 43q13 10 15 8
q4 -4 -4 -11q-26 -25 -57 -48q-57 -42 -108 -44q-46 -1 -68.5 15t-20.5 45q3 23 18 44l-1 1q-120 -110 -231 -110q-92 0 -97 62q-2 27 16 50t47 23q16 0 27.5 -9t12.5 -25q1 -19 -14 -37q-19 -22 -19 -35q0 -20 30 -20q132 0 286 196q37 47 68.5 99t37.5 76t-6 35.5
t-33 11.5q-38 0 -85 -24t-89 -65q-77 -75 -80 -130q-2 -40 36 -42q21 0 36 11l14 10q2 -1 -1 -6t-10 -10q-18 -14 -42 -13q-45 2 -50 51q-4 36 15 75.5t54 71.5q41 38 100 59t102 21q113 0 113 -59q0 -23 -18 -49z" />
    <glyph glyph-name="Y" unicode="Y" horiz-adv-x="564" 
d="M445 142q-157 -151 -248 -151q-56 0 -58 40q-1 50 121 187q93 106 104 153q4 21 -6.5 31.5t-26.5 10.5q-86 0 -177 -89q-80 -78 -80 -130q0 -41 35 -42q18 -1 37 11l9 7q4 4 6 3q4 -4 -12 -16q-19 -13 -41 -13q-21 0 -35.5 13.5t-18.5 35.5q-6 36 13.5 81.5t57.5 76.5
q86 72 212 72q47 0 75 -15.5t27 -44.5q-1 -30 -25.5 -66t-71.5 -91q-116 -134 -122 -173q-1 -10 3.5 -14.5t13.5 -3.5q41 2 102 49q43 31 73 60t73 80q116 130 157 166q22 20 56.5 39t59.5 14q10 -1 13.5 -8t1.5 -16t-9 -18q-20 -27 -69 -66q-60 -50 -81 -70l-130 -178
l-87 -123q75 2 115.5 -31.5t32.5 -89.5q-1 -7 -3.5 -12t-4.5 -7t-3 -1q-2 1 -1 5l2 14q6 54 -33 85t-113 27q-51 -74 -105 -134q-69 -79 -149 -121.5t-132 -42.5q-23 0 -37 10t-12 32q3 40 47.5 89t101.5 87q88 61 196 83zM637 278l51 42q34 28 56 54q27 31 15 39t-48 -38z
M290 -76q-95 -23 -176 -79q-44 -30 -83.5 -79.5t-42.5 -89.5q-3 -25 18 -29q28 -4 65 18q57 36 128 134z" />
    <glyph glyph-name="Z" unicode="Z" horiz-adv-x="494" 
d="M472 329q-30 -18 -74 -30.5t-76 -14.5q-51 -2 -76.5 11t-23.5 45q2 35 42.5 59t89.5 26q15 0 15 -5q0 -1 -15 -3q-28 -2 -50 -13t-23 -27q-1 -19 16.5 -27.5t44.5 -10.5q84 -6 150 11q21 25 49 47q29 24 47 20q7 -2 9.5 -9t-2.5 -15q-6 -8 -19 -15.5t-34 -18l-29 -14.5
q-35 -28 -145 -105l-103 -71v-1q25 6 55 2q49 -6 76.5 -38.5t29.5 -87.5q31 18 63 45q15 12 17 10q4 -3 -11 -18q-26 -26 -68 -48q-4 -105 -140 -220q-82 -70 -204 -121.5t-191 -50.5q-63 2 -63 46q0 82 211 190q61 32 154.5 70t135.5 60q19 82 -10 114q-14 16 -40 21t-45 1
q-21 -18 -61 -43q-62 -39 -73 -21q-5 9 13 26.5t44 29.5q49 24 84 31l26.5 17.5l38 26.5l36.5 26zM327 -6q-40 -21 -134.5 -61t-146.5 -68l-58.5 -31.5t-53 -32.5t-50 -37t-31 -37t-13.5 -40q0 -18 14.5 -27t36.5 -9q61 0 150.5 47.5t159.5 119.5q108 111 126 176zM215 140
q-19 -1 -52 -17q-21 -10 -34 -20t-11 -15q5 -9 49 20q30 19 48 32z" />
    <glyph glyph-name="bracketleft" unicode="[" horiz-adv-x="268" 
d="M514 463l-6 -7q-28 -2 -62 -6q-13 -2 -18 -3t-11.5 -5.5t-12.5 -13.5l-76.5 -104.5t-105.5 -140.5q-23 -29 -193 -228q-23 -27 11 -30l59 -6l-3 -6h-140q3 3 37.5 51.5l80 110l85.5 112.5l228 276h127z" />
    <glyph glyph-name="backslash" unicode="\" horiz-adv-x="239" 
d="M142 -86h-1q-7 0 -10 13l-96 414q-4 19 19 39q12 9 20 1t10 -31q13 -122 63 -417q3 -19 -5 -19z" />
    <glyph glyph-name="bracketright" unicode="]" horiz-adv-x="268" 
d="M-5 -87h-126l5 7q31 2 62 6q13 2 18 3t11.5 5.5t12.5 13.5l80.5 109l102.5 136q23 29 193 228q12 17 9 22.5t-21 7.5l-59 6l4 6h140q-6 -7 -38.5 -52.5l-79 -108l-86.5 -112.5z" />
    <glyph glyph-name="asciicircum" unicode="^" horiz-adv-x="307" 
d="M216 257h1q2 0 7 -10q5 -11 27.5 -45t41.5 -58q5 -7 3 -9q-4 -4 -17 3q-13 6 -37.5 22t-39.5 32q-20 -13 -69.5 -34t-71.5 -28q-13 -3 -14 1q-2 3 8 10q98 64 146 108q10 8 15 8z" />
    <glyph glyph-name="underscore" unicode="_" horiz-adv-x="500" 
d="M445 -105v-40h-509v40h509z" />
    <glyph glyph-name="grave" unicode="`" horiz-adv-x="307" 
d="M227 349h1q19 0 22 -25q9 -60 12 -75q2 -13 1 -14q-4 -4 -12 6q-33 40 -50 69q-4 6 -4 14q0 12 9.5 18.5t20.5 6.5z" />
    <glyph glyph-name="a" unicode="a" horiz-adv-x="359" 
d="M237 144q19 20 28 23.5t39 3.5q32 0 32 -7q0 -3 -5 -9l-53 -66q-27 -36 -34 -49t0 -18q7 -6 25 2q15 6 42 28l49 42q10 10 13 6q3 -3 -9 -15q-22 -22 -60 -52q-57 -44 -100 -44q-39 0 -45 26q-4 17 9 35l-1 1q-70 -62 -128 -62q-60 0 -60 39q0 27 32 60l-1 1q-8 -7 -9 -8
q-13 -11 -16 -8q-2 4 7 13q19 18 39 31q30 20 71 38q50 21 97 21q22 0 30.5 -9.5t7.5 -22.5zM209 164h-1q-26 0 -94 -66q-57 -57 -55 -79q1 -10 13 -10q14 0 38.5 14t45.5 33q25 23 47.5 51t23.5 39q1 18 -18 18z" />
    <glyph glyph-name="b" unicode="b" horiz-adv-x="373" 
d="M346 135q-5 -49 -62 -94q-29 -22 -70 -35.5t-76 -13.5h-1q-49 0 -49 23q0 13 14 21t48 17q79 23 80 23q24 30 31 50q11 30 -9 30q-29 0 -87 -45q-64 -49 -112 -101q-11 -11 -44 -13q-39 -2 -40 7q0 3 3 8q12 21 44 67l32 43l-1 1l-35 -32q-17 -15 -20 -11t9 14
q34 31 67 57q48 65 116 147q118 141 247 230q63 44 106 41q34 -2 31 -36q-5 -82 -187 -212q-22 -16 -72 -49.5l-85 -58t-46 -34.5l-73 -100l2 -1q65 53 84 64q52 34 102 34q29 0 42 -11.5t11 -29.5zM128 6q23 2 48 17q27 17 46 42q-5 -3 -16.5 -6.5t-26 -7t-19.5 -5.5
q-29 -9 -40.5 -15.5t-10.5 -15.5q1 -11 19 -9zM190 200l73 56.5t95 75.5q76 64 127 121t55 86q3 19 -16 19q-26 0 -68 -40q-31 -30 -125 -143q-78 -92 -141 -175z" />
    <glyph glyph-name="c" unicode="c" horiz-adv-x="249" 
d="M63 -9h-1q-35 0 -53.5 13t-19.5 34q-1 25 24 52l-1 1q-1 -1 -5.5 -5t-5.5 -5q-13 -11 -16 -8q-2 4 7 13q18 16 33 27q25 19 52 31q66 32 113 32q25 0 38.5 -11t10.5 -28q-3 -16 -15 -27.5t-25 -11.5q-15 0 -19.5 11t4.5 25q17 28 16 30q-1 1 -4 2q-17 4 -62 -42
q-51 -51 -56 -89q-3 -23 23 -23q36 0 91 36q27 18 57 45q9 9 13 5q3 -3 -11 -16q-26 -24 -54 -43q-70 -48 -134 -48z" />
    <glyph glyph-name="d" unicode="d" horiz-adv-x="359" 
d="M209 164h-1q-26 0 -94 -66q-57 -57 -55 -79q1 -10 13 -10q14 0 38.5 14t45.5 33q25 23 47.5 51t23.5 39q1 18 -18 18zM102 155q50 21 97 21q23 0 31.5 -11t4.5 -25l1 -1q47 65 128 159q65 76 113 119q27 24 65 24q27 0 29 -9q-31 -30 -114 -124q-34 -39 -126 -153
q-75 -93 -87 -115q-7 -13 0 -18q7 -6 25 2q15 6 42 28t49 42q10 10 13 6q3 -3 -7 -13q-24 -24 -62 -54q-57 -44 -100 -44q-39 0 -45 26q-4 17 9 35l-1 1q-70 -62 -128 -62q-60 0 -60 39q0 26 32 60l-1 1q-7 -6 -9 -8q-13 -11 -16 -8q-2 4 7 13q15 15 39 31q30 20 71 38z" />
    <glyph glyph-name="e" unicode="e" horiz-adv-x="249" 
d="M95 9q38 0 97 39q33 22 59 47q8 6 11 3q3 -4 -12 -17q-26 -24 -57 -45q-61 -42 -125 -45q-79 -4 -79 47q0 26 24 52l-1 1q-2 -2 -6 -5.5t-5 -4.5q-13 -11 -16 -8q-2 4 7 13q17 16 32 26q26 19 52 32q66 32 121 32h1q52 0 50 -31t-67 -62q-48 -23 -105 -31q-6 -10 -6 -21
q0 -22 25 -22zM81 62q33 4 70 31q38 30 45 58q3 15 -10 15q-21 0 -59 -42q-31 -34 -46 -62z" />
    <glyph glyph-name="f" unicode="f" horiz-adv-x="197" 
d="M526 569h1q43 0 30 -42q-8 -27 -60 -86t-130 -119q-97 -75 -181 -128q-84 -104 -147 -191q16 4 45 16q28 12 63 35q24 16 51 40q11 9 14 6t-14 -19q-31 -27 -59 -44q-32 -19 -78 -39q-20 -9 -25 -16q-7 -10 -14 -32q-30 -106 -76 -190q-24 -43 -58.5 -83.5t-66.5 -64.5
q-31 -24 -59 -19q-38 7 -30 51q6 35 47 109.5t95 147.5q24 33 162 211l-1 1l-24 -23q-14 -12 -17 -9q-3 4 6 12l60 53q78 101 123 153q101 118 186 191q96 79 157 79zM196 210q20 13 73 53.5t84 68.5q124 115 174 202q7 11 5 19.5t-13 7.5q-22 -1 -64 -43q-33 -31 -126 -142
zM20 -25q-58 -73 -127 -176q-85 -128 -98 -162q-6 -17 2 -21q7 -4 24 9q49 37 110 144q51 90 89 206z" />
    <glyph glyph-name="g" unicode="g" horiz-adv-x="360" 
d="M80 -80q-10 -6 -69 -38.5t-114 -68.5q-68 -45 -113 -92.5t-49 -84.5q-2 -25 15 -28q23 -6 63 17q74 41 183 180q17 21 84 115zM209 164h-1q-26 0 -94 -66q-57 -57 -55 -79q1 -10 13 -10q14 0 38.5 14t45.5 33q25 23 47.5 51t23.5 39q1 18 -18 18zM102 155q50 21 97 21
q22 0 31.5 -11t5.5 -23l1 -1q21 22 31 26t39 4t29 -8q-1 -3 -4 -7l-53 -67l-84 -113q57 30 116 76q22 17 50 42q9 9 12 4q3 -3 -10 -15q-21 -19 -60 -49q-51 -38 -120 -77q-51 -80 -83 -122q-61 -81 -136 -137.5t-147 -85.5q-42 -18 -79 -18q-56 0 -56 42q0 77 196 190
q48 28 113.5 60t97.5 52q16 21 74 108l-1 1q-66 -58 -123 -58q-60 0 -60 39q0 26 32 60l-1 1q-7 -6 -9 -8q-13 -11 -16 -8q-2 4 7 13q19 18 39 31q30 20 71 38z" />
    <glyph glyph-name="h" unicode="h" horiz-adv-x="393" 
d="M187 196l171 136q76 64 127 121t55 86q3 19 -16 19q-26 0 -68 -40q-31 -30 -125 -143q-77 -91 -144 -179zM338 34q-56 -41 -98 -42q-32 -1 -42.5 12t-7.5 30q3 18 34 56l40 49q8 10 -2 13q-9 3 -31 -8q-26 -14 -69 -48l-111 -91q-6 -5 -47 -9q-23 -1 -29 2t-1 14
q13 28 41 67q14 19 35 45l-1 1l-49 -45q-7 -7 -10 -2q-3 4 11 16l66 57q56 74 117 147q118 141 247 230q61 41 106 41q15 0 23.5 -10t7.5 -26q-3 -43 -55.5 -99t-131.5 -113l-73.5 -51l-86.5 -59.5t-43 -31.5q-15 -18 -95 -131l2 -2q30 27 87 71q78 59 132 59q22 0 33 -8.5
t10 -23.5q-2 -19 -36 -61q-25 -32 -30 -40q-11 -17 -2 -23q8 -5 25 5q20 11 41 27q18 14 50 43q9 7 12 4t-3 -9q-39 -36 -66 -56z" />
    <glyph glyph-name="i" unicode="i" horiz-adv-x="209" 
d="M246 310h1q16 0 20.5 -10t-7.5 -26q-13 -16 -35 -28t-34 -12q-13 22 -1 49t56 27zM105 154q-25 -9 -64 -39q-19 -15 -41 -35q-12 -10 -15 -7t7 13q41 37 72 57q46 29 92 29q40 0 40 -8q0 -3 -5 -8q-34 -37 -58 -67q-22 -27 -33 -49q-9 -18 -3 -22q5 -4 21 4q19 10 44 30
q2 2 47 41q11 9 14 6t-8 -13q-29 -29 -59 -52q-58 -44 -106 -44q-44 0 -44 29q0 16 14 38q14 25 43.5 58t41.5 39z" />
    <glyph glyph-name="j" unicode="j" horiz-adv-x="223" 
d="M125 160q-7 0 -20 -6q-32 -14 -64 -39q-18 -14 -42 -36q-10 -9 -13 -6q-4 3 6 13q41 37 72 57q46 29 91 29q52 0 52 -10q0 -3 -3 -6q-30 -32 -58 -67q-36 -44 -80 -103q46 20 95 56q21 15 63 52q9 9 13 5q3 -3 -12 -17q-31 -29 -59 -49q-45 -34 -110 -65
q-57 -86 -147 -185q-69 -76 -165 -132.5t-148 -56.5q-30 0 -47 9t-16 33q5 84 208 198l210 113q9 12 36 51l43 61q63 86 95 101zM-59 -70q-78 -40 -194 -117q-68 -45 -112.5 -92.5t-48.5 -84.5q-2 -24 16 -28q23 -6 63 18q78 45 183 179q64 82 93 125zM251 310h1
q16 0 20.5 -10t-7.5 -26q-13 -16 -35 -28t-34 -12q-13 22 -1 49t56 27z" />
    <glyph glyph-name="k" unicode="k" horiz-adv-x="386" 
d="M50 124l-1 1l-49 -45q-7 -7 -10 -2q-3 4 11 16l66 57l117 147q118 141 247 230q61 41 106 41q16 0 24.5 -10t6.5 -26q-8 -84 -187 -212q-22 -16 -72 -49.5l-85 -58t-46 -34.5q-26 -31 -97 -132l1 -1q74 66 86 75q38 29 67 42q31 13 66 13q24 0 37.5 -9t13.5 -23
q0 -23 -44 -31q-38 -6 -45 -14q-8 -9 -6 -44q3 -34 17 -37q9 -1 26 8q19 11 38 26q26 21 50 43q9 7 12 4t-12 -17q-29 -27 -57 -49q-53 -41 -105 -41q-30 0 -42 11.5t-10 37.5q3 37 22 54q10 9 47 14q16 3 26 14q5 6 7 16.5t-5 16.5q-11 6 -37 -5q-27 -12 -74 -50
q-14 -11 -53 -47t-56 -47q-13 -9 -47 -11q-17 -1 -24.5 0.5t-8 5.5t2.5 10q11 24 41 67q9 13 35 45zM187 196l171 136q76 64 127 121t55 86q3 19 -16 19q-26 0 -68 -40q-31 -30 -125 -143q-77 -91 -144 -179z" />
    <glyph glyph-name="l" unicode="l" horiz-adv-x="204" 
d="M50 124l-1 1l-49 -45q-7 -7 -10 -2q-3 4 11 16l66 57q44 58 122 147q52 62 109 115q31 29 70 29q26 0 32 -11q-17 -14 -65.5 -66.5t-86.5 -98.5q-56 -67 -106.5 -136t-56.5 -89q-6 -16 2 -21q7 -4 17 0q21 8 52 32q23 18 50 43q9 7 12 4q2 -3 -11 -16q-26 -26 -58 -49
q-61 -45 -110 -45q-46 0 -46 34q0 37 57 101z" />
    <glyph glyph-name="m" unicode="m" horiz-adv-x="633" 
d="M43 129q60 47 99 47q41 0 41 -27q0 -15 -22 -44q-13 -18 -46 -57l2 -2q42 35 95 73l39 26.5t39 19.5t48 11q26 0 34 -10.5t6 -24.5q-3 -20 -32 -57l-28 -36l2 -2q26 23 91 71q81 59 133 59q22 0 33 -8.5t10 -23.5q-2 -19 -36 -61q-25 -32 -30 -40q-11 -17 -2 -23
q8 -5 25 5q22 12 43 29q19 15 48 41q9 7 12 4t-3 -9q-39 -36 -66 -56q-56 -41 -98 -42q-31 -1 -42 11t-8 29q4 22 34 58l40 49q8 10 -2 13q-9 3 -31 -9q-20 -11 -70 -47q-61 -45 -114 -89q-12 -9 -50 -11q-23 -1 -27.5 2.5t-0.5 13.5q7 17 53 78l36 49q6 9 -1 13
q-8 3 -30 -9q-23 -13 -66 -45l-115 -89q-12 -10 -50 -13q-23 -1 -29 2t-1 14q10 21 46 67q5 7 20.5 26t22.5 29t2 14q-4 2 -15 -4q-16 -10 -36 -25q-25 -20 -45 -38q-13 -12 -17 -8q-2 3 7 12q26 24 52 44z" />
    <glyph glyph-name="n" unicode="n" horiz-adv-x="435" 
d="M282 -8q-32 -1 -42.5 11.5t-7.5 29.5q3 19 34 57q38 46 40 49q8 10 -2 13q-9 3 -31 -8q-32 -17 -72 -46q-48 -34 -115 -89q-12 -10 -50 -13q-23 -1 -29 2t-1 14q10 21 46 67q5 7 20.5 26t22.5 29t2 14q-5 3 -16 -4q-20 -13 -35 -25q-25 -20 -45 -38q-13 -12 -17 -8
q-2 3 7 12q32 30 52 45q59 46 100 46q40 0 40 -27q0 -15 -22 -44q-13 -18 -46 -57l2 -2q32 28 95 73q81 57 134 57q22 0 33 -8.5t10 -23.5q-1 -17 -36 -61q-25 -32 -30 -40q-11 -17 -2 -23q8 -5 25 5q23 12 41 27q18 14 50 43q9 7 12 4t-3 -9q-39 -36 -66 -56
q-55 -41 -98 -42z" />
    <glyph glyph-name="o" unicode="o" horiz-adv-x="315" 
d="M18 96q-2 -1 -4 -3.5t-6 -5.5t-7 -6q-14 -12 -17 -9q-2 4 6 12q13 13 34 28q13 10 38 24q71 40 126 40q27 0 27 -7l-16 -8q-31 -15 -72 -55q-21 -21 -39 -48.5t-18 -43.5q0 -13 13 -13q35 0 101 64q-2 21 15 47q9 12 33 32q0 7 -2 13q-1 3 -2.5 6.5t-1.5 4.5t1 3
q5 5 26 -8q20 -12 20 -35q0 -41 -56 -87q3 -3 11 -3q19 0 40 16t49 41q7 7 11 4t-1 -8q-33 -30 -55 -46q-25 -17 -46 -17q-13 0 -19 6q-20 -16 -60.5 -29.5t-69.5 -13.5q-80 0 -82 50q-2 28 24 54z" />
    <glyph glyph-name="p" unicode="p" horiz-adv-x="400" 
d="M101 173l-101 -93q-11 -9 -14 -6q-2 4 5 11l76 70l88 80q28 23 60 23q20 1 24.5 -4.5t-7.5 -20.5q-119 -144 -256 -331q-102 -137 -179 -257q-10 -16 -6 -20q5 -3 12 6q14 16 79 108q14 21 115 155q60 81 120 152q45 54 88 86q62 44 106 44q25 0 36.5 -9.5t9.5 -24.5
q-1 -5 -3 -10.5t-7.5 -13l-8.5 -11.5l-10.5 -13.5t-9.5 -11.5q-22 -26 -31 -41t-3 -20q7 -6 24 3q21 11 44 28q15 12 48 41q10 11 14 7t-3 -10q-41 -38 -66 -56q-59 -42 -104 -42q-42 0 -44 30q-1 23 34 68q13 16 43 50q8 11 -1 13q-8 3 -21 -4q-51 -26 -103 -83
q-62 -69 -147 -182l-121 -165q-63 -93 -87 -113q-18 -16 -48 -16q-32 0 -32 27q0 28 38 84l138 197q103 141 211 275z" />
    <glyph glyph-name="q" unicode="q" horiz-adv-x="347" 
d="M199 176q23 -1 31 -11t7 -21l9 9t8.5 6.5t7.5 4.5t7.5 3.5l6 2t7 1t7 0.5h8.5h9q32 0 30 -10q-1 -3 -3 -6q-25 -29 -62 -77l-133 -177q-117 -160 -178 -256q-12 -18 -4 -21q4 -1 14 10q11 12 73 100q62 89 113 154q58 74 127 146q27 27 63 59q11 9 14 6t-11 -16
q-51 -47 -59 -56q-69 -71 -126 -145q-49 -63 -119 -164q-60 -85 -68 -95q-27 -33 -67 -33q-33 0 -33 27q0 24 35 81q42 66 140 199l116 154l-1 1q-70 -62 -129 -63q-60 0 -60 39q0 25 32 60l-1 1q-7 -6 -9 -8q-13 -11 -16 -8q-2 4 7 13q19 18 39 31q30 20 71 38q50 21 97 21
zM209 164h-1q-26 0 -94 -66q-57 -57 -55 -79q1 -10 13 -10q14 0 38.5 14t45.5 33q25 23 47.5 51t23.5 39q1 18 -18 18z" />
    <glyph glyph-name="r" unicode="r" horiz-adv-x="242" 
d="M199 145v-1q0 -12 -35 -55q-23 -29 -34 -47q-9 -15 -3 -21t22 2q20 10 45 29q20 16 49 42q9 10 13 6q3 -3 -8 -14q-23 -23 -60 -52q-52 -40 -94 -42q-60 -4 -60 33q0 29 44 66q63 51 65 57q1 4 -1 6t-8.5 2.5t-13 0.5t-17.5 -1q-16 -1 -23 2q-22 -24 -39 -40l-41 -38
q-12 -10 -15 -7q-4 4 5 11l44 40q22 21 38 38q-7 5 -7.5 15t8.5 20q17 19 45 19q24 0 32 -10q-12 -8 -20 -18q-17 -21 3 -23q3 0 11.5 -0.5t13 -1t11.5 -1.5t11.5 -2.5l9 -3t7 -4.5t2.5 -7z" />
    <glyph glyph-name="s" unicode="s" horiz-adv-x="264" 
d="M160 22q18 6 41 21q27 17 65 52q10 8 13 5t-4 -10q-37 -34 -62 -51q-29 -20 -74 -34q-47 -14 -98 -14q-39 0 -62.5 17t-22.5 42q1 24 16.5 38t33.5 14q32 0 32 -23q0 -13 -15 -25q-16 -13 -16 -29q1 -22 26 -22q34 0 64 49q12 19 27.5 60.5t19.5 47.5l-1 1
q-12 -12 -44 -36q-33 -24 -48 -33q-10 -6 -12 -3q-2 4 7 10q16 10 45 32q32 24 60 48q7 14 16 24q12 13 31 13q12 0 17 -3.5t1.5 -10.5t-16.5 -16q-3 -2 -11.5 -7t-12.5 -8q-11 -11 2 -30q26 -40 9 -82q-9 -22 -27 -37z" />
    <glyph glyph-name="t" unicode="t" horiz-adv-x="205" 
d="M44 120l-44 -40q-12 -10 -15 -7t8 14q63 56 79 72q-12 0 -34 -2q-4 0 -6 -0.5t-4 0t-2.5 1.5t-0.5 3q1 5 26 7q12 1 30 1l93 103q42 44 83 44q26 0 33 -9q-17 -13 -61 -65q-32 -37 -60 -74q31 1 56 0q2 0 4.5 -0.5l5 -1t4 -1.5t0.5 -3q-2 -4 -18 -4q-37 0 -60 -1
q-47 -57 -73 -110q-11 -21 -3 -27t28 4t45 29q11 8 49 42q10 8 13 5t-2 -8q-42 -40 -67 -58q-62 -44 -110 -44q-45 0 -47 31q-1 30 50 99z" />
    <glyph glyph-name="u" unicode="u" horiz-adv-x="402" 
d="M105 154q-25 -9 -64 -39q-19 -15 -41 -35q-11 -10 -14 -7q-4 3 6 13q41 37 72 57q46 29 89 29q38 0 38 -7q0 -4 -5 -9l-57 -68q-27 -33 -38 -54q-7 -12 -1 -17q6 -4 23 4q26 13 75 51q24 19 58 50.5t45 40.5q14 11 47 11q38 0 38 -6q0 -3 -5 -10q-30 -37 -52 -70t-29 -45
q-9 -16 -2 -22t25 3q17 8 40 27q29 24 51 44q8 8 12 4q3 -4 -12 -17q-25 -24 -57 -49q-54 -44 -99 -44q-55 0 -50 43q1 16 16 36l19 25l-2 2q-25 -22 -58 -47q-77 -58 -126 -58q-45 0 -45 32q0 16 17 41t44.5 54.5t41.5 36.5z" />
    <glyph glyph-name="v" unicode="v" horiz-adv-x="337" 
d="M262 46q-21 2 -29 18q-14 -10 -42 -24q-49 -24 -80 -33q-53 -16 -82 -16q-23 0 -24 14q-1 9 9 19l49 55q34 40 39 60q3 11 -2 14q-5 4 -19 -4q-16 -10 -33 -25q-21 -18 -37 -34q-16 -14 -19 -12q-4 4 8 15q18 18 42 39q1 1 7 6t8 6.5t8.5 6t10 6.5l10 6t11.5 5.5t11 3.5
t12.5 3t13.5 1q53 0 51 -42q-1 -25 -31 -61q-30 -37 -61 -60q38 9 93 37q26 13 42 27q-2 26 15 56q24 44 60 41q12 -1 15 -12t-6 -27q-19 -31 -70 -65q5 -12 22 -14q21 -1 49 17q6 4 15 12l9 8q7 6 10 3t-7 -13t-25 -20q-28 -19 -53 -17z" />
    <glyph glyph-name="w" unicode="w" horiz-adv-x="521" 
d="M49 -8h-1q-44 0 -44 32q0 16 17 41q18 26 44 55t39 36q-24 -9 -62 -39q-13 -10 -42 -37q-10 -9 -13 -6q-3 4 4 11q51 45 74 60q43 29 90 29q34 0 34 -8q0 -3 -4 -8l-53 -67q-23 -29 -39 -53q-9 -14 -4 -19q4 -6 22 3q38 20 70 44q37 28 104 90q12 11 62 11q25 0 26 -6
q0 -2 -2 -5q-49 -63 -50 -64q-22 -30 -33 -51q-10 -19 -1 -26q7 -6 28 2q28 10 58 32q24 17 33 31q0 32 14 55q30 49 60 41q10 -5 8 -16.5t-11 -25.5q-21 -32 -57 -61q6 -18 32 -18q20 0 44 17q6 4 26 22q13 11 16 8t-3 -9q-15 -15 -31 -27q-25 -20 -53 -20t-39 20
q-18 -16 -31 -24q-71 -50 -136 -50q-49 0 -49 32q0 16 12 36q14 21 33 40l-2 2q-38 -33 -71 -57q-72 -53 -119 -53z" />
    <glyph glyph-name="x" unicode="x" horiz-adv-x="351" 
d="M110 49q-47 -57 -84 -57q-21 0 -33 10.5t-11 28.5q2 17 13 29t26 12q13 0 20 -8.5t4 -19.5q-2 -7 -11 -14.5t-10 -10.5q-3 -8 8 -10q17 -2 41 17.5t45 50.5q26 35 29 57q3 18 -16 22q-29 6 -83 -35q-30 -24 -48 -41q-12 -10 -15 -7q-4 4 7 13q35 33 61 51q58 39 106 39
q28 0 46 -15t15 -44l1 -1q52 60 94 60q18 0 27 -10t7 -28q-1 -13 -11 -22.5t-22 -9.5q-7 0 -13 4.5t-5 13.5q1 6 4.5 11.5t3.5 7.5q0 8 -12 8q-23 0 -49 -24q-14 -13 -37 -44q-18 -26 -21 -44q-3 -23 16 -26q31 -5 90 34q25 17 49 38q13 11 16 8q2 -4 -5 -11
q-25 -24 -54 -44q-65 -45 -115 -46q-41 -1 -58.5 14.5t-15.5 42.5z" />
    <glyph glyph-name="y" unicode="y" horiz-adv-x="396" 
d="M266 124l-2 1q-9 -9 -33 -30q-24 -22 -58 -47q-77 -58 -126 -58q-45 0 -45 32q0 16 17 41q19 27 45 55.5t41 35.5q-25 -9 -64 -39q-18 -14 -42 -36q-10 -9 -13 -6q-4 3 6 13q41 37 72 57q46 29 89 29q38 0 38 -7q0 -4 -5 -9l-57 -68q-23 -29 -38 -55q-7 -13 -2 -17
q6 -4 24 5q26 13 75 51q24 19 58 50.5t45 40.5q14 11 59 11q38 0 38 -6q0 -3 -5 -10q-20 -23 -64 -80l-132 -177q-127 -173 -177 -256q-12 -19 -7 -21q5 -3 13 7q6 7 80 110l110 147q58 74 127 146q27 27 63 59q10 9 13 6q4 -4 -10 -16q-51 -47 -59 -56q-63 -65 -126 -145
l-120 -163q-74 -104 -87 -114q-21 -17 -49 -16q-31 1 -31 28q0 31 37 84l138 196z" />
    <glyph glyph-name="z" unicode="z" horiz-adv-x="280" 
d="M50 36q12 4 31 4q61 0 78 -33q24 12 59 36q26 18 63 51q10 8 13 5t-3 -9q-33 -31 -69 -56q-30 -20 -59 -35q3 -9 3 -19q-1 -95 -164 -236q-62 -55 -155 -102t-138 -47q-51 0 -51 37q0 63 155 177q25 18 57.5 38.5l54 33l53 30t39.5 22.5q67 38 73 42q6 26 -1.5 40
t-22.5 14q-35 0 -72 -37q-8 -8 -12 -5q-8 6 0 17q11 17 39 30q7 3 44 20t60 29q50 25 81 53q7 7 4 11q-1 1 -8 -3q-44 -32 -87 -32q-45 0 -58 26q-25 -29 -57 -58q-12 -10 -15 -7q-4 4 6 12q25 23 62 63q-2 17 10 32t36 15q17 0 20 -10q-16 0 -17 -11q-2 -20 52 -20
q52 0 88 12q17 5 22 1q6 -6 -6 -23q-28 -40 -88 -68q-17 -8 -62.5 -21t-57.5 -19zM-287 -394h1q39 0 101.5 46t123.5 111q44 45 89.5 105.5t58.5 94.5l-66 -38q-105 -59 -193 -126q-130 -98 -137 -166q-2 -27 22 -27z" />
    <glyph glyph-name="braceleft" unicode="{" horiz-adv-x="322" 
d="M584 463l-8 -8q-5 0 -18 0.5t-20 0.5q-82 0 -115 -38q-16 -18 -52.5 -83t-73.5 -98q-33 -29 -92 -31q15 -13 16 -36.5t-18 -51.5l-42.5 -55.5t-43.5 -58.5q-39 -59 30 -78q14 -5 44 -7l-4 -6q-55 0 -78 5q-49 10 -57 41.5t33 90.5q5 6 20.5 26l29 38t22.5 33
q14 27 7.5 44t-25.5 21l1 2q24 0 53 8t45 24q19 19 34 40t31.5 50t22.5 38q29 46 67.5 68.5t105.5 22.5z" />
    <glyph glyph-name="bar" unicode="|" horiz-adv-x="161" 
d="M99 750v-1000h-37v1000h37z" />
    <glyph glyph-name="braceright" unicode="}" horiz-adv-x="322" 
d="M253 458l5 5q59 0 78 -4q48 -10 56.5 -41.5t-32.5 -91.5l-32.5 -39.5t-39.5 -51.5q-13 -22 -6 -39.5t27 -20.5l-1 -2q-22 3 -52.5 -9.5t-49.5 -32.5q-18 -19 -33.5 -41t-31.5 -49l-23 -38q-28 -46 -67 -68.5t-106 -22.5l-84 2l6 7h40q82 0 115 38q16 18 52.5 83t73.5 98
q45 38 99 40q-16 11 -20 31.5t13 47.5l42.5 54t45.5 60q38 57 -31 78q-19 5 -44 7z" />
    <glyph glyph-name="asciitilde" unicode="~" horiz-adv-x="307" 
d="M237 237h1q31 0 48.5 -26t21.5 -55q1 -7 -2 -9q-2 -1 -4 3q-1 2 -2 3q-22 31 -65 28q-14 -1 -48.5 -12t-53.5 -11q-49 0 -65 53q-3 9 0 10q2 1 6 -4q13 -17 48 -15q17 1 55 18t60 17z" />
    <glyph glyph-name="uni00A0" unicode="&#xa0;" horiz-adv-x="500" 
 />
    <glyph glyph-name="exclamdown" unicode="&#xa1;" horiz-adv-x="277" 
d="M178 104h-1q-16 0 -20 10.5t7 24.5q12 15 33 26t33 12q11 -18 1 -48q-8 -25 -53 -25zM-91 -171h-1q-12 0 -11 5q1 7 19 30q11 14 23.5 27.5t30 29.5l28.5 26t34.5 29.5l32 27t37.5 30.5l35 28q12 10 16 6q1 -1 -9 -15q-70 -87 -129 -176q-32 -48 -106 -48z" />
    <glyph glyph-name="cent" unicode="&#xa2;" horiz-adv-x="243" 
d="M227 202l-122 -156q8 -3 16 -1q34 4 71 36q10 7 12 5q3 -3 -6 -12q-46 -44 -105 -44l-45 -56q-7 -8 -10 -6q-3 3 3 10l37 53q-49 8 -55 41q-4 21 8 44.5t32 40.5q71 61 153 55l13 18q17 21 25 20q7 -3 -9 -25l-12 -16q37 -8 30 -40q-3 -13 -15 -23t-22 -10
q-13 0 -16.5 10.5t5.5 22.5q20 28 12 33zM94 52l116 152q-24 -6 -61 -40q-21 -18 -39 -47.5t-20 -45.5q-2 -13 4 -19z" />
    <glyph glyph-name="sterling" unicode="&#xa3;" horiz-adv-x="510" 
d="M631 301q1 -16 -20 -36t-60 -35q-58 -21 -111 -19q-22 -26 -25 -29q-24 -27 -38 -41q38 -2 68 -3q14 0 14 -4t-14 -5q-33 -2 -80 -4q-55 -49 -116 -76q66 -14 96 -13q59 2 97 25q11 6 12 6q4 -2 -3 -9q-68 -68 -138 -68q-41 0 -115 26q-53 -25 -145 -25q-33 0 -64 7
t-31 22q0 20 35.5 33t96.5 12q60 0 144 -13q15 11 30 26t27 29.5t15 17.5q-19 0 -51.5 -0.5t-62.5 -0.5q-24 0 -24 10q0 11 23 11q67 0 127 -3l34 38q5 6 15.5 16.5t14.5 15.5q-48 6 -71.5 26.5t-21.5 50.5q2 18 13.5 32t27.5 18q10 2 11 -1q1 -1 -4 -3q-3 0 -5 -1
q-31 -10 -33 -45q-1 -26 23 -40t63 -20l11 -1q41 43 101 69t101 26q32 0 33 -22zM621 300v1q0 14 -22 14q-64 0 -147 -88q39 4 83 17q41 12 63.5 27.5t22.5 28.5zM55 -1h1q83 0 131 21q-64 18 -119 19q-96 2 -100 -18q-2 -12 30.5 -17t56.5 -5z" />
    <glyph glyph-name="currency" unicode="&#xa4;" horiz-adv-x="350" 
d="M316 186v-1q0 -28 -17 -60.5t-40 -51.5l23 -45q6 -12 1 -15q-6 -3 -15 9l-28 37q-37 -27 -87 -28q-46 -1 -67 23q-11 -8 -41 -28q-15 -10 -20 -8q-3 4 9 16l41 35q-6 13 -6 27q0 60 60 109l-26 45q-6 12 0 15t16 -10q5 -6 28 -38q37 28 87 29q44 1 67 -22l37 27
q16 11 21 8q7 -4 -9 -17l-39 -34q5 -10 5 -22zM268 184v1q0 22 -11.5 35t-32.5 12q-42 -2 -75 -47t-33 -92q0 -24 10 -38t32 -13q42 3 76 51.5t34 90.5z" />
    <glyph glyph-name="yen" unicode="&#xa5;" horiz-adv-x="405" 
d="M208 119q115 101 199 147q109 60 185 50q6 -1 10.5 -3.5t6.5 -5t1 -3.5q-2 -1 -2.5 0t-5.5 2t-11 1q-55 0 -165 -61q-74 -40 -183 -121q21 -1 62 -1.5t63 -0.5q18 0 18 -6q0 -5 -18 -5q-127 -2 -145 -3q-7 -3 -17 -11l-23 -20q80 0 123 -1q18 0 18 -4q0 -6 -18 -6
q-10 0 -61.5 -1.5t-81.5 -2.5l-82 -75q-5 -4 -20 -7t-19 -1q-3 2 7 17q35 47 51 65h-50l-28 -1q-26 0 -26 5q0 16 26 16q5 0 36 -0.5t53 -0.5q7 8 13 16l9 11q-32 -1 -96 -1q-25 0 -25 6q0 7 7.5 11t15.5 4q36 0 110 -2q34 49 52 91q16 39 14 57q-2 22 -29 22q-35 0 -68 -24
q-9 -7 -10 -6q-4 4 3 10q40 45 110 45q54 0 66 -33q11 -27 -5 -67q-19 -49 -70 -102z" />
    <glyph glyph-name="brokenbar" unicode="&#xa6;" horiz-adv-x="161" 
d="M99 675v-350h-37v350h37zM62 175h37v-350h-37v350z" />
    <glyph glyph-name="section" unicode="&#xa7;" horiz-adv-x="369" 
d="M51 -104h-1q-37 0 -59 19t-17 46q3 18 15.5 29t28.5 11t23.5 -10.5t4.5 -23.5q-2 -8 -11.5 -18t-10.5 -17q-2 -11 7 -19t24 -8q23 0 39.5 10.5t23.5 25.5q15 33 -7 85q-22 57 -7 94q26 64 107 64q-13 36 -1 68t43.5 51t67.5 18q25 -1 41.5 -15t11.5 -37q-3 -14 -13 -23.5
t-24 -9.5t-21.5 10.5t-0.5 25.5q3 7 9 15t6 12q0 13 -19 13q-40 0 -54 -37q-11 -29 6 -71q24 -62 10 -101q-11 -32 -42 -48.5t-66 -19.5q11 -39 2 -67q-12 -34 -46 -53t-70 -19zM214 175q-46 3 -65 -41q-13 -30 5 -72l7 -17q47 2 63 40q14 30 -4 73q-5 12 -6 17z" />
    <glyph glyph-name="dieresis" unicode="&#xa8;" horiz-adv-x="307" 
d="M218 318h1q16 0 20 -10t-7 -23q-24 -28 -63 -37q-10 19 -1 45q9 25 50 25zM328 318h1q16 0 20 -10t-7 -23q-24 -28 -63 -37q-10 19 -1 45q9 25 50 25z" />
    <glyph glyph-name="copyright" unicode="&#xa9;" horiz-adv-x="509" 
d="M266 290h1q63 0 109.5 -46t46.5 -109t-46.5 -108.5t-110.5 -45.5t-110.5 45.5t-46.5 108.5q0 64 46.5 109.5t110.5 45.5zM266 271h-1q-55 0 -95 -40.5t-40 -95.5t40 -95.5t96 -40.5t96 40.5t40 95.5t-40 95.5t-96 40.5zM338 163h-15q-2 41 -44 41q-50 0 -50 -68t48 -68
q38 0 50 34h12q-3 -20 -4 -24q-4 -15 -14 -19q-21 -8 -46 -8q-37 0 -64.5 21.5t-27.5 60.5t28 62.5t68 23.5q30 0 44 -8q15 -8 15 -26v-22z" />
    <glyph glyph-name="ordfeminine" unicode="&#xaa;" horiz-adv-x="281" 
d="M284 391q19 21 49 21q22 0 21 -5q0 -3 -3 -6q-57 -74 -60 -80q-6 -10 -1 -13q5 -4 17 3q13 7 27 18q17 13 33 29q6 6 9 5q4 -2 -4 -10q-23 -23 -41 -37q-39 -30 -73 -30q-25 0 -30 15q-4 13 7 26l-1 1q-46 -41 -89 -42q-21 -1 -32 6t-9 24q3 23 29 49t64 40q32 11 59 10
q28 -1 28 -24zM263 405h-1q-17 0 -64 -45q-39 -36 -39 -53q0 -7 8 -7q20 0 60 32q13 11 30 31t18 28q1 14 -12 14z" />
    <glyph glyph-name="guillemotleft" unicode="&#xab;" horiz-adv-x="312" 
d="M123 4q-3 -1 -9 7q-5 6 -68 76q-8 8 -7 12t13 8q84 33 119 55q7 5 8 4q5 -3 -1 -12q-28 -40 -68 -67q9 -27 15 -72q2 -10 -2 -11zM230 4q-3 -1 -9 7q-5 6 -68 76q-8 8 -7 12t13 8q84 33 119 55q7 5 8 4q5 -3 -1 -12q-10 -14 -29.5 -34.5t-38.5 -32.5q9 -27 15 -72
q2 -10 -2 -11z" />
    <glyph glyph-name="logicalnot" unicode="&#xac;" horiz-adv-x="457" 
d="M80 161v1q0 7 19 7q40 1 154 5t151 5q10 0 13.5 -5.5t-1.5 -9.5q-77 -86 -108 -126q-14 -17 -20 -13q-5 2 5 19q31 53 67 101q-160 5 -261 7q-19 0 -19 9z" />
    <glyph glyph-name="uni00AD" unicode="&#xad;" horiz-adv-x="262" 
d="M160 129q28 0 41 -17t11 -44q0 -7 -4 -7q-1 0 -5 4q-12 14 -46 14q-13 0 -39.5 -5t-47.5 -5q-29 0 -40 14q-1 1 -1.5 3t0.5 3t7 -1q7 -2 19 0q23 5 54 24q27 17 51 17z" />
    <glyph glyph-name="registered" unicode="&#xae;" horiz-adv-x="453" 
d="M370 281v-1q0 -54 -40.5 -93t-96.5 -39t-96.5 39t-40.5 94t40.5 94.5t96.5 39.5t96.5 -39.5t40.5 -94.5zM349 281v1q0 47 -34 81t-82 34t-82 -34t-34 -82t34 -82t82 -34t82 34t34 82zM326 223v-10h-9h-13h-9q-22 1 -43 30q-2 3 -9.5 13.5t-9.5 15.5h-5h-8v-18
q0 -18 4 -23.5t17 -5.5v-11h-76v11q14 0 16.5 5t2.5 25v59q0 15 -4 19.5t-15 4.5v11h71q55 0 55 -35q0 -21 -24 -32q13 -24 21 -34q16 -22 38 -25zM220 337v-54q19 -1 27 5.5t8 24.5q0 27 -35 24z" />
    <glyph glyph-name="macron" unicode="&#xaf;" horiz-adv-x="307" 
d="M321 277v-1q0 -6 -7 -13q-10 -10 -19 -10q-73 3 -134 0q-8 0 -9.5 1t1.5 6q18 22 29 24q70 9 124 6q15 -1 15 -13z" />
    <glyph glyph-name="degree" unicode="&#xb0;" horiz-adv-x="173" 
d="M143 278h1q20 0 35.5 -15.5t15.5 -36.5t-15.5 -36t-36.5 -15t-36.5 15t-15.5 36t15.5 36.5t36.5 15.5zM143 254h-1q-11 0 -19 -8t-8 -20t8 -20t20 -8t20 8t8 20t-8 20t-20 8z" />
    <glyph glyph-name="plusminus" unicode="&#xb1;" horiz-adv-x="359" 
d="M299 276h1q40 0 8 -32l-30 -31.5t-27 -28.5q57 -1 108 -4q16 0 16 -7q0 -6 -15 -6q-45 -2 -122 -4l-59 -62q-15 -15 -23 -11t1 16q4 6 20 27.5l21 28.5q-19 1 -54 0t-46 -1q-15 0 -20.5 3.5t-3.5 9.5q3 15 21 15q13 0 53.5 -1.5t62.5 -2.5q8 12 25.5 35l21.5 28
q21 28 41 28zM305 62q-2 -6 -20 -6q-162 -6 -231 -6q-17 0 -22.5 3t-4.5 9q3 18 24 18q225 -10 240 -10q7 0 11 -2t3 -6z" />
    <glyph glyph-name="two.superior" unicode="&#xb2;" 
d="M115 187q16 2 24 2q12 0 34 -4t26 -4q19 0 36 20q4 4 7 3q4 -2 0 -6q-38 -47 -68 -47q-18 0 -40 10q-25 11 -40 11q-19 0 -33 -9q-6 -4 -10 -12q-8 0 -4 10q2 5 8 9q9 6 68 33q33 14 58.5 35.5t29.5 39.5q2 10 -3 16t-15 6q-19 0 -38 -14q-17 -13 -19 -24
q-2 -9 3.5 -13.5t14.5 -2.5h6q1 -3 -5 -5q-7 -3 -17 -3q-21 1 -19 20q2 18 32 38q35 22 67 22q27 0 42 -9.5t11 -31.5q-6 -32 -66 -59q-13 -6 -46.5 -16.5t-43.5 -14.5z" />
    <glyph glyph-name="three.superior" unicode="&#xb3;" 
d="M186 249h1q21 0 35 -10q18 -12 10 -34q-7 -22 -45 -37q-36 -14 -70 -14q-49 2 -46 33q1 10 10 19.5t24 9.5q9 0 14.5 -5t4.5 -11q-1 -7 -11 -13q-14 -8 -14 -13q0 -10 16 -10q37 0 65 50q13 24 -3 27q-7 1 -15 -2t-9 -2q-2 7 9 10q26 7 45 20t19 26q0 14 -20 14
q-17 0 -31 -9q-13 -8 -17 -19q-3 -6 1 -14q3 -5 0 -6q-3 -3 -14 3q-9 6 -6 16q5 14 31 27q28 14 56 14q44 0 44 -23q0 -25 -41 -39q-14 -5 -43 -8z" />
    <glyph glyph-name="acute" unicode="&#xb4;" horiz-adv-x="307" 
d="M329 347q19 2 25 -11q7 -16 -11 -34q-29 -29 -85 -63q-10 -6 -14 -2q-2 2 7 13q21 26 51 74q12 22 27 23z" />
    <glyph glyph-name="mu" unicode="&#xb5;" horiz-adv-x="402" 
d="M113 21q26 13 75 51q24 19 58 50.5t45 40.5q14 11 47 11q38 0 38 -6q0 -3 -5 -10q-30 -37 -52 -70t-29 -45q-9 -16 -2 -22t25 3q17 8 40 27q29 24 51 44q8 8 12 4q3 -4 -12 -17q-25 -24 -57 -49q-54 -44 -99 -44q-55 0 -50 43q1 15 16 36q2 3 19 25l-2 2q-25 -22 -58 -47
q-25 -18 -37 -26t-39 -20t-50 -12q-11 0 -18 5.5t-7 13.5q-17 -22 -24 -35q-21 -38 -23 -56q-2 -17 6 -22q-9 -6 -25 -2q-21 6 -13 41q6 25 25 58q23 40 52 75q58 72 85 86q-25 -9 -64 -39q-18 -14 -42 -36q-10 -9 -13 -6q-4 3 6 13q41 37 72 57q46 29 89 29q38 0 38 -7
q0 -4 -5 -9l-57 -68q-27 -33 -38 -54q-7 -12 -1 -17q6 -4 23 4z" />
    <glyph glyph-name="paragraph" unicode="&#xb6;" horiz-adv-x="455" 
d="M603 400h1q20 0 36 -5.5t16 -12.5q0 -5 -5 -8t-12 -2q-10 2 -25 15q-8 7 -20 5q-45 -3 -117 -88q19 -7 24 -12q8 -6 5 -9q-2 -2 -8 3q-11 7 -27 11q-30 -34 -45 -55q-84 -115 -140 -170q-88 -91 -179 -91q-8 0 -16 2q-53 -37 -116 -37q-39 0 -63.5 16t-20.5 49
q2 20 17.5 31t33.5 9q13 -2 20.5 -11t4.5 -22q-2 -10 -15.5 -23.5t-12.5 -21.5q2 -18 37 -18q51 0 111 50q43 37 98 106q-65 15 -85 61t21 94q36 40 94.5 52.5t144.5 9.5q44 -2 72 -10q80 82 171 82zM386 314q-5 1 -19 1q-122 0 -179 -75q-24 -31 -28.5 -57.5t5 -41.5
t26.5 -22q3 3 9 11q84 109 127 146q32 28 59 38zM100 -10q5 -1 7 -1q39 0 107 68q15 15 31 33.5t27.5 33l32 41.5l33.5 44q56 71 87 101q-5 2 -14 3q-5 1 -10 -1t-11.5 -6t-13.5 -10.5l-13.5 -12.5t-15.5 -16l-16 -18l-17.5 -21l-17 -21.5t-19 -23.5t-18.5 -23
q-89 -115 -145 -159q-13 -11 -14 -11z" />
    <glyph glyph-name="periodcentered" unicode="&#xb7;" horiz-adv-x="155" 
d="M116 176h1q17 0 21.5 -11t-7.5 -27q-13 -16 -34.5 -27t-36.5 -14q-5 6 -5.5 21.5t4.5 29.5q10 28 57 28z" />
    <glyph glyph-name="cedilla" unicode="&#xb8;" horiz-adv-x="307" 
d="M24 -90h1q12 0 22.5 5.5t11.5 14.5q2 10 -4 16t-20 5q-5 0 -9 -2t-5.5 -2.5t-3.5 0.5q-3 3 2 9q26 29 48 45l14 -5q-21 -13 -33 -30q6 2 13 2q22 0 33 -10.5t9 -29.5t-23 -30t-53 -10q-40 1 -57 25q-10 14 -3 18q1 1 2.5 0t3.5 -3.5t4 -3.5q16 -14 47 -14z" />
    <glyph glyph-name="one.superior" unicode="&#xb9;" 
d="M211 287q-9 -5 -29 -18t-27 -16q-32 -14 -35 -4q0 1 38 19q21 10 55 30q32 20 47 20q14 0 -4 -20q-53 -61 -89 -117q-12 -18 -22.5 -23t-47.5 -10q-7 -1 -7 1q0 4 13 20q74 91 108 118z" />
    <glyph glyph-name="ordmasculine" unicode="&#xba;" horiz-adv-x="281" 
d="M188 286h-1q-57 0 -57 36q0 20 19 41.5t41 32.5q34 18 72 18q23 0 23 -4q0 -1 -11 -6q-19 -8 -50 -38q-15 -13 -26 -30.5t-12 -28.5q-2 -12 10 -12q28 0 67 43q2 19 10 31q9 14 23 23q0 6 -1 9t-2 5.5t-1.5 2.5t0.5 2q4 4 18 -5t14 -25q0 -25 -36 -59q3 -3 6 -3
q12 -1 25 8q22 16 34 30q7 7 9 4t-4 -9q-16 -17 -34 -30q-18 -12 -33 -11q-9 0 -12 5q-38 -30 -91 -30z" />
    <glyph glyph-name="guillemotright" unicode="&#xbb;" horiz-adv-x="312" 
d="M175 167q3 1 9 -7q5 -6 68 -76q8 -8 7 -12t-13 -8q-84 -33 -119 -55q-7 -5 -8 -4q-5 3 1 12q28 40 68 67q-9 27 -15 72q-2 10 2 11zM68 167q3 1 9 -7q29 -35 68 -76q8 -8 7 -12t-13 -8q-84 -33 -119 -55q-7 -5 -8 -4q-5 3 1 12q10 14 29.5 34.5t38.5 32.5q-9 27 -15 72
q-2 10 2 11z" />
    <glyph glyph-name="onequarter" unicode="&#xbc;" horiz-adv-x="440" 
d="M207 40q0 3 4 7q48 38 77 56q39 24 71 39q28 14 52 14q4 0 6 -2.5t0 -4.5q-12 -13 -27 -34l-29 -41t-16 -22q13 0 20 -1q6 -1 9 -3t2 -5q0 -3 -9 -3q-5 0 -15.5 0.5t-13.5 0.5q-5 -6 -9.5 -12l-9.5 -13l-8 -11q-8 -11 -50 -23q-10 -3 -10 2q0 4 8 16q15 24 30 41h-41
q-16 0 -34 -2q-7 -1 -7 1zM370 139l-71 -43l-35 -23.5l-28 -19.5v-1q34 2 61 1q48 59 73 86zM386 300q30 0 1 -26q-184 -166 -307 -308q-11 -13 -14 -11q-5 5 5 18q119 160 266 300q27 27 49 27zM166 235q-9 -5 -29 -18t-27 -16q-32 -14 -35 -4q-1 2 12 7q14 6 26 12
q21 10 55 30q32 20 47 20q14 0 -4 -20q-53 -61 -89 -117q-12 -18 -22.5 -23t-47.5 -10q-7 -1 -7 1q0 4 13 20q74 91 108 118z" />
    <glyph glyph-name="onehalf" unicode="&#xbd;" horiz-adv-x="460" 
d="M281 25q16 2 24 2q12 0 34 -4t26 -4q20 0 35 19q4 6 8 4q3 -1 -1 -7q-36 -46 -67 -46q-18 0 -40 10q-25 11 -38 11q-21 0 -35 -9q-6 -3 -10 -12q-8 0 -4 10q2 5 8 9q9 6 68 33q33 14 58.5 35.5t29.5 39.5q2 10 -3 16t-15 6q-19 0 -38 -14q-17 -13 -19 -24
q-2 -9 3.5 -13.5t14.5 -2.5q4 2 6 0q1 -3 -5 -5q-7 -3 -17 -3q-21 1 -19 20q3 19 32 38q33 21 67 22q27 1 42 -9t11 -32q-6 -32 -66 -59q-13 -6 -46.5 -16.5t-43.5 -14.5zM386 300q30 0 1 -26q-184 -166 -307 -308q-11 -13 -14 -11q-5 5 5 18q119 160 266 300q27 27 49 27z
M166 235q-9 -5 -29 -18t-27 -16q-32 -14 -35 -4q-1 2 12 7q14 6 26 12q21 10 55 30q32 20 47 20q14 0 -4 -20q-53 -61 -89 -117q-12 -18 -22.5 -23t-47.5 -10q-7 -1 -7 1q0 4 13 20q74 91 108 118z" />
    <glyph glyph-name="threequarters" unicode="&#xbe;" horiz-adv-x="482" 
d="M162 197q20 2 36 -10q18 -12 10 -34q-8 -24 -45 -38q-33 -13 -70 -13q-49 2 -46 33q1 10 10 19.5t24 9.5q9 0 14.5 -5t4.5 -11q-1 -7 -11 -13q-14 -8 -14 -13q0 -10 16 -10q37 0 65 50q13 24 -3 27q-7 1 -15 -2t-9 -2q-2 7 9 10q26 7 45 20t19 26q0 14 -20 14
q-17 0 -31 -9q-13 -8 -17 -19q-3 -6 1 -14q3 -5 0 -6q-3 -3 -14 3q-9 6 -6 16q5 14 31 27q28 14 56 14q44 0 44 -23q0 -25 -41 -39q-14 -5 -43 -8zM251 40q0 3 4 7q48 38 77 56q39 24 71 39q28 14 52 14q4 0 6 -2.5t0 -4.5q-12 -13 -27 -34l-29 -41t-16 -22q13 0 20 -1
q6 -1 9 -3t2 -5q0 -3 -9 -3q-5 0 -15.5 0.5t-13.5 0.5l-27 -36q-8 -11 -50 -23q-10 -3 -10 2q0 4 8 16q15 24 30 41h-41q-12 0 -34 -2q-7 -1 -7 1zM414 139l-71 -43l-35 -23.5l-28 -19.5v-1q34 2 61 1q48 59 73 86zM430 300q30 0 1 -26q-184 -166 -307 -308q-11 -13 -14 -11
q-5 5 5 18q119 160 266 300q27 27 49 27z" />
    <glyph glyph-name="questiondown" unicode="&#xbf;" horiz-adv-x="277" 
d="M-12 -169h-1q-38 0 -57.5 16.5t-15.5 44.5q9 70 125 106q55 17 75 28q23 13 31 28q5 28 17 28q3 0 5.5 -4.5t2 -12.5t-4.5 -16q-11 -22 -58 -51q-90 -60 -102 -108q-5 -17 3 -28t24 -11q27 1 61 24q22 14 30.5 40t-1.5 40q-1 2 -3 4t-3.5 3t-1.5 2q0 3 11 1q37 -6 29 -38
q-9 -32 -54 -60q-56 -36 -112 -36zM160 104h-1q-16 0 -20 10.5t7 24.5q12 15 33 26t33 12q12 -19 1 -48q-10 -25 -53 -25z" />
    <glyph glyph-name="Agrave" unicode="&#xc0;" horiz-adv-x="725" 
d="M15 56v1q0 30 18 48t40 19t34.5 -9.5t10.5 -27.5q-1 -15 -25 -33q-16 -12 -16 -25q0 -17 23 -27t67 -6q91 8 199 83q-65 48 -64 117q1 47 35 80.5t87 33.5q78 1 120 -80q9 9 41 39q91 87 155 122q72 38 134 38q43 0 59 -13q3 -3 5 -6t2 -5t-2 -3q-1 -1 -3 2q-3 3 -6 5
q-9 6 -22 6q-17 0 -32 -11q-37 -27 -83 -94q-89 -124 -185 -280q23 0 59 19q23 13 52 38q16 14 19 11q4 -4 -10 -16q-29 -27 -58 -42q-35 -18 -67 -20q-18 -22 -77 -27q-13 -1 -19.5 1t-5.5 5.5t2 7.5q1 3 4.5 8.5t3.5 6.5q-33 3 -72 17q-31 11 -62 32q-107 -80 -212 -88
q-62 -5 -105.5 14.5t-43.5 58.5zM555 96q88 132 124 175q93 117 206 148v1q-67 1 -140 -38q-59 -32 -134 -102q-54 -51 -62 -60q10 -25 12 -58q1 -36 -6 -66zM440 286h-1q-37 0 -57.5 -27t-22.5 -65q-3 -59 29 -98q30 22 74 60l72 65q-35 65 -94 65zM396 87q14 -18 53 -36
q33 -15 66 -19l23 39q14 28 12 83q-2 35 -11 57l-71 -64q-33 -29 -72 -60zM810 505q-22 13 -12 33q7 16 20 16q11 0 22 -11q40 -40 73 -67q9 -9 7 -11q-3 -5 -12 -1q-65 20 -98 41z" />
    <glyph glyph-name="Aacute" unicode="&#xc1;" horiz-adv-x="725" 
d="M15 56v1q0 30 18 48t40 19t34.5 -9.5t10.5 -27.5q-1 -15 -25 -33q-16 -12 -16 -25q0 -17 23 -27t67 -6q91 8 199 83q-65 48 -64 117q1 47 35 80.5t87 33.5q78 1 120 -80q9 9 41 39q91 87 155 122q72 38 134 38q43 0 59 -13q3 -3 5 -6t2 -5t-2 -3q-1 -1 -3 2q-3 3 -6 5
q-9 6 -22 6q-17 0 -32 -11q-37 -27 -83 -94q-89 -124 -185 -280q23 0 59 19q23 13 52 38q16 14 19 11q4 -4 -10 -16q-29 -27 -58 -42q-35 -18 -67 -20q-18 -22 -77 -27q-13 -1 -19.5 1t-5.5 5.5t2 7.5q1 3 4.5 8.5t3.5 6.5q-33 3 -72 17q-31 11 -62 32q-107 -80 -212 -88
q-62 -5 -105.5 14.5t-43.5 58.5zM555 96q88 132 124 175q93 117 206 148v1q-67 1 -140 -38q-59 -32 -134 -102q-54 -51 -62 -60q10 -25 12 -58q1 -36 -6 -66zM440 286h-1q-37 0 -57.5 -27t-22.5 -65q-3 -59 29 -98q30 22 74 60l72 65q-35 65 -94 65zM396 87q14 -18 53 -36
q33 -15 66 -19l23 39q14 28 12 83q-2 35 -11 57l-71 -64q-33 -29 -72 -60zM831 467q-11 -2 -12 3q-1 3 11 11q19 12 99 68q13 9 23 9q7 0 13 -8t6 -17q0 -18 -22 -27q-56 -26 -118 -39z" />
    <glyph glyph-name="Acircumflex" unicode="&#xc2;" horiz-adv-x="725" 
d="M15 56v1q0 30 18 48t40 19t34.5 -9.5t10.5 -27.5q-1 -15 -25 -33q-16 -12 -16 -25q0 -17 23 -27t67 -6q91 8 199 83q-65 48 -64 117q1 47 35 80.5t87 33.5q78 1 120 -80q9 9 41 39q91 87 155 122q72 38 134 38q43 0 59 -13q3 -3 5 -6t2 -5t-2 -3q-1 -1 -3 2q-3 3 -6 5
q-9 6 -22 6q-17 0 -32 -11q-37 -27 -83 -94q-89 -124 -185 -280q23 0 59 19q23 13 52 38q16 14 19 11q4 -4 -10 -16q-29 -27 -58 -42q-35 -18 -67 -20q-18 -22 -77 -27q-13 -1 -19.5 1t-5.5 5.5t2 7.5q1 3 4.5 8.5t3.5 6.5q-33 3 -72 17q-31 11 -62 32q-107 -80 -212 -88
q-62 -5 -105.5 14.5t-43.5 58.5zM555 96q88 132 124 175q93 117 206 148v1q-67 1 -140 -38q-59 -32 -134 -102q-54 -51 -62 -60q10 -25 12 -58q1 -36 -6 -66zM440 286h-1q-37 0 -57.5 -27t-22.5 -65q-3 -59 29 -98q30 22 74 60l72 65q-35 65 -94 65zM396 87q14 -18 53 -36
q33 -15 66 -19l23 39q14 28 12 83q-2 35 -11 57l-71 -64q-33 -29 -72 -60zM769 467q-13 -3 -14 0t8 9q63 35 116 77q8 6 12 6q3 0 6 -8q23 -56 37 -73q5 -7 3 -9t-13 2q-30 14 -52 34q-56 -26 -103 -38z" />
    <glyph glyph-name="Atilde" unicode="&#xc3;" horiz-adv-x="725" 
d="M15 56v1q0 30 18 48t40 19t34.5 -9.5t10.5 -27.5q-1 -15 -25 -33q-16 -12 -16 -25q0 -17 23 -27t67 -6q91 8 199 83q-65 48 -64 117q1 47 35 80.5t87 33.5q78 1 120 -80q9 9 41 39q91 87 155 122q72 38 134 38q43 0 59 -13q3 -3 5 -6t2 -5t-2 -3q-1 -1 -3 2q-3 3 -6 5
q-9 6 -22 6q-17 0 -32 -11q-37 -27 -83 -94q-89 -124 -185 -280q23 0 59 19q23 13 52 38q16 14 19 11q4 -4 -10 -16q-29 -27 -58 -42q-35 -18 -67 -20q-18 -22 -77 -27q-13 -1 -19.5 1t-5.5 5.5t2 7.5q1 3 4.5 8.5t3.5 6.5q-33 3 -72 17q-31 11 -62 32q-107 -80 -212 -88
q-62 -5 -105.5 14.5t-43.5 58.5zM555 96q88 132 124 175q93 117 206 148v1q-67 1 -140 -38q-59 -32 -134 -102q-54 -51 -62 -60q10 -25 12 -58q1 -36 -6 -66zM440 286h-1q-37 0 -57.5 -27t-22.5 -65q-3 -59 29 -98q30 22 74 60l72 65q-35 65 -94 65zM396 87q14 -18 53 -36
q33 -15 66 -19l23 39q14 28 12 83q-2 35 -11 57l-71 -64q-33 -29 -72 -60zM775 475q-4 2 1 12q24 46 62 45q14 -1 34 -12t30 -11q22 -1 41 16q7 6 9 5q4 -1 0 -11q-24 -47 -60 -47q-12 0 -33.5 11t-33.5 12q-25 1 -40 -15q-6 -6 -10 -5z" />
    <glyph glyph-name="Adieresis" unicode="&#xc4;" horiz-adv-x="725" 
d="M15 56v1q0 30 18 48t40 19t34.5 -9.5t10.5 -27.5q-1 -15 -25 -33q-16 -12 -16 -25q0 -17 23 -27t67 -6q91 8 199 83q-65 48 -64 117q1 47 35 80.5t87 33.5q78 1 120 -80q9 9 41 39q91 87 155 122q72 38 134 38q43 0 59 -13q3 -3 5 -6t2 -5t-2 -3q-1 -1 -3 2q-3 3 -6 5
q-9 6 -22 6q-17 0 -32 -11q-37 -27 -83 -94q-89 -124 -185 -280q23 0 59 19q23 13 52 38q16 14 19 11q4 -4 -10 -16q-29 -27 -58 -42q-35 -18 -67 -20q-18 -22 -77 -27q-13 -1 -19.5 1t-5.5 5.5t2 7.5q1 3 4.5 8.5t3.5 6.5q-33 3 -72 17q-31 11 -62 32q-107 -80 -212 -88
q-62 -5 -105.5 14.5t-43.5 58.5zM555 96q88 132 124 175q93 117 206 148v1q-67 1 -140 -38q-59 -32 -134 -102q-54 -51 -62 -60q10 -25 12 -58q1 -36 -6 -66zM440 286h-1q-37 0 -57.5 -27t-22.5 -65q-3 -59 29 -98q30 22 74 60l72 65q-35 65 -94 65zM396 87q14 -18 53 -36
q33 -15 66 -19l23 39q14 28 12 83q-2 35 -11 57l-71 -64q-33 -29 -72 -60zM900 473q-10 14 0 40q9 22 47 22q14 0 17 -8.5t-7 -21.5q-11 -13 -28.5 -22.5t-28.5 -9.5zM782 473q-12 14 -1 40q10 22 46 22q14 0 17.5 -8.5t-6.5 -21.5q-12 -14 -29 -23t-27 -9z" />
    <glyph glyph-name="Aring" unicode="&#xc5;" horiz-adv-x="725" 
d="M15 56v1q0 30 18 48t40 19t34.5 -9.5t10.5 -27.5q-1 -15 -25 -33q-16 -12 -16 -25q0 -17 23 -27t67 -6q91 8 199 83q-65 48 -64 117q1 47 35 80.5t87 33.5q78 1 120 -80q9 9 41 39q91 87 155 122q72 38 134 38q43 0 59 -13q3 -3 5 -6t2 -5t-2 -3q-1 -1 -3 2q-3 3 -6 5
q-9 6 -22 6q-17 0 -32 -11q-37 -27 -83 -94q-89 -124 -185 -280q23 0 59 19q23 13 52 38q16 14 19 11q4 -4 -10 -16q-29 -27 -58 -42q-35 -18 -67 -20q-18 -22 -77 -27q-13 -1 -19.5 1t-5.5 5.5t2 7.5q1 3 4.5 8.5t3.5 6.5q-33 3 -72 17q-31 11 -62 32q-107 -80 -212 -88
q-62 -5 -105.5 14.5t-43.5 58.5zM555 96q88 132 124 175q93 117 206 148v1q-67 1 -140 -38q-59 -32 -134 -102q-54 -51 -62 -60q10 -25 12 -58q1 -36 -6 -66zM440 286h-1q-37 0 -57.5 -27t-22.5 -65q-3 -59 29 -98q30 22 74 60l72 65q-35 65 -94 65zM396 87q14 -18 53 -36
q33 -15 66 -19l23 39q14 28 12 83q-2 35 -11 57l-71 -64q-33 -29 -72 -60zM863 468q-22 0 -36 14.5t-14 36.5q0 20 14.5 35.5t35.5 15.5t36 -15.5t15 -35.5q0 -22 -15 -36.5t-36 -14.5zM863 494q11 0 18 7t7 18q0 10 -7 18t-18 8t-17.5 -8t-6.5 -18q0 -25 24 -25z" />
    <glyph glyph-name="AE" unicode="&#xc6;" horiz-adv-x="955" 
d="M927 216v1q0 12 -38 14q-33 0 -46 -2q4 -10 17.5 -17t26.5 -8q40 -2 40 12zM580 105q16 41 78 78q51 30 124 47q-34 50 13 107q43 51 128 68v1q-14 2 -28 2q-69 0 -133 -33q-72 -34 -148 -98q-24 -20 -61 -55q27 -54 27 -117zM442 286h-1q-37 0 -57.5 -27.5t-22.5 -65.5
q-3 -63 29 -97q85 70 146 129q-37 61 -94 61zM570 54q-2 15 2 31q-3 69 -29 128q-44 -41 -146 -126q35 -37 105 -43q37 -3 68 10zM884 23q-70 -47 -142 -51q-68 -3 -115 15t-55 57q-27 -13 -70 -11q-81 4 -124 38q-107 -80 -212 -88q-62 -5 -105.5 14.5t-43.5 58.5
q0 31 17.5 49t40.5 19q22 1 34 -9.5t11 -27.5q-1 -15 -25 -33q-16 -12 -16 -25q0 -17 23 -27t67 -6q91 8 198 82q-25 17 -44 49.5t-19 68.5q0 51 35.5 82.5t89.5 31.5q72 0 117 -76q27 26 59 53q78 65 151 99q69 31 135 31q25 0 49 -7q41 6 94 5q51 -1 86 -20t35 -43
q0 -36 -49 -56t-107 -14q-42 3 -58 24q-5 5 -1 7q1 1 2 -1q2 -3 4 -4q23 -18 55 -19q49 -2 85 14t36 47q0 20 -21.5 36.5t-63.5 17.5q-37 2 -78 -19q-39 -18 -75 -54q-43 -46 -43 -93q26 5 49 3q56 -2 56 -26q0 -20 -55 -20q-75 0 -102 26q-48 -23 -83.5 -59.5t-44.5 -81.5
q-9 -43 16.5 -67.5t73.5 -24.5q61 0 135 49q21 14 69 56q10 8 13 5t-11 -16q-44 -40 -73 -59z" />
    <glyph glyph-name="Ccedilla" unicode="&#xc7;" horiz-adv-x="417" 
d="M18 71q-5 134 155 244q-25 27 -25 63q0 41 36 67.5t90 26.5h1q92 0 134 -63q30 5 54 5q48 1 85.5 -18t34.5 -57q-3 -49 -66.5 -75t-132.5 -26q-111 0 -163 37q-48 -43 -80.5 -99t-32.5 -101q0 -96 104 -91q69 5 140 55q9 6 64 53q13 11 16 8q3 -4 -14 -19
q-41 -37 -67 -56q-83 -55 -159 -60q-23 -2 -43 0q-19 -14 -29 -28q6 2 13 2q21 0 32.5 -11.5t9.5 -29.5t-24.5 -29.5t-51.5 -9.5q-41 3 -57 25q-10 13 -3 18q2 1 10 -7q16 -14 48 -14q28 0 33 17q3 10 -4 17.5t-19 6.5q-5 0 -9 -2t-5.5 -2.5t-3.5 0.5q-3 4 2 9q10 11 40 39
q-110 13 -113 105zM385 247h1q54 0 99 24.5t51 71.5q2 31 -18.5 46.5t-56.5 15.5q-28 0 -48 -5q10 -22 12 -55q1 -35 -5 -37q-1 0 -1 3.5t-0.5 11.5t-1.5 16q-5 31 -22 56q-38 -12 -88 -46.5t-79 -66.5q52 -35 157 -35zM277 458h-1q-49 0 -82.5 -21.5t-33.5 -58.5
q0 -36 21 -57q102 62 209 84q-13 21 -45.5 37t-67.5 16z" />
    <glyph glyph-name="Egrave" unicode="&#xc8;" horiz-adv-x="424" 
d="M231 271v1q0 33 22 59q-43 32 -40 71q2 29 28 47t67 17q75 -2 127 -52q44 3 77 2q49 -1 80.5 -19.5t29.5 -44.5q-2 -33 -49.5 -57t-107.5 -24q-79 0 -143 27q-10 -14 -14 -29q-6 -18 -3 -31q22 3 50 2q56 -2 53 -25q-3 -20 -55 -20q-68 0 -102 26q-33 -12 -67 -43
q-19 -17 -36 -43t-22 -46q-13 -51 13 -79t81 -24q67 5 135 51q11 7 24 17.5l26.5 22.5t18.5 16q9 9 13 5q3 -3 -11 -16q-44 -40 -73 -59q-81 -53 -162 -60q-86 -7 -127.5 27.5t-25.5 97.5q10 42 53.5 74.5t79.5 45.5t74 21q-14 16 -14 42zM463 281h1q46 0 86 20t42 51
q2 22 -17 38t-60 17q-36 1 -68 -12q12 -16 16 -41q5 -31 -2 -35q-1 0 -1 2t-2 10t-5 19q-6 21 -22 39q-28 -13 -52 -30q-27 -19 -52 -52q53 -26 136 -26zM413 410q-54 46 -105 47q-38 1 -59.5 -14t-23.5 -41q-3 -37 34 -64q27 30 82 53q35 14 72 19zM307 230q3 -10 17 -17
t30 -8q35 -2 36 13q1 7 -8 10t-27 4q-25 2 -48 -2zM451 505q-22 13 -12 33q7 16 20 16q11 0 22 -11q40 -40 73 -67q9 -9 7 -11q-3 -5 -12 -1q-65 20 -98 41z" />
    <glyph glyph-name="Eacute" unicode="&#xc9;" horiz-adv-x="424" 
d="M231 271v1q0 33 22 59q-43 32 -40 71q2 29 28 47t67 17q75 -2 127 -52q44 3 77 2q49 -1 80.5 -19.5t29.5 -44.5q-2 -33 -49.5 -57t-107.5 -24q-79 0 -143 27q-10 -14 -14 -29q-6 -18 -3 -31q22 3 50 2q56 -2 53 -25q-3 -20 -55 -20q-68 0 -102 26q-33 -12 -67 -43
q-19 -17 -36 -43t-22 -46q-13 -51 13 -79t81 -24q67 5 135 51q11 7 24 17.5l26.5 22.5t18.5 16q9 9 13 5q3 -3 -11 -16q-44 -40 -73 -59q-81 -53 -162 -60q-86 -7 -127.5 27.5t-25.5 97.5q10 42 53.5 74.5t79.5 45.5t74 21q-14 16 -14 42zM463 281h1q46 0 86 20t42 51
q2 22 -17 38t-60 17q-36 1 -68 -12q12 -16 16 -41q5 -31 -2 -35q-1 0 -1 2t-2 10t-5 19q-6 21 -22 39q-28 -13 -52 -30q-27 -19 -52 -52q53 -26 136 -26zM413 410q-54 46 -105 47q-38 1 -59.5 -14t-23.5 -41q-3 -37 34 -64q27 30 82 53q35 14 72 19zM307 230q3 -10 17 -17
t30 -8q35 -2 36 13q1 7 -8 10t-27 4q-25 2 -48 -2zM470 467q-11 -2 -12 3q-1 3 11 11q19 12 99 68q13 9 23 9q7 0 13 -8t6 -17q0 -18 -22 -27q-56 -26 -118 -39z" />
    <glyph glyph-name="Ecircumflex" unicode="&#xca;" horiz-adv-x="424" 
d="M231 271v1q0 33 22 59q-43 32 -40 71q2 29 28 47t67 17q75 -2 127 -52q44 3 77 2q49 -1 80.5 -19.5t29.5 -44.5q-2 -33 -49.5 -57t-107.5 -24q-79 0 -143 27q-10 -14 -14 -29q-6 -18 -3 -31q22 3 50 2q56 -2 53 -25q-3 -20 -55 -20q-68 0 -102 26q-33 -12 -67 -43
q-19 -17 -36 -43t-22 -46q-13 -51 13 -79t81 -24q67 5 135 51q11 7 24 17.5l26.5 22.5t18.5 16q9 9 13 5q3 -3 -11 -16q-44 -40 -73 -59q-81 -53 -162 -60q-86 -7 -127.5 27.5t-25.5 97.5q10 42 53.5 74.5t79.5 45.5t74 21q-14 16 -14 42zM463 281h1q46 0 86 20t42 51
q2 22 -17 38t-60 17q-36 1 -68 -12q12 -16 16 -41q5 -31 -2 -35q-1 0 -1 2t-2 10t-5 19q-6 21 -22 39q-28 -13 -52 -30q-27 -19 -52 -52q53 -26 136 -26zM413 410q-54 46 -105 47q-38 1 -59.5 -14t-23.5 -41q-3 -37 34 -64q27 30 82 53q35 14 72 19zM307 230q3 -10 17 -17
t30 -8q35 -2 36 13q1 7 -8 10t-27 4q-25 2 -48 -2zM441 467q-13 -3 -14 0t8 9q63 35 116 77q8 6 12 6q3 0 6 -8q23 -56 37 -73q5 -7 3 -9t-13 2q-30 14 -52 34q-56 -26 -103 -38z" />
    <glyph glyph-name="Edieresis" unicode="&#xcb;" horiz-adv-x="424" 
d="M231 271v1q0 33 22 59q-43 32 -40 71q2 29 28 47t67 17q75 -2 127 -52q44 3 77 2q49 -1 80.5 -19.5t29.5 -44.5q-2 -33 -49.5 -57t-107.5 -24q-79 0 -143 27q-10 -14 -14 -29q-6 -18 -3 -31q22 3 50 2q56 -2 53 -25q-3 -20 -55 -20q-68 0 -102 26q-33 -12 -67 -43
q-19 -17 -36 -43t-22 -46q-13 -51 13 -79t81 -24q67 5 135 51q11 7 24 17.5l26.5 22.5t18.5 16q9 9 13 5q3 -3 -11 -16q-44 -40 -73 -59q-81 -53 -162 -60q-86 -7 -127.5 27.5t-25.5 97.5q10 42 53.5 74.5t79.5 45.5t74 21q-14 16 -14 42zM463 281h1q46 0 86 20t42 51
q2 22 -17 38t-60 17q-36 1 -68 -12q12 -16 16 -41q5 -31 -2 -35q-1 0 -1 2t-2 10t-5 19q-6 21 -22 39q-28 -13 -52 -30q-27 -19 -52 -52q53 -26 136 -26zM413 410q-54 46 -105 47q-38 1 -59.5 -14t-23.5 -41q-3 -37 34 -64q27 30 82 53q35 14 72 19zM307 230q3 -10 17 -17
t30 -8q35 -2 36 13q1 7 -8 10t-27 4q-25 2 -48 -2zM556 473q-10 14 0 40q9 22 47 22q14 0 17 -8.5t-7 -21.5q-11 -13 -28.5 -22.5t-28.5 -9.5zM438 473q-12 14 -1 40q10 22 46 22q14 0 17.5 -8.5t-6.5 -21.5q-12 -14 -29 -23t-27 -9z" />
    <glyph glyph-name="Igrave" unicode="&#xcc;" horiz-adv-x="505" 
d="M660 416q-101 -19 -130 -26q-76 -17 -144 -55q-63 -36 -63 -78q0 -24 24 -24q15 0 25 7q9 6 10 5q3 -5 -5 -11q-14 -12 -36 -14q-26 -2 -44.5 9t-18.5 34q0 27 24.5 52.5t63.5 42.5q56 25 162 45q18 4 68.5 12t59.5 11q25 7 31 6q9 -1 5 -9q-2 -5 -7 -7q-47 -18 -96 -90
q-17 -24 -45 -69t-44 -65q-161 -210 -391 -210q-60 0 -93.5 20t-33.5 57q0 29 20 49.5t47 20.5q26 0 36.5 -15.5t6.5 -32.5q-5 -19 -24 -34q-20 -17 -20 -31q0 -24 53 -24q150 0 296 201q68 94 105 128q79 75 158 95zM565 505q-22 13 -12 33q7 16 20 16q11 0 22 -11
q40 -40 73 -67q9 -9 7 -11q-3 -5 -12 -1q-65 20 -98 41z" />
    <glyph glyph-name="Iacute" unicode="&#xcd;" horiz-adv-x="505" 
d="M660 416q-101 -19 -130 -26q-76 -17 -144 -55q-63 -36 -63 -78q0 -24 24 -24q15 0 25 7q9 6 10 5q3 -5 -5 -11q-14 -12 -36 -14q-26 -2 -44.5 9t-18.5 34q0 27 24.5 52.5t63.5 42.5q56 25 162 45q18 4 68.5 12t59.5 11q25 7 31 6q9 -1 5 -9q-2 -5 -7 -7q-47 -18 -96 -90
q-17 -24 -45 -69t-44 -65q-161 -210 -391 -210q-60 0 -93.5 20t-33.5 57q0 29 20 49.5t47 20.5q26 0 36.5 -15.5t6.5 -32.5q-5 -19 -24 -34q-20 -17 -20 -31q0 -24 53 -24q150 0 296 201q68 94 105 128q79 75 158 95zM591 467q-11 -2 -12 3q-1 3 11 11q19 12 99 68
q13 9 23 9q7 0 13 -8t6 -17q0 -18 -22 -27q-56 -26 -118 -39z" />
    <glyph glyph-name="Icircumflex" unicode="&#xce;" horiz-adv-x="505" 
d="M660 416q-101 -19 -130 -26q-76 -17 -144 -55q-63 -36 -63 -78q0 -24 24 -24q15 0 25 7q9 6 10 5q3 -5 -5 -11q-14 -12 -36 -14q-26 -2 -44.5 9t-18.5 34q0 27 24.5 52.5t63.5 42.5q56 25 162 45q18 4 68.5 12t59.5 11q25 7 31 6q9 -1 5 -9q-2 -5 -7 -7q-47 -18 -96 -90
q-17 -24 -45 -69t-44 -65q-161 -210 -391 -210q-60 0 -93.5 20t-33.5 57q0 29 20 49.5t47 20.5q26 0 36.5 -15.5t6.5 -32.5q-5 -19 -24 -34q-20 -17 -20 -31q0 -24 53 -24q150 0 296 201q68 94 105 128q79 75 158 95zM545 467q-13 -3 -14 0t8 9q63 35 116 77q8 6 12 6
q3 0 6 -8q23 -56 37 -73q5 -7 3 -9t-13 2q-30 14 -52 34q-56 -26 -103 -38z" />
    <glyph glyph-name="Idieresis" unicode="&#xcf;" horiz-adv-x="505" 
d="M660 416q-101 -19 -130 -26q-76 -17 -144 -55q-63 -36 -63 -78q0 -24 24 -24q15 0 25 7q9 6 10 5q3 -5 -5 -11q-14 -12 -36 -14q-26 -2 -44.5 9t-18.5 34q0 27 24.5 52.5t63.5 42.5q56 25 162 45q18 4 68.5 12t59.5 11q25 7 31 6q9 -1 5 -9q-2 -5 -7 -7q-47 -18 -96 -90
q-17 -24 -45 -69t-44 -65q-161 -210 -391 -210q-60 0 -93.5 20t-33.5 57q0 29 20 49.5t47 20.5q26 0 36.5 -15.5t6.5 -32.5q-5 -19 -24 -34q-20 -17 -20 -31q0 -24 53 -24q150 0 296 201q68 94 105 128q79 75 158 95zM708 473q-10 14 0 40q9 22 47 22q14 0 17 -8.5t-7 -21.5
q-11 -13 -28.5 -22.5t-28.5 -9.5zM590 473q-12 14 -1 40q10 22 46 22q14 0 17.5 -8.5t-6.5 -21.5q-12 -14 -29 -23t-27 -9z" />
    <glyph glyph-name="Eth" unicode="&#xd0;" horiz-adv-x="755" 
d="M518 174q58 -3 79 -5q13 -1 13 -5q0 -5 -13 -5q-7 0 -37.5 -1t-56.5 -2q-89 -102 -245 -145q68 -11 113 -11q81 0 154 33.5t116 101.5q32 50 32.5 107t-29.5 94q-25 -25 -66.5 -83t-59.5 -79zM402 154h-10q-10 0 -14 3t-3 9q2 14 19 14q7 0 25 -2l11 11q80 99 191 165
q-91 60 -225 60q-118 0 -205.5 -64t-88.5 -148q-1 -75 75 -80q80 -4 142 54q54 51 54 96q0 20 -12.5 32.5t-31.5 13.5q-35 1 -64 -26q-7 -6 -13 -15q-4 -5 -6 -4q-1 1 0.5 4.5t5.5 9.5t10 12q32 32 72 30q23 -1 41 -16t20 -41q4 -29 -11 -60.5t-45 -55.5
q-27 -22 -72.5 -33.5t-90.5 -9.5q-55 2 -96 27.5t-42 68.5q0 58 53 108t135.5 78t169.5 28q143 0 235 -62q27 16 70 31q54 19 104 19q41 0 59 -16q3 -3 5.5 -6.5t3 -5.5t-0.5 -3q-1 0 -1.5 1t-3.5 4t-8 6q-17 10 -50 10q-43 0 -94 -21q-35 -15 -60 -36q60 -46 81.5 -111
t-6.5 -120q-16 -29 -39.5 -51.5t-55 -35t-58 -20.5t-65 -11t-59 -3.5t-56.5 -0.5h-11q-73 0 -154 9q-35 -8 -118 -8q-128 0 -146 5q-13 4 -12 11q3 25 146 20q46 0 135 -14q33 9 65.5 33.5t49 44z" />
    <glyph glyph-name="Ntilde" unicode="&#xd1;" horiz-adv-x="683" 
d="M-96 48v1q0 31 21.5 49t46.5 18q44 0 44 -34q0 -16 -20 -33q-22 -18 -24 -30q-3 -17 14 -26t51 -9q61 0 137 31t144 84q143 109 217 249q12 24 34 43q25 20 54 20q8 0 13 -2.5t5.5 -5.5t-1.5 -6q-16 -23 -22 -55q-7 -32 -15 -122q-9 -115 -25 -154h1q105 150 175 230
q71 84 130 131t116 46q30 -1 47 -19.5t14 -46.5q-2 -12 -5 -12q-1 0 -1 1.5t-0.5 4.5t-1.5 6q-10 30 -52 33q-80 5 -235 -157q-44 -46 -85.5 -97.5t-64 -83.5l-69.5 -100q-14 -21 -34 -16q-30 7 -25 26q21 65 24 161q4 107 17 142h-1q-29 -55 -85.5 -116.5t-118.5 -108.5
q-72 -54 -148.5 -86t-139.5 -33q-55 -1 -93.5 18.5t-38.5 58.5zM698 475q-4 2 1 12q24 46 62 45q14 -1 34 -12t30 -11q22 -1 41 16q7 6 9 5q4 -1 0 -11q-23 -47 -60 -47q-12 0 -33.5 11t-33.5 12q-25 1 -40 -15q-6 -6 -10 -5z" />
    <glyph glyph-name="Ograve" unicode="&#xd2;" horiz-adv-x="481" 
d="M174 52v-1q0 -25 13 -38q5 -5 5 -6q-2 -3 -8 1q-23 14 -29 45q-6 33 12 79.5t56 91.5q49 61 113 96.5t110 33.5q27 -1 42 -19.5t16 -47.5q4 -79 -57 -154q-52 -63 -136.5 -106.5t-154.5 -41.5q-46 1 -85 20t-51 63q-15 60 18 121t76 99q76 71 174.5 105.5t180.5 24.5
q68 -9 74 -55q3 -29 -17 -49q-11 -11 -14 -8l8 12q15 21 12 44q-3 20 -21 31.5t-42 11.5q-70 1 -145 -44t-129 -101q-45 -46 -75 -107.5t-18 -108.5q10 -49 67 -50q101 -3 228 152q78 98 83 163q3 35 -35 37q-80 3 -185 -132q-86 -109 -86 -162zM397 505q-22 13 -12 33
q7 16 20 16q11 0 22 -11q40 -40 73 -67q9 -9 7 -11q-3 -5 -12 -1q-65 20 -98 41z" />
    <glyph glyph-name="Oacute" unicode="&#xd3;" horiz-adv-x="481" 
d="M174 52v-1q0 -25 13 -38q5 -5 5 -6q-2 -3 -8 1q-23 14 -29 45q-6 33 12 79.5t56 91.5q49 61 113 96.5t110 33.5q27 -1 42 -19.5t16 -47.5q4 -79 -57 -154q-52 -63 -136.5 -106.5t-154.5 -41.5q-46 1 -85 20t-51 63q-15 60 18 121t76 99q76 71 174.5 105.5t180.5 24.5
q68 -9 74 -55q3 -29 -17 -49q-11 -11 -14 -8l8 12q15 21 12 44q-3 20 -21 31.5t-42 11.5q-70 1 -145 -44t-129 -101q-45 -46 -75 -107.5t-18 -108.5q10 -49 67 -50q101 -3 228 152q78 98 83 163q3 35 -35 37q-80 3 -185 -132q-86 -109 -86 -162zM415 467q-11 -2 -12 3
q-1 3 11 11q19 12 99 68q13 9 23 9q7 0 13 -8t6 -17q0 -18 -22 -27q-56 -26 -118 -39z" />
    <glyph glyph-name="Ocircumflex" unicode="&#xd4;" horiz-adv-x="481" 
d="M174 52v-1q0 -25 13 -38q5 -5 5 -6q-2 -3 -8 1q-23 14 -29 45q-6 33 12 79.5t56 91.5q49 61 113 96.5t110 33.5q27 -1 42 -19.5t16 -47.5q4 -79 -57 -154q-52 -63 -136.5 -106.5t-154.5 -41.5q-46 1 -85 20t-51 63q-15 60 18 121t76 99q76 71 174.5 105.5t180.5 24.5
q68 -9 74 -55q3 -29 -17 -49q-11 -11 -14 -8l8 12q15 21 12 44q-3 20 -21 31.5t-42 11.5q-70 1 -145 -44t-129 -101q-45 -46 -75 -107.5t-18 -108.5q10 -49 67 -50q101 -3 228 152q78 98 83 163q3 35 -35 37q-80 3 -185 -132q-86 -109 -86 -162zM368 467q-13 -3 -14 0t8 9
q63 35 116 77q8 6 12 6q3 0 6 -8q23 -56 37 -73q5 -7 3 -9t-13 2q-30 14 -52 34q-56 -26 -103 -38z" />
    <glyph glyph-name="Otilde" unicode="&#xd5;" horiz-adv-x="481" 
d="M174 52v-1q0 -25 13 -38q5 -5 5 -6q-2 -3 -8 1q-23 14 -29 45q-6 33 12 79.5t56 91.5q49 61 113 96.5t110 33.5q27 -1 42 -19.5t16 -47.5q4 -79 -57 -154q-52 -63 -136.5 -106.5t-154.5 -41.5q-46 1 -85 20t-51 63q-15 60 18 121t76 99q76 71 174.5 105.5t180.5 24.5
q68 -9 74 -55q3 -29 -17 -49q-11 -11 -14 -8l8 12q15 21 12 44q-3 20 -21 31.5t-42 11.5q-70 1 -145 -44t-129 -101q-45 -46 -75 -107.5t-18 -108.5q10 -49 67 -50q101 -3 228 152q78 98 83 163q3 35 -35 37q-80 3 -185 -132q-86 -109 -86 -162zM384 475q-4 2 1 12
q24 46 62 45q14 -1 34 -12t30 -11q22 -1 41 16q7 6 9 5q4 -1 0 -11q-23 -47 -60 -47q-12 0 -33.5 11t-33.5 12q-25 1 -40 -15q-6 -6 -10 -5z" />
    <glyph glyph-name="Odieresis" unicode="&#xd6;" horiz-adv-x="481" 
d="M174 52v-1q0 -25 13 -38q5 -5 5 -6q-2 -3 -8 1q-23 14 -29 45q-6 33 12 79.5t56 91.5q49 61 113 96.5t110 33.5q27 -1 42 -19.5t16 -47.5q4 -79 -57 -154q-52 -63 -136.5 -106.5t-154.5 -41.5q-46 1 -85 20t-51 63q-15 60 18 121t76 99q76 71 174.5 105.5t180.5 24.5
q68 -9 74 -55q3 -29 -17 -49q-11 -11 -14 -8l8 12q15 21 12 44q-3 20 -21 31.5t-42 11.5q-70 1 -145 -44t-129 -101q-45 -46 -75 -107.5t-18 -108.5q10 -49 67 -50q101 -3 228 152q78 98 83 163q3 35 -35 37q-80 3 -185 -132q-86 -109 -86 -162zM495 473q-10 14 0 40
q9 22 47 22q14 0 17 -8.5t-7 -21.5q-11 -13 -28.5 -22.5t-28.5 -9.5zM377 473q-12 14 -1 40q10 22 46 22q14 0 17.5 -8.5t-6.5 -21.5q-12 -14 -29 -23t-27 -9z" />
    <glyph glyph-name="multiply" unicode="&#xd7;" horiz-adv-x="314" 
d="M176 146l95 71q28 22 54 23q31 2 -15 -31l-129 -88q12 -48 20 -88q4 -15 -2 -19q-2 -1 -4.5 0.5t-3.5 4t-3 6.5l-29 80l-65 -43.5l-64 -42.5q-17 -11 -21 -7q-3 6 12 17l130 98q-4 12 -11 30.5l-11 29.5t-6 17q-8 21 12 33q17 10 22 -11q2 -7 8 -34.5t11 -45.5z" />
    <glyph glyph-name="Oslash" unicode="&#xd8;" horiz-adv-x="481" 
d="M493 400l-351 -402q14 -4 28 -4q102 -1 228 152q78 99 91 171q2 14 0 30q-1 5 -2.5 10.5t-2.5 6.5t0 3q2 1 4 -1t5 -7t6 -12q9 -25 8 -60q-3 -86 -59 -154q-52 -63 -136 -107t-155 -43q-12 0 -26 2l-64 -76q-7 -7 -11 -4q-5 3 1 11l59 72q-82 20 -95 80
q-14 60 18.5 121.5t75.5 98.5q79 69 172.5 103t179.5 27l11 -1l52 60q13 15 24 10t-3 -20q-2 -2 -50 -56q41 -15 43 -48q1 -28 -16 -49q-11 -14 -15 -8v2.5t3 3.5t5 6q15 21 12 44q-3 26 -40 38zM128 4l342 401h-2q-68 1 -143.5 -44.5t-128.5 -100.5q-45 -46 -75 -107.5
t-18 -108.5q5 -26 25 -40z" />
    <glyph glyph-name="Ugrave" unicode="&#xd9;" horiz-adv-x="602" 
d="M437 134q-30 -30 -63.5 -57.5t-86 -56.5t-90.5 -29q-56 0 -58 40q-1 50 121 187q93 106 104 153q4 21 -6 30.5t-27 9.5q-88 0 -177 -87q-80 -78 -80 -130q0 -40 36 -41q18 -1 36 10q4 3 7.5 6t5 4t2.5 0q2 -1 -2 -6.5t-10 -9.5q-18 -14 -42 -13q-43 3 -53 49
q-8 34 13.5 79.5t61.5 77.5q89 71 208 71q47 0 74.5 -15t27.5 -43q0 -21 -16 -49.5t-32.5 -49l-48.5 -58.5q-116 -134 -122 -173q-1 -10 3.5 -14.5t13.5 -3.5q41 2 102 49q73 53 146 140q71 83 166 163q78 63 125 56q13 -2 11.5 -15.5t-16.5 -29.5q-24 -26 -75 -63
q-59 -43 -91 -70q-8 -9 -23 -28q-94 -126 -107 -173q-5 -18 6 -22q19 -7 61 23q26 18 61 49q9 8 12 5t-7 -13q-22 -22 -63 -52q-17 -13 -48.5 -28.5t-57.5 -16.5q-52 -1 -52 42q0 40 50 103zM630 277l60 43q35 24 65 54q10 11 15.5 19.5t6 13t-2.5 6.5q-14 6 -54 -38z
M511 493q-22 13 -12 33q7 16 20 16q11 0 22 -11q40 -40 73 -67q9 -9 7 -11q-3 -5 -12 -1q-65 20 -98 41z" />
    <glyph glyph-name="Uacute" unicode="&#xda;" horiz-adv-x="602" 
d="M437 134q-30 -30 -63.5 -57.5t-86 -56.5t-90.5 -29q-56 0 -58 40q-1 50 121 187q93 106 104 153q4 21 -6 30.5t-27 9.5q-88 0 -177 -87q-80 -78 -80 -130q0 -40 36 -41q18 -1 36 10q4 3 7.5 6t5 4t2.5 0q2 -1 -2 -6.5t-10 -9.5q-18 -14 -42 -13q-43 3 -53 49
q-8 34 13.5 79.5t61.5 77.5q89 71 208 71q47 0 74.5 -15t27.5 -43q0 -21 -16 -49.5t-32.5 -49l-48.5 -58.5q-116 -134 -122 -173q-1 -10 3.5 -14.5t13.5 -3.5q41 2 102 49q73 53 146 140q71 83 166 163q78 63 125 56q13 -2 11.5 -15.5t-16.5 -29.5q-24 -26 -75 -63
q-59 -43 -91 -70q-8 -9 -23 -28q-94 -126 -107 -173q-5 -18 6 -22q19 -7 61 23q26 18 61 49q9 8 12 5t-7 -13q-22 -22 -63 -52q-17 -13 -48.5 -28.5t-57.5 -16.5q-52 -1 -52 42q0 40 50 103zM630 277l60 43q35 24 65 54q10 11 15.5 19.5t6 13t-2.5 6.5q-14 6 -54 -38z
M555 455q-11 -2 -12 3q-1 3 11 11q19 12 99 68q13 9 23 9q7 0 13 -8t6 -17q0 -18 -22 -27q-56 -26 -118 -39z" />
    <glyph glyph-name="Ucircumflex" unicode="&#xdb;" horiz-adv-x="602" 
d="M437 134q-30 -30 -63.5 -57.5t-86 -56.5t-90.5 -29q-56 0 -58 40q-1 50 121 187q93 106 104 153q4 21 -6 30.5t-27 9.5q-88 0 -177 -87q-80 -78 -80 -130q0 -40 36 -41q18 -1 36 10q4 3 7.5 6t5 4t2.5 0q2 -1 -2 -6.5t-10 -9.5q-18 -14 -42 -13q-43 3 -53 49
q-8 34 13.5 79.5t61.5 77.5q89 71 208 71q47 0 74.5 -15t27.5 -43q0 -21 -16 -49.5t-32.5 -49l-48.5 -58.5q-116 -134 -122 -173q-1 -10 3.5 -14.5t13.5 -3.5q41 2 102 49q73 53 146 140q71 83 166 163q78 63 125 56q13 -2 11.5 -15.5t-16.5 -29.5q-24 -26 -75 -63
q-59 -43 -91 -70q-8 -9 -23 -28q-94 -126 -107 -173q-5 -18 6 -22q19 -7 61 23q26 18 61 49q9 8 12 5t-7 -13q-22 -22 -63 -52q-17 -13 -48.5 -28.5t-57.5 -16.5q-52 -1 -52 42q0 40 50 103zM630 277l60 43q35 24 65 54q10 11 15.5 19.5t6 13t-2.5 6.5q-14 6 -54 -38z
M520 467q-13 -3 -14 0t8 9q63 35 116 77q8 6 12 6q3 0 6 -8q23 -56 37 -73q5 -7 3 -9t-13 2q-30 14 -52 34q-56 -26 -103 -38z" />
    <glyph glyph-name="Udieresis" unicode="&#xdc;" horiz-adv-x="602" 
d="M437 134q-30 -30 -63.5 -57.5t-86 -56.5t-90.5 -29q-56 0 -58 40q-1 50 121 187q93 106 104 153q4 21 -6 30.5t-27 9.5q-88 0 -177 -87q-80 -78 -80 -130q0 -40 36 -41q18 -1 36 10q4 3 7.5 6t5 4t2.5 0q2 -1 -2 -6.5t-10 -9.5q-18 -14 -42 -13q-43 3 -53 49
q-8 34 13.5 79.5t61.5 77.5q89 71 208 71q47 0 74.5 -15t27.5 -43q0 -21 -16 -49.5t-32.5 -49l-48.5 -58.5q-116 -134 -122 -173q-1 -10 3.5 -14.5t13.5 -3.5q41 2 102 49q73 53 146 140q71 83 166 163q78 63 125 56q13 -2 11.5 -15.5t-16.5 -29.5q-24 -26 -75 -63
q-59 -43 -91 -70q-8 -9 -23 -28q-94 -126 -107 -173q-5 -18 6 -22q19 -7 61 23q26 18 61 49q9 8 12 5t-7 -13q-22 -22 -63 -52q-17 -13 -48.5 -28.5t-57.5 -16.5q-52 -1 -52 42q0 40 50 103zM630 277l60 43q35 24 65 54q10 11 15.5 19.5t6 13t-2.5 6.5q-14 6 -54 -38z
M617 473q-10 14 0 40q9 22 47 22q14 0 17 -8.5t-7 -21.5q-11 -13 -28.5 -22.5t-28.5 -9.5zM499 473q-12 14 -1 40q10 22 46 22q14 0 17.5 -8.5t-6.5 -21.5q-12 -14 -29 -23t-27 -9z" />
    <glyph glyph-name="Yacute" unicode="&#xdd;" horiz-adv-x="564" 
d="M445 142q-157 -151 -248 -151q-56 0 -58 40q-1 50 121 187q93 106 104 153q4 21 -6.5 31.5t-26.5 10.5q-86 0 -177 -89q-80 -78 -80 -130q0 -41 35 -42q18 -1 37 11l9 7q4 4 6 3q4 -4 -12 -16q-19 -13 -41 -13q-21 0 -35.5 13.5t-18.5 35.5q-6 36 13.5 81.5t57.5 76.5
q86 72 212 72q47 0 75 -15.5t27 -44.5q-1 -30 -25.5 -66t-71.5 -91q-116 -134 -122 -173q-1 -10 3.5 -14.5t13.5 -3.5q41 2 102 49q43 31 73 60t73 80q116 130 157 166q22 20 56.5 39t59.5 14q10 -1 13.5 -8t1.5 -16t-9 -18q-20 -27 -69 -66q-60 -50 -81 -70l-130 -178
l-87 -123q75 2 115.5 -31.5t32.5 -89.5q-1 -7 -3.5 -12t-4.5 -7t-3 -1q-2 1 -1 5l2 14q6 54 -33 85t-113 27q-51 -74 -105 -134q-69 -79 -149 -121.5t-132 -42.5q-23 0 -37 10t-12 32q3 40 47.5 89t101.5 87q88 61 196 83zM637 278l51 42q34 28 56 54q27 31 15 39t-48 -38z
M290 -76q-95 -23 -176 -79q-44 -30 -83.5 -79.5t-42.5 -89.5q-3 -25 18 -29q28 -4 65 18q57 36 128 134zM532 467q-11 -2 -12 3q-1 3 11 11q19 12 99 68q13 9 23 9q7 0 13 -8t6 -17q0 -18 -22 -27q-56 -26 -118 -39z" />
    <glyph glyph-name="Thorn" unicode="&#xde;" horiz-adv-x="642" 
d="M190 99q-99 -64 -159 -116q-83 -72 -83 -98q0 -15 16 -13q18 1 45 18t76.5 71t104.5 138zM494 362q46 11 71 21q79 30 81 57q2 21 -25 21q-29 0 -82 -50q-7 -6 -45 -49zM384 235q97 83 158 83q27 0 49 -18.5t20 -56.5q-3 -48 -50 -103q-55 -63 -136.5 -97.5t-134.5 -27.5
q-14 1 -24 5.5t-13 9t-1 7.5q1 1 4 -1.5t11.5 -6t20.5 -4.5q38 -4 95 40t110 108q86 103 58 128q-5 5 -14 6q-55 3 -185 -111q-98 -136 -213 -239q-47 -42 -95 -69t-76 -30q-33 -4 -34 23q-1 34 88 109q64 54 178 126q2 2 11 15.5l21.5 31t23.5 31.5q74 94 124 140v1
q-44 -8 -82 -9q-37 -1 -64.5 3.5t-45.5 17.5t-18 35q2 25 25 40t50 20q24 4 24 -2q0 -1 -2.5 -1.5t-7.5 -1t-10 -2.5q-43 -16 -43 -53q0 -49 92 -47q47 1 92 11q43 40 87 69q81 55 143 55q17 0 27 -8.5t8 -22.5q-6 -38 -90 -66q-32 -11 -82 -24q-17 -22 -55.5 -64.5
t-43.5 -49.5z" />
    <glyph glyph-name="germandbls" unicode="&#xdf;" horiz-adv-x="413" 
d="M303 24q25 8 56 28q35 23 55 42q10 10 14 6q3 -3 -3 -9q-22 -22 -59 -46q-29 -19 -66 -33q-66 -21 -113 -21q-40 0 -58.5 18t-15.5 41q4 24 22.5 41t39.5 15q14 -1 20.5 -9t4.5 -17q-2 -11 -21 -25q-22 -16 -24 -29q-1 -12 5.5 -18.5t17.5 -6.5q38 0 63 49q26 52 14 98
l-7.5 21.5t-7.5 23.5t-0.5 20t9.5 20q12 13 53 29t62 29q54 35 66 83q3 13 -2.5 22t-19.5 10q-50 4 -120 -75q-21 -24 -109 -155q-98 -140 -138 -188q-65 -80 -122.5 -112t-120.5 -34q-37 0 -61.5 14t-27.5 32q-2 14 7 25.5t25 11.5q27 0 34 -36q7 -37 28 -37
q35 0 69.5 30.5t90.5 108.5q20 27 96 140l-1 1l-49 -44q-10 -10 -14 -6t6 12l83 74q82 114 96 130q57 66 118 93.5t114 23.5q31 -2 47.5 -22.5t8.5 -44.5q-11 -35 -65 -66q-19 -11 -52.5 -20.5t-58.5 -17.5t-30 -16t4.5 -22t28.5 -33t24 -25q34 -40 15 -88q-8 -21 -31 -36z
" />
    <glyph glyph-name="agrave" unicode="&#xe0;" horiz-adv-x="359" 
d="M222 359h1q19 0 22 -25q9 -60 12 -75q3 -13 1 -14q-4 -4 -12 6q-33 40 -50 69q-4 6 -4 14q0 12 9.5 18.5t20.5 6.5zM237 144q19 20 28 23.5t39 3.5q32 0 32 -7q0 -3 -5 -9l-53 -66q-27 -36 -34 -49t0 -18q7 -6 25 2q15 6 42 28l49 42q10 10 13 6q3 -3 -9 -15
q-22 -22 -60 -52q-57 -44 -100 -44q-39 0 -45 26q-4 17 9 35l-1 1q-70 -62 -128 -62q-60 0 -60 39q0 27 32 60l-1 1q-8 -7 -9 -8q-13 -11 -16 -8q-2 4 7 13q19 18 39 31q30 20 71 38q50 21 97 21q22 0 30.5 -9.5t7.5 -22.5zM209 164h-1q-26 0 -94 -66q-57 -57 -55 -79
q1 -10 13 -10q14 0 38.5 14t45.5 33q25 23 47.5 51t23.5 39q1 18 -18 18z" />
    <glyph glyph-name="aacute" unicode="&#xe1;" horiz-adv-x="359" 
d="M315 357q19 2 25 -11q7 -16 -11 -34q-29 -29 -85 -63q-10 -6 -14 -2q-2 2 7 13q21 26 51 74q12 22 27 23zM237 144q19 20 28 23.5t39 3.5q32 0 32 -7q0 -3 -5 -9l-53 -66q-27 -36 -34 -49t0 -18q7 -6 25 2q15 6 42 28l49 42q10 10 13 6q3 -3 -9 -15q-22 -22 -60 -52
q-57 -44 -100 -44q-39 0 -45 26q-4 17 9 35l-1 1q-70 -62 -128 -62q-60 0 -60 39q0 27 32 60l-1 1q-8 -7 -9 -8q-13 -11 -16 -8q-2 4 7 13q19 18 39 31q30 20 71 38q50 21 97 21q22 0 30.5 -9.5t7.5 -22.5zM209 164h-1q-26 0 -94 -66q-57 -57 -55 -79q1 -10 13 -10
q14 0 38.5 14t45.5 33q25 23 47.5 51t23.5 39q1 18 -18 18z" />
    <glyph glyph-name="acircumflex" unicode="&#xe2;" horiz-adv-x="359" 
d="M288 330q4 -1 6 -8q16 -44 37 -77q4 -6 3 -8q-2 -3 -13 1q-30 13 -54 34q-39 -19 -106 -38q-15 -5 -16 0q-1 4 8 9q73 41 122 82q7 7 13 5zM237 144q19 20 28 23.5t39 3.5q32 0 32 -7q0 -3 -5 -9l-53 -66q-27 -36 -34 -49t0 -18q7 -6 25 2q15 6 42 28l49 42q10 10 13 6
q3 -3 -9 -15q-22 -22 -60 -52q-57 -44 -100 -44q-39 0 -45 26q-4 17 9 35l-1 1q-70 -62 -128 -62q-60 0 -60 39q0 27 32 60l-1 1q-8 -7 -9 -8q-13 -11 -16 -8q-2 4 7 13q19 18 39 31q30 20 71 38q50 21 97 21q22 0 30.5 -9.5t7.5 -22.5zM209 164h-1q-26 0 -94 -66
q-57 -57 -55 -79q1 -10 13 -10q14 0 38.5 14t45.5 33q25 23 47.5 51t23.5 39q1 18 -18 18z" />
    <glyph glyph-name="atilde" unicode="&#xe3;" horiz-adv-x="359" 
d="M282 243h-1q-13 0 -35 13t-35 14q-24 1 -40 -17q-6 -7 -10 -6q-5 2 0 12q11 21 29 37t38 15q14 -1 33.5 -13t31.5 -13q23 -1 40 18q6 7 10 6q6 -2 0 -12q-10 -19 -27 -36.5t-34 -17.5zM237 144q19 20 28 23.5t39 3.5q32 0 32 -7q0 -3 -5 -9l-53 -66q-27 -36 -34 -49
t0 -18q7 -6 25 2q15 6 42 28l49 42q10 10 13 6q3 -3 -9 -15q-22 -22 -60 -52q-57 -44 -100 -44q-39 0 -45 26q-4 17 9 35l-1 1q-70 -62 -128 -62q-60 0 -60 39q0 27 32 60l-1 1q-8 -7 -9 -8q-13 -11 -16 -8q-2 4 7 13q19 18 39 31q30 20 71 38q50 21 97 21q22 0 30.5 -9.5
t7.5 -22.5zM209 164h-1q-26 0 -94 -66q-57 -57 -55 -79q1 -10 13 -10q14 0 38.5 14t45.5 33q25 23 47.5 51t23.5 39q1 18 -18 18z" />
    <glyph glyph-name="adieresis" unicode="&#xe4;" horiz-adv-x="359" 
d="M235 318h1q16 0 20 -10t-7 -23q-24 -28 -63 -37q-10 19 -1 45q9 25 50 25zM345 318h1q16 0 20 -10t-7 -23q-24 -28 -63 -37q-10 19 -1 45q9 25 50 25zM237 144q19 20 28 23.5t39 3.5q32 0 32 -7q0 -3 -5 -9l-53 -66q-27 -36 -34 -49t0 -18q7 -6 25 2q15 6 42 28l49 42
q10 10 13 6q3 -3 -9 -15q-22 -22 -60 -52q-57 -44 -100 -44q-39 0 -45 26q-4 17 9 35l-1 1q-70 -62 -128 -62q-60 0 -60 39q0 27 32 60l-1 1q-8 -7 -9 -8q-13 -11 -16 -8q-2 4 7 13q19 18 39 31q30 20 71 38q50 21 97 21q22 0 30.5 -9.5t7.5 -22.5zM209 164h-1
q-26 0 -94 -66q-57 -57 -55 -79q1 -10 13 -10q14 0 38.5 14t45.5 33q25 23 47.5 51t23.5 39q1 18 -18 18z" />
    <glyph glyph-name="aring" unicode="&#xe5;" horiz-adv-x="359" 
d="M263 350h1q22 0 38 -16.5t16 -38.5t-16 -38t-39 -16t-39 16t-16 38q0 23 16 39t39 16zM263 325h-1q-12 0 -20.5 -8.5t-8.5 -21.5t8.5 -21.5t21.5 -8.5t21.5 8.5t8.5 21.5t-8.5 21.5t-21.5 8.5zM237 144q19 20 28 23.5t39 3.5q32 0 32 -7q0 -3 -5 -9l-53 -66
q-27 -36 -34 -49t0 -18q7 -6 25 2q15 6 42 28l49 42q10 10 13 6q3 -3 -9 -15q-22 -22 -60 -52q-57 -44 -100 -44q-39 0 -45 26q-4 17 9 35l-1 1q-70 -62 -128 -62q-60 0 -60 39q0 27 32 60l-1 1q-8 -7 -9 -8q-13 -11 -16 -8q-2 4 7 13q19 18 39 31q30 20 71 38q50 21 97 21
q22 0 30.5 -9.5t7.5 -22.5zM209 164h-1q-26 0 -94 -66q-57 -57 -55 -79q1 -10 13 -10q14 0 38.5 14t45.5 33q25 23 47.5 51t23.5 39q1 18 -18 18z" />
    <glyph glyph-name="ae" unicode="&#xe6;" horiz-adv-x="428" 
d="M273 10q40 0 98 38q31 21 57 45q10 8 13 5t-11 -16q-31 -28 -57 -46q-61 -42 -126 -45q-45 -2 -65 10.5t-20 30.5q0 10 4 17l-1 1q-67 -60 -126 -61q-60 0 -60 39q0 27 32 60l-1 1q-7 -6 -9 -8q-13 -11 -16 -8q-2 4 7 13q15 15 39 31q35 24 71 38q35 14 81 21q43 6 46 -4
q0 -2 -2.5 -3.5t-10 -3.5t-12.5 -4q-44 -18 -90 -63q-57 -57 -55 -79q1 -10 13 -10q14 0 38.5 14t45.5 33q41 37 106 116q7 8 18 8q27 0 28 -4q0 -2 -3 -7l-11 -16q44 23 82 23q53 0 51 -31t-67 -62q-48 -23 -105 -31q-6 -10 -6 -21q0 -21 24 -21zM260 62q33 4 70 31
q38 30 45 58q3 15 -10 15q-21 0 -59 -42q-31 -34 -46 -62z" />
    <glyph glyph-name="ccedilla" unicode="&#xe7;" horiz-adv-x="249" 
d="M65 -9q-19 -15 -26 -25q6 2 13 2q22 0 33 -10.5t9 -29.5t-23 -30t-53 -10q-40 1 -57 25q-10 13 -3 18q1 1 2.5 0t3.5 -3.5t4 -3.5q16 -14 48 -14h1q27 0 32 17q3 10 -3 17.5t-20 6.5q-5 0 -9 -2t-5.5 -2.5t-3.5 0.5q-4 3 2 9q14 16 37 36q-21 1 -39 12t-19 34
q-1 25 24 52l-1 1q-1 -1 -5.5 -5t-5.5 -5q-13 -11 -16 -8q-2 4 7 13q18 16 33 27q25 19 52 31q66 32 113 32q24 0 36 -11.5t9 -26.5q-2 -13 -13 -23.5t-21 -10.5q-25 0 -8 29q18 29 3 33q-17 4 -62 -42q-51 -51 -56 -89q-3 -23 23 -23q36 0 91 36q27 18 57 45q9 9 13 5
q3 -3 -11 -16q-26 -24 -54 -43q-70 -48 -132 -48z" />
    <glyph glyph-name="egrave" unicode="&#xe8;" horiz-adv-x="249" 
d="M198 356h1q19 0 22 -25q9 -60 12 -75q3 -12 1 -14q-4 -4 -12 6q-33 40 -50 69q-4 6 -4 14q0 12 9.5 18.5t20.5 6.5zM95 9q38 0 97 39q33 22 59 47q8 6 11 3q3 -4 -12 -17q-26 -24 -57 -45q-61 -42 -125 -45q-79 -4 -79 47q0 26 24 52l-1 1q-2 -2 -6 -5.5t-5 -4.5
q-13 -11 -16 -8q-2 4 7 13q17 16 32 26q26 19 52 32q66 32 121 32h1q52 0 50 -31t-67 -62q-48 -23 -105 -31q-6 -10 -6 -21q0 -22 25 -22zM81 62q33 4 70 31q38 30 45 58q3 15 -10 15q-21 0 -59 -42q-31 -34 -46 -62z" />
    <glyph glyph-name="eacute" unicode="&#xe9;" horiz-adv-x="249" 
d="M282 357q19 2 25 -11q7 -16 -11 -34q-29 -29 -85 -63q-10 -6 -14 -2q-2 2 7 13q21 26 51 74q12 22 27 23zM95 9q38 0 97 39q33 22 59 47q8 6 11 3q3 -4 -12 -17q-26 -24 -57 -45q-61 -42 -125 -45q-79 -4 -79 47q0 26 24 52l-1 1q-2 -2 -6 -5.5t-5 -4.5q-13 -11 -16 -8
q-2 4 7 13q17 16 32 26q26 19 52 32q66 32 121 32h1q52 0 50 -31t-67 -62q-48 -23 -105 -31q-6 -10 -6 -21q0 -22 25 -22zM81 62q33 4 70 31q38 30 45 58q3 15 -10 15q-21 0 -59 -42q-31 -34 -46 -62z" />
    <glyph glyph-name="ecircumflex" unicode="&#xea;" horiz-adv-x="249" 
d="M271 330q4 -1 6 -8q16 -44 37 -77q4 -6 3 -8q-2 -3 -13 1q-30 13 -54 34q-39 -19 -106 -38q-15 -5 -16 0q-1 4 8 9q73 41 122 82q7 7 13 5zM95 9q38 0 97 39q33 22 59 47q8 6 11 3q3 -4 -12 -17q-26 -24 -57 -45q-61 -42 -125 -45q-79 -4 -79 47q0 26 24 52l-1 1
q-2 -2 -6 -5.5t-5 -4.5q-13 -11 -16 -8q-2 4 7 13q17 16 32 26q26 19 52 32q66 32 121 32h1q52 0 50 -31t-67 -62q-48 -23 -105 -31q-6 -10 -6 -21q0 -22 25 -22zM81 62q33 4 70 31q38 30 45 58q3 15 -10 15q-21 0 -59 -42q-31 -34 -46 -62z" />
    <glyph glyph-name="edieresis" unicode="&#xeb;" horiz-adv-x="249" 
d="M190 318h1q16 0 20 -10t-7 -23q-24 -28 -63 -37q-10 19 -1 45q9 25 50 25zM300 318h1q16 0 20 -10t-7 -23q-24 -28 -63 -37q-10 19 -1 45q9 25 50 25zM95 9q38 0 97 39q33 22 59 47q8 6 11 3q3 -4 -12 -17q-26 -24 -57 -45q-61 -42 -125 -45q-79 -4 -79 47q0 26 24 52
l-1 1q-2 -2 -6 -5.5t-5 -4.5q-13 -11 -16 -8q-2 4 7 13q17 16 32 26q26 19 52 32q66 32 121 32h1q52 0 50 -31t-67 -62q-48 -23 -105 -31q-6 -10 -6 -21q0 -22 25 -22zM81 62q33 4 70 31q38 30 45 58q3 15 -10 15q-21 0 -59 -42q-31 -34 -46 -62z" />
    <glyph glyph-name="igrave" unicode="&#xec;" horiz-adv-x="209" 
d="M158 352h1q19 0 22 -25q9 -60 12 -75q3 -13 1 -14q-4 -4 -12 6q-33 40 -50 69q-4 6 -4 14q0 12 9.5 18.5t20.5 6.5zM105 154q-25 -9 -64 -39q-18 -14 -42 -36q-10 -9 -13 -6q-4 3 6 13q41 37 72 57q46 29 92 29q40 0 40 -8q0 -3 -5 -8q-34 -37 -58 -67q-22 -27 -33 -49
q-9 -18 -3 -22q5 -4 21 4q19 10 44 30q2 2 47 41q11 9 14 6t-8 -13q-29 -29 -59 -52q-58 -44 -106 -44q-44 0 -44 29q0 16 14 38q14 25 43.5 58t41.5 39z" />
    <glyph glyph-name="iacute" unicode="&#xed;" horiz-adv-x="209" 
d="M254 357q19 2 25 -11q7 -16 -11 -34q-29 -29 -85 -63q-10 -6 -14 -2q-2 2 7 13q21 26 51 74q12 22 27 23zM105 154q-25 -9 -64 -39q-18 -14 -42 -36q-10 -9 -13 -6q-4 3 6 13q41 37 72 57q46 29 92 29q40 0 40 -8q0 -3 -5 -8q-34 -37 -58 -67q-22 -27 -33 -49
q-9 -18 -3 -22q5 -4 21 4q19 10 44 30q2 2 47 41q11 9 14 6t-8 -13q-29 -29 -59 -52q-58 -44 -106 -44q-44 0 -44 29q0 16 14 38q14 25 43.5 58t41.5 39z" />
    <glyph glyph-name="icircumflex" unicode="&#xee;" horiz-adv-x="209" 
d="M217 330q4 -1 6 -8q16 -44 37 -77q4 -6 3 -8q-2 -3 -13 1q-30 13 -54 34q-39 -19 -106 -38q-15 -5 -16 0q-1 4 8 9q73 41 122 82q7 7 13 5zM105 154q-25 -9 -64 -39q-18 -14 -42 -36q-10 -9 -13 -6q-4 3 6 13q41 37 72 57q46 29 92 29q40 0 40 -8q0 -3 -5 -8
q-34 -37 -58 -67q-22 -27 -33 -49q-9 -18 -3 -22q5 -4 21 4q19 10 44 30q2 2 47 41q11 9 14 6t-8 -13q-29 -29 -59 -52q-58 -44 -106 -44q-44 0 -44 29q0 16 14 38q14 25 43.5 58t41.5 39z" />
    <glyph glyph-name="idieresis" unicode="&#xef;" horiz-adv-x="209" 
d="M165 318h1q16 0 20 -10t-7 -23q-24 -28 -63 -37q-10 19 -1 45q9 25 50 25zM275 318h1q16 0 20 -10t-7 -23q-24 -28 -63 -37q-10 19 -1 45q9 25 50 25zM105 154q-25 -9 -64 -39q-18 -14 -42 -36q-10 -9 -13 -6q-4 3 6 13q41 37 72 57q46 29 92 29q40 0 40 -8q0 -3 -5 -8
q-34 -37 -58 -67q-22 -27 -33 -49q-9 -18 -3 -22q5 -4 21 4q19 10 44 30q2 2 47 41q11 9 14 6t-8 -13q-29 -29 -59 -52q-58 -44 -106 -44q-44 0 -44 29q0 16 14 38q14 25 43.5 58t41.5 39z" />
    <glyph glyph-name="eth" unicode="&#xf0;" horiz-adv-x="322" 
d="M82 2q13 0 39 19t46 41q43 48 50 80q2 11 -7 13q-21 5 -81 -49q-22 -19 -39.5 -45.5t-20.5 -42.5q-4 -16 13 -16zM193 176q21 -1 29.5 -13t5.5 -26q11 15 21.5 47.5t10.5 59.5q0 11 -1 16l-58 -20l-33 -11q-13 -4 -14 1q-2 5 11 11q17 9 89 40q-15 67 -75 70q-22 1 -22 2
q-1 2 1.5 4t7.5 3.5t13 1.5q95 6 135 -55l54 21q21 8 26 -7q4 -12 -19 -21l-50 -18q6 -16 8 -43q4 -115 -99 -197q-63 -51 -159 -51q-78 0 -80 50q-2 28 24 54l-1 1q-2 -1 -4 -3.5t-6 -5.5t-7 -6q-14 -12 -17 -9q-2 4 6 12q13 13 34 28q13 10 38 24q71 40 131 40z" />
    <glyph glyph-name="ntilde" unicode="&#xf1;" horiz-adv-x="435" 
d="M323 243h-1q-13 0 -35 13t-35 14q-24 1 -40 -17q-6 -7 -10 -6q-5 2 0 12q11 21 29 37t38 15q14 -1 33.5 -13t31.5 -13q23 -1 40 18q6 7 10 6q6 -2 0 -12q-10 -19 -27 -36.5t-34 -17.5zM282 -8q-32 -1 -42.5 11.5t-7.5 29.5q3 19 34 57q38 46 40 49q8 10 -2 13
q-9 3 -31 -8q-32 -17 -72 -46q-48 -34 -115 -89q-12 -10 -50 -13q-23 -1 -29 2t-1 14q10 21 46 67q5 7 20.5 26t22.5 29t2 14q-5 3 -16 -4q-20 -13 -35 -25q-25 -20 -45 -38q-13 -12 -17 -8q-2 3 7 12q32 30 52 45q59 46 100 46q40 0 40 -27q0 -15 -22 -44q-13 -18 -46 -57
l2 -2q32 28 95 73q81 57 134 57q22 0 33 -8.5t10 -23.5q-1 -17 -36 -61q-25 -32 -30 -40q-11 -17 -2 -23q8 -5 25 5q23 12 41 27q18 14 50 43q9 7 12 4t-3 -9q-39 -36 -66 -56q-55 -41 -98 -42z" />
    <glyph glyph-name="ograve" unicode="&#xf2;" horiz-adv-x="315" 
d="M222 356h1q19 0 22 -25q9 -60 12 -75q3 -12 1 -14q-4 -4 -12 6q-33 40 -50 69q-4 6 -4 14q0 12 9.5 18.5t20.5 6.5zM18 96q-2 -1 -4 -3.5t-6 -5.5t-7 -6q-14 -12 -17 -9q-2 4 6 12q13 13 34 28q13 10 38 24q71 40 126 40q27 0 27 -7l-16 -8q-31 -15 -72 -55
q-21 -21 -39 -48.5t-18 -43.5q0 -13 13 -13q35 0 101 64q-2 21 15 47q9 12 33 32q0 7 -2 13q-1 3 -2.5 6.5t-1.5 4.5t1 3q5 5 26 -8q20 -12 20 -35q0 -41 -56 -87q3 -3 11 -3q19 0 40 16t49 41q7 7 11 4t-1 -8q-33 -30 -55 -46q-25 -17 -46 -17q-13 0 -19 6
q-20 -16 -60.5 -29.5t-69.5 -13.5q-80 0 -82 50q-2 28 24 54z" />
    <glyph glyph-name="oacute" unicode="&#xf3;" horiz-adv-x="315" 
d="M306 357q19 2 25 -11q7 -16 -11 -34q-29 -29 -85 -63q-10 -6 -14 -2q-2 2 7 13q21 26 51 74q12 22 27 23zM18 96q-2 -1 -4 -3.5t-6 -5.5t-7 -6q-14 -12 -17 -9q-2 4 6 12q13 13 34 28q13 10 38 24q71 40 126 40q27 0 27 -7l-16 -8q-31 -15 -72 -55q-21 -21 -39 -48.5
t-18 -43.5q0 -13 13 -13q35 0 101 64q-2 21 15 47q9 12 33 32q0 7 -2 13q-1 3 -2.5 6.5t-1.5 4.5t1 3q5 5 26 -8q20 -12 20 -35q0 -41 -56 -87q3 -3 11 -3q19 0 40 16t49 41q7 7 11 4t-1 -8q-33 -30 -55 -46q-25 -17 -46 -17q-13 0 -19 6q-20 -16 -60.5 -29.5t-69.5 -13.5
q-80 0 -82 50q-2 28 24 54z" />
    <glyph glyph-name="ocircumflex" unicode="&#xf4;" horiz-adv-x="315" 
d="M271 330q4 -1 6 -8q16 -44 37 -77q4 -6 3 -8q-2 -3 -13 1q-30 13 -54 34q-39 -19 -106 -38q-15 -5 -16 0q-1 4 8 9q73 41 122 82q7 7 13 5zM18 96q-2 -1 -4 -3.5t-6 -5.5t-7 -6q-14 -12 -17 -9q-2 4 6 12q13 13 34 28q13 10 38 24q71 40 126 40q27 0 27 -7l-16 -8
q-31 -15 -72 -55q-21 -21 -39 -48.5t-18 -43.5q0 -13 13 -13q35 0 101 64q-2 21 15 47q9 12 33 32q0 7 -2 13q-1 3 -2.5 6.5t-1.5 4.5t1 3q5 5 26 -8q20 -12 20 -35q0 -41 -56 -87q3 -3 11 -3q19 0 40 16t49 41q7 7 11 4t-1 -8q-33 -30 -55 -46q-25 -17 -46 -17q-13 0 -19 6
q-20 -16 -60.5 -29.5t-69.5 -13.5q-80 0 -82 50q-2 28 24 54z" />
    <glyph glyph-name="otilde" unicode="&#xf5;" horiz-adv-x="315" 
d="M254 243h-1q-13 0 -35 13t-35 14q-24 1 -40 -17q-6 -7 -10 -6q-5 2 0 12q11 21 29 37t38 15q14 -1 33.5 -13t31.5 -13q23 -1 40 18q6 7 10 6q6 -2 0 -12q-10 -19 -27 -36.5t-34 -17.5zM18 96q-2 -1 -4 -3.5t-6 -5.5t-7 -6q-14 -12 -17 -9q-2 4 6 12q13 13 34 28
q13 10 38 24q71 40 126 40q27 0 27 -7l-16 -8q-31 -15 -72 -55q-21 -21 -39 -48.5t-18 -43.5q0 -13 13 -13q35 0 101 64q-2 21 15 47q9 12 33 32q0 7 -2 13q-1 3 -2.5 6.5t-1.5 4.5t1 3q5 5 26 -8q20 -12 20 -35q0 -41 -56 -87q3 -3 11 -3q19 0 40 16t49 41q7 7 11 4t-1 -8
q-33 -30 -55 -46q-25 -17 -46 -17q-13 0 -19 6q-20 -16 -60.5 -29.5t-69.5 -13.5q-80 0 -82 50q-2 28 24 54z" />
    <glyph glyph-name="odieresis" unicode="&#xf6;" horiz-adv-x="315" 
d="M207 318h1q16 0 20 -10t-7 -23q-24 -28 -63 -37q-10 19 -1 45q9 25 50 25zM317 318h1q16 0 20 -10t-7 -23q-24 -28 -63 -37q-10 19 -1 45q9 25 50 25zM18 96q-2 -1 -4 -3.5t-6 -5.5t-7 -6q-14 -12 -17 -9q-2 4 6 12q13 13 34 28q13 10 38 24q71 40 126 40q27 0 27 -7
l-16 -8q-31 -15 -72 -55q-21 -21 -39 -48.5t-18 -43.5q0 -13 13 -13q35 0 101 64q-2 21 15 47q9 12 33 32q0 7 -2 13q-1 3 -2.5 6.5t-1.5 4.5t1 3q5 5 26 -8q20 -12 20 -35q0 -41 -56 -87q3 -3 11 -3q19 0 40 16t49 41q7 7 11 4t-1 -8q-33 -30 -55 -46q-25 -17 -46 -17
q-13 0 -19 6q-20 -16 -60.5 -29.5t-69.5 -13.5q-80 0 -82 50q-2 28 24 54z" />
    <glyph glyph-name="divide" unicode="&#xf7;" horiz-adv-x="319" 
d="M222 227h1q13 0 16 -7.5t-5 -17.5q-8 -12 -24.5 -20.5t-26.5 -8.5q-9 13 0 34q9 20 39 20zM311 129v-1q0 -5 -19 -5q-181 -6 -218 -7q-26 0 -26 13q2 19 25 17q32 -1 111.5 -4t113.5 -5q13 0 13 -8zM164 84h1q14 0 17 -8t-6 -19q-8 -10 -24 -18.5t-25 -8.5q-11 13 0 34
q9 20 37 20z" />
    <glyph glyph-name="oslash" unicode="&#xf8;" horiz-adv-x="315" 
d="M217 166h-1q-29 0 -90 -59q-34 -33 -52 -74q-5 -12 -5 -20l155 152q-2 1 -7 1zM83 1h1q16 0 46 20t54 44q-2 21 15 47q13 19 35 32q0 6 -2 12l-158 -153q4 -2 9 -2zM24 112q13 10 38 24q52 31 111 40q34 5 60 -2q10 9 32 31q19 19 24 13q5 -5 -15 -24q-5 -4 -14.5 -13
l-13.5 -13q27 -15 27 -40q0 -41 -56 -87q3 -3 11 -3q19 0 40 16t49 41q7 7 11 4t-1 -8q-33 -30 -55 -46q-25 -17 -46 -17q-13 0 -19 6q-20 -15 -59 -29t-72 -15q-9 0 -15 1l-35 -34q-8 -8 -11 -4q-2 4 5 11l29 29q-52 8 -54 48q-2 28 24 54l-1 1q-2 -1 -4 -3.5t-6 -5.5
t-7 -6q-14 -12 -17 -9q-2 4 6 12q13 13 34 28z" />
    <glyph glyph-name="ugrave" unicode="&#xf9;" horiz-adv-x="402" 
d="M253 349h1q19 0 22 -25q9 -60 12 -75q2 -13 1 -14q-4 -4 -12 6q-33 40 -50 69q-4 6 -4 14q0 12 9.5 18.5t20.5 6.5zM105 154q-25 -9 -64 -39q-19 -15 -41 -35q-11 -10 -14 -7q-4 3 6 13q41 37 72 57q46 29 89 29q38 0 38 -7q0 -4 -5 -9l-57 -68q-27 -33 -38 -54
q-7 -12 -1 -17q6 -4 23 4q26 13 75 51q24 19 58 50.5t45 40.5q14 11 47 11q38 0 38 -6q0 -3 -5 -10q-30 -37 -52 -70t-29 -45q-9 -16 -2 -22t25 3q17 8 40 27q29 24 51 44q8 8 12 4q3 -4 -12 -17q-25 -24 -57 -49q-54 -44 -99 -44q-55 0 -50 43q1 16 16 36l19 25l-2 2
q-25 -22 -58 -47q-77 -58 -126 -58q-45 0 -45 32q0 16 17 41t44.5 54.5t41.5 36.5z" />
    <glyph glyph-name="uacute" unicode="&#xfa;" horiz-adv-x="402" 
d="M332 357q19 2 25 -11q7 -16 -11 -34q-29 -29 -85 -63q-10 -6 -14 -2q-2 2 7 13q21 26 51 74q12 22 27 23zM105 154q-25 -9 -64 -39q-19 -15 -41 -35q-11 -10 -14 -7q-4 3 6 13q41 37 72 57q46 29 89 29q38 0 38 -7q0 -4 -5 -9l-57 -68q-27 -33 -38 -54q-7 -12 -1 -17
q6 -4 23 4q26 13 75 51q24 19 58 50.5t45 40.5q14 11 47 11q38 0 38 -6q0 -3 -5 -10q-30 -37 -52 -70t-29 -45q-9 -16 -2 -22t25 3q17 8 40 27q29 24 51 44q8 8 12 4q3 -4 -12 -17q-25 -24 -57 -49q-54 -44 -99 -44q-55 0 -50 43q1 16 16 36l19 25l-2 2q-25 -22 -58 -47
q-77 -58 -126 -58q-45 0 -45 32q0 16 17 41t44.5 54.5t41.5 36.5z" />
    <glyph glyph-name="ucircumflex" unicode="&#xfb;" horiz-adv-x="402" 
d="M320 335q4 -1 6 -8q16 -44 37 -77q4 -6 3 -8q-2 -3 -13 1q-30 13 -54 34q-39 -19 -106 -38q-15 -5 -16 0q-1 3 8 9q73 41 122 82q7 7 13 5zM105 154q-25 -9 -64 -39q-19 -15 -41 -35q-11 -10 -14 -7q-4 3 6 13q41 37 72 57q46 29 89 29q38 0 38 -7q0 -4 -5 -9l-57 -68
q-27 -33 -38 -54q-7 -12 -1 -17q6 -4 23 4q26 13 75 51q24 19 58 50.5t45 40.5q14 11 47 11q38 0 38 -6q0 -3 -5 -10q-30 -37 -52 -70t-29 -45q-9 -16 -2 -22t25 3q17 8 40 27q29 24 51 44q8 8 12 4q3 -4 -12 -17q-25 -24 -57 -49q-54 -44 -99 -44q-55 0 -50 43q1 16 16 36
l19 25l-2 2q-25 -22 -58 -47q-77 -58 -126 -58q-45 0 -45 32q0 16 17 41t44.5 54.5t41.5 36.5z" />
    <glyph glyph-name="udieresis" unicode="&#xfc;" horiz-adv-x="402" 
d="M253 318h1q16 0 20 -10t-7 -23q-24 -28 -63 -37q-10 19 -1 45q9 25 50 25zM363 318h1q16 0 20 -10t-7 -23q-24 -28 -63 -37q-10 19 -1 45q9 25 50 25zM105 154q-25 -9 -64 -39q-19 -15 -41 -35q-11 -10 -14 -7q-4 3 6 13q41 37 72 57q46 29 89 29q38 0 38 -7q0 -4 -5 -9
l-57 -68q-27 -33 -38 -54q-7 -12 -1 -17q6 -4 23 4q26 13 75 51q24 19 58 50.5t45 40.5q14 11 47 11q38 0 38 -6q0 -3 -5 -10q-30 -37 -52 -70t-29 -45q-9 -16 -2 -22t25 3q17 8 40 27q29 24 51 44q8 8 12 4q3 -4 -12 -17q-25 -24 -57 -49q-54 -44 -99 -44q-55 0 -50 43
q1 16 16 36l19 25l-2 2q-25 -22 -58 -47q-77 -58 -126 -58q-45 0 -45 32q0 16 17 41t44.5 54.5t41.5 36.5z" />
    <glyph glyph-name="yacute" unicode="&#xfd;" horiz-adv-x="396" 
d="M341 352q19 2 25 -11q7 -16 -11 -34q-29 -29 -85 -63q-10 -6 -14 -2q-2 2 7 13q21 26 51 74q12 22 27 23zM266 124l-2 1q-9 -9 -33 -30q-24 -22 -58 -47q-77 -58 -126 -58q-45 0 -45 32q0 16 17 41q19 27 45 55.5t41 35.5q-25 -9 -64 -39q-18 -14 -42 -36q-10 -9 -13 -6
q-4 3 6 13q41 37 72 57q46 29 89 29q38 0 38 -7q0 -4 -5 -9l-57 -68q-23 -29 -38 -55q-7 -13 -2 -17q6 -4 24 5q26 13 75 51q24 19 58 50.5t45 40.5q14 11 59 11q38 0 38 -6q0 -3 -5 -10q-20 -23 -64 -80l-132 -177q-127 -173 -177 -256q-12 -19 -7 -21q5 -3 13 7
q6 7 80 110l110 147q58 74 127 146q27 27 63 59q10 9 13 6q4 -4 -10 -16q-51 -47 -59 -56q-63 -65 -126 -145l-120 -163q-74 -104 -87 -114q-21 -17 -49 -16q-31 1 -31 28q0 31 37 84l138 196z" />
    <glyph glyph-name="thorn" unicode="&#xfe;" horiz-adv-x="400" 
d="M67 155l19 18.5l28.5 27.5l30.5 30q8 8 43.5 48.5t54.5 60.5q17 20 69 72q34 32 64 32q14 0 24 -4t11 -8q-85 -85 -179 -199q-134 -165 -256 -331q-102 -137 -179 -257q-10 -16 -6 -20q5 -3 12 6q14 16 79 108q14 21 115 155q60 81 120 152q45 54 88 86q62 44 106 44
q25 0 36.5 -9.5t9.5 -24.5q-1 -5 -3 -10.5t-7.5 -13l-8.5 -11.5l-10.5 -13.5t-9.5 -11.5q-26 -32 -31 -41q-9 -15 -3 -20q7 -6 24 3q21 11 44 28q15 12 48 41q10 11 14 7t-3 -10q-41 -38 -66 -56q-59 -42 -104 -42q-42 0 -44 30q-1 23 34 68q13 16 43 50q8 11 -1 13
q-8 3 -21 -4q-51 -26 -103 -83q-62 -69 -147 -182l-121 -165q-63 -93 -87 -113q-18 -16 -49 -16q-15 0 -23.5 7.5t-8.5 19.5q0 26 39 84l138 197q103 141 211 275l-100 -92q-12 -10 -15 -7q-2 4 5 11z" />
    <glyph glyph-name="ydieresis" unicode="&#xff;" horiz-adv-x="396" 
d="M255 318h1q16 0 20 -10t-7 -23q-24 -28 -63 -37q-10 19 -1 45q9 25 50 25zM365 318h1q16 0 20 -10t-7 -23q-24 -28 -63 -37q-10 19 -1 45q9 25 50 25zM266 124l-2 1q-9 -9 -33 -30q-24 -22 -58 -47q-77 -58 -126 -58q-45 0 -45 32q0 16 17 41q19 27 45 55.5t41 35.5
q-25 -9 -64 -39q-18 -14 -42 -36q-10 -9 -13 -6q-4 3 6 13q41 37 72 57q46 29 89 29q38 0 38 -7q0 -4 -5 -9l-57 -68q-23 -29 -38 -55q-7 -13 -2 -17q6 -4 24 5q26 13 75 51q24 19 58 50.5t45 40.5q14 11 59 11q38 0 38 -6q0 -3 -5 -10q-20 -23 -64 -80l-132 -177
q-127 -173 -177 -256q-12 -19 -7 -21q5 -3 13 7q6 7 80 110l110 147q58 74 127 146q27 27 63 59q10 9 13 6q4 -4 -10 -16q-51 -47 -59 -56q-63 -65 -126 -145l-120 -163q-74 -104 -87 -114q-21 -17 -49 -16q-31 1 -31 28q0 31 37 84l138 196z" />
    <glyph glyph-name="Amacron" unicode="&#x100;" horiz-adv-x="725" 
d="M15 56v1q0 30 18 48t40 19t34.5 -9.5t10.5 -27.5q-1 -15 -25 -33q-16 -12 -16 -25q0 -17 23 -27t67 -6q91 8 199 83q-65 48 -64 117q1 47 35 80.5t87 33.5q78 1 120 -80q9 9 41 39q91 87 155 122q72 38 134 38q43 0 59 -13q3 -3 5 -6t2 -5t-2 -3q-1 -1 -3 2q-3 3 -6 5
q-9 6 -22 6q-17 0 -32 -11q-37 -27 -83 -94q-89 -124 -185 -280q23 0 59 19q23 13 52 38q16 14 19 11q4 -4 -10 -16q-29 -27 -58 -42q-35 -18 -67 -20q-18 -22 -77 -27q-13 -1 -19.5 1t-5.5 5.5t2 7.5q1 3 4.5 8.5t3.5 6.5q-33 3 -72 17q-31 11 -62 32q-107 -80 -212 -88
q-62 -5 -105.5 14.5t-43.5 58.5zM555 96q88 132 124 175q93 117 206 148v1q-67 1 -140 -38q-59 -32 -134 -102q-54 -51 -62 -60q10 -25 12 -58q1 -36 -6 -66zM440 286h-1q-37 0 -57.5 -27t-22.5 -65q-3 -59 29 -98q30 22 74 60l72 65q-35 65 -94 65zM396 87q14 -18 53 -36
q33 -15 66 -19l23 39q14 28 12 83q-2 35 -11 57l-71 -64q-33 -29 -72 -60zM791 478q-7 -1 -8.5 0.5t0.5 5.5q16 22 29 24q54 7 125 7q18 0 18 -10q0 -6 -10 -16q-12 -12 -20 -12q-83 4 -134 1z" />
    <glyph glyph-name="amacron" unicode="&#x101;" horiz-adv-x="359" 
d="M352 277v-1q0 -6 -7 -13q-10 -10 -19 -10q-73 3 -134 0q-8 0 -9.5 1t1.5 6q18 22 29 24q70 9 124 6q15 -1 15 -13zM237 144q19 20 28 23.5t39 3.5q32 0 32 -7q0 -3 -5 -9l-53 -66q-27 -36 -34 -49t0 -18q7 -6 25 2q15 6 42 28l49 42q10 10 13 6q3 -3 -9 -15
q-22 -22 -60 -52q-57 -44 -100 -44q-39 0 -45 26q-4 17 9 35l-1 1q-70 -62 -128 -62q-60 0 -60 39q0 27 32 60l-1 1q-8 -7 -9 -8q-13 -11 -16 -8q-2 4 7 13q19 18 39 31q30 20 71 38q50 21 97 21q22 0 30.5 -9.5t7.5 -22.5zM209 164h-1q-26 0 -94 -66q-57 -57 -55 -79
q1 -10 13 -10q14 0 38.5 14t45.5 33q25 23 47.5 51t23.5 39q1 18 -18 18z" />
    <glyph glyph-name="Abreve" unicode="&#x102;" horiz-adv-x="725" 
d="M15 56v1q0 30 18 48t40 19t34.5 -9.5t10.5 -27.5q-1 -15 -25 -33q-16 -12 -16 -25q0 -17 23 -27t67 -6q91 8 199 83q-65 48 -64 117q1 47 35 80.5t87 33.5q78 1 120 -80q9 9 41 39q91 87 155 122q72 38 134 38q43 0 59 -13q3 -3 5 -6t2 -5t-2 -3q-1 -1 -3 2q-3 3 -6 5
q-9 6 -22 6q-17 0 -32 -11q-37 -27 -83 -94q-89 -124 -185 -280q23 0 59 19q23 13 52 38q16 14 19 11q4 -4 -10 -16q-29 -27 -58 -42q-35 -18 -67 -20q-18 -22 -77 -27q-13 -1 -19.5 1t-5.5 5.5t2 7.5q1 3 4.5 8.5t3.5 6.5q-33 3 -72 17q-31 11 -62 32q-107 -80 -212 -88
q-62 -5 -105.5 14.5t-43.5 58.5zM555 96q88 132 124 175q93 117 206 148v1q-67 1 -140 -38q-59 -32 -134 -102q-54 -51 -62 -60q10 -25 12 -58q1 -36 -6 -66zM440 286h-1q-37 0 -57.5 -27t-22.5 -65q-3 -59 29 -98q30 22 74 60l72 65q-35 65 -94 65zM396 87q14 -18 53 -36
q33 -15 66 -19l23 39q14 28 12 83q-2 35 -11 57l-71 -64q-33 -29 -72 -60zM846 468q-23 3 -37 20t-13 40q2 11 7 11q1 0 5 -8q10 -21 44 -25q52 -4 88 27q6 6 10 4t-1 -9q-18 -28 -45 -45.5t-58 -14.5z" />
    <glyph glyph-name="abreve" unicode="&#x103;" horiz-adv-x="359" 
d="M194 321h1q2 0 5 -8q11 -29 44 -32q44 -4 86 34q6 6 11 4t0 -9q-43 -76 -104 -70q-22 2 -36.5 20.5t-13.5 49.5q0 11 7 11zM237 144q19 20 28 23.5t39 3.5q32 0 32 -7q0 -3 -5 -9l-53 -66q-27 -36 -34 -49t0 -18q7 -6 25 2q15 6 42 28l49 42q10 10 13 6q3 -3 -9 -15
q-22 -22 -60 -52q-57 -44 -100 -44q-39 0 -45 26q-4 17 9 35l-1 1q-70 -62 -128 -62q-60 0 -60 39q0 27 32 60l-1 1q-8 -7 -9 -8q-13 -11 -16 -8q-2 4 7 13q19 18 39 31q30 20 71 38q50 21 97 21q22 0 30.5 -9.5t7.5 -22.5zM209 164h-1q-26 0 -94 -66q-57 -57 -55 -79
q1 -10 13 -10q14 0 38.5 14t45.5 33q25 23 47.5 51t23.5 39q1 18 -18 18z" />
    <glyph glyph-name="Aogonek" unicode="&#x104;" horiz-adv-x="725" 
d="M440 286h-1q-37 0 -57.5 -27t-22.5 -65q-3 -59 29 -98q30 22 74 60l72 65q-35 65 -94 65zM555 96q88 132 124 175q93 117 206 148v1q-67 1 -140 -38q-59 -32 -134 -102l-62 -60q10 -25 12 -58q1 -36 -6 -66zM396 87q15 -18 53 -36q33 -15 66 -19l23 39q14 28 12 83
q-2 35 -11 57l-71 -64q-33 -29 -72 -60zM602 20q-12 -14 -30 -19q-59 -30 -70 -62q-7 -21 13 -23q14 -1 33 10q9 6 11 3t-3 -10q-33 -35 -74 -34q-20 1 -29.5 14t-4.5 29q11 34 87 66q-18 -3 -28 -1t-5 14q1 3 4.5 8.5t3.5 6.5q-33 3 -72 17q-36 13 -62 32
q-107 -80 -212 -88q-62 -5 -105.5 14.5t-43.5 58.5v1q0 30 18 48t40 19q21 1 33 -9.5t12 -27.5q0 -14 -25 -33q-16 -12 -16 -25q0 -17 23 -27t67 -6q91 8 199 83q-65 48 -64 117q1 47 35 80.5t87 33.5q78 1 120 -80l41 39q91 87 155 122q72 38 134 38q43 0 59 -13q3 -3 5 -6
t2 -5t-2 -3q-1 -1 -3 2q-3 3 -6 5q-9 6 -22 6q-17 0 -32 -11q-37 -27 -83 -94q-89 -124 -185 -280q23 0 59 19q23 13 52 38q16 14 19 11q4 -4 -10 -16q-29 -27 -58 -42q-35 -18 -67 -20z" />
    <glyph glyph-name="aogonek" unicode="&#x105;" horiz-adv-x="359" 
d="M209 164h-1q-26 0 -94 -66q-57 -57 -55 -79q1 -10 13 -10q14 0 38.5 14t45.5 33q25 23 47.5 51t23.5 39q1 18 -18 18zM31 117q31 21 71 38q50 21 97 21q22 0 30.5 -10.5t7.5 -21.5q19 20 28 23.5t39 3.5q32 0 32 -7q0 -3 -5 -9q-31 -37 -52 -66q-34 -46 -35 -49
q-7 -12 0 -17q8 -7 25 1q15 6 42 28l49 42q10 10 13 6q3 -3 -9 -15q-22 -22 -60 -52q-39 -30 -64 -38q-56 -29 -66 -60q-7 -21 13 -23q14 -1 33 10q9 6 11 3t-3 -10q-32 -34 -74 -34q-21 0 -30 12.5t-4 30.5q9 31 91 65h-7q-39 0 -45 26q-5 19 9 35l-1 1q-70 -62 -128 -62
q-60 0 -60 39q0 27 32 60l-1 1q-8 -7 -9 -8q-13 -11 -16 -8q-2 4 7 13q19 18 39 31z" />
    <glyph glyph-name="Cacute" unicode="&#x106;" horiz-adv-x="417" 
d="M274 472h1q92 0 134 -63q30 5 54 5q48 1 85.5 -18t34.5 -57q-3 -49 -66.5 -75t-132.5 -26q-111 0 -163 37q-48 -43 -80.5 -99t-32.5 -101q0 -96 104 -91q69 5 140 55q9 6 64 53q13 11 16 8q3 -4 -14 -19q-41 -37 -67 -56q-83 -55 -157 -60q-80 -6 -127 21t-49 85
q-5 134 155 244q-25 27 -25 63q0 41 36 67.5t90 26.5zM385 247h1q54 0 99 24.5t51 71.5q2 31 -18.5 46.5t-56.5 15.5q-28 0 -48 -5q10 -22 12 -55v-13t-0.5 -10.5t-1.5 -7.5l-1.5 -4.5t-1.5 -1.5t-1 3.5t-0.5 11.5t-1.5 16q-5 33 -21 56q-38 -12 -88.5 -46.5t-79.5 -66.5
q52 -35 157 -35zM277 458h-1q-49 0 -82.5 -21.5t-33.5 -58.5q0 -36 21 -57q102 62 209 84q-13 21 -45.5 37t-67.5 16zM490 487q-11 -2 -12 3q-1 3 11 11q19 12 99 68q13 9 23 9q7 0 13 -8t6 -17q0 -18 -22 -27q-56 -26 -118 -39z" />
    <glyph glyph-name="cacute" unicode="&#x107;" horiz-adv-x="249" 
d="M292 347q19 2 25 -11q7 -16 -11 -34q-29 -29 -85 -63q-10 -6 -14 -2q-2 2 7 13q21 26 51 74q12 22 27 23zM63 -9h-1q-35 0 -53.5 13t-19.5 34q-1 25 24 52l-1 1q-1 -1 -5.5 -5t-5.5 -5q-13 -11 -16 -8q-2 4 7 13q18 16 33 27q25 19 52 31q66 32 113 32q25 0 38.5 -11
t10.5 -28q-3 -16 -15 -27.5t-25 -11.5q-15 0 -19.5 11t4.5 25q17 28 16 30q-1 1 -4 2q-17 4 -62 -42q-51 -51 -56 -89q-3 -23 23 -23q36 0 91 36q27 18 57 45q9 9 13 5q3 -3 -11 -16q-26 -24 -54 -43q-70 -48 -134 -48z" />
    <glyph glyph-name="Ccaron" unicode="&#x10c;" horiz-adv-x="417" 
d="M274 472h1q92 0 134 -63q30 5 54 5q48 1 85.5 -18t34.5 -57q-3 -49 -66.5 -75t-132.5 -26q-111 0 -163 37q-48 -43 -80.5 -99t-32.5 -101q0 -96 104 -91q69 5 140 55q9 6 64 53q13 11 16 8q3 -4 -14 -19q-41 -37 -67 -56q-83 -55 -157 -60q-80 -6 -127 21t-49 85
q-5 134 155 244q-25 27 -25 63q0 41 36 67.5t90 26.5zM385 247h1q54 0 99 24.5t51 71.5q2 31 -18.5 46.5t-56.5 15.5q-28 0 -48 -5q10 -22 12 -55v-13t-0.5 -10.5t-1.5 -7.5l-1.5 -4.5t-1.5 -1.5t-1 3.5t-0.5 11.5t-1.5 16q-5 33 -21 56q-38 -12 -88.5 -46.5t-79.5 -66.5
q52 -35 157 -35zM277 458h-1q-49 0 -82.5 -21.5t-33.5 -58.5q0 -36 21 -57q102 62 209 84q-13 21 -45.5 37t-67.5 16zM494 482q-2 0 -6 7q-14 35 -37 74q-4 7 -3 8q3 3 13 -2q28 -13 52 -35q53 26 103 39q13 3 14 0q1 -4 -7 -8q-50 -29 -118 -78q-7 -5 -11 -5z" />
    <glyph glyph-name="ccaron" unicode="&#x10d;" horiz-adv-x="249" 
d="M183 235q-5 2 -7 8q-16 44 -37 77q-4 6 -3 8q2 3 13 -1q34 -15 57 -35q43 21 103 39q15 5 16 0q1 -3 -8 -9q-73 -41 -122 -82q-6 -6 -12 -5zM63 -9h-1q-35 0 -53.5 13t-19.5 34q-1 25 24 52l-1 1q-1 -1 -5.5 -5t-5.5 -5q-13 -11 -16 -8q-2 4 7 13q18 16 33 27
q25 19 52 31q66 32 113 32q25 0 38.5 -11t10.5 -28q-3 -16 -15 -27.5t-25 -11.5q-15 0 -19.5 11t4.5 25q17 28 16 30q-1 1 -4 2q-17 4 -62 -42q-51 -51 -56 -89q-3 -23 23 -23q36 0 91 36q27 18 57 45q9 9 13 5q3 -3 -11 -16q-26 -24 -54 -43q-70 -48 -134 -48z" />
    <glyph glyph-name="Dcaron" unicode="&#x10e;" horiz-adv-x="763" 
d="M370 272v1q0 19 -13 31.5t-31 13.5q-33 1 -64 -26q-4 -3 -7 -6.5t-5 -5.5t-3 -4t-2 -2.5t-2 -0.5q-1 1 0.5 4.5t5.5 9.5t10 12q32 32 72 30q23 -1 40.5 -16t20.5 -41q3 -30 -11.5 -61t-44.5 -55q-27 -22 -72.5 -33.5t-90.5 -9.5q-55 2 -96 27.5t-42 68.5q0 58 53 108.5
t135.5 78.5t169.5 28q136 0 237 -62q30 18 68 31q54 18 104 18q38 0 59 -16q4 -3 6 -6.5t2.5 -5.5t-0.5 -3q-1 0 -1.5 1t-3.5 4t-8 6q-18 10 -50 10q-43 0 -94 -21q-36 -15 -61 -34q60 -46 82 -112t-6 -121q-14 -26 -36.5 -46.5t-43 -33.5t-54.5 -22t-53.5 -13t-58 -6
t-50.5 -2h-48q-64 0 -154 10q-36 -8 -118 -8q-128 0 -146 5q-13 4 -12 11q1 14 35.5 18t105.5 2q49 0 140 -14q24 7 45 18.5t43 33.5t33.5 34.5t37 45.5l33.5 43q81 99 192 165q-91 60 -225 60q-118 0 -205.5 -64t-88.5 -148q-1 -75 75 -80q80 -4 142 54q54 51 54 96z
M255 11q68 -11 113 -11q81 0 154 33.5t116 101.5q32 50 32.5 107t-29.5 94q-24 -24 -65.5 -82t-61.5 -81q-92 -115 -259 -162zM703 462q-3 0 -6 7q-14 35 -37 74q-4 7 -3 8q3 3 13 -2q28 -13 52 -35q53 26 103 39q13 3 14 0q1 -4 -7 -8q-50 -29 -118 -78q-7 -5 -11 -5z" />
    <glyph glyph-name="dcaron" unicode="&#x10f;" horiz-adv-x="359" 
d="M209 164h-1q-26 0 -94 -66q-57 -57 -55 -79q1 -10 13 -10q14 0 38.5 14t45.5 33q25 23 47.5 51t23.5 39q1 18 -18 18zM102 155q50 21 97 21q23 0 31.5 -11t4.5 -25l1 -1q47 65 128 159q65 76 113 119q27 24 65 24q27 0 29 -9q-31 -30 -114 -124q-34 -39 -126 -153
q-75 -93 -87 -115q-7 -13 0 -18q7 -6 25 2q15 6 42 28t49 42q10 10 13 6q3 -3 -7 -13q-24 -24 -62 -54q-57 -44 -100 -44q-39 0 -45 26q-4 17 9 35l-1 1q-70 -62 -128 -62q-60 0 -60 39q0 26 32 60l-1 1q-7 -6 -9 -8q-13 -11 -16 -8q-2 4 7 13q15 15 39 31q30 20 71 38z
M573 338q-1 2 7 10q21 21 33 46q2 4 0 13t-1 13q5 14 48 20q13 2 13 -9q0 -5 -7 -15q-31 -43 -82 -74q-9 -6 -11 -4z" />
    <glyph glyph-name="Dcroat" unicode="&#x110;" horiz-adv-x="755" 
d="M518 174q58 -3 79 -5q13 -1 13 -5q0 -5 -13 -5q-7 0 -37.5 -1t-56.5 -2q-89 -102 -245 -145q68 -11 113 -11q81 0 154 33.5t116 101.5q32 50 32.5 107t-29.5 94q-25 -25 -66.5 -83t-59.5 -79zM402 154h-10q-10 0 -14 3t-3 9q2 14 19 14q7 0 25 -2l11 11q80 99 191 165
q-91 60 -225 60q-118 0 -205.5 -64t-88.5 -148q-1 -75 75 -80q80 -4 142 54q54 51 54 96q0 20 -12.5 32.5t-31.5 13.5q-35 1 -64 -26q-7 -6 -13 -15q-4 -5 -6 -4q-1 1 0.5 4.5t5.5 9.5t10 12q32 32 72 30q23 -1 41 -16t20 -41q4 -29 -11 -60.5t-45 -55.5
q-27 -22 -72.5 -33.5t-90.5 -9.5q-55 2 -96 27.5t-42 68.5q0 58 53 108t135.5 78t169.5 28q143 0 235 -62q27 16 70 31q54 19 104 19q41 0 59 -16q3 -3 5.5 -6.5t3 -5.5t-0.5 -3q-1 0 -1.5 1t-3.5 4t-8 6q-17 10 -50 10q-43 0 -94 -21q-35 -15 -60 -36q60 -46 81.5 -111
t-6.5 -120q-16 -29 -39.5 -51.5t-55 -35t-58 -20.5t-65 -11t-59 -3.5t-56.5 -0.5h-11q-73 0 -154 9q-35 -8 -118 -8q-128 0 -146 5q-13 4 -12 11q3 25 146 20q46 0 135 -14q33 9 65.5 33.5t49 44z" />
    <glyph glyph-name="dcroat" unicode="&#x111;" horiz-adv-x="359" 
d="M473 326q-39 -44 -142 -171q-75 -93 -87 -115q-7 -13 0 -18q7 -6 25 2q15 6 42 28t49 42q10 10 13 6q3 -3 -7 -13q-24 -24 -62 -54q-57 -44 -100 -44q-39 0 -45 26q-4 17 9 35l-1 1q-70 -62 -128 -62q-60 0 -60 39q0 26 32 60l-1 1q-7 -6 -9 -8q-13 -11 -16 -8q-2 4 7 13
q15 15 39 31q30 20 71 38q50 21 97 21q23 0 31.5 -11t4.5 -25l1 -1q46 64 149 184q-13 0 -37.5 -0.5t-36.5 -1.5q-28 -2 -28 18q0 19 29 18q16 -1 49.5 -2.5t49.5 -2.5q38 40 66 65q27 24 65 24q27 0 29 -9q-21 -20 -76 -81l47 -2.5t37 -1.5q22 -1 22 -9t-21 -8
q-35 -2 -107 -4zM209 164h-1q-26 0 -94 -66q-57 -57 -55 -79q1 -10 13 -10q14 0 38.5 14t45.5 33q25 23 47.5 51t23.5 39q1 18 -18 18z" />
    <glyph glyph-name="Emacron" unicode="&#x112;" horiz-adv-x="424" 
d="M231 271v1q0 33 22 59q-43 32 -40 71q2 29 28 47t67 17q75 -2 127 -52q44 3 77 2q49 -1 80.5 -19.5t29.5 -44.5q-2 -33 -49.5 -57t-107.5 -24q-79 0 -143 27q-10 -14 -14 -29q-6 -18 -3 -31q22 3 50 2q56 -2 53 -25q-3 -20 -55 -20q-68 0 -102 26q-33 -12 -67 -43
q-19 -17 -36 -43t-22 -46q-13 -51 13 -79t81 -24q67 5 135 51q11 7 24 17.5l26.5 22.5t18.5 16q9 9 13 5q3 -3 -11 -16q-44 -40 -73 -59q-81 -53 -162 -60q-86 -7 -127.5 27.5t-25.5 97.5q10 42 53.5 74.5t79.5 45.5t74 21q-14 16 -14 42zM463 281h1q46 0 86 20t42 51
q2 22 -17 38t-60 17q-36 1 -68 -12q12 -16 16 -41q5 -31 -2 -35q-1 0 -1 2t-2 10t-5 19q-6 21 -22 39q-28 -13 -52 -30q-27 -19 -52 -52q53 -26 136 -26zM413 410q-54 46 -105 47q-38 1 -59.5 -14t-23.5 -41q-3 -37 34 -64q27 30 82 53q35 14 72 19zM307 230q3 -10 17 -17
t30 -8q35 -2 36 13q1 7 -8 10t-27 4q-25 2 -48 -2zM431 488q-7 -1 -8.5 0.5t0.5 5.5q16 22 29 24q54 7 125 7q18 0 18 -10q0 -6 -10 -16q-12 -12 -20 -12q-83 4 -134 1z" />
    <glyph glyph-name="emacron" unicode="&#x113;" horiz-adv-x="249" 
d="M314 277v-1q0 -6 -7 -13q-10 -10 -19 -10q-73 3 -134 0q-8 0 -9.5 1t1.5 6q18 22 29 24q70 9 124 6q15 -1 15 -13zM95 9q38 0 97 39q33 22 59 47q8 6 11 3q3 -4 -12 -17q-26 -24 -57 -45q-61 -42 -125 -45q-79 -4 -79 47q0 26 24 52l-1 1q-2 -2 -6 -5.5t-5 -4.5
q-13 -11 -16 -8q-2 4 7 13q17 16 32 26q26 19 52 32q66 32 121 32h1q52 0 50 -31t-67 -62q-48 -23 -105 -31q-6 -10 -6 -21q0 -22 25 -22zM81 62q33 4 70 31q38 30 45 58q3 15 -10 15q-21 0 -59 -42q-31 -34 -46 -62z" />
    <glyph glyph-name="Ebreve" unicode="&#x114;" horiz-adv-x="424" 
d="M231 271v1q0 33 22 59q-43 32 -40 71q2 29 28 47t67 17q75 -2 127 -52q44 3 77 2q49 -1 80.5 -19.5t29.5 -44.5q-2 -33 -49.5 -57t-107.5 -24q-79 0 -143 27q-10 -14 -14 -29q-6 -18 -3 -31q22 3 50 2q56 -2 53 -25q-3 -20 -55 -20q-68 0 -102 26q-33 -12 -67 -43
q-19 -17 -36 -43t-22 -46q-13 -51 13 -79t81 -24q67 5 135 51q11 7 24 17.5l26.5 22.5t18.5 16q9 9 13 5q3 -3 -11 -16q-44 -40 -73 -59q-81 -53 -162 -60q-86 -7 -127.5 27.5t-25.5 97.5q10 42 53.5 74.5t79.5 45.5t74 21q-14 16 -14 42zM463 281h1q46 0 86 20t42 51
q2 22 -17 38t-60 17q-36 1 -68 -12q12 -16 16 -41q5 -31 -2 -35q-1 0 -1 2t-2 10t-5 19q-6 21 -22 39q-28 -13 -52 -30q-27 -19 -52 -52q53 -26 136 -26zM413 410q-54 46 -105 47q-38 1 -59.5 -14t-23.5 -41q-3 -37 34 -64q27 30 82 53q35 14 72 19zM307 230q3 -10 17 -17
t30 -8q35 -2 36 13q1 7 -8 10t-27 4q-25 2 -48 -2zM506 468q-23 3 -37 20t-13 40q2 11 7 11q1 0 5 -8q10 -21 44 -25q52 -4 88 27q6 6 10 4t-1 -9q-18 -28 -45 -45.5t-58 -14.5z" />
    <glyph glyph-name="ebreve" unicode="&#x115;" horiz-adv-x="249" 
d="M153 321h1q2 0 5 -8q11 -29 44 -32q44 -4 86 34q6 6 11 4t0 -9q-43 -76 -104 -70q-22 2 -36.5 20.5t-13.5 49.5q0 11 7 11zM95 9q38 0 97 39q33 22 59 47q8 6 11 3q3 -4 -12 -17q-26 -24 -57 -45q-61 -42 -125 -45q-79 -4 -79 47q0 26 24 52l-1 1q-2 -2 -6 -5.5t-5 -4.5
q-13 -11 -16 -8q-2 4 7 13q17 16 32 26q26 19 52 32q66 32 121 32h1q52 0 50 -31t-67 -62q-48 -23 -105 -31q-6 -10 -6 -21q0 -22 25 -22zM81 62q33 4 70 31q38 30 45 58q3 15 -10 15q-21 0 -59 -42q-31 -34 -46 -62z" />
    <glyph glyph-name="Edotaccent" unicode="&#x116;" horiz-adv-x="424" 
d="M231 271v1q0 33 22 59q-43 32 -40 71q2 29 28 47t67 17q75 -2 127 -52q44 3 77 2q49 -1 80.5 -19.5t29.5 -44.5q-2 -33 -49.5 -57t-107.5 -24q-79 0 -143 27q-10 -14 -14 -29q-6 -18 -3 -31q22 3 50 2q56 -2 53 -25q-3 -20 -55 -20q-68 0 -102 26q-33 -12 -67 -43
q-19 -17 -36 -43t-22 -46q-13 -51 13 -79t81 -24q67 5 135 51q11 7 24 17.5l26.5 22.5t18.5 16q9 9 13 5q3 -3 -11 -16q-44 -40 -73 -59q-81 -53 -162 -60q-86 -7 -127.5 27.5t-25.5 97.5q10 42 53.5 74.5t79.5 45.5t74 21q-14 16 -14 42zM463 281h1q46 0 86 20t42 51
q2 22 -17 38t-60 17q-36 1 -68 -12q12 -16 16 -41q5 -31 -2 -35q-1 0 -1 2t-2 10t-5 19q-6 21 -22 39q-28 -13 -52 -30q-27 -19 -52 -52q53 -26 136 -26zM413 410q-54 46 -105 47q-38 1 -59.5 -14t-23.5 -41q-3 -37 34 -64q27 30 82 53q35 14 72 19zM307 230q3 -10 17 -17
t30 -8q35 -2 36 13q1 7 -8 10t-27 4q-25 2 -48 -2zM519 473q-12 12 -2 40q10 24 50 24q14 0 18 -9t-6 -21q-12 -14 -31 -24t-29 -10z" />
    <glyph glyph-name="edotaccent" unicode="&#x117;" horiz-adv-x="249" 
d="M261 318h1q16 0 20 -10t-7 -23q-24 -28 -63 -37q-9 18 -1 45q7 25 50 25zM95 9q38 0 97 39q33 22 59 47q8 6 11 3q3 -4 -12 -17q-26 -24 -57 -45q-61 -42 -125 -45q-79 -4 -79 47q0 26 24 52l-1 1q-2 -2 -6 -5.5t-5 -4.5q-13 -11 -16 -8q-2 4 7 13q17 16 32 26
q26 19 52 32q66 32 121 32h1q52 0 50 -31t-67 -62q-48 -23 -105 -31q-6 -10 -6 -21q0 -22 25 -22zM81 62q33 4 70 31q38 30 45 58q3 15 -10 15q-21 0 -59 -42q-31 -34 -46 -62z" />
    <glyph glyph-name="Eogonek" unicode="&#x118;" horiz-adv-x="424" 
d="M463 281h1q46 0 86 20t42 51q2 22 -17 38t-60 17q-36 1 -68 -12q12 -16 16 -41q5 -31 -2 -35q-1 0 -1 2t-2 10t-5 19q-6 21 -22 39q-28 -13 -52 -30q-27 -19 -52 -52q53 -26 136 -26zM413 410q-54 46 -105 47q-38 1 -59.5 -14t-23.5 -41q-5 -36 34 -64q24 29 82 53
q35 14 72 19zM307 230q3 -10 17 -17t30 -8q35 -2 36 13q1 7 -8 10t-27 4q-26 1 -48 -2zM353 23q-65 -43 -139 -57q-58 -29 -69 -61q-7 -21 13 -23q14 -1 33 10q9 6 11 3t-3 -10q-35 -37 -74 -34q-19 1 -29 14t-5 29q11 35 96 69q-84 -5 -124.5 29t-24.5 96q10 42 53.5 74.5
t79.5 45.5t74 21q-14 16 -14 42v1q0 37 22 59q-43 32 -40 71q2 29 28 47t67 17q75 -2 127 -52q27 4 77 2q49 -1 80.5 -19.5t29.5 -44.5q-2 -33 -49.5 -57t-107.5 -24q-79 0 -143 27q-10 -15 -14 -29q-6 -23 -3 -31q25 3 50 2q56 -2 53 -25q-3 -20 -55 -20q-68 0 -102 26
q-33 -12 -67 -43q-19 -17 -36 -43t-22 -46q-13 -51 13 -79t81 -24q67 5 135 51q11 7 24 17.5l26.5 22.5t18.5 16q9 9 13 5q3 -3 -11 -16q-44 -40 -73 -59z" />
    <glyph glyph-name="eogonek" unicode="&#x119;" horiz-adv-x="249" 
d="M194 36q-39 -26 -72 -35q-61 -31 -71 -62q-7 -21 13 -23q14 -1 33 10q9 6 11 3t-3 -10q-32 -34 -74 -34q-21 0 -30 12.5t-4 30.5q8 31 102 67q-11 -2 -31 -4q-79 -4 -79 47q0 26 24 52l-1 1q-2 -2 -6 -5.5t-5 -4.5q-13 -11 -16 -8q-2 4 7 13q17 16 32 26q26 19 52 32
q66 32 121 32h1q52 0 50 -31t-67 -62q-48 -23 -105 -31q-6 -10 -6 -21q0 -21 25 -21q39 0 97 38q31 21 57 45q10 8 13 5t-11 -16q-31 -28 -57 -46zM81 62q33 4 70 31q38 30 45 58q3 15 -10 15q-21 0 -59 -42q-31 -34 -46 -62z" />
    <glyph glyph-name="Ecaron" unicode="&#x11a;" horiz-adv-x="424" 
d="M231 271v1q0 33 22 59q-43 32 -40 71q2 29 28 47t67 17q75 -2 127 -52q44 3 77 2q49 -1 80.5 -19.5t29.5 -44.5q-2 -33 -49.5 -57t-107.5 -24q-79 0 -143 27q-10 -14 -14 -29q-6 -18 -3 -31q22 3 50 2q56 -2 53 -25q-3 -20 -55 -20q-68 0 -102 26q-33 -12 -67 -43
q-19 -17 -36 -43t-22 -46q-13 -51 13 -79t81 -24q67 5 135 51q11 7 24 17.5l26.5 22.5t18.5 16q9 9 13 5q3 -3 -11 -16q-44 -40 -73 -59q-81 -53 -162 -60q-86 -7 -127.5 27.5t-25.5 97.5q10 42 53.5 74.5t79.5 45.5t74 21q-14 16 -14 42zM463 281h1q46 0 86 20t42 51
q2 22 -17 38t-60 17q-36 1 -68 -12q12 -16 16 -41q5 -31 -2 -35q-1 0 -1 2t-2 10t-5 19q-6 21 -22 39q-28 -13 -52 -30q-27 -19 -52 -52q53 -26 136 -26zM413 410q-54 46 -105 47q-38 1 -59.5 -14t-23.5 -41q-3 -37 34 -64q27 30 82 53q35 14 72 19zM307 230q3 -10 17 -17
t30 -8q35 -2 36 13q1 7 -8 10t-27 4q-25 2 -48 -2zM533 462q-3 0 -6 7q-14 35 -37 74q-4 7 -3 8q3 3 13 -2q28 -13 52 -35q53 26 103 39q13 3 14 0q1 -4 -7 -8q-50 -29 -118 -78q-7 -5 -11 -5z" />
    <glyph glyph-name="ecaron" unicode="&#x11b;" horiz-adv-x="249" 
d="M203 235q-5 2 -7 8q-16 44 -37 77q-4 6 -3 8q2 3 13 -1q34 -15 57 -35q43 21 103 39q15 5 16 0q1 -3 -8 -9q-73 -41 -122 -82q-6 -6 -12 -5zM95 9q38 0 97 39q33 22 59 47q8 6 11 3q3 -4 -12 -17q-26 -24 -57 -45q-61 -42 -125 -45q-79 -4 -79 47q0 26 24 52l-1 1
q-2 -2 -6 -5.5t-5 -4.5q-13 -11 -16 -8q-2 4 7 13q17 16 32 26q26 19 52 32q66 32 121 32h1q52 0 50 -31t-67 -62q-48 -23 -105 -31q-6 -10 -6 -21q0 -22 25 -22zM81 62q33 4 70 31q38 30 45 58q3 15 -10 15q-21 0 -59 -42q-31 -34 -46 -62z" />
    <glyph glyph-name="Gbreve" unicode="&#x11e;" horiz-adv-x="522" 
d="M651 367q1 -85 -126 -150q-50 -25 -122.5 -36.5t-135.5 -6.5q-27 2 -59 12q-45 -63 -51 -122q-2 -26 10.5 -42.5t37.5 -17.5q63 -1 164 101q31 31 84 31q15 0 17.5 -3t-4.5 -13q-8 -11 -24.5 -32t-25.5 -34l-59 -78v-1q52 28 102 66q25 19 63 52q12 9 14 7q4 -4 -13 -19
q-28 -25 -59 -48q-43 -33 -118 -74q-59 -85 -123 -161q-60 -68 -142 -115t-141 -47q-55 0 -52 42q6 67 155 158q42 26 104.5 54.5t102.5 54.5l88 118q-78 -75 -164 -75q-96 1 -104 74q-10 75 58 159q-23 16 -40.5 41t-17.5 54q0 59 49 92t119 33q80 0 147 -46q110 33 184 32
q81 -2 82 -60zM639 368q-1 48 -67 48q-31 0 -78.5 -12t-88.5 -33q14 -23 20 -50q3 -15 4 -28t-2 -15q-1 0 -1.5 2t-4.5 13t-11 27q-12 27 -26 38q-59 -39 -104 -82q-31 -31 -67 -82q24 -7 47 -8q47 -3 120 14.5t127 46.5q57 31 95 62.5t37 58.5zM228 423h-1
q-61 0 -102.5 -27t-41.5 -80q0 -50 51 -88q39 48 89 82q63 46 137 73q-57 40 -132 40zM239 -74q-24 -16 -75.5 -43t-103.5 -60q-47 -30 -85 -70t-41 -76q-3 -27 22 -29q27 -2 63 20q54 36 128 131zM522 468q-23 3 -37 20t-13 40q2 11 7 11q1 0 5 -8q10 -21 44 -25
q52 -4 88 27q6 6 10 4t-1 -9q-18 -28 -45 -45.5t-58 -14.5z" />
    <glyph glyph-name="gbreve" unicode="&#x11f;" horiz-adv-x="360" 
d="M192 321h1q2 0 5 -8q11 -29 44 -32q44 -4 86 34q6 6 11 4t0 -9q-43 -76 -104 -70q-22 2 -36.5 20.5t-13.5 49.5q0 11 7 11zM80 -80q-10 -6 -69 -38.5t-114 -68.5q-68 -45 -113 -92.5t-49 -84.5q-2 -25 15 -28q23 -6 63 17q74 41 183 180q17 21 84 115zM209 164h-1
q-26 0 -94 -66q-57 -57 -55 -79q1 -10 13 -10q14 0 38.5 14t45.5 33q25 23 47.5 51t23.5 39q1 18 -18 18zM102 155q50 21 97 21q22 0 31.5 -11t5.5 -23l1 -1q21 22 31 26t39 4t29 -8q-1 -3 -4 -7l-53 -67l-84 -113q57 30 116 76q22 17 50 42q9 9 12 4q3 -3 -10 -15
q-21 -19 -60 -49q-51 -38 -120 -77q-51 -80 -83 -122q-61 -81 -136 -137.5t-147 -85.5q-42 -18 -79 -18q-56 0 -56 42q0 77 196 190q48 28 113.5 60t97.5 52q16 21 74 108l-1 1q-66 -58 -123 -58q-60 0 -60 39q0 26 32 60l-1 1q-7 -6 -9 -8q-13 -11 -16 -8q-2 4 7 13
q19 18 39 31q30 20 71 38z" />
    <glyph glyph-name="Gcommaaccent" unicode="&#x122;" horiz-adv-x="522" 
d="M651 367q1 -85 -126 -150q-50 -25 -122.5 -36.5t-135.5 -6.5q-27 2 -59 12q-45 -63 -51 -122q-2 -26 10.5 -42.5t37.5 -17.5q63 -1 164 101q31 31 84 31q15 0 17.5 -3t-4.5 -13q-8 -11 -24.5 -32t-25.5 -34l-59 -78v-1q52 28 102 66q25 19 63 52q12 9 14 7q4 -4 -13 -19
q-28 -25 -59 -48q-43 -33 -118 -74q-59 -85 -123 -161q-60 -68 -142 -115t-141 -47q-55 0 -52 42q6 67 155 158q42 26 104.5 54.5t102.5 54.5l88 118q-78 -75 -164 -75q-96 1 -104 74q-10 75 58 159q-23 16 -40.5 41t-17.5 54q0 59 49 92t119 33q80 0 147 -46q110 33 184 32
q81 -2 82 -60zM639 368q-1 48 -67 48q-31 0 -78.5 -12t-88.5 -33q14 -23 20 -50q3 -15 4 -28t-2 -15q-1 0 -1.5 2t-4.5 13t-11 27q-12 27 -26 38q-59 -39 -104 -82q-31 -31 -67 -82q24 -7 47 -8q47 -3 120 14.5t127 46.5q57 31 95 62.5t37 58.5zM228 423h-1
q-61 0 -102.5 -27t-41.5 -80q0 -50 51 -88q39 48 89 82q63 46 137 73q-57 40 -132 40zM239 -74q-24 -16 -75.5 -43t-103.5 -60q-47 -30 -85 -70t-41 -76q-3 -27 22 -29q27 -2 63 20q54 36 128 131zM60 -131q-1 2 7 10q21 21 33 46q2 4 0 13t-1 13q5 14 48 20q13 2 13 -9
q0 -5 -7 -15q-31 -43 -82 -74q-9 -6 -11 -4z" />
    <glyph glyph-name="gcommaaccent" unicode="&#x123;" horiz-adv-x="360" 
d="M80 -80q-10 -6 -69 -38.5t-114 -68.5q-68 -45 -113 -92.5t-49 -84.5q-2 -25 15 -28q23 -6 63 17q74 41 183 180q17 21 84 115zM209 164h-1q-26 0 -94 -66q-57 -57 -55 -79q1 -10 13 -10q14 0 38.5 14t45.5 33q25 23 47.5 51t23.5 39q1 18 -18 18zM102 155q50 21 97 21
q22 0 31.5 -11t5.5 -23l1 -1q21 22 31 26t39 4t29 -8q-1 -3 -4 -7l-53 -67l-84 -113q57 30 116 76q22 17 50 42q9 9 12 4q3 -3 -10 -15q-21 -19 -60 -49q-51 -38 -120 -77q-51 -80 -83 -122q-61 -81 -136 -137.5t-147 -85.5q-42 -18 -79 -18q-56 0 -56 42q0 77 196 190
q48 28 113.5 60t97.5 52q16 21 74 108l-1 1q-66 -58 -123 -58q-60 0 -60 39q0 26 32 60l-1 1q-7 -6 -9 -8q-13 -11 -16 -8q-2 4 7 13q19 18 39 31q30 20 71 38zM300 332q2 -2 -7 -11q-21 -21 -33 -46q-2 -4 0 -13t1 -13q-5 -14 -48 -20q-13 -2 -13 9q0 6 7 15q34 44 82 74
q9 6 11 5z" />
    <glyph glyph-name="Imacron" unicode="&#x12a;" horiz-adv-x="505" 
d="M660 416q-101 -19 -130 -26q-76 -17 -144 -55q-63 -36 -63 -78q0 -24 24 -24q15 0 25 7q9 6 10 5q3 -5 -5 -11q-14 -12 -36 -14q-26 -2 -44.5 9t-18.5 34q0 27 24.5 52.5t63.5 42.5q56 25 162 45q18 4 68.5 12t59.5 11q25 7 31 6q9 -1 5 -9q-2 -5 -7 -7q-47 -18 -96 -90
q-17 -24 -45 -69t-44 -65q-161 -210 -391 -210q-60 0 -93.5 20t-33.5 57q0 29 20 49.5t47 20.5q26 0 36.5 -15.5t6.5 -32.5q-5 -19 -24 -34q-20 -17 -20 -31q0 -24 53 -24q150 0 296 201q68 94 105 128q79 75 158 95zM558 478q-7 -1 -8.5 0.5t0.5 5.5q16 22 29 24
q54 7 125 7q18 0 18 -10q0 -6 -10 -16q-12 -12 -20 -12q-83 4 -134 1z" />
    <glyph glyph-name="imacron" unicode="&#x12b;" horiz-adv-x="209" 
d="M278 277v-1q0 -6 -7 -13q-10 -10 -19 -10q-73 3 -134 0q-8 0 -9.5 1t1.5 6q18 22 29 24q70 9 124 6q15 -1 15 -13zM105 154q-25 -9 -64 -39q-18 -14 -42 -36q-10 -9 -13 -6q-4 3 6 13q41 37 72 57q46 29 92 29q40 0 40 -8q0 -3 -5 -8q-34 -37 -58 -67q-22 -27 -33 -49
q-9 -18 -3 -22q5 -4 21 4q19 10 44 30q2 2 47 41q11 9 14 6t-8 -13q-29 -29 -59 -52q-58 -44 -106 -44q-44 0 -44 29q0 16 14 38q14 25 43.5 58t41.5 39z" />
    <glyph glyph-name="Iogonek" unicode="&#x12e;" horiz-adv-x="505" 
d="M502 321q78 75 155 94q-32 -5 -127 -25q-76 -17 -144 -55q-63 -36 -63 -78q0 -24 22 -24q17 0 27 7q9 6 10 5q3 -5 -5 -11q-14 -12 -36 -14q-26 -2 -44.5 9t-18.5 34q0 27 24.5 52.5t63.5 42.5q56 25 162 45q18 4 68.5 12t59.5 11q24 7 31 6q6 -1 5 -7.5t-7 -8.5
q-47 -18 -96 -90q-17 -24 -45 -69t-44 -65q-114 -149 -261 -192q-58 -29 -69 -61q-7 -21 13 -23q14 -1 33 10q9 6 11 3t-3 -10q-35 -37 -74 -34q-19 1 -29 14t-5 29q9 31 88 64q-44 -10 -95 -10q-60 0 -93.5 20t-33.5 57q0 29 20 49.5t47 20.5q26 0 36.5 -15.5t6.5 -32.5
q-5 -19 -24 -34q-20 -17 -20 -31q0 -24 53 -24q150 0 296 201q68 94 105 128z" />
    <glyph glyph-name="iogonek" unicode="&#x12f;" horiz-adv-x="209" 
d="M236 310h1q16 0 20.5 -10t-7.5 -26q-13 -16 -35 -28t-34 -12q-13 22 -1 49t56 27zM64 143q46 29 92 29q40 0 40 -8q0 -3 -5 -8q-34 -37 -58 -67q-22 -27 -33 -49q-9 -18 -3 -22q5 -4 21 4q19 10 44 30q2 2 47 41q11 9 14 6t-8 -13q-29 -29 -59 -52q-33 -24 -56 -34
q-58 -29 -69 -61q-7 -21 13 -23q14 -1 33 10q9 6 11 3t-3 -10q-32 -34 -74 -34q-21 0 -30 12.5t-4 30.5q10 31 86 63q-4 -1 -13 -1q-44 0 -44 29q0 16 14 38q14 25 43.5 58t41.5 39q-25 -9 -64 -39q-19 -15 -41 -35q-12 -10 -15 -7t7 13q41 37 72 57z" />
    <glyph glyph-name="Idotaccent" unicode="&#x130;" horiz-adv-x="505" 
d="M660 416q-101 -19 -130 -26q-76 -17 -144 -55q-63 -36 -63 -78q0 -24 24 -24q15 0 25 7q9 6 10 5q3 -5 -5 -11q-14 -12 -36 -14q-26 -2 -44.5 9t-18.5 34q0 27 24.5 52.5t63.5 42.5q56 25 162 45q18 4 68.5 12t59.5 11q25 7 31 6q9 -1 5 -9q-2 -5 -7 -7q-47 -18 -96 -90
q-17 -24 -45 -69t-44 -65q-161 -210 -391 -210q-60 0 -93.5 20t-33.5 57q0 29 20 49.5t47 20.5q26 0 36.5 -15.5t6.5 -32.5q-5 -19 -24 -34q-20 -17 -20 -31q0 -24 53 -24q150 0 296 201q68 94 105 128q79 75 158 95zM636 483q-12 12 -2 40q10 24 50 24q14 0 18 -9t-6 -21
q-12 -14 -31 -24t-29 -10z" />
    <glyph glyph-name="dotlessi" unicode="&#x131;" horiz-adv-x="209" 
d="M105 154q-25 -9 -64 -39q-18 -14 -42 -36q-10 -9 -13 -6q-4 3 6 13q41 37 72 57q46 29 92 29q40 0 40 -8q0 -3 -5 -8q-34 -37 -58 -67q-22 -27 -33 -49q-9 -18 -3 -22q5 -4 21 4q19 10 44 30q2 2 47 41q11 9 14 6t-8 -13q-29 -29 -59 -52q-58 -44 -106 -44q-44 0 -44 29
q0 16 14 38q14 25 43.5 58t41.5 39z" />
    <glyph glyph-name="Kcommaaccent" unicode="&#x136;" horiz-adv-x="702" 
d="M935 367q-1 -35 -42 -58t-86 -19q-24 2 -36 10q-5 3 -3 6q1 1 6 -1q10 -5 30 -7q43 -4 79.5 17.5t36.5 53.5q0 18 -14.5 29t-34.5 11q-9 0 -18 -2t-16 -4t-15 -7.5l-13.5 -9t-14 -12t-12 -12.5l-12.5 -15l-12 -14.5t-13 -17t-12 -16.5q-59 -79 -177 -105q36 -11 48 -37
q11 -24 -13 -64q-5 -8 -13.5 -20.5l-12.5 -18.5t-7.5 -14.5t-3.5 -15.5q0 -17 20 -17q26 0 76 41q9 7 20.5 17l20 17.5t10.5 9.5q9 7 12 4q2 -3 -9 -14l-50 -43q-60 -50 -115 -50q-62 0 -66 43q-4 33 30 75q36 46 36 60q0 11 -7 20q-16 -6 -31 -6q-12 0 -20 3.5t-7 10.5
q1 13 32 13q15 0 36 -7q17 9 33.5 23.5t26.5 25.5t28.5 33.5l28.5 34.5q43 49 100 75.5t115 24.5q25 -1 43.5 -14.5t17.5 -36.5zM-21 59v1q0 32 19.5 51t45.5 19q19 0 32 -11t13 -30t-20 -42q-13 -15 -13 -28q0 -29 42 -29q29 0 59 14t60 41.5t50.5 49.5t50.5 58l40 48
q31 35 62.5 61t51.5 38l56 32l-1 1q-81 -44 -179 -44q-137 0 -134 66q1 34 34 53q22 13 54 13q8 0 8.5 -2.5t-5.5 -9.5l-5 -7l-8.5 -10.5t-7 -14.5t-4.5 -20q-2 -23 15.5 -40t53.5 -17q60 0 127 21t114 63q23 23 35 21q17 -2 1 -18q-6 -6 -14 -10q-21 -10 -67 -69l-27 -36
l-30 -40.5t-22 -28.5q-77 -98 -175 -160t-198 -62q-44 0 -79 19.5t-35 58.5zM503 188h1q11 0 21 5q-8 6 -19 7q-21 2 -21 -5t18 -7zM305 -102q-1 2 7 10q21 21 33 46q2 4 0 13t-1 13q5 14 48 20q13 2 13 -9q0 -5 -7 -15q-31 -43 -82 -74q-9 -6 -11 -4z" />
    <glyph glyph-name="kcommaaccent" unicode="&#x137;" horiz-adv-x="386" 
d="M50 124l-1 1l-49 -45q-7 -7 -10 -2q-3 4 11 16l66 57l117 147q118 141 247 230q61 41 106 41q16 0 24.5 -10t6.5 -26q-8 -84 -187 -212q-22 -16 -72 -49.5l-85 -58t-46 -34.5q-26 -31 -97 -132l1 -1q74 66 86 75q38 29 67 42q31 13 66 13q24 0 37.5 -9t13.5 -23
q0 -23 -44 -31q-38 -6 -45 -14q-8 -9 -6 -44q3 -34 17 -37q9 -1 26 8q19 11 38 26q26 21 50 43q9 7 12 4t-12 -17q-29 -27 -57 -49q-53 -41 -105 -41q-30 0 -42 11.5t-10 37.5q3 37 22 54q10 9 47 14q16 3 26 14q5 6 7 16.5t-5 16.5q-11 6 -37 -5q-27 -12 -74 -50
q-14 -11 -53 -47t-56 -47q-13 -9 -47 -11q-17 -1 -24.5 0.5t-8 5.5t2.5 10q11 24 41 67q9 13 35 45zM187 196l171 136q76 64 127 121t55 86q3 19 -16 19q-26 0 -68 -40q-31 -30 -125 -143q-77 -91 -144 -179zM33 -120q-2 2 7 11q21 21 33 46q2 4 0 13t-1 13q5 14 48 20
q13 2 13 -9q0 -6 -7 -15q-34 -44 -82 -74q-9 -6 -11 -5z" />
    <glyph glyph-name="Lacute" unicode="&#x139;" horiz-adv-x="599" 
d="M252 350v1q0 41 40.5 73.5t106.5 32.5q91 0 158 -55q41 13 94 13q50 0 84.5 -19t31.5 -51q-5 -45 -72.5 -71.5t-151.5 -34.5q-49 -5 -93 0q-65 -100 -179 -173q16 -2 93 -23q42 -11 73 -11q50 0 87.5 13t76.5 50q7 7 10 3q3 -3 -8 -14q-53 -53 -91 -75.5t-84 -22.5
q-40 0 -96 20q-88 32 -95 33q-68 -50 -135 -51q-62 -2 -60 23q1 23 49.5 40.5t99.5 19.5q31 1 58 -1q26 28 61 95t50 87q-46 10 -77 36t-31 62zM455 248q33 -3 89 3q33 4 71 15.5t73.5 35t38.5 51.5q2 27 -18 40.5t-51 13.5q-47 0 -82 -27q9 -11 15 -31q3 -10 3.5 -19
t-0.5 -13.5t-2 -4.5t-1.5 3t-4 12t-9.5 20q-7 14 -16 22q-46 -35 -106 -121zM262 350v-1q0 -32 31 -56.5t72 -32.5q66 99 171 136q-56 38 -142 38q-61 0 -96.5 -24.5t-35.5 -59.5zM221 44q-40 11 -78 10q-22 -1 -40 -11.5t-17 -25.5q2 -19 32 -17q57 3 103 44zM625 467
q-11 -2 -12 3q-1 3 11 11q19 12 99 68q13 9 23 9q7 0 13 -8t6 -17q0 -18 -22 -27q-56 -26 -118 -39z" />
    <glyph glyph-name="lacute" unicode="&#x13a;" horiz-adv-x="204" 
d="M50 124l-1 1l-49 -45q-7 -7 -10 -2q-3 4 11 16l66 57q44 58 122 147q52 62 109 115q31 29 70 29q26 0 32 -11q-17 -14 -65.5 -66.5t-86.5 -98.5q-56 -67 -106.5 -136t-56.5 -89q-6 -16 2 -21q7 -4 17 0q21 8 52 32q23 18 50 43q9 7 12 4q2 -3 -11 -16q-26 -26 -58 -49
q-61 -45 -110 -45q-46 0 -46 34q0 37 57 101zM349 487q-11 -2 -12 3q-1 3 11 11q19 12 99 68q13 9 23 9q7 0 13 -8t6 -17q0 -18 -22 -27q-56 -26 -118 -39z" />
    <glyph glyph-name="Lcommaaccent" unicode="&#x13b;" horiz-adv-x="599" 
d="M252 350v1q0 41 40.5 73.5t106.5 32.5q91 0 158 -55q41 13 94 13q50 0 84.5 -19t31.5 -51q-5 -45 -72.5 -71.5t-151.5 -34.5q-49 -5 -93 0q-65 -100 -179 -173q16 -2 93 -23q42 -11 73 -11q50 0 87.5 13t76.5 50q7 7 10 3q3 -3 -8 -14q-53 -53 -91 -75.5t-84 -22.5
q-40 0 -96 20q-88 32 -95 33q-68 -50 -135 -51q-62 -2 -60 23q1 23 49.5 40.5t99.5 19.5q31 1 58 -1q26 28 61 95t50 87q-46 10 -77 36t-31 62zM455 248q33 -3 89 3q33 4 71 15.5t73.5 35t38.5 51.5q2 27 -18 40.5t-51 13.5q-47 0 -82 -27q9 -11 15 -31q3 -10 3.5 -19
t-0.5 -13.5t-2 -4.5t-1.5 3t-4 12t-9.5 20q-7 14 -16 22q-46 -35 -106 -121zM262 350v-1q0 -32 31 -56.5t72 -32.5q66 99 171 136q-56 38 -142 38q-61 0 -96.5 -24.5t-35.5 -59.5zM221 44q-40 11 -78 10q-22 -1 -40 -11.5t-17 -25.5q2 -19 32 -17q57 3 103 44zM188 -132
q-1 2 7 10q21 21 33 46q2 4 0 13t-1 13q5 14 48 20q13 2 13 -9q0 -5 -7 -15q-31 -43 -82 -74q-9 -6 -11 -4z" />
    <glyph glyph-name="lcommaaccent" unicode="&#x13c;" horiz-adv-x="204" 
d="M50 124l-1 1l-49 -45q-7 -7 -10 -2q-3 4 11 16l66 57q44 58 122 147q52 62 109 115q31 29 70 29q26 0 32 -11q-17 -14 -65.5 -66.5t-86.5 -98.5q-56 -67 -106.5 -136t-56.5 -89q-6 -16 2 -21q7 -4 17 0q21 8 52 32q23 18 50 43q9 7 12 4q2 -3 -11 -16q-26 -26 -58 -49
q-61 -45 -110 -45q-46 0 -46 34q0 37 57 101zM-79 -150q-2 2 7 11q21 21 33 46q2 4 0 13t-1 13q5 14 48 20q13 2 13 -9q0 -6 -7 -15q-34 -44 -82 -74q-9 -6 -11 -5z" />
    <glyph glyph-name="Lcaron" unicode="&#x13d;" horiz-adv-x="599" 
d="M252 350v1q0 41 40.5 73.5t106.5 32.5q91 0 158 -55q41 13 94 13q50 0 84.5 -19t31.5 -51q-5 -45 -72.5 -71.5t-151.5 -34.5q-49 -5 -93 0q-65 -100 -179 -173q16 -2 93 -23q42 -11 73 -11q50 0 87.5 13t76.5 50q7 7 10 3q3 -3 -8 -14q-53 -53 -91 -75.5t-84 -22.5
q-40 0 -96 20q-88 32 -95 33q-68 -50 -135 -51q-62 -2 -60 23q1 23 49.5 40.5t99.5 19.5q31 1 58 -1q26 28 61 95t50 87q-46 10 -77 36t-31 62zM455 248q33 -3 89 3q33 4 71 15.5t73.5 35t38.5 51.5q2 27 -18 40.5t-51 13.5q-47 0 -82 -27q9 -11 15 -31q3 -10 3.5 -19
t-0.5 -13.5t-2 -4.5t-1.5 3t-4 12t-9.5 20q-7 14 -16 22q-46 -35 -106 -121zM262 350v-1q0 -32 31 -56.5t72 -32.5q66 99 171 136q-56 38 -142 38q-61 0 -96.5 -24.5t-35.5 -59.5zM221 44q-40 11 -78 10q-22 -1 -40 -11.5t-17 -25.5q2 -19 32 -17q57 3 103 44zM788 308
q-1 2 7 10q21 21 33 46q2 4 0 13t-1 13q5 14 48 20q13 2 13 -9q0 -5 -7 -15q-31 -43 -82 -74q-9 -6 -11 -4z" />
    <glyph glyph-name="lcaron" unicode="&#x13e;" horiz-adv-x="204" 
d="M50 124l-1 1l-49 -45q-7 -7 -10 -2q-3 4 11 16l66 57q44 58 122 147q52 62 109 115q31 29 70 29q26 0 32 -11q-17 -14 -65.5 -66.5t-86.5 -98.5q-56 -67 -106.5 -136t-56.5 -89q-6 -16 2 -21q7 -4 17 0q21 8 52 32q23 18 50 43q9 7 12 4q2 -3 -11 -16q-26 -26 -58 -49
q-61 -45 -110 -45q-46 0 -46 34q0 37 57 101zM392 338q-1 2 7 10q21 21 33 46q2 4 0 13t-1 13q5 14 48 20q13 2 13 -9q0 -5 -7 -15q-31 -43 -82 -74q-9 -6 -11 -4z" />
    <glyph glyph-name="Lslash" unicode="&#x141;" horiz-adv-x="599" 
d="M271 66q16 -2 93 -23q42 -11 73 -11q50 0 87.5 13t76.5 50q7 7 10 3q3 -3 -8 -14q-53 -53 -91 -75.5t-84 -22.5q-40 0 -96 20q-88 32 -95 33q-68 -50 -135 -51q-62 -2 -60 23q1 23 49.5 40.5t99.5 19.5q31 1 58 -1q23 24 44 63l-24.5 -9t-15.5 -6q-21 -7 -24 2q-2 6 2 13
t11 9q29 8 65 17q40 75 53 93q-46 10 -77 36t-31 62q0 41 40 74t107 33q91 0 158 -55q41 13 94 13q50 0 84.5 -19t31.5 -51q-5 -45 -72.5 -71.5t-151.5 -34.5q-49 -5 -93 0q-21 -32 -48 -62q13 3 41 11.5t34 10.5q14 3 15 -1q1 -3 -2 -5.5t-10 -4.5q-14 -7 -100 -35
q-47 -47 -109 -87zM455 248q33 -3 89 3q33 4 71 15.5t73.5 35t38.5 51.5q2 27 -18 40.5t-51 13.5q-47 0 -82 -27q9 -11 15 -31q3 -10 3.5 -19t-0.5 -13.5t-2 -4.5t-1.5 3t-4 12t-9.5 20q-7 14 -16 22q-46 -35 -106 -121zM262 350q0 -32 31 -57t72 -33q66 99 171 136
q-56 38 -142 38q-61 0 -96.5 -24.5t-35.5 -59.5zM221 44q-40 11 -78 10q-22 -1 -40 -11.5t-17 -25.5q2 -19 32 -17q57 3 103 44z" />
    <glyph glyph-name="lslash" unicode="&#x142;" horiz-adv-x="205" 
d="M144 296q-22 -5 -25 3q-1 7 2.5 10.5t14.5 5.5q2 0 13 2l31.5 6t39.5 7q46 52 89 92q22 22 53 22q27 0 36 -12q-9 -9 -77 -84l81 15q18 3 19 -1q1 -3 -2.5 -5t-8.5 -3h-2t-15.5 -3.5l-39 -9l-47.5 -10.5q-67 -77 -89 -106q-45 -54 -87 -114.5t-46 -76.5q-3 -11 4 -15
q7 -3 17 1q22 9 52 32q23 18 50 43q9 7 12 4t-11 -16q-26 -26 -58 -49q-63 -45 -110 -45q-46 0 -46 34q2 40 53 99q-3 -3 -37 -33q-13 -11 -16 -8t7 13l65 57l64 77l69 80z" />
    <glyph glyph-name="Nacute" unicode="&#x143;" horiz-adv-x="683" 
d="M-96 48v1q0 31 21.5 49t46.5 18q44 0 44 -34q0 -16 -20 -33q-22 -18 -24 -30q-3 -17 14 -26t51 -9q61 0 137 31t144 84q143 109 217 249q12 24 34 43q25 20 54 20q8 0 13 -2.5t5.5 -5.5t-1.5 -6q-16 -23 -22 -55q-7 -32 -15 -122q-9 -115 -25 -154h1q105 150 175 230
q71 84 130 131t116 46q30 -1 47 -19.5t14 -46.5q-2 -12 -5 -12q-1 0 -1 1.5t-0.5 4.5t-1.5 6q-10 30 -52 33q-80 5 -235 -157q-44 -46 -85.5 -97.5t-64 -83.5l-69.5 -100q-14 -21 -34 -16q-30 7 -25 26q21 65 24 161q4 107 17 142h-1q-29 -55 -85.5 -116.5t-118.5 -108.5
q-72 -54 -148.5 -86t-139.5 -33q-55 -1 -93.5 18.5t-38.5 58.5zM738 467q-11 -2 -12 3q-1 3 11 11q19 12 99 68q13 9 23 9q7 0 13 -8t6 -17q0 -18 -22 -27q-56 -26 -118 -39z" />
    <glyph glyph-name="nacute" unicode="&#x144;" horiz-adv-x="435" 
d="M312 347q19 2 25 -11q7 -16 -11 -34q-29 -29 -85 -63q-10 -6 -14 -2q-2 2 7 13q21 26 51 74q12 22 27 23zM282 -8q-32 -1 -42.5 11.5t-7.5 29.5q3 19 34 57q38 46 40 49q8 10 -2 13q-9 3 -31 -8q-32 -17 -72 -46q-48 -34 -115 -89q-12 -10 -50 -13q-23 -1 -29 2t-1 14
q10 21 46 67q5 7 20.5 26t22.5 29t2 14q-5 3 -16 -4q-20 -13 -35 -25q-25 -20 -45 -38q-13 -12 -17 -8q-2 3 7 12q32 30 52 45q59 46 100 46q40 0 40 -27q0 -15 -22 -44q-13 -18 -46 -57l2 -2q32 28 95 73q81 57 134 57q22 0 33 -8.5t10 -23.5q-1 -17 -36 -61
q-25 -32 -30 -40q-11 -17 -2 -23q8 -5 25 5q23 12 41 27q18 14 50 43q9 7 12 4t-3 -9q-39 -36 -66 -56q-55 -41 -98 -42z" />
    <glyph glyph-name="Ncommaaccent" unicode="&#x145;" horiz-adv-x="683" 
d="M-96 48v1q0 31 21.5 49t46.5 18q44 0 44 -34q0 -16 -20 -33q-22 -18 -24 -30q-3 -17 14 -26t51 -9q61 0 137 31t144 84q143 109 217 249q12 24 34 43q25 20 54 20q8 0 13 -2.5t5.5 -5.5t-1.5 -6q-16 -23 -22 -55q-7 -32 -15 -122q-9 -115 -25 -154h1q105 150 175 230
q71 84 130 131t116 46q30 -1 47 -19.5t14 -46.5q-2 -12 -5 -12q-1 0 -1 1.5t-0.5 4.5t-1.5 6q-10 30 -52 33q-80 5 -235 -157q-44 -46 -85.5 -97.5t-64 -83.5l-69.5 -100q-14 -21 -34 -16q-30 7 -25 26q21 65 24 161q4 107 17 142h-1q-29 -55 -85.5 -116.5t-118.5 -108.5
q-72 -54 -148.5 -86t-139.5 -33q-55 -1 -93.5 18.5t-38.5 58.5zM281 -101q-1 2 7 10q21 21 33 46q2 4 0 13t-1 13q5 14 48 20q13 2 13 -9q0 -5 -7 -15q-31 -43 -82 -74q-9 -6 -11 -4z" />
    <glyph glyph-name="ncommaaccent" unicode="&#x146;" horiz-adv-x="435" 
d="M282 -8q-32 -1 -42.5 11.5t-7.5 29.5q3 19 34 57q38 46 40 49q8 10 -2 13q-9 3 -31 -8q-32 -17 -72 -46q-48 -34 -115 -89q-12 -10 -50 -13q-23 -1 -29 2t-1 14q10 21 46 67q5 7 20.5 26t22.5 29t2 14q-5 3 -16 -4q-20 -13 -35 -25q-25 -20 -45 -38q-13 -12 -17 -8
q-2 3 7 12q32 30 52 45q59 46 100 46q40 0 40 -27q0 -15 -22 -44q-13 -18 -46 -57l2 -2q32 28 95 73q81 57 134 57q22 0 33 -8.5t10 -23.5q-1 -17 -36 -61q-25 -32 -30 -40q-11 -17 -2 -23q8 -5 25 5q23 12 41 27q18 14 50 43q9 7 12 4t-3 -9q-39 -36 -66 -56
q-55 -41 -98 -42zM74 -124q-2 2 7 11q21 21 33 46q2 4 0 13t-1 13q5 14 48 20q13 2 13 -9q0 -6 -7 -15q-34 -44 -82 -74q-9 -6 -11 -5z" />
    <glyph glyph-name="Ncaron" unicode="&#x147;" horiz-adv-x="683" 
d="M-96 48v1q0 31 21.5 49t46.5 18q44 0 44 -34q0 -16 -20 -33q-22 -18 -24 -30q-3 -17 14 -26t51 -9q61 0 137 31t144 84q143 109 217 249q12 24 34 43q25 20 54 20q8 0 13 -2.5t5.5 -5.5t-1.5 -6q-16 -23 -22 -55q-7 -32 -15 -122q-9 -115 -25 -154h1q105 150 175 230
q71 84 130 131t116 46q30 -1 47 -19.5t14 -46.5q-2 -12 -5 -12q-1 0 -1 1.5t-0.5 4.5t-1.5 6q-10 30 -52 33q-80 5 -235 -157q-44 -46 -85.5 -97.5t-64 -83.5l-69.5 -100q-14 -21 -34 -16q-30 7 -25 26q21 65 24 161q4 107 17 142h-1q-29 -55 -85.5 -116.5t-118.5 -108.5
q-72 -54 -148.5 -86t-139.5 -33q-55 -1 -93.5 18.5t-38.5 58.5zM772 462q-2 0 -6 7q-14 35 -37 74q-4 7 -3 8q3 3 13 -2q28 -13 52 -35q53 26 103 39q13 3 14 0q1 -4 -7 -8q-50 -29 -118 -78q-7 -5 -11 -5z" />
    <glyph glyph-name="ncaron" unicode="&#x148;" horiz-adv-x="435" 
d="M263 235q-5 2 -7 8q-16 44 -37 77q-4 6 -3 8q2 3 13 -1q34 -15 57 -35q43 21 103 39q15 5 16 0q1 -4 -8 -9q-73 -41 -122 -82q-6 -6 -12 -5zM282 -8q-32 -1 -42.5 11.5t-7.5 29.5q3 19 34 57q38 46 40 49q8 10 -2 13q-9 3 -31 -8q-32 -17 -72 -46q-48 -34 -115 -89
q-12 -10 -50 -13q-23 -1 -29 2t-1 14q10 21 46 67q5 7 20.5 26t22.5 29t2 14q-5 3 -16 -4q-20 -13 -35 -25q-25 -20 -45 -38q-13 -12 -17 -8q-2 3 7 12q32 30 52 45q59 46 100 46q40 0 40 -27q0 -15 -22 -44q-13 -18 -46 -57l2 -2q32 28 95 73q81 57 134 57q22 0 33 -8.5
t10 -23.5q-1 -17 -36 -61q-25 -32 -30 -40q-11 -17 -2 -23q8 -5 25 5q23 12 41 27q18 14 50 43q9 7 12 4t-3 -9q-39 -36 -66 -56q-55 -41 -98 -42z" />
    <glyph glyph-name="Omacron" unicode="&#x14c;" horiz-adv-x="481" 
d="M174 52v-1q0 -25 13 -38q5 -5 5 -6q-2 -3 -8 1q-23 14 -29 45q-6 33 12 79.5t56 91.5q49 61 113 96.5t110 33.5q27 -1 42 -19.5t16 -47.5q4 -79 -57 -154q-52 -63 -136.5 -106.5t-154.5 -41.5q-46 1 -85 20t-51 63q-15 60 18 121t76 99q76 71 174.5 105.5t180.5 24.5
q68 -9 74 -55q3 -29 -17 -49q-11 -11 -14 -8l8 12q15 21 12 44q-3 20 -21 31.5t-42 11.5q-70 1 -145 -44t-129 -101q-45 -46 -75 -107.5t-18 -108.5q10 -49 67 -50q101 -3 228 152q78 98 83 163q3 35 -35 37q-80 3 -185 -132q-86 -109 -86 -162zM391 478q-7 -1 -8.5 0.5
t0.5 5.5q16 22 29 24q54 7 125 7q18 0 18 -10q0 -6 -10 -16q-12 -12 -20 -12q-83 4 -134 1z" />
    <glyph glyph-name="omacron" unicode="&#x14d;" horiz-adv-x="315" 
d="M332 277v-1q0 -6 -7 -13q-10 -10 -19 -10q-73 3 -134 0q-8 0 -9.5 1t1.5 6q18 22 29 24q70 9 124 6q15 -1 15 -13zM18 96q-2 -1 -4 -3.5t-6 -5.5t-7 -6q-14 -12 -17 -9q-2 4 6 12q13 13 34 28q13 10 38 24q71 40 126 40q27 0 27 -7l-16 -8q-31 -15 -72 -55
q-21 -21 -39 -48.5t-18 -43.5q0 -13 13 -13q35 0 101 64q-2 21 15 47q9 12 33 32q0 7 -2 13q-1 3 -2.5 6.5t-1.5 4.5t1 3q5 5 26 -8q20 -12 20 -35q0 -41 -56 -87q3 -3 11 -3q19 0 40 16t49 41q7 7 11 4t-1 -8q-33 -30 -55 -46q-25 -17 -46 -17q-13 0 -19 6
q-20 -16 -60.5 -29.5t-69.5 -13.5q-80 0 -82 50q-2 28 24 54z" />
    <glyph glyph-name="Ohungarumlaut" unicode="&#x150;" horiz-adv-x="481" 
d="M174 52v-1q0 -25 13 -38q5 -5 5 -6q-2 -3 -8 1q-23 14 -29 45q-6 33 12 79.5t56 91.5q49 61 113 96.5t110 33.5q27 -1 42 -19.5t16 -47.5q4 -79 -57 -154q-52 -63 -136.5 -106.5t-154.5 -41.5q-46 1 -85 20t-51 63q-15 60 18 121t76 99q76 71 174.5 105.5t180.5 24.5
q68 -9 74 -55q3 -29 -17 -49q-11 -11 -14 -8l8 12q15 21 12 44q-3 20 -21 31.5t-42 11.5q-70 1 -145 -44t-129 -101q-45 -46 -75 -107.5t-18 -108.5q10 -49 67 -50q101 -3 228 152q78 98 83 163q3 35 -35 37q-80 3 -185 -132q-86 -109 -86 -162zM484 472q-3 4 6 11
q28 23 60 57q13 13 26 13q12 0 16 -13q4 -14 -14 -26q-36 -24 -80 -41q-12 -5 -14 -1zM390 472q-3 4 6 11q28 23 60 57q13 13 26 13q12 0 16 -13q4 -14 -14 -26q-36 -24 -80 -41q-12 -5 -14 -1z" />
    <glyph glyph-name="ohungarumlaut" unicode="&#x151;" horiz-adv-x="315" 
d="M252 315h1q12 0 16 -11q6 -16 -14 -28q-31 -19 -81 -39q-13 -5 -16 -2q-3 4 7 12q42 37 59 54q14 14 28 14zM336 315h1q12 0 16 -11q6 -16 -14 -28q-31 -19 -81 -39q-13 -5 -16 -2q-3 4 7 12q42 37 59 54q14 14 28 14zM18 96q-2 -1 -4 -3.5t-6 -5.5t-7 -6q-14 -12 -17 -9
q-2 4 6 12q13 13 34 28q13 10 38 24q71 40 126 40q27 0 27 -7l-16 -8q-31 -15 -72 -55q-21 -21 -39 -48.5t-18 -43.5q0 -13 13 -13q35 0 101 64q-2 21 15 47q9 12 33 32q0 7 -2 13q-1 3 -2.5 6.5t-1.5 4.5t1 3q5 5 26 -8q20 -12 20 -35q0 -41 -56 -87q3 -3 11 -3q19 0 40 16
t49 41q7 7 11 4t-1 -8q-33 -30 -55 -46q-25 -17 -46 -17q-13 0 -19 6q-20 -16 -60.5 -29.5t-69.5 -13.5q-80 0 -82 50q-2 28 24 54z" />
    <glyph glyph-name="OE" unicode="&#x152;" horiz-adv-x="757" 
d="M836 406h-1q-47 0 -104 -35q-43 -27 -67 -58q13 -9 50 -18.5t71 -9.5q49 0 88.5 17t40.5 48q2 22 -18 39t-60 17zM639 230q3 -10 17 -17t30 -8q35 -2 36 13q1 7 -8 10t-27 4q-35 0 -48 -2zM524 -37h-1q-163 -13 -165 89q-109 -70 -201 -67q-47 1 -86.5 20t-49.5 63
q-14 60 17.5 120.5t76.5 99.5q85 75 178 107t177 23q74 -8 80 -55q4 -30 -16 -50q-10 -10 -13 -7q-1 1 9 12q13 16 8 44q-3 19 -25 31t-43 12q-71 1 -145 -44t-129 -101q-45 -46 -74.5 -107.5t-18.5 -108.5q12 -49 67 -50q101 -3 228 152q74 93 82 160q2 16 -7 28t-27 11
q-5 0 -9 -1t-6 -2t-4 -1.5t-2.5 -1t-1.5 0.5q-1 2 1.5 4.5t9 5.5t13.5 3q26 2 42.5 -13.5t16.5 -46.5q0 -50 -20 -94q33 17 91 30q-14 16 -14 42q0 18 11.5 40.5t30.5 37.5q-12 10 -12 33q0 9 2 16t4 10t4 2q1 -2 0.5 -2.5t-1.5 -8t-1 -17.5q0 -19 11 -28q27 21 78 38
q67 23 146 23q47 0 77 -18t30 -44q-1 -32 -48 -54.5t-108 -22.5q-36 0 -73.5 9t-54.5 21q-13 -13 -19 -37q-6 -18 -3 -31q29 3 50 2q56 -2 53 -25q-3 -20 -55 -20q-68 0 -102 26q-33 -12 -67 -43q-19 -17 -36 -43t-22 -46q-14 -54 9 -80.5t86 -22.5q67 5 135 51q18 12 70 57
q8 8 12 4q3 -3 -11 -16q-44 -40 -73 -59q-79 -53 -162 -60z" />
    <glyph glyph-name="oe" unicode="&#x153;" horiz-adv-x="437" 
d="M269 62q33 4 70 31q38 30 45 58q3 15 -10 15q-21 0 -59 -42q-31 -34 -46 -62zM24 112q13 10 38 24q71 40 126 40q27 0 27 -7l-16 -8q-31 -15 -72 -55q-21 -21 -39 -48.5t-18 -43.5q0 -13 13 -13q37 0 101 64q18 18 30 37q19 31 15 53q-3 15 -2 16q2 2 10.5 -0.5
t15.5 -7.5q11 -7 17 -19q18 13 53 23q30 9 62 9q53 0 51 -31t-67 -62q-48 -23 -105 -31q-6 -10 -6 -21q0 -21 25 -21q39 0 97 38q31 21 57 45q10 8 13 5t-11 -16q-31 -28 -57 -46q-61 -42 -126 -45q-63 -3 -79 26q-54 -26 -100 -26q-80 0 -82 50q-2 28 24 54l-1 1
q-2 -1 -4 -3.5t-6 -5.5t-7 -6q-14 -12 -17 -9q-2 4 6 12q13 13 34 28z" />
    <glyph glyph-name="Racute" unicode="&#x154;" horiz-adv-x="718" 
d="M806 430h-1q-34 0 -85 -19q-26 -10 -49 -24q35 -15 58 -51t1 -75q-30 -53 -154 -59v-1q24 -6 41 -19t18 -27q3 -24 -28 -65q-4 -6 -14.5 -19t-14.5 -18.5t-8 -14.5t-5 -16q-1 -6 3.5 -11.5t14.5 -5.5q29 0 81 41q21 17 45 39q11 11 15 7q3 -3 -5 -11q-36 -33 -58 -51
q-55 -42 -102 -45q-74 -4 -76 44q0 32 39 75q45 49 47 62q4 17 -18 31q-7 -3 -17 -3q-6 0 -14 2q-24 -29 -48 -51q-75 -70 -198 -111q67 -20 102 -19q27 0 50 14q4 3 7.5 6t5 4.5t2.5 1.5q8 0 -4 -14l-3 -3q-34 -33 -94 -33q-54 0 -112 17q-73 -22 -164 -20q-90 2 -90 33
q0 21 29.5 38t74.5 15q76 -4 180 -36q20 13 43 35.5t40.5 43.5l52.5 63.5l59 70.5q73 80 176 137q-65 24 -161 24q-100 0 -188 -53t-102 -134q-6 -43 7 -70.5t48 -29.5q9 -1 16 0t8 1.5t3 -0.5q1 -2 -1.5 -4.5t-9.5 -4.5t-16 -2q-59 -1 -95 31.5t-29 82.5q9 62 67.5 107
t134.5 65t157 20q110 0 177 -24q28 16 68 27q51 15 93 15q57 0 72 -26q2 -4 3 -7.5t1 -5.5t-1 -2t-1 1q-2 5 -7 10q-20 21 -67 21zM658 374q-30 -26 -70 -81l-29 -39.5l-28 -39.5q8 0 13 -1q10 -2 15 -5q65 14 98 63q21 34 20.5 60.5t-19.5 42.5zM210 13q-63 17 -138 23
q-86 7 -86 -16q0 -20 78 -23q86 -2 146 16zM665 477q-11 -2 -12 3q-1 3 11 11q19 12 99 68q13 9 23 9q7 0 13 -8t6 -17q0 -18 -22 -27q-56 -26 -118 -39z" />
    <glyph glyph-name="racute" unicode="&#x155;" horiz-adv-x="242" 
d="M278 347q19 2 25 -11q7 -16 -11 -34q-29 -29 -85 -63q-10 -6 -14 -2q-2 2 7 13q21 26 51 74q12 22 27 23zM199 145v-1q0 -12 -35 -55q-23 -29 -34 -47q-9 -15 -3 -21t22 2q20 10 45 29q20 16 49 42q9 10 13 6q3 -3 -8 -14q-23 -23 -60 -52q-52 -40 -94 -42q-60 -4 -60 33
q0 29 44 66q63 51 65 57q1 4 -1 6t-8.5 2.5t-13 0.5t-17.5 -1q-16 -1 -23 2q-22 -24 -39 -40l-41 -38q-12 -10 -15 -7q-4 4 5 11l44 40q22 21 38 38q-7 5 -7.5 15t8.5 20q17 19 45 19q24 0 32 -10q-12 -8 -20 -18q-17 -21 3 -23q3 0 11.5 -0.5t13 -1t11.5 -1.5t11.5 -2.5
l9 -3t7 -4.5t2.5 -7z" />
    <glyph glyph-name="Rcommaaccent" unicode="&#x156;" horiz-adv-x="718" 
d="M806 430h-1q-34 0 -85 -19q-26 -10 -49 -24q35 -15 58 -51t1 -75q-30 -53 -154 -59v-1q24 -6 41 -19t18 -27q3 -24 -28 -65q-4 -6 -14.5 -19t-14.5 -18.5t-8 -14.5t-5 -16q-1 -6 3.5 -11.5t14.5 -5.5q29 0 81 41q21 17 45 39q11 11 15 7q3 -3 -5 -11q-36 -33 -58 -51
q-55 -42 -102 -45q-74 -4 -76 44q0 32 39 75q45 49 47 62q4 17 -18 31q-7 -3 -17 -3q-6 0 -14 2q-24 -29 -48 -51q-75 -70 -198 -111q67 -20 102 -19q27 0 50 14q4 3 7.5 6t5 4.5t2.5 1.5q8 0 -4 -14l-3 -3q-34 -33 -94 -33q-54 0 -112 17q-73 -22 -164 -20q-90 2 -90 33
q0 21 29.5 38t74.5 15q76 -4 180 -36q20 13 43 35.5t40.5 43.5l52.5 63.5l59 70.5q73 80 176 137q-65 24 -161 24q-100 0 -188 -53t-102 -134q-6 -43 7 -70.5t48 -29.5q9 -1 16 0t8 1.5t3 -0.5q1 -2 -1.5 -4.5t-9.5 -4.5t-16 -2q-59 -1 -95 31.5t-29 82.5q9 62 67.5 107
t134.5 65t157 20q110 0 177 -24q28 16 68 27q51 15 93 15q57 0 72 -26q2 -4 3 -7.5t1 -5.5t-1 -2t-1 1q-2 5 -7 10q-20 21 -67 21zM658 374q-30 -26 -70 -81l-29 -39.5l-28 -39.5q8 0 13 -1q10 -2 15 -5q65 14 98 63q21 34 20.5 60.5t-19.5 42.5zM210 13q-63 17 -138 23
q-86 7 -86 -16q0 -20 78 -23q86 -2 146 16zM318 -142q-1 2 7 10q21 21 33 46q2 4 0 13t-1 13q5 14 48 20q13 2 13 -9q0 -5 -7 -15q-31 -43 -82 -74q-9 -6 -11 -4z" />
    <glyph glyph-name="rcommaaccent" unicode="&#x157;" horiz-adv-x="242" 
d="M199 145v-1q0 -12 -35 -55q-23 -29 -34 -47q-9 -15 -3 -21t22 2q20 10 45 29q20 16 49 42q9 10 13 6q3 -3 -8 -14q-23 -23 -60 -52q-52 -40 -94 -42q-60 -4 -60 33q0 29 44 66q63 51 65 57q1 4 -1 6t-8.5 2.5t-13 0.5t-17.5 -1q-16 -1 -23 2q-22 -24 -39 -40l-41 -38
q-12 -10 -15 -7q-4 4 5 11l44 40q22 21 38 38q-7 5 -7.5 15t8.5 20q17 19 45 19q24 0 32 -10q-12 -8 -20 -18q-17 -21 3 -23q3 0 11.5 -0.5t13 -1t11.5 -1.5t11.5 -2.5l9 -3t7 -4.5t2.5 -7zM-70 -134q-2 2 7 11q21 21 33 46q2 4 0 13t-1 13q5 14 48 20q13 2 13 -9
q0 -6 -7 -15q-34 -44 -82 -74q-9 -6 -11 -5z" />
    <glyph glyph-name="Rcaron" unicode="&#x158;" horiz-adv-x="718" 
d="M806 430h-1q-34 0 -85 -19q-26 -10 -49 -24q35 -15 58 -51t1 -75q-30 -53 -154 -59v-1q24 -6 41 -19t18 -27q3 -24 -28 -65q-4 -6 -14.5 -19t-14.5 -18.5t-8 -14.5t-5 -16q-1 -6 3.5 -11.5t14.5 -5.5q29 0 81 41q21 17 45 39q11 11 15 7q3 -3 -5 -11q-36 -33 -58 -51
q-55 -42 -102 -45q-74 -4 -76 44q0 32 39 75q45 49 47 62q4 17 -18 31q-7 -3 -17 -3q-6 0 -14 2q-24 -29 -48 -51q-75 -70 -198 -111q67 -20 102 -19q27 0 50 14q4 3 7.5 6t5 4.5t2.5 1.5q8 0 -4 -14l-3 -3q-34 -33 -94 -33q-54 0 -112 17q-73 -22 -164 -20q-90 2 -90 33
q0 21 29.5 38t74.5 15q76 -4 180 -36q20 13 43 35.5t40.5 43.5l52.5 63.5l59 70.5q73 80 176 137q-65 24 -161 24q-100 0 -188 -53t-102 -134q-6 -43 7 -70.5t48 -29.5q9 -1 16 0t8 1.5t3 -0.5q1 -2 -1.5 -4.5t-9.5 -4.5t-16 -2q-59 -1 -95 31.5t-29 82.5q9 62 67.5 107
t134.5 65t157 20q110 0 177 -24q28 16 68 27q51 15 93 15q57 0 72 -26q2 -4 3 -7.5t1 -5.5t-1 -2t-1 1q-2 5 -7 10q-20 21 -67 21zM658 374q-30 -26 -70 -81l-29 -39.5l-28 -39.5q8 0 13 -1q10 -2 15 -5q65 14 98 63q21 34 20.5 60.5t-19.5 42.5zM210 13q-63 17 -138 23
q-86 7 -86 -16q0 -20 78 -23q86 -2 146 16zM659 462q-3 0 -6 7q-14 35 -37 74q-4 7 -3 8q3 3 13 -2q28 -13 52 -35q53 26 103 39q13 3 14 0q1 -4 -7 -8q-50 -29 -118 -78q-7 -5 -11 -5z" />
    <glyph glyph-name="rcaron" unicode="&#x159;" horiz-adv-x="242" 
d="M199 245q-5 2 -7 8q-16 44 -37 77q-4 6 -3 8q2 3 13 -1q34 -15 57 -35q43 21 103 39q15 5 16 0q1 -3 -8 -9q-73 -41 -122 -82q-6 -6 -12 -5zM199 145v-1q0 -12 -35 -55q-23 -29 -34 -47q-9 -15 -3 -21t22 2q20 10 45 29q20 16 49 42q9 10 13 6q3 -3 -8 -14
q-23 -23 -60 -52q-52 -40 -94 -42q-60 -4 -60 33q0 29 44 66q63 51 65 57q1 4 -1 6t-8.5 2.5t-13 0.5t-17.5 -1q-16 -1 -23 2q-22 -24 -39 -40l-41 -38q-12 -10 -15 -7q-4 4 5 11l44 40q22 21 38 38q-7 5 -7.5 15t8.5 20q17 19 45 19q24 0 32 -10q-12 -8 -20 -18
q-17 -21 3 -23q3 0 11.5 -0.5t13 -1t11.5 -1.5t11.5 -2.5l9 -3t7 -4.5t2.5 -7z" />
    <glyph glyph-name="Sacute" unicode="&#x15a;" horiz-adv-x="610" 
d="M398 220q146 53 152 55q65 88 135 130q46 28 88 28q16 0 25.5 -6.5t8.5 -20.5q-2 -24 -37 -51.5t-85 -48.5q-6 -3 -28 -10q-25 -46 -53 -104q-53 -106 -154 -158t-216 -60q-120 -7 -178 27q-49 -39 -75 -86q-6 -9 -7 -9q-4 1 0 12q15 39 66 93q-55 39 -51 100
q6 68 79.5 109.5t161.5 46.5q46 3 95.5 -8.5t72.5 -38.5zM662 308q3 1 23 9q104 45 112 89q1 10 -6.5 15t-19.5 3q-19 -3 -44 -28q-29 -28 -65 -88zM259 70h-1q-46 0 -80 23q-20 -12 -53 -37l-35 -28q25 -26 67.5 -37t85.5 -8q77 7 138.5 58t118.5 152q28 47 43 67v1
q-68 -23 -138 -51q10 -17 9 -38q-4 -46 -52.5 -74t-102.5 -28zM258 80h1q43 0 82 26.5t41 66.5q1 15 -3 27q-32 -13 -68 -30q-56 -27 -124 -71q29 -19 71 -19zM375 211q-16 29 -58.5 40t-86.5 7q-59 -4 -111 -41.5t-57 -97.5q-3 -48 16 -77q8 8 32 26q29 21 54 37
q-16 16 -19 35q-2 10 3 10q1 0 4 -8q6 -19 21 -32q60 36 133 71q35 17 69 30zM728 477q-11 -2 -12 3q-1 3 11 11q19 12 99 68q13 9 23 9q7 0 13 -8t6 -17q0 -18 -22 -27q-56 -26 -118 -39z" />
    <glyph glyph-name="sacute" unicode="&#x15b;" horiz-adv-x="264" 
d="M290 367q19 2 25 -11q7 -16 -11 -34q-29 -29 -85 -63q-10 -6 -14 -2q-2 2 7 13q21 26 51 74q12 22 27 23zM160 22q18 6 41 21q27 17 65 52q10 8 13 5t-4 -10q-37 -34 -62 -51q-29 -20 -74 -34q-47 -14 -98 -14q-39 0 -62.5 17t-22.5 42q1 24 16.5 38t33.5 14q32 0 32 -23
q0 -13 -15 -25q-16 -13 -16 -29q1 -22 26 -22q34 0 64 49q12 19 27.5 60.5t19.5 47.5l-1 1q-12 -12 -44 -36q-33 -24 -48 -33q-10 -6 -12 -3q-2 4 7 10q16 10 45 32q32 24 60 48q7 14 16 24q12 13 31 13q12 0 17 -3.5t1.5 -10.5t-16.5 -16q-3 -2 -11.5 -7t-12.5 -8
q-11 -11 2 -30q26 -40 9 -82q-9 -22 -27 -37z" />
    <glyph glyph-name="uni015E" unicode="&#x15e;" horiz-adv-x="610" 
d="M158 -112h1q27 0 32 17q3 10 -4 17.5t-19 6.5q-5 0 -9 -2t-5.5 -2.5t-3.5 0.5q-4 3 2 9q17 20 40 39q-91 2 -136 28q-49 -39 -75 -86q-6 -9 -7 -9q-4 1 0 12q15 39 66 93q-55 39 -51 100q6 68 79.5 109.5t161.5 46.5q46 3 95.5 -8.5t72.5 -38.5q146 53 152 55
q65 88 135 130q46 28 88 28q16 0 25.5 -6.5t8.5 -20.5q-2 -24 -37 -51.5t-85 -48.5q-6 -3 -28 -10q-24 -44 -53 -104q-53 -106 -154 -158t-216 -60q-4 0 -12 -0.5t-13 -0.5q-20 -13 -32 -30q6 3 17 3q21 0 32.5 -11.5t9.5 -29.5t-24.5 -29.5t-51.5 -9.5q-41 2 -57 25
q-10 13 -3 18q2 1 10 -7q16 -14 48 -14zM259 70h-1q-46 0 -80 23q-20 -12 -53 -37l-35 -28q25 -26 67.5 -37t85.5 -8q77 7 138.5 58t118.5 152q22 36 44 68q-74 -25 -139 -51q10 -22 9 -38q-4 -46 -52.5 -74t-102.5 -28zM375 211q-16 29 -58.5 40t-86.5 7q-59 -4 -111 -41.5
t-57 -97.5q-3 -48 16 -77q8 8 32 26q29 21 54 37q-16 16 -19 35q-2 10 3 10q1 0 4 -8q6 -19 21 -32q60 36 133 71q35 17 69 30zM258 80h1q43 0 82 26.5t41 66.5q0 17 -3 27q-32 -13 -68 -30q-56 -27 -124 -71q29 -19 71 -19zM662 308q3 1 23 9q104 45 112 89q1 10 -6.5 15
t-19.5 3q-19 -3 -44 -28q-29 -28 -65 -88z" />
    <glyph glyph-name="uni015F" unicode="&#x15f;" horiz-adv-x="264" 
d="M139 5q-45 -13 -87 -14q-24 -17 -31 -29q6 3 17 3q21 0 32.5 -11.5t9.5 -29.5t-24.5 -29.5t-51.5 -9.5q-41 3 -57 25q-10 13 -3 18q2 1 10 -7q16 -14 48 -14h1q27 0 32 17q3 10 -3.5 17.5t-19.5 6.5q-5 0 -9 -2t-5.5 -2.5t-3.5 0.5q-4 4 2 9q17 20 39 38
q-37 1 -58.5 18.5t-20.5 40.5q1 24 16.5 38t33.5 14q32 0 32 -23q0 -13 -15 -25q-16 -13 -16 -29q1 -22 26 -22q34 0 64 49q12 19 27.5 60.5t19.5 47.5l-1 1q-12 -12 -44 -36q-33 -24 -48 -33q-10 -6 -12 -3q-2 4 7 10q16 10 45 32q32 24 60 48q7 14 16 24q12 13 31 13
q12 0 17 -3.5t1.5 -10.5t-16.5 -16q-3 -2 -11.5 -7t-12.5 -8q-11 -11 2 -30q26 -40 9 -82q-9 -22 -27 -37q18 6 41 21q27 17 65 52q10 8 13 5t-4 -10q-37 -34 -62 -51q-29 -20 -74 -34z" />
    <glyph glyph-name="Scaron" unicode="&#x160;" horiz-adv-x="610" 
d="M398 220q146 53 152 55q65 88 135 130q46 28 88 28q16 0 25.5 -6.5t8.5 -20.5q-2 -24 -37 -51.5t-85 -48.5q-6 -3 -28 -10q-25 -46 -53 -104q-53 -106 -154 -158t-216 -60q-120 -7 -178 27q-49 -39 -75 -86q-6 -9 -7 -9q-4 1 0 12q15 39 66 93q-55 39 -51 100
q6 68 79.5 109.5t161.5 46.5q46 3 95.5 -8.5t72.5 -38.5zM662 308q3 1 23 9q104 45 112 89q1 10 -6.5 15t-19.5 3q-19 -3 -44 -28q-29 -28 -65 -88zM259 70h-1q-46 0 -80 23q-20 -12 -53 -37l-35 -28q25 -26 67.5 -37t85.5 -8q77 7 138.5 58t118.5 152q28 47 43 67v1
q-68 -23 -138 -51q10 -17 9 -38q-4 -46 -52.5 -74t-102.5 -28zM258 80h1q43 0 82 26.5t41 66.5q1 15 -3 27q-32 -13 -68 -30q-56 -27 -124 -71q29 -19 71 -19zM375 211q-16 29 -58.5 40t-86.5 7q-59 -4 -111 -41.5t-57 -97.5q-3 -48 16 -77q8 8 32 26q29 21 54 37
q-16 16 -19 35q-2 10 3 10q1 0 4 -8q6 -19 21 -32q60 36 133 71q35 17 69 30zM748 474q-2 0 -6 7q-14 35 -37 74q-4 7 -3 8q3 3 13 -2q28 -13 52 -35q53 26 103 39q13 3 14 0q1 -4 -7 -8q-50 -29 -118 -78q-7 -5 -11 -5z" />
    <glyph glyph-name="scaron" unicode="&#x161;" horiz-adv-x="264" 
d="M201 272q-5 2 -7 8q-16 44 -37 77q-4 6 -3 8q2 3 13 -1q34 -15 57 -35q43 21 103 39q15 5 16 0q1 -4 -8 -9q-73 -41 -122 -82q-6 -6 -12 -5zM160 22q18 6 41 21q27 17 65 52q10 8 13 5t-4 -10q-37 -34 -62 -51q-29 -20 -74 -34q-47 -14 -98 -14q-39 0 -62.5 17t-22.5 42
q1 24 16.5 38t33.5 14q32 0 32 -23q0 -13 -15 -25q-16 -13 -16 -29q1 -22 26 -22q34 0 64 49q12 19 27.5 60.5t19.5 47.5l-1 1q-12 -12 -44 -36q-33 -24 -48 -33q-10 -6 -12 -3q-2 4 7 10q16 10 45 32q32 24 60 48q7 14 16 24q12 13 31 13q12 0 17 -3.5t1.5 -10.5t-16.5 -16
q-3 -2 -11.5 -7t-12.5 -8q-11 -11 2 -30q26 -40 9 -82q-9 -22 -27 -37z" />
    <glyph glyph-name="Tcommaaccent" unicode="&#x162;" horiz-adv-x="612" 
d="M731 528h-1q-41 0 -76 -14.5t-54 -37.5q-10 -12 -16 -29q-4 -12 -5 -12q-4 0 -1 13q5 19 16 34q19 26 55.5 42.5t82.5 16.5q57 0 94 -26t33 -68q-4 -53 -56.5 -82.5t-133.5 -27.5q-22 0 -25 -1q-39 -14 -81 -62q-11 -12 -47.5 -62t-69.5 -78q-101 -89 -235 -115v-1
q106 -10 156 -9q68 2 111.5 11.5t85.5 35.5q24 16 42 32q10 7 12 6q5 -3 -4 -12q-23 -21 -47 -37q-92 -60 -217 -60q-116 0 -208 12q-45 -4 -94 -6q-35 -1 -53 -1t-31.5 1.5t-17.5 5t-2 10.5q3 14 31.5 21.5t61.5 7.5q71 0 146 -13q45 9 106 62q26 23 48 45.5t48.5 52.5
l46.5 51q43 42 94.5 69.5t94.5 35.5v1q-67 10 -126 21q-127 25 -222 23q-64 -3 -106.5 -25.5t-46.5 -64.5q-4 -33 22 -55t67 -24q45 -1 75 16t35 47q2 18 -6 29q-1 2 -3 4q-2 3 -1 4q3 3 17 -5q22 -14 22 -34q-1 -32 -45 -52t-95 -18q-46 2 -74.5 27t-25.5 64q5 56 59 91.5
t145 34.5q70 0 200 -20q126 -19 171 -21q66 -4 112 12.5t51 50.5t-27.5 58.5t-87.5 24.5zM119 -142q-1 2 7 10q21 21 33 46q2 4 0 13t-1 13q5 14 48 20q13 2 13 -9q0 -5 -7 -15q-31 -43 -82 -74q-9 -6 -11 -4z" />
    <glyph glyph-name="tcommaaccent" unicode="&#x163;" horiz-adv-x="205" 
d="M44 120l-44 -40q-12 -10 -15 -7t8 14q63 56 79 72q-12 0 -34 -2q-4 0 -6 -0.5t-4 0t-2.5 1.5t-0.5 3q1 5 26 7q12 1 30 1l93 103q42 44 83 44q26 0 33 -9q-17 -13 -61 -65q-32 -37 -60 -74q31 1 56 0q2 0 4.5 -0.5l5 -1t4 -1.5t0.5 -3q-2 -4 -18 -4q-37 0 -60 -1
q-47 -57 -73 -110q-11 -21 -3 -27t28 4t45 29q11 8 49 42q10 8 13 5t-2 -8q-42 -40 -67 -58q-62 -44 -110 -44q-45 0 -47 31q-1 30 50 99zM-58 -140q-2 2 7 11q21 21 33 46q2 4 0 13t-1 13q5 14 48 20q13 2 13 -9q0 -6 -7 -15q-34 -44 -82 -74q-9 -6 -11 -5z" />
    <glyph glyph-name="Tcaron" unicode="&#x164;" horiz-adv-x="612" 
d="M731 528h-1q-41 0 -76 -14.5t-54 -37.5q-10 -12 -16 -29q-4 -12 -5 -12q-4 0 -1 13q5 19 16 34q19 26 55.5 42.5t82.5 16.5q57 0 94 -26t33 -68q-4 -53 -56.5 -82.5t-133.5 -27.5q-22 0 -25 -1q-39 -14 -81 -62q-11 -12 -47.5 -62t-69.5 -78q-101 -89 -235 -115v-1
q106 -10 156 -9q68 2 111.5 11.5t85.5 35.5q24 16 42 32q10 7 12 6q5 -3 -4 -12q-23 -21 -47 -37q-92 -60 -217 -60q-116 0 -208 12q-45 -4 -94 -6q-35 -1 -53 -1t-31.5 1.5t-17.5 5t-2 10.5q3 14 31.5 21.5t61.5 7.5q71 0 146 -13q45 9 106 62q26 23 48 45.5t48.5 52.5
l46.5 51q43 42 94.5 69.5t94.5 35.5v1q-67 10 -126 21q-127 25 -222 23q-64 -3 -106.5 -25.5t-46.5 -64.5q-4 -33 22 -55t67 -24q45 -1 75 16t35 47q2 18 -6 29q-1 2 -3 4q-2 3 -1 4q3 3 17 -5q22 -14 22 -34q-1 -32 -45 -52t-95 -18q-46 2 -74.5 27t-25.5 64q5 56 59 91.5
t145 34.5q70 0 200 -20q126 -19 171 -21q66 -4 112 12.5t51 50.5t-27.5 58.5t-87.5 24.5zM680 402q-2 0 -6 7q-14 35 -37 74q-4 7 -3 8q3 3 13 -2q28 -13 52 -35q53 26 103 39q13 3 14 0q1 -4 -7 -8q-50 -29 -118 -78q-7 -5 -11 -5z" />
    <glyph glyph-name="tcaron" unicode="&#x165;" horiz-adv-x="205" 
d="M44 120l-44 -40q-12 -10 -15 -7t8 14q63 56 79 72q-12 0 -34 -2q-4 0 -6 -0.5t-4 0t-2.5 1.5t-0.5 3q1 5 26 7q12 1 30 1l93 103q42 44 83 44q26 0 33 -9q-17 -13 -61 -65q-32 -37 -60 -74q31 1 56 0q2 0 4.5 -0.5l5 -1t4 -1.5t0.5 -3q-2 -4 -18 -4q-37 0 -60 -1
q-47 -57 -73 -110q-11 -21 -3 -27t28 4t45 29q11 8 49 42q10 8 13 5t-2 -8q-42 -40 -67 -58q-62 -44 -110 -44q-45 0 -47 31q-1 30 50 99zM301 230q-2 2 7 11q21 21 33 46q2 4 0 13t-1 13q5 14 48 20q13 2 13 -9q0 -6 -7 -15q-34 -44 -82 -74q-9 -6 -11 -5z" />
    <glyph glyph-name="Umacron" unicode="&#x16a;" horiz-adv-x="602" 
d="M437 134q-30 -30 -63.5 -57.5t-86 -56.5t-90.5 -29q-56 0 -58 40q-1 50 121 187q93 106 104 153q4 21 -6 30.5t-27 9.5q-88 0 -177 -87q-80 -78 -80 -130q0 -40 36 -41q18 -1 36 10q4 3 7.5 6t5 4t2.5 0q2 -1 -2 -6.5t-10 -9.5q-18 -14 -42 -13q-43 3 -53 49
q-8 34 13.5 79.5t61.5 77.5q89 71 208 71q47 0 74.5 -15t27.5 -43q0 -21 -16 -49.5t-32.5 -49l-48.5 -58.5q-116 -134 -122 -173q-1 -10 3.5 -14.5t13.5 -3.5q41 2 102 49q73 53 146 140q71 83 166 163q78 63 125 56q13 -2 11.5 -15.5t-16.5 -29.5q-24 -26 -75 -63
q-59 -43 -91 -70q-8 -9 -23 -28q-94 -126 -107 -173q-5 -18 6 -22q19 -7 61 23q26 18 61 49q9 8 12 5t-7 -13q-22 -22 -63 -52q-17 -13 -48.5 -28.5t-57.5 -16.5q-52 -1 -52 42q0 40 50 103zM630 277l60 43q35 24 65 54q10 11 15.5 19.5t6 13t-2.5 6.5q-14 6 -54 -38z
M514 468q-7 -1 -8.5 0.5t0.5 5.5q16 22 29 24q54 7 125 7q18 0 18 -10q0 -6 -10 -16q-12 -12 -20 -12q-83 4 -134 1z" />
    <glyph glyph-name="umacron" unicode="&#x16b;" horiz-adv-x="402" 
d="M378 277v-1q0 -6 -7 -13q-10 -10 -19 -10q-73 3 -134 0q-8 0 -9.5 1t1.5 6q18 22 29 24q70 9 124 6q15 -1 15 -13zM105 154q-25 -9 -64 -39q-19 -15 -41 -35q-11 -10 -14 -7q-4 3 6 13q41 37 72 57q46 29 89 29q38 0 38 -7q0 -4 -5 -9l-57 -68q-27 -33 -38 -54
q-7 -12 -1 -17q6 -4 23 4q26 13 75 51q24 19 58 50.5t45 40.5q14 11 47 11q38 0 38 -6q0 -3 -5 -10q-30 -37 -52 -70t-29 -45q-9 -16 -2 -22t25 3q17 8 40 27q29 24 51 44q8 8 12 4q3 -4 -12 -17q-25 -24 -57 -49q-54 -44 -99 -44q-55 0 -50 43q1 16 16 36l19 25l-2 2
q-25 -22 -58 -47q-77 -58 -126 -58q-45 0 -45 32q0 16 17 41t44.5 54.5t41.5 36.5z" />
    <glyph glyph-name="Uring" unicode="&#x16e;" horiz-adv-x="602" 
d="M437 134q-30 -30 -63.5 -57.5t-86 -56.5t-90.5 -29q-56 0 -58 40q-1 50 121 187q93 106 104 153q4 21 -6 30.5t-27 9.5q-88 0 -177 -87q-80 -78 -80 -130q0 -40 36 -41q18 -1 36 10q4 3 7.5 6t5 4t2.5 0q2 -1 -2 -6.5t-10 -9.5q-18 -14 -42 -13q-43 3 -53 49
q-8 34 13.5 79.5t61.5 77.5q89 71 208 71q47 0 74.5 -15t27.5 -43q0 -21 -16 -49.5t-32.5 -49l-48.5 -58.5q-116 -134 -122 -173q-1 -10 3.5 -14.5t13.5 -3.5q41 2 102 49q73 53 146 140q71 83 166 163q78 63 125 56q13 -2 11.5 -15.5t-16.5 -29.5q-24 -26 -75 -63
q-59 -43 -91 -70q-8 -9 -23 -28q-94 -126 -107 -173q-5 -18 6 -22q19 -7 61 23q26 18 61 49q9 8 12 5t-7 -13q-22 -22 -63 -52q-17 -13 -48.5 -28.5t-57.5 -16.5q-52 -1 -52 42q0 40 50 103zM630 277l60 43q35 24 65 54q10 11 15.5 19.5t6 13t-2.5 6.5q-14 6 -54 -38z
M583 418q-22 0 -36 14.5t-14 36.5q0 20 14.5 35.5t35.5 15.5t36 -15.5t15 -35.5q0 -22 -15 -36.5t-36 -14.5zM583 444q11 0 18 7t7 18q0 10 -7 18t-18 8t-17.5 -8t-6.5 -18q0 -25 24 -25z" />
    <glyph glyph-name="uring" unicode="&#x16f;" horiz-adv-x="402" 
d="M272 340h1q22 0 38 -16.5t16 -38.5t-16 -38t-39 -16t-39 16t-16 38q0 23 16.5 39t38.5 16zM272 315h-1q-12 0 -20.5 -8.5t-8.5 -21.5t8.5 -21.5t21.5 -8.5t21.5 8.5t8.5 21.5t-8.5 21.5t-21.5 8.5zM105 154q-25 -9 -64 -39q-19 -15 -41 -35q-11 -10 -14 -7q-4 3 6 13
q41 37 72 57q46 29 89 29q38 0 38 -7q0 -4 -5 -9l-57 -68q-27 -33 -38 -54q-7 -12 -1 -17q6 -4 23 4q26 13 75 51q24 19 58 50.5t45 40.5q14 11 47 11q38 0 38 -6q0 -3 -5 -10q-30 -37 -52 -70t-29 -45q-9 -16 -2 -22t25 3q17 8 40 27q29 24 51 44q8 8 12 4q3 -4 -12 -17
q-25 -24 -57 -49q-54 -44 -99 -44q-55 0 -50 43q1 16 16 36l19 25l-2 2q-25 -22 -58 -47q-77 -58 -126 -58q-45 0 -45 32q0 16 17 41t44.5 54.5t41.5 36.5z" />
    <glyph glyph-name="Uhungarumlaut" unicode="&#x170;" horiz-adv-x="602" 
d="M437 134q-30 -30 -63.5 -57.5t-86 -56.5t-90.5 -29q-56 0 -58 40q-1 50 121 187q93 106 104 153q4 21 -6 30.5t-27 9.5q-88 0 -177 -87q-80 -78 -80 -130q0 -40 36 -41q18 -1 36 10q4 3 7.5 6t5 4t2.5 0q2 -1 -2 -6.5t-10 -9.5q-18 -14 -42 -13q-43 3 -53 49
q-8 34 13.5 79.5t61.5 77.5q89 71 208 71q47 0 74.5 -15t27.5 -43q0 -21 -16 -49.5t-32.5 -49l-48.5 -58.5q-116 -134 -122 -173q-1 -10 3.5 -14.5t13.5 -3.5q41 2 102 49q73 53 146 140q71 83 166 163q78 63 125 56q13 -2 11.5 -15.5t-16.5 -29.5q-24 -26 -75 -63
q-59 -43 -91 -70q-8 -9 -23 -28q-94 -126 -107 -173q-5 -18 6 -22q19 -7 61 23q26 18 61 49q9 8 12 5t-7 -13q-22 -22 -63 -52q-17 -13 -48.5 -28.5t-57.5 -16.5q-52 -1 -52 42q0 40 50 103zM630 277l60 43q35 24 65 54q10 11 15.5 19.5t6 13t-2.5 6.5q-14 6 -54 -38z
M597 442q-3 4 6 11q28 23 60 57q13 13 26 13q12 0 16 -13q4 -14 -14 -26q-36 -24 -80 -41q-12 -5 -14 -1zM503 442q-3 4 6 11q28 23 60 57q13 13 26 13q12 0 16 -13q4 -14 -14 -26q-36 -24 -80 -41q-12 -5 -14 -1z" />
    <glyph glyph-name="uhungarumlaut" unicode="&#x171;" horiz-adv-x="402" 
d="M288 315h1q12 0 16 -11q6 -16 -14 -28q-31 -19 -81 -39q-13 -5 -16 -2q-3 4 7 12q42 37 59 54q14 14 28 14zM372 315h1q12 0 16 -11q6 -16 -14 -28q-31 -19 -81 -39q-13 -5 -16 -2q-3 4 7 12q42 37 59 54q14 14 28 14zM105 154q-25 -9 -64 -39q-19 -15 -41 -35
q-11 -10 -14 -7q-4 3 6 13q41 37 72 57q46 29 89 29q38 0 38 -7q0 -4 -5 -9l-57 -68q-27 -33 -38 -54q-7 -12 -1 -17q6 -4 23 4q26 13 75 51q24 19 58 50.5t45 40.5q14 11 47 11q38 0 38 -6q0 -3 -5 -10q-30 -37 -52 -70t-29 -45q-9 -16 -2 -22t25 3q17 8 40 27q29 24 51 44
q8 8 12 4q3 -4 -12 -17q-25 -24 -57 -49q-54 -44 -99 -44q-55 0 -50 43q1 16 16 36l19 25l-2 2q-25 -22 -58 -47q-77 -58 -126 -58q-45 0 -45 32q0 16 17 41t44.5 54.5t41.5 36.5z" />
    <glyph glyph-name="Uogonek" unicode="&#x172;" horiz-adv-x="602" 
d="M630 277l60 43q35 24 65 54q10 11 15.5 19.5t6 13t-2.5 6.5q-14 6 -54 -38zM545 34q-27 -21 -64 -35q-56 -29 -66 -60q-7 -21 13 -23q14 -1 33 10q9 6 11 3t-3 -10q-33 -35 -74 -34q-20 1 -29 13.5t-5 29.5q7 32 82 61h-4q-52 -1 -52 42q0 40 50 103q-30 -30 -63.5 -57.5
t-86 -56.5t-90.5 -29q-56 0 -58 40q-1 50 121 187q93 106 104 153q4 21 -6 30.5t-27 9.5q-88 0 -177 -87q-80 -78 -80 -130q0 -41 36 -41q20 0 36 10q5 3 10 7q3 4 5 3t-2 -6.5t-10 -9.5q-18 -14 -42 -13q-43 3 -53 49q-8 34 14 80.5t61 76.5q45 34 101.5 52.5t106.5 18.5
q47 0 74.5 -15t27.5 -43q0 -21 -16 -49.5t-32.5 -49l-48.5 -58.5q-116 -134 -122 -173q-1 -10 3.5 -14.5t13.5 -3.5q41 2 102 49q73 53 146 140q20 23 43 47l43.5 43.5l36 33.5l29 26t14.5 13q78 63 125 56q13 -2 11.5 -15.5t-16.5 -29.5q-24 -26 -75 -63q-59 -43 -91 -70
q-8 -9 -23 -28q-94 -126 -107 -173q-5 -18 6 -22q19 -7 61 23q26 18 61 49q9 8 12 5t-7 -13q-22 -22 -63 -52z" />
    <glyph glyph-name="uogonek" unicode="&#x173;" horiz-adv-x="402" 
d="M347 33q-30 -23 -53 -33q-59 -32 -69 -61q-7 -21 13 -23q14 -1 33 10q9 6 11 3t-3 -10q-32 -34 -74 -34q-21 0 -30 12.5t-4 30.5q7 28 82 61h-5q-55 0 -50 43q1 16 16 36l19 25l-2 2q-25 -22 -58 -47q-77 -58 -126 -58q-45 0 -45 32q0 16 17 41t44.5 54.5t41.5 36.5
q-25 -9 -64 -39q-19 -15 -41 -35q-11 -10 -14 -7q-4 3 6 13q41 37 72 57q46 29 89 29q38 0 38 -7q0 -4 -5 -9l-57 -68q-27 -33 -38 -54q-7 -12 -1 -17q6 -4 23 4q26 13 75 51q24 19 58 50.5t45 40.5q14 11 47 11q38 0 38 -6q0 -3 -5 -10q-30 -37 -52 -70t-29 -45
q-9 -16 -2 -22t25 3q17 8 40 27q29 24 51 44q8 8 12 4q3 -4 -12 -17q-25 -24 -57 -49z" />
    <glyph glyph-name="Ydieresis" unicode="&#x178;" horiz-adv-x="564" 
d="M445 142q-157 -151 -248 -151q-56 0 -58 40q-1 50 121 187q93 106 104 153q4 21 -6.5 31.5t-26.5 10.5q-86 0 -177 -89q-80 -78 -80 -130q0 -41 35 -42q18 -1 37 11l9 7q4 4 6 3q4 -4 -12 -16q-19 -13 -41 -13q-21 0 -35.5 13.5t-18.5 35.5q-6 36 13.5 81.5t57.5 76.5
q86 72 212 72q47 0 75 -15.5t27 -44.5q-1 -30 -25.5 -66t-71.5 -91q-116 -134 -122 -173q-1 -10 3.5 -14.5t13.5 -3.5q41 2 102 49q43 31 73 60t73 80q116 130 157 166q22 20 56.5 39t59.5 14q10 -1 13.5 -8t1.5 -16t-9 -18q-20 -27 -69 -66q-60 -50 -81 -70l-130 -178
l-87 -123q75 2 115.5 -31.5t32.5 -89.5q-1 -7 -3.5 -12t-4.5 -7t-3 -1q-2 1 -1 5l2 14q6 54 -33 85t-113 27q-51 -74 -105 -134q-69 -79 -149 -121.5t-132 -42.5q-23 0 -37 10t-12 32q3 40 47.5 89t101.5 87q88 61 196 83zM637 278l51 42q34 28 56 54q27 31 15 39t-48 -38z
M290 -76q-95 -23 -176 -79q-44 -30 -83.5 -79.5t-42.5 -89.5q-3 -25 18 -29q28 -4 65 18q57 36 128 134zM616 473q-10 14 0 40q9 22 47 22q14 0 17 -8.5t-7 -21.5q-11 -13 -28.5 -22.5t-28.5 -9.5zM498 473q-12 14 -1 40q10 22 46 22q14 0 17.5 -8.5t-6.5 -21.5
q-12 -14 -29 -23t-27 -9z" />
    <glyph glyph-name="Zacute" unicode="&#x179;" horiz-adv-x="494" 
d="M472 329q-30 -18 -74 -30.5t-76 -14.5q-51 -2 -76.5 11t-23.5 45q2 35 42.5 59t89.5 26q15 0 15 -5q0 -1 -15 -3q-28 -2 -50 -13t-23 -27q-1 -19 16.5 -27.5t44.5 -10.5q84 -6 150 11q21 25 49 47q29 24 47 20q7 -2 9.5 -9t-2.5 -15q-6 -8 -19 -15.5t-34 -18l-29 -14.5
q-35 -28 -145 -105l-103 -71v-1q25 6 55 2q49 -6 76.5 -38.5t29.5 -87.5q31 18 63 45q15 12 17 10q4 -3 -11 -18q-26 -26 -68 -48q-4 -105 -140 -220q-82 -70 -204 -121.5t-191 -50.5q-63 2 -63 46q0 82 211 190q61 32 154.5 70t135.5 60q19 82 -10 114q-14 16 -40 21t-45 1
q-21 -18 -61 -43q-62 -39 -73 -21q-5 9 13 26.5t44 29.5q49 24 84 31l26.5 17.5l38 26.5l36.5 26zM327 -6q-40 -21 -134.5 -61t-146.5 -68l-58.5 -31.5t-53 -32.5t-50 -37t-31 -37t-13.5 -40q0 -18 14.5 -27t36.5 -9q61 0 150.5 47.5t159.5 119.5q108 111 126 176zM215 140
q-19 -1 -52 -17q-21 -10 -34 -20t-11 -15q5 -9 49 20q30 19 48 32zM454 467q-11 -2 -12 3q-1 3 11 11q19 12 99 68q13 9 23 9q7 0 13 -8t6 -17q0 -18 -22 -27q-56 -26 -118 -39z" />
    <glyph glyph-name="zacute" unicode="&#x17a;" horiz-adv-x="280" 
d="M268 347q19 2 25 -11q7 -16 -11 -34q-29 -29 -85 -63q-10 -6 -14 -2q-2 2 7 13q21 26 51 74q12 22 27 23zM50 36q12 4 31 4q61 0 78 -33q24 12 59 36q26 18 63 51q10 8 13 5t-3 -9q-33 -31 -69 -56q-30 -20 -59 -35q3 -9 3 -19q-1 -95 -164 -236q-62 -55 -155 -102
t-138 -47q-51 0 -51 37q0 63 155 177q25 18 57.5 38.5l54 33l53 30t39.5 22.5q67 38 73 42q6 26 -1.5 40t-22.5 14q-35 0 -72 -37q-8 -8 -12 -5q-8 6 0 17q11 17 39 30q7 3 44 20t60 29q50 25 81 53q7 7 4 11q-1 1 -8 -3q-44 -32 -87 -32q-45 0 -58 26q-25 -29 -57 -58
q-12 -10 -15 -7q-4 4 6 12q25 23 62 63q-2 17 10 32t36 15q17 0 20 -10q-16 0 -17 -11q-2 -20 52 -20q52 0 88 12q17 5 22 1q6 -6 -6 -23q-28 -40 -88 -68q-17 -8 -62.5 -21t-57.5 -19zM-287 -394h1q39 0 101.5 46t123.5 111q44 45 89.5 105.5t58.5 94.5l-66 -38
q-105 -59 -193 -126q-130 -98 -137 -166q-2 -27 22 -27z" />
    <glyph glyph-name="Zdotaccent" unicode="&#x17b;" horiz-adv-x="494" 
d="M472 329q-30 -18 -74 -30.5t-76 -14.5q-51 -2 -76.5 11t-23.5 45q2 35 42.5 59t89.5 26q15 0 15 -5q0 -1 -15 -3q-28 -2 -50 -13t-23 -27q-1 -19 16.5 -27.5t44.5 -10.5q84 -6 150 11q21 25 49 47q29 24 47 20q7 -2 9.5 -9t-2.5 -15q-6 -8 -19 -15.5t-34 -18l-29 -14.5
q-35 -28 -145 -105l-103 -71v-1q25 6 55 2q49 -6 76.5 -38.5t29.5 -87.5q31 18 63 45q15 12 17 10q4 -3 -11 -18q-26 -26 -68 -48q-4 -105 -140 -220q-82 -70 -204 -121.5t-191 -50.5q-63 2 -63 46q0 82 211 190q61 32 154.5 70t135.5 60q19 82 -10 114q-14 16 -40 21t-45 1
q-21 -18 -61 -43q-62 -39 -73 -21q-5 9 13 26.5t44 29.5q49 24 84 31l26.5 17.5l38 26.5l36.5 26zM327 -6q-40 -21 -134.5 -61t-146.5 -68l-58.5 -31.5t-53 -32.5t-50 -37t-31 -37t-13.5 -40q0 -18 14.5 -27t36.5 -9q61 0 150.5 47.5t159.5 119.5q108 111 126 176zM215 140
q-19 -1 -52 -17q-21 -10 -34 -20t-11 -15q5 -9 49 20q30 19 48 32zM454 453q-12 12 -2 40q10 24 50 24q14 0 18 -9t-6 -21q-12 -14 -31 -24t-29 -10z" />
    <glyph glyph-name="zdotaccent" unicode="&#x17c;" horiz-adv-x="280" 
d="M217 318h1q16 0 20 -10t-7 -23q-24 -28 -63 -37q-9 18 -1 45q7 25 50 25zM50 36q12 4 31 4q61 0 78 -33q24 12 59 36q26 18 63 51q10 8 13 5t-3 -9q-33 -31 -69 -56q-30 -20 -59 -35q3 -9 3 -19q-1 -95 -164 -236q-62 -55 -155 -102t-138 -47q-51 0 -51 37q0 63 155 177
q25 18 57.5 38.5l54 33l53 30t39.5 22.5q67 38 73 42q6 26 -1.5 40t-22.5 14q-35 0 -72 -37q-8 -8 -12 -5q-8 6 0 17q11 17 39 30q7 3 44 20t60 29q50 25 81 53q7 7 4 11q-1 1 -8 -3q-44 -32 -87 -32q-45 0 -58 26q-25 -29 -57 -58q-12 -10 -15 -7q-4 4 6 12q25 23 62 63
q-2 17 10 32t36 15q17 0 20 -10q-16 0 -17 -11q-2 -20 52 -20q52 0 88 12q17 5 22 1q6 -6 -6 -23q-28 -40 -88 -68q-17 -8 -62.5 -21t-57.5 -19zM-287 -394h1q39 0 101.5 46t123.5 111q44 45 89.5 105.5t58.5 94.5l-66 -38q-105 -59 -193 -126q-130 -98 -137 -166
q-2 -27 22 -27z" />
    <glyph glyph-name="Zcaron" unicode="&#x17d;" horiz-adv-x="494" 
d="M472 329q-30 -18 -74 -30.5t-76 -14.5q-51 -2 -76.5 11t-23.5 45q2 35 42.5 59t89.5 26q15 0 15 -5q0 -1 -15 -3q-28 -2 -50 -13t-23 -27q-1 -19 16.5 -27.5t44.5 -10.5q84 -6 150 11q21 25 49 47q29 24 47 20q7 -2 9.5 -9t-2.5 -15q-6 -8 -19 -15.5t-34 -18l-29 -14.5
q-35 -28 -145 -105l-103 -71v-1q25 6 55 2q49 -6 76.5 -38.5t29.5 -87.5q31 18 63 45q15 12 17 10q4 -3 -11 -18q-26 -26 -68 -48q-4 -105 -140 -220q-82 -70 -204 -121.5t-191 -50.5q-63 2 -63 46q0 82 211 190q61 32 154.5 70t135.5 60q19 82 -10 114q-14 16 -40 21t-45 1
q-21 -18 -61 -43q-62 -39 -73 -21q-5 9 13 26.5t44 29.5q49 24 84 31l26.5 17.5l38 26.5l36.5 26zM327 -6q-40 -21 -134.5 -61t-146.5 -68l-58.5 -31.5t-53 -32.5t-50 -37t-31 -37t-13.5 -40q0 -18 14.5 -27t36.5 -9q61 0 150.5 47.5t159.5 119.5q108 111 126 176zM215 140
q-19 -1 -52 -17q-21 -10 -34 -20t-11 -15q5 -9 49 20q30 19 48 32zM458 456q-2 0 -6 7q-14 35 -37 74q-4 7 -3 8q3 3 13 -2q28 -13 52 -35q53 26 103 39q13 3 14 0q1 -4 -7 -8q-50 -29 -118 -78q-7 -5 -11 -5z" />
    <glyph glyph-name="zcaron" unicode="&#x17e;" horiz-adv-x="280" 
d="M182 245q-5 2 -7 8q-16 44 -37 77q-4 6 -3 8q2 3 13 -1q34 -15 57 -35q43 21 103 39q15 5 16 0q1 -3 -8 -9q-73 -41 -122 -82q-6 -6 -12 -5zM50 36q12 4 31 4q61 0 78 -33q24 12 59 36q26 18 63 51q10 8 13 5t-3 -9q-33 -31 -69 -56q-30 -20 -59 -35q3 -9 3 -19
q-1 -95 -164 -236q-62 -55 -155 -102t-138 -47q-51 0 -51 37q0 63 155 177q25 18 57.5 38.5l54 33l53 30t39.5 22.5q67 38 73 42q6 26 -1.5 40t-22.5 14q-35 0 -72 -37q-8 -8 -12 -5q-8 6 0 17q11 17 39 30q7 3 44 20t60 29q50 25 81 53q7 7 4 11q-1 1 -8 -3
q-44 -32 -87 -32q-45 0 -58 26q-25 -29 -57 -58q-12 -10 -15 -7q-4 4 6 12q25 23 62 63q-2 17 10 32t36 15q17 0 20 -10q-16 0 -17 -11q-2 -20 52 -20q52 0 88 12q17 5 22 1q6 -6 -6 -23q-28 -40 -88 -68q-17 -8 -62.5 -21t-57.5 -19zM-287 -394h1q39 0 101.5 46t123.5 111
q44 45 89.5 105.5t58.5 94.5l-66 -38q-105 -59 -193 -126q-130 -98 -137 -166q-2 -27 22 -27z" />
    </font>
</defs>
</svg>
